G04 #@! TF.GenerationSoftware,KiCad,Pcbnew,5.1.5-52549c5~84~ubuntu16.04.1*
G04 #@! TF.CreationDate,2020-01-10T16:04:47+01:00*
G04 #@! TF.ProjectId,Filter_PCB_4,46696c74-6572-45f5-9043-425f342e6b69,rev?*
G04 #@! TF.SameCoordinates,Original*
G04 #@! TF.FileFunction,Copper,L2,Inr*
G04 #@! TF.FilePolarity,Positive*
%FSLAX46Y46*%
G04 Gerber Fmt 4.6, Leading zero omitted, Abs format (unit mm)*
G04 Created by KiCad (PCBNEW 5.1.5-52549c5~84~ubuntu16.04.1) date 2020-01-10 16:04:47*
%MOMM*%
%LPD*%
G04 APERTURE LIST*
%ADD10C,0.500000*%
%ADD11C,0.200000*%
G04 APERTURE END LIST*
D10*
X158500000Y-104500000D03*
X155400000Y-103700000D03*
X154000000Y-103700000D03*
X154000000Y-104500000D03*
X153200000Y-104500000D03*
X153200000Y-103700000D03*
X155400000Y-104500000D03*
X156800000Y-104500000D03*
X161600000Y-104500000D03*
X161600000Y-103900000D03*
X167800000Y-104500000D03*
X174000000Y-104500000D03*
X163100000Y-104500000D03*
X169200000Y-104500000D03*
X167800000Y-103900000D03*
X163100000Y-103900000D03*
X175500000Y-104500000D03*
X176300000Y-104500000D03*
X177100000Y-104500000D03*
X177900000Y-104500000D03*
X178700000Y-104500000D03*
X179500000Y-104500000D03*
X180300000Y-104500000D03*
X174000000Y-103900000D03*
X175900000Y-103900000D03*
X176700000Y-103900000D03*
X177500000Y-103900000D03*
X178300000Y-103900000D03*
X179100000Y-103900000D03*
X179500000Y-103300000D03*
X178700000Y-103300000D03*
X177900000Y-103300000D03*
X177100000Y-103300000D03*
X176300000Y-103300000D03*
X149000000Y-96600000D03*
X149800000Y-96600000D03*
X150600000Y-96600000D03*
X151400000Y-96600000D03*
X152200000Y-96600000D03*
X149400000Y-97200000D03*
X150200000Y-97200000D03*
X151000000Y-97200000D03*
X151800000Y-97200000D03*
X149800000Y-97800000D03*
X149000000Y-97800000D03*
X150600000Y-97800000D03*
X151400000Y-97800000D03*
X152200000Y-97800000D03*
X176300000Y-97500000D03*
X176300000Y-96700000D03*
X175700000Y-97100000D03*
X175100000Y-96700000D03*
X175900000Y-102700000D03*
X160200000Y-104500000D03*
X160200000Y-103700000D03*
X166400000Y-103900000D03*
X172600000Y-104500000D03*
X172600000Y-103900000D03*
X166400000Y-104500000D03*
X164700000Y-104500000D03*
X179900000Y-103900000D03*
X180300000Y-103300000D03*
X175100000Y-97500000D03*
X170900000Y-104500000D03*
X169200000Y-103700000D03*
X156800000Y-103900000D03*
X173200000Y-96700000D03*
X154600000Y-96700000D03*
X170100000Y-96700000D03*
X157700000Y-96700000D03*
X160800000Y-96700000D03*
X167000000Y-96700000D03*
X163900000Y-96700000D03*
D11*
G36*
X154295930Y-96329490D02*
G01*
X154229490Y-96395930D01*
X154177288Y-96474056D01*
X154141331Y-96560864D01*
X154123000Y-96653020D01*
X154123000Y-96746980D01*
X154141331Y-96839136D01*
X154177288Y-96925944D01*
X154229490Y-97004070D01*
X154295930Y-97070510D01*
X154374056Y-97122712D01*
X154460864Y-97158669D01*
X154553020Y-97177000D01*
X154646980Y-97177000D01*
X154739136Y-97158669D01*
X154825944Y-97122712D01*
X154904070Y-97070510D01*
X154970510Y-97004070D01*
X155022712Y-96925944D01*
X155058669Y-96839136D01*
X155077000Y-96746980D01*
X155077000Y-96653020D01*
X155058669Y-96560864D01*
X155022712Y-96474056D01*
X154970510Y-96395930D01*
X154904070Y-96329490D01*
X154897350Y-96325000D01*
X157402650Y-96325000D01*
X157395930Y-96329490D01*
X157329490Y-96395930D01*
X157277288Y-96474056D01*
X157241331Y-96560864D01*
X157223000Y-96653020D01*
X157223000Y-96746980D01*
X157241331Y-96839136D01*
X157277288Y-96925944D01*
X157329490Y-97004070D01*
X157395930Y-97070510D01*
X157474056Y-97122712D01*
X157560864Y-97158669D01*
X157653020Y-97177000D01*
X157746980Y-97177000D01*
X157839136Y-97158669D01*
X157925944Y-97122712D01*
X158004070Y-97070510D01*
X158070510Y-97004070D01*
X158122712Y-96925944D01*
X158158669Y-96839136D01*
X158177000Y-96746980D01*
X158177000Y-96653020D01*
X158158669Y-96560864D01*
X158122712Y-96474056D01*
X158070510Y-96395930D01*
X158004070Y-96329490D01*
X157997350Y-96325000D01*
X160502650Y-96325000D01*
X160495930Y-96329490D01*
X160429490Y-96395930D01*
X160377288Y-96474056D01*
X160341331Y-96560864D01*
X160323000Y-96653020D01*
X160323000Y-96746980D01*
X160341331Y-96839136D01*
X160377288Y-96925944D01*
X160429490Y-97004070D01*
X160495930Y-97070510D01*
X160574056Y-97122712D01*
X160660864Y-97158669D01*
X160753020Y-97177000D01*
X160846980Y-97177000D01*
X160939136Y-97158669D01*
X161025944Y-97122712D01*
X161104070Y-97070510D01*
X161170510Y-97004070D01*
X161222712Y-96925944D01*
X161258669Y-96839136D01*
X161277000Y-96746980D01*
X161277000Y-96653020D01*
X161258669Y-96560864D01*
X161222712Y-96474056D01*
X161170510Y-96395930D01*
X161104070Y-96329490D01*
X161097350Y-96325000D01*
X163602650Y-96325000D01*
X163595930Y-96329490D01*
X163529490Y-96395930D01*
X163477288Y-96474056D01*
X163441331Y-96560864D01*
X163423000Y-96653020D01*
X163423000Y-96746980D01*
X163441331Y-96839136D01*
X163477288Y-96925944D01*
X163529490Y-97004070D01*
X163595930Y-97070510D01*
X163674056Y-97122712D01*
X163760864Y-97158669D01*
X163853020Y-97177000D01*
X163946980Y-97177000D01*
X164039136Y-97158669D01*
X164125944Y-97122712D01*
X164204070Y-97070510D01*
X164270510Y-97004070D01*
X164322712Y-96925944D01*
X164358669Y-96839136D01*
X164377000Y-96746980D01*
X164377000Y-96653020D01*
X164358669Y-96560864D01*
X164322712Y-96474056D01*
X164270510Y-96395930D01*
X164204070Y-96329490D01*
X164197350Y-96325000D01*
X166702650Y-96325000D01*
X166695930Y-96329490D01*
X166629490Y-96395930D01*
X166577288Y-96474056D01*
X166541331Y-96560864D01*
X166523000Y-96653020D01*
X166523000Y-96746980D01*
X166541331Y-96839136D01*
X166577288Y-96925944D01*
X166629490Y-97004070D01*
X166695930Y-97070510D01*
X166774056Y-97122712D01*
X166860864Y-97158669D01*
X166953020Y-97177000D01*
X167046980Y-97177000D01*
X167139136Y-97158669D01*
X167225944Y-97122712D01*
X167304070Y-97070510D01*
X167370510Y-97004070D01*
X167422712Y-96925944D01*
X167458669Y-96839136D01*
X167477000Y-96746980D01*
X167477000Y-96653020D01*
X167458669Y-96560864D01*
X167422712Y-96474056D01*
X167370510Y-96395930D01*
X167304070Y-96329490D01*
X167297350Y-96325000D01*
X169802650Y-96325000D01*
X169795930Y-96329490D01*
X169729490Y-96395930D01*
X169677288Y-96474056D01*
X169641331Y-96560864D01*
X169623000Y-96653020D01*
X169623000Y-96746980D01*
X169641331Y-96839136D01*
X169677288Y-96925944D01*
X169729490Y-97004070D01*
X169795930Y-97070510D01*
X169874056Y-97122712D01*
X169960864Y-97158669D01*
X170053020Y-97177000D01*
X170146980Y-97177000D01*
X170239136Y-97158669D01*
X170325944Y-97122712D01*
X170404070Y-97070510D01*
X170470510Y-97004070D01*
X170522712Y-96925944D01*
X170558669Y-96839136D01*
X170577000Y-96746980D01*
X170577000Y-96653020D01*
X170558669Y-96560864D01*
X170522712Y-96474056D01*
X170470510Y-96395930D01*
X170404070Y-96329490D01*
X170397350Y-96325000D01*
X172902650Y-96325000D01*
X172895930Y-96329490D01*
X172829490Y-96395930D01*
X172777288Y-96474056D01*
X172741331Y-96560864D01*
X172723000Y-96653020D01*
X172723000Y-96746980D01*
X172741331Y-96839136D01*
X172777288Y-96925944D01*
X172829490Y-97004070D01*
X172895930Y-97070510D01*
X172974056Y-97122712D01*
X173060864Y-97158669D01*
X173153020Y-97177000D01*
X173246980Y-97177000D01*
X173339136Y-97158669D01*
X173425944Y-97122712D01*
X173504070Y-97070510D01*
X173570510Y-97004070D01*
X173622712Y-96925944D01*
X173658669Y-96839136D01*
X173677000Y-96746980D01*
X173677000Y-96653020D01*
X173658669Y-96560864D01*
X173622712Y-96474056D01*
X173570510Y-96395930D01*
X173504070Y-96329490D01*
X173497350Y-96325000D01*
X180388999Y-96325000D01*
X180453201Y-96331295D01*
X180504384Y-96346748D01*
X180551587Y-96371846D01*
X180593013Y-96405632D01*
X180627093Y-96446828D01*
X180652518Y-96493851D01*
X180668327Y-96544924D01*
X180675001Y-96608420D01*
X180675000Y-104488998D01*
X180668705Y-104553202D01*
X180653252Y-104604384D01*
X180628154Y-104651587D01*
X180594368Y-104693013D01*
X180553173Y-104727092D01*
X180506152Y-104752517D01*
X180455080Y-104768326D01*
X180391588Y-104775000D01*
X149011002Y-104775000D01*
X148946798Y-104768705D01*
X148895616Y-104753252D01*
X148848413Y-104728154D01*
X148806987Y-104694368D01*
X148772908Y-104653173D01*
X148747483Y-104606152D01*
X148731674Y-104555080D01*
X148725000Y-104491588D01*
X148725000Y-96611001D01*
X148731295Y-96546799D01*
X148746748Y-96495616D01*
X148771846Y-96448413D01*
X148805632Y-96406987D01*
X148846828Y-96372907D01*
X148893851Y-96347482D01*
X148944924Y-96331673D01*
X149008411Y-96325000D01*
X154302650Y-96325000D01*
X154295930Y-96329490D01*
G37*
X154295930Y-96329490D02*
X154229490Y-96395930D01*
X154177288Y-96474056D01*
X154141331Y-96560864D01*
X154123000Y-96653020D01*
X154123000Y-96746980D01*
X154141331Y-96839136D01*
X154177288Y-96925944D01*
X154229490Y-97004070D01*
X154295930Y-97070510D01*
X154374056Y-97122712D01*
X154460864Y-97158669D01*
X154553020Y-97177000D01*
X154646980Y-97177000D01*
X154739136Y-97158669D01*
X154825944Y-97122712D01*
X154904070Y-97070510D01*
X154970510Y-97004070D01*
X155022712Y-96925944D01*
X155058669Y-96839136D01*
X155077000Y-96746980D01*
X155077000Y-96653020D01*
X155058669Y-96560864D01*
X155022712Y-96474056D01*
X154970510Y-96395930D01*
X154904070Y-96329490D01*
X154897350Y-96325000D01*
X157402650Y-96325000D01*
X157395930Y-96329490D01*
X157329490Y-96395930D01*
X157277288Y-96474056D01*
X157241331Y-96560864D01*
X157223000Y-96653020D01*
X157223000Y-96746980D01*
X157241331Y-96839136D01*
X157277288Y-96925944D01*
X157329490Y-97004070D01*
X157395930Y-97070510D01*
X157474056Y-97122712D01*
X157560864Y-97158669D01*
X157653020Y-97177000D01*
X157746980Y-97177000D01*
X157839136Y-97158669D01*
X157925944Y-97122712D01*
X158004070Y-97070510D01*
X158070510Y-97004070D01*
X158122712Y-96925944D01*
X158158669Y-96839136D01*
X158177000Y-96746980D01*
X158177000Y-96653020D01*
X158158669Y-96560864D01*
X158122712Y-96474056D01*
X158070510Y-96395930D01*
X158004070Y-96329490D01*
X157997350Y-96325000D01*
X160502650Y-96325000D01*
X160495930Y-96329490D01*
X160429490Y-96395930D01*
X160377288Y-96474056D01*
X160341331Y-96560864D01*
X160323000Y-96653020D01*
X160323000Y-96746980D01*
X160341331Y-96839136D01*
X160377288Y-96925944D01*
X160429490Y-97004070D01*
X160495930Y-97070510D01*
X160574056Y-97122712D01*
X160660864Y-97158669D01*
X160753020Y-97177000D01*
X160846980Y-97177000D01*
X160939136Y-97158669D01*
X161025944Y-97122712D01*
X161104070Y-97070510D01*
X161170510Y-97004070D01*
X161222712Y-96925944D01*
X161258669Y-96839136D01*
X161277000Y-96746980D01*
X161277000Y-96653020D01*
X161258669Y-96560864D01*
X161222712Y-96474056D01*
X161170510Y-96395930D01*
X161104070Y-96329490D01*
X161097350Y-96325000D01*
X163602650Y-96325000D01*
X163595930Y-96329490D01*
X163529490Y-96395930D01*
X163477288Y-96474056D01*
X163441331Y-96560864D01*
X163423000Y-96653020D01*
X163423000Y-96746980D01*
X163441331Y-96839136D01*
X163477288Y-96925944D01*
X163529490Y-97004070D01*
X163595930Y-97070510D01*
X163674056Y-97122712D01*
X163760864Y-97158669D01*
X163853020Y-97177000D01*
X163946980Y-97177000D01*
X164039136Y-97158669D01*
X164125944Y-97122712D01*
X164204070Y-97070510D01*
X164270510Y-97004070D01*
X164322712Y-96925944D01*
X164358669Y-96839136D01*
X164377000Y-96746980D01*
X164377000Y-96653020D01*
X164358669Y-96560864D01*
X164322712Y-96474056D01*
X164270510Y-96395930D01*
X164204070Y-96329490D01*
X164197350Y-96325000D01*
X166702650Y-96325000D01*
X166695930Y-96329490D01*
X166629490Y-96395930D01*
X166577288Y-96474056D01*
X166541331Y-96560864D01*
X166523000Y-96653020D01*
X166523000Y-96746980D01*
X166541331Y-96839136D01*
X166577288Y-96925944D01*
X166629490Y-97004070D01*
X166695930Y-97070510D01*
X166774056Y-97122712D01*
X166860864Y-97158669D01*
X166953020Y-97177000D01*
X167046980Y-97177000D01*
X167139136Y-97158669D01*
X167225944Y-97122712D01*
X167304070Y-97070510D01*
X167370510Y-97004070D01*
X167422712Y-96925944D01*
X167458669Y-96839136D01*
X167477000Y-96746980D01*
X167477000Y-96653020D01*
X167458669Y-96560864D01*
X167422712Y-96474056D01*
X167370510Y-96395930D01*
X167304070Y-96329490D01*
X167297350Y-96325000D01*
X169802650Y-96325000D01*
X169795930Y-96329490D01*
X169729490Y-96395930D01*
X169677288Y-96474056D01*
X169641331Y-96560864D01*
X169623000Y-96653020D01*
X169623000Y-96746980D01*
X169641331Y-96839136D01*
X169677288Y-96925944D01*
X169729490Y-97004070D01*
X169795930Y-97070510D01*
X169874056Y-97122712D01*
X169960864Y-97158669D01*
X170053020Y-97177000D01*
X170146980Y-97177000D01*
X170239136Y-97158669D01*
X170325944Y-97122712D01*
X170404070Y-97070510D01*
X170470510Y-97004070D01*
X170522712Y-96925944D01*
X170558669Y-96839136D01*
X170577000Y-96746980D01*
X170577000Y-96653020D01*
X170558669Y-96560864D01*
X170522712Y-96474056D01*
X170470510Y-96395930D01*
X170404070Y-96329490D01*
X170397350Y-96325000D01*
X172902650Y-96325000D01*
X172895930Y-96329490D01*
X172829490Y-96395930D01*
X172777288Y-96474056D01*
X172741331Y-96560864D01*
X172723000Y-96653020D01*
X172723000Y-96746980D01*
X172741331Y-96839136D01*
X172777288Y-96925944D01*
X172829490Y-97004070D01*
X172895930Y-97070510D01*
X172974056Y-97122712D01*
X173060864Y-97158669D01*
X173153020Y-97177000D01*
X173246980Y-97177000D01*
X173339136Y-97158669D01*
X173425944Y-97122712D01*
X173504070Y-97070510D01*
X173570510Y-97004070D01*
X173622712Y-96925944D01*
X173658669Y-96839136D01*
X173677000Y-96746980D01*
X173677000Y-96653020D01*
X173658669Y-96560864D01*
X173622712Y-96474056D01*
X173570510Y-96395930D01*
X173504070Y-96329490D01*
X173497350Y-96325000D01*
X180388999Y-96325000D01*
X180453201Y-96331295D01*
X180504384Y-96346748D01*
X180551587Y-96371846D01*
X180593013Y-96405632D01*
X180627093Y-96446828D01*
X180652518Y-96493851D01*
X180668327Y-96544924D01*
X180675001Y-96608420D01*
X180675000Y-104488998D01*
X180668705Y-104553202D01*
X180653252Y-104604384D01*
X180628154Y-104651587D01*
X180594368Y-104693013D01*
X180553173Y-104727092D01*
X180506152Y-104752517D01*
X180455080Y-104768326D01*
X180391588Y-104775000D01*
X149011002Y-104775000D01*
X148946798Y-104768705D01*
X148895616Y-104753252D01*
X148848413Y-104728154D01*
X148806987Y-104694368D01*
X148772908Y-104653173D01*
X148747483Y-104606152D01*
X148731674Y-104555080D01*
X148725000Y-104491588D01*
X148725000Y-96611001D01*
X148731295Y-96546799D01*
X148746748Y-96495616D01*
X148771846Y-96448413D01*
X148805632Y-96406987D01*
X148846828Y-96372907D01*
X148893851Y-96347482D01*
X148944924Y-96331673D01*
X149008411Y-96325000D01*
X154302650Y-96325000D01*
X154295930Y-96329490D01*
M02*
