G04 #@! TF.GenerationSoftware,KiCad,Pcbnew,5.1.5*
G04 #@! TF.CreationDate,2020-02-12T19:16:24+01:00*
G04 #@! TF.ProjectId,Filter_PCB_4_btob,46696c74-6572-45f5-9043-425f345f6274,rev?*
G04 #@! TF.SameCoordinates,Original*
G04 #@! TF.FileFunction,Legend,Bot*
G04 #@! TF.FilePolarity,Positive*
%FSLAX46Y46*%
G04 Gerber Fmt 4.6, Leading zero omitted, Abs format (unit mm)*
G04 Created by KiCad (PCBNEW 5.1.5) date 2020-02-12 19:16:24*
%MOMM*%
%LPD*%
G04 APERTURE LIST*
%ADD10C,0.120000*%
%ADD11C,0.150000*%
%ADD12C,0.100000*%
G04 APERTURE END LIST*
D10*
X166000000Y-99283333D02*
X165966666Y-99250000D01*
X165900000Y-99216666D01*
X165733333Y-99216666D01*
X165666666Y-99250000D01*
X165633333Y-99283333D01*
X165600000Y-99350000D01*
X165600000Y-99416666D01*
X165633333Y-99516666D01*
X166033333Y-99916666D01*
X165600000Y-99916666D01*
X165666666Y-101950000D02*
X165666666Y-102416666D01*
X165833333Y-101683333D02*
X166000000Y-102183333D01*
X165566666Y-102183333D01*
X165666666Y-104216666D02*
X165800000Y-104216666D01*
X165866666Y-104250000D01*
X165900000Y-104283333D01*
X165966666Y-104383333D01*
X166000000Y-104516666D01*
X166000000Y-104783333D01*
X165966666Y-104850000D01*
X165933333Y-104883333D01*
X165866666Y-104916666D01*
X165733333Y-104916666D01*
X165666666Y-104883333D01*
X165633333Y-104850000D01*
X165600000Y-104783333D01*
X165600000Y-104616666D01*
X165633333Y-104550000D01*
X165666666Y-104516666D01*
X165733333Y-104483333D01*
X165866666Y-104483333D01*
X165933333Y-104516666D01*
X165966666Y-104550000D01*
X166000000Y-104616666D01*
X172233333Y-104216666D02*
X172566666Y-104216666D01*
X172600000Y-104550000D01*
X172566666Y-104516666D01*
X172500000Y-104483333D01*
X172333333Y-104483333D01*
X172266666Y-104516666D01*
X172233333Y-104550000D01*
X172200000Y-104616666D01*
X172200000Y-104783333D01*
X172233333Y-104850000D01*
X172266666Y-104883333D01*
X172333333Y-104916666D01*
X172500000Y-104916666D01*
X172566666Y-104883333D01*
X172600000Y-104850000D01*
X172633333Y-101716666D02*
X172200000Y-101716666D01*
X172433333Y-101983333D01*
X172333333Y-101983333D01*
X172266666Y-102016666D01*
X172233333Y-102050000D01*
X172200000Y-102116666D01*
X172200000Y-102283333D01*
X172233333Y-102350000D01*
X172266666Y-102383333D01*
X172333333Y-102416666D01*
X172533333Y-102416666D01*
X172600000Y-102383333D01*
X172633333Y-102350000D01*
X172200000Y-99916666D02*
X172600000Y-99916666D01*
X172400000Y-99916666D02*
X172400000Y-99216666D01*
X172466666Y-99316666D01*
X172533333Y-99383333D01*
X172600000Y-99416666D01*
X159900000Y-99000000D02*
X159900000Y-98800000D01*
X161600000Y-99600000D02*
X162600000Y-99600000D01*
D11*
X155754285Y-100957142D02*
X156182857Y-100957142D01*
X156070357Y-100057142D01*
X155443571Y-100871428D02*
X155406071Y-100914285D01*
X155454285Y-100957142D01*
X155491785Y-100914285D01*
X155443571Y-100871428D01*
X155454285Y-100957142D01*
X155036428Y-100700000D02*
X154607857Y-100700000D01*
X155154285Y-100957142D02*
X154741785Y-100057142D01*
X154554285Y-100957142D01*
X154179285Y-100357142D02*
X154254285Y-100957142D01*
X154190000Y-100442857D02*
X154141785Y-100400000D01*
X154050714Y-100357142D01*
X153922142Y-100357142D01*
X153841785Y-100400000D01*
X153809642Y-100485714D01*
X153868571Y-100957142D01*
X153054285Y-100957142D02*
X152995357Y-100485714D01*
X153027500Y-100400000D01*
X153107857Y-100357142D01*
X153279285Y-100357142D01*
X153370357Y-100400000D01*
X153048928Y-100914285D02*
X153140000Y-100957142D01*
X153354285Y-100957142D01*
X153434642Y-100914285D01*
X153466785Y-100828571D01*
X153456071Y-100742857D01*
X153402500Y-100657142D01*
X153311428Y-100614285D01*
X153097142Y-100614285D01*
X153006071Y-100571428D01*
X152663214Y-100914285D02*
X152582857Y-100957142D01*
X152411428Y-100957142D01*
X152320357Y-100914285D01*
X152266785Y-100828571D01*
X152261428Y-100785714D01*
X152293571Y-100700000D01*
X152373928Y-100657142D01*
X152502500Y-100657142D01*
X152582857Y-100614285D01*
X152615000Y-100528571D01*
X152609642Y-100485714D01*
X152556071Y-100400000D01*
X152465000Y-100357142D01*
X152336428Y-100357142D01*
X152256071Y-100400000D01*
X151950714Y-100357142D02*
X151607857Y-100357142D01*
X151784642Y-100057142D02*
X151881071Y-100828571D01*
X151848928Y-100914285D01*
X151768571Y-100957142D01*
X151682857Y-100957142D01*
X150997142Y-100957142D02*
X150938214Y-100485714D01*
X150970357Y-100400000D01*
X151050714Y-100357142D01*
X151222142Y-100357142D01*
X151313214Y-100400000D01*
X150991785Y-100914285D02*
X151082857Y-100957142D01*
X151297142Y-100957142D01*
X151377500Y-100914285D01*
X151409642Y-100828571D01*
X151398928Y-100742857D01*
X151345357Y-100657142D01*
X151254285Y-100614285D01*
X151040000Y-100614285D01*
X150948928Y-100571428D01*
X150606071Y-100914285D02*
X150525714Y-100957142D01*
X150354285Y-100957142D01*
X150263214Y-100914285D01*
X150209642Y-100828571D01*
X150204285Y-100785714D01*
X150236428Y-100700000D01*
X150316785Y-100657142D01*
X150445357Y-100657142D01*
X150525714Y-100614285D01*
X150557857Y-100528571D01*
X150552500Y-100485714D01*
X150498928Y-100400000D01*
X150407857Y-100357142D01*
X150279285Y-100357142D01*
X150198928Y-100400000D01*
X149840000Y-100957142D02*
X149765000Y-100357142D01*
X149727500Y-100057142D02*
X149775714Y-100100000D01*
X149738214Y-100142857D01*
X149690000Y-100100000D01*
X149727500Y-100057142D01*
X149738214Y-100142857D01*
X149282857Y-100957142D02*
X149363214Y-100914285D01*
X149400714Y-100871428D01*
X149432857Y-100785714D01*
X149400714Y-100528571D01*
X149347142Y-100442857D01*
X149298928Y-100400000D01*
X149207857Y-100357142D01*
X149079285Y-100357142D01*
X148998928Y-100400000D01*
X148961428Y-100442857D01*
X148929285Y-100528571D01*
X148961428Y-100785714D01*
X149015000Y-100871428D01*
X149063214Y-100914285D01*
X149154285Y-100957142D01*
X149282857Y-100957142D01*
X156123928Y-101985714D02*
X155823928Y-101985714D01*
X155754285Y-102457142D02*
X156182857Y-102457142D01*
X156070357Y-101557142D01*
X155641785Y-101557142D01*
X155357857Y-102371428D02*
X155320357Y-102414285D01*
X155368571Y-102457142D01*
X155406071Y-102414285D01*
X155357857Y-102371428D01*
X155368571Y-102457142D01*
X154940000Y-102457142D02*
X154827500Y-101557142D01*
X154613214Y-101557142D01*
X154490000Y-101600000D01*
X154415000Y-101685714D01*
X154382857Y-101771428D01*
X154361428Y-101942857D01*
X154377500Y-102071428D01*
X154441785Y-102242857D01*
X154495357Y-102328571D01*
X154591785Y-102414285D01*
X154725714Y-102457142D01*
X154940000Y-102457142D01*
X153884642Y-101557142D02*
X153991785Y-101728571D01*
X153622142Y-102200000D02*
X153193571Y-102200000D01*
X153740000Y-102457142D02*
X153327500Y-101557142D01*
X153140000Y-102457142D01*
X152840000Y-102457142D02*
X152765000Y-101857142D01*
X152775714Y-101942857D02*
X152727500Y-101900000D01*
X152636428Y-101857142D01*
X152507857Y-101857142D01*
X152427500Y-101900000D01*
X152395357Y-101985714D01*
X152454285Y-102457142D01*
X152395357Y-101985714D02*
X152341785Y-101900000D01*
X152250714Y-101857142D01*
X152122142Y-101857142D01*
X152041785Y-101900000D01*
X152009642Y-101985714D01*
X152068571Y-102457142D01*
X151640000Y-102457142D02*
X151565000Y-101857142D01*
X151527500Y-101557142D02*
X151575714Y-101600000D01*
X151538214Y-101642857D01*
X151490000Y-101600000D01*
X151527500Y-101557142D01*
X151538214Y-101642857D01*
X150820357Y-102414285D02*
X150911428Y-102457142D01*
X151082857Y-102457142D01*
X151163214Y-102414285D01*
X151200714Y-102371428D01*
X151232857Y-102285714D01*
X151200714Y-102028571D01*
X151147142Y-101942857D01*
X151098928Y-101900000D01*
X151007857Y-101857142D01*
X150836428Y-101857142D01*
X150756071Y-101900000D01*
X150311428Y-102457142D02*
X150391785Y-102414285D01*
X150429285Y-102371428D01*
X150461428Y-102285714D01*
X150429285Y-102028571D01*
X150375714Y-101942857D01*
X150327500Y-101900000D01*
X150236428Y-101857142D01*
X150107857Y-101857142D01*
X150027500Y-101900000D01*
X149990000Y-101942857D01*
X149957857Y-102028571D01*
X149990000Y-102285714D01*
X150043571Y-102371428D01*
X150091785Y-102414285D01*
X150182857Y-102457142D01*
X150311428Y-102457142D01*
D10*
X164433333Y-103916666D02*
X164666666Y-103583333D01*
X164833333Y-103916666D02*
X164833333Y-103216666D01*
X164566666Y-103216666D01*
X164500000Y-103250000D01*
X164466666Y-103283333D01*
X164433333Y-103350000D01*
X164433333Y-103450000D01*
X164466666Y-103516666D01*
X164500000Y-103550000D01*
X164566666Y-103583333D01*
X164833333Y-103583333D01*
X164133333Y-103916666D02*
X164133333Y-103216666D01*
X163966666Y-103216666D01*
X163866666Y-103250000D01*
X163800000Y-103316666D01*
X163766666Y-103383333D01*
X163733333Y-103516666D01*
X163733333Y-103616666D01*
X163766666Y-103750000D01*
X163800000Y-103816666D01*
X163866666Y-103883333D01*
X163966666Y-103916666D01*
X164133333Y-103916666D01*
X163300000Y-103583333D02*
X163300000Y-103916666D01*
X163533333Y-103216666D02*
X163300000Y-103583333D01*
X163066666Y-103216666D01*
X164833333Y-101283333D02*
X164733333Y-101316666D01*
X164566666Y-101316666D01*
X164500000Y-101283333D01*
X164466666Y-101250000D01*
X164433333Y-101183333D01*
X164433333Y-101116666D01*
X164466666Y-101050000D01*
X164500000Y-101016666D01*
X164566666Y-100983333D01*
X164700000Y-100950000D01*
X164766666Y-100916666D01*
X164800000Y-100883333D01*
X164833333Y-100816666D01*
X164833333Y-100750000D01*
X164800000Y-100683333D01*
X164766666Y-100650000D01*
X164700000Y-100616666D01*
X164533333Y-100616666D01*
X164433333Y-100650000D01*
X163733333Y-101250000D02*
X163766666Y-101283333D01*
X163866666Y-101316666D01*
X163933333Y-101316666D01*
X164033333Y-101283333D01*
X164100000Y-101216666D01*
X164133333Y-101150000D01*
X164166666Y-101016666D01*
X164166666Y-100916666D01*
X164133333Y-100783333D01*
X164100000Y-100716666D01*
X164033333Y-100650000D01*
X163933333Y-100616666D01*
X163866666Y-100616666D01*
X163766666Y-100650000D01*
X163733333Y-100683333D01*
X163100000Y-101316666D02*
X163433333Y-101316666D01*
X163433333Y-100616666D01*
X164833333Y-98116666D02*
X164600000Y-98816666D01*
X164366666Y-98116666D01*
X164133333Y-98816666D02*
X164133333Y-98116666D01*
X163966666Y-98116666D01*
X163866666Y-98150000D01*
X163800000Y-98216666D01*
X163766666Y-98283333D01*
X163733333Y-98416666D01*
X163733333Y-98516666D01*
X163766666Y-98650000D01*
X163800000Y-98716666D01*
X163866666Y-98783333D01*
X163966666Y-98816666D01*
X164133333Y-98816666D01*
X163433333Y-98816666D02*
X163433333Y-98116666D01*
X163266666Y-98116666D01*
X163166666Y-98150000D01*
X163100000Y-98216666D01*
X163066666Y-98283333D01*
X163033333Y-98416666D01*
X163033333Y-98516666D01*
X163066666Y-98650000D01*
X163100000Y-98716666D01*
X163166666Y-98783333D01*
X163266666Y-98816666D01*
X163433333Y-98816666D01*
X175983333Y-103040000D02*
X175416666Y-103040000D01*
X175483333Y-104016666D02*
X175816666Y-104016666D01*
X175816666Y-103316666D01*
X175416666Y-103040000D02*
X174716666Y-103040000D01*
X175250000Y-104016666D02*
X175250000Y-103316666D01*
X175083333Y-103316666D01*
X174983333Y-103350000D01*
X174916666Y-103416666D01*
X174883333Y-103483333D01*
X174850000Y-103616666D01*
X174850000Y-103716666D01*
X174883333Y-103850000D01*
X174916666Y-103916666D01*
X174983333Y-103983333D01*
X175083333Y-104016666D01*
X175250000Y-104016666D01*
X174716666Y-103040000D02*
X174116666Y-103040000D01*
X174583333Y-103816666D02*
X174250000Y-103816666D01*
X174650000Y-104016666D02*
X174416666Y-103316666D01*
X174183333Y-104016666D01*
X174116666Y-103040000D02*
X173416666Y-103040000D01*
X173550000Y-103950000D02*
X173583333Y-103983333D01*
X173683333Y-104016666D01*
X173750000Y-104016666D01*
X173850000Y-103983333D01*
X173916666Y-103916666D01*
X173950000Y-103850000D01*
X173983333Y-103716666D01*
X173983333Y-103616666D01*
X173950000Y-103483333D01*
X173916666Y-103416666D01*
X173850000Y-103350000D01*
X173750000Y-103316666D01*
X173683333Y-103316666D01*
X173583333Y-103350000D01*
X173550000Y-103383333D01*
X175150000Y-101283333D02*
X175050000Y-101316666D01*
X174883333Y-101316666D01*
X174816666Y-101283333D01*
X174783333Y-101250000D01*
X174750000Y-101183333D01*
X174750000Y-101116666D01*
X174783333Y-101050000D01*
X174816666Y-101016666D01*
X174883333Y-100983333D01*
X175016666Y-100950000D01*
X175083333Y-100916666D01*
X175116666Y-100883333D01*
X175150000Y-100816666D01*
X175150000Y-100750000D01*
X175116666Y-100683333D01*
X175083333Y-100650000D01*
X175016666Y-100616666D01*
X174850000Y-100616666D01*
X174750000Y-100650000D01*
X174450000Y-101316666D02*
X174450000Y-100616666D01*
X174283333Y-100616666D01*
X174183333Y-100650000D01*
X174116666Y-100716666D01*
X174083333Y-100783333D01*
X174050000Y-100916666D01*
X174050000Y-101016666D01*
X174083333Y-101150000D01*
X174116666Y-101216666D01*
X174183333Y-101283333D01*
X174283333Y-101316666D01*
X174450000Y-101316666D01*
X173783333Y-101116666D02*
X173450000Y-101116666D01*
X173850000Y-101316666D02*
X173616666Y-100616666D01*
X173383333Y-101316666D01*
X174833333Y-98150000D02*
X174900000Y-98116666D01*
X175000000Y-98116666D01*
X175100000Y-98150000D01*
X175166666Y-98216666D01*
X175200000Y-98283333D01*
X175233333Y-98416666D01*
X175233333Y-98516666D01*
X175200000Y-98650000D01*
X175166666Y-98716666D01*
X175100000Y-98783333D01*
X175000000Y-98816666D01*
X174933333Y-98816666D01*
X174833333Y-98783333D01*
X174800000Y-98750000D01*
X174800000Y-98516666D01*
X174933333Y-98516666D01*
X174500000Y-98816666D02*
X174500000Y-98116666D01*
X174100000Y-98816666D01*
X174100000Y-98116666D01*
X173766666Y-98816666D02*
X173766666Y-98116666D01*
X173600000Y-98116666D01*
X173500000Y-98150000D01*
X173433333Y-98216666D01*
X173400000Y-98283333D01*
X173366666Y-98416666D01*
X173366666Y-98516666D01*
X173400000Y-98650000D01*
X173433333Y-98716666D01*
X173500000Y-98783333D01*
X173600000Y-98816666D01*
X173766666Y-98816666D01*
X166500000Y-101760000D02*
X166500000Y-102780000D01*
X171700000Y-101760000D02*
X171700000Y-102780000D01*
X166500000Y-99220000D02*
X166500000Y-100240000D01*
X171700000Y-99220000D02*
X171700000Y-100240000D01*
X166500000Y-104300000D02*
X166500000Y-104870000D01*
X171700000Y-104300000D02*
X171700000Y-104870000D01*
X166500000Y-97130000D02*
X166500000Y-97700000D01*
X171700000Y-97130000D02*
X171700000Y-97700000D01*
X173140000Y-97700000D02*
X171700000Y-97700000D01*
X171700000Y-104870000D02*
X166500000Y-104870000D01*
X171700000Y-97130000D02*
X166500000Y-97130000D01*
X160062779Y-98390000D02*
X159737221Y-98390000D01*
X160062779Y-99410000D02*
X159737221Y-99410000D01*
X162610000Y-99762779D02*
X162610000Y-99437221D01*
X161590000Y-99762779D02*
X161590000Y-99437221D01*
X160062779Y-100810000D02*
X159737221Y-100810000D01*
X160062779Y-99790000D02*
X159737221Y-99790000D01*
D11*
X161575000Y-101225000D02*
X161575000Y-101450000D01*
X158225000Y-101225000D02*
X158225000Y-101525000D01*
X158225000Y-104575000D02*
X158225000Y-104275000D01*
X161575000Y-104575000D02*
X161575000Y-104275000D01*
X161575000Y-101225000D02*
X158225000Y-101225000D01*
X161575000Y-104575000D02*
X158225000Y-104575000D01*
X161575000Y-101450000D02*
X162800000Y-101450000D01*
D12*
X160614285Y-95400000D02*
X160642857Y-95371428D01*
X160671428Y-95285714D01*
X160671428Y-95228571D01*
X160642857Y-95142857D01*
X160585714Y-95085714D01*
X160528571Y-95057142D01*
X160414285Y-95028571D01*
X160328571Y-95028571D01*
X160214285Y-95057142D01*
X160157142Y-95085714D01*
X160100000Y-95142857D01*
X160071428Y-95228571D01*
X160071428Y-95285714D01*
X160100000Y-95371428D01*
X160128571Y-95400000D01*
X160671428Y-95685714D02*
X160671428Y-95800000D01*
X160642857Y-95857142D01*
X160614285Y-95885714D01*
X160528571Y-95942857D01*
X160414285Y-95971428D01*
X160185714Y-95971428D01*
X160128571Y-95942857D01*
X160100000Y-95914285D01*
X160071428Y-95857142D01*
X160071428Y-95742857D01*
X160100000Y-95685714D01*
X160128571Y-95657142D01*
X160185714Y-95628571D01*
X160328571Y-95628571D01*
X160385714Y-95657142D01*
X160414285Y-95685714D01*
X160442857Y-95742857D01*
X160442857Y-95857142D01*
X160414285Y-95914285D01*
X160385714Y-95942857D01*
X160328571Y-95971428D01*
X162171428Y-96700000D02*
X162171428Y-96414285D01*
X161571428Y-96414285D01*
X161771428Y-97157142D02*
X162171428Y-97157142D01*
X161542857Y-97014285D02*
X161971428Y-96871428D01*
X161971428Y-97242857D01*
X158214285Y-92814285D02*
X158242857Y-92785714D01*
X158271428Y-92700000D01*
X158271428Y-92642857D01*
X158242857Y-92557142D01*
X158185714Y-92500000D01*
X158128571Y-92471428D01*
X158014285Y-92442857D01*
X157928571Y-92442857D01*
X157814285Y-92471428D01*
X157757142Y-92500000D01*
X157700000Y-92557142D01*
X157671428Y-92642857D01*
X157671428Y-92700000D01*
X157700000Y-92785714D01*
X157728571Y-92814285D01*
X158271428Y-93385714D02*
X158271428Y-93042857D01*
X158271428Y-93214285D02*
X157671428Y-93214285D01*
X157757142Y-93157142D01*
X157814285Y-93100000D01*
X157842857Y-93042857D01*
X157671428Y-93757142D02*
X157671428Y-93814285D01*
X157700000Y-93871428D01*
X157728571Y-93900000D01*
X157785714Y-93928571D01*
X157900000Y-93957142D01*
X158042857Y-93957142D01*
X158157142Y-93928571D01*
X158214285Y-93900000D01*
X158242857Y-93871428D01*
X158271428Y-93814285D01*
X158271428Y-93757142D01*
X158242857Y-93700000D01*
X158214285Y-93671428D01*
X158157142Y-93642857D01*
X158042857Y-93614285D01*
X157900000Y-93614285D01*
X157785714Y-93642857D01*
X157728571Y-93671428D01*
X157700000Y-93700000D01*
X157671428Y-93757142D01*
X158557142Y-106671428D02*
X158557142Y-107157142D01*
X158528571Y-107214285D01*
X158500000Y-107242857D01*
X158442857Y-107271428D01*
X158328571Y-107271428D01*
X158271428Y-107242857D01*
X158242857Y-107214285D01*
X158214285Y-107157142D01*
X158214285Y-106671428D01*
X157614285Y-107271428D02*
X157957142Y-107271428D01*
X157785714Y-107271428D02*
X157785714Y-106671428D01*
X157842857Y-106757142D01*
X157900000Y-106814285D01*
X157957142Y-106842857D01*
M02*
