G04 #@! TF.GenerationSoftware,KiCad,Pcbnew,5.1.5-52549c5~84~ubuntu16.04.1*
G04 #@! TF.CreationDate,2020-01-10T16:04:47+01:00*
G04 #@! TF.ProjectId,Filter_PCB_4,46696c74-6572-45f5-9043-425f342e6b69,rev?*
G04 #@! TF.SameCoordinates,Original*
G04 #@! TF.FileFunction,Legend,Top*
G04 #@! TF.FilePolarity,Positive*
%FSLAX46Y46*%
G04 Gerber Fmt 4.6, Leading zero omitted, Abs format (unit mm)*
G04 Created by KiCad (PCBNEW 5.1.5-52549c5~84~ubuntu16.04.1) date 2020-01-10 16:04:47*
%MOMM*%
%LPD*%
G04 APERTURE LIST*
%ADD10C,0.120000*%
%ADD11C,0.100000*%
G04 APERTURE END LIST*
D10*
X172700000Y-104000000D02*
X172700000Y-102150000D01*
X173900000Y-104000000D02*
X173900000Y-102150000D01*
X173900000Y-102150000D02*
X172700000Y-102150000D01*
X166500000Y-104000000D02*
X166500000Y-102150000D01*
X167700000Y-104000000D02*
X167700000Y-102150000D01*
X167700000Y-102150000D02*
X166500000Y-102150000D01*
X160300000Y-104000000D02*
X160300000Y-102150000D01*
X161500000Y-104000000D02*
X161500000Y-102150000D01*
X161500000Y-102150000D02*
X160300000Y-102150000D01*
X154100000Y-104000000D02*
X154100000Y-102150000D01*
X155300000Y-104000000D02*
X155300000Y-102150000D01*
X155300000Y-102150000D02*
X154100000Y-102150000D01*
X173037221Y-96690000D02*
X173362779Y-96690000D01*
X173037221Y-97710000D02*
X173362779Y-97710000D01*
X171062779Y-104410000D02*
X170737221Y-104410000D01*
X171062779Y-103390000D02*
X170737221Y-103390000D01*
X169937221Y-96690000D02*
X170262779Y-96690000D01*
X169937221Y-97710000D02*
X170262779Y-97710000D01*
X166837221Y-96690000D02*
X167162779Y-96690000D01*
X166837221Y-97710000D02*
X167162779Y-97710000D01*
X164862779Y-103390000D02*
X164537221Y-103390000D01*
X164862779Y-104410000D02*
X164537221Y-104410000D01*
X163737221Y-97710000D02*
X164062779Y-97710000D01*
X163737221Y-96690000D02*
X164062779Y-96690000D01*
X160637221Y-97710000D02*
X160962779Y-97710000D01*
X160637221Y-96690000D02*
X160962779Y-96690000D01*
X158662779Y-103390000D02*
X158337221Y-103390000D01*
X158662779Y-104410000D02*
X158337221Y-104410000D01*
X157537221Y-97710000D02*
X157862779Y-97710000D01*
X157537221Y-96690000D02*
X157862779Y-96690000D01*
X154437221Y-97710000D02*
X154762779Y-97710000D01*
X154437221Y-96690000D02*
X154762779Y-96690000D01*
X170037221Y-101810000D02*
X170362779Y-101810000D01*
X170037221Y-100790000D02*
X170362779Y-100790000D01*
X163837221Y-100790000D02*
X164162779Y-100790000D01*
X163837221Y-101810000D02*
X164162779Y-101810000D01*
X157637221Y-100790000D02*
X157962779Y-100790000D01*
X157637221Y-101810000D02*
X157962779Y-101810000D01*
X175300000Y-102150000D02*
X174100000Y-102150000D01*
X175300000Y-104000000D02*
X175300000Y-102150000D01*
X174100000Y-104000000D02*
X174100000Y-102150000D01*
X170550000Y-99200000D02*
X170550000Y-100400000D01*
X172400000Y-99200000D02*
X170550000Y-99200000D01*
X172400000Y-100400000D02*
X170550000Y-100400000D01*
X169100000Y-102150000D02*
X167900000Y-102150000D01*
X169100000Y-104000000D02*
X169100000Y-102150000D01*
X167900000Y-104000000D02*
X167900000Y-102150000D01*
X164350000Y-99200000D02*
X164350000Y-100400000D01*
X166200000Y-99200000D02*
X164350000Y-99200000D01*
X166200000Y-100400000D02*
X164350000Y-100400000D01*
X161700000Y-104000000D02*
X161700000Y-102150000D01*
X162900000Y-104000000D02*
X162900000Y-102150000D01*
X162900000Y-102150000D02*
X161700000Y-102150000D01*
X158150000Y-99200000D02*
X158150000Y-100400000D01*
X160000000Y-99200000D02*
X158150000Y-99200000D01*
X160000000Y-100400000D02*
X158150000Y-100400000D01*
X155500000Y-104000000D02*
X155500000Y-102150000D01*
X156700000Y-104000000D02*
X156700000Y-102150000D01*
X156700000Y-102150000D02*
X155500000Y-102150000D01*
X174637221Y-99290000D02*
X174962779Y-99290000D01*
X174637221Y-100310000D02*
X174962779Y-100310000D01*
X173037221Y-100790000D02*
X173362779Y-100790000D01*
X173037221Y-101810000D02*
X173362779Y-101810000D01*
X168437221Y-100310000D02*
X168762779Y-100310000D01*
X168437221Y-99290000D02*
X168762779Y-99290000D01*
X166837221Y-101810000D02*
X167162779Y-101810000D01*
X166837221Y-100790000D02*
X167162779Y-100790000D01*
X162237221Y-100310000D02*
X162562779Y-100310000D01*
X162237221Y-99290000D02*
X162562779Y-99290000D01*
X160637221Y-101810000D02*
X160962779Y-101810000D01*
X160637221Y-100790000D02*
X160962779Y-100790000D01*
X154437221Y-101810000D02*
X154762779Y-101810000D01*
X154437221Y-100790000D02*
X154762779Y-100790000D01*
X156037221Y-100310000D02*
X156362779Y-100310000D01*
X156037221Y-99290000D02*
X156362779Y-99290000D01*
D11*
X172857142Y-103571428D02*
X172857142Y-102971428D01*
X173000000Y-102971428D01*
X173085714Y-103000000D01*
X173142857Y-103057142D01*
X173171428Y-103114285D01*
X173200000Y-103228571D01*
X173200000Y-103314285D01*
X173171428Y-103428571D01*
X173142857Y-103485714D01*
X173085714Y-103542857D01*
X173000000Y-103571428D01*
X172857142Y-103571428D01*
X173400000Y-102971428D02*
X173800000Y-102971428D01*
X173542857Y-103571428D01*
X166657142Y-103571428D02*
X166657142Y-102971428D01*
X166800000Y-102971428D01*
X166885714Y-103000000D01*
X166942857Y-103057142D01*
X166971428Y-103114285D01*
X167000000Y-103228571D01*
X167000000Y-103314285D01*
X166971428Y-103428571D01*
X166942857Y-103485714D01*
X166885714Y-103542857D01*
X166800000Y-103571428D01*
X166657142Y-103571428D01*
X167542857Y-102971428D02*
X167257142Y-102971428D01*
X167228571Y-103257142D01*
X167257142Y-103228571D01*
X167314285Y-103200000D01*
X167457142Y-103200000D01*
X167514285Y-103228571D01*
X167542857Y-103257142D01*
X167571428Y-103314285D01*
X167571428Y-103457142D01*
X167542857Y-103514285D01*
X167514285Y-103542857D01*
X167457142Y-103571428D01*
X167314285Y-103571428D01*
X167257142Y-103542857D01*
X167228571Y-103514285D01*
X160457142Y-103571428D02*
X160457142Y-102971428D01*
X160600000Y-102971428D01*
X160685714Y-103000000D01*
X160742857Y-103057142D01*
X160771428Y-103114285D01*
X160800000Y-103228571D01*
X160800000Y-103314285D01*
X160771428Y-103428571D01*
X160742857Y-103485714D01*
X160685714Y-103542857D01*
X160600000Y-103571428D01*
X160457142Y-103571428D01*
X161000000Y-102971428D02*
X161371428Y-102971428D01*
X161171428Y-103200000D01*
X161257142Y-103200000D01*
X161314285Y-103228571D01*
X161342857Y-103257142D01*
X161371428Y-103314285D01*
X161371428Y-103457142D01*
X161342857Y-103514285D01*
X161314285Y-103542857D01*
X161257142Y-103571428D01*
X161085714Y-103571428D01*
X161028571Y-103542857D01*
X161000000Y-103514285D01*
X154257142Y-103571428D02*
X154257142Y-102971428D01*
X154400000Y-102971428D01*
X154485714Y-103000000D01*
X154542857Y-103057142D01*
X154571428Y-103114285D01*
X154600000Y-103228571D01*
X154600000Y-103314285D01*
X154571428Y-103428571D01*
X154542857Y-103485714D01*
X154485714Y-103542857D01*
X154400000Y-103571428D01*
X154257142Y-103571428D01*
X155171428Y-103571428D02*
X154828571Y-103571428D01*
X155000000Y-103571428D02*
X155000000Y-102971428D01*
X154942857Y-103057142D01*
X154885714Y-103114285D01*
X154828571Y-103142857D01*
X172814285Y-98571428D02*
X172614285Y-98285714D01*
X172471428Y-98571428D02*
X172471428Y-97971428D01*
X172700000Y-97971428D01*
X172757142Y-98000000D01*
X172785714Y-98028571D01*
X172814285Y-98085714D01*
X172814285Y-98171428D01*
X172785714Y-98228571D01*
X172757142Y-98257142D01*
X172700000Y-98285714D01*
X172471428Y-98285714D01*
X173385714Y-98571428D02*
X173042857Y-98571428D01*
X173214285Y-98571428D02*
X173214285Y-97971428D01*
X173157142Y-98057142D01*
X173100000Y-98114285D01*
X173042857Y-98142857D01*
X173757142Y-97971428D02*
X173814285Y-97971428D01*
X173871428Y-98000000D01*
X173900000Y-98028571D01*
X173928571Y-98085714D01*
X173957142Y-98200000D01*
X173957142Y-98342857D01*
X173928571Y-98457142D01*
X173900000Y-98514285D01*
X173871428Y-98542857D01*
X173814285Y-98571428D01*
X173757142Y-98571428D01*
X173700000Y-98542857D01*
X173671428Y-98514285D01*
X173642857Y-98457142D01*
X173614285Y-98342857D01*
X173614285Y-98200000D01*
X173642857Y-98085714D01*
X173671428Y-98028571D01*
X173700000Y-98000000D01*
X173757142Y-97971428D01*
X171471428Y-102700000D02*
X171185714Y-102900000D01*
X171471428Y-103042857D02*
X170871428Y-103042857D01*
X170871428Y-102814285D01*
X170900000Y-102757142D01*
X170928571Y-102728571D01*
X170985714Y-102700000D01*
X171071428Y-102700000D01*
X171128571Y-102728571D01*
X171157142Y-102757142D01*
X171185714Y-102814285D01*
X171185714Y-103042857D01*
X171471428Y-102414285D02*
X171471428Y-102300000D01*
X171442857Y-102242857D01*
X171414285Y-102214285D01*
X171328571Y-102157142D01*
X171214285Y-102128571D01*
X170985714Y-102128571D01*
X170928571Y-102157142D01*
X170900000Y-102185714D01*
X170871428Y-102242857D01*
X170871428Y-102357142D01*
X170900000Y-102414285D01*
X170928571Y-102442857D01*
X170985714Y-102471428D01*
X171128571Y-102471428D01*
X171185714Y-102442857D01*
X171214285Y-102414285D01*
X171242857Y-102357142D01*
X171242857Y-102242857D01*
X171214285Y-102185714D01*
X171185714Y-102157142D01*
X171128571Y-102128571D01*
X170000000Y-98571428D02*
X169800000Y-98285714D01*
X169657142Y-98571428D02*
X169657142Y-97971428D01*
X169885714Y-97971428D01*
X169942857Y-98000000D01*
X169971428Y-98028571D01*
X170000000Y-98085714D01*
X170000000Y-98171428D01*
X169971428Y-98228571D01*
X169942857Y-98257142D01*
X169885714Y-98285714D01*
X169657142Y-98285714D01*
X170342857Y-98228571D02*
X170285714Y-98200000D01*
X170257142Y-98171428D01*
X170228571Y-98114285D01*
X170228571Y-98085714D01*
X170257142Y-98028571D01*
X170285714Y-98000000D01*
X170342857Y-97971428D01*
X170457142Y-97971428D01*
X170514285Y-98000000D01*
X170542857Y-98028571D01*
X170571428Y-98085714D01*
X170571428Y-98114285D01*
X170542857Y-98171428D01*
X170514285Y-98200000D01*
X170457142Y-98228571D01*
X170342857Y-98228571D01*
X170285714Y-98257142D01*
X170257142Y-98285714D01*
X170228571Y-98342857D01*
X170228571Y-98457142D01*
X170257142Y-98514285D01*
X170285714Y-98542857D01*
X170342857Y-98571428D01*
X170457142Y-98571428D01*
X170514285Y-98542857D01*
X170542857Y-98514285D01*
X170571428Y-98457142D01*
X170571428Y-98342857D01*
X170542857Y-98285714D01*
X170514285Y-98257142D01*
X170457142Y-98228571D01*
X166900000Y-98571428D02*
X166700000Y-98285714D01*
X166557142Y-98571428D02*
X166557142Y-97971428D01*
X166785714Y-97971428D01*
X166842857Y-98000000D01*
X166871428Y-98028571D01*
X166900000Y-98085714D01*
X166900000Y-98171428D01*
X166871428Y-98228571D01*
X166842857Y-98257142D01*
X166785714Y-98285714D01*
X166557142Y-98285714D01*
X167100000Y-97971428D02*
X167500000Y-97971428D01*
X167242857Y-98571428D01*
X165271428Y-102700000D02*
X164985714Y-102900000D01*
X165271428Y-103042857D02*
X164671428Y-103042857D01*
X164671428Y-102814285D01*
X164700000Y-102757142D01*
X164728571Y-102728571D01*
X164785714Y-102700000D01*
X164871428Y-102700000D01*
X164928571Y-102728571D01*
X164957142Y-102757142D01*
X164985714Y-102814285D01*
X164985714Y-103042857D01*
X164671428Y-102185714D02*
X164671428Y-102300000D01*
X164700000Y-102357142D01*
X164728571Y-102385714D01*
X164814285Y-102442857D01*
X164928571Y-102471428D01*
X165157142Y-102471428D01*
X165214285Y-102442857D01*
X165242857Y-102414285D01*
X165271428Y-102357142D01*
X165271428Y-102242857D01*
X165242857Y-102185714D01*
X165214285Y-102157142D01*
X165157142Y-102128571D01*
X165014285Y-102128571D01*
X164957142Y-102157142D01*
X164928571Y-102185714D01*
X164900000Y-102242857D01*
X164900000Y-102357142D01*
X164928571Y-102414285D01*
X164957142Y-102442857D01*
X165014285Y-102471428D01*
X163800000Y-98571428D02*
X163600000Y-98285714D01*
X163457142Y-98571428D02*
X163457142Y-97971428D01*
X163685714Y-97971428D01*
X163742857Y-98000000D01*
X163771428Y-98028571D01*
X163800000Y-98085714D01*
X163800000Y-98171428D01*
X163771428Y-98228571D01*
X163742857Y-98257142D01*
X163685714Y-98285714D01*
X163457142Y-98285714D01*
X164342857Y-97971428D02*
X164057142Y-97971428D01*
X164028571Y-98257142D01*
X164057142Y-98228571D01*
X164114285Y-98200000D01*
X164257142Y-98200000D01*
X164314285Y-98228571D01*
X164342857Y-98257142D01*
X164371428Y-98314285D01*
X164371428Y-98457142D01*
X164342857Y-98514285D01*
X164314285Y-98542857D01*
X164257142Y-98571428D01*
X164114285Y-98571428D01*
X164057142Y-98542857D01*
X164028571Y-98514285D01*
X160700000Y-98571428D02*
X160500000Y-98285714D01*
X160357142Y-98571428D02*
X160357142Y-97971428D01*
X160585714Y-97971428D01*
X160642857Y-98000000D01*
X160671428Y-98028571D01*
X160700000Y-98085714D01*
X160700000Y-98171428D01*
X160671428Y-98228571D01*
X160642857Y-98257142D01*
X160585714Y-98285714D01*
X160357142Y-98285714D01*
X161214285Y-98171428D02*
X161214285Y-98571428D01*
X161071428Y-97942857D02*
X160928571Y-98371428D01*
X161300000Y-98371428D01*
X159071428Y-102700000D02*
X158785714Y-102900000D01*
X159071428Y-103042857D02*
X158471428Y-103042857D01*
X158471428Y-102814285D01*
X158500000Y-102757142D01*
X158528571Y-102728571D01*
X158585714Y-102700000D01*
X158671428Y-102700000D01*
X158728571Y-102728571D01*
X158757142Y-102757142D01*
X158785714Y-102814285D01*
X158785714Y-103042857D01*
X158471428Y-102500000D02*
X158471428Y-102128571D01*
X158700000Y-102328571D01*
X158700000Y-102242857D01*
X158728571Y-102185714D01*
X158757142Y-102157142D01*
X158814285Y-102128571D01*
X158957142Y-102128571D01*
X159014285Y-102157142D01*
X159042857Y-102185714D01*
X159071428Y-102242857D01*
X159071428Y-102414285D01*
X159042857Y-102471428D01*
X159014285Y-102500000D01*
X157600000Y-98571428D02*
X157400000Y-98285714D01*
X157257142Y-98571428D02*
X157257142Y-97971428D01*
X157485714Y-97971428D01*
X157542857Y-98000000D01*
X157571428Y-98028571D01*
X157600000Y-98085714D01*
X157600000Y-98171428D01*
X157571428Y-98228571D01*
X157542857Y-98257142D01*
X157485714Y-98285714D01*
X157257142Y-98285714D01*
X157828571Y-98028571D02*
X157857142Y-98000000D01*
X157914285Y-97971428D01*
X158057142Y-97971428D01*
X158114285Y-98000000D01*
X158142857Y-98028571D01*
X158171428Y-98085714D01*
X158171428Y-98142857D01*
X158142857Y-98228571D01*
X157800000Y-98571428D01*
X158171428Y-98571428D01*
X154500000Y-98571428D02*
X154300000Y-98285714D01*
X154157142Y-98571428D02*
X154157142Y-97971428D01*
X154385714Y-97971428D01*
X154442857Y-98000000D01*
X154471428Y-98028571D01*
X154500000Y-98085714D01*
X154500000Y-98171428D01*
X154471428Y-98228571D01*
X154442857Y-98257142D01*
X154385714Y-98285714D01*
X154157142Y-98285714D01*
X155071428Y-98571428D02*
X154728571Y-98571428D01*
X154900000Y-98571428D02*
X154900000Y-97971428D01*
X154842857Y-98057142D01*
X154785714Y-98114285D01*
X154728571Y-98142857D01*
X170471428Y-102700000D02*
X170471428Y-102985714D01*
X169871428Y-102985714D01*
X169871428Y-102557142D02*
X169871428Y-102185714D01*
X170100000Y-102385714D01*
X170100000Y-102300000D01*
X170128571Y-102242857D01*
X170157142Y-102214285D01*
X170214285Y-102185714D01*
X170357142Y-102185714D01*
X170414285Y-102214285D01*
X170442857Y-102242857D01*
X170471428Y-102300000D01*
X170471428Y-102471428D01*
X170442857Y-102528571D01*
X170414285Y-102557142D01*
X164271428Y-102700000D02*
X164271428Y-102985714D01*
X163671428Y-102985714D01*
X163728571Y-102528571D02*
X163700000Y-102500000D01*
X163671428Y-102442857D01*
X163671428Y-102300000D01*
X163700000Y-102242857D01*
X163728571Y-102214285D01*
X163785714Y-102185714D01*
X163842857Y-102185714D01*
X163928571Y-102214285D01*
X164271428Y-102557142D01*
X164271428Y-102185714D01*
X158071428Y-102700000D02*
X158071428Y-102985714D01*
X157471428Y-102985714D01*
X158071428Y-102185714D02*
X158071428Y-102528571D01*
X158071428Y-102357142D02*
X157471428Y-102357142D01*
X157557142Y-102414285D01*
X157614285Y-102471428D01*
X157642857Y-102528571D01*
X174257142Y-103571428D02*
X174257142Y-102971428D01*
X174400000Y-102971428D01*
X174485714Y-103000000D01*
X174542857Y-103057142D01*
X174571428Y-103114285D01*
X174600000Y-103228571D01*
X174600000Y-103314285D01*
X174571428Y-103428571D01*
X174542857Y-103485714D01*
X174485714Y-103542857D01*
X174400000Y-103571428D01*
X174257142Y-103571428D01*
X174942857Y-103228571D02*
X174885714Y-103200000D01*
X174857142Y-103171428D01*
X174828571Y-103114285D01*
X174828571Y-103085714D01*
X174857142Y-103028571D01*
X174885714Y-103000000D01*
X174942857Y-102971428D01*
X175057142Y-102971428D01*
X175114285Y-103000000D01*
X175142857Y-103028571D01*
X175171428Y-103085714D01*
X175171428Y-103114285D01*
X175142857Y-103171428D01*
X175114285Y-103200000D01*
X175057142Y-103228571D01*
X174942857Y-103228571D01*
X174885714Y-103257142D01*
X174857142Y-103285714D01*
X174828571Y-103342857D01*
X174828571Y-103457142D01*
X174857142Y-103514285D01*
X174885714Y-103542857D01*
X174942857Y-103571428D01*
X175057142Y-103571428D01*
X175114285Y-103542857D01*
X175142857Y-103514285D01*
X175171428Y-103457142D01*
X175171428Y-103342857D01*
X175142857Y-103285714D01*
X175114285Y-103257142D01*
X175057142Y-103228571D01*
X170971428Y-98971428D02*
X170971428Y-98371428D01*
X171114285Y-98371428D01*
X171200000Y-98400000D01*
X171257142Y-98457142D01*
X171285714Y-98514285D01*
X171314285Y-98628571D01*
X171314285Y-98714285D01*
X171285714Y-98828571D01*
X171257142Y-98885714D01*
X171200000Y-98942857D01*
X171114285Y-98971428D01*
X170971428Y-98971428D01*
X171885714Y-98971428D02*
X171542857Y-98971428D01*
X171714285Y-98971428D02*
X171714285Y-98371428D01*
X171657142Y-98457142D01*
X171600000Y-98514285D01*
X171542857Y-98542857D01*
X172457142Y-98971428D02*
X172114285Y-98971428D01*
X172285714Y-98971428D02*
X172285714Y-98371428D01*
X172228571Y-98457142D01*
X172171428Y-98514285D01*
X172114285Y-98542857D01*
X168057142Y-103571428D02*
X168057142Y-102971428D01*
X168200000Y-102971428D01*
X168285714Y-103000000D01*
X168342857Y-103057142D01*
X168371428Y-103114285D01*
X168400000Y-103228571D01*
X168400000Y-103314285D01*
X168371428Y-103428571D01*
X168342857Y-103485714D01*
X168285714Y-103542857D01*
X168200000Y-103571428D01*
X168057142Y-103571428D01*
X168914285Y-102971428D02*
X168800000Y-102971428D01*
X168742857Y-103000000D01*
X168714285Y-103028571D01*
X168657142Y-103114285D01*
X168628571Y-103228571D01*
X168628571Y-103457142D01*
X168657142Y-103514285D01*
X168685714Y-103542857D01*
X168742857Y-103571428D01*
X168857142Y-103571428D01*
X168914285Y-103542857D01*
X168942857Y-103514285D01*
X168971428Y-103457142D01*
X168971428Y-103314285D01*
X168942857Y-103257142D01*
X168914285Y-103228571D01*
X168857142Y-103200000D01*
X168742857Y-103200000D01*
X168685714Y-103228571D01*
X168657142Y-103257142D01*
X168628571Y-103314285D01*
X164771428Y-98971428D02*
X164771428Y-98371428D01*
X164914285Y-98371428D01*
X165000000Y-98400000D01*
X165057142Y-98457142D01*
X165085714Y-98514285D01*
X165114285Y-98628571D01*
X165114285Y-98714285D01*
X165085714Y-98828571D01*
X165057142Y-98885714D01*
X165000000Y-98942857D01*
X164914285Y-98971428D01*
X164771428Y-98971428D01*
X165685714Y-98971428D02*
X165342857Y-98971428D01*
X165514285Y-98971428D02*
X165514285Y-98371428D01*
X165457142Y-98457142D01*
X165400000Y-98514285D01*
X165342857Y-98542857D01*
X166057142Y-98371428D02*
X166114285Y-98371428D01*
X166171428Y-98400000D01*
X166200000Y-98428571D01*
X166228571Y-98485714D01*
X166257142Y-98600000D01*
X166257142Y-98742857D01*
X166228571Y-98857142D01*
X166200000Y-98914285D01*
X166171428Y-98942857D01*
X166114285Y-98971428D01*
X166057142Y-98971428D01*
X166000000Y-98942857D01*
X165971428Y-98914285D01*
X165942857Y-98857142D01*
X165914285Y-98742857D01*
X165914285Y-98600000D01*
X165942857Y-98485714D01*
X165971428Y-98428571D01*
X166000000Y-98400000D01*
X166057142Y-98371428D01*
X161857142Y-103571428D02*
X161857142Y-102971428D01*
X162000000Y-102971428D01*
X162085714Y-103000000D01*
X162142857Y-103057142D01*
X162171428Y-103114285D01*
X162200000Y-103228571D01*
X162200000Y-103314285D01*
X162171428Y-103428571D01*
X162142857Y-103485714D01*
X162085714Y-103542857D01*
X162000000Y-103571428D01*
X161857142Y-103571428D01*
X162714285Y-103171428D02*
X162714285Y-103571428D01*
X162571428Y-102942857D02*
X162428571Y-103371428D01*
X162800000Y-103371428D01*
X158857142Y-98971428D02*
X158857142Y-98371428D01*
X159000000Y-98371428D01*
X159085714Y-98400000D01*
X159142857Y-98457142D01*
X159171428Y-98514285D01*
X159200000Y-98628571D01*
X159200000Y-98714285D01*
X159171428Y-98828571D01*
X159142857Y-98885714D01*
X159085714Y-98942857D01*
X159000000Y-98971428D01*
X158857142Y-98971428D01*
X159485714Y-98971428D02*
X159600000Y-98971428D01*
X159657142Y-98942857D01*
X159685714Y-98914285D01*
X159742857Y-98828571D01*
X159771428Y-98714285D01*
X159771428Y-98485714D01*
X159742857Y-98428571D01*
X159714285Y-98400000D01*
X159657142Y-98371428D01*
X159542857Y-98371428D01*
X159485714Y-98400000D01*
X159457142Y-98428571D01*
X159428571Y-98485714D01*
X159428571Y-98628571D01*
X159457142Y-98685714D01*
X159485714Y-98714285D01*
X159542857Y-98742857D01*
X159657142Y-98742857D01*
X159714285Y-98714285D01*
X159742857Y-98685714D01*
X159771428Y-98628571D01*
X155657142Y-103571428D02*
X155657142Y-102971428D01*
X155800000Y-102971428D01*
X155885714Y-103000000D01*
X155942857Y-103057142D01*
X155971428Y-103114285D01*
X156000000Y-103228571D01*
X156000000Y-103314285D01*
X155971428Y-103428571D01*
X155942857Y-103485714D01*
X155885714Y-103542857D01*
X155800000Y-103571428D01*
X155657142Y-103571428D01*
X156228571Y-103028571D02*
X156257142Y-103000000D01*
X156314285Y-102971428D01*
X156457142Y-102971428D01*
X156514285Y-103000000D01*
X156542857Y-103028571D01*
X156571428Y-103085714D01*
X156571428Y-103142857D01*
X156542857Y-103228571D01*
X156200000Y-103571428D01*
X156571428Y-103571428D01*
X174700000Y-98914285D02*
X174671428Y-98942857D01*
X174585714Y-98971428D01*
X174528571Y-98971428D01*
X174442857Y-98942857D01*
X174385714Y-98885714D01*
X174357142Y-98828571D01*
X174328571Y-98714285D01*
X174328571Y-98628571D01*
X174357142Y-98514285D01*
X174385714Y-98457142D01*
X174442857Y-98400000D01*
X174528571Y-98371428D01*
X174585714Y-98371428D01*
X174671428Y-98400000D01*
X174700000Y-98428571D01*
X175042857Y-98628571D02*
X174985714Y-98600000D01*
X174957142Y-98571428D01*
X174928571Y-98514285D01*
X174928571Y-98485714D01*
X174957142Y-98428571D01*
X174985714Y-98400000D01*
X175042857Y-98371428D01*
X175157142Y-98371428D01*
X175214285Y-98400000D01*
X175242857Y-98428571D01*
X175271428Y-98485714D01*
X175271428Y-98514285D01*
X175242857Y-98571428D01*
X175214285Y-98600000D01*
X175157142Y-98628571D01*
X175042857Y-98628571D01*
X174985714Y-98657142D01*
X174957142Y-98685714D01*
X174928571Y-98742857D01*
X174928571Y-98857142D01*
X174957142Y-98914285D01*
X174985714Y-98942857D01*
X175042857Y-98971428D01*
X175157142Y-98971428D01*
X175214285Y-98942857D01*
X175242857Y-98914285D01*
X175271428Y-98857142D01*
X175271428Y-98742857D01*
X175242857Y-98685714D01*
X175214285Y-98657142D01*
X175157142Y-98628571D01*
X172414285Y-102700000D02*
X172442857Y-102728571D01*
X172471428Y-102814285D01*
X172471428Y-102871428D01*
X172442857Y-102957142D01*
X172385714Y-103014285D01*
X172328571Y-103042857D01*
X172214285Y-103071428D01*
X172128571Y-103071428D01*
X172014285Y-103042857D01*
X171957142Y-103014285D01*
X171900000Y-102957142D01*
X171871428Y-102871428D01*
X171871428Y-102814285D01*
X171900000Y-102728571D01*
X171928571Y-102700000D01*
X171871428Y-102500000D02*
X171871428Y-102100000D01*
X172471428Y-102357142D01*
X168500000Y-98914285D02*
X168471428Y-98942857D01*
X168385714Y-98971428D01*
X168328571Y-98971428D01*
X168242857Y-98942857D01*
X168185714Y-98885714D01*
X168157142Y-98828571D01*
X168128571Y-98714285D01*
X168128571Y-98628571D01*
X168157142Y-98514285D01*
X168185714Y-98457142D01*
X168242857Y-98400000D01*
X168328571Y-98371428D01*
X168385714Y-98371428D01*
X168471428Y-98400000D01*
X168500000Y-98428571D01*
X169014285Y-98371428D02*
X168900000Y-98371428D01*
X168842857Y-98400000D01*
X168814285Y-98428571D01*
X168757142Y-98514285D01*
X168728571Y-98628571D01*
X168728571Y-98857142D01*
X168757142Y-98914285D01*
X168785714Y-98942857D01*
X168842857Y-98971428D01*
X168957142Y-98971428D01*
X169014285Y-98942857D01*
X169042857Y-98914285D01*
X169071428Y-98857142D01*
X169071428Y-98714285D01*
X169042857Y-98657142D01*
X169014285Y-98628571D01*
X168957142Y-98600000D01*
X168842857Y-98600000D01*
X168785714Y-98628571D01*
X168757142Y-98657142D01*
X168728571Y-98714285D01*
X166214285Y-102700000D02*
X166242857Y-102728571D01*
X166271428Y-102814285D01*
X166271428Y-102871428D01*
X166242857Y-102957142D01*
X166185714Y-103014285D01*
X166128571Y-103042857D01*
X166014285Y-103071428D01*
X165928571Y-103071428D01*
X165814285Y-103042857D01*
X165757142Y-103014285D01*
X165700000Y-102957142D01*
X165671428Y-102871428D01*
X165671428Y-102814285D01*
X165700000Y-102728571D01*
X165728571Y-102700000D01*
X165671428Y-102157142D02*
X165671428Y-102442857D01*
X165957142Y-102471428D01*
X165928571Y-102442857D01*
X165900000Y-102385714D01*
X165900000Y-102242857D01*
X165928571Y-102185714D01*
X165957142Y-102157142D01*
X166014285Y-102128571D01*
X166157142Y-102128571D01*
X166214285Y-102157142D01*
X166242857Y-102185714D01*
X166271428Y-102242857D01*
X166271428Y-102385714D01*
X166242857Y-102442857D01*
X166214285Y-102471428D01*
X162300000Y-98914285D02*
X162271428Y-98942857D01*
X162185714Y-98971428D01*
X162128571Y-98971428D01*
X162042857Y-98942857D01*
X161985714Y-98885714D01*
X161957142Y-98828571D01*
X161928571Y-98714285D01*
X161928571Y-98628571D01*
X161957142Y-98514285D01*
X161985714Y-98457142D01*
X162042857Y-98400000D01*
X162128571Y-98371428D01*
X162185714Y-98371428D01*
X162271428Y-98400000D01*
X162300000Y-98428571D01*
X162814285Y-98571428D02*
X162814285Y-98971428D01*
X162671428Y-98342857D02*
X162528571Y-98771428D01*
X162900000Y-98771428D01*
X160014285Y-102700000D02*
X160042857Y-102728571D01*
X160071428Y-102814285D01*
X160071428Y-102871428D01*
X160042857Y-102957142D01*
X159985714Y-103014285D01*
X159928571Y-103042857D01*
X159814285Y-103071428D01*
X159728571Y-103071428D01*
X159614285Y-103042857D01*
X159557142Y-103014285D01*
X159500000Y-102957142D01*
X159471428Y-102871428D01*
X159471428Y-102814285D01*
X159500000Y-102728571D01*
X159528571Y-102700000D01*
X159471428Y-102500000D02*
X159471428Y-102128571D01*
X159700000Y-102328571D01*
X159700000Y-102242857D01*
X159728571Y-102185714D01*
X159757142Y-102157142D01*
X159814285Y-102128571D01*
X159957142Y-102128571D01*
X160014285Y-102157142D01*
X160042857Y-102185714D01*
X160071428Y-102242857D01*
X160071428Y-102414285D01*
X160042857Y-102471428D01*
X160014285Y-102500000D01*
X153700000Y-100414285D02*
X153671428Y-100442857D01*
X153585714Y-100471428D01*
X153528571Y-100471428D01*
X153442857Y-100442857D01*
X153385714Y-100385714D01*
X153357142Y-100328571D01*
X153328571Y-100214285D01*
X153328571Y-100128571D01*
X153357142Y-100014285D01*
X153385714Y-99957142D01*
X153442857Y-99900000D01*
X153528571Y-99871428D01*
X153585714Y-99871428D01*
X153671428Y-99900000D01*
X153700000Y-99928571D01*
X154271428Y-100471428D02*
X153928571Y-100471428D01*
X154100000Y-100471428D02*
X154100000Y-99871428D01*
X154042857Y-99957142D01*
X153985714Y-100014285D01*
X153928571Y-100042857D01*
X156100000Y-98914285D02*
X156071428Y-98942857D01*
X155985714Y-98971428D01*
X155928571Y-98971428D01*
X155842857Y-98942857D01*
X155785714Y-98885714D01*
X155757142Y-98828571D01*
X155728571Y-98714285D01*
X155728571Y-98628571D01*
X155757142Y-98514285D01*
X155785714Y-98457142D01*
X155842857Y-98400000D01*
X155928571Y-98371428D01*
X155985714Y-98371428D01*
X156071428Y-98400000D01*
X156100000Y-98428571D01*
X156328571Y-98428571D02*
X156357142Y-98400000D01*
X156414285Y-98371428D01*
X156557142Y-98371428D01*
X156614285Y-98400000D01*
X156642857Y-98428571D01*
X156671428Y-98485714D01*
X156671428Y-98542857D01*
X156642857Y-98628571D01*
X156300000Y-98971428D01*
X156671428Y-98971428D01*
M02*
