G04 #@! TF.GenerationSoftware,KiCad,Pcbnew,5.1.5-52549c5~84~ubuntu16.04.1*
G04 #@! TF.CreationDate,2020-01-10T16:04:47+01:00*
G04 #@! TF.ProjectId,Filter_PCB_4,46696c74-6572-45f5-9043-425f342e6b69,rev?*
G04 #@! TF.SameCoordinates,Original*
G04 #@! TF.FileFunction,Copper,L4,Bot*
G04 #@! TF.FilePolarity,Positive*
%FSLAX46Y46*%
G04 Gerber Fmt 4.6, Leading zero omitted, Abs format (unit mm)*
G04 Created by KiCad (PCBNEW 5.1.5-52549c5~84~ubuntu16.04.1) date 2020-01-10 16:04:47*
%MOMM*%
%LPD*%
G04 APERTURE LIST*
%ADD10R,3.150000X1.000000*%
%ADD11C,0.100000*%
%ADD12R,1.400000X0.300000*%
%ADD13C,0.500000*%
%ADD14C,0.635000*%
%ADD15C,0.200000*%
G04 APERTURE END LIST*
D10*
X167175000Y-102940000D03*
X172225000Y-102940000D03*
X167175000Y-100400000D03*
X172225000Y-100400000D03*
X167175000Y-97860000D03*
X172225000Y-97860000D03*
G04 #@! TA.AperFunction,SMDPad,CuDef*
D11*
G36*
X160927691Y-97626053D02*
G01*
X160948926Y-97629203D01*
X160969750Y-97634419D01*
X160989962Y-97641651D01*
X161009368Y-97650830D01*
X161027781Y-97661866D01*
X161045024Y-97674654D01*
X161060930Y-97689070D01*
X161075346Y-97704976D01*
X161088134Y-97722219D01*
X161099170Y-97740632D01*
X161108349Y-97760038D01*
X161115581Y-97780250D01*
X161120797Y-97801074D01*
X161123947Y-97822309D01*
X161125000Y-97843750D01*
X161125000Y-98356250D01*
X161123947Y-98377691D01*
X161120797Y-98398926D01*
X161115581Y-98419750D01*
X161108349Y-98439962D01*
X161099170Y-98459368D01*
X161088134Y-98477781D01*
X161075346Y-98495024D01*
X161060930Y-98510930D01*
X161045024Y-98525346D01*
X161027781Y-98538134D01*
X161009368Y-98549170D01*
X160989962Y-98558349D01*
X160969750Y-98565581D01*
X160948926Y-98570797D01*
X160927691Y-98573947D01*
X160906250Y-98575000D01*
X160468750Y-98575000D01*
X160447309Y-98573947D01*
X160426074Y-98570797D01*
X160405250Y-98565581D01*
X160385038Y-98558349D01*
X160365632Y-98549170D01*
X160347219Y-98538134D01*
X160329976Y-98525346D01*
X160314070Y-98510930D01*
X160299654Y-98495024D01*
X160286866Y-98477781D01*
X160275830Y-98459368D01*
X160266651Y-98439962D01*
X160259419Y-98419750D01*
X160254203Y-98398926D01*
X160251053Y-98377691D01*
X160250000Y-98356250D01*
X160250000Y-97843750D01*
X160251053Y-97822309D01*
X160254203Y-97801074D01*
X160259419Y-97780250D01*
X160266651Y-97760038D01*
X160275830Y-97740632D01*
X160286866Y-97722219D01*
X160299654Y-97704976D01*
X160314070Y-97689070D01*
X160329976Y-97674654D01*
X160347219Y-97661866D01*
X160365632Y-97650830D01*
X160385038Y-97641651D01*
X160405250Y-97634419D01*
X160426074Y-97629203D01*
X160447309Y-97626053D01*
X160468750Y-97625000D01*
X160906250Y-97625000D01*
X160927691Y-97626053D01*
G37*
G04 #@! TD.AperFunction*
G04 #@! TA.AperFunction,SMDPad,CuDef*
G36*
X159352691Y-97626053D02*
G01*
X159373926Y-97629203D01*
X159394750Y-97634419D01*
X159414962Y-97641651D01*
X159434368Y-97650830D01*
X159452781Y-97661866D01*
X159470024Y-97674654D01*
X159485930Y-97689070D01*
X159500346Y-97704976D01*
X159513134Y-97722219D01*
X159524170Y-97740632D01*
X159533349Y-97760038D01*
X159540581Y-97780250D01*
X159545797Y-97801074D01*
X159548947Y-97822309D01*
X159550000Y-97843750D01*
X159550000Y-98356250D01*
X159548947Y-98377691D01*
X159545797Y-98398926D01*
X159540581Y-98419750D01*
X159533349Y-98439962D01*
X159524170Y-98459368D01*
X159513134Y-98477781D01*
X159500346Y-98495024D01*
X159485930Y-98510930D01*
X159470024Y-98525346D01*
X159452781Y-98538134D01*
X159434368Y-98549170D01*
X159414962Y-98558349D01*
X159394750Y-98565581D01*
X159373926Y-98570797D01*
X159352691Y-98573947D01*
X159331250Y-98575000D01*
X158893750Y-98575000D01*
X158872309Y-98573947D01*
X158851074Y-98570797D01*
X158830250Y-98565581D01*
X158810038Y-98558349D01*
X158790632Y-98549170D01*
X158772219Y-98538134D01*
X158754976Y-98525346D01*
X158739070Y-98510930D01*
X158724654Y-98495024D01*
X158711866Y-98477781D01*
X158700830Y-98459368D01*
X158691651Y-98439962D01*
X158684419Y-98419750D01*
X158679203Y-98398926D01*
X158676053Y-98377691D01*
X158675000Y-98356250D01*
X158675000Y-97843750D01*
X158676053Y-97822309D01*
X158679203Y-97801074D01*
X158684419Y-97780250D01*
X158691651Y-97760038D01*
X158700830Y-97740632D01*
X158711866Y-97722219D01*
X158724654Y-97704976D01*
X158739070Y-97689070D01*
X158754976Y-97674654D01*
X158772219Y-97661866D01*
X158790632Y-97650830D01*
X158810038Y-97641651D01*
X158830250Y-97634419D01*
X158851074Y-97629203D01*
X158872309Y-97626053D01*
X158893750Y-97625000D01*
X159331250Y-97625000D01*
X159352691Y-97626053D01*
G37*
G04 #@! TD.AperFunction*
G04 #@! TA.AperFunction,SMDPad,CuDef*
G36*
X162477691Y-99251053D02*
G01*
X162498926Y-99254203D01*
X162519750Y-99259419D01*
X162539962Y-99266651D01*
X162559368Y-99275830D01*
X162577781Y-99286866D01*
X162595024Y-99299654D01*
X162610930Y-99314070D01*
X162625346Y-99329976D01*
X162638134Y-99347219D01*
X162649170Y-99365632D01*
X162658349Y-99385038D01*
X162665581Y-99405250D01*
X162670797Y-99426074D01*
X162673947Y-99447309D01*
X162675000Y-99468750D01*
X162675000Y-99906250D01*
X162673947Y-99927691D01*
X162670797Y-99948926D01*
X162665581Y-99969750D01*
X162658349Y-99989962D01*
X162649170Y-100009368D01*
X162638134Y-100027781D01*
X162625346Y-100045024D01*
X162610930Y-100060930D01*
X162595024Y-100075346D01*
X162577781Y-100088134D01*
X162559368Y-100099170D01*
X162539962Y-100108349D01*
X162519750Y-100115581D01*
X162498926Y-100120797D01*
X162477691Y-100123947D01*
X162456250Y-100125000D01*
X161943750Y-100125000D01*
X161922309Y-100123947D01*
X161901074Y-100120797D01*
X161880250Y-100115581D01*
X161860038Y-100108349D01*
X161840632Y-100099170D01*
X161822219Y-100088134D01*
X161804976Y-100075346D01*
X161789070Y-100060930D01*
X161774654Y-100045024D01*
X161761866Y-100027781D01*
X161750830Y-100009368D01*
X161741651Y-99989962D01*
X161734419Y-99969750D01*
X161729203Y-99948926D01*
X161726053Y-99927691D01*
X161725000Y-99906250D01*
X161725000Y-99468750D01*
X161726053Y-99447309D01*
X161729203Y-99426074D01*
X161734419Y-99405250D01*
X161741651Y-99385038D01*
X161750830Y-99365632D01*
X161761866Y-99347219D01*
X161774654Y-99329976D01*
X161789070Y-99314070D01*
X161804976Y-99299654D01*
X161822219Y-99286866D01*
X161840632Y-99275830D01*
X161860038Y-99266651D01*
X161880250Y-99259419D01*
X161901074Y-99254203D01*
X161922309Y-99251053D01*
X161943750Y-99250000D01*
X162456250Y-99250000D01*
X162477691Y-99251053D01*
G37*
G04 #@! TD.AperFunction*
G04 #@! TA.AperFunction,SMDPad,CuDef*
G36*
X162477691Y-97676053D02*
G01*
X162498926Y-97679203D01*
X162519750Y-97684419D01*
X162539962Y-97691651D01*
X162559368Y-97700830D01*
X162577781Y-97711866D01*
X162595024Y-97724654D01*
X162610930Y-97739070D01*
X162625346Y-97754976D01*
X162638134Y-97772219D01*
X162649170Y-97790632D01*
X162658349Y-97810038D01*
X162665581Y-97830250D01*
X162670797Y-97851074D01*
X162673947Y-97872309D01*
X162675000Y-97893750D01*
X162675000Y-98331250D01*
X162673947Y-98352691D01*
X162670797Y-98373926D01*
X162665581Y-98394750D01*
X162658349Y-98414962D01*
X162649170Y-98434368D01*
X162638134Y-98452781D01*
X162625346Y-98470024D01*
X162610930Y-98485930D01*
X162595024Y-98500346D01*
X162577781Y-98513134D01*
X162559368Y-98524170D01*
X162539962Y-98533349D01*
X162519750Y-98540581D01*
X162498926Y-98545797D01*
X162477691Y-98548947D01*
X162456250Y-98550000D01*
X161943750Y-98550000D01*
X161922309Y-98548947D01*
X161901074Y-98545797D01*
X161880250Y-98540581D01*
X161860038Y-98533349D01*
X161840632Y-98524170D01*
X161822219Y-98513134D01*
X161804976Y-98500346D01*
X161789070Y-98485930D01*
X161774654Y-98470024D01*
X161761866Y-98452781D01*
X161750830Y-98434368D01*
X161741651Y-98414962D01*
X161734419Y-98394750D01*
X161729203Y-98373926D01*
X161726053Y-98352691D01*
X161725000Y-98331250D01*
X161725000Y-97893750D01*
X161726053Y-97872309D01*
X161729203Y-97851074D01*
X161734419Y-97830250D01*
X161741651Y-97810038D01*
X161750830Y-97790632D01*
X161761866Y-97772219D01*
X161774654Y-97754976D01*
X161789070Y-97739070D01*
X161804976Y-97724654D01*
X161822219Y-97711866D01*
X161840632Y-97700830D01*
X161860038Y-97691651D01*
X161880250Y-97684419D01*
X161901074Y-97679203D01*
X161922309Y-97676053D01*
X161943750Y-97675000D01*
X162456250Y-97675000D01*
X162477691Y-97676053D01*
G37*
G04 #@! TD.AperFunction*
G04 #@! TA.AperFunction,SMDPad,CuDef*
G36*
X152637252Y-98125602D02*
G01*
X152649386Y-98127402D01*
X152661286Y-98130382D01*
X152672835Y-98134515D01*
X152683925Y-98139760D01*
X152694446Y-98146066D01*
X152704299Y-98153374D01*
X152713388Y-98161612D01*
X152721626Y-98170701D01*
X152728934Y-98180554D01*
X152735240Y-98191075D01*
X152740485Y-98202165D01*
X152744618Y-98213714D01*
X152747598Y-98225614D01*
X152749398Y-98237748D01*
X152750000Y-98250000D01*
X152750000Y-99250000D01*
X152749398Y-99262252D01*
X152747598Y-99274386D01*
X152744618Y-99286286D01*
X152740485Y-99297835D01*
X152735240Y-99308925D01*
X152728934Y-99319446D01*
X152721626Y-99329299D01*
X152713388Y-99338388D01*
X152704299Y-99346626D01*
X152694446Y-99353934D01*
X152683925Y-99360240D01*
X152672835Y-99365485D01*
X152661286Y-99369618D01*
X152649386Y-99372598D01*
X152637252Y-99374398D01*
X152625000Y-99375000D01*
X148625000Y-99375000D01*
X148612748Y-99374398D01*
X148600614Y-99372598D01*
X148588714Y-99369618D01*
X148577165Y-99365485D01*
X148566075Y-99360240D01*
X148555554Y-99353934D01*
X148545701Y-99346626D01*
X148536612Y-99338388D01*
X148528374Y-99329299D01*
X148521066Y-99319446D01*
X148514760Y-99308925D01*
X148509515Y-99297835D01*
X148505382Y-99286286D01*
X148502402Y-99274386D01*
X148500602Y-99262252D01*
X148500000Y-99250000D01*
X148500000Y-98250000D01*
X148500602Y-98237748D01*
X148502402Y-98225614D01*
X148505382Y-98213714D01*
X148509515Y-98202165D01*
X148514760Y-98191075D01*
X148521066Y-98180554D01*
X148528374Y-98170701D01*
X148536612Y-98161612D01*
X148545701Y-98153374D01*
X148555554Y-98146066D01*
X148566075Y-98139760D01*
X148577165Y-98134515D01*
X148588714Y-98130382D01*
X148600614Y-98127402D01*
X148612748Y-98125602D01*
X148625000Y-98125000D01*
X152625000Y-98125000D01*
X152637252Y-98125602D01*
G37*
G04 #@! TD.AperFunction*
G04 #@! TA.AperFunction,SMDPad,CuDef*
G36*
X152637252Y-103225602D02*
G01*
X152649386Y-103227402D01*
X152661286Y-103230382D01*
X152672835Y-103234515D01*
X152683925Y-103239760D01*
X152694446Y-103246066D01*
X152704299Y-103253374D01*
X152713388Y-103261612D01*
X152721626Y-103270701D01*
X152728934Y-103280554D01*
X152735240Y-103291075D01*
X152740485Y-103302165D01*
X152744618Y-103313714D01*
X152747598Y-103325614D01*
X152749398Y-103337748D01*
X152750000Y-103350000D01*
X152750000Y-104350000D01*
X152749398Y-104362252D01*
X152747598Y-104374386D01*
X152744618Y-104386286D01*
X152740485Y-104397835D01*
X152735240Y-104408925D01*
X152728934Y-104419446D01*
X152721626Y-104429299D01*
X152713388Y-104438388D01*
X152704299Y-104446626D01*
X152694446Y-104453934D01*
X152683925Y-104460240D01*
X152672835Y-104465485D01*
X152661286Y-104469618D01*
X152649386Y-104472598D01*
X152637252Y-104474398D01*
X152625000Y-104475000D01*
X148625000Y-104475000D01*
X148612748Y-104474398D01*
X148600614Y-104472598D01*
X148588714Y-104469618D01*
X148577165Y-104465485D01*
X148566075Y-104460240D01*
X148555554Y-104453934D01*
X148545701Y-104446626D01*
X148536612Y-104438388D01*
X148528374Y-104429299D01*
X148521066Y-104419446D01*
X148514760Y-104408925D01*
X148509515Y-104397835D01*
X148505382Y-104386286D01*
X148502402Y-104374386D01*
X148500602Y-104362252D01*
X148500000Y-104350000D01*
X148500000Y-103350000D01*
X148500602Y-103337748D01*
X148502402Y-103325614D01*
X148505382Y-103313714D01*
X148509515Y-103302165D01*
X148514760Y-103291075D01*
X148521066Y-103280554D01*
X148528374Y-103270701D01*
X148536612Y-103261612D01*
X148545701Y-103253374D01*
X148555554Y-103246066D01*
X148566075Y-103239760D01*
X148577165Y-103234515D01*
X148588714Y-103230382D01*
X148600614Y-103227402D01*
X148612748Y-103225602D01*
X148625000Y-103225000D01*
X152625000Y-103225000D01*
X152637252Y-103225602D01*
G37*
G04 #@! TD.AperFunction*
G04 #@! TA.AperFunction,SMDPad,CuDef*
G36*
X152637252Y-103225602D02*
G01*
X152649386Y-103227402D01*
X152661286Y-103230382D01*
X152672835Y-103234515D01*
X152683925Y-103239760D01*
X152694446Y-103246066D01*
X152704299Y-103253374D01*
X152713388Y-103261612D01*
X152721626Y-103270701D01*
X152728934Y-103280554D01*
X152735240Y-103291075D01*
X152740485Y-103302165D01*
X152744618Y-103313714D01*
X152747598Y-103325614D01*
X152749398Y-103337748D01*
X152750000Y-103350000D01*
X152750000Y-104350000D01*
X152749398Y-104362252D01*
X152747598Y-104374386D01*
X152744618Y-104386286D01*
X152740485Y-104397835D01*
X152735240Y-104408925D01*
X152728934Y-104419446D01*
X152721626Y-104429299D01*
X152713388Y-104438388D01*
X152704299Y-104446626D01*
X152694446Y-104453934D01*
X152683925Y-104460240D01*
X152672835Y-104465485D01*
X152661286Y-104469618D01*
X152649386Y-104472598D01*
X152637252Y-104474398D01*
X152625000Y-104475000D01*
X148625000Y-104475000D01*
X148612748Y-104474398D01*
X148600614Y-104472598D01*
X148588714Y-104469618D01*
X148577165Y-104465485D01*
X148566075Y-104460240D01*
X148555554Y-104453934D01*
X148545701Y-104446626D01*
X148536612Y-104438388D01*
X148528374Y-104429299D01*
X148521066Y-104419446D01*
X148514760Y-104408925D01*
X148509515Y-104397835D01*
X148505382Y-104386286D01*
X148502402Y-104374386D01*
X148500602Y-104362252D01*
X148500000Y-104350000D01*
X148500000Y-103350000D01*
X148500602Y-103337748D01*
X148502402Y-103325614D01*
X148505382Y-103313714D01*
X148509515Y-103302165D01*
X148514760Y-103291075D01*
X148521066Y-103280554D01*
X148528374Y-103270701D01*
X148536612Y-103261612D01*
X148545701Y-103253374D01*
X148555554Y-103246066D01*
X148566075Y-103239760D01*
X148577165Y-103234515D01*
X148588714Y-103230382D01*
X148600614Y-103227402D01*
X148612748Y-103225602D01*
X148625000Y-103225000D01*
X152625000Y-103225000D01*
X152637252Y-103225602D01*
G37*
G04 #@! TD.AperFunction*
G04 #@! TA.AperFunction,SMDPad,CuDef*
G36*
X180787252Y-96625602D02*
G01*
X180799386Y-96627402D01*
X180811286Y-96630382D01*
X180822835Y-96634515D01*
X180833925Y-96639760D01*
X180844446Y-96646066D01*
X180854299Y-96653374D01*
X180863388Y-96661612D01*
X180871626Y-96670701D01*
X180878934Y-96680554D01*
X180885240Y-96691075D01*
X180890485Y-96702165D01*
X180894618Y-96713714D01*
X180897598Y-96725614D01*
X180899398Y-96737748D01*
X180900000Y-96750000D01*
X180900000Y-97750000D01*
X180899398Y-97762252D01*
X180897598Y-97774386D01*
X180894618Y-97786286D01*
X180890485Y-97797835D01*
X180885240Y-97808925D01*
X180878934Y-97819446D01*
X180871626Y-97829299D01*
X180863388Y-97838388D01*
X180854299Y-97846626D01*
X180844446Y-97853934D01*
X180833925Y-97860240D01*
X180822835Y-97865485D01*
X180811286Y-97869618D01*
X180799386Y-97872598D01*
X180787252Y-97874398D01*
X180775000Y-97875000D01*
X176775000Y-97875000D01*
X176762748Y-97874398D01*
X176750614Y-97872598D01*
X176738714Y-97869618D01*
X176727165Y-97865485D01*
X176716075Y-97860240D01*
X176705554Y-97853934D01*
X176695701Y-97846626D01*
X176686612Y-97838388D01*
X176678374Y-97829299D01*
X176671066Y-97819446D01*
X176664760Y-97808925D01*
X176659515Y-97797835D01*
X176655382Y-97786286D01*
X176652402Y-97774386D01*
X176650602Y-97762252D01*
X176650000Y-97750000D01*
X176650000Y-96750000D01*
X176650602Y-96737748D01*
X176652402Y-96725614D01*
X176655382Y-96713714D01*
X176659515Y-96702165D01*
X176664760Y-96691075D01*
X176671066Y-96680554D01*
X176678374Y-96670701D01*
X176686612Y-96661612D01*
X176695701Y-96653374D01*
X176705554Y-96646066D01*
X176716075Y-96639760D01*
X176727165Y-96634515D01*
X176738714Y-96630382D01*
X176750614Y-96627402D01*
X176762748Y-96625602D01*
X176775000Y-96625000D01*
X180775000Y-96625000D01*
X180787252Y-96625602D01*
G37*
G04 #@! TD.AperFunction*
G04 #@! TA.AperFunction,SMDPad,CuDef*
G36*
X180787252Y-96625602D02*
G01*
X180799386Y-96627402D01*
X180811286Y-96630382D01*
X180822835Y-96634515D01*
X180833925Y-96639760D01*
X180844446Y-96646066D01*
X180854299Y-96653374D01*
X180863388Y-96661612D01*
X180871626Y-96670701D01*
X180878934Y-96680554D01*
X180885240Y-96691075D01*
X180890485Y-96702165D01*
X180894618Y-96713714D01*
X180897598Y-96725614D01*
X180899398Y-96737748D01*
X180900000Y-96750000D01*
X180900000Y-97750000D01*
X180899398Y-97762252D01*
X180897598Y-97774386D01*
X180894618Y-97786286D01*
X180890485Y-97797835D01*
X180885240Y-97808925D01*
X180878934Y-97819446D01*
X180871626Y-97829299D01*
X180863388Y-97838388D01*
X180854299Y-97846626D01*
X180844446Y-97853934D01*
X180833925Y-97860240D01*
X180822835Y-97865485D01*
X180811286Y-97869618D01*
X180799386Y-97872598D01*
X180787252Y-97874398D01*
X180775000Y-97875000D01*
X176775000Y-97875000D01*
X176762748Y-97874398D01*
X176750614Y-97872598D01*
X176738714Y-97869618D01*
X176727165Y-97865485D01*
X176716075Y-97860240D01*
X176705554Y-97853934D01*
X176695701Y-97846626D01*
X176686612Y-97838388D01*
X176678374Y-97829299D01*
X176671066Y-97819446D01*
X176664760Y-97808925D01*
X176659515Y-97797835D01*
X176655382Y-97786286D01*
X176652402Y-97774386D01*
X176650602Y-97762252D01*
X176650000Y-97750000D01*
X176650000Y-96750000D01*
X176650602Y-96737748D01*
X176652402Y-96725614D01*
X176655382Y-96713714D01*
X176659515Y-96702165D01*
X176664760Y-96691075D01*
X176671066Y-96680554D01*
X176678374Y-96670701D01*
X176686612Y-96661612D01*
X176695701Y-96653374D01*
X176705554Y-96646066D01*
X176716075Y-96639760D01*
X176727165Y-96634515D01*
X176738714Y-96630382D01*
X176750614Y-96627402D01*
X176762748Y-96625602D01*
X176775000Y-96625000D01*
X180775000Y-96625000D01*
X180787252Y-96625602D01*
G37*
G04 #@! TD.AperFunction*
G04 #@! TA.AperFunction,SMDPad,CuDef*
G36*
X180787252Y-101725602D02*
G01*
X180799386Y-101727402D01*
X180811286Y-101730382D01*
X180822835Y-101734515D01*
X180833925Y-101739760D01*
X180844446Y-101746066D01*
X180854299Y-101753374D01*
X180863388Y-101761612D01*
X180871626Y-101770701D01*
X180878934Y-101780554D01*
X180885240Y-101791075D01*
X180890485Y-101802165D01*
X180894618Y-101813714D01*
X180897598Y-101825614D01*
X180899398Y-101837748D01*
X180900000Y-101850000D01*
X180900000Y-102850000D01*
X180899398Y-102862252D01*
X180897598Y-102874386D01*
X180894618Y-102886286D01*
X180890485Y-102897835D01*
X180885240Y-102908925D01*
X180878934Y-102919446D01*
X180871626Y-102929299D01*
X180863388Y-102938388D01*
X180854299Y-102946626D01*
X180844446Y-102953934D01*
X180833925Y-102960240D01*
X180822835Y-102965485D01*
X180811286Y-102969618D01*
X180799386Y-102972598D01*
X180787252Y-102974398D01*
X180775000Y-102975000D01*
X176775000Y-102975000D01*
X176762748Y-102974398D01*
X176750614Y-102972598D01*
X176738714Y-102969618D01*
X176727165Y-102965485D01*
X176716075Y-102960240D01*
X176705554Y-102953934D01*
X176695701Y-102946626D01*
X176686612Y-102938388D01*
X176678374Y-102929299D01*
X176671066Y-102919446D01*
X176664760Y-102908925D01*
X176659515Y-102897835D01*
X176655382Y-102886286D01*
X176652402Y-102874386D01*
X176650602Y-102862252D01*
X176650000Y-102850000D01*
X176650000Y-101850000D01*
X176650602Y-101837748D01*
X176652402Y-101825614D01*
X176655382Y-101813714D01*
X176659515Y-101802165D01*
X176664760Y-101791075D01*
X176671066Y-101780554D01*
X176678374Y-101770701D01*
X176686612Y-101761612D01*
X176695701Y-101753374D01*
X176705554Y-101746066D01*
X176716075Y-101739760D01*
X176727165Y-101734515D01*
X176738714Y-101730382D01*
X176750614Y-101727402D01*
X176762748Y-101725602D01*
X176775000Y-101725000D01*
X180775000Y-101725000D01*
X180787252Y-101725602D01*
G37*
G04 #@! TD.AperFunction*
G04 #@! TA.AperFunction,SMDPad,CuDef*
G36*
X159352691Y-99226053D02*
G01*
X159373926Y-99229203D01*
X159394750Y-99234419D01*
X159414962Y-99241651D01*
X159434368Y-99250830D01*
X159452781Y-99261866D01*
X159470024Y-99274654D01*
X159485930Y-99289070D01*
X159500346Y-99304976D01*
X159513134Y-99322219D01*
X159524170Y-99340632D01*
X159533349Y-99360038D01*
X159540581Y-99380250D01*
X159545797Y-99401074D01*
X159548947Y-99422309D01*
X159550000Y-99443750D01*
X159550000Y-99956250D01*
X159548947Y-99977691D01*
X159545797Y-99998926D01*
X159540581Y-100019750D01*
X159533349Y-100039962D01*
X159524170Y-100059368D01*
X159513134Y-100077781D01*
X159500346Y-100095024D01*
X159485930Y-100110930D01*
X159470024Y-100125346D01*
X159452781Y-100138134D01*
X159434368Y-100149170D01*
X159414962Y-100158349D01*
X159394750Y-100165581D01*
X159373926Y-100170797D01*
X159352691Y-100173947D01*
X159331250Y-100175000D01*
X158893750Y-100175000D01*
X158872309Y-100173947D01*
X158851074Y-100170797D01*
X158830250Y-100165581D01*
X158810038Y-100158349D01*
X158790632Y-100149170D01*
X158772219Y-100138134D01*
X158754976Y-100125346D01*
X158739070Y-100110930D01*
X158724654Y-100095024D01*
X158711866Y-100077781D01*
X158700830Y-100059368D01*
X158691651Y-100039962D01*
X158684419Y-100019750D01*
X158679203Y-99998926D01*
X158676053Y-99977691D01*
X158675000Y-99956250D01*
X158675000Y-99443750D01*
X158676053Y-99422309D01*
X158679203Y-99401074D01*
X158684419Y-99380250D01*
X158691651Y-99360038D01*
X158700830Y-99340632D01*
X158711866Y-99322219D01*
X158724654Y-99304976D01*
X158739070Y-99289070D01*
X158754976Y-99274654D01*
X158772219Y-99261866D01*
X158790632Y-99250830D01*
X158810038Y-99241651D01*
X158830250Y-99234419D01*
X158851074Y-99229203D01*
X158872309Y-99226053D01*
X158893750Y-99225000D01*
X159331250Y-99225000D01*
X159352691Y-99226053D01*
G37*
G04 #@! TD.AperFunction*
G04 #@! TA.AperFunction,SMDPad,CuDef*
G36*
X160927691Y-99226053D02*
G01*
X160948926Y-99229203D01*
X160969750Y-99234419D01*
X160989962Y-99241651D01*
X161009368Y-99250830D01*
X161027781Y-99261866D01*
X161045024Y-99274654D01*
X161060930Y-99289070D01*
X161075346Y-99304976D01*
X161088134Y-99322219D01*
X161099170Y-99340632D01*
X161108349Y-99360038D01*
X161115581Y-99380250D01*
X161120797Y-99401074D01*
X161123947Y-99422309D01*
X161125000Y-99443750D01*
X161125000Y-99956250D01*
X161123947Y-99977691D01*
X161120797Y-99998926D01*
X161115581Y-100019750D01*
X161108349Y-100039962D01*
X161099170Y-100059368D01*
X161088134Y-100077781D01*
X161075346Y-100095024D01*
X161060930Y-100110930D01*
X161045024Y-100125346D01*
X161027781Y-100138134D01*
X161009368Y-100149170D01*
X160989962Y-100158349D01*
X160969750Y-100165581D01*
X160948926Y-100170797D01*
X160927691Y-100173947D01*
X160906250Y-100175000D01*
X160468750Y-100175000D01*
X160447309Y-100173947D01*
X160426074Y-100170797D01*
X160405250Y-100165581D01*
X160385038Y-100158349D01*
X160365632Y-100149170D01*
X160347219Y-100138134D01*
X160329976Y-100125346D01*
X160314070Y-100110930D01*
X160299654Y-100095024D01*
X160286866Y-100077781D01*
X160275830Y-100059368D01*
X160266651Y-100039962D01*
X160259419Y-100019750D01*
X160254203Y-99998926D01*
X160251053Y-99977691D01*
X160250000Y-99956250D01*
X160250000Y-99443750D01*
X160251053Y-99422309D01*
X160254203Y-99401074D01*
X160259419Y-99380250D01*
X160266651Y-99360038D01*
X160275830Y-99340632D01*
X160286866Y-99322219D01*
X160299654Y-99304976D01*
X160314070Y-99289070D01*
X160329976Y-99274654D01*
X160347219Y-99261866D01*
X160365632Y-99250830D01*
X160385038Y-99241651D01*
X160405250Y-99234419D01*
X160426074Y-99229203D01*
X160447309Y-99226053D01*
X160468750Y-99225000D01*
X160906250Y-99225000D01*
X160927691Y-99226053D01*
G37*
G04 #@! TD.AperFunction*
D12*
X157700000Y-101300000D03*
X157700000Y-101800000D03*
X157700000Y-102300000D03*
X157700000Y-102800000D03*
X157700000Y-103300000D03*
X162100000Y-103300000D03*
X162100000Y-102800000D03*
X162100000Y-102300000D03*
X162100000Y-101800000D03*
X162100000Y-101300000D03*
D13*
X158500000Y-104500000D03*
X155400000Y-103700000D03*
X154000000Y-103700000D03*
X154000000Y-104500000D03*
X153200000Y-104500000D03*
X153200000Y-103700000D03*
X155400000Y-104500000D03*
X156800000Y-104500000D03*
X161600000Y-104500000D03*
X161600000Y-103900000D03*
X167800000Y-104500000D03*
X174000000Y-104500000D03*
X163100000Y-104500000D03*
X169200000Y-104500000D03*
X167800000Y-103900000D03*
X163100000Y-103900000D03*
X175500000Y-104500000D03*
X176300000Y-104500000D03*
X177100000Y-104500000D03*
X177900000Y-104500000D03*
X178700000Y-104500000D03*
X179500000Y-104500000D03*
X180300000Y-104500000D03*
X174000000Y-103900000D03*
X175900000Y-103900000D03*
X176700000Y-103900000D03*
X177500000Y-103900000D03*
X178300000Y-103900000D03*
X179100000Y-103900000D03*
X179500000Y-103300000D03*
X178700000Y-103300000D03*
X177900000Y-103300000D03*
X177100000Y-103300000D03*
X176300000Y-103300000D03*
X149000000Y-96600000D03*
X149800000Y-96600000D03*
X150600000Y-96600000D03*
X151400000Y-96600000D03*
X152200000Y-96600000D03*
X149400000Y-97200000D03*
X150200000Y-97200000D03*
X151000000Y-97200000D03*
X151800000Y-97200000D03*
X149800000Y-97800000D03*
X149000000Y-97800000D03*
X150600000Y-97800000D03*
X151400000Y-97800000D03*
X152200000Y-97800000D03*
X176300000Y-97500000D03*
X176300000Y-96700000D03*
X175700000Y-97100000D03*
X175100000Y-96700000D03*
X175900000Y-102700000D03*
X160200000Y-104500000D03*
X160200000Y-103700000D03*
X166400000Y-103900000D03*
X172600000Y-104500000D03*
X172600000Y-103900000D03*
X166400000Y-104500000D03*
X164700000Y-104500000D03*
X179900000Y-103900000D03*
X180300000Y-103300000D03*
X175100000Y-97500000D03*
X170900000Y-104500000D03*
X169200000Y-103700000D03*
X156800000Y-103900000D03*
X173200000Y-96700000D03*
X154600000Y-96700000D03*
X170100000Y-96700000D03*
X157700000Y-96700000D03*
X160800000Y-96700000D03*
X167000000Y-96700000D03*
X163900000Y-96700000D03*
D14*
X160700000Y-98112500D02*
X160687500Y-98100000D01*
X162200000Y-98112500D02*
X160700000Y-98112500D01*
X164087500Y-98112500D02*
X162200000Y-98112500D01*
X164340000Y-97860000D02*
X164087500Y-98112500D01*
X167175000Y-97860000D02*
X164340000Y-97860000D01*
D15*
X155400000Y-97500000D02*
X154600000Y-96700000D01*
X155400000Y-102200000D02*
X155400000Y-97500000D01*
X156500000Y-103300000D02*
X155400000Y-102200000D01*
X157700000Y-103300000D02*
X156500000Y-103300000D01*
X155800000Y-98600000D02*
X157700000Y-96700000D01*
X155800000Y-102000000D02*
X155800000Y-98600000D01*
X156600000Y-102800000D02*
X155800000Y-102000000D01*
X157700000Y-102800000D02*
X156600000Y-102800000D01*
X160800000Y-96700000D02*
X158500000Y-96700000D01*
X158500000Y-96700000D02*
X156200000Y-99000000D01*
X156700000Y-102300000D02*
X157700000Y-102300000D01*
X156200000Y-99000000D02*
X156200000Y-101800000D01*
X156200000Y-101800000D02*
X156700000Y-102300000D01*
X156800000Y-101800000D02*
X157700000Y-101800000D01*
X156600000Y-101600000D02*
X156800000Y-101800000D01*
X156600000Y-99200000D02*
X156600000Y-101600000D01*
X163900000Y-96700000D02*
X161600000Y-96700000D01*
X158600000Y-97200000D02*
X156600000Y-99200000D01*
X161600000Y-96700000D02*
X161100000Y-97200000D01*
X161100000Y-97200000D02*
X158600000Y-97200000D01*
X165360000Y-102940000D02*
X168075000Y-102940000D01*
X165000000Y-103300000D02*
X165360000Y-102940000D01*
X162100000Y-103300000D02*
X165000000Y-103300000D01*
X162100000Y-102800000D02*
X164600000Y-102800000D01*
X170370000Y-102940000D02*
X173125000Y-102940000D01*
X169330000Y-101900000D02*
X170370000Y-102940000D01*
X164600000Y-102800000D02*
X165500000Y-101900000D01*
X165500000Y-101900000D02*
X169330000Y-101900000D01*
X165400000Y-100400000D02*
X168075000Y-100400000D01*
X164000000Y-101800000D02*
X165400000Y-100400000D01*
X162100000Y-101800000D02*
X164000000Y-101800000D01*
X164250000Y-102300000D02*
X162100000Y-102300000D01*
X170400000Y-100400000D02*
X169400000Y-101400000D01*
X173125000Y-100400000D02*
X170400000Y-100400000D01*
X169400000Y-101400000D02*
X165150000Y-101400000D01*
X165150000Y-101400000D02*
X164250000Y-102300000D01*
G36*
X154295930Y-96329490D02*
G01*
X154229490Y-96395930D01*
X154177288Y-96474056D01*
X154141331Y-96560864D01*
X154123000Y-96653020D01*
X154123000Y-96746980D01*
X154141331Y-96839136D01*
X154177288Y-96925944D01*
X154229490Y-97004070D01*
X154295930Y-97070510D01*
X154374056Y-97122712D01*
X154460864Y-97158669D01*
X154553020Y-97177000D01*
X154614553Y-97177000D01*
X155073001Y-97635448D01*
X155073000Y-102183939D01*
X155071418Y-102200000D01*
X155077732Y-102264103D01*
X155095376Y-102322268D01*
X155096430Y-102325742D01*
X155126794Y-102382549D01*
X155167657Y-102432343D01*
X155180141Y-102442588D01*
X156257416Y-103519864D01*
X156267657Y-103532343D01*
X156317450Y-103573206D01*
X156324032Y-103576724D01*
X156374257Y-103603570D01*
X156435896Y-103622268D01*
X156500000Y-103628582D01*
X156516061Y-103627000D01*
X156857853Y-103627000D01*
X156873276Y-103639657D01*
X156912711Y-103660735D01*
X156955500Y-103673715D01*
X157000000Y-103678098D01*
X158400000Y-103678098D01*
X158444500Y-103673715D01*
X158487289Y-103660735D01*
X158526724Y-103639657D01*
X158561290Y-103611290D01*
X158589657Y-103576724D01*
X158610735Y-103537289D01*
X158623715Y-103494500D01*
X158628098Y-103450000D01*
X158628098Y-103150000D01*
X158623715Y-103105500D01*
X158610735Y-103062711D01*
X158603941Y-103050000D01*
X158610735Y-103037289D01*
X158623715Y-102994500D01*
X158628098Y-102950000D01*
X158628098Y-102650000D01*
X158623715Y-102605500D01*
X158610735Y-102562711D01*
X158603941Y-102550000D01*
X158610735Y-102537289D01*
X158623715Y-102494500D01*
X158628098Y-102450000D01*
X158628098Y-102150000D01*
X158623715Y-102105500D01*
X158610735Y-102062711D01*
X158603941Y-102050000D01*
X158610735Y-102037289D01*
X158623715Y-101994500D01*
X158628098Y-101950000D01*
X158628098Y-101650000D01*
X158623715Y-101605500D01*
X158610735Y-101562711D01*
X158589657Y-101523276D01*
X158561290Y-101488710D01*
X158526724Y-101460343D01*
X158487289Y-101439265D01*
X158444500Y-101426285D01*
X158400000Y-101421902D01*
X157000000Y-101421902D01*
X156955500Y-101426285D01*
X156927000Y-101434930D01*
X156927000Y-99335447D01*
X157162447Y-99100000D01*
X159877009Y-99100000D01*
X159877009Y-100300000D01*
X159881371Y-100344286D01*
X159894288Y-100386869D01*
X159915265Y-100426114D01*
X159943496Y-100460513D01*
X161143496Y-101660513D01*
X161171902Y-101683826D01*
X161171902Y-101950000D01*
X161176285Y-101994500D01*
X161189265Y-102037289D01*
X161196059Y-102050000D01*
X161189265Y-102062711D01*
X161176285Y-102105500D01*
X161171902Y-102150000D01*
X161171902Y-102450000D01*
X161176285Y-102494500D01*
X161189265Y-102537289D01*
X161196059Y-102550000D01*
X161189265Y-102562711D01*
X161176285Y-102605500D01*
X161171902Y-102650000D01*
X161171902Y-102950000D01*
X161176285Y-102994500D01*
X161189265Y-103037289D01*
X161196059Y-103050000D01*
X161189265Y-103062711D01*
X161176285Y-103105500D01*
X161171902Y-103150000D01*
X161171902Y-103450000D01*
X161176285Y-103494500D01*
X161189265Y-103537289D01*
X161210343Y-103576724D01*
X161238710Y-103611290D01*
X161273276Y-103639657D01*
X161312711Y-103660735D01*
X161355500Y-103673715D01*
X161400000Y-103678098D01*
X162800000Y-103678098D01*
X162844500Y-103673715D01*
X162887289Y-103660735D01*
X162926724Y-103639657D01*
X162942147Y-103627000D01*
X164983939Y-103627000D01*
X165000000Y-103628582D01*
X165016061Y-103627000D01*
X165064103Y-103622268D01*
X165125743Y-103603570D01*
X165182550Y-103573206D01*
X165232343Y-103532343D01*
X165242588Y-103519859D01*
X165371902Y-103390545D01*
X165371902Y-103440000D01*
X165376285Y-103484500D01*
X165389265Y-103527289D01*
X165410343Y-103566724D01*
X165438710Y-103601290D01*
X165473276Y-103629657D01*
X165512711Y-103650735D01*
X165555500Y-103663715D01*
X165600000Y-103668098D01*
X168750000Y-103668098D01*
X168794500Y-103663715D01*
X168837289Y-103650735D01*
X168876724Y-103629657D01*
X168911290Y-103601290D01*
X168939657Y-103566724D01*
X168960735Y-103527289D01*
X168973715Y-103484500D01*
X168978098Y-103440000D01*
X168978098Y-102440000D01*
X168973715Y-102395500D01*
X168960735Y-102352711D01*
X168939657Y-102313276D01*
X168911290Y-102278710D01*
X168876724Y-102250343D01*
X168837289Y-102229265D01*
X168829822Y-102227000D01*
X169194553Y-102227000D01*
X170127416Y-103159864D01*
X170137657Y-103172343D01*
X170187450Y-103213206D01*
X170229900Y-103235896D01*
X170244257Y-103243570D01*
X170305896Y-103262268D01*
X170369999Y-103268582D01*
X170386061Y-103267000D01*
X170421902Y-103267000D01*
X170421902Y-103440000D01*
X170426285Y-103484500D01*
X170439265Y-103527289D01*
X170460343Y-103566724D01*
X170488710Y-103601290D01*
X170523276Y-103629657D01*
X170562711Y-103650735D01*
X170605500Y-103663715D01*
X170650000Y-103668098D01*
X173800000Y-103668098D01*
X173844500Y-103663715D01*
X173887289Y-103650735D01*
X173926724Y-103629657D01*
X173961290Y-103601290D01*
X173989657Y-103566724D01*
X174010735Y-103527289D01*
X174023715Y-103484500D01*
X174028098Y-103440000D01*
X174028098Y-102440000D01*
X174023715Y-102395500D01*
X174010735Y-102352711D01*
X173989657Y-102313276D01*
X173961290Y-102278710D01*
X173926724Y-102250343D01*
X173887289Y-102229265D01*
X173844500Y-102216285D01*
X173800000Y-102211902D01*
X170650000Y-102211902D01*
X170605500Y-102216285D01*
X170562711Y-102229265D01*
X170523276Y-102250343D01*
X170488710Y-102278710D01*
X170460343Y-102313276D01*
X170439265Y-102352711D01*
X170426285Y-102395500D01*
X170421902Y-102440000D01*
X170421902Y-102529454D01*
X169572588Y-101680141D01*
X169571670Y-101679022D01*
X169582550Y-101673206D01*
X169632343Y-101632343D01*
X169642588Y-101619859D01*
X170421902Y-100840546D01*
X170421902Y-100900000D01*
X170426285Y-100944500D01*
X170439265Y-100987289D01*
X170460343Y-101026724D01*
X170488710Y-101061290D01*
X170523276Y-101089657D01*
X170562711Y-101110735D01*
X170605500Y-101123715D01*
X170650000Y-101128098D01*
X173800000Y-101128098D01*
X173844500Y-101123715D01*
X173887289Y-101110735D01*
X173926724Y-101089657D01*
X173961290Y-101061290D01*
X173989657Y-101026724D01*
X174010735Y-100987289D01*
X174023715Y-100944500D01*
X174028098Y-100900000D01*
X174028098Y-99900000D01*
X174023715Y-99855500D01*
X174010735Y-99812711D01*
X173989657Y-99773276D01*
X173961290Y-99738710D01*
X173926724Y-99710343D01*
X173887289Y-99689265D01*
X173844500Y-99676285D01*
X173800000Y-99671902D01*
X170650000Y-99671902D01*
X170605500Y-99676285D01*
X170562711Y-99689265D01*
X170523276Y-99710343D01*
X170488710Y-99738710D01*
X170460343Y-99773276D01*
X170439265Y-99812711D01*
X170426285Y-99855500D01*
X170421902Y-99900000D01*
X170421902Y-100073000D01*
X170416061Y-100073000D01*
X170400000Y-100071418D01*
X170335896Y-100077732D01*
X170274257Y-100096430D01*
X170217450Y-100126794D01*
X170167657Y-100167657D01*
X170157416Y-100180136D01*
X169264553Y-101073000D01*
X168897021Y-101073000D01*
X168911290Y-101061290D01*
X168939657Y-101026724D01*
X168960735Y-100987289D01*
X168973715Y-100944500D01*
X168978098Y-100900000D01*
X168978098Y-99900000D01*
X168973715Y-99855500D01*
X168960735Y-99812711D01*
X168939657Y-99773276D01*
X168911290Y-99738710D01*
X168876724Y-99710343D01*
X168837289Y-99689265D01*
X168794500Y-99676285D01*
X168750000Y-99671902D01*
X165600000Y-99671902D01*
X165555500Y-99676285D01*
X165512711Y-99689265D01*
X165473276Y-99710343D01*
X165438710Y-99738710D01*
X165410343Y-99773276D01*
X165389265Y-99812711D01*
X165376285Y-99855500D01*
X165371902Y-99900000D01*
X165371902Y-100074186D01*
X165335896Y-100077732D01*
X165274257Y-100096430D01*
X165217450Y-100126794D01*
X165167657Y-100167657D01*
X165157416Y-100180136D01*
X163864553Y-101473000D01*
X163131009Y-101473000D01*
X163131009Y-99100000D01*
X163126647Y-99055714D01*
X163113730Y-99013131D01*
X163092753Y-98973886D01*
X163064522Y-98939487D01*
X163030123Y-98911256D01*
X162990878Y-98890279D01*
X162948295Y-98877362D01*
X162904009Y-98873000D01*
X160104009Y-98873000D01*
X160059723Y-98877362D01*
X160017140Y-98890279D01*
X159977895Y-98911256D01*
X159943496Y-98939487D01*
X159915265Y-98973886D01*
X159894288Y-99013131D01*
X159881371Y-99055714D01*
X159877009Y-99100000D01*
X157162447Y-99100000D01*
X158735448Y-97527000D01*
X160153733Y-97527000D01*
X160152781Y-97527781D01*
X160097209Y-97595495D01*
X160055916Y-97672749D01*
X160030488Y-97756574D01*
X160021902Y-97843750D01*
X160021902Y-98356250D01*
X160030488Y-98443426D01*
X160055916Y-98527251D01*
X160097209Y-98604505D01*
X160152781Y-98672219D01*
X160220495Y-98727791D01*
X160297749Y-98769084D01*
X160381574Y-98794512D01*
X160468750Y-98803098D01*
X160906250Y-98803098D01*
X160993426Y-98794512D01*
X161077251Y-98769084D01*
X161154505Y-98727791D01*
X161222219Y-98672219D01*
X161234709Y-98657000D01*
X161639699Y-98657000D01*
X161695495Y-98702791D01*
X161772749Y-98744084D01*
X161856574Y-98769512D01*
X161943750Y-98778098D01*
X162456250Y-98778098D01*
X162543426Y-98769512D01*
X162627251Y-98744084D01*
X162704505Y-98702791D01*
X162760301Y-98657000D01*
X164060767Y-98657000D01*
X164087500Y-98659633D01*
X164114233Y-98657000D01*
X164114244Y-98657000D01*
X164194241Y-98649121D01*
X164296879Y-98617986D01*
X164391471Y-98567425D01*
X164474382Y-98499382D01*
X164491434Y-98478604D01*
X164565538Y-98404500D01*
X165376285Y-98404500D01*
X165389265Y-98447289D01*
X165410343Y-98486724D01*
X165438710Y-98521290D01*
X165473276Y-98549657D01*
X165512711Y-98570735D01*
X165555500Y-98583715D01*
X165600000Y-98588098D01*
X168750000Y-98588098D01*
X168794500Y-98583715D01*
X168837289Y-98570735D01*
X168876724Y-98549657D01*
X168911290Y-98521290D01*
X168939657Y-98486724D01*
X168960735Y-98447289D01*
X168973715Y-98404500D01*
X168978098Y-98360000D01*
X168978098Y-97360000D01*
X168973715Y-97315500D01*
X168960735Y-97272711D01*
X168939657Y-97233276D01*
X168911290Y-97198710D01*
X168876724Y-97170343D01*
X168837289Y-97149265D01*
X168794500Y-97136285D01*
X168750000Y-97131902D01*
X167203757Y-97131902D01*
X167225944Y-97122712D01*
X167304070Y-97070510D01*
X167370510Y-97004070D01*
X167422712Y-96925944D01*
X167458669Y-96839136D01*
X167477000Y-96746980D01*
X167477000Y-96653020D01*
X167458669Y-96560864D01*
X167422712Y-96474056D01*
X167370510Y-96395930D01*
X167304070Y-96329490D01*
X167297350Y-96325000D01*
X169802650Y-96325000D01*
X169795930Y-96329490D01*
X169729490Y-96395930D01*
X169677288Y-96474056D01*
X169641331Y-96560864D01*
X169623000Y-96653020D01*
X169623000Y-96746980D01*
X169641331Y-96839136D01*
X169677288Y-96925944D01*
X169729490Y-97004070D01*
X169795930Y-97070510D01*
X169874056Y-97122712D01*
X169960864Y-97158669D01*
X170053020Y-97177000D01*
X170146980Y-97177000D01*
X170239136Y-97158669D01*
X170325944Y-97122712D01*
X170404070Y-97070510D01*
X170470510Y-97004070D01*
X170522712Y-96925944D01*
X170558669Y-96839136D01*
X170577000Y-96746980D01*
X170577000Y-96653020D01*
X170558669Y-96560864D01*
X170522712Y-96474056D01*
X170470510Y-96395930D01*
X170404070Y-96329490D01*
X170397350Y-96325000D01*
X172902650Y-96325000D01*
X172895930Y-96329490D01*
X172829490Y-96395930D01*
X172777288Y-96474056D01*
X172741331Y-96560864D01*
X172723000Y-96653020D01*
X172723000Y-96746980D01*
X172741331Y-96839136D01*
X172777288Y-96925944D01*
X172829490Y-97004070D01*
X172895930Y-97070510D01*
X172974056Y-97122712D01*
X173060864Y-97158669D01*
X173153020Y-97177000D01*
X173246980Y-97177000D01*
X173339136Y-97158669D01*
X173425944Y-97122712D01*
X173504070Y-97070510D01*
X173570510Y-97004070D01*
X173622712Y-96925944D01*
X173658669Y-96839136D01*
X173677000Y-96746980D01*
X173677000Y-96653020D01*
X173658669Y-96560864D01*
X173622712Y-96474056D01*
X173570510Y-96395930D01*
X173504070Y-96329490D01*
X173497350Y-96325000D01*
X180388999Y-96325000D01*
X180453201Y-96331295D01*
X180504384Y-96346748D01*
X180551587Y-96371846D01*
X180593013Y-96405632D01*
X180627093Y-96446828D01*
X180652518Y-96493851D01*
X180668327Y-96544924D01*
X180675001Y-96608420D01*
X180675000Y-104488998D01*
X180668705Y-104553202D01*
X180653252Y-104604384D01*
X180628154Y-104651587D01*
X180594368Y-104693013D01*
X180553173Y-104727092D01*
X180506152Y-104752517D01*
X180455080Y-104768326D01*
X180391588Y-104775000D01*
X149011002Y-104775000D01*
X148946798Y-104768705D01*
X148895616Y-104753252D01*
X148848413Y-104728154D01*
X148806987Y-104694368D01*
X148772908Y-104653173D01*
X148747483Y-104606152D01*
X148731674Y-104555080D01*
X148725000Y-104491588D01*
X148725000Y-96611001D01*
X148731295Y-96546799D01*
X148746748Y-96495616D01*
X148771846Y-96448413D01*
X148805632Y-96406987D01*
X148846828Y-96372907D01*
X148893851Y-96347482D01*
X148944924Y-96331673D01*
X149008411Y-96325000D01*
X154302650Y-96325000D01*
X154295930Y-96329490D01*
G37*
X154295930Y-96329490D02*
X154229490Y-96395930D01*
X154177288Y-96474056D01*
X154141331Y-96560864D01*
X154123000Y-96653020D01*
X154123000Y-96746980D01*
X154141331Y-96839136D01*
X154177288Y-96925944D01*
X154229490Y-97004070D01*
X154295930Y-97070510D01*
X154374056Y-97122712D01*
X154460864Y-97158669D01*
X154553020Y-97177000D01*
X154614553Y-97177000D01*
X155073001Y-97635448D01*
X155073000Y-102183939D01*
X155071418Y-102200000D01*
X155077732Y-102264103D01*
X155095376Y-102322268D01*
X155096430Y-102325742D01*
X155126794Y-102382549D01*
X155167657Y-102432343D01*
X155180141Y-102442588D01*
X156257416Y-103519864D01*
X156267657Y-103532343D01*
X156317450Y-103573206D01*
X156324032Y-103576724D01*
X156374257Y-103603570D01*
X156435896Y-103622268D01*
X156500000Y-103628582D01*
X156516061Y-103627000D01*
X156857853Y-103627000D01*
X156873276Y-103639657D01*
X156912711Y-103660735D01*
X156955500Y-103673715D01*
X157000000Y-103678098D01*
X158400000Y-103678098D01*
X158444500Y-103673715D01*
X158487289Y-103660735D01*
X158526724Y-103639657D01*
X158561290Y-103611290D01*
X158589657Y-103576724D01*
X158610735Y-103537289D01*
X158623715Y-103494500D01*
X158628098Y-103450000D01*
X158628098Y-103150000D01*
X158623715Y-103105500D01*
X158610735Y-103062711D01*
X158603941Y-103050000D01*
X158610735Y-103037289D01*
X158623715Y-102994500D01*
X158628098Y-102950000D01*
X158628098Y-102650000D01*
X158623715Y-102605500D01*
X158610735Y-102562711D01*
X158603941Y-102550000D01*
X158610735Y-102537289D01*
X158623715Y-102494500D01*
X158628098Y-102450000D01*
X158628098Y-102150000D01*
X158623715Y-102105500D01*
X158610735Y-102062711D01*
X158603941Y-102050000D01*
X158610735Y-102037289D01*
X158623715Y-101994500D01*
X158628098Y-101950000D01*
X158628098Y-101650000D01*
X158623715Y-101605500D01*
X158610735Y-101562711D01*
X158589657Y-101523276D01*
X158561290Y-101488710D01*
X158526724Y-101460343D01*
X158487289Y-101439265D01*
X158444500Y-101426285D01*
X158400000Y-101421902D01*
X157000000Y-101421902D01*
X156955500Y-101426285D01*
X156927000Y-101434930D01*
X156927000Y-99335447D01*
X157162447Y-99100000D01*
X159877009Y-99100000D01*
X159877009Y-100300000D01*
X159881371Y-100344286D01*
X159894288Y-100386869D01*
X159915265Y-100426114D01*
X159943496Y-100460513D01*
X161143496Y-101660513D01*
X161171902Y-101683826D01*
X161171902Y-101950000D01*
X161176285Y-101994500D01*
X161189265Y-102037289D01*
X161196059Y-102050000D01*
X161189265Y-102062711D01*
X161176285Y-102105500D01*
X161171902Y-102150000D01*
X161171902Y-102450000D01*
X161176285Y-102494500D01*
X161189265Y-102537289D01*
X161196059Y-102550000D01*
X161189265Y-102562711D01*
X161176285Y-102605500D01*
X161171902Y-102650000D01*
X161171902Y-102950000D01*
X161176285Y-102994500D01*
X161189265Y-103037289D01*
X161196059Y-103050000D01*
X161189265Y-103062711D01*
X161176285Y-103105500D01*
X161171902Y-103150000D01*
X161171902Y-103450000D01*
X161176285Y-103494500D01*
X161189265Y-103537289D01*
X161210343Y-103576724D01*
X161238710Y-103611290D01*
X161273276Y-103639657D01*
X161312711Y-103660735D01*
X161355500Y-103673715D01*
X161400000Y-103678098D01*
X162800000Y-103678098D01*
X162844500Y-103673715D01*
X162887289Y-103660735D01*
X162926724Y-103639657D01*
X162942147Y-103627000D01*
X164983939Y-103627000D01*
X165000000Y-103628582D01*
X165016061Y-103627000D01*
X165064103Y-103622268D01*
X165125743Y-103603570D01*
X165182550Y-103573206D01*
X165232343Y-103532343D01*
X165242588Y-103519859D01*
X165371902Y-103390545D01*
X165371902Y-103440000D01*
X165376285Y-103484500D01*
X165389265Y-103527289D01*
X165410343Y-103566724D01*
X165438710Y-103601290D01*
X165473276Y-103629657D01*
X165512711Y-103650735D01*
X165555500Y-103663715D01*
X165600000Y-103668098D01*
X168750000Y-103668098D01*
X168794500Y-103663715D01*
X168837289Y-103650735D01*
X168876724Y-103629657D01*
X168911290Y-103601290D01*
X168939657Y-103566724D01*
X168960735Y-103527289D01*
X168973715Y-103484500D01*
X168978098Y-103440000D01*
X168978098Y-102440000D01*
X168973715Y-102395500D01*
X168960735Y-102352711D01*
X168939657Y-102313276D01*
X168911290Y-102278710D01*
X168876724Y-102250343D01*
X168837289Y-102229265D01*
X168829822Y-102227000D01*
X169194553Y-102227000D01*
X170127416Y-103159864D01*
X170137657Y-103172343D01*
X170187450Y-103213206D01*
X170229900Y-103235896D01*
X170244257Y-103243570D01*
X170305896Y-103262268D01*
X170369999Y-103268582D01*
X170386061Y-103267000D01*
X170421902Y-103267000D01*
X170421902Y-103440000D01*
X170426285Y-103484500D01*
X170439265Y-103527289D01*
X170460343Y-103566724D01*
X170488710Y-103601290D01*
X170523276Y-103629657D01*
X170562711Y-103650735D01*
X170605500Y-103663715D01*
X170650000Y-103668098D01*
X173800000Y-103668098D01*
X173844500Y-103663715D01*
X173887289Y-103650735D01*
X173926724Y-103629657D01*
X173961290Y-103601290D01*
X173989657Y-103566724D01*
X174010735Y-103527289D01*
X174023715Y-103484500D01*
X174028098Y-103440000D01*
X174028098Y-102440000D01*
X174023715Y-102395500D01*
X174010735Y-102352711D01*
X173989657Y-102313276D01*
X173961290Y-102278710D01*
X173926724Y-102250343D01*
X173887289Y-102229265D01*
X173844500Y-102216285D01*
X173800000Y-102211902D01*
X170650000Y-102211902D01*
X170605500Y-102216285D01*
X170562711Y-102229265D01*
X170523276Y-102250343D01*
X170488710Y-102278710D01*
X170460343Y-102313276D01*
X170439265Y-102352711D01*
X170426285Y-102395500D01*
X170421902Y-102440000D01*
X170421902Y-102529454D01*
X169572588Y-101680141D01*
X169571670Y-101679022D01*
X169582550Y-101673206D01*
X169632343Y-101632343D01*
X169642588Y-101619859D01*
X170421902Y-100840546D01*
X170421902Y-100900000D01*
X170426285Y-100944500D01*
X170439265Y-100987289D01*
X170460343Y-101026724D01*
X170488710Y-101061290D01*
X170523276Y-101089657D01*
X170562711Y-101110735D01*
X170605500Y-101123715D01*
X170650000Y-101128098D01*
X173800000Y-101128098D01*
X173844500Y-101123715D01*
X173887289Y-101110735D01*
X173926724Y-101089657D01*
X173961290Y-101061290D01*
X173989657Y-101026724D01*
X174010735Y-100987289D01*
X174023715Y-100944500D01*
X174028098Y-100900000D01*
X174028098Y-99900000D01*
X174023715Y-99855500D01*
X174010735Y-99812711D01*
X173989657Y-99773276D01*
X173961290Y-99738710D01*
X173926724Y-99710343D01*
X173887289Y-99689265D01*
X173844500Y-99676285D01*
X173800000Y-99671902D01*
X170650000Y-99671902D01*
X170605500Y-99676285D01*
X170562711Y-99689265D01*
X170523276Y-99710343D01*
X170488710Y-99738710D01*
X170460343Y-99773276D01*
X170439265Y-99812711D01*
X170426285Y-99855500D01*
X170421902Y-99900000D01*
X170421902Y-100073000D01*
X170416061Y-100073000D01*
X170400000Y-100071418D01*
X170335896Y-100077732D01*
X170274257Y-100096430D01*
X170217450Y-100126794D01*
X170167657Y-100167657D01*
X170157416Y-100180136D01*
X169264553Y-101073000D01*
X168897021Y-101073000D01*
X168911290Y-101061290D01*
X168939657Y-101026724D01*
X168960735Y-100987289D01*
X168973715Y-100944500D01*
X168978098Y-100900000D01*
X168978098Y-99900000D01*
X168973715Y-99855500D01*
X168960735Y-99812711D01*
X168939657Y-99773276D01*
X168911290Y-99738710D01*
X168876724Y-99710343D01*
X168837289Y-99689265D01*
X168794500Y-99676285D01*
X168750000Y-99671902D01*
X165600000Y-99671902D01*
X165555500Y-99676285D01*
X165512711Y-99689265D01*
X165473276Y-99710343D01*
X165438710Y-99738710D01*
X165410343Y-99773276D01*
X165389265Y-99812711D01*
X165376285Y-99855500D01*
X165371902Y-99900000D01*
X165371902Y-100074186D01*
X165335896Y-100077732D01*
X165274257Y-100096430D01*
X165217450Y-100126794D01*
X165167657Y-100167657D01*
X165157416Y-100180136D01*
X163864553Y-101473000D01*
X163131009Y-101473000D01*
X163131009Y-99100000D01*
X163126647Y-99055714D01*
X163113730Y-99013131D01*
X163092753Y-98973886D01*
X163064522Y-98939487D01*
X163030123Y-98911256D01*
X162990878Y-98890279D01*
X162948295Y-98877362D01*
X162904009Y-98873000D01*
X160104009Y-98873000D01*
X160059723Y-98877362D01*
X160017140Y-98890279D01*
X159977895Y-98911256D01*
X159943496Y-98939487D01*
X159915265Y-98973886D01*
X159894288Y-99013131D01*
X159881371Y-99055714D01*
X159877009Y-99100000D01*
X157162447Y-99100000D01*
X158735448Y-97527000D01*
X160153733Y-97527000D01*
X160152781Y-97527781D01*
X160097209Y-97595495D01*
X160055916Y-97672749D01*
X160030488Y-97756574D01*
X160021902Y-97843750D01*
X160021902Y-98356250D01*
X160030488Y-98443426D01*
X160055916Y-98527251D01*
X160097209Y-98604505D01*
X160152781Y-98672219D01*
X160220495Y-98727791D01*
X160297749Y-98769084D01*
X160381574Y-98794512D01*
X160468750Y-98803098D01*
X160906250Y-98803098D01*
X160993426Y-98794512D01*
X161077251Y-98769084D01*
X161154505Y-98727791D01*
X161222219Y-98672219D01*
X161234709Y-98657000D01*
X161639699Y-98657000D01*
X161695495Y-98702791D01*
X161772749Y-98744084D01*
X161856574Y-98769512D01*
X161943750Y-98778098D01*
X162456250Y-98778098D01*
X162543426Y-98769512D01*
X162627251Y-98744084D01*
X162704505Y-98702791D01*
X162760301Y-98657000D01*
X164060767Y-98657000D01*
X164087500Y-98659633D01*
X164114233Y-98657000D01*
X164114244Y-98657000D01*
X164194241Y-98649121D01*
X164296879Y-98617986D01*
X164391471Y-98567425D01*
X164474382Y-98499382D01*
X164491434Y-98478604D01*
X164565538Y-98404500D01*
X165376285Y-98404500D01*
X165389265Y-98447289D01*
X165410343Y-98486724D01*
X165438710Y-98521290D01*
X165473276Y-98549657D01*
X165512711Y-98570735D01*
X165555500Y-98583715D01*
X165600000Y-98588098D01*
X168750000Y-98588098D01*
X168794500Y-98583715D01*
X168837289Y-98570735D01*
X168876724Y-98549657D01*
X168911290Y-98521290D01*
X168939657Y-98486724D01*
X168960735Y-98447289D01*
X168973715Y-98404500D01*
X168978098Y-98360000D01*
X168978098Y-97360000D01*
X168973715Y-97315500D01*
X168960735Y-97272711D01*
X168939657Y-97233276D01*
X168911290Y-97198710D01*
X168876724Y-97170343D01*
X168837289Y-97149265D01*
X168794500Y-97136285D01*
X168750000Y-97131902D01*
X167203757Y-97131902D01*
X167225944Y-97122712D01*
X167304070Y-97070510D01*
X167370510Y-97004070D01*
X167422712Y-96925944D01*
X167458669Y-96839136D01*
X167477000Y-96746980D01*
X167477000Y-96653020D01*
X167458669Y-96560864D01*
X167422712Y-96474056D01*
X167370510Y-96395930D01*
X167304070Y-96329490D01*
X167297350Y-96325000D01*
X169802650Y-96325000D01*
X169795930Y-96329490D01*
X169729490Y-96395930D01*
X169677288Y-96474056D01*
X169641331Y-96560864D01*
X169623000Y-96653020D01*
X169623000Y-96746980D01*
X169641331Y-96839136D01*
X169677288Y-96925944D01*
X169729490Y-97004070D01*
X169795930Y-97070510D01*
X169874056Y-97122712D01*
X169960864Y-97158669D01*
X170053020Y-97177000D01*
X170146980Y-97177000D01*
X170239136Y-97158669D01*
X170325944Y-97122712D01*
X170404070Y-97070510D01*
X170470510Y-97004070D01*
X170522712Y-96925944D01*
X170558669Y-96839136D01*
X170577000Y-96746980D01*
X170577000Y-96653020D01*
X170558669Y-96560864D01*
X170522712Y-96474056D01*
X170470510Y-96395930D01*
X170404070Y-96329490D01*
X170397350Y-96325000D01*
X172902650Y-96325000D01*
X172895930Y-96329490D01*
X172829490Y-96395930D01*
X172777288Y-96474056D01*
X172741331Y-96560864D01*
X172723000Y-96653020D01*
X172723000Y-96746980D01*
X172741331Y-96839136D01*
X172777288Y-96925944D01*
X172829490Y-97004070D01*
X172895930Y-97070510D01*
X172974056Y-97122712D01*
X173060864Y-97158669D01*
X173153020Y-97177000D01*
X173246980Y-97177000D01*
X173339136Y-97158669D01*
X173425944Y-97122712D01*
X173504070Y-97070510D01*
X173570510Y-97004070D01*
X173622712Y-96925944D01*
X173658669Y-96839136D01*
X173677000Y-96746980D01*
X173677000Y-96653020D01*
X173658669Y-96560864D01*
X173622712Y-96474056D01*
X173570510Y-96395930D01*
X173504070Y-96329490D01*
X173497350Y-96325000D01*
X180388999Y-96325000D01*
X180453201Y-96331295D01*
X180504384Y-96346748D01*
X180551587Y-96371846D01*
X180593013Y-96405632D01*
X180627093Y-96446828D01*
X180652518Y-96493851D01*
X180668327Y-96544924D01*
X180675001Y-96608420D01*
X180675000Y-104488998D01*
X180668705Y-104553202D01*
X180653252Y-104604384D01*
X180628154Y-104651587D01*
X180594368Y-104693013D01*
X180553173Y-104727092D01*
X180506152Y-104752517D01*
X180455080Y-104768326D01*
X180391588Y-104775000D01*
X149011002Y-104775000D01*
X148946798Y-104768705D01*
X148895616Y-104753252D01*
X148848413Y-104728154D01*
X148806987Y-104694368D01*
X148772908Y-104653173D01*
X148747483Y-104606152D01*
X148731674Y-104555080D01*
X148725000Y-104491588D01*
X148725000Y-96611001D01*
X148731295Y-96546799D01*
X148746748Y-96495616D01*
X148771846Y-96448413D01*
X148805632Y-96406987D01*
X148846828Y-96372907D01*
X148893851Y-96347482D01*
X148944924Y-96331673D01*
X149008411Y-96325000D01*
X154302650Y-96325000D01*
X154295930Y-96329490D01*
G36*
X162804009Y-101400000D02*
G01*
X161345431Y-101400000D01*
X160204009Y-100258578D01*
X160204009Y-99200000D01*
X162804009Y-99200000D01*
X162804009Y-101400000D01*
G37*
X162804009Y-101400000D02*
X161345431Y-101400000D01*
X160204009Y-100258578D01*
X160204009Y-99200000D01*
X162804009Y-99200000D01*
X162804009Y-101400000D01*
M02*
