G04 #@! TF.GenerationSoftware,KiCad,Pcbnew,5.1.5-52549c5~84~ubuntu16.04.1*
G04 #@! TF.CreationDate,2020-01-10T16:04:47+01:00*
G04 #@! TF.ProjectId,Filter_PCB_4,46696c74-6572-45f5-9043-425f342e6b69,rev?*
G04 #@! TF.SameCoordinates,Original*
G04 #@! TF.FileFunction,Legend,Bot*
G04 #@! TF.FilePolarity,Positive*
%FSLAX46Y46*%
G04 Gerber Fmt 4.6, Leading zero omitted, Abs format (unit mm)*
G04 Created by KiCad (PCBNEW 5.1.5-52549c5~84~ubuntu16.04.1) date 2020-01-10 16:04:47*
%MOMM*%
%LPD*%
G04 APERTURE LIST*
%ADD10C,0.150000*%
%ADD11C,0.120000*%
%ADD12C,0.100000*%
G04 APERTURE END LIST*
D10*
X155754285Y-100957142D02*
X156182857Y-100957142D01*
X156070357Y-100057142D01*
X155443571Y-100871428D02*
X155406071Y-100914285D01*
X155454285Y-100957142D01*
X155491785Y-100914285D01*
X155443571Y-100871428D01*
X155454285Y-100957142D01*
X155036428Y-100700000D02*
X154607857Y-100700000D01*
X155154285Y-100957142D02*
X154741785Y-100057142D01*
X154554285Y-100957142D01*
X154179285Y-100357142D02*
X154254285Y-100957142D01*
X154190000Y-100442857D02*
X154141785Y-100400000D01*
X154050714Y-100357142D01*
X153922142Y-100357142D01*
X153841785Y-100400000D01*
X153809642Y-100485714D01*
X153868571Y-100957142D01*
X153054285Y-100957142D02*
X152995357Y-100485714D01*
X153027500Y-100400000D01*
X153107857Y-100357142D01*
X153279285Y-100357142D01*
X153370357Y-100400000D01*
X153048928Y-100914285D02*
X153140000Y-100957142D01*
X153354285Y-100957142D01*
X153434642Y-100914285D01*
X153466785Y-100828571D01*
X153456071Y-100742857D01*
X153402500Y-100657142D01*
X153311428Y-100614285D01*
X153097142Y-100614285D01*
X153006071Y-100571428D01*
X152663214Y-100914285D02*
X152582857Y-100957142D01*
X152411428Y-100957142D01*
X152320357Y-100914285D01*
X152266785Y-100828571D01*
X152261428Y-100785714D01*
X152293571Y-100700000D01*
X152373928Y-100657142D01*
X152502500Y-100657142D01*
X152582857Y-100614285D01*
X152615000Y-100528571D01*
X152609642Y-100485714D01*
X152556071Y-100400000D01*
X152465000Y-100357142D01*
X152336428Y-100357142D01*
X152256071Y-100400000D01*
X151950714Y-100357142D02*
X151607857Y-100357142D01*
X151784642Y-100057142D02*
X151881071Y-100828571D01*
X151848928Y-100914285D01*
X151768571Y-100957142D01*
X151682857Y-100957142D01*
X150997142Y-100957142D02*
X150938214Y-100485714D01*
X150970357Y-100400000D01*
X151050714Y-100357142D01*
X151222142Y-100357142D01*
X151313214Y-100400000D01*
X150991785Y-100914285D02*
X151082857Y-100957142D01*
X151297142Y-100957142D01*
X151377500Y-100914285D01*
X151409642Y-100828571D01*
X151398928Y-100742857D01*
X151345357Y-100657142D01*
X151254285Y-100614285D01*
X151040000Y-100614285D01*
X150948928Y-100571428D01*
X150606071Y-100914285D02*
X150525714Y-100957142D01*
X150354285Y-100957142D01*
X150263214Y-100914285D01*
X150209642Y-100828571D01*
X150204285Y-100785714D01*
X150236428Y-100700000D01*
X150316785Y-100657142D01*
X150445357Y-100657142D01*
X150525714Y-100614285D01*
X150557857Y-100528571D01*
X150552500Y-100485714D01*
X150498928Y-100400000D01*
X150407857Y-100357142D01*
X150279285Y-100357142D01*
X150198928Y-100400000D01*
X149840000Y-100957142D02*
X149765000Y-100357142D01*
X149727500Y-100057142D02*
X149775714Y-100100000D01*
X149738214Y-100142857D01*
X149690000Y-100100000D01*
X149727500Y-100057142D01*
X149738214Y-100142857D01*
X149282857Y-100957142D02*
X149363214Y-100914285D01*
X149400714Y-100871428D01*
X149432857Y-100785714D01*
X149400714Y-100528571D01*
X149347142Y-100442857D01*
X149298928Y-100400000D01*
X149207857Y-100357142D01*
X149079285Y-100357142D01*
X148998928Y-100400000D01*
X148961428Y-100442857D01*
X148929285Y-100528571D01*
X148961428Y-100785714D01*
X149015000Y-100871428D01*
X149063214Y-100914285D01*
X149154285Y-100957142D01*
X149282857Y-100957142D01*
X156123928Y-101985714D02*
X155823928Y-101985714D01*
X155754285Y-102457142D02*
X156182857Y-102457142D01*
X156070357Y-101557142D01*
X155641785Y-101557142D01*
X155357857Y-102371428D02*
X155320357Y-102414285D01*
X155368571Y-102457142D01*
X155406071Y-102414285D01*
X155357857Y-102371428D01*
X155368571Y-102457142D01*
X154940000Y-102457142D02*
X154827500Y-101557142D01*
X154613214Y-101557142D01*
X154490000Y-101600000D01*
X154415000Y-101685714D01*
X154382857Y-101771428D01*
X154361428Y-101942857D01*
X154377500Y-102071428D01*
X154441785Y-102242857D01*
X154495357Y-102328571D01*
X154591785Y-102414285D01*
X154725714Y-102457142D01*
X154940000Y-102457142D01*
X153884642Y-101557142D02*
X153991785Y-101728571D01*
X153622142Y-102200000D02*
X153193571Y-102200000D01*
X153740000Y-102457142D02*
X153327500Y-101557142D01*
X153140000Y-102457142D01*
X152840000Y-102457142D02*
X152765000Y-101857142D01*
X152775714Y-101942857D02*
X152727500Y-101900000D01*
X152636428Y-101857142D01*
X152507857Y-101857142D01*
X152427500Y-101900000D01*
X152395357Y-101985714D01*
X152454285Y-102457142D01*
X152395357Y-101985714D02*
X152341785Y-101900000D01*
X152250714Y-101857142D01*
X152122142Y-101857142D01*
X152041785Y-101900000D01*
X152009642Y-101985714D01*
X152068571Y-102457142D01*
X151640000Y-102457142D02*
X151565000Y-101857142D01*
X151527500Y-101557142D02*
X151575714Y-101600000D01*
X151538214Y-101642857D01*
X151490000Y-101600000D01*
X151527500Y-101557142D01*
X151538214Y-101642857D01*
X150820357Y-102414285D02*
X150911428Y-102457142D01*
X151082857Y-102457142D01*
X151163214Y-102414285D01*
X151200714Y-102371428D01*
X151232857Y-102285714D01*
X151200714Y-102028571D01*
X151147142Y-101942857D01*
X151098928Y-101900000D01*
X151007857Y-101857142D01*
X150836428Y-101857142D01*
X150756071Y-101900000D01*
X150311428Y-102457142D02*
X150391785Y-102414285D01*
X150429285Y-102371428D01*
X150461428Y-102285714D01*
X150429285Y-102028571D01*
X150375714Y-101942857D01*
X150327500Y-101900000D01*
X150236428Y-101857142D01*
X150107857Y-101857142D01*
X150027500Y-101900000D01*
X149990000Y-101942857D01*
X149957857Y-102028571D01*
X149990000Y-102285714D01*
X150043571Y-102371428D01*
X150091785Y-102414285D01*
X150182857Y-102457142D01*
X150311428Y-102457142D01*
D11*
X164895238Y-103361904D02*
X165161904Y-102980952D01*
X165352380Y-103361904D02*
X165352380Y-102561904D01*
X165047619Y-102561904D01*
X164971428Y-102600000D01*
X164933333Y-102638095D01*
X164895238Y-102714285D01*
X164895238Y-102828571D01*
X164933333Y-102904761D01*
X164971428Y-102942857D01*
X165047619Y-102980952D01*
X165352380Y-102980952D01*
X164552380Y-103361904D02*
X164552380Y-102561904D01*
X164361904Y-102561904D01*
X164247619Y-102600000D01*
X164171428Y-102676190D01*
X164133333Y-102752380D01*
X164095238Y-102904761D01*
X164095238Y-103019047D01*
X164133333Y-103171428D01*
X164171428Y-103247619D01*
X164247619Y-103323809D01*
X164361904Y-103361904D01*
X164552380Y-103361904D01*
X163600000Y-102980952D02*
X163600000Y-103361904D01*
X163866666Y-102561904D02*
X163600000Y-102980952D01*
X163333333Y-102561904D01*
X165352380Y-100723809D02*
X165238095Y-100761904D01*
X165047619Y-100761904D01*
X164971428Y-100723809D01*
X164933333Y-100685714D01*
X164895238Y-100609523D01*
X164895238Y-100533333D01*
X164933333Y-100457142D01*
X164971428Y-100419047D01*
X165047619Y-100380952D01*
X165200000Y-100342857D01*
X165276190Y-100304761D01*
X165314285Y-100266666D01*
X165352380Y-100190476D01*
X165352380Y-100114285D01*
X165314285Y-100038095D01*
X165276190Y-100000000D01*
X165200000Y-99961904D01*
X165009523Y-99961904D01*
X164895238Y-100000000D01*
X164095238Y-100685714D02*
X164133333Y-100723809D01*
X164247619Y-100761904D01*
X164323809Y-100761904D01*
X164438095Y-100723809D01*
X164514285Y-100647619D01*
X164552380Y-100571428D01*
X164590476Y-100419047D01*
X164590476Y-100304761D01*
X164552380Y-100152380D01*
X164514285Y-100076190D01*
X164438095Y-100000000D01*
X164323809Y-99961904D01*
X164247619Y-99961904D01*
X164133333Y-100000000D01*
X164095238Y-100038095D01*
X163371428Y-100761904D02*
X163752380Y-100761904D01*
X163752380Y-99961904D01*
X165366666Y-97461904D02*
X165100000Y-98261904D01*
X164833333Y-97461904D01*
X164566666Y-98261904D02*
X164566666Y-97461904D01*
X164376190Y-97461904D01*
X164261904Y-97500000D01*
X164185714Y-97576190D01*
X164147619Y-97652380D01*
X164109523Y-97804761D01*
X164109523Y-97919047D01*
X164147619Y-98071428D01*
X164185714Y-98147619D01*
X164261904Y-98223809D01*
X164376190Y-98261904D01*
X164566666Y-98261904D01*
X163766666Y-98261904D02*
X163766666Y-97461904D01*
X163576190Y-97461904D01*
X163461904Y-97500000D01*
X163385714Y-97576190D01*
X163347619Y-97652380D01*
X163309523Y-97804761D01*
X163309523Y-97919047D01*
X163347619Y-98071428D01*
X163385714Y-98147619D01*
X163461904Y-98223809D01*
X163576190Y-98261904D01*
X163766666Y-98261904D01*
X176483333Y-102440000D02*
X175916666Y-102440000D01*
X175983333Y-103416666D02*
X176316666Y-103416666D01*
X176316666Y-102716666D01*
X175916666Y-102440000D02*
X175216666Y-102440000D01*
X175750000Y-103416666D02*
X175750000Y-102716666D01*
X175583333Y-102716666D01*
X175483333Y-102750000D01*
X175416666Y-102816666D01*
X175383333Y-102883333D01*
X175350000Y-103016666D01*
X175350000Y-103116666D01*
X175383333Y-103250000D01*
X175416666Y-103316666D01*
X175483333Y-103383333D01*
X175583333Y-103416666D01*
X175750000Y-103416666D01*
X175216666Y-102440000D02*
X174616666Y-102440000D01*
X175083333Y-103216666D02*
X174750000Y-103216666D01*
X175150000Y-103416666D02*
X174916666Y-102716666D01*
X174683333Y-103416666D01*
X174616666Y-102440000D02*
X173916666Y-102440000D01*
X174050000Y-103350000D02*
X174083333Y-103383333D01*
X174183333Y-103416666D01*
X174250000Y-103416666D01*
X174350000Y-103383333D01*
X174416666Y-103316666D01*
X174450000Y-103250000D01*
X174483333Y-103116666D01*
X174483333Y-103016666D01*
X174450000Y-102883333D01*
X174416666Y-102816666D01*
X174350000Y-102750000D01*
X174250000Y-102716666D01*
X174183333Y-102716666D01*
X174083333Y-102750000D01*
X174050000Y-102783333D01*
X176071428Y-100723809D02*
X175957142Y-100761904D01*
X175766666Y-100761904D01*
X175690476Y-100723809D01*
X175652380Y-100685714D01*
X175614285Y-100609523D01*
X175614285Y-100533333D01*
X175652380Y-100457142D01*
X175690476Y-100419047D01*
X175766666Y-100380952D01*
X175919047Y-100342857D01*
X175995238Y-100304761D01*
X176033333Y-100266666D01*
X176071428Y-100190476D01*
X176071428Y-100114285D01*
X176033333Y-100038095D01*
X175995238Y-100000000D01*
X175919047Y-99961904D01*
X175728571Y-99961904D01*
X175614285Y-100000000D01*
X175271428Y-100761904D02*
X175271428Y-99961904D01*
X175080952Y-99961904D01*
X174966666Y-100000000D01*
X174890476Y-100076190D01*
X174852380Y-100152380D01*
X174814285Y-100304761D01*
X174814285Y-100419047D01*
X174852380Y-100571428D01*
X174890476Y-100647619D01*
X174966666Y-100723809D01*
X175080952Y-100761904D01*
X175271428Y-100761904D01*
X174509523Y-100533333D02*
X174128571Y-100533333D01*
X174585714Y-100761904D02*
X174319047Y-99961904D01*
X174052380Y-100761904D01*
X175709523Y-97500000D02*
X175785714Y-97461904D01*
X175900000Y-97461904D01*
X176014285Y-97500000D01*
X176090476Y-97576190D01*
X176128571Y-97652380D01*
X176166666Y-97804761D01*
X176166666Y-97919047D01*
X176128571Y-98071428D01*
X176090476Y-98147619D01*
X176014285Y-98223809D01*
X175900000Y-98261904D01*
X175823809Y-98261904D01*
X175709523Y-98223809D01*
X175671428Y-98185714D01*
X175671428Y-97919047D01*
X175823809Y-97919047D01*
X175328571Y-98261904D02*
X175328571Y-97461904D01*
X174871428Y-98261904D01*
X174871428Y-97461904D01*
X174490476Y-98261904D02*
X174490476Y-97461904D01*
X174300000Y-97461904D01*
X174185714Y-97500000D01*
X174109523Y-97576190D01*
X174071428Y-97652380D01*
X174033333Y-97804761D01*
X174033333Y-97919047D01*
X174071428Y-98071428D01*
X174109523Y-98147619D01*
X174185714Y-98223809D01*
X174300000Y-98261904D01*
X174490476Y-98261904D01*
X167100000Y-101160000D02*
X167100000Y-102180000D01*
X172300000Y-101160000D02*
X172300000Y-102180000D01*
X167100000Y-98620000D02*
X167100000Y-99640000D01*
X172300000Y-98620000D02*
X172300000Y-99640000D01*
X167100000Y-103700000D02*
X167100000Y-104270000D01*
X172300000Y-103700000D02*
X172300000Y-104270000D01*
X167100000Y-96530000D02*
X167100000Y-97100000D01*
X172300000Y-96530000D02*
X172300000Y-97100000D01*
X173740000Y-97100000D02*
X172300000Y-97100000D01*
X172300000Y-104270000D02*
X167100000Y-104270000D01*
X172300000Y-96530000D02*
X167100000Y-96530000D01*
X160062779Y-97590000D02*
X159737221Y-97590000D01*
X160062779Y-98610000D02*
X159737221Y-98610000D01*
X162710000Y-99062779D02*
X162710000Y-98737221D01*
X161690000Y-99062779D02*
X161690000Y-98737221D01*
X160062779Y-100210000D02*
X159737221Y-100210000D01*
X160062779Y-99190000D02*
X159737221Y-99190000D01*
D10*
X161575000Y-100850000D02*
X162800000Y-100850000D01*
X161575000Y-103975000D02*
X158225000Y-103975000D01*
X161575000Y-100625000D02*
X158225000Y-100625000D01*
X161575000Y-103975000D02*
X161575000Y-103675000D01*
X158225000Y-103975000D02*
X158225000Y-103675000D01*
X158225000Y-100625000D02*
X158225000Y-100925000D01*
X161575000Y-100625000D02*
X161575000Y-100850000D01*
D12*
X158314285Y-98000000D02*
X158342857Y-97971428D01*
X158371428Y-97885714D01*
X158371428Y-97828571D01*
X158342857Y-97742857D01*
X158285714Y-97685714D01*
X158228571Y-97657142D01*
X158114285Y-97628571D01*
X158028571Y-97628571D01*
X157914285Y-97657142D01*
X157857142Y-97685714D01*
X157800000Y-97742857D01*
X157771428Y-97828571D01*
X157771428Y-97885714D01*
X157800000Y-97971428D01*
X157828571Y-98000000D01*
X158371428Y-98285714D02*
X158371428Y-98400000D01*
X158342857Y-98457142D01*
X158314285Y-98485714D01*
X158228571Y-98542857D01*
X158114285Y-98571428D01*
X157885714Y-98571428D01*
X157828571Y-98542857D01*
X157800000Y-98514285D01*
X157771428Y-98457142D01*
X157771428Y-98342857D01*
X157800000Y-98285714D01*
X157828571Y-98257142D01*
X157885714Y-98228571D01*
X158028571Y-98228571D01*
X158085714Y-98257142D01*
X158114285Y-98285714D01*
X158142857Y-98342857D01*
X158142857Y-98457142D01*
X158114285Y-98514285D01*
X158085714Y-98542857D01*
X158028571Y-98571428D01*
X162300000Y-97371428D02*
X162585714Y-97371428D01*
X162585714Y-96771428D01*
X161842857Y-96971428D02*
X161842857Y-97371428D01*
X161985714Y-96742857D02*
X162128571Y-97171428D01*
X161757142Y-97171428D01*
X158314285Y-99314285D02*
X158342857Y-99285714D01*
X158371428Y-99200000D01*
X158371428Y-99142857D01*
X158342857Y-99057142D01*
X158285714Y-99000000D01*
X158228571Y-98971428D01*
X158114285Y-98942857D01*
X158028571Y-98942857D01*
X157914285Y-98971428D01*
X157857142Y-99000000D01*
X157800000Y-99057142D01*
X157771428Y-99142857D01*
X157771428Y-99200000D01*
X157800000Y-99285714D01*
X157828571Y-99314285D01*
X158371428Y-99885714D02*
X158371428Y-99542857D01*
X158371428Y-99714285D02*
X157771428Y-99714285D01*
X157857142Y-99657142D01*
X157914285Y-99600000D01*
X157942857Y-99542857D01*
X157771428Y-100257142D02*
X157771428Y-100314285D01*
X157800000Y-100371428D01*
X157828571Y-100400000D01*
X157885714Y-100428571D01*
X158000000Y-100457142D01*
X158142857Y-100457142D01*
X158257142Y-100428571D01*
X158314285Y-100400000D01*
X158342857Y-100371428D01*
X158371428Y-100314285D01*
X158371428Y-100257142D01*
X158342857Y-100200000D01*
X158314285Y-100171428D01*
X158257142Y-100142857D01*
X158142857Y-100114285D01*
X158000000Y-100114285D01*
X157885714Y-100142857D01*
X157828571Y-100171428D01*
X157800000Y-100200000D01*
X157771428Y-100257142D01*
X159757142Y-104171428D02*
X159757142Y-104657142D01*
X159728571Y-104714285D01*
X159700000Y-104742857D01*
X159642857Y-104771428D01*
X159528571Y-104771428D01*
X159471428Y-104742857D01*
X159442857Y-104714285D01*
X159414285Y-104657142D01*
X159414285Y-104171428D01*
X158814285Y-104771428D02*
X159157142Y-104771428D01*
X158985714Y-104771428D02*
X158985714Y-104171428D01*
X159042857Y-104257142D01*
X159100000Y-104314285D01*
X159157142Y-104342857D01*
M02*
