G04 #@! TF.GenerationSoftware,KiCad,Pcbnew,5.1.5*
G04 #@! TF.CreationDate,2020-02-12T19:16:24+01:00*
G04 #@! TF.ProjectId,Filter_PCB_4_btob,46696c74-6572-45f5-9043-425f345f6274,rev?*
G04 #@! TF.SameCoordinates,Original*
G04 #@! TF.FileFunction,Paste,Top*
G04 #@! TF.FilePolarity,Positive*
%FSLAX46Y46*%
G04 Gerber Fmt 4.6, Leading zero omitted, Abs format (unit mm)*
G04 Created by KiCad (PCBNEW 5.1.5) date 2020-02-12 19:16:24*
%MOMM*%
%LPD*%
G04 APERTURE LIST*
%ADD10C,0.100000*%
G04 APERTURE END LIST*
D10*
G36*
X158086958Y-103490710D02*
G01*
X158101276Y-103492834D01*
X158115317Y-103496351D01*
X158128946Y-103501228D01*
X158142031Y-103507417D01*
X158154447Y-103514858D01*
X158166073Y-103523481D01*
X158176798Y-103533202D01*
X158186519Y-103543927D01*
X158195142Y-103555553D01*
X158202583Y-103567969D01*
X158208772Y-103581054D01*
X158213649Y-103594683D01*
X158217166Y-103608724D01*
X158219290Y-103623042D01*
X158220000Y-103637500D01*
X158220000Y-103932500D01*
X158219290Y-103946958D01*
X158217166Y-103961276D01*
X158213649Y-103975317D01*
X158208772Y-103988946D01*
X158202583Y-104002031D01*
X158195142Y-104014447D01*
X158186519Y-104026073D01*
X158176798Y-104036798D01*
X158166073Y-104046519D01*
X158154447Y-104055142D01*
X158142031Y-104062583D01*
X158128946Y-104068772D01*
X158115317Y-104073649D01*
X158101276Y-104077166D01*
X158086958Y-104079290D01*
X158072500Y-104080000D01*
X157727500Y-104080000D01*
X157713042Y-104079290D01*
X157698724Y-104077166D01*
X157684683Y-104073649D01*
X157671054Y-104068772D01*
X157657969Y-104062583D01*
X157645553Y-104055142D01*
X157633927Y-104046519D01*
X157623202Y-104036798D01*
X157613481Y-104026073D01*
X157604858Y-104014447D01*
X157597417Y-104002031D01*
X157591228Y-103988946D01*
X157586351Y-103975317D01*
X157582834Y-103961276D01*
X157580710Y-103946958D01*
X157580000Y-103932500D01*
X157580000Y-103637500D01*
X157580710Y-103623042D01*
X157582834Y-103608724D01*
X157586351Y-103594683D01*
X157591228Y-103581054D01*
X157597417Y-103567969D01*
X157604858Y-103555553D01*
X157613481Y-103543927D01*
X157623202Y-103533202D01*
X157633927Y-103523481D01*
X157645553Y-103514858D01*
X157657969Y-103507417D01*
X157671054Y-103501228D01*
X157684683Y-103496351D01*
X157698724Y-103492834D01*
X157713042Y-103490710D01*
X157727500Y-103490000D01*
X158072500Y-103490000D01*
X158086958Y-103490710D01*
G37*
G36*
X158086958Y-102520710D02*
G01*
X158101276Y-102522834D01*
X158115317Y-102526351D01*
X158128946Y-102531228D01*
X158142031Y-102537417D01*
X158154447Y-102544858D01*
X158166073Y-102553481D01*
X158176798Y-102563202D01*
X158186519Y-102573927D01*
X158195142Y-102585553D01*
X158202583Y-102597969D01*
X158208772Y-102611054D01*
X158213649Y-102624683D01*
X158217166Y-102638724D01*
X158219290Y-102653042D01*
X158220000Y-102667500D01*
X158220000Y-102962500D01*
X158219290Y-102976958D01*
X158217166Y-102991276D01*
X158213649Y-103005317D01*
X158208772Y-103018946D01*
X158202583Y-103032031D01*
X158195142Y-103044447D01*
X158186519Y-103056073D01*
X158176798Y-103066798D01*
X158166073Y-103076519D01*
X158154447Y-103085142D01*
X158142031Y-103092583D01*
X158128946Y-103098772D01*
X158115317Y-103103649D01*
X158101276Y-103107166D01*
X158086958Y-103109290D01*
X158072500Y-103110000D01*
X157727500Y-103110000D01*
X157713042Y-103109290D01*
X157698724Y-103107166D01*
X157684683Y-103103649D01*
X157671054Y-103098772D01*
X157657969Y-103092583D01*
X157645553Y-103085142D01*
X157633927Y-103076519D01*
X157623202Y-103066798D01*
X157613481Y-103056073D01*
X157604858Y-103044447D01*
X157597417Y-103032031D01*
X157591228Y-103018946D01*
X157586351Y-103005317D01*
X157582834Y-102991276D01*
X157580710Y-102976958D01*
X157580000Y-102962500D01*
X157580000Y-102667500D01*
X157580710Y-102653042D01*
X157582834Y-102638724D01*
X157586351Y-102624683D01*
X157591228Y-102611054D01*
X157597417Y-102597969D01*
X157604858Y-102585553D01*
X157613481Y-102573927D01*
X157623202Y-102563202D01*
X157633927Y-102553481D01*
X157645553Y-102544858D01*
X157657969Y-102537417D01*
X157671054Y-102531228D01*
X157684683Y-102526351D01*
X157698724Y-102522834D01*
X157713042Y-102520710D01*
X157727500Y-102520000D01*
X158072500Y-102520000D01*
X158086958Y-102520710D01*
G37*
G36*
X174576958Y-98080710D02*
G01*
X174591276Y-98082834D01*
X174605317Y-98086351D01*
X174618946Y-98091228D01*
X174632031Y-98097417D01*
X174644447Y-98104858D01*
X174656073Y-98113481D01*
X174666798Y-98123202D01*
X174676519Y-98133927D01*
X174685142Y-98145553D01*
X174692583Y-98157969D01*
X174698772Y-98171054D01*
X174703649Y-98184683D01*
X174707166Y-98198724D01*
X174709290Y-98213042D01*
X174710000Y-98227500D01*
X174710000Y-98572500D01*
X174709290Y-98586958D01*
X174707166Y-98601276D01*
X174703649Y-98615317D01*
X174698772Y-98628946D01*
X174692583Y-98642031D01*
X174685142Y-98654447D01*
X174676519Y-98666073D01*
X174666798Y-98676798D01*
X174656073Y-98686519D01*
X174644447Y-98695142D01*
X174632031Y-98702583D01*
X174618946Y-98708772D01*
X174605317Y-98713649D01*
X174591276Y-98717166D01*
X174576958Y-98719290D01*
X174562500Y-98720000D01*
X174267500Y-98720000D01*
X174253042Y-98719290D01*
X174238724Y-98717166D01*
X174224683Y-98713649D01*
X174211054Y-98708772D01*
X174197969Y-98702583D01*
X174185553Y-98695142D01*
X174173927Y-98686519D01*
X174163202Y-98676798D01*
X174153481Y-98666073D01*
X174144858Y-98654447D01*
X174137417Y-98642031D01*
X174131228Y-98628946D01*
X174126351Y-98615317D01*
X174122834Y-98601276D01*
X174120710Y-98586958D01*
X174120000Y-98572500D01*
X174120000Y-98227500D01*
X174120710Y-98213042D01*
X174122834Y-98198724D01*
X174126351Y-98184683D01*
X174131228Y-98171054D01*
X174137417Y-98157969D01*
X174144858Y-98145553D01*
X174153481Y-98133927D01*
X174163202Y-98123202D01*
X174173927Y-98113481D01*
X174185553Y-98104858D01*
X174197969Y-98097417D01*
X174211054Y-98091228D01*
X174224683Y-98086351D01*
X174238724Y-98082834D01*
X174253042Y-98080710D01*
X174267500Y-98080000D01*
X174562500Y-98080000D01*
X174576958Y-98080710D01*
G37*
G36*
X175546958Y-98080710D02*
G01*
X175561276Y-98082834D01*
X175575317Y-98086351D01*
X175588946Y-98091228D01*
X175602031Y-98097417D01*
X175614447Y-98104858D01*
X175626073Y-98113481D01*
X175636798Y-98123202D01*
X175646519Y-98133927D01*
X175655142Y-98145553D01*
X175662583Y-98157969D01*
X175668772Y-98171054D01*
X175673649Y-98184683D01*
X175677166Y-98198724D01*
X175679290Y-98213042D01*
X175680000Y-98227500D01*
X175680000Y-98572500D01*
X175679290Y-98586958D01*
X175677166Y-98601276D01*
X175673649Y-98615317D01*
X175668772Y-98628946D01*
X175662583Y-98642031D01*
X175655142Y-98654447D01*
X175646519Y-98666073D01*
X175636798Y-98676798D01*
X175626073Y-98686519D01*
X175614447Y-98695142D01*
X175602031Y-98702583D01*
X175588946Y-98708772D01*
X175575317Y-98713649D01*
X175561276Y-98717166D01*
X175546958Y-98719290D01*
X175532500Y-98720000D01*
X175237500Y-98720000D01*
X175223042Y-98719290D01*
X175208724Y-98717166D01*
X175194683Y-98713649D01*
X175181054Y-98708772D01*
X175167969Y-98702583D01*
X175155553Y-98695142D01*
X175143927Y-98686519D01*
X175133202Y-98676798D01*
X175123481Y-98666073D01*
X175114858Y-98654447D01*
X175107417Y-98642031D01*
X175101228Y-98628946D01*
X175096351Y-98615317D01*
X175092834Y-98601276D01*
X175090710Y-98586958D01*
X175090000Y-98572500D01*
X175090000Y-98227500D01*
X175090710Y-98213042D01*
X175092834Y-98198724D01*
X175096351Y-98184683D01*
X175101228Y-98171054D01*
X175107417Y-98157969D01*
X175114858Y-98145553D01*
X175123481Y-98133927D01*
X175133202Y-98123202D01*
X175143927Y-98113481D01*
X175155553Y-98104858D01*
X175167969Y-98097417D01*
X175181054Y-98091228D01*
X175194683Y-98086351D01*
X175208724Y-98082834D01*
X175223042Y-98080710D01*
X175237500Y-98080000D01*
X175532500Y-98080000D01*
X175546958Y-98080710D01*
G37*
G36*
X173286958Y-103490710D02*
G01*
X173301276Y-103492834D01*
X173315317Y-103496351D01*
X173328946Y-103501228D01*
X173342031Y-103507417D01*
X173354447Y-103514858D01*
X173366073Y-103523481D01*
X173376798Y-103533202D01*
X173386519Y-103543927D01*
X173395142Y-103555553D01*
X173402583Y-103567969D01*
X173408772Y-103581054D01*
X173413649Y-103594683D01*
X173417166Y-103608724D01*
X173419290Y-103623042D01*
X173420000Y-103637500D01*
X173420000Y-103932500D01*
X173419290Y-103946958D01*
X173417166Y-103961276D01*
X173413649Y-103975317D01*
X173408772Y-103988946D01*
X173402583Y-104002031D01*
X173395142Y-104014447D01*
X173386519Y-104026073D01*
X173376798Y-104036798D01*
X173366073Y-104046519D01*
X173354447Y-104055142D01*
X173342031Y-104062583D01*
X173328946Y-104068772D01*
X173315317Y-104073649D01*
X173301276Y-104077166D01*
X173286958Y-104079290D01*
X173272500Y-104080000D01*
X172927500Y-104080000D01*
X172913042Y-104079290D01*
X172898724Y-104077166D01*
X172884683Y-104073649D01*
X172871054Y-104068772D01*
X172857969Y-104062583D01*
X172845553Y-104055142D01*
X172833927Y-104046519D01*
X172823202Y-104036798D01*
X172813481Y-104026073D01*
X172804858Y-104014447D01*
X172797417Y-104002031D01*
X172791228Y-103988946D01*
X172786351Y-103975317D01*
X172782834Y-103961276D01*
X172780710Y-103946958D01*
X172780000Y-103932500D01*
X172780000Y-103637500D01*
X172780710Y-103623042D01*
X172782834Y-103608724D01*
X172786351Y-103594683D01*
X172791228Y-103581054D01*
X172797417Y-103567969D01*
X172804858Y-103555553D01*
X172813481Y-103543927D01*
X172823202Y-103533202D01*
X172833927Y-103523481D01*
X172845553Y-103514858D01*
X172857969Y-103507417D01*
X172871054Y-103501228D01*
X172884683Y-103496351D01*
X172898724Y-103492834D01*
X172913042Y-103490710D01*
X172927500Y-103490000D01*
X173272500Y-103490000D01*
X173286958Y-103490710D01*
G37*
G36*
X173286958Y-102520710D02*
G01*
X173301276Y-102522834D01*
X173315317Y-102526351D01*
X173328946Y-102531228D01*
X173342031Y-102537417D01*
X173354447Y-102544858D01*
X173366073Y-102553481D01*
X173376798Y-102563202D01*
X173386519Y-102573927D01*
X173395142Y-102585553D01*
X173402583Y-102597969D01*
X173408772Y-102611054D01*
X173413649Y-102624683D01*
X173417166Y-102638724D01*
X173419290Y-102653042D01*
X173420000Y-102667500D01*
X173420000Y-102962500D01*
X173419290Y-102976958D01*
X173417166Y-102991276D01*
X173413649Y-103005317D01*
X173408772Y-103018946D01*
X173402583Y-103032031D01*
X173395142Y-103044447D01*
X173386519Y-103056073D01*
X173376798Y-103066798D01*
X173366073Y-103076519D01*
X173354447Y-103085142D01*
X173342031Y-103092583D01*
X173328946Y-103098772D01*
X173315317Y-103103649D01*
X173301276Y-103107166D01*
X173286958Y-103109290D01*
X173272500Y-103110000D01*
X172927500Y-103110000D01*
X172913042Y-103109290D01*
X172898724Y-103107166D01*
X172884683Y-103103649D01*
X172871054Y-103098772D01*
X172857969Y-103092583D01*
X172845553Y-103085142D01*
X172833927Y-103076519D01*
X172823202Y-103066798D01*
X172813481Y-103056073D01*
X172804858Y-103044447D01*
X172797417Y-103032031D01*
X172791228Y-103018946D01*
X172786351Y-103005317D01*
X172782834Y-102991276D01*
X172780710Y-102976958D01*
X172780000Y-102962500D01*
X172780000Y-102667500D01*
X172780710Y-102653042D01*
X172782834Y-102638724D01*
X172786351Y-102624683D01*
X172791228Y-102611054D01*
X172797417Y-102597969D01*
X172804858Y-102585553D01*
X172813481Y-102573927D01*
X172823202Y-102563202D01*
X172833927Y-102553481D01*
X172845553Y-102544858D01*
X172857969Y-102537417D01*
X172871054Y-102531228D01*
X172884683Y-102526351D01*
X172898724Y-102522834D01*
X172913042Y-102520710D01*
X172927500Y-102520000D01*
X173272500Y-102520000D01*
X173286958Y-102520710D01*
G37*
G36*
X172546958Y-98080710D02*
G01*
X172561276Y-98082834D01*
X172575317Y-98086351D01*
X172588946Y-98091228D01*
X172602031Y-98097417D01*
X172614447Y-98104858D01*
X172626073Y-98113481D01*
X172636798Y-98123202D01*
X172646519Y-98133927D01*
X172655142Y-98145553D01*
X172662583Y-98157969D01*
X172668772Y-98171054D01*
X172673649Y-98184683D01*
X172677166Y-98198724D01*
X172679290Y-98213042D01*
X172680000Y-98227500D01*
X172680000Y-98572500D01*
X172679290Y-98586958D01*
X172677166Y-98601276D01*
X172673649Y-98615317D01*
X172668772Y-98628946D01*
X172662583Y-98642031D01*
X172655142Y-98654447D01*
X172646519Y-98666073D01*
X172636798Y-98676798D01*
X172626073Y-98686519D01*
X172614447Y-98695142D01*
X172602031Y-98702583D01*
X172588946Y-98708772D01*
X172575317Y-98713649D01*
X172561276Y-98717166D01*
X172546958Y-98719290D01*
X172532500Y-98720000D01*
X172237500Y-98720000D01*
X172223042Y-98719290D01*
X172208724Y-98717166D01*
X172194683Y-98713649D01*
X172181054Y-98708772D01*
X172167969Y-98702583D01*
X172155553Y-98695142D01*
X172143927Y-98686519D01*
X172133202Y-98676798D01*
X172123481Y-98666073D01*
X172114858Y-98654447D01*
X172107417Y-98642031D01*
X172101228Y-98628946D01*
X172096351Y-98615317D01*
X172092834Y-98601276D01*
X172090710Y-98586958D01*
X172090000Y-98572500D01*
X172090000Y-98227500D01*
X172090710Y-98213042D01*
X172092834Y-98198724D01*
X172096351Y-98184683D01*
X172101228Y-98171054D01*
X172107417Y-98157969D01*
X172114858Y-98145553D01*
X172123481Y-98133927D01*
X172133202Y-98123202D01*
X172143927Y-98113481D01*
X172155553Y-98104858D01*
X172167969Y-98097417D01*
X172181054Y-98091228D01*
X172194683Y-98086351D01*
X172208724Y-98082834D01*
X172223042Y-98080710D01*
X172237500Y-98080000D01*
X172532500Y-98080000D01*
X172546958Y-98080710D01*
G37*
G36*
X171576958Y-98080710D02*
G01*
X171591276Y-98082834D01*
X171605317Y-98086351D01*
X171618946Y-98091228D01*
X171632031Y-98097417D01*
X171644447Y-98104858D01*
X171656073Y-98113481D01*
X171666798Y-98123202D01*
X171676519Y-98133927D01*
X171685142Y-98145553D01*
X171692583Y-98157969D01*
X171698772Y-98171054D01*
X171703649Y-98184683D01*
X171707166Y-98198724D01*
X171709290Y-98213042D01*
X171710000Y-98227500D01*
X171710000Y-98572500D01*
X171709290Y-98586958D01*
X171707166Y-98601276D01*
X171703649Y-98615317D01*
X171698772Y-98628946D01*
X171692583Y-98642031D01*
X171685142Y-98654447D01*
X171676519Y-98666073D01*
X171666798Y-98676798D01*
X171656073Y-98686519D01*
X171644447Y-98695142D01*
X171632031Y-98702583D01*
X171618946Y-98708772D01*
X171605317Y-98713649D01*
X171591276Y-98717166D01*
X171576958Y-98719290D01*
X171562500Y-98720000D01*
X171267500Y-98720000D01*
X171253042Y-98719290D01*
X171238724Y-98717166D01*
X171224683Y-98713649D01*
X171211054Y-98708772D01*
X171197969Y-98702583D01*
X171185553Y-98695142D01*
X171173927Y-98686519D01*
X171163202Y-98676798D01*
X171153481Y-98666073D01*
X171144858Y-98654447D01*
X171137417Y-98642031D01*
X171131228Y-98628946D01*
X171126351Y-98615317D01*
X171122834Y-98601276D01*
X171120710Y-98586958D01*
X171120000Y-98572500D01*
X171120000Y-98227500D01*
X171120710Y-98213042D01*
X171122834Y-98198724D01*
X171126351Y-98184683D01*
X171131228Y-98171054D01*
X171137417Y-98157969D01*
X171144858Y-98145553D01*
X171153481Y-98133927D01*
X171163202Y-98123202D01*
X171173927Y-98113481D01*
X171185553Y-98104858D01*
X171197969Y-98097417D01*
X171211054Y-98091228D01*
X171224683Y-98086351D01*
X171238724Y-98082834D01*
X171253042Y-98080710D01*
X171267500Y-98080000D01*
X171562500Y-98080000D01*
X171576958Y-98080710D01*
G37*
G36*
X167976958Y-98080710D02*
G01*
X167991276Y-98082834D01*
X168005317Y-98086351D01*
X168018946Y-98091228D01*
X168032031Y-98097417D01*
X168044447Y-98104858D01*
X168056073Y-98113481D01*
X168066798Y-98123202D01*
X168076519Y-98133927D01*
X168085142Y-98145553D01*
X168092583Y-98157969D01*
X168098772Y-98171054D01*
X168103649Y-98184683D01*
X168107166Y-98198724D01*
X168109290Y-98213042D01*
X168110000Y-98227500D01*
X168110000Y-98572500D01*
X168109290Y-98586958D01*
X168107166Y-98601276D01*
X168103649Y-98615317D01*
X168098772Y-98628946D01*
X168092583Y-98642031D01*
X168085142Y-98654447D01*
X168076519Y-98666073D01*
X168066798Y-98676798D01*
X168056073Y-98686519D01*
X168044447Y-98695142D01*
X168032031Y-98702583D01*
X168018946Y-98708772D01*
X168005317Y-98713649D01*
X167991276Y-98717166D01*
X167976958Y-98719290D01*
X167962500Y-98720000D01*
X167667500Y-98720000D01*
X167653042Y-98719290D01*
X167638724Y-98717166D01*
X167624683Y-98713649D01*
X167611054Y-98708772D01*
X167597969Y-98702583D01*
X167585553Y-98695142D01*
X167573927Y-98686519D01*
X167563202Y-98676798D01*
X167553481Y-98666073D01*
X167544858Y-98654447D01*
X167537417Y-98642031D01*
X167531228Y-98628946D01*
X167526351Y-98615317D01*
X167522834Y-98601276D01*
X167520710Y-98586958D01*
X167520000Y-98572500D01*
X167520000Y-98227500D01*
X167520710Y-98213042D01*
X167522834Y-98198724D01*
X167526351Y-98184683D01*
X167531228Y-98171054D01*
X167537417Y-98157969D01*
X167544858Y-98145553D01*
X167553481Y-98133927D01*
X167563202Y-98123202D01*
X167573927Y-98113481D01*
X167585553Y-98104858D01*
X167597969Y-98097417D01*
X167611054Y-98091228D01*
X167624683Y-98086351D01*
X167638724Y-98082834D01*
X167653042Y-98080710D01*
X167667500Y-98080000D01*
X167962500Y-98080000D01*
X167976958Y-98080710D01*
G37*
G36*
X168946958Y-98080710D02*
G01*
X168961276Y-98082834D01*
X168975317Y-98086351D01*
X168988946Y-98091228D01*
X169002031Y-98097417D01*
X169014447Y-98104858D01*
X169026073Y-98113481D01*
X169036798Y-98123202D01*
X169046519Y-98133927D01*
X169055142Y-98145553D01*
X169062583Y-98157969D01*
X169068772Y-98171054D01*
X169073649Y-98184683D01*
X169077166Y-98198724D01*
X169079290Y-98213042D01*
X169080000Y-98227500D01*
X169080000Y-98572500D01*
X169079290Y-98586958D01*
X169077166Y-98601276D01*
X169073649Y-98615317D01*
X169068772Y-98628946D01*
X169062583Y-98642031D01*
X169055142Y-98654447D01*
X169046519Y-98666073D01*
X169036798Y-98676798D01*
X169026073Y-98686519D01*
X169014447Y-98695142D01*
X169002031Y-98702583D01*
X168988946Y-98708772D01*
X168975317Y-98713649D01*
X168961276Y-98717166D01*
X168946958Y-98719290D01*
X168932500Y-98720000D01*
X168637500Y-98720000D01*
X168623042Y-98719290D01*
X168608724Y-98717166D01*
X168594683Y-98713649D01*
X168581054Y-98708772D01*
X168567969Y-98702583D01*
X168555553Y-98695142D01*
X168543927Y-98686519D01*
X168533202Y-98676798D01*
X168523481Y-98666073D01*
X168514858Y-98654447D01*
X168507417Y-98642031D01*
X168501228Y-98628946D01*
X168496351Y-98615317D01*
X168492834Y-98601276D01*
X168490710Y-98586958D01*
X168490000Y-98572500D01*
X168490000Y-98227500D01*
X168490710Y-98213042D01*
X168492834Y-98198724D01*
X168496351Y-98184683D01*
X168501228Y-98171054D01*
X168507417Y-98157969D01*
X168514858Y-98145553D01*
X168523481Y-98133927D01*
X168533202Y-98123202D01*
X168543927Y-98113481D01*
X168555553Y-98104858D01*
X168567969Y-98097417D01*
X168581054Y-98091228D01*
X168594683Y-98086351D01*
X168608724Y-98082834D01*
X168623042Y-98080710D01*
X168637500Y-98080000D01*
X168932500Y-98080000D01*
X168946958Y-98080710D01*
G37*
G36*
X165686958Y-103490710D02*
G01*
X165701276Y-103492834D01*
X165715317Y-103496351D01*
X165728946Y-103501228D01*
X165742031Y-103507417D01*
X165754447Y-103514858D01*
X165766073Y-103523481D01*
X165776798Y-103533202D01*
X165786519Y-103543927D01*
X165795142Y-103555553D01*
X165802583Y-103567969D01*
X165808772Y-103581054D01*
X165813649Y-103594683D01*
X165817166Y-103608724D01*
X165819290Y-103623042D01*
X165820000Y-103637500D01*
X165820000Y-103932500D01*
X165819290Y-103946958D01*
X165817166Y-103961276D01*
X165813649Y-103975317D01*
X165808772Y-103988946D01*
X165802583Y-104002031D01*
X165795142Y-104014447D01*
X165786519Y-104026073D01*
X165776798Y-104036798D01*
X165766073Y-104046519D01*
X165754447Y-104055142D01*
X165742031Y-104062583D01*
X165728946Y-104068772D01*
X165715317Y-104073649D01*
X165701276Y-104077166D01*
X165686958Y-104079290D01*
X165672500Y-104080000D01*
X165327500Y-104080000D01*
X165313042Y-104079290D01*
X165298724Y-104077166D01*
X165284683Y-104073649D01*
X165271054Y-104068772D01*
X165257969Y-104062583D01*
X165245553Y-104055142D01*
X165233927Y-104046519D01*
X165223202Y-104036798D01*
X165213481Y-104026073D01*
X165204858Y-104014447D01*
X165197417Y-104002031D01*
X165191228Y-103988946D01*
X165186351Y-103975317D01*
X165182834Y-103961276D01*
X165180710Y-103946958D01*
X165180000Y-103932500D01*
X165180000Y-103637500D01*
X165180710Y-103623042D01*
X165182834Y-103608724D01*
X165186351Y-103594683D01*
X165191228Y-103581054D01*
X165197417Y-103567969D01*
X165204858Y-103555553D01*
X165213481Y-103543927D01*
X165223202Y-103533202D01*
X165233927Y-103523481D01*
X165245553Y-103514858D01*
X165257969Y-103507417D01*
X165271054Y-103501228D01*
X165284683Y-103496351D01*
X165298724Y-103492834D01*
X165313042Y-103490710D01*
X165327500Y-103490000D01*
X165672500Y-103490000D01*
X165686958Y-103490710D01*
G37*
G36*
X165686958Y-102520710D02*
G01*
X165701276Y-102522834D01*
X165715317Y-102526351D01*
X165728946Y-102531228D01*
X165742031Y-102537417D01*
X165754447Y-102544858D01*
X165766073Y-102553481D01*
X165776798Y-102563202D01*
X165786519Y-102573927D01*
X165795142Y-102585553D01*
X165802583Y-102597969D01*
X165808772Y-102611054D01*
X165813649Y-102624683D01*
X165817166Y-102638724D01*
X165819290Y-102653042D01*
X165820000Y-102667500D01*
X165820000Y-102962500D01*
X165819290Y-102976958D01*
X165817166Y-102991276D01*
X165813649Y-103005317D01*
X165808772Y-103018946D01*
X165802583Y-103032031D01*
X165795142Y-103044447D01*
X165786519Y-103056073D01*
X165776798Y-103066798D01*
X165766073Y-103076519D01*
X165754447Y-103085142D01*
X165742031Y-103092583D01*
X165728946Y-103098772D01*
X165715317Y-103103649D01*
X165701276Y-103107166D01*
X165686958Y-103109290D01*
X165672500Y-103110000D01*
X165327500Y-103110000D01*
X165313042Y-103109290D01*
X165298724Y-103107166D01*
X165284683Y-103103649D01*
X165271054Y-103098772D01*
X165257969Y-103092583D01*
X165245553Y-103085142D01*
X165233927Y-103076519D01*
X165223202Y-103066798D01*
X165213481Y-103056073D01*
X165204858Y-103044447D01*
X165197417Y-103032031D01*
X165191228Y-103018946D01*
X165186351Y-103005317D01*
X165182834Y-102991276D01*
X165180710Y-102976958D01*
X165180000Y-102962500D01*
X165180000Y-102667500D01*
X165180710Y-102653042D01*
X165182834Y-102638724D01*
X165186351Y-102624683D01*
X165191228Y-102611054D01*
X165197417Y-102597969D01*
X165204858Y-102585553D01*
X165213481Y-102573927D01*
X165223202Y-102563202D01*
X165233927Y-102553481D01*
X165245553Y-102544858D01*
X165257969Y-102537417D01*
X165271054Y-102531228D01*
X165284683Y-102526351D01*
X165298724Y-102522834D01*
X165313042Y-102520710D01*
X165327500Y-102520000D01*
X165672500Y-102520000D01*
X165686958Y-102520710D01*
G37*
G36*
X164946958Y-98080710D02*
G01*
X164961276Y-98082834D01*
X164975317Y-98086351D01*
X164988946Y-98091228D01*
X165002031Y-98097417D01*
X165014447Y-98104858D01*
X165026073Y-98113481D01*
X165036798Y-98123202D01*
X165046519Y-98133927D01*
X165055142Y-98145553D01*
X165062583Y-98157969D01*
X165068772Y-98171054D01*
X165073649Y-98184683D01*
X165077166Y-98198724D01*
X165079290Y-98213042D01*
X165080000Y-98227500D01*
X165080000Y-98572500D01*
X165079290Y-98586958D01*
X165077166Y-98601276D01*
X165073649Y-98615317D01*
X165068772Y-98628946D01*
X165062583Y-98642031D01*
X165055142Y-98654447D01*
X165046519Y-98666073D01*
X165036798Y-98676798D01*
X165026073Y-98686519D01*
X165014447Y-98695142D01*
X165002031Y-98702583D01*
X164988946Y-98708772D01*
X164975317Y-98713649D01*
X164961276Y-98717166D01*
X164946958Y-98719290D01*
X164932500Y-98720000D01*
X164637500Y-98720000D01*
X164623042Y-98719290D01*
X164608724Y-98717166D01*
X164594683Y-98713649D01*
X164581054Y-98708772D01*
X164567969Y-98702583D01*
X164555553Y-98695142D01*
X164543927Y-98686519D01*
X164533202Y-98676798D01*
X164523481Y-98666073D01*
X164514858Y-98654447D01*
X164507417Y-98642031D01*
X164501228Y-98628946D01*
X164496351Y-98615317D01*
X164492834Y-98601276D01*
X164490710Y-98586958D01*
X164490000Y-98572500D01*
X164490000Y-98227500D01*
X164490710Y-98213042D01*
X164492834Y-98198724D01*
X164496351Y-98184683D01*
X164501228Y-98171054D01*
X164507417Y-98157969D01*
X164514858Y-98145553D01*
X164523481Y-98133927D01*
X164533202Y-98123202D01*
X164543927Y-98113481D01*
X164555553Y-98104858D01*
X164567969Y-98097417D01*
X164581054Y-98091228D01*
X164594683Y-98086351D01*
X164608724Y-98082834D01*
X164623042Y-98080710D01*
X164637500Y-98080000D01*
X164932500Y-98080000D01*
X164946958Y-98080710D01*
G37*
G36*
X163976958Y-98080710D02*
G01*
X163991276Y-98082834D01*
X164005317Y-98086351D01*
X164018946Y-98091228D01*
X164032031Y-98097417D01*
X164044447Y-98104858D01*
X164056073Y-98113481D01*
X164066798Y-98123202D01*
X164076519Y-98133927D01*
X164085142Y-98145553D01*
X164092583Y-98157969D01*
X164098772Y-98171054D01*
X164103649Y-98184683D01*
X164107166Y-98198724D01*
X164109290Y-98213042D01*
X164110000Y-98227500D01*
X164110000Y-98572500D01*
X164109290Y-98586958D01*
X164107166Y-98601276D01*
X164103649Y-98615317D01*
X164098772Y-98628946D01*
X164092583Y-98642031D01*
X164085142Y-98654447D01*
X164076519Y-98666073D01*
X164066798Y-98676798D01*
X164056073Y-98686519D01*
X164044447Y-98695142D01*
X164032031Y-98702583D01*
X164018946Y-98708772D01*
X164005317Y-98713649D01*
X163991276Y-98717166D01*
X163976958Y-98719290D01*
X163962500Y-98720000D01*
X163667500Y-98720000D01*
X163653042Y-98719290D01*
X163638724Y-98717166D01*
X163624683Y-98713649D01*
X163611054Y-98708772D01*
X163597969Y-98702583D01*
X163585553Y-98695142D01*
X163573927Y-98686519D01*
X163563202Y-98676798D01*
X163553481Y-98666073D01*
X163544858Y-98654447D01*
X163537417Y-98642031D01*
X163531228Y-98628946D01*
X163526351Y-98615317D01*
X163522834Y-98601276D01*
X163520710Y-98586958D01*
X163520000Y-98572500D01*
X163520000Y-98227500D01*
X163520710Y-98213042D01*
X163522834Y-98198724D01*
X163526351Y-98184683D01*
X163531228Y-98171054D01*
X163537417Y-98157969D01*
X163544858Y-98145553D01*
X163553481Y-98133927D01*
X163563202Y-98123202D01*
X163573927Y-98113481D01*
X163585553Y-98104858D01*
X163597969Y-98097417D01*
X163611054Y-98091228D01*
X163624683Y-98086351D01*
X163638724Y-98082834D01*
X163653042Y-98080710D01*
X163667500Y-98080000D01*
X163962500Y-98080000D01*
X163976958Y-98080710D01*
G37*
G36*
X160346958Y-98080710D02*
G01*
X160361276Y-98082834D01*
X160375317Y-98086351D01*
X160388946Y-98091228D01*
X160402031Y-98097417D01*
X160414447Y-98104858D01*
X160426073Y-98113481D01*
X160436798Y-98123202D01*
X160446519Y-98133927D01*
X160455142Y-98145553D01*
X160462583Y-98157969D01*
X160468772Y-98171054D01*
X160473649Y-98184683D01*
X160477166Y-98198724D01*
X160479290Y-98213042D01*
X160480000Y-98227500D01*
X160480000Y-98572500D01*
X160479290Y-98586958D01*
X160477166Y-98601276D01*
X160473649Y-98615317D01*
X160468772Y-98628946D01*
X160462583Y-98642031D01*
X160455142Y-98654447D01*
X160446519Y-98666073D01*
X160436798Y-98676798D01*
X160426073Y-98686519D01*
X160414447Y-98695142D01*
X160402031Y-98702583D01*
X160388946Y-98708772D01*
X160375317Y-98713649D01*
X160361276Y-98717166D01*
X160346958Y-98719290D01*
X160332500Y-98720000D01*
X160037500Y-98720000D01*
X160023042Y-98719290D01*
X160008724Y-98717166D01*
X159994683Y-98713649D01*
X159981054Y-98708772D01*
X159967969Y-98702583D01*
X159955553Y-98695142D01*
X159943927Y-98686519D01*
X159933202Y-98676798D01*
X159923481Y-98666073D01*
X159914858Y-98654447D01*
X159907417Y-98642031D01*
X159901228Y-98628946D01*
X159896351Y-98615317D01*
X159892834Y-98601276D01*
X159890710Y-98586958D01*
X159890000Y-98572500D01*
X159890000Y-98227500D01*
X159890710Y-98213042D01*
X159892834Y-98198724D01*
X159896351Y-98184683D01*
X159901228Y-98171054D01*
X159907417Y-98157969D01*
X159914858Y-98145553D01*
X159923481Y-98133927D01*
X159933202Y-98123202D01*
X159943927Y-98113481D01*
X159955553Y-98104858D01*
X159967969Y-98097417D01*
X159981054Y-98091228D01*
X159994683Y-98086351D01*
X160008724Y-98082834D01*
X160023042Y-98080710D01*
X160037500Y-98080000D01*
X160332500Y-98080000D01*
X160346958Y-98080710D01*
G37*
G36*
X159376958Y-98080710D02*
G01*
X159391276Y-98082834D01*
X159405317Y-98086351D01*
X159418946Y-98091228D01*
X159432031Y-98097417D01*
X159444447Y-98104858D01*
X159456073Y-98113481D01*
X159466798Y-98123202D01*
X159476519Y-98133927D01*
X159485142Y-98145553D01*
X159492583Y-98157969D01*
X159498772Y-98171054D01*
X159503649Y-98184683D01*
X159507166Y-98198724D01*
X159509290Y-98213042D01*
X159510000Y-98227500D01*
X159510000Y-98572500D01*
X159509290Y-98586958D01*
X159507166Y-98601276D01*
X159503649Y-98615317D01*
X159498772Y-98628946D01*
X159492583Y-98642031D01*
X159485142Y-98654447D01*
X159476519Y-98666073D01*
X159466798Y-98676798D01*
X159456073Y-98686519D01*
X159444447Y-98695142D01*
X159432031Y-98702583D01*
X159418946Y-98708772D01*
X159405317Y-98713649D01*
X159391276Y-98717166D01*
X159376958Y-98719290D01*
X159362500Y-98720000D01*
X159067500Y-98720000D01*
X159053042Y-98719290D01*
X159038724Y-98717166D01*
X159024683Y-98713649D01*
X159011054Y-98708772D01*
X158997969Y-98702583D01*
X158985553Y-98695142D01*
X158973927Y-98686519D01*
X158963202Y-98676798D01*
X158953481Y-98666073D01*
X158944858Y-98654447D01*
X158937417Y-98642031D01*
X158931228Y-98628946D01*
X158926351Y-98615317D01*
X158922834Y-98601276D01*
X158920710Y-98586958D01*
X158920000Y-98572500D01*
X158920000Y-98227500D01*
X158920710Y-98213042D01*
X158922834Y-98198724D01*
X158926351Y-98184683D01*
X158931228Y-98171054D01*
X158937417Y-98157969D01*
X158944858Y-98145553D01*
X158953481Y-98133927D01*
X158963202Y-98123202D01*
X158973927Y-98113481D01*
X158985553Y-98104858D01*
X158997969Y-98097417D01*
X159011054Y-98091228D01*
X159024683Y-98086351D01*
X159038724Y-98082834D01*
X159053042Y-98080710D01*
X159067500Y-98080000D01*
X159362500Y-98080000D01*
X159376958Y-98080710D01*
G37*
G36*
X157346958Y-98080710D02*
G01*
X157361276Y-98082834D01*
X157375317Y-98086351D01*
X157388946Y-98091228D01*
X157402031Y-98097417D01*
X157414447Y-98104858D01*
X157426073Y-98113481D01*
X157436798Y-98123202D01*
X157446519Y-98133927D01*
X157455142Y-98145553D01*
X157462583Y-98157969D01*
X157468772Y-98171054D01*
X157473649Y-98184683D01*
X157477166Y-98198724D01*
X157479290Y-98213042D01*
X157480000Y-98227500D01*
X157480000Y-98572500D01*
X157479290Y-98586958D01*
X157477166Y-98601276D01*
X157473649Y-98615317D01*
X157468772Y-98628946D01*
X157462583Y-98642031D01*
X157455142Y-98654447D01*
X157446519Y-98666073D01*
X157436798Y-98676798D01*
X157426073Y-98686519D01*
X157414447Y-98695142D01*
X157402031Y-98702583D01*
X157388946Y-98708772D01*
X157375317Y-98713649D01*
X157361276Y-98717166D01*
X157346958Y-98719290D01*
X157332500Y-98720000D01*
X157037500Y-98720000D01*
X157023042Y-98719290D01*
X157008724Y-98717166D01*
X156994683Y-98713649D01*
X156981054Y-98708772D01*
X156967969Y-98702583D01*
X156955553Y-98695142D01*
X156943927Y-98686519D01*
X156933202Y-98676798D01*
X156923481Y-98666073D01*
X156914858Y-98654447D01*
X156907417Y-98642031D01*
X156901228Y-98628946D01*
X156896351Y-98615317D01*
X156892834Y-98601276D01*
X156890710Y-98586958D01*
X156890000Y-98572500D01*
X156890000Y-98227500D01*
X156890710Y-98213042D01*
X156892834Y-98198724D01*
X156896351Y-98184683D01*
X156901228Y-98171054D01*
X156907417Y-98157969D01*
X156914858Y-98145553D01*
X156923481Y-98133927D01*
X156933202Y-98123202D01*
X156943927Y-98113481D01*
X156955553Y-98104858D01*
X156967969Y-98097417D01*
X156981054Y-98091228D01*
X156994683Y-98086351D01*
X157008724Y-98082834D01*
X157023042Y-98080710D01*
X157037500Y-98080000D01*
X157332500Y-98080000D01*
X157346958Y-98080710D01*
G37*
G36*
X156376958Y-98080710D02*
G01*
X156391276Y-98082834D01*
X156405317Y-98086351D01*
X156418946Y-98091228D01*
X156432031Y-98097417D01*
X156444447Y-98104858D01*
X156456073Y-98113481D01*
X156466798Y-98123202D01*
X156476519Y-98133927D01*
X156485142Y-98145553D01*
X156492583Y-98157969D01*
X156498772Y-98171054D01*
X156503649Y-98184683D01*
X156507166Y-98198724D01*
X156509290Y-98213042D01*
X156510000Y-98227500D01*
X156510000Y-98572500D01*
X156509290Y-98586958D01*
X156507166Y-98601276D01*
X156503649Y-98615317D01*
X156498772Y-98628946D01*
X156492583Y-98642031D01*
X156485142Y-98654447D01*
X156476519Y-98666073D01*
X156466798Y-98676798D01*
X156456073Y-98686519D01*
X156444447Y-98695142D01*
X156432031Y-98702583D01*
X156418946Y-98708772D01*
X156405317Y-98713649D01*
X156391276Y-98717166D01*
X156376958Y-98719290D01*
X156362500Y-98720000D01*
X156067500Y-98720000D01*
X156053042Y-98719290D01*
X156038724Y-98717166D01*
X156024683Y-98713649D01*
X156011054Y-98708772D01*
X155997969Y-98702583D01*
X155985553Y-98695142D01*
X155973927Y-98686519D01*
X155963202Y-98676798D01*
X155953481Y-98666073D01*
X155944858Y-98654447D01*
X155937417Y-98642031D01*
X155931228Y-98628946D01*
X155926351Y-98615317D01*
X155922834Y-98601276D01*
X155920710Y-98586958D01*
X155920000Y-98572500D01*
X155920000Y-98227500D01*
X155920710Y-98213042D01*
X155922834Y-98198724D01*
X155926351Y-98184683D01*
X155931228Y-98171054D01*
X155937417Y-98157969D01*
X155944858Y-98145553D01*
X155953481Y-98133927D01*
X155963202Y-98123202D01*
X155973927Y-98113481D01*
X155985553Y-98104858D01*
X155997969Y-98097417D01*
X156011054Y-98091228D01*
X156024683Y-98086351D01*
X156038724Y-98082834D01*
X156053042Y-98080710D01*
X156067500Y-98080000D01*
X156362500Y-98080000D01*
X156376958Y-98080710D01*
G37*
G36*
X152776958Y-98080710D02*
G01*
X152791276Y-98082834D01*
X152805317Y-98086351D01*
X152818946Y-98091228D01*
X152832031Y-98097417D01*
X152844447Y-98104858D01*
X152856073Y-98113481D01*
X152866798Y-98123202D01*
X152876519Y-98133927D01*
X152885142Y-98145553D01*
X152892583Y-98157969D01*
X152898772Y-98171054D01*
X152903649Y-98184683D01*
X152907166Y-98198724D01*
X152909290Y-98213042D01*
X152910000Y-98227500D01*
X152910000Y-98572500D01*
X152909290Y-98586958D01*
X152907166Y-98601276D01*
X152903649Y-98615317D01*
X152898772Y-98628946D01*
X152892583Y-98642031D01*
X152885142Y-98654447D01*
X152876519Y-98666073D01*
X152866798Y-98676798D01*
X152856073Y-98686519D01*
X152844447Y-98695142D01*
X152832031Y-98702583D01*
X152818946Y-98708772D01*
X152805317Y-98713649D01*
X152791276Y-98717166D01*
X152776958Y-98719290D01*
X152762500Y-98720000D01*
X152467500Y-98720000D01*
X152453042Y-98719290D01*
X152438724Y-98717166D01*
X152424683Y-98713649D01*
X152411054Y-98708772D01*
X152397969Y-98702583D01*
X152385553Y-98695142D01*
X152373927Y-98686519D01*
X152363202Y-98676798D01*
X152353481Y-98666073D01*
X152344858Y-98654447D01*
X152337417Y-98642031D01*
X152331228Y-98628946D01*
X152326351Y-98615317D01*
X152322834Y-98601276D01*
X152320710Y-98586958D01*
X152320000Y-98572500D01*
X152320000Y-98227500D01*
X152320710Y-98213042D01*
X152322834Y-98198724D01*
X152326351Y-98184683D01*
X152331228Y-98171054D01*
X152337417Y-98157969D01*
X152344858Y-98145553D01*
X152353481Y-98133927D01*
X152363202Y-98123202D01*
X152373927Y-98113481D01*
X152385553Y-98104858D01*
X152397969Y-98097417D01*
X152411054Y-98091228D01*
X152424683Y-98086351D01*
X152438724Y-98082834D01*
X152453042Y-98080710D01*
X152467500Y-98080000D01*
X152762500Y-98080000D01*
X152776958Y-98080710D01*
G37*
G36*
X153746958Y-98080710D02*
G01*
X153761276Y-98082834D01*
X153775317Y-98086351D01*
X153788946Y-98091228D01*
X153802031Y-98097417D01*
X153814447Y-98104858D01*
X153826073Y-98113481D01*
X153836798Y-98123202D01*
X153846519Y-98133927D01*
X153855142Y-98145553D01*
X153862583Y-98157969D01*
X153868772Y-98171054D01*
X153873649Y-98184683D01*
X153877166Y-98198724D01*
X153879290Y-98213042D01*
X153880000Y-98227500D01*
X153880000Y-98572500D01*
X153879290Y-98586958D01*
X153877166Y-98601276D01*
X153873649Y-98615317D01*
X153868772Y-98628946D01*
X153862583Y-98642031D01*
X153855142Y-98654447D01*
X153846519Y-98666073D01*
X153836798Y-98676798D01*
X153826073Y-98686519D01*
X153814447Y-98695142D01*
X153802031Y-98702583D01*
X153788946Y-98708772D01*
X153775317Y-98713649D01*
X153761276Y-98717166D01*
X153746958Y-98719290D01*
X153732500Y-98720000D01*
X153437500Y-98720000D01*
X153423042Y-98719290D01*
X153408724Y-98717166D01*
X153394683Y-98713649D01*
X153381054Y-98708772D01*
X153367969Y-98702583D01*
X153355553Y-98695142D01*
X153343927Y-98686519D01*
X153333202Y-98676798D01*
X153323481Y-98666073D01*
X153314858Y-98654447D01*
X153307417Y-98642031D01*
X153301228Y-98628946D01*
X153296351Y-98615317D01*
X153292834Y-98601276D01*
X153290710Y-98586958D01*
X153290000Y-98572500D01*
X153290000Y-98227500D01*
X153290710Y-98213042D01*
X153292834Y-98198724D01*
X153296351Y-98184683D01*
X153301228Y-98171054D01*
X153307417Y-98157969D01*
X153314858Y-98145553D01*
X153323481Y-98133927D01*
X153333202Y-98123202D01*
X153343927Y-98113481D01*
X153355553Y-98104858D01*
X153367969Y-98097417D01*
X153381054Y-98091228D01*
X153394683Y-98086351D01*
X153408724Y-98082834D01*
X153423042Y-98080710D01*
X153437500Y-98080000D01*
X153732500Y-98080000D01*
X153746958Y-98080710D01*
G37*
G36*
X171186958Y-103490710D02*
G01*
X171201276Y-103492834D01*
X171215317Y-103496351D01*
X171228946Y-103501228D01*
X171242031Y-103507417D01*
X171254447Y-103514858D01*
X171266073Y-103523481D01*
X171276798Y-103533202D01*
X171286519Y-103543927D01*
X171295142Y-103555553D01*
X171302583Y-103567969D01*
X171308772Y-103581054D01*
X171313649Y-103594683D01*
X171317166Y-103608724D01*
X171319290Y-103623042D01*
X171320000Y-103637500D01*
X171320000Y-103932500D01*
X171319290Y-103946958D01*
X171317166Y-103961276D01*
X171313649Y-103975317D01*
X171308772Y-103988946D01*
X171302583Y-104002031D01*
X171295142Y-104014447D01*
X171286519Y-104026073D01*
X171276798Y-104036798D01*
X171266073Y-104046519D01*
X171254447Y-104055142D01*
X171242031Y-104062583D01*
X171228946Y-104068772D01*
X171215317Y-104073649D01*
X171201276Y-104077166D01*
X171186958Y-104079290D01*
X171172500Y-104080000D01*
X170827500Y-104080000D01*
X170813042Y-104079290D01*
X170798724Y-104077166D01*
X170784683Y-104073649D01*
X170771054Y-104068772D01*
X170757969Y-104062583D01*
X170745553Y-104055142D01*
X170733927Y-104046519D01*
X170723202Y-104036798D01*
X170713481Y-104026073D01*
X170704858Y-104014447D01*
X170697417Y-104002031D01*
X170691228Y-103988946D01*
X170686351Y-103975317D01*
X170682834Y-103961276D01*
X170680710Y-103946958D01*
X170680000Y-103932500D01*
X170680000Y-103637500D01*
X170680710Y-103623042D01*
X170682834Y-103608724D01*
X170686351Y-103594683D01*
X170691228Y-103581054D01*
X170697417Y-103567969D01*
X170704858Y-103555553D01*
X170713481Y-103543927D01*
X170723202Y-103533202D01*
X170733927Y-103523481D01*
X170745553Y-103514858D01*
X170757969Y-103507417D01*
X170771054Y-103501228D01*
X170784683Y-103496351D01*
X170798724Y-103492834D01*
X170813042Y-103490710D01*
X170827500Y-103490000D01*
X171172500Y-103490000D01*
X171186958Y-103490710D01*
G37*
G36*
X171186958Y-102520710D02*
G01*
X171201276Y-102522834D01*
X171215317Y-102526351D01*
X171228946Y-102531228D01*
X171242031Y-102537417D01*
X171254447Y-102544858D01*
X171266073Y-102553481D01*
X171276798Y-102563202D01*
X171286519Y-102573927D01*
X171295142Y-102585553D01*
X171302583Y-102597969D01*
X171308772Y-102611054D01*
X171313649Y-102624683D01*
X171317166Y-102638724D01*
X171319290Y-102653042D01*
X171320000Y-102667500D01*
X171320000Y-102962500D01*
X171319290Y-102976958D01*
X171317166Y-102991276D01*
X171313649Y-103005317D01*
X171308772Y-103018946D01*
X171302583Y-103032031D01*
X171295142Y-103044447D01*
X171286519Y-103056073D01*
X171276798Y-103066798D01*
X171266073Y-103076519D01*
X171254447Y-103085142D01*
X171242031Y-103092583D01*
X171228946Y-103098772D01*
X171215317Y-103103649D01*
X171201276Y-103107166D01*
X171186958Y-103109290D01*
X171172500Y-103110000D01*
X170827500Y-103110000D01*
X170813042Y-103109290D01*
X170798724Y-103107166D01*
X170784683Y-103103649D01*
X170771054Y-103098772D01*
X170757969Y-103092583D01*
X170745553Y-103085142D01*
X170733927Y-103076519D01*
X170723202Y-103066798D01*
X170713481Y-103056073D01*
X170704858Y-103044447D01*
X170697417Y-103032031D01*
X170691228Y-103018946D01*
X170686351Y-103005317D01*
X170682834Y-102991276D01*
X170680710Y-102976958D01*
X170680000Y-102962500D01*
X170680000Y-102667500D01*
X170680710Y-102653042D01*
X170682834Y-102638724D01*
X170686351Y-102624683D01*
X170691228Y-102611054D01*
X170697417Y-102597969D01*
X170704858Y-102585553D01*
X170713481Y-102573927D01*
X170723202Y-102563202D01*
X170733927Y-102553481D01*
X170745553Y-102544858D01*
X170757969Y-102537417D01*
X170771054Y-102531228D01*
X170784683Y-102526351D01*
X170798724Y-102522834D01*
X170813042Y-102520710D01*
X170827500Y-102520000D01*
X171172500Y-102520000D01*
X171186958Y-102520710D01*
G37*
G36*
X163586958Y-103490710D02*
G01*
X163601276Y-103492834D01*
X163615317Y-103496351D01*
X163628946Y-103501228D01*
X163642031Y-103507417D01*
X163654447Y-103514858D01*
X163666073Y-103523481D01*
X163676798Y-103533202D01*
X163686519Y-103543927D01*
X163695142Y-103555553D01*
X163702583Y-103567969D01*
X163708772Y-103581054D01*
X163713649Y-103594683D01*
X163717166Y-103608724D01*
X163719290Y-103623042D01*
X163720000Y-103637500D01*
X163720000Y-103932500D01*
X163719290Y-103946958D01*
X163717166Y-103961276D01*
X163713649Y-103975317D01*
X163708772Y-103988946D01*
X163702583Y-104002031D01*
X163695142Y-104014447D01*
X163686519Y-104026073D01*
X163676798Y-104036798D01*
X163666073Y-104046519D01*
X163654447Y-104055142D01*
X163642031Y-104062583D01*
X163628946Y-104068772D01*
X163615317Y-104073649D01*
X163601276Y-104077166D01*
X163586958Y-104079290D01*
X163572500Y-104080000D01*
X163227500Y-104080000D01*
X163213042Y-104079290D01*
X163198724Y-104077166D01*
X163184683Y-104073649D01*
X163171054Y-104068772D01*
X163157969Y-104062583D01*
X163145553Y-104055142D01*
X163133927Y-104046519D01*
X163123202Y-104036798D01*
X163113481Y-104026073D01*
X163104858Y-104014447D01*
X163097417Y-104002031D01*
X163091228Y-103988946D01*
X163086351Y-103975317D01*
X163082834Y-103961276D01*
X163080710Y-103946958D01*
X163080000Y-103932500D01*
X163080000Y-103637500D01*
X163080710Y-103623042D01*
X163082834Y-103608724D01*
X163086351Y-103594683D01*
X163091228Y-103581054D01*
X163097417Y-103567969D01*
X163104858Y-103555553D01*
X163113481Y-103543927D01*
X163123202Y-103533202D01*
X163133927Y-103523481D01*
X163145553Y-103514858D01*
X163157969Y-103507417D01*
X163171054Y-103501228D01*
X163184683Y-103496351D01*
X163198724Y-103492834D01*
X163213042Y-103490710D01*
X163227500Y-103490000D01*
X163572500Y-103490000D01*
X163586958Y-103490710D01*
G37*
G36*
X163586958Y-102520710D02*
G01*
X163601276Y-102522834D01*
X163615317Y-102526351D01*
X163628946Y-102531228D01*
X163642031Y-102537417D01*
X163654447Y-102544858D01*
X163666073Y-102553481D01*
X163676798Y-102563202D01*
X163686519Y-102573927D01*
X163695142Y-102585553D01*
X163702583Y-102597969D01*
X163708772Y-102611054D01*
X163713649Y-102624683D01*
X163717166Y-102638724D01*
X163719290Y-102653042D01*
X163720000Y-102667500D01*
X163720000Y-102962500D01*
X163719290Y-102976958D01*
X163717166Y-102991276D01*
X163713649Y-103005317D01*
X163708772Y-103018946D01*
X163702583Y-103032031D01*
X163695142Y-103044447D01*
X163686519Y-103056073D01*
X163676798Y-103066798D01*
X163666073Y-103076519D01*
X163654447Y-103085142D01*
X163642031Y-103092583D01*
X163628946Y-103098772D01*
X163615317Y-103103649D01*
X163601276Y-103107166D01*
X163586958Y-103109290D01*
X163572500Y-103110000D01*
X163227500Y-103110000D01*
X163213042Y-103109290D01*
X163198724Y-103107166D01*
X163184683Y-103103649D01*
X163171054Y-103098772D01*
X163157969Y-103092583D01*
X163145553Y-103085142D01*
X163133927Y-103076519D01*
X163123202Y-103066798D01*
X163113481Y-103056073D01*
X163104858Y-103044447D01*
X163097417Y-103032031D01*
X163091228Y-103018946D01*
X163086351Y-103005317D01*
X163082834Y-102991276D01*
X163080710Y-102976958D01*
X163080000Y-102962500D01*
X163080000Y-102667500D01*
X163080710Y-102653042D01*
X163082834Y-102638724D01*
X163086351Y-102624683D01*
X163091228Y-102611054D01*
X163097417Y-102597969D01*
X163104858Y-102585553D01*
X163113481Y-102573927D01*
X163123202Y-102563202D01*
X163133927Y-102553481D01*
X163145553Y-102544858D01*
X163157969Y-102537417D01*
X163171054Y-102531228D01*
X163184683Y-102526351D01*
X163198724Y-102522834D01*
X163213042Y-102520710D01*
X163227500Y-102520000D01*
X163572500Y-102520000D01*
X163586958Y-102520710D01*
G37*
G36*
X155986958Y-103490710D02*
G01*
X156001276Y-103492834D01*
X156015317Y-103496351D01*
X156028946Y-103501228D01*
X156042031Y-103507417D01*
X156054447Y-103514858D01*
X156066073Y-103523481D01*
X156076798Y-103533202D01*
X156086519Y-103543927D01*
X156095142Y-103555553D01*
X156102583Y-103567969D01*
X156108772Y-103581054D01*
X156113649Y-103594683D01*
X156117166Y-103608724D01*
X156119290Y-103623042D01*
X156120000Y-103637500D01*
X156120000Y-103932500D01*
X156119290Y-103946958D01*
X156117166Y-103961276D01*
X156113649Y-103975317D01*
X156108772Y-103988946D01*
X156102583Y-104002031D01*
X156095142Y-104014447D01*
X156086519Y-104026073D01*
X156076798Y-104036798D01*
X156066073Y-104046519D01*
X156054447Y-104055142D01*
X156042031Y-104062583D01*
X156028946Y-104068772D01*
X156015317Y-104073649D01*
X156001276Y-104077166D01*
X155986958Y-104079290D01*
X155972500Y-104080000D01*
X155627500Y-104080000D01*
X155613042Y-104079290D01*
X155598724Y-104077166D01*
X155584683Y-104073649D01*
X155571054Y-104068772D01*
X155557969Y-104062583D01*
X155545553Y-104055142D01*
X155533927Y-104046519D01*
X155523202Y-104036798D01*
X155513481Y-104026073D01*
X155504858Y-104014447D01*
X155497417Y-104002031D01*
X155491228Y-103988946D01*
X155486351Y-103975317D01*
X155482834Y-103961276D01*
X155480710Y-103946958D01*
X155480000Y-103932500D01*
X155480000Y-103637500D01*
X155480710Y-103623042D01*
X155482834Y-103608724D01*
X155486351Y-103594683D01*
X155491228Y-103581054D01*
X155497417Y-103567969D01*
X155504858Y-103555553D01*
X155513481Y-103543927D01*
X155523202Y-103533202D01*
X155533927Y-103523481D01*
X155545553Y-103514858D01*
X155557969Y-103507417D01*
X155571054Y-103501228D01*
X155584683Y-103496351D01*
X155598724Y-103492834D01*
X155613042Y-103490710D01*
X155627500Y-103490000D01*
X155972500Y-103490000D01*
X155986958Y-103490710D01*
G37*
G36*
X155986958Y-102520710D02*
G01*
X156001276Y-102522834D01*
X156015317Y-102526351D01*
X156028946Y-102531228D01*
X156042031Y-102537417D01*
X156054447Y-102544858D01*
X156066073Y-102553481D01*
X156076798Y-102563202D01*
X156086519Y-102573927D01*
X156095142Y-102585553D01*
X156102583Y-102597969D01*
X156108772Y-102611054D01*
X156113649Y-102624683D01*
X156117166Y-102638724D01*
X156119290Y-102653042D01*
X156120000Y-102667500D01*
X156120000Y-102962500D01*
X156119290Y-102976958D01*
X156117166Y-102991276D01*
X156113649Y-103005317D01*
X156108772Y-103018946D01*
X156102583Y-103032031D01*
X156095142Y-103044447D01*
X156086519Y-103056073D01*
X156076798Y-103066798D01*
X156066073Y-103076519D01*
X156054447Y-103085142D01*
X156042031Y-103092583D01*
X156028946Y-103098772D01*
X156015317Y-103103649D01*
X156001276Y-103107166D01*
X155986958Y-103109290D01*
X155972500Y-103110000D01*
X155627500Y-103110000D01*
X155613042Y-103109290D01*
X155598724Y-103107166D01*
X155584683Y-103103649D01*
X155571054Y-103098772D01*
X155557969Y-103092583D01*
X155545553Y-103085142D01*
X155533927Y-103076519D01*
X155523202Y-103066798D01*
X155513481Y-103056073D01*
X155504858Y-103044447D01*
X155497417Y-103032031D01*
X155491228Y-103018946D01*
X155486351Y-103005317D01*
X155482834Y-102991276D01*
X155480710Y-102976958D01*
X155480000Y-102962500D01*
X155480000Y-102667500D01*
X155480710Y-102653042D01*
X155482834Y-102638724D01*
X155486351Y-102624683D01*
X155491228Y-102611054D01*
X155497417Y-102597969D01*
X155504858Y-102585553D01*
X155513481Y-102573927D01*
X155523202Y-102563202D01*
X155533927Y-102553481D01*
X155545553Y-102544858D01*
X155557969Y-102537417D01*
X155571054Y-102531228D01*
X155584683Y-102526351D01*
X155598724Y-102522834D01*
X155613042Y-102520710D01*
X155627500Y-102520000D01*
X155972500Y-102520000D01*
X155986958Y-102520710D01*
G37*
G36*
X163627691Y-99326053D02*
G01*
X163648926Y-99329203D01*
X163669750Y-99334419D01*
X163689962Y-99341651D01*
X163709368Y-99350830D01*
X163727781Y-99361866D01*
X163745024Y-99374654D01*
X163760930Y-99389070D01*
X163775346Y-99404976D01*
X163788134Y-99422219D01*
X163799170Y-99440632D01*
X163808349Y-99460038D01*
X163815581Y-99480250D01*
X163820797Y-99501074D01*
X163823947Y-99522309D01*
X163825000Y-99543750D01*
X163825000Y-100056250D01*
X163823947Y-100077691D01*
X163820797Y-100098926D01*
X163815581Y-100119750D01*
X163808349Y-100139962D01*
X163799170Y-100159368D01*
X163788134Y-100177781D01*
X163775346Y-100195024D01*
X163760930Y-100210930D01*
X163745024Y-100225346D01*
X163727781Y-100238134D01*
X163709368Y-100249170D01*
X163689962Y-100258349D01*
X163669750Y-100265581D01*
X163648926Y-100270797D01*
X163627691Y-100273947D01*
X163606250Y-100275000D01*
X163168750Y-100275000D01*
X163147309Y-100273947D01*
X163126074Y-100270797D01*
X163105250Y-100265581D01*
X163085038Y-100258349D01*
X163065632Y-100249170D01*
X163047219Y-100238134D01*
X163029976Y-100225346D01*
X163014070Y-100210930D01*
X162999654Y-100195024D01*
X162986866Y-100177781D01*
X162975830Y-100159368D01*
X162966651Y-100139962D01*
X162959419Y-100119750D01*
X162954203Y-100098926D01*
X162951053Y-100077691D01*
X162950000Y-100056250D01*
X162950000Y-99543750D01*
X162951053Y-99522309D01*
X162954203Y-99501074D01*
X162959419Y-99480250D01*
X162966651Y-99460038D01*
X162975830Y-99440632D01*
X162986866Y-99422219D01*
X162999654Y-99404976D01*
X163014070Y-99389070D01*
X163029976Y-99374654D01*
X163047219Y-99361866D01*
X163065632Y-99350830D01*
X163085038Y-99341651D01*
X163105250Y-99334419D01*
X163126074Y-99329203D01*
X163147309Y-99326053D01*
X163168750Y-99325000D01*
X163606250Y-99325000D01*
X163627691Y-99326053D01*
G37*
G36*
X162052691Y-99326053D02*
G01*
X162073926Y-99329203D01*
X162094750Y-99334419D01*
X162114962Y-99341651D01*
X162134368Y-99350830D01*
X162152781Y-99361866D01*
X162170024Y-99374654D01*
X162185930Y-99389070D01*
X162200346Y-99404976D01*
X162213134Y-99422219D01*
X162224170Y-99440632D01*
X162233349Y-99460038D01*
X162240581Y-99480250D01*
X162245797Y-99501074D01*
X162248947Y-99522309D01*
X162250000Y-99543750D01*
X162250000Y-100056250D01*
X162248947Y-100077691D01*
X162245797Y-100098926D01*
X162240581Y-100119750D01*
X162233349Y-100139962D01*
X162224170Y-100159368D01*
X162213134Y-100177781D01*
X162200346Y-100195024D01*
X162185930Y-100210930D01*
X162170024Y-100225346D01*
X162152781Y-100238134D01*
X162134368Y-100249170D01*
X162114962Y-100258349D01*
X162094750Y-100265581D01*
X162073926Y-100270797D01*
X162052691Y-100273947D01*
X162031250Y-100275000D01*
X161593750Y-100275000D01*
X161572309Y-100273947D01*
X161551074Y-100270797D01*
X161530250Y-100265581D01*
X161510038Y-100258349D01*
X161490632Y-100249170D01*
X161472219Y-100238134D01*
X161454976Y-100225346D01*
X161439070Y-100210930D01*
X161424654Y-100195024D01*
X161411866Y-100177781D01*
X161400830Y-100159368D01*
X161391651Y-100139962D01*
X161384419Y-100119750D01*
X161379203Y-100098926D01*
X161376053Y-100077691D01*
X161375000Y-100056250D01*
X161375000Y-99543750D01*
X161376053Y-99522309D01*
X161379203Y-99501074D01*
X161384419Y-99480250D01*
X161391651Y-99460038D01*
X161400830Y-99440632D01*
X161411866Y-99422219D01*
X161424654Y-99404976D01*
X161439070Y-99389070D01*
X161454976Y-99374654D01*
X161472219Y-99361866D01*
X161490632Y-99350830D01*
X161510038Y-99341651D01*
X161530250Y-99334419D01*
X161551074Y-99329203D01*
X161572309Y-99326053D01*
X161593750Y-99325000D01*
X162031250Y-99325000D01*
X162052691Y-99326053D01*
G37*
G36*
X172564703Y-99450722D02*
G01*
X172579264Y-99452882D01*
X172593543Y-99456459D01*
X172607403Y-99461418D01*
X172620710Y-99467712D01*
X172633336Y-99475280D01*
X172645159Y-99484048D01*
X172656066Y-99493934D01*
X172665952Y-99504841D01*
X172674720Y-99516664D01*
X172682288Y-99529290D01*
X172688582Y-99542597D01*
X172693541Y-99556457D01*
X172697118Y-99570736D01*
X172699278Y-99585297D01*
X172700000Y-99600000D01*
X172700000Y-100000000D01*
X172699278Y-100014703D01*
X172697118Y-100029264D01*
X172693541Y-100043543D01*
X172688582Y-100057403D01*
X172682288Y-100070710D01*
X172674720Y-100083336D01*
X172665952Y-100095159D01*
X172656066Y-100106066D01*
X172645159Y-100115952D01*
X172633336Y-100124720D01*
X172620710Y-100132288D01*
X172607403Y-100138582D01*
X172593543Y-100143541D01*
X172579264Y-100147118D01*
X172564703Y-100149278D01*
X172550000Y-100150000D01*
X172250000Y-100150000D01*
X172235297Y-100149278D01*
X172220736Y-100147118D01*
X172206457Y-100143541D01*
X172192597Y-100138582D01*
X172179290Y-100132288D01*
X172166664Y-100124720D01*
X172154841Y-100115952D01*
X172143934Y-100106066D01*
X172134048Y-100095159D01*
X172125280Y-100083336D01*
X172117712Y-100070710D01*
X172111418Y-100057403D01*
X172106459Y-100043543D01*
X172102882Y-100029264D01*
X172100722Y-100014703D01*
X172100000Y-100000000D01*
X172100000Y-99600000D01*
X172100722Y-99585297D01*
X172102882Y-99570736D01*
X172106459Y-99556457D01*
X172111418Y-99542597D01*
X172117712Y-99529290D01*
X172125280Y-99516664D01*
X172134048Y-99504841D01*
X172143934Y-99493934D01*
X172154841Y-99484048D01*
X172166664Y-99475280D01*
X172179290Y-99467712D01*
X172192597Y-99461418D01*
X172206457Y-99456459D01*
X172220736Y-99452882D01*
X172235297Y-99450722D01*
X172250000Y-99450000D01*
X172550000Y-99450000D01*
X172564703Y-99450722D01*
G37*
G36*
X171164703Y-99450722D02*
G01*
X171179264Y-99452882D01*
X171193543Y-99456459D01*
X171207403Y-99461418D01*
X171220710Y-99467712D01*
X171233336Y-99475280D01*
X171245159Y-99484048D01*
X171256066Y-99493934D01*
X171265952Y-99504841D01*
X171274720Y-99516664D01*
X171282288Y-99529290D01*
X171288582Y-99542597D01*
X171293541Y-99556457D01*
X171297118Y-99570736D01*
X171299278Y-99585297D01*
X171300000Y-99600000D01*
X171300000Y-100000000D01*
X171299278Y-100014703D01*
X171297118Y-100029264D01*
X171293541Y-100043543D01*
X171288582Y-100057403D01*
X171282288Y-100070710D01*
X171274720Y-100083336D01*
X171265952Y-100095159D01*
X171256066Y-100106066D01*
X171245159Y-100115952D01*
X171233336Y-100124720D01*
X171220710Y-100132288D01*
X171207403Y-100138582D01*
X171193543Y-100143541D01*
X171179264Y-100147118D01*
X171164703Y-100149278D01*
X171150000Y-100150000D01*
X170850000Y-100150000D01*
X170835297Y-100149278D01*
X170820736Y-100147118D01*
X170806457Y-100143541D01*
X170792597Y-100138582D01*
X170779290Y-100132288D01*
X170766664Y-100124720D01*
X170754841Y-100115952D01*
X170743934Y-100106066D01*
X170734048Y-100095159D01*
X170725280Y-100083336D01*
X170717712Y-100070710D01*
X170711418Y-100057403D01*
X170706459Y-100043543D01*
X170702882Y-100029264D01*
X170700722Y-100014703D01*
X170700000Y-100000000D01*
X170700000Y-99600000D01*
X170700722Y-99585297D01*
X170702882Y-99570736D01*
X170706459Y-99556457D01*
X170711418Y-99542597D01*
X170717712Y-99529290D01*
X170725280Y-99516664D01*
X170734048Y-99504841D01*
X170743934Y-99493934D01*
X170754841Y-99484048D01*
X170766664Y-99475280D01*
X170779290Y-99467712D01*
X170792597Y-99461418D01*
X170806457Y-99456459D01*
X170820736Y-99452882D01*
X170835297Y-99450722D01*
X170850000Y-99450000D01*
X171150000Y-99450000D01*
X171164703Y-99450722D01*
G37*
G36*
X164964703Y-100950722D02*
G01*
X164979264Y-100952882D01*
X164993543Y-100956459D01*
X165007403Y-100961418D01*
X165020710Y-100967712D01*
X165033336Y-100975280D01*
X165045159Y-100984048D01*
X165056066Y-100993934D01*
X165065952Y-101004841D01*
X165074720Y-101016664D01*
X165082288Y-101029290D01*
X165088582Y-101042597D01*
X165093541Y-101056457D01*
X165097118Y-101070736D01*
X165099278Y-101085297D01*
X165100000Y-101100000D01*
X165100000Y-101500000D01*
X165099278Y-101514703D01*
X165097118Y-101529264D01*
X165093541Y-101543543D01*
X165088582Y-101557403D01*
X165082288Y-101570710D01*
X165074720Y-101583336D01*
X165065952Y-101595159D01*
X165056066Y-101606066D01*
X165045159Y-101615952D01*
X165033336Y-101624720D01*
X165020710Y-101632288D01*
X165007403Y-101638582D01*
X164993543Y-101643541D01*
X164979264Y-101647118D01*
X164964703Y-101649278D01*
X164950000Y-101650000D01*
X164650000Y-101650000D01*
X164635297Y-101649278D01*
X164620736Y-101647118D01*
X164606457Y-101643541D01*
X164592597Y-101638582D01*
X164579290Y-101632288D01*
X164566664Y-101624720D01*
X164554841Y-101615952D01*
X164543934Y-101606066D01*
X164534048Y-101595159D01*
X164525280Y-101583336D01*
X164517712Y-101570710D01*
X164511418Y-101557403D01*
X164506459Y-101543543D01*
X164502882Y-101529264D01*
X164500722Y-101514703D01*
X164500000Y-101500000D01*
X164500000Y-101100000D01*
X164500722Y-101085297D01*
X164502882Y-101070736D01*
X164506459Y-101056457D01*
X164511418Y-101042597D01*
X164517712Y-101029290D01*
X164525280Y-101016664D01*
X164534048Y-101004841D01*
X164543934Y-100993934D01*
X164554841Y-100984048D01*
X164566664Y-100975280D01*
X164579290Y-100967712D01*
X164592597Y-100961418D01*
X164606457Y-100956459D01*
X164620736Y-100952882D01*
X164635297Y-100950722D01*
X164650000Y-100950000D01*
X164950000Y-100950000D01*
X164964703Y-100950722D01*
G37*
G36*
X163564703Y-100950722D02*
G01*
X163579264Y-100952882D01*
X163593543Y-100956459D01*
X163607403Y-100961418D01*
X163620710Y-100967712D01*
X163633336Y-100975280D01*
X163645159Y-100984048D01*
X163656066Y-100993934D01*
X163665952Y-101004841D01*
X163674720Y-101016664D01*
X163682288Y-101029290D01*
X163688582Y-101042597D01*
X163693541Y-101056457D01*
X163697118Y-101070736D01*
X163699278Y-101085297D01*
X163700000Y-101100000D01*
X163700000Y-101500000D01*
X163699278Y-101514703D01*
X163697118Y-101529264D01*
X163693541Y-101543543D01*
X163688582Y-101557403D01*
X163682288Y-101570710D01*
X163674720Y-101583336D01*
X163665952Y-101595159D01*
X163656066Y-101606066D01*
X163645159Y-101615952D01*
X163633336Y-101624720D01*
X163620710Y-101632288D01*
X163607403Y-101638582D01*
X163593543Y-101643541D01*
X163579264Y-101647118D01*
X163564703Y-101649278D01*
X163550000Y-101650000D01*
X163250000Y-101650000D01*
X163235297Y-101649278D01*
X163220736Y-101647118D01*
X163206457Y-101643541D01*
X163192597Y-101638582D01*
X163179290Y-101632288D01*
X163166664Y-101624720D01*
X163154841Y-101615952D01*
X163143934Y-101606066D01*
X163134048Y-101595159D01*
X163125280Y-101583336D01*
X163117712Y-101570710D01*
X163111418Y-101557403D01*
X163106459Y-101543543D01*
X163102882Y-101529264D01*
X163100722Y-101514703D01*
X163100000Y-101500000D01*
X163100000Y-101100000D01*
X163100722Y-101085297D01*
X163102882Y-101070736D01*
X163106459Y-101056457D01*
X163111418Y-101042597D01*
X163117712Y-101029290D01*
X163125280Y-101016664D01*
X163134048Y-101004841D01*
X163143934Y-100993934D01*
X163154841Y-100984048D01*
X163166664Y-100975280D01*
X163179290Y-100967712D01*
X163192597Y-100961418D01*
X163206457Y-100956459D01*
X163220736Y-100952882D01*
X163235297Y-100950722D01*
X163250000Y-100950000D01*
X163550000Y-100950000D01*
X163564703Y-100950722D01*
G37*
G36*
X157364703Y-99450722D02*
G01*
X157379264Y-99452882D01*
X157393543Y-99456459D01*
X157407403Y-99461418D01*
X157420710Y-99467712D01*
X157433336Y-99475280D01*
X157445159Y-99484048D01*
X157456066Y-99493934D01*
X157465952Y-99504841D01*
X157474720Y-99516664D01*
X157482288Y-99529290D01*
X157488582Y-99542597D01*
X157493541Y-99556457D01*
X157497118Y-99570736D01*
X157499278Y-99585297D01*
X157500000Y-99600000D01*
X157500000Y-100000000D01*
X157499278Y-100014703D01*
X157497118Y-100029264D01*
X157493541Y-100043543D01*
X157488582Y-100057403D01*
X157482288Y-100070710D01*
X157474720Y-100083336D01*
X157465952Y-100095159D01*
X157456066Y-100106066D01*
X157445159Y-100115952D01*
X157433336Y-100124720D01*
X157420710Y-100132288D01*
X157407403Y-100138582D01*
X157393543Y-100143541D01*
X157379264Y-100147118D01*
X157364703Y-100149278D01*
X157350000Y-100150000D01*
X157050000Y-100150000D01*
X157035297Y-100149278D01*
X157020736Y-100147118D01*
X157006457Y-100143541D01*
X156992597Y-100138582D01*
X156979290Y-100132288D01*
X156966664Y-100124720D01*
X156954841Y-100115952D01*
X156943934Y-100106066D01*
X156934048Y-100095159D01*
X156925280Y-100083336D01*
X156917712Y-100070710D01*
X156911418Y-100057403D01*
X156906459Y-100043543D01*
X156902882Y-100029264D01*
X156900722Y-100014703D01*
X156900000Y-100000000D01*
X156900000Y-99600000D01*
X156900722Y-99585297D01*
X156902882Y-99570736D01*
X156906459Y-99556457D01*
X156911418Y-99542597D01*
X156917712Y-99529290D01*
X156925280Y-99516664D01*
X156934048Y-99504841D01*
X156943934Y-99493934D01*
X156954841Y-99484048D01*
X156966664Y-99475280D01*
X156979290Y-99467712D01*
X156992597Y-99461418D01*
X157006457Y-99456459D01*
X157020736Y-99452882D01*
X157035297Y-99450722D01*
X157050000Y-99450000D01*
X157350000Y-99450000D01*
X157364703Y-99450722D01*
G37*
G36*
X155964703Y-99450722D02*
G01*
X155979264Y-99452882D01*
X155993543Y-99456459D01*
X156007403Y-99461418D01*
X156020710Y-99467712D01*
X156033336Y-99475280D01*
X156045159Y-99484048D01*
X156056066Y-99493934D01*
X156065952Y-99504841D01*
X156074720Y-99516664D01*
X156082288Y-99529290D01*
X156088582Y-99542597D01*
X156093541Y-99556457D01*
X156097118Y-99570736D01*
X156099278Y-99585297D01*
X156100000Y-99600000D01*
X156100000Y-100000000D01*
X156099278Y-100014703D01*
X156097118Y-100029264D01*
X156093541Y-100043543D01*
X156088582Y-100057403D01*
X156082288Y-100070710D01*
X156074720Y-100083336D01*
X156065952Y-100095159D01*
X156056066Y-100106066D01*
X156045159Y-100115952D01*
X156033336Y-100124720D01*
X156020710Y-100132288D01*
X156007403Y-100138582D01*
X155993543Y-100143541D01*
X155979264Y-100147118D01*
X155964703Y-100149278D01*
X155950000Y-100150000D01*
X155650000Y-100150000D01*
X155635297Y-100149278D01*
X155620736Y-100147118D01*
X155606457Y-100143541D01*
X155592597Y-100138582D01*
X155579290Y-100132288D01*
X155566664Y-100124720D01*
X155554841Y-100115952D01*
X155543934Y-100106066D01*
X155534048Y-100095159D01*
X155525280Y-100083336D01*
X155517712Y-100070710D01*
X155511418Y-100057403D01*
X155506459Y-100043543D01*
X155502882Y-100029264D01*
X155500722Y-100014703D01*
X155500000Y-100000000D01*
X155500000Y-99600000D01*
X155500722Y-99585297D01*
X155502882Y-99570736D01*
X155506459Y-99556457D01*
X155511418Y-99542597D01*
X155517712Y-99529290D01*
X155525280Y-99516664D01*
X155534048Y-99504841D01*
X155543934Y-99493934D01*
X155554841Y-99484048D01*
X155566664Y-99475280D01*
X155579290Y-99467712D01*
X155592597Y-99461418D01*
X155606457Y-99456459D01*
X155620736Y-99452882D01*
X155635297Y-99450722D01*
X155650000Y-99450000D01*
X155950000Y-99450000D01*
X155964703Y-99450722D01*
G37*
G36*
X174914703Y-103700722D02*
G01*
X174929264Y-103702882D01*
X174943543Y-103706459D01*
X174957403Y-103711418D01*
X174970710Y-103717712D01*
X174983336Y-103725280D01*
X174995159Y-103734048D01*
X175006066Y-103743934D01*
X175015952Y-103754841D01*
X175024720Y-103766664D01*
X175032288Y-103779290D01*
X175038582Y-103792597D01*
X175043541Y-103806457D01*
X175047118Y-103820736D01*
X175049278Y-103835297D01*
X175050000Y-103850000D01*
X175050000Y-104150000D01*
X175049278Y-104164703D01*
X175047118Y-104179264D01*
X175043541Y-104193543D01*
X175038582Y-104207403D01*
X175032288Y-104220710D01*
X175024720Y-104233336D01*
X175015952Y-104245159D01*
X175006066Y-104256066D01*
X174995159Y-104265952D01*
X174983336Y-104274720D01*
X174970710Y-104282288D01*
X174957403Y-104288582D01*
X174943543Y-104293541D01*
X174929264Y-104297118D01*
X174914703Y-104299278D01*
X174900000Y-104300000D01*
X174500000Y-104300000D01*
X174485297Y-104299278D01*
X174470736Y-104297118D01*
X174456457Y-104293541D01*
X174442597Y-104288582D01*
X174429290Y-104282288D01*
X174416664Y-104274720D01*
X174404841Y-104265952D01*
X174393934Y-104256066D01*
X174384048Y-104245159D01*
X174375280Y-104233336D01*
X174367712Y-104220710D01*
X174361418Y-104207403D01*
X174356459Y-104193543D01*
X174352882Y-104179264D01*
X174350722Y-104164703D01*
X174350000Y-104150000D01*
X174350000Y-103850000D01*
X174350722Y-103835297D01*
X174352882Y-103820736D01*
X174356459Y-103806457D01*
X174361418Y-103792597D01*
X174367712Y-103779290D01*
X174375280Y-103766664D01*
X174384048Y-103754841D01*
X174393934Y-103743934D01*
X174404841Y-103734048D01*
X174416664Y-103725280D01*
X174429290Y-103717712D01*
X174442597Y-103711418D01*
X174456457Y-103706459D01*
X174470736Y-103702882D01*
X174485297Y-103700722D01*
X174500000Y-103700000D01*
X174900000Y-103700000D01*
X174914703Y-103700722D01*
G37*
G36*
X174914703Y-102300722D02*
G01*
X174929264Y-102302882D01*
X174943543Y-102306459D01*
X174957403Y-102311418D01*
X174970710Y-102317712D01*
X174983336Y-102325280D01*
X174995159Y-102334048D01*
X175006066Y-102343934D01*
X175015952Y-102354841D01*
X175024720Y-102366664D01*
X175032288Y-102379290D01*
X175038582Y-102392597D01*
X175043541Y-102406457D01*
X175047118Y-102420736D01*
X175049278Y-102435297D01*
X175050000Y-102450000D01*
X175050000Y-102750000D01*
X175049278Y-102764703D01*
X175047118Y-102779264D01*
X175043541Y-102793543D01*
X175038582Y-102807403D01*
X175032288Y-102820710D01*
X175024720Y-102833336D01*
X175015952Y-102845159D01*
X175006066Y-102856066D01*
X174995159Y-102865952D01*
X174983336Y-102874720D01*
X174970710Y-102882288D01*
X174957403Y-102888582D01*
X174943543Y-102893541D01*
X174929264Y-102897118D01*
X174914703Y-102899278D01*
X174900000Y-102900000D01*
X174500000Y-102900000D01*
X174485297Y-102899278D01*
X174470736Y-102897118D01*
X174456457Y-102893541D01*
X174442597Y-102888582D01*
X174429290Y-102882288D01*
X174416664Y-102874720D01*
X174404841Y-102865952D01*
X174393934Y-102856066D01*
X174384048Y-102845159D01*
X174375280Y-102833336D01*
X174367712Y-102820710D01*
X174361418Y-102807403D01*
X174356459Y-102793543D01*
X174352882Y-102779264D01*
X174350722Y-102764703D01*
X174350000Y-102750000D01*
X174350000Y-102450000D01*
X174350722Y-102435297D01*
X174352882Y-102420736D01*
X174356459Y-102406457D01*
X174361418Y-102392597D01*
X174367712Y-102379290D01*
X174375280Y-102366664D01*
X174384048Y-102354841D01*
X174393934Y-102343934D01*
X174404841Y-102334048D01*
X174416664Y-102325280D01*
X174429290Y-102317712D01*
X174442597Y-102311418D01*
X174456457Y-102306459D01*
X174470736Y-102302882D01*
X174485297Y-102300722D01*
X174500000Y-102300000D01*
X174900000Y-102300000D01*
X174914703Y-102300722D01*
G37*
G36*
X167314703Y-103700722D02*
G01*
X167329264Y-103702882D01*
X167343543Y-103706459D01*
X167357403Y-103711418D01*
X167370710Y-103717712D01*
X167383336Y-103725280D01*
X167395159Y-103734048D01*
X167406066Y-103743934D01*
X167415952Y-103754841D01*
X167424720Y-103766664D01*
X167432288Y-103779290D01*
X167438582Y-103792597D01*
X167443541Y-103806457D01*
X167447118Y-103820736D01*
X167449278Y-103835297D01*
X167450000Y-103850000D01*
X167450000Y-104150000D01*
X167449278Y-104164703D01*
X167447118Y-104179264D01*
X167443541Y-104193543D01*
X167438582Y-104207403D01*
X167432288Y-104220710D01*
X167424720Y-104233336D01*
X167415952Y-104245159D01*
X167406066Y-104256066D01*
X167395159Y-104265952D01*
X167383336Y-104274720D01*
X167370710Y-104282288D01*
X167357403Y-104288582D01*
X167343543Y-104293541D01*
X167329264Y-104297118D01*
X167314703Y-104299278D01*
X167300000Y-104300000D01*
X166900000Y-104300000D01*
X166885297Y-104299278D01*
X166870736Y-104297118D01*
X166856457Y-104293541D01*
X166842597Y-104288582D01*
X166829290Y-104282288D01*
X166816664Y-104274720D01*
X166804841Y-104265952D01*
X166793934Y-104256066D01*
X166784048Y-104245159D01*
X166775280Y-104233336D01*
X166767712Y-104220710D01*
X166761418Y-104207403D01*
X166756459Y-104193543D01*
X166752882Y-104179264D01*
X166750722Y-104164703D01*
X166750000Y-104150000D01*
X166750000Y-103850000D01*
X166750722Y-103835297D01*
X166752882Y-103820736D01*
X166756459Y-103806457D01*
X166761418Y-103792597D01*
X166767712Y-103779290D01*
X166775280Y-103766664D01*
X166784048Y-103754841D01*
X166793934Y-103743934D01*
X166804841Y-103734048D01*
X166816664Y-103725280D01*
X166829290Y-103717712D01*
X166842597Y-103711418D01*
X166856457Y-103706459D01*
X166870736Y-103702882D01*
X166885297Y-103700722D01*
X166900000Y-103700000D01*
X167300000Y-103700000D01*
X167314703Y-103700722D01*
G37*
G36*
X167314703Y-102300722D02*
G01*
X167329264Y-102302882D01*
X167343543Y-102306459D01*
X167357403Y-102311418D01*
X167370710Y-102317712D01*
X167383336Y-102325280D01*
X167395159Y-102334048D01*
X167406066Y-102343934D01*
X167415952Y-102354841D01*
X167424720Y-102366664D01*
X167432288Y-102379290D01*
X167438582Y-102392597D01*
X167443541Y-102406457D01*
X167447118Y-102420736D01*
X167449278Y-102435297D01*
X167450000Y-102450000D01*
X167450000Y-102750000D01*
X167449278Y-102764703D01*
X167447118Y-102779264D01*
X167443541Y-102793543D01*
X167438582Y-102807403D01*
X167432288Y-102820710D01*
X167424720Y-102833336D01*
X167415952Y-102845159D01*
X167406066Y-102856066D01*
X167395159Y-102865952D01*
X167383336Y-102874720D01*
X167370710Y-102882288D01*
X167357403Y-102888582D01*
X167343543Y-102893541D01*
X167329264Y-102897118D01*
X167314703Y-102899278D01*
X167300000Y-102900000D01*
X166900000Y-102900000D01*
X166885297Y-102899278D01*
X166870736Y-102897118D01*
X166856457Y-102893541D01*
X166842597Y-102888582D01*
X166829290Y-102882288D01*
X166816664Y-102874720D01*
X166804841Y-102865952D01*
X166793934Y-102856066D01*
X166784048Y-102845159D01*
X166775280Y-102833336D01*
X166767712Y-102820710D01*
X166761418Y-102807403D01*
X166756459Y-102793543D01*
X166752882Y-102779264D01*
X166750722Y-102764703D01*
X166750000Y-102750000D01*
X166750000Y-102450000D01*
X166750722Y-102435297D01*
X166752882Y-102420736D01*
X166756459Y-102406457D01*
X166761418Y-102392597D01*
X166767712Y-102379290D01*
X166775280Y-102366664D01*
X166784048Y-102354841D01*
X166793934Y-102343934D01*
X166804841Y-102334048D01*
X166816664Y-102325280D01*
X166829290Y-102317712D01*
X166842597Y-102311418D01*
X166856457Y-102306459D01*
X166870736Y-102302882D01*
X166885297Y-102300722D01*
X166900000Y-102300000D01*
X167300000Y-102300000D01*
X167314703Y-102300722D01*
G37*
G36*
X159714703Y-103700722D02*
G01*
X159729264Y-103702882D01*
X159743543Y-103706459D01*
X159757403Y-103711418D01*
X159770710Y-103717712D01*
X159783336Y-103725280D01*
X159795159Y-103734048D01*
X159806066Y-103743934D01*
X159815952Y-103754841D01*
X159824720Y-103766664D01*
X159832288Y-103779290D01*
X159838582Y-103792597D01*
X159843541Y-103806457D01*
X159847118Y-103820736D01*
X159849278Y-103835297D01*
X159850000Y-103850000D01*
X159850000Y-104150000D01*
X159849278Y-104164703D01*
X159847118Y-104179264D01*
X159843541Y-104193543D01*
X159838582Y-104207403D01*
X159832288Y-104220710D01*
X159824720Y-104233336D01*
X159815952Y-104245159D01*
X159806066Y-104256066D01*
X159795159Y-104265952D01*
X159783336Y-104274720D01*
X159770710Y-104282288D01*
X159757403Y-104288582D01*
X159743543Y-104293541D01*
X159729264Y-104297118D01*
X159714703Y-104299278D01*
X159700000Y-104300000D01*
X159300000Y-104300000D01*
X159285297Y-104299278D01*
X159270736Y-104297118D01*
X159256457Y-104293541D01*
X159242597Y-104288582D01*
X159229290Y-104282288D01*
X159216664Y-104274720D01*
X159204841Y-104265952D01*
X159193934Y-104256066D01*
X159184048Y-104245159D01*
X159175280Y-104233336D01*
X159167712Y-104220710D01*
X159161418Y-104207403D01*
X159156459Y-104193543D01*
X159152882Y-104179264D01*
X159150722Y-104164703D01*
X159150000Y-104150000D01*
X159150000Y-103850000D01*
X159150722Y-103835297D01*
X159152882Y-103820736D01*
X159156459Y-103806457D01*
X159161418Y-103792597D01*
X159167712Y-103779290D01*
X159175280Y-103766664D01*
X159184048Y-103754841D01*
X159193934Y-103743934D01*
X159204841Y-103734048D01*
X159216664Y-103725280D01*
X159229290Y-103717712D01*
X159242597Y-103711418D01*
X159256457Y-103706459D01*
X159270736Y-103702882D01*
X159285297Y-103700722D01*
X159300000Y-103700000D01*
X159700000Y-103700000D01*
X159714703Y-103700722D01*
G37*
G36*
X159714703Y-102300722D02*
G01*
X159729264Y-102302882D01*
X159743543Y-102306459D01*
X159757403Y-102311418D01*
X159770710Y-102317712D01*
X159783336Y-102325280D01*
X159795159Y-102334048D01*
X159806066Y-102343934D01*
X159815952Y-102354841D01*
X159824720Y-102366664D01*
X159832288Y-102379290D01*
X159838582Y-102392597D01*
X159843541Y-102406457D01*
X159847118Y-102420736D01*
X159849278Y-102435297D01*
X159850000Y-102450000D01*
X159850000Y-102750000D01*
X159849278Y-102764703D01*
X159847118Y-102779264D01*
X159843541Y-102793543D01*
X159838582Y-102807403D01*
X159832288Y-102820710D01*
X159824720Y-102833336D01*
X159815952Y-102845159D01*
X159806066Y-102856066D01*
X159795159Y-102865952D01*
X159783336Y-102874720D01*
X159770710Y-102882288D01*
X159757403Y-102888582D01*
X159743543Y-102893541D01*
X159729264Y-102897118D01*
X159714703Y-102899278D01*
X159700000Y-102900000D01*
X159300000Y-102900000D01*
X159285297Y-102899278D01*
X159270736Y-102897118D01*
X159256457Y-102893541D01*
X159242597Y-102888582D01*
X159229290Y-102882288D01*
X159216664Y-102874720D01*
X159204841Y-102865952D01*
X159193934Y-102856066D01*
X159184048Y-102845159D01*
X159175280Y-102833336D01*
X159167712Y-102820710D01*
X159161418Y-102807403D01*
X159156459Y-102793543D01*
X159152882Y-102779264D01*
X159150722Y-102764703D01*
X159150000Y-102750000D01*
X159150000Y-102450000D01*
X159150722Y-102435297D01*
X159152882Y-102420736D01*
X159156459Y-102406457D01*
X159161418Y-102392597D01*
X159167712Y-102379290D01*
X159175280Y-102366664D01*
X159184048Y-102354841D01*
X159193934Y-102343934D01*
X159204841Y-102334048D01*
X159216664Y-102325280D01*
X159229290Y-102317712D01*
X159242597Y-102311418D01*
X159256457Y-102306459D01*
X159270736Y-102302882D01*
X159285297Y-102300722D01*
X159300000Y-102300000D01*
X159700000Y-102300000D01*
X159714703Y-102300722D01*
G37*
G36*
X152114703Y-103700722D02*
G01*
X152129264Y-103702882D01*
X152143543Y-103706459D01*
X152157403Y-103711418D01*
X152170710Y-103717712D01*
X152183336Y-103725280D01*
X152195159Y-103734048D01*
X152206066Y-103743934D01*
X152215952Y-103754841D01*
X152224720Y-103766664D01*
X152232288Y-103779290D01*
X152238582Y-103792597D01*
X152243541Y-103806457D01*
X152247118Y-103820736D01*
X152249278Y-103835297D01*
X152250000Y-103850000D01*
X152250000Y-104150000D01*
X152249278Y-104164703D01*
X152247118Y-104179264D01*
X152243541Y-104193543D01*
X152238582Y-104207403D01*
X152232288Y-104220710D01*
X152224720Y-104233336D01*
X152215952Y-104245159D01*
X152206066Y-104256066D01*
X152195159Y-104265952D01*
X152183336Y-104274720D01*
X152170710Y-104282288D01*
X152157403Y-104288582D01*
X152143543Y-104293541D01*
X152129264Y-104297118D01*
X152114703Y-104299278D01*
X152100000Y-104300000D01*
X151700000Y-104300000D01*
X151685297Y-104299278D01*
X151670736Y-104297118D01*
X151656457Y-104293541D01*
X151642597Y-104288582D01*
X151629290Y-104282288D01*
X151616664Y-104274720D01*
X151604841Y-104265952D01*
X151593934Y-104256066D01*
X151584048Y-104245159D01*
X151575280Y-104233336D01*
X151567712Y-104220710D01*
X151561418Y-104207403D01*
X151556459Y-104193543D01*
X151552882Y-104179264D01*
X151550722Y-104164703D01*
X151550000Y-104150000D01*
X151550000Y-103850000D01*
X151550722Y-103835297D01*
X151552882Y-103820736D01*
X151556459Y-103806457D01*
X151561418Y-103792597D01*
X151567712Y-103779290D01*
X151575280Y-103766664D01*
X151584048Y-103754841D01*
X151593934Y-103743934D01*
X151604841Y-103734048D01*
X151616664Y-103725280D01*
X151629290Y-103717712D01*
X151642597Y-103711418D01*
X151656457Y-103706459D01*
X151670736Y-103702882D01*
X151685297Y-103700722D01*
X151700000Y-103700000D01*
X152100000Y-103700000D01*
X152114703Y-103700722D01*
G37*
G36*
X152114703Y-102300722D02*
G01*
X152129264Y-102302882D01*
X152143543Y-102306459D01*
X152157403Y-102311418D01*
X152170710Y-102317712D01*
X152183336Y-102325280D01*
X152195159Y-102334048D01*
X152206066Y-102343934D01*
X152215952Y-102354841D01*
X152224720Y-102366664D01*
X152232288Y-102379290D01*
X152238582Y-102392597D01*
X152243541Y-102406457D01*
X152247118Y-102420736D01*
X152249278Y-102435297D01*
X152250000Y-102450000D01*
X152250000Y-102750000D01*
X152249278Y-102764703D01*
X152247118Y-102779264D01*
X152243541Y-102793543D01*
X152238582Y-102807403D01*
X152232288Y-102820710D01*
X152224720Y-102833336D01*
X152215952Y-102845159D01*
X152206066Y-102856066D01*
X152195159Y-102865952D01*
X152183336Y-102874720D01*
X152170710Y-102882288D01*
X152157403Y-102888582D01*
X152143543Y-102893541D01*
X152129264Y-102897118D01*
X152114703Y-102899278D01*
X152100000Y-102900000D01*
X151700000Y-102900000D01*
X151685297Y-102899278D01*
X151670736Y-102897118D01*
X151656457Y-102893541D01*
X151642597Y-102888582D01*
X151629290Y-102882288D01*
X151616664Y-102874720D01*
X151604841Y-102865952D01*
X151593934Y-102856066D01*
X151584048Y-102845159D01*
X151575280Y-102833336D01*
X151567712Y-102820710D01*
X151561418Y-102807403D01*
X151556459Y-102793543D01*
X151552882Y-102779264D01*
X151550722Y-102764703D01*
X151550000Y-102750000D01*
X151550000Y-102450000D01*
X151550722Y-102435297D01*
X151552882Y-102420736D01*
X151556459Y-102406457D01*
X151561418Y-102392597D01*
X151567712Y-102379290D01*
X151575280Y-102366664D01*
X151584048Y-102354841D01*
X151593934Y-102343934D01*
X151604841Y-102334048D01*
X151616664Y-102325280D01*
X151629290Y-102317712D01*
X151642597Y-102311418D01*
X151656457Y-102306459D01*
X151670736Y-102302882D01*
X151685297Y-102300722D01*
X151700000Y-102300000D01*
X152100000Y-102300000D01*
X152114703Y-102300722D01*
G37*
G36*
X149837252Y-98125602D02*
G01*
X149849386Y-98127402D01*
X149861286Y-98130382D01*
X149872835Y-98134515D01*
X149883925Y-98139760D01*
X149894446Y-98146066D01*
X149904299Y-98153374D01*
X149913388Y-98161612D01*
X149921626Y-98170701D01*
X149928934Y-98180554D01*
X149935240Y-98191075D01*
X149940485Y-98202165D01*
X149944618Y-98213714D01*
X149947598Y-98225614D01*
X149949398Y-98237748D01*
X149950000Y-98250000D01*
X149950000Y-99250000D01*
X149949398Y-99262252D01*
X149947598Y-99274386D01*
X149944618Y-99286286D01*
X149940485Y-99297835D01*
X149935240Y-99308925D01*
X149928934Y-99319446D01*
X149921626Y-99329299D01*
X149913388Y-99338388D01*
X149904299Y-99346626D01*
X149894446Y-99353934D01*
X149883925Y-99360240D01*
X149872835Y-99365485D01*
X149861286Y-99369618D01*
X149849386Y-99372598D01*
X149837252Y-99374398D01*
X149825000Y-99375000D01*
X145825000Y-99375000D01*
X145812748Y-99374398D01*
X145800614Y-99372598D01*
X145788714Y-99369618D01*
X145777165Y-99365485D01*
X145766075Y-99360240D01*
X145755554Y-99353934D01*
X145745701Y-99346626D01*
X145736612Y-99338388D01*
X145728374Y-99329299D01*
X145721066Y-99319446D01*
X145714760Y-99308925D01*
X145709515Y-99297835D01*
X145705382Y-99286286D01*
X145702402Y-99274386D01*
X145700602Y-99262252D01*
X145700000Y-99250000D01*
X145700000Y-98250000D01*
X145700602Y-98237748D01*
X145702402Y-98225614D01*
X145705382Y-98213714D01*
X145709515Y-98202165D01*
X145714760Y-98191075D01*
X145721066Y-98180554D01*
X145728374Y-98170701D01*
X145736612Y-98161612D01*
X145745701Y-98153374D01*
X145755554Y-98146066D01*
X145766075Y-98139760D01*
X145777165Y-98134515D01*
X145788714Y-98130382D01*
X145800614Y-98127402D01*
X145812748Y-98125602D01*
X145825000Y-98125000D01*
X149825000Y-98125000D01*
X149837252Y-98125602D01*
G37*
G36*
X149859802Y-100800482D02*
G01*
X149869509Y-100801921D01*
X149879028Y-100804306D01*
X149888268Y-100807612D01*
X149897140Y-100811808D01*
X149905557Y-100816853D01*
X149913439Y-100822699D01*
X149920711Y-100829289D01*
X149927301Y-100836561D01*
X149933147Y-100844443D01*
X149938192Y-100852860D01*
X149942388Y-100861732D01*
X149945694Y-100870972D01*
X149948079Y-100880491D01*
X149949518Y-100890198D01*
X149950000Y-100900000D01*
X149950000Y-101700000D01*
X149949518Y-101709802D01*
X149948079Y-101719509D01*
X149945694Y-101729028D01*
X149942388Y-101738268D01*
X149938192Y-101747140D01*
X149933147Y-101755557D01*
X149927301Y-101763439D01*
X149920711Y-101770711D01*
X149913439Y-101777301D01*
X149905557Y-101783147D01*
X149897140Y-101788192D01*
X149888268Y-101792388D01*
X149879028Y-101795694D01*
X149869509Y-101798079D01*
X149859802Y-101799518D01*
X149850000Y-101800000D01*
X145800000Y-101800000D01*
X145790198Y-101799518D01*
X145780491Y-101798079D01*
X145770972Y-101795694D01*
X145761732Y-101792388D01*
X145752860Y-101788192D01*
X145744443Y-101783147D01*
X145736561Y-101777301D01*
X145729289Y-101770711D01*
X145722699Y-101763439D01*
X145716853Y-101755557D01*
X145711808Y-101747140D01*
X145707612Y-101738268D01*
X145704306Y-101729028D01*
X145701921Y-101719509D01*
X145700482Y-101709802D01*
X145700000Y-101700000D01*
X145700000Y-100900000D01*
X145700482Y-100890198D01*
X145701921Y-100880491D01*
X145704306Y-100870972D01*
X145707612Y-100861732D01*
X145711808Y-100852860D01*
X145716853Y-100844443D01*
X145722699Y-100836561D01*
X145729289Y-100829289D01*
X145736561Y-100822699D01*
X145744443Y-100816853D01*
X145752860Y-100811808D01*
X145761732Y-100807612D01*
X145770972Y-100804306D01*
X145780491Y-100801921D01*
X145790198Y-100800482D01*
X145800000Y-100800000D01*
X149850000Y-100800000D01*
X149859802Y-100800482D01*
G37*
G36*
X149837252Y-103225602D02*
G01*
X149849386Y-103227402D01*
X149861286Y-103230382D01*
X149872835Y-103234515D01*
X149883925Y-103239760D01*
X149894446Y-103246066D01*
X149904299Y-103253374D01*
X149913388Y-103261612D01*
X149921626Y-103270701D01*
X149928934Y-103280554D01*
X149935240Y-103291075D01*
X149940485Y-103302165D01*
X149944618Y-103313714D01*
X149947598Y-103325614D01*
X149949398Y-103337748D01*
X149950000Y-103350000D01*
X149950000Y-104350000D01*
X149949398Y-104362252D01*
X149947598Y-104374386D01*
X149944618Y-104386286D01*
X149940485Y-104397835D01*
X149935240Y-104408925D01*
X149928934Y-104419446D01*
X149921626Y-104429299D01*
X149913388Y-104438388D01*
X149904299Y-104446626D01*
X149894446Y-104453934D01*
X149883925Y-104460240D01*
X149872835Y-104465485D01*
X149861286Y-104469618D01*
X149849386Y-104472598D01*
X149837252Y-104474398D01*
X149825000Y-104475000D01*
X145825000Y-104475000D01*
X145812748Y-104474398D01*
X145800614Y-104472598D01*
X145788714Y-104469618D01*
X145777165Y-104465485D01*
X145766075Y-104460240D01*
X145755554Y-104453934D01*
X145745701Y-104446626D01*
X145736612Y-104438388D01*
X145728374Y-104429299D01*
X145721066Y-104419446D01*
X145714760Y-104408925D01*
X145709515Y-104397835D01*
X145705382Y-104386286D01*
X145702402Y-104374386D01*
X145700602Y-104362252D01*
X145700000Y-104350000D01*
X145700000Y-103350000D01*
X145700602Y-103337748D01*
X145702402Y-103325614D01*
X145705382Y-103313714D01*
X145709515Y-103302165D01*
X145714760Y-103291075D01*
X145721066Y-103280554D01*
X145728374Y-103270701D01*
X145736612Y-103261612D01*
X145745701Y-103253374D01*
X145755554Y-103246066D01*
X145766075Y-103239760D01*
X145777165Y-103234515D01*
X145788714Y-103230382D01*
X145800614Y-103227402D01*
X145812748Y-103225602D01*
X145825000Y-103225000D01*
X149825000Y-103225000D01*
X149837252Y-103225602D01*
G37*
G36*
X169652691Y-100826053D02*
G01*
X169673926Y-100829203D01*
X169694750Y-100834419D01*
X169714962Y-100841651D01*
X169734368Y-100850830D01*
X169752781Y-100861866D01*
X169770024Y-100874654D01*
X169785930Y-100889070D01*
X169800346Y-100904976D01*
X169813134Y-100922219D01*
X169824170Y-100940632D01*
X169833349Y-100960038D01*
X169840581Y-100980250D01*
X169845797Y-101001074D01*
X169848947Y-101022309D01*
X169850000Y-101043750D01*
X169850000Y-101556250D01*
X169848947Y-101577691D01*
X169845797Y-101598926D01*
X169840581Y-101619750D01*
X169833349Y-101639962D01*
X169824170Y-101659368D01*
X169813134Y-101677781D01*
X169800346Y-101695024D01*
X169785930Y-101710930D01*
X169770024Y-101725346D01*
X169752781Y-101738134D01*
X169734368Y-101749170D01*
X169714962Y-101758349D01*
X169694750Y-101765581D01*
X169673926Y-101770797D01*
X169652691Y-101773947D01*
X169631250Y-101775000D01*
X169193750Y-101775000D01*
X169172309Y-101773947D01*
X169151074Y-101770797D01*
X169130250Y-101765581D01*
X169110038Y-101758349D01*
X169090632Y-101749170D01*
X169072219Y-101738134D01*
X169054976Y-101725346D01*
X169039070Y-101710930D01*
X169024654Y-101695024D01*
X169011866Y-101677781D01*
X169000830Y-101659368D01*
X168991651Y-101639962D01*
X168984419Y-101619750D01*
X168979203Y-101598926D01*
X168976053Y-101577691D01*
X168975000Y-101556250D01*
X168975000Y-101043750D01*
X168976053Y-101022309D01*
X168979203Y-101001074D01*
X168984419Y-100980250D01*
X168991651Y-100960038D01*
X169000830Y-100940632D01*
X169011866Y-100922219D01*
X169024654Y-100904976D01*
X169039070Y-100889070D01*
X169054976Y-100874654D01*
X169072219Y-100861866D01*
X169090632Y-100850830D01*
X169110038Y-100841651D01*
X169130250Y-100834419D01*
X169151074Y-100829203D01*
X169172309Y-100826053D01*
X169193750Y-100825000D01*
X169631250Y-100825000D01*
X169652691Y-100826053D01*
G37*
G36*
X171227691Y-100826053D02*
G01*
X171248926Y-100829203D01*
X171269750Y-100834419D01*
X171289962Y-100841651D01*
X171309368Y-100850830D01*
X171327781Y-100861866D01*
X171345024Y-100874654D01*
X171360930Y-100889070D01*
X171375346Y-100904976D01*
X171388134Y-100922219D01*
X171399170Y-100940632D01*
X171408349Y-100960038D01*
X171415581Y-100980250D01*
X171420797Y-101001074D01*
X171423947Y-101022309D01*
X171425000Y-101043750D01*
X171425000Y-101556250D01*
X171423947Y-101577691D01*
X171420797Y-101598926D01*
X171415581Y-101619750D01*
X171408349Y-101639962D01*
X171399170Y-101659368D01*
X171388134Y-101677781D01*
X171375346Y-101695024D01*
X171360930Y-101710930D01*
X171345024Y-101725346D01*
X171327781Y-101738134D01*
X171309368Y-101749170D01*
X171289962Y-101758349D01*
X171269750Y-101765581D01*
X171248926Y-101770797D01*
X171227691Y-101773947D01*
X171206250Y-101775000D01*
X170768750Y-101775000D01*
X170747309Y-101773947D01*
X170726074Y-101770797D01*
X170705250Y-101765581D01*
X170685038Y-101758349D01*
X170665632Y-101749170D01*
X170647219Y-101738134D01*
X170629976Y-101725346D01*
X170614070Y-101710930D01*
X170599654Y-101695024D01*
X170586866Y-101677781D01*
X170575830Y-101659368D01*
X170566651Y-101639962D01*
X170559419Y-101619750D01*
X170554203Y-101598926D01*
X170551053Y-101577691D01*
X170550000Y-101556250D01*
X170550000Y-101043750D01*
X170551053Y-101022309D01*
X170554203Y-101001074D01*
X170559419Y-100980250D01*
X170566651Y-100960038D01*
X170575830Y-100940632D01*
X170586866Y-100922219D01*
X170599654Y-100904976D01*
X170614070Y-100889070D01*
X170629976Y-100874654D01*
X170647219Y-100861866D01*
X170665632Y-100850830D01*
X170685038Y-100841651D01*
X170705250Y-100834419D01*
X170726074Y-100829203D01*
X170747309Y-100826053D01*
X170768750Y-100825000D01*
X171206250Y-100825000D01*
X171227691Y-100826053D01*
G37*
G36*
X156027691Y-100826053D02*
G01*
X156048926Y-100829203D01*
X156069750Y-100834419D01*
X156089962Y-100841651D01*
X156109368Y-100850830D01*
X156127781Y-100861866D01*
X156145024Y-100874654D01*
X156160930Y-100889070D01*
X156175346Y-100904976D01*
X156188134Y-100922219D01*
X156199170Y-100940632D01*
X156208349Y-100960038D01*
X156215581Y-100980250D01*
X156220797Y-101001074D01*
X156223947Y-101022309D01*
X156225000Y-101043750D01*
X156225000Y-101556250D01*
X156223947Y-101577691D01*
X156220797Y-101598926D01*
X156215581Y-101619750D01*
X156208349Y-101639962D01*
X156199170Y-101659368D01*
X156188134Y-101677781D01*
X156175346Y-101695024D01*
X156160930Y-101710930D01*
X156145024Y-101725346D01*
X156127781Y-101738134D01*
X156109368Y-101749170D01*
X156089962Y-101758349D01*
X156069750Y-101765581D01*
X156048926Y-101770797D01*
X156027691Y-101773947D01*
X156006250Y-101775000D01*
X155568750Y-101775000D01*
X155547309Y-101773947D01*
X155526074Y-101770797D01*
X155505250Y-101765581D01*
X155485038Y-101758349D01*
X155465632Y-101749170D01*
X155447219Y-101738134D01*
X155429976Y-101725346D01*
X155414070Y-101710930D01*
X155399654Y-101695024D01*
X155386866Y-101677781D01*
X155375830Y-101659368D01*
X155366651Y-101639962D01*
X155359419Y-101619750D01*
X155354203Y-101598926D01*
X155351053Y-101577691D01*
X155350000Y-101556250D01*
X155350000Y-101043750D01*
X155351053Y-101022309D01*
X155354203Y-101001074D01*
X155359419Y-100980250D01*
X155366651Y-100960038D01*
X155375830Y-100940632D01*
X155386866Y-100922219D01*
X155399654Y-100904976D01*
X155414070Y-100889070D01*
X155429976Y-100874654D01*
X155447219Y-100861866D01*
X155465632Y-100850830D01*
X155485038Y-100841651D01*
X155505250Y-100834419D01*
X155526074Y-100829203D01*
X155547309Y-100826053D01*
X155568750Y-100825000D01*
X156006250Y-100825000D01*
X156027691Y-100826053D01*
G37*
G36*
X154452691Y-100826053D02*
G01*
X154473926Y-100829203D01*
X154494750Y-100834419D01*
X154514962Y-100841651D01*
X154534368Y-100850830D01*
X154552781Y-100861866D01*
X154570024Y-100874654D01*
X154585930Y-100889070D01*
X154600346Y-100904976D01*
X154613134Y-100922219D01*
X154624170Y-100940632D01*
X154633349Y-100960038D01*
X154640581Y-100980250D01*
X154645797Y-101001074D01*
X154648947Y-101022309D01*
X154650000Y-101043750D01*
X154650000Y-101556250D01*
X154648947Y-101577691D01*
X154645797Y-101598926D01*
X154640581Y-101619750D01*
X154633349Y-101639962D01*
X154624170Y-101659368D01*
X154613134Y-101677781D01*
X154600346Y-101695024D01*
X154585930Y-101710930D01*
X154570024Y-101725346D01*
X154552781Y-101738134D01*
X154534368Y-101749170D01*
X154514962Y-101758349D01*
X154494750Y-101765581D01*
X154473926Y-101770797D01*
X154452691Y-101773947D01*
X154431250Y-101775000D01*
X153993750Y-101775000D01*
X153972309Y-101773947D01*
X153951074Y-101770797D01*
X153930250Y-101765581D01*
X153910038Y-101758349D01*
X153890632Y-101749170D01*
X153872219Y-101738134D01*
X153854976Y-101725346D01*
X153839070Y-101710930D01*
X153824654Y-101695024D01*
X153811866Y-101677781D01*
X153800830Y-101659368D01*
X153791651Y-101639962D01*
X153784419Y-101619750D01*
X153779203Y-101598926D01*
X153776053Y-101577691D01*
X153775000Y-101556250D01*
X153775000Y-101043750D01*
X153776053Y-101022309D01*
X153779203Y-101001074D01*
X153784419Y-100980250D01*
X153791651Y-100960038D01*
X153800830Y-100940632D01*
X153811866Y-100922219D01*
X153824654Y-100904976D01*
X153839070Y-100889070D01*
X153854976Y-100874654D01*
X153872219Y-100861866D01*
X153890632Y-100850830D01*
X153910038Y-100841651D01*
X153930250Y-100834419D01*
X153951074Y-100829203D01*
X153972309Y-100826053D01*
X153993750Y-100825000D01*
X154431250Y-100825000D01*
X154452691Y-100826053D01*
G37*
G36*
X182187252Y-98125602D02*
G01*
X182199386Y-98127402D01*
X182211286Y-98130382D01*
X182222835Y-98134515D01*
X182233925Y-98139760D01*
X182244446Y-98146066D01*
X182254299Y-98153374D01*
X182263388Y-98161612D01*
X182271626Y-98170701D01*
X182278934Y-98180554D01*
X182285240Y-98191075D01*
X182290485Y-98202165D01*
X182294618Y-98213714D01*
X182297598Y-98225614D01*
X182299398Y-98237748D01*
X182300000Y-98250000D01*
X182300000Y-99250000D01*
X182299398Y-99262252D01*
X182297598Y-99274386D01*
X182294618Y-99286286D01*
X182290485Y-99297835D01*
X182285240Y-99308925D01*
X182278934Y-99319446D01*
X182271626Y-99329299D01*
X182263388Y-99338388D01*
X182254299Y-99346626D01*
X182244446Y-99353934D01*
X182233925Y-99360240D01*
X182222835Y-99365485D01*
X182211286Y-99369618D01*
X182199386Y-99372598D01*
X182187252Y-99374398D01*
X182175000Y-99375000D01*
X178175000Y-99375000D01*
X178162748Y-99374398D01*
X178150614Y-99372598D01*
X178138714Y-99369618D01*
X178127165Y-99365485D01*
X178116075Y-99360240D01*
X178105554Y-99353934D01*
X178095701Y-99346626D01*
X178086612Y-99338388D01*
X178078374Y-99329299D01*
X178071066Y-99319446D01*
X178064760Y-99308925D01*
X178059515Y-99297835D01*
X178055382Y-99286286D01*
X178052402Y-99274386D01*
X178050602Y-99262252D01*
X178050000Y-99250000D01*
X178050000Y-98250000D01*
X178050602Y-98237748D01*
X178052402Y-98225614D01*
X178055382Y-98213714D01*
X178059515Y-98202165D01*
X178064760Y-98191075D01*
X178071066Y-98180554D01*
X178078374Y-98170701D01*
X178086612Y-98161612D01*
X178095701Y-98153374D01*
X178105554Y-98146066D01*
X178116075Y-98139760D01*
X178127165Y-98134515D01*
X178138714Y-98130382D01*
X178150614Y-98127402D01*
X178162748Y-98125602D01*
X178175000Y-98125000D01*
X182175000Y-98125000D01*
X182187252Y-98125602D01*
G37*
G36*
X182209802Y-100800482D02*
G01*
X182219509Y-100801921D01*
X182229028Y-100804306D01*
X182238268Y-100807612D01*
X182247140Y-100811808D01*
X182255557Y-100816853D01*
X182263439Y-100822699D01*
X182270711Y-100829289D01*
X182277301Y-100836561D01*
X182283147Y-100844443D01*
X182288192Y-100852860D01*
X182292388Y-100861732D01*
X182295694Y-100870972D01*
X182298079Y-100880491D01*
X182299518Y-100890198D01*
X182300000Y-100900000D01*
X182300000Y-101700000D01*
X182299518Y-101709802D01*
X182298079Y-101719509D01*
X182295694Y-101729028D01*
X182292388Y-101738268D01*
X182288192Y-101747140D01*
X182283147Y-101755557D01*
X182277301Y-101763439D01*
X182270711Y-101770711D01*
X182263439Y-101777301D01*
X182255557Y-101783147D01*
X182247140Y-101788192D01*
X182238268Y-101792388D01*
X182229028Y-101795694D01*
X182219509Y-101798079D01*
X182209802Y-101799518D01*
X182200000Y-101800000D01*
X178150000Y-101800000D01*
X178140198Y-101799518D01*
X178130491Y-101798079D01*
X178120972Y-101795694D01*
X178111732Y-101792388D01*
X178102860Y-101788192D01*
X178094443Y-101783147D01*
X178086561Y-101777301D01*
X178079289Y-101770711D01*
X178072699Y-101763439D01*
X178066853Y-101755557D01*
X178061808Y-101747140D01*
X178057612Y-101738268D01*
X178054306Y-101729028D01*
X178051921Y-101719509D01*
X178050482Y-101709802D01*
X178050000Y-101700000D01*
X178050000Y-100900000D01*
X178050482Y-100890198D01*
X178051921Y-100880491D01*
X178054306Y-100870972D01*
X178057612Y-100861732D01*
X178061808Y-100852860D01*
X178066853Y-100844443D01*
X178072699Y-100836561D01*
X178079289Y-100829289D01*
X178086561Y-100822699D01*
X178094443Y-100816853D01*
X178102860Y-100811808D01*
X178111732Y-100807612D01*
X178120972Y-100804306D01*
X178130491Y-100801921D01*
X178140198Y-100800482D01*
X178150000Y-100800000D01*
X182200000Y-100800000D01*
X182209802Y-100800482D01*
G37*
G36*
X182187252Y-103225602D02*
G01*
X182199386Y-103227402D01*
X182211286Y-103230382D01*
X182222835Y-103234515D01*
X182233925Y-103239760D01*
X182244446Y-103246066D01*
X182254299Y-103253374D01*
X182263388Y-103261612D01*
X182271626Y-103270701D01*
X182278934Y-103280554D01*
X182285240Y-103291075D01*
X182290485Y-103302165D01*
X182294618Y-103313714D01*
X182297598Y-103325614D01*
X182299398Y-103337748D01*
X182300000Y-103350000D01*
X182300000Y-104350000D01*
X182299398Y-104362252D01*
X182297598Y-104374386D01*
X182294618Y-104386286D01*
X182290485Y-104397835D01*
X182285240Y-104408925D01*
X182278934Y-104419446D01*
X182271626Y-104429299D01*
X182263388Y-104438388D01*
X182254299Y-104446626D01*
X182244446Y-104453934D01*
X182233925Y-104460240D01*
X182222835Y-104465485D01*
X182211286Y-104469618D01*
X182199386Y-104472598D01*
X182187252Y-104474398D01*
X182175000Y-104475000D01*
X178175000Y-104475000D01*
X178162748Y-104474398D01*
X178150614Y-104472598D01*
X178138714Y-104469618D01*
X178127165Y-104465485D01*
X178116075Y-104460240D01*
X178105554Y-104453934D01*
X178095701Y-104446626D01*
X178086612Y-104438388D01*
X178078374Y-104429299D01*
X178071066Y-104419446D01*
X178064760Y-104408925D01*
X178059515Y-104397835D01*
X178055382Y-104386286D01*
X178052402Y-104374386D01*
X178050602Y-104362252D01*
X178050000Y-104350000D01*
X178050000Y-103350000D01*
X178050602Y-103337748D01*
X178052402Y-103325614D01*
X178055382Y-103313714D01*
X178059515Y-103302165D01*
X178064760Y-103291075D01*
X178071066Y-103280554D01*
X178078374Y-103270701D01*
X178086612Y-103261612D01*
X178095701Y-103253374D01*
X178105554Y-103246066D01*
X178116075Y-103239760D01*
X178127165Y-103234515D01*
X178138714Y-103230382D01*
X178150614Y-103227402D01*
X178162748Y-103225602D01*
X178175000Y-103225000D01*
X182175000Y-103225000D01*
X182187252Y-103225602D01*
G37*
G36*
X176314703Y-102300722D02*
G01*
X176329264Y-102302882D01*
X176343543Y-102306459D01*
X176357403Y-102311418D01*
X176370710Y-102317712D01*
X176383336Y-102325280D01*
X176395159Y-102334048D01*
X176406066Y-102343934D01*
X176415952Y-102354841D01*
X176424720Y-102366664D01*
X176432288Y-102379290D01*
X176438582Y-102392597D01*
X176443541Y-102406457D01*
X176447118Y-102420736D01*
X176449278Y-102435297D01*
X176450000Y-102450000D01*
X176450000Y-102750000D01*
X176449278Y-102764703D01*
X176447118Y-102779264D01*
X176443541Y-102793543D01*
X176438582Y-102807403D01*
X176432288Y-102820710D01*
X176424720Y-102833336D01*
X176415952Y-102845159D01*
X176406066Y-102856066D01*
X176395159Y-102865952D01*
X176383336Y-102874720D01*
X176370710Y-102882288D01*
X176357403Y-102888582D01*
X176343543Y-102893541D01*
X176329264Y-102897118D01*
X176314703Y-102899278D01*
X176300000Y-102900000D01*
X175900000Y-102900000D01*
X175885297Y-102899278D01*
X175870736Y-102897118D01*
X175856457Y-102893541D01*
X175842597Y-102888582D01*
X175829290Y-102882288D01*
X175816664Y-102874720D01*
X175804841Y-102865952D01*
X175793934Y-102856066D01*
X175784048Y-102845159D01*
X175775280Y-102833336D01*
X175767712Y-102820710D01*
X175761418Y-102807403D01*
X175756459Y-102793543D01*
X175752882Y-102779264D01*
X175750722Y-102764703D01*
X175750000Y-102750000D01*
X175750000Y-102450000D01*
X175750722Y-102435297D01*
X175752882Y-102420736D01*
X175756459Y-102406457D01*
X175761418Y-102392597D01*
X175767712Y-102379290D01*
X175775280Y-102366664D01*
X175784048Y-102354841D01*
X175793934Y-102343934D01*
X175804841Y-102334048D01*
X175816664Y-102325280D01*
X175829290Y-102317712D01*
X175842597Y-102311418D01*
X175856457Y-102306459D01*
X175870736Y-102302882D01*
X175885297Y-102300722D01*
X175900000Y-102300000D01*
X176300000Y-102300000D01*
X176314703Y-102300722D01*
G37*
G36*
X176314703Y-103700722D02*
G01*
X176329264Y-103702882D01*
X176343543Y-103706459D01*
X176357403Y-103711418D01*
X176370710Y-103717712D01*
X176383336Y-103725280D01*
X176395159Y-103734048D01*
X176406066Y-103743934D01*
X176415952Y-103754841D01*
X176424720Y-103766664D01*
X176432288Y-103779290D01*
X176438582Y-103792597D01*
X176443541Y-103806457D01*
X176447118Y-103820736D01*
X176449278Y-103835297D01*
X176450000Y-103850000D01*
X176450000Y-104150000D01*
X176449278Y-104164703D01*
X176447118Y-104179264D01*
X176443541Y-104193543D01*
X176438582Y-104207403D01*
X176432288Y-104220710D01*
X176424720Y-104233336D01*
X176415952Y-104245159D01*
X176406066Y-104256066D01*
X176395159Y-104265952D01*
X176383336Y-104274720D01*
X176370710Y-104282288D01*
X176357403Y-104288582D01*
X176343543Y-104293541D01*
X176329264Y-104297118D01*
X176314703Y-104299278D01*
X176300000Y-104300000D01*
X175900000Y-104300000D01*
X175885297Y-104299278D01*
X175870736Y-104297118D01*
X175856457Y-104293541D01*
X175842597Y-104288582D01*
X175829290Y-104282288D01*
X175816664Y-104274720D01*
X175804841Y-104265952D01*
X175793934Y-104256066D01*
X175784048Y-104245159D01*
X175775280Y-104233336D01*
X175767712Y-104220710D01*
X175761418Y-104207403D01*
X175756459Y-104193543D01*
X175752882Y-104179264D01*
X175750722Y-104164703D01*
X175750000Y-104150000D01*
X175750000Y-103850000D01*
X175750722Y-103835297D01*
X175752882Y-103820736D01*
X175756459Y-103806457D01*
X175761418Y-103792597D01*
X175767712Y-103779290D01*
X175775280Y-103766664D01*
X175784048Y-103754841D01*
X175793934Y-103743934D01*
X175804841Y-103734048D01*
X175816664Y-103725280D01*
X175829290Y-103717712D01*
X175842597Y-103711418D01*
X175856457Y-103706459D01*
X175870736Y-103702882D01*
X175885297Y-103700722D01*
X175900000Y-103700000D01*
X176300000Y-103700000D01*
X176314703Y-103700722D01*
G37*
G36*
X172564703Y-100950722D02*
G01*
X172579264Y-100952882D01*
X172593543Y-100956459D01*
X172607403Y-100961418D01*
X172620710Y-100967712D01*
X172633336Y-100975280D01*
X172645159Y-100984048D01*
X172656066Y-100993934D01*
X172665952Y-101004841D01*
X172674720Y-101016664D01*
X172682288Y-101029290D01*
X172688582Y-101042597D01*
X172693541Y-101056457D01*
X172697118Y-101070736D01*
X172699278Y-101085297D01*
X172700000Y-101100000D01*
X172700000Y-101500000D01*
X172699278Y-101514703D01*
X172697118Y-101529264D01*
X172693541Y-101543543D01*
X172688582Y-101557403D01*
X172682288Y-101570710D01*
X172674720Y-101583336D01*
X172665952Y-101595159D01*
X172656066Y-101606066D01*
X172645159Y-101615952D01*
X172633336Y-101624720D01*
X172620710Y-101632288D01*
X172607403Y-101638582D01*
X172593543Y-101643541D01*
X172579264Y-101647118D01*
X172564703Y-101649278D01*
X172550000Y-101650000D01*
X172250000Y-101650000D01*
X172235297Y-101649278D01*
X172220736Y-101647118D01*
X172206457Y-101643541D01*
X172192597Y-101638582D01*
X172179290Y-101632288D01*
X172166664Y-101624720D01*
X172154841Y-101615952D01*
X172143934Y-101606066D01*
X172134048Y-101595159D01*
X172125280Y-101583336D01*
X172117712Y-101570710D01*
X172111418Y-101557403D01*
X172106459Y-101543543D01*
X172102882Y-101529264D01*
X172100722Y-101514703D01*
X172100000Y-101500000D01*
X172100000Y-101100000D01*
X172100722Y-101085297D01*
X172102882Y-101070736D01*
X172106459Y-101056457D01*
X172111418Y-101042597D01*
X172117712Y-101029290D01*
X172125280Y-101016664D01*
X172134048Y-101004841D01*
X172143934Y-100993934D01*
X172154841Y-100984048D01*
X172166664Y-100975280D01*
X172179290Y-100967712D01*
X172192597Y-100961418D01*
X172206457Y-100956459D01*
X172220736Y-100952882D01*
X172235297Y-100950722D01*
X172250000Y-100950000D01*
X172550000Y-100950000D01*
X172564703Y-100950722D01*
G37*
G36*
X173964703Y-100950722D02*
G01*
X173979264Y-100952882D01*
X173993543Y-100956459D01*
X174007403Y-100961418D01*
X174020710Y-100967712D01*
X174033336Y-100975280D01*
X174045159Y-100984048D01*
X174056066Y-100993934D01*
X174065952Y-101004841D01*
X174074720Y-101016664D01*
X174082288Y-101029290D01*
X174088582Y-101042597D01*
X174093541Y-101056457D01*
X174097118Y-101070736D01*
X174099278Y-101085297D01*
X174100000Y-101100000D01*
X174100000Y-101500000D01*
X174099278Y-101514703D01*
X174097118Y-101529264D01*
X174093541Y-101543543D01*
X174088582Y-101557403D01*
X174082288Y-101570710D01*
X174074720Y-101583336D01*
X174065952Y-101595159D01*
X174056066Y-101606066D01*
X174045159Y-101615952D01*
X174033336Y-101624720D01*
X174020710Y-101632288D01*
X174007403Y-101638582D01*
X173993543Y-101643541D01*
X173979264Y-101647118D01*
X173964703Y-101649278D01*
X173950000Y-101650000D01*
X173650000Y-101650000D01*
X173635297Y-101649278D01*
X173620736Y-101647118D01*
X173606457Y-101643541D01*
X173592597Y-101638582D01*
X173579290Y-101632288D01*
X173566664Y-101624720D01*
X173554841Y-101615952D01*
X173543934Y-101606066D01*
X173534048Y-101595159D01*
X173525280Y-101583336D01*
X173517712Y-101570710D01*
X173511418Y-101557403D01*
X173506459Y-101543543D01*
X173502882Y-101529264D01*
X173500722Y-101514703D01*
X173500000Y-101500000D01*
X173500000Y-101100000D01*
X173500722Y-101085297D01*
X173502882Y-101070736D01*
X173506459Y-101056457D01*
X173511418Y-101042597D01*
X173517712Y-101029290D01*
X173525280Y-101016664D01*
X173534048Y-101004841D01*
X173543934Y-100993934D01*
X173554841Y-100984048D01*
X173566664Y-100975280D01*
X173579290Y-100967712D01*
X173592597Y-100961418D01*
X173606457Y-100956459D01*
X173620736Y-100952882D01*
X173635297Y-100950722D01*
X173650000Y-100950000D01*
X173950000Y-100950000D01*
X173964703Y-100950722D01*
G37*
G36*
X168714703Y-102300722D02*
G01*
X168729264Y-102302882D01*
X168743543Y-102306459D01*
X168757403Y-102311418D01*
X168770710Y-102317712D01*
X168783336Y-102325280D01*
X168795159Y-102334048D01*
X168806066Y-102343934D01*
X168815952Y-102354841D01*
X168824720Y-102366664D01*
X168832288Y-102379290D01*
X168838582Y-102392597D01*
X168843541Y-102406457D01*
X168847118Y-102420736D01*
X168849278Y-102435297D01*
X168850000Y-102450000D01*
X168850000Y-102750000D01*
X168849278Y-102764703D01*
X168847118Y-102779264D01*
X168843541Y-102793543D01*
X168838582Y-102807403D01*
X168832288Y-102820710D01*
X168824720Y-102833336D01*
X168815952Y-102845159D01*
X168806066Y-102856066D01*
X168795159Y-102865952D01*
X168783336Y-102874720D01*
X168770710Y-102882288D01*
X168757403Y-102888582D01*
X168743543Y-102893541D01*
X168729264Y-102897118D01*
X168714703Y-102899278D01*
X168700000Y-102900000D01*
X168300000Y-102900000D01*
X168285297Y-102899278D01*
X168270736Y-102897118D01*
X168256457Y-102893541D01*
X168242597Y-102888582D01*
X168229290Y-102882288D01*
X168216664Y-102874720D01*
X168204841Y-102865952D01*
X168193934Y-102856066D01*
X168184048Y-102845159D01*
X168175280Y-102833336D01*
X168167712Y-102820710D01*
X168161418Y-102807403D01*
X168156459Y-102793543D01*
X168152882Y-102779264D01*
X168150722Y-102764703D01*
X168150000Y-102750000D01*
X168150000Y-102450000D01*
X168150722Y-102435297D01*
X168152882Y-102420736D01*
X168156459Y-102406457D01*
X168161418Y-102392597D01*
X168167712Y-102379290D01*
X168175280Y-102366664D01*
X168184048Y-102354841D01*
X168193934Y-102343934D01*
X168204841Y-102334048D01*
X168216664Y-102325280D01*
X168229290Y-102317712D01*
X168242597Y-102311418D01*
X168256457Y-102306459D01*
X168270736Y-102302882D01*
X168285297Y-102300722D01*
X168300000Y-102300000D01*
X168700000Y-102300000D01*
X168714703Y-102300722D01*
G37*
G36*
X168714703Y-103700722D02*
G01*
X168729264Y-103702882D01*
X168743543Y-103706459D01*
X168757403Y-103711418D01*
X168770710Y-103717712D01*
X168783336Y-103725280D01*
X168795159Y-103734048D01*
X168806066Y-103743934D01*
X168815952Y-103754841D01*
X168824720Y-103766664D01*
X168832288Y-103779290D01*
X168838582Y-103792597D01*
X168843541Y-103806457D01*
X168847118Y-103820736D01*
X168849278Y-103835297D01*
X168850000Y-103850000D01*
X168850000Y-104150000D01*
X168849278Y-104164703D01*
X168847118Y-104179264D01*
X168843541Y-104193543D01*
X168838582Y-104207403D01*
X168832288Y-104220710D01*
X168824720Y-104233336D01*
X168815952Y-104245159D01*
X168806066Y-104256066D01*
X168795159Y-104265952D01*
X168783336Y-104274720D01*
X168770710Y-104282288D01*
X168757403Y-104288582D01*
X168743543Y-104293541D01*
X168729264Y-104297118D01*
X168714703Y-104299278D01*
X168700000Y-104300000D01*
X168300000Y-104300000D01*
X168285297Y-104299278D01*
X168270736Y-104297118D01*
X168256457Y-104293541D01*
X168242597Y-104288582D01*
X168229290Y-104282288D01*
X168216664Y-104274720D01*
X168204841Y-104265952D01*
X168193934Y-104256066D01*
X168184048Y-104245159D01*
X168175280Y-104233336D01*
X168167712Y-104220710D01*
X168161418Y-104207403D01*
X168156459Y-104193543D01*
X168152882Y-104179264D01*
X168150722Y-104164703D01*
X168150000Y-104150000D01*
X168150000Y-103850000D01*
X168150722Y-103835297D01*
X168152882Y-103820736D01*
X168156459Y-103806457D01*
X168161418Y-103792597D01*
X168167712Y-103779290D01*
X168175280Y-103766664D01*
X168184048Y-103754841D01*
X168193934Y-103743934D01*
X168204841Y-103734048D01*
X168216664Y-103725280D01*
X168229290Y-103717712D01*
X168242597Y-103711418D01*
X168256457Y-103706459D01*
X168270736Y-103702882D01*
X168285297Y-103700722D01*
X168300000Y-103700000D01*
X168700000Y-103700000D01*
X168714703Y-103700722D01*
G37*
G36*
X164964703Y-99450722D02*
G01*
X164979264Y-99452882D01*
X164993543Y-99456459D01*
X165007403Y-99461418D01*
X165020710Y-99467712D01*
X165033336Y-99475280D01*
X165045159Y-99484048D01*
X165056066Y-99493934D01*
X165065952Y-99504841D01*
X165074720Y-99516664D01*
X165082288Y-99529290D01*
X165088582Y-99542597D01*
X165093541Y-99556457D01*
X165097118Y-99570736D01*
X165099278Y-99585297D01*
X165100000Y-99600000D01*
X165100000Y-100000000D01*
X165099278Y-100014703D01*
X165097118Y-100029264D01*
X165093541Y-100043543D01*
X165088582Y-100057403D01*
X165082288Y-100070710D01*
X165074720Y-100083336D01*
X165065952Y-100095159D01*
X165056066Y-100106066D01*
X165045159Y-100115952D01*
X165033336Y-100124720D01*
X165020710Y-100132288D01*
X165007403Y-100138582D01*
X164993543Y-100143541D01*
X164979264Y-100147118D01*
X164964703Y-100149278D01*
X164950000Y-100150000D01*
X164650000Y-100150000D01*
X164635297Y-100149278D01*
X164620736Y-100147118D01*
X164606457Y-100143541D01*
X164592597Y-100138582D01*
X164579290Y-100132288D01*
X164566664Y-100124720D01*
X164554841Y-100115952D01*
X164543934Y-100106066D01*
X164534048Y-100095159D01*
X164525280Y-100083336D01*
X164517712Y-100070710D01*
X164511418Y-100057403D01*
X164506459Y-100043543D01*
X164502882Y-100029264D01*
X164500722Y-100014703D01*
X164500000Y-100000000D01*
X164500000Y-99600000D01*
X164500722Y-99585297D01*
X164502882Y-99570736D01*
X164506459Y-99556457D01*
X164511418Y-99542597D01*
X164517712Y-99529290D01*
X164525280Y-99516664D01*
X164534048Y-99504841D01*
X164543934Y-99493934D01*
X164554841Y-99484048D01*
X164566664Y-99475280D01*
X164579290Y-99467712D01*
X164592597Y-99461418D01*
X164606457Y-99456459D01*
X164620736Y-99452882D01*
X164635297Y-99450722D01*
X164650000Y-99450000D01*
X164950000Y-99450000D01*
X164964703Y-99450722D01*
G37*
G36*
X166364703Y-99450722D02*
G01*
X166379264Y-99452882D01*
X166393543Y-99456459D01*
X166407403Y-99461418D01*
X166420710Y-99467712D01*
X166433336Y-99475280D01*
X166445159Y-99484048D01*
X166456066Y-99493934D01*
X166465952Y-99504841D01*
X166474720Y-99516664D01*
X166482288Y-99529290D01*
X166488582Y-99542597D01*
X166493541Y-99556457D01*
X166497118Y-99570736D01*
X166499278Y-99585297D01*
X166500000Y-99600000D01*
X166500000Y-100000000D01*
X166499278Y-100014703D01*
X166497118Y-100029264D01*
X166493541Y-100043543D01*
X166488582Y-100057403D01*
X166482288Y-100070710D01*
X166474720Y-100083336D01*
X166465952Y-100095159D01*
X166456066Y-100106066D01*
X166445159Y-100115952D01*
X166433336Y-100124720D01*
X166420710Y-100132288D01*
X166407403Y-100138582D01*
X166393543Y-100143541D01*
X166379264Y-100147118D01*
X166364703Y-100149278D01*
X166350000Y-100150000D01*
X166050000Y-100150000D01*
X166035297Y-100149278D01*
X166020736Y-100147118D01*
X166006457Y-100143541D01*
X165992597Y-100138582D01*
X165979290Y-100132288D01*
X165966664Y-100124720D01*
X165954841Y-100115952D01*
X165943934Y-100106066D01*
X165934048Y-100095159D01*
X165925280Y-100083336D01*
X165917712Y-100070710D01*
X165911418Y-100057403D01*
X165906459Y-100043543D01*
X165902882Y-100029264D01*
X165900722Y-100014703D01*
X165900000Y-100000000D01*
X165900000Y-99600000D01*
X165900722Y-99585297D01*
X165902882Y-99570736D01*
X165906459Y-99556457D01*
X165911418Y-99542597D01*
X165917712Y-99529290D01*
X165925280Y-99516664D01*
X165934048Y-99504841D01*
X165943934Y-99493934D01*
X165954841Y-99484048D01*
X165966664Y-99475280D01*
X165979290Y-99467712D01*
X165992597Y-99461418D01*
X166006457Y-99456459D01*
X166020736Y-99452882D01*
X166035297Y-99450722D01*
X166050000Y-99450000D01*
X166350000Y-99450000D01*
X166364703Y-99450722D01*
G37*
G36*
X161114703Y-103700722D02*
G01*
X161129264Y-103702882D01*
X161143543Y-103706459D01*
X161157403Y-103711418D01*
X161170710Y-103717712D01*
X161183336Y-103725280D01*
X161195159Y-103734048D01*
X161206066Y-103743934D01*
X161215952Y-103754841D01*
X161224720Y-103766664D01*
X161232288Y-103779290D01*
X161238582Y-103792597D01*
X161243541Y-103806457D01*
X161247118Y-103820736D01*
X161249278Y-103835297D01*
X161250000Y-103850000D01*
X161250000Y-104150000D01*
X161249278Y-104164703D01*
X161247118Y-104179264D01*
X161243541Y-104193543D01*
X161238582Y-104207403D01*
X161232288Y-104220710D01*
X161224720Y-104233336D01*
X161215952Y-104245159D01*
X161206066Y-104256066D01*
X161195159Y-104265952D01*
X161183336Y-104274720D01*
X161170710Y-104282288D01*
X161157403Y-104288582D01*
X161143543Y-104293541D01*
X161129264Y-104297118D01*
X161114703Y-104299278D01*
X161100000Y-104300000D01*
X160700000Y-104300000D01*
X160685297Y-104299278D01*
X160670736Y-104297118D01*
X160656457Y-104293541D01*
X160642597Y-104288582D01*
X160629290Y-104282288D01*
X160616664Y-104274720D01*
X160604841Y-104265952D01*
X160593934Y-104256066D01*
X160584048Y-104245159D01*
X160575280Y-104233336D01*
X160567712Y-104220710D01*
X160561418Y-104207403D01*
X160556459Y-104193543D01*
X160552882Y-104179264D01*
X160550722Y-104164703D01*
X160550000Y-104150000D01*
X160550000Y-103850000D01*
X160550722Y-103835297D01*
X160552882Y-103820736D01*
X160556459Y-103806457D01*
X160561418Y-103792597D01*
X160567712Y-103779290D01*
X160575280Y-103766664D01*
X160584048Y-103754841D01*
X160593934Y-103743934D01*
X160604841Y-103734048D01*
X160616664Y-103725280D01*
X160629290Y-103717712D01*
X160642597Y-103711418D01*
X160656457Y-103706459D01*
X160670736Y-103702882D01*
X160685297Y-103700722D01*
X160700000Y-103700000D01*
X161100000Y-103700000D01*
X161114703Y-103700722D01*
G37*
G36*
X161114703Y-102300722D02*
G01*
X161129264Y-102302882D01*
X161143543Y-102306459D01*
X161157403Y-102311418D01*
X161170710Y-102317712D01*
X161183336Y-102325280D01*
X161195159Y-102334048D01*
X161206066Y-102343934D01*
X161215952Y-102354841D01*
X161224720Y-102366664D01*
X161232288Y-102379290D01*
X161238582Y-102392597D01*
X161243541Y-102406457D01*
X161247118Y-102420736D01*
X161249278Y-102435297D01*
X161250000Y-102450000D01*
X161250000Y-102750000D01*
X161249278Y-102764703D01*
X161247118Y-102779264D01*
X161243541Y-102793543D01*
X161238582Y-102807403D01*
X161232288Y-102820710D01*
X161224720Y-102833336D01*
X161215952Y-102845159D01*
X161206066Y-102856066D01*
X161195159Y-102865952D01*
X161183336Y-102874720D01*
X161170710Y-102882288D01*
X161157403Y-102888582D01*
X161143543Y-102893541D01*
X161129264Y-102897118D01*
X161114703Y-102899278D01*
X161100000Y-102900000D01*
X160700000Y-102900000D01*
X160685297Y-102899278D01*
X160670736Y-102897118D01*
X160656457Y-102893541D01*
X160642597Y-102888582D01*
X160629290Y-102882288D01*
X160616664Y-102874720D01*
X160604841Y-102865952D01*
X160593934Y-102856066D01*
X160584048Y-102845159D01*
X160575280Y-102833336D01*
X160567712Y-102820710D01*
X160561418Y-102807403D01*
X160556459Y-102793543D01*
X160552882Y-102779264D01*
X160550722Y-102764703D01*
X160550000Y-102750000D01*
X160550000Y-102450000D01*
X160550722Y-102435297D01*
X160552882Y-102420736D01*
X160556459Y-102406457D01*
X160561418Y-102392597D01*
X160567712Y-102379290D01*
X160575280Y-102366664D01*
X160584048Y-102354841D01*
X160593934Y-102343934D01*
X160604841Y-102334048D01*
X160616664Y-102325280D01*
X160629290Y-102317712D01*
X160642597Y-102311418D01*
X160656457Y-102306459D01*
X160670736Y-102302882D01*
X160685297Y-102300722D01*
X160700000Y-102300000D01*
X161100000Y-102300000D01*
X161114703Y-102300722D01*
G37*
G36*
X157364703Y-100950722D02*
G01*
X157379264Y-100952882D01*
X157393543Y-100956459D01*
X157407403Y-100961418D01*
X157420710Y-100967712D01*
X157433336Y-100975280D01*
X157445159Y-100984048D01*
X157456066Y-100993934D01*
X157465952Y-101004841D01*
X157474720Y-101016664D01*
X157482288Y-101029290D01*
X157488582Y-101042597D01*
X157493541Y-101056457D01*
X157497118Y-101070736D01*
X157499278Y-101085297D01*
X157500000Y-101100000D01*
X157500000Y-101500000D01*
X157499278Y-101514703D01*
X157497118Y-101529264D01*
X157493541Y-101543543D01*
X157488582Y-101557403D01*
X157482288Y-101570710D01*
X157474720Y-101583336D01*
X157465952Y-101595159D01*
X157456066Y-101606066D01*
X157445159Y-101615952D01*
X157433336Y-101624720D01*
X157420710Y-101632288D01*
X157407403Y-101638582D01*
X157393543Y-101643541D01*
X157379264Y-101647118D01*
X157364703Y-101649278D01*
X157350000Y-101650000D01*
X157050000Y-101650000D01*
X157035297Y-101649278D01*
X157020736Y-101647118D01*
X157006457Y-101643541D01*
X156992597Y-101638582D01*
X156979290Y-101632288D01*
X156966664Y-101624720D01*
X156954841Y-101615952D01*
X156943934Y-101606066D01*
X156934048Y-101595159D01*
X156925280Y-101583336D01*
X156917712Y-101570710D01*
X156911418Y-101557403D01*
X156906459Y-101543543D01*
X156902882Y-101529264D01*
X156900722Y-101514703D01*
X156900000Y-101500000D01*
X156900000Y-101100000D01*
X156900722Y-101085297D01*
X156902882Y-101070736D01*
X156906459Y-101056457D01*
X156911418Y-101042597D01*
X156917712Y-101029290D01*
X156925280Y-101016664D01*
X156934048Y-101004841D01*
X156943934Y-100993934D01*
X156954841Y-100984048D01*
X156966664Y-100975280D01*
X156979290Y-100967712D01*
X156992597Y-100961418D01*
X157006457Y-100956459D01*
X157020736Y-100952882D01*
X157035297Y-100950722D01*
X157050000Y-100950000D01*
X157350000Y-100950000D01*
X157364703Y-100950722D01*
G37*
G36*
X158764703Y-100950722D02*
G01*
X158779264Y-100952882D01*
X158793543Y-100956459D01*
X158807403Y-100961418D01*
X158820710Y-100967712D01*
X158833336Y-100975280D01*
X158845159Y-100984048D01*
X158856066Y-100993934D01*
X158865952Y-101004841D01*
X158874720Y-101016664D01*
X158882288Y-101029290D01*
X158888582Y-101042597D01*
X158893541Y-101056457D01*
X158897118Y-101070736D01*
X158899278Y-101085297D01*
X158900000Y-101100000D01*
X158900000Y-101500000D01*
X158899278Y-101514703D01*
X158897118Y-101529264D01*
X158893541Y-101543543D01*
X158888582Y-101557403D01*
X158882288Y-101570710D01*
X158874720Y-101583336D01*
X158865952Y-101595159D01*
X158856066Y-101606066D01*
X158845159Y-101615952D01*
X158833336Y-101624720D01*
X158820710Y-101632288D01*
X158807403Y-101638582D01*
X158793543Y-101643541D01*
X158779264Y-101647118D01*
X158764703Y-101649278D01*
X158750000Y-101650000D01*
X158450000Y-101650000D01*
X158435297Y-101649278D01*
X158420736Y-101647118D01*
X158406457Y-101643541D01*
X158392597Y-101638582D01*
X158379290Y-101632288D01*
X158366664Y-101624720D01*
X158354841Y-101615952D01*
X158343934Y-101606066D01*
X158334048Y-101595159D01*
X158325280Y-101583336D01*
X158317712Y-101570710D01*
X158311418Y-101557403D01*
X158306459Y-101543543D01*
X158302882Y-101529264D01*
X158300722Y-101514703D01*
X158300000Y-101500000D01*
X158300000Y-101100000D01*
X158300722Y-101085297D01*
X158302882Y-101070736D01*
X158306459Y-101056457D01*
X158311418Y-101042597D01*
X158317712Y-101029290D01*
X158325280Y-101016664D01*
X158334048Y-101004841D01*
X158343934Y-100993934D01*
X158354841Y-100984048D01*
X158366664Y-100975280D01*
X158379290Y-100967712D01*
X158392597Y-100961418D01*
X158406457Y-100956459D01*
X158420736Y-100952882D01*
X158435297Y-100950722D01*
X158450000Y-100950000D01*
X158750000Y-100950000D01*
X158764703Y-100950722D01*
G37*
G36*
X153514703Y-103700722D02*
G01*
X153529264Y-103702882D01*
X153543543Y-103706459D01*
X153557403Y-103711418D01*
X153570710Y-103717712D01*
X153583336Y-103725280D01*
X153595159Y-103734048D01*
X153606066Y-103743934D01*
X153615952Y-103754841D01*
X153624720Y-103766664D01*
X153632288Y-103779290D01*
X153638582Y-103792597D01*
X153643541Y-103806457D01*
X153647118Y-103820736D01*
X153649278Y-103835297D01*
X153650000Y-103850000D01*
X153650000Y-104150000D01*
X153649278Y-104164703D01*
X153647118Y-104179264D01*
X153643541Y-104193543D01*
X153638582Y-104207403D01*
X153632288Y-104220710D01*
X153624720Y-104233336D01*
X153615952Y-104245159D01*
X153606066Y-104256066D01*
X153595159Y-104265952D01*
X153583336Y-104274720D01*
X153570710Y-104282288D01*
X153557403Y-104288582D01*
X153543543Y-104293541D01*
X153529264Y-104297118D01*
X153514703Y-104299278D01*
X153500000Y-104300000D01*
X153100000Y-104300000D01*
X153085297Y-104299278D01*
X153070736Y-104297118D01*
X153056457Y-104293541D01*
X153042597Y-104288582D01*
X153029290Y-104282288D01*
X153016664Y-104274720D01*
X153004841Y-104265952D01*
X152993934Y-104256066D01*
X152984048Y-104245159D01*
X152975280Y-104233336D01*
X152967712Y-104220710D01*
X152961418Y-104207403D01*
X152956459Y-104193543D01*
X152952882Y-104179264D01*
X152950722Y-104164703D01*
X152950000Y-104150000D01*
X152950000Y-103850000D01*
X152950722Y-103835297D01*
X152952882Y-103820736D01*
X152956459Y-103806457D01*
X152961418Y-103792597D01*
X152967712Y-103779290D01*
X152975280Y-103766664D01*
X152984048Y-103754841D01*
X152993934Y-103743934D01*
X153004841Y-103734048D01*
X153016664Y-103725280D01*
X153029290Y-103717712D01*
X153042597Y-103711418D01*
X153056457Y-103706459D01*
X153070736Y-103702882D01*
X153085297Y-103700722D01*
X153100000Y-103700000D01*
X153500000Y-103700000D01*
X153514703Y-103700722D01*
G37*
G36*
X153514703Y-102300722D02*
G01*
X153529264Y-102302882D01*
X153543543Y-102306459D01*
X153557403Y-102311418D01*
X153570710Y-102317712D01*
X153583336Y-102325280D01*
X153595159Y-102334048D01*
X153606066Y-102343934D01*
X153615952Y-102354841D01*
X153624720Y-102366664D01*
X153632288Y-102379290D01*
X153638582Y-102392597D01*
X153643541Y-102406457D01*
X153647118Y-102420736D01*
X153649278Y-102435297D01*
X153650000Y-102450000D01*
X153650000Y-102750000D01*
X153649278Y-102764703D01*
X153647118Y-102779264D01*
X153643541Y-102793543D01*
X153638582Y-102807403D01*
X153632288Y-102820710D01*
X153624720Y-102833336D01*
X153615952Y-102845159D01*
X153606066Y-102856066D01*
X153595159Y-102865952D01*
X153583336Y-102874720D01*
X153570710Y-102882288D01*
X153557403Y-102888582D01*
X153543543Y-102893541D01*
X153529264Y-102897118D01*
X153514703Y-102899278D01*
X153500000Y-102900000D01*
X153100000Y-102900000D01*
X153085297Y-102899278D01*
X153070736Y-102897118D01*
X153056457Y-102893541D01*
X153042597Y-102888582D01*
X153029290Y-102882288D01*
X153016664Y-102874720D01*
X153004841Y-102865952D01*
X152993934Y-102856066D01*
X152984048Y-102845159D01*
X152975280Y-102833336D01*
X152967712Y-102820710D01*
X152961418Y-102807403D01*
X152956459Y-102793543D01*
X152952882Y-102779264D01*
X152950722Y-102764703D01*
X152950000Y-102750000D01*
X152950000Y-102450000D01*
X152950722Y-102435297D01*
X152952882Y-102420736D01*
X152956459Y-102406457D01*
X152961418Y-102392597D01*
X152967712Y-102379290D01*
X152975280Y-102366664D01*
X152984048Y-102354841D01*
X152993934Y-102343934D01*
X153004841Y-102334048D01*
X153016664Y-102325280D01*
X153029290Y-102317712D01*
X153042597Y-102311418D01*
X153056457Y-102306459D01*
X153070736Y-102302882D01*
X153085297Y-102300722D01*
X153100000Y-102300000D01*
X153500000Y-102300000D01*
X153514703Y-102300722D01*
G37*
G36*
X177227691Y-100826053D02*
G01*
X177248926Y-100829203D01*
X177269750Y-100834419D01*
X177289962Y-100841651D01*
X177309368Y-100850830D01*
X177327781Y-100861866D01*
X177345024Y-100874654D01*
X177360930Y-100889070D01*
X177375346Y-100904976D01*
X177388134Y-100922219D01*
X177399170Y-100940632D01*
X177408349Y-100960038D01*
X177415581Y-100980250D01*
X177420797Y-101001074D01*
X177423947Y-101022309D01*
X177425000Y-101043750D01*
X177425000Y-101556250D01*
X177423947Y-101577691D01*
X177420797Y-101598926D01*
X177415581Y-101619750D01*
X177408349Y-101639962D01*
X177399170Y-101659368D01*
X177388134Y-101677781D01*
X177375346Y-101695024D01*
X177360930Y-101710930D01*
X177345024Y-101725346D01*
X177327781Y-101738134D01*
X177309368Y-101749170D01*
X177289962Y-101758349D01*
X177269750Y-101765581D01*
X177248926Y-101770797D01*
X177227691Y-101773947D01*
X177206250Y-101775000D01*
X176768750Y-101775000D01*
X176747309Y-101773947D01*
X176726074Y-101770797D01*
X176705250Y-101765581D01*
X176685038Y-101758349D01*
X176665632Y-101749170D01*
X176647219Y-101738134D01*
X176629976Y-101725346D01*
X176614070Y-101710930D01*
X176599654Y-101695024D01*
X176586866Y-101677781D01*
X176575830Y-101659368D01*
X176566651Y-101639962D01*
X176559419Y-101619750D01*
X176554203Y-101598926D01*
X176551053Y-101577691D01*
X176550000Y-101556250D01*
X176550000Y-101043750D01*
X176551053Y-101022309D01*
X176554203Y-101001074D01*
X176559419Y-100980250D01*
X176566651Y-100960038D01*
X176575830Y-100940632D01*
X176586866Y-100922219D01*
X176599654Y-100904976D01*
X176614070Y-100889070D01*
X176629976Y-100874654D01*
X176647219Y-100861866D01*
X176665632Y-100850830D01*
X176685038Y-100841651D01*
X176705250Y-100834419D01*
X176726074Y-100829203D01*
X176747309Y-100826053D01*
X176768750Y-100825000D01*
X177206250Y-100825000D01*
X177227691Y-100826053D01*
G37*
G36*
X175652691Y-100826053D02*
G01*
X175673926Y-100829203D01*
X175694750Y-100834419D01*
X175714962Y-100841651D01*
X175734368Y-100850830D01*
X175752781Y-100861866D01*
X175770024Y-100874654D01*
X175785930Y-100889070D01*
X175800346Y-100904976D01*
X175813134Y-100922219D01*
X175824170Y-100940632D01*
X175833349Y-100960038D01*
X175840581Y-100980250D01*
X175845797Y-101001074D01*
X175848947Y-101022309D01*
X175850000Y-101043750D01*
X175850000Y-101556250D01*
X175848947Y-101577691D01*
X175845797Y-101598926D01*
X175840581Y-101619750D01*
X175833349Y-101639962D01*
X175824170Y-101659368D01*
X175813134Y-101677781D01*
X175800346Y-101695024D01*
X175785930Y-101710930D01*
X175770024Y-101725346D01*
X175752781Y-101738134D01*
X175734368Y-101749170D01*
X175714962Y-101758349D01*
X175694750Y-101765581D01*
X175673926Y-101770797D01*
X175652691Y-101773947D01*
X175631250Y-101775000D01*
X175193750Y-101775000D01*
X175172309Y-101773947D01*
X175151074Y-101770797D01*
X175130250Y-101765581D01*
X175110038Y-101758349D01*
X175090632Y-101749170D01*
X175072219Y-101738134D01*
X175054976Y-101725346D01*
X175039070Y-101710930D01*
X175024654Y-101695024D01*
X175011866Y-101677781D01*
X175000830Y-101659368D01*
X174991651Y-101639962D01*
X174984419Y-101619750D01*
X174979203Y-101598926D01*
X174976053Y-101577691D01*
X174975000Y-101556250D01*
X174975000Y-101043750D01*
X174976053Y-101022309D01*
X174979203Y-101001074D01*
X174984419Y-100980250D01*
X174991651Y-100960038D01*
X175000830Y-100940632D01*
X175011866Y-100922219D01*
X175024654Y-100904976D01*
X175039070Y-100889070D01*
X175054976Y-100874654D01*
X175072219Y-100861866D01*
X175090632Y-100850830D01*
X175110038Y-100841651D01*
X175130250Y-100834419D01*
X175151074Y-100829203D01*
X175172309Y-100826053D01*
X175193750Y-100825000D01*
X175631250Y-100825000D01*
X175652691Y-100826053D01*
G37*
G36*
X175627691Y-99326053D02*
G01*
X175648926Y-99329203D01*
X175669750Y-99334419D01*
X175689962Y-99341651D01*
X175709368Y-99350830D01*
X175727781Y-99361866D01*
X175745024Y-99374654D01*
X175760930Y-99389070D01*
X175775346Y-99404976D01*
X175788134Y-99422219D01*
X175799170Y-99440632D01*
X175808349Y-99460038D01*
X175815581Y-99480250D01*
X175820797Y-99501074D01*
X175823947Y-99522309D01*
X175825000Y-99543750D01*
X175825000Y-100056250D01*
X175823947Y-100077691D01*
X175820797Y-100098926D01*
X175815581Y-100119750D01*
X175808349Y-100139962D01*
X175799170Y-100159368D01*
X175788134Y-100177781D01*
X175775346Y-100195024D01*
X175760930Y-100210930D01*
X175745024Y-100225346D01*
X175727781Y-100238134D01*
X175709368Y-100249170D01*
X175689962Y-100258349D01*
X175669750Y-100265581D01*
X175648926Y-100270797D01*
X175627691Y-100273947D01*
X175606250Y-100275000D01*
X175168750Y-100275000D01*
X175147309Y-100273947D01*
X175126074Y-100270797D01*
X175105250Y-100265581D01*
X175085038Y-100258349D01*
X175065632Y-100249170D01*
X175047219Y-100238134D01*
X175029976Y-100225346D01*
X175014070Y-100210930D01*
X174999654Y-100195024D01*
X174986866Y-100177781D01*
X174975830Y-100159368D01*
X174966651Y-100139962D01*
X174959419Y-100119750D01*
X174954203Y-100098926D01*
X174951053Y-100077691D01*
X174950000Y-100056250D01*
X174950000Y-99543750D01*
X174951053Y-99522309D01*
X174954203Y-99501074D01*
X174959419Y-99480250D01*
X174966651Y-99460038D01*
X174975830Y-99440632D01*
X174986866Y-99422219D01*
X174999654Y-99404976D01*
X175014070Y-99389070D01*
X175029976Y-99374654D01*
X175047219Y-99361866D01*
X175065632Y-99350830D01*
X175085038Y-99341651D01*
X175105250Y-99334419D01*
X175126074Y-99329203D01*
X175147309Y-99326053D01*
X175168750Y-99325000D01*
X175606250Y-99325000D01*
X175627691Y-99326053D01*
G37*
G36*
X174052691Y-99326053D02*
G01*
X174073926Y-99329203D01*
X174094750Y-99334419D01*
X174114962Y-99341651D01*
X174134368Y-99350830D01*
X174152781Y-99361866D01*
X174170024Y-99374654D01*
X174185930Y-99389070D01*
X174200346Y-99404976D01*
X174213134Y-99422219D01*
X174224170Y-99440632D01*
X174233349Y-99460038D01*
X174240581Y-99480250D01*
X174245797Y-99501074D01*
X174248947Y-99522309D01*
X174250000Y-99543750D01*
X174250000Y-100056250D01*
X174248947Y-100077691D01*
X174245797Y-100098926D01*
X174240581Y-100119750D01*
X174233349Y-100139962D01*
X174224170Y-100159368D01*
X174213134Y-100177781D01*
X174200346Y-100195024D01*
X174185930Y-100210930D01*
X174170024Y-100225346D01*
X174152781Y-100238134D01*
X174134368Y-100249170D01*
X174114962Y-100258349D01*
X174094750Y-100265581D01*
X174073926Y-100270797D01*
X174052691Y-100273947D01*
X174031250Y-100275000D01*
X173593750Y-100275000D01*
X173572309Y-100273947D01*
X173551074Y-100270797D01*
X173530250Y-100265581D01*
X173510038Y-100258349D01*
X173490632Y-100249170D01*
X173472219Y-100238134D01*
X173454976Y-100225346D01*
X173439070Y-100210930D01*
X173424654Y-100195024D01*
X173411866Y-100177781D01*
X173400830Y-100159368D01*
X173391651Y-100139962D01*
X173384419Y-100119750D01*
X173379203Y-100098926D01*
X173376053Y-100077691D01*
X173375000Y-100056250D01*
X173375000Y-99543750D01*
X173376053Y-99522309D01*
X173379203Y-99501074D01*
X173384419Y-99480250D01*
X173391651Y-99460038D01*
X173400830Y-99440632D01*
X173411866Y-99422219D01*
X173424654Y-99404976D01*
X173439070Y-99389070D01*
X173454976Y-99374654D01*
X173472219Y-99361866D01*
X173490632Y-99350830D01*
X173510038Y-99341651D01*
X173530250Y-99334419D01*
X173551074Y-99329203D01*
X173572309Y-99326053D01*
X173593750Y-99325000D01*
X174031250Y-99325000D01*
X174052691Y-99326053D01*
G37*
G36*
X168052691Y-99326053D02*
G01*
X168073926Y-99329203D01*
X168094750Y-99334419D01*
X168114962Y-99341651D01*
X168134368Y-99350830D01*
X168152781Y-99361866D01*
X168170024Y-99374654D01*
X168185930Y-99389070D01*
X168200346Y-99404976D01*
X168213134Y-99422219D01*
X168224170Y-99440632D01*
X168233349Y-99460038D01*
X168240581Y-99480250D01*
X168245797Y-99501074D01*
X168248947Y-99522309D01*
X168250000Y-99543750D01*
X168250000Y-100056250D01*
X168248947Y-100077691D01*
X168245797Y-100098926D01*
X168240581Y-100119750D01*
X168233349Y-100139962D01*
X168224170Y-100159368D01*
X168213134Y-100177781D01*
X168200346Y-100195024D01*
X168185930Y-100210930D01*
X168170024Y-100225346D01*
X168152781Y-100238134D01*
X168134368Y-100249170D01*
X168114962Y-100258349D01*
X168094750Y-100265581D01*
X168073926Y-100270797D01*
X168052691Y-100273947D01*
X168031250Y-100275000D01*
X167593750Y-100275000D01*
X167572309Y-100273947D01*
X167551074Y-100270797D01*
X167530250Y-100265581D01*
X167510038Y-100258349D01*
X167490632Y-100249170D01*
X167472219Y-100238134D01*
X167454976Y-100225346D01*
X167439070Y-100210930D01*
X167424654Y-100195024D01*
X167411866Y-100177781D01*
X167400830Y-100159368D01*
X167391651Y-100139962D01*
X167384419Y-100119750D01*
X167379203Y-100098926D01*
X167376053Y-100077691D01*
X167375000Y-100056250D01*
X167375000Y-99543750D01*
X167376053Y-99522309D01*
X167379203Y-99501074D01*
X167384419Y-99480250D01*
X167391651Y-99460038D01*
X167400830Y-99440632D01*
X167411866Y-99422219D01*
X167424654Y-99404976D01*
X167439070Y-99389070D01*
X167454976Y-99374654D01*
X167472219Y-99361866D01*
X167490632Y-99350830D01*
X167510038Y-99341651D01*
X167530250Y-99334419D01*
X167551074Y-99329203D01*
X167572309Y-99326053D01*
X167593750Y-99325000D01*
X168031250Y-99325000D01*
X168052691Y-99326053D01*
G37*
G36*
X169627691Y-99326053D02*
G01*
X169648926Y-99329203D01*
X169669750Y-99334419D01*
X169689962Y-99341651D01*
X169709368Y-99350830D01*
X169727781Y-99361866D01*
X169745024Y-99374654D01*
X169760930Y-99389070D01*
X169775346Y-99404976D01*
X169788134Y-99422219D01*
X169799170Y-99440632D01*
X169808349Y-99460038D01*
X169815581Y-99480250D01*
X169820797Y-99501074D01*
X169823947Y-99522309D01*
X169825000Y-99543750D01*
X169825000Y-100056250D01*
X169823947Y-100077691D01*
X169820797Y-100098926D01*
X169815581Y-100119750D01*
X169808349Y-100139962D01*
X169799170Y-100159368D01*
X169788134Y-100177781D01*
X169775346Y-100195024D01*
X169760930Y-100210930D01*
X169745024Y-100225346D01*
X169727781Y-100238134D01*
X169709368Y-100249170D01*
X169689962Y-100258349D01*
X169669750Y-100265581D01*
X169648926Y-100270797D01*
X169627691Y-100273947D01*
X169606250Y-100275000D01*
X169168750Y-100275000D01*
X169147309Y-100273947D01*
X169126074Y-100270797D01*
X169105250Y-100265581D01*
X169085038Y-100258349D01*
X169065632Y-100249170D01*
X169047219Y-100238134D01*
X169029976Y-100225346D01*
X169014070Y-100210930D01*
X168999654Y-100195024D01*
X168986866Y-100177781D01*
X168975830Y-100159368D01*
X168966651Y-100139962D01*
X168959419Y-100119750D01*
X168954203Y-100098926D01*
X168951053Y-100077691D01*
X168950000Y-100056250D01*
X168950000Y-99543750D01*
X168951053Y-99522309D01*
X168954203Y-99501074D01*
X168959419Y-99480250D01*
X168966651Y-99460038D01*
X168975830Y-99440632D01*
X168986866Y-99422219D01*
X168999654Y-99404976D01*
X169014070Y-99389070D01*
X169029976Y-99374654D01*
X169047219Y-99361866D01*
X169065632Y-99350830D01*
X169085038Y-99341651D01*
X169105250Y-99334419D01*
X169126074Y-99329203D01*
X169147309Y-99326053D01*
X169168750Y-99325000D01*
X169606250Y-99325000D01*
X169627691Y-99326053D01*
G37*
G36*
X166452691Y-100826053D02*
G01*
X166473926Y-100829203D01*
X166494750Y-100834419D01*
X166514962Y-100841651D01*
X166534368Y-100850830D01*
X166552781Y-100861866D01*
X166570024Y-100874654D01*
X166585930Y-100889070D01*
X166600346Y-100904976D01*
X166613134Y-100922219D01*
X166624170Y-100940632D01*
X166633349Y-100960038D01*
X166640581Y-100980250D01*
X166645797Y-101001074D01*
X166648947Y-101022309D01*
X166650000Y-101043750D01*
X166650000Y-101556250D01*
X166648947Y-101577691D01*
X166645797Y-101598926D01*
X166640581Y-101619750D01*
X166633349Y-101639962D01*
X166624170Y-101659368D01*
X166613134Y-101677781D01*
X166600346Y-101695024D01*
X166585930Y-101710930D01*
X166570024Y-101725346D01*
X166552781Y-101738134D01*
X166534368Y-101749170D01*
X166514962Y-101758349D01*
X166494750Y-101765581D01*
X166473926Y-101770797D01*
X166452691Y-101773947D01*
X166431250Y-101775000D01*
X165993750Y-101775000D01*
X165972309Y-101773947D01*
X165951074Y-101770797D01*
X165930250Y-101765581D01*
X165910038Y-101758349D01*
X165890632Y-101749170D01*
X165872219Y-101738134D01*
X165854976Y-101725346D01*
X165839070Y-101710930D01*
X165824654Y-101695024D01*
X165811866Y-101677781D01*
X165800830Y-101659368D01*
X165791651Y-101639962D01*
X165784419Y-101619750D01*
X165779203Y-101598926D01*
X165776053Y-101577691D01*
X165775000Y-101556250D01*
X165775000Y-101043750D01*
X165776053Y-101022309D01*
X165779203Y-101001074D01*
X165784419Y-100980250D01*
X165791651Y-100960038D01*
X165800830Y-100940632D01*
X165811866Y-100922219D01*
X165824654Y-100904976D01*
X165839070Y-100889070D01*
X165854976Y-100874654D01*
X165872219Y-100861866D01*
X165890632Y-100850830D01*
X165910038Y-100841651D01*
X165930250Y-100834419D01*
X165951074Y-100829203D01*
X165972309Y-100826053D01*
X165993750Y-100825000D01*
X166431250Y-100825000D01*
X166452691Y-100826053D01*
G37*
G36*
X168027691Y-100826053D02*
G01*
X168048926Y-100829203D01*
X168069750Y-100834419D01*
X168089962Y-100841651D01*
X168109368Y-100850830D01*
X168127781Y-100861866D01*
X168145024Y-100874654D01*
X168160930Y-100889070D01*
X168175346Y-100904976D01*
X168188134Y-100922219D01*
X168199170Y-100940632D01*
X168208349Y-100960038D01*
X168215581Y-100980250D01*
X168220797Y-101001074D01*
X168223947Y-101022309D01*
X168225000Y-101043750D01*
X168225000Y-101556250D01*
X168223947Y-101577691D01*
X168220797Y-101598926D01*
X168215581Y-101619750D01*
X168208349Y-101639962D01*
X168199170Y-101659368D01*
X168188134Y-101677781D01*
X168175346Y-101695024D01*
X168160930Y-101710930D01*
X168145024Y-101725346D01*
X168127781Y-101738134D01*
X168109368Y-101749170D01*
X168089962Y-101758349D01*
X168069750Y-101765581D01*
X168048926Y-101770797D01*
X168027691Y-101773947D01*
X168006250Y-101775000D01*
X167568750Y-101775000D01*
X167547309Y-101773947D01*
X167526074Y-101770797D01*
X167505250Y-101765581D01*
X167485038Y-101758349D01*
X167465632Y-101749170D01*
X167447219Y-101738134D01*
X167429976Y-101725346D01*
X167414070Y-101710930D01*
X167399654Y-101695024D01*
X167386866Y-101677781D01*
X167375830Y-101659368D01*
X167366651Y-101639962D01*
X167359419Y-101619750D01*
X167354203Y-101598926D01*
X167351053Y-101577691D01*
X167350000Y-101556250D01*
X167350000Y-101043750D01*
X167351053Y-101022309D01*
X167354203Y-101001074D01*
X167359419Y-100980250D01*
X167366651Y-100960038D01*
X167375830Y-100940632D01*
X167386866Y-100922219D01*
X167399654Y-100904976D01*
X167414070Y-100889070D01*
X167429976Y-100874654D01*
X167447219Y-100861866D01*
X167465632Y-100850830D01*
X167485038Y-100841651D01*
X167505250Y-100834419D01*
X167526074Y-100829203D01*
X167547309Y-100826053D01*
X167568750Y-100825000D01*
X168006250Y-100825000D01*
X168027691Y-100826053D01*
G37*
G36*
X160452691Y-100826053D02*
G01*
X160473926Y-100829203D01*
X160494750Y-100834419D01*
X160514962Y-100841651D01*
X160534368Y-100850830D01*
X160552781Y-100861866D01*
X160570024Y-100874654D01*
X160585930Y-100889070D01*
X160600346Y-100904976D01*
X160613134Y-100922219D01*
X160624170Y-100940632D01*
X160633349Y-100960038D01*
X160640581Y-100980250D01*
X160645797Y-101001074D01*
X160648947Y-101022309D01*
X160650000Y-101043750D01*
X160650000Y-101556250D01*
X160648947Y-101577691D01*
X160645797Y-101598926D01*
X160640581Y-101619750D01*
X160633349Y-101639962D01*
X160624170Y-101659368D01*
X160613134Y-101677781D01*
X160600346Y-101695024D01*
X160585930Y-101710930D01*
X160570024Y-101725346D01*
X160552781Y-101738134D01*
X160534368Y-101749170D01*
X160514962Y-101758349D01*
X160494750Y-101765581D01*
X160473926Y-101770797D01*
X160452691Y-101773947D01*
X160431250Y-101775000D01*
X159993750Y-101775000D01*
X159972309Y-101773947D01*
X159951074Y-101770797D01*
X159930250Y-101765581D01*
X159910038Y-101758349D01*
X159890632Y-101749170D01*
X159872219Y-101738134D01*
X159854976Y-101725346D01*
X159839070Y-101710930D01*
X159824654Y-101695024D01*
X159811866Y-101677781D01*
X159800830Y-101659368D01*
X159791651Y-101639962D01*
X159784419Y-101619750D01*
X159779203Y-101598926D01*
X159776053Y-101577691D01*
X159775000Y-101556250D01*
X159775000Y-101043750D01*
X159776053Y-101022309D01*
X159779203Y-101001074D01*
X159784419Y-100980250D01*
X159791651Y-100960038D01*
X159800830Y-100940632D01*
X159811866Y-100922219D01*
X159824654Y-100904976D01*
X159839070Y-100889070D01*
X159854976Y-100874654D01*
X159872219Y-100861866D01*
X159890632Y-100850830D01*
X159910038Y-100841651D01*
X159930250Y-100834419D01*
X159951074Y-100829203D01*
X159972309Y-100826053D01*
X159993750Y-100825000D01*
X160431250Y-100825000D01*
X160452691Y-100826053D01*
G37*
G36*
X162027691Y-100826053D02*
G01*
X162048926Y-100829203D01*
X162069750Y-100834419D01*
X162089962Y-100841651D01*
X162109368Y-100850830D01*
X162127781Y-100861866D01*
X162145024Y-100874654D01*
X162160930Y-100889070D01*
X162175346Y-100904976D01*
X162188134Y-100922219D01*
X162199170Y-100940632D01*
X162208349Y-100960038D01*
X162215581Y-100980250D01*
X162220797Y-101001074D01*
X162223947Y-101022309D01*
X162225000Y-101043750D01*
X162225000Y-101556250D01*
X162223947Y-101577691D01*
X162220797Y-101598926D01*
X162215581Y-101619750D01*
X162208349Y-101639962D01*
X162199170Y-101659368D01*
X162188134Y-101677781D01*
X162175346Y-101695024D01*
X162160930Y-101710930D01*
X162145024Y-101725346D01*
X162127781Y-101738134D01*
X162109368Y-101749170D01*
X162089962Y-101758349D01*
X162069750Y-101765581D01*
X162048926Y-101770797D01*
X162027691Y-101773947D01*
X162006250Y-101775000D01*
X161568750Y-101775000D01*
X161547309Y-101773947D01*
X161526074Y-101770797D01*
X161505250Y-101765581D01*
X161485038Y-101758349D01*
X161465632Y-101749170D01*
X161447219Y-101738134D01*
X161429976Y-101725346D01*
X161414070Y-101710930D01*
X161399654Y-101695024D01*
X161386866Y-101677781D01*
X161375830Y-101659368D01*
X161366651Y-101639962D01*
X161359419Y-101619750D01*
X161354203Y-101598926D01*
X161351053Y-101577691D01*
X161350000Y-101556250D01*
X161350000Y-101043750D01*
X161351053Y-101022309D01*
X161354203Y-101001074D01*
X161359419Y-100980250D01*
X161366651Y-100960038D01*
X161375830Y-100940632D01*
X161386866Y-100922219D01*
X161399654Y-100904976D01*
X161414070Y-100889070D01*
X161429976Y-100874654D01*
X161447219Y-100861866D01*
X161465632Y-100850830D01*
X161485038Y-100841651D01*
X161505250Y-100834419D01*
X161526074Y-100829203D01*
X161547309Y-100826053D01*
X161568750Y-100825000D01*
X162006250Y-100825000D01*
X162027691Y-100826053D01*
G37*
G36*
X158852691Y-99326053D02*
G01*
X158873926Y-99329203D01*
X158894750Y-99334419D01*
X158914962Y-99341651D01*
X158934368Y-99350830D01*
X158952781Y-99361866D01*
X158970024Y-99374654D01*
X158985930Y-99389070D01*
X159000346Y-99404976D01*
X159013134Y-99422219D01*
X159024170Y-99440632D01*
X159033349Y-99460038D01*
X159040581Y-99480250D01*
X159045797Y-99501074D01*
X159048947Y-99522309D01*
X159050000Y-99543750D01*
X159050000Y-100056250D01*
X159048947Y-100077691D01*
X159045797Y-100098926D01*
X159040581Y-100119750D01*
X159033349Y-100139962D01*
X159024170Y-100159368D01*
X159013134Y-100177781D01*
X159000346Y-100195024D01*
X158985930Y-100210930D01*
X158970024Y-100225346D01*
X158952781Y-100238134D01*
X158934368Y-100249170D01*
X158914962Y-100258349D01*
X158894750Y-100265581D01*
X158873926Y-100270797D01*
X158852691Y-100273947D01*
X158831250Y-100275000D01*
X158393750Y-100275000D01*
X158372309Y-100273947D01*
X158351074Y-100270797D01*
X158330250Y-100265581D01*
X158310038Y-100258349D01*
X158290632Y-100249170D01*
X158272219Y-100238134D01*
X158254976Y-100225346D01*
X158239070Y-100210930D01*
X158224654Y-100195024D01*
X158211866Y-100177781D01*
X158200830Y-100159368D01*
X158191651Y-100139962D01*
X158184419Y-100119750D01*
X158179203Y-100098926D01*
X158176053Y-100077691D01*
X158175000Y-100056250D01*
X158175000Y-99543750D01*
X158176053Y-99522309D01*
X158179203Y-99501074D01*
X158184419Y-99480250D01*
X158191651Y-99460038D01*
X158200830Y-99440632D01*
X158211866Y-99422219D01*
X158224654Y-99404976D01*
X158239070Y-99389070D01*
X158254976Y-99374654D01*
X158272219Y-99361866D01*
X158290632Y-99350830D01*
X158310038Y-99341651D01*
X158330250Y-99334419D01*
X158351074Y-99329203D01*
X158372309Y-99326053D01*
X158393750Y-99325000D01*
X158831250Y-99325000D01*
X158852691Y-99326053D01*
G37*
G36*
X160427691Y-99326053D02*
G01*
X160448926Y-99329203D01*
X160469750Y-99334419D01*
X160489962Y-99341651D01*
X160509368Y-99350830D01*
X160527781Y-99361866D01*
X160545024Y-99374654D01*
X160560930Y-99389070D01*
X160575346Y-99404976D01*
X160588134Y-99422219D01*
X160599170Y-99440632D01*
X160608349Y-99460038D01*
X160615581Y-99480250D01*
X160620797Y-99501074D01*
X160623947Y-99522309D01*
X160625000Y-99543750D01*
X160625000Y-100056250D01*
X160623947Y-100077691D01*
X160620797Y-100098926D01*
X160615581Y-100119750D01*
X160608349Y-100139962D01*
X160599170Y-100159368D01*
X160588134Y-100177781D01*
X160575346Y-100195024D01*
X160560930Y-100210930D01*
X160545024Y-100225346D01*
X160527781Y-100238134D01*
X160509368Y-100249170D01*
X160489962Y-100258349D01*
X160469750Y-100265581D01*
X160448926Y-100270797D01*
X160427691Y-100273947D01*
X160406250Y-100275000D01*
X159968750Y-100275000D01*
X159947309Y-100273947D01*
X159926074Y-100270797D01*
X159905250Y-100265581D01*
X159885038Y-100258349D01*
X159865632Y-100249170D01*
X159847219Y-100238134D01*
X159829976Y-100225346D01*
X159814070Y-100210930D01*
X159799654Y-100195024D01*
X159786866Y-100177781D01*
X159775830Y-100159368D01*
X159766651Y-100139962D01*
X159759419Y-100119750D01*
X159754203Y-100098926D01*
X159751053Y-100077691D01*
X159750000Y-100056250D01*
X159750000Y-99543750D01*
X159751053Y-99522309D01*
X159754203Y-99501074D01*
X159759419Y-99480250D01*
X159766651Y-99460038D01*
X159775830Y-99440632D01*
X159786866Y-99422219D01*
X159799654Y-99404976D01*
X159814070Y-99389070D01*
X159829976Y-99374654D01*
X159847219Y-99361866D01*
X159865632Y-99350830D01*
X159885038Y-99341651D01*
X159905250Y-99334419D01*
X159926074Y-99329203D01*
X159947309Y-99326053D01*
X159968750Y-99325000D01*
X160406250Y-99325000D01*
X160427691Y-99326053D01*
G37*
G36*
X151252691Y-100826053D02*
G01*
X151273926Y-100829203D01*
X151294750Y-100834419D01*
X151314962Y-100841651D01*
X151334368Y-100850830D01*
X151352781Y-100861866D01*
X151370024Y-100874654D01*
X151385930Y-100889070D01*
X151400346Y-100904976D01*
X151413134Y-100922219D01*
X151424170Y-100940632D01*
X151433349Y-100960038D01*
X151440581Y-100980250D01*
X151445797Y-101001074D01*
X151448947Y-101022309D01*
X151450000Y-101043750D01*
X151450000Y-101556250D01*
X151448947Y-101577691D01*
X151445797Y-101598926D01*
X151440581Y-101619750D01*
X151433349Y-101639962D01*
X151424170Y-101659368D01*
X151413134Y-101677781D01*
X151400346Y-101695024D01*
X151385930Y-101710930D01*
X151370024Y-101725346D01*
X151352781Y-101738134D01*
X151334368Y-101749170D01*
X151314962Y-101758349D01*
X151294750Y-101765581D01*
X151273926Y-101770797D01*
X151252691Y-101773947D01*
X151231250Y-101775000D01*
X150793750Y-101775000D01*
X150772309Y-101773947D01*
X150751074Y-101770797D01*
X150730250Y-101765581D01*
X150710038Y-101758349D01*
X150690632Y-101749170D01*
X150672219Y-101738134D01*
X150654976Y-101725346D01*
X150639070Y-101710930D01*
X150624654Y-101695024D01*
X150611866Y-101677781D01*
X150600830Y-101659368D01*
X150591651Y-101639962D01*
X150584419Y-101619750D01*
X150579203Y-101598926D01*
X150576053Y-101577691D01*
X150575000Y-101556250D01*
X150575000Y-101043750D01*
X150576053Y-101022309D01*
X150579203Y-101001074D01*
X150584419Y-100980250D01*
X150591651Y-100960038D01*
X150600830Y-100940632D01*
X150611866Y-100922219D01*
X150624654Y-100904976D01*
X150639070Y-100889070D01*
X150654976Y-100874654D01*
X150672219Y-100861866D01*
X150690632Y-100850830D01*
X150710038Y-100841651D01*
X150730250Y-100834419D01*
X150751074Y-100829203D01*
X150772309Y-100826053D01*
X150793750Y-100825000D01*
X151231250Y-100825000D01*
X151252691Y-100826053D01*
G37*
G36*
X152827691Y-100826053D02*
G01*
X152848926Y-100829203D01*
X152869750Y-100834419D01*
X152889962Y-100841651D01*
X152909368Y-100850830D01*
X152927781Y-100861866D01*
X152945024Y-100874654D01*
X152960930Y-100889070D01*
X152975346Y-100904976D01*
X152988134Y-100922219D01*
X152999170Y-100940632D01*
X153008349Y-100960038D01*
X153015581Y-100980250D01*
X153020797Y-101001074D01*
X153023947Y-101022309D01*
X153025000Y-101043750D01*
X153025000Y-101556250D01*
X153023947Y-101577691D01*
X153020797Y-101598926D01*
X153015581Y-101619750D01*
X153008349Y-101639962D01*
X152999170Y-101659368D01*
X152988134Y-101677781D01*
X152975346Y-101695024D01*
X152960930Y-101710930D01*
X152945024Y-101725346D01*
X152927781Y-101738134D01*
X152909368Y-101749170D01*
X152889962Y-101758349D01*
X152869750Y-101765581D01*
X152848926Y-101770797D01*
X152827691Y-101773947D01*
X152806250Y-101775000D01*
X152368750Y-101775000D01*
X152347309Y-101773947D01*
X152326074Y-101770797D01*
X152305250Y-101765581D01*
X152285038Y-101758349D01*
X152265632Y-101749170D01*
X152247219Y-101738134D01*
X152229976Y-101725346D01*
X152214070Y-101710930D01*
X152199654Y-101695024D01*
X152186866Y-101677781D01*
X152175830Y-101659368D01*
X152166651Y-101639962D01*
X152159419Y-101619750D01*
X152154203Y-101598926D01*
X152151053Y-101577691D01*
X152150000Y-101556250D01*
X152150000Y-101043750D01*
X152151053Y-101022309D01*
X152154203Y-101001074D01*
X152159419Y-100980250D01*
X152166651Y-100960038D01*
X152175830Y-100940632D01*
X152186866Y-100922219D01*
X152199654Y-100904976D01*
X152214070Y-100889070D01*
X152229976Y-100874654D01*
X152247219Y-100861866D01*
X152265632Y-100850830D01*
X152285038Y-100841651D01*
X152305250Y-100834419D01*
X152326074Y-100829203D01*
X152347309Y-100826053D01*
X152368750Y-100825000D01*
X152806250Y-100825000D01*
X152827691Y-100826053D01*
G37*
G36*
X152852691Y-99326053D02*
G01*
X152873926Y-99329203D01*
X152894750Y-99334419D01*
X152914962Y-99341651D01*
X152934368Y-99350830D01*
X152952781Y-99361866D01*
X152970024Y-99374654D01*
X152985930Y-99389070D01*
X153000346Y-99404976D01*
X153013134Y-99422219D01*
X153024170Y-99440632D01*
X153033349Y-99460038D01*
X153040581Y-99480250D01*
X153045797Y-99501074D01*
X153048947Y-99522309D01*
X153050000Y-99543750D01*
X153050000Y-100056250D01*
X153048947Y-100077691D01*
X153045797Y-100098926D01*
X153040581Y-100119750D01*
X153033349Y-100139962D01*
X153024170Y-100159368D01*
X153013134Y-100177781D01*
X153000346Y-100195024D01*
X152985930Y-100210930D01*
X152970024Y-100225346D01*
X152952781Y-100238134D01*
X152934368Y-100249170D01*
X152914962Y-100258349D01*
X152894750Y-100265581D01*
X152873926Y-100270797D01*
X152852691Y-100273947D01*
X152831250Y-100275000D01*
X152393750Y-100275000D01*
X152372309Y-100273947D01*
X152351074Y-100270797D01*
X152330250Y-100265581D01*
X152310038Y-100258349D01*
X152290632Y-100249170D01*
X152272219Y-100238134D01*
X152254976Y-100225346D01*
X152239070Y-100210930D01*
X152224654Y-100195024D01*
X152211866Y-100177781D01*
X152200830Y-100159368D01*
X152191651Y-100139962D01*
X152184419Y-100119750D01*
X152179203Y-100098926D01*
X152176053Y-100077691D01*
X152175000Y-100056250D01*
X152175000Y-99543750D01*
X152176053Y-99522309D01*
X152179203Y-99501074D01*
X152184419Y-99480250D01*
X152191651Y-99460038D01*
X152200830Y-99440632D01*
X152211866Y-99422219D01*
X152224654Y-99404976D01*
X152239070Y-99389070D01*
X152254976Y-99374654D01*
X152272219Y-99361866D01*
X152290632Y-99350830D01*
X152310038Y-99341651D01*
X152330250Y-99334419D01*
X152351074Y-99329203D01*
X152372309Y-99326053D01*
X152393750Y-99325000D01*
X152831250Y-99325000D01*
X152852691Y-99326053D01*
G37*
G36*
X154427691Y-99326053D02*
G01*
X154448926Y-99329203D01*
X154469750Y-99334419D01*
X154489962Y-99341651D01*
X154509368Y-99350830D01*
X154527781Y-99361866D01*
X154545024Y-99374654D01*
X154560930Y-99389070D01*
X154575346Y-99404976D01*
X154588134Y-99422219D01*
X154599170Y-99440632D01*
X154608349Y-99460038D01*
X154615581Y-99480250D01*
X154620797Y-99501074D01*
X154623947Y-99522309D01*
X154625000Y-99543750D01*
X154625000Y-100056250D01*
X154623947Y-100077691D01*
X154620797Y-100098926D01*
X154615581Y-100119750D01*
X154608349Y-100139962D01*
X154599170Y-100159368D01*
X154588134Y-100177781D01*
X154575346Y-100195024D01*
X154560930Y-100210930D01*
X154545024Y-100225346D01*
X154527781Y-100238134D01*
X154509368Y-100249170D01*
X154489962Y-100258349D01*
X154469750Y-100265581D01*
X154448926Y-100270797D01*
X154427691Y-100273947D01*
X154406250Y-100275000D01*
X153968750Y-100275000D01*
X153947309Y-100273947D01*
X153926074Y-100270797D01*
X153905250Y-100265581D01*
X153885038Y-100258349D01*
X153865632Y-100249170D01*
X153847219Y-100238134D01*
X153829976Y-100225346D01*
X153814070Y-100210930D01*
X153799654Y-100195024D01*
X153786866Y-100177781D01*
X153775830Y-100159368D01*
X153766651Y-100139962D01*
X153759419Y-100119750D01*
X153754203Y-100098926D01*
X153751053Y-100077691D01*
X153750000Y-100056250D01*
X153750000Y-99543750D01*
X153751053Y-99522309D01*
X153754203Y-99501074D01*
X153759419Y-99480250D01*
X153766651Y-99460038D01*
X153775830Y-99440632D01*
X153786866Y-99422219D01*
X153799654Y-99404976D01*
X153814070Y-99389070D01*
X153829976Y-99374654D01*
X153847219Y-99361866D01*
X153865632Y-99350830D01*
X153885038Y-99341651D01*
X153905250Y-99334419D01*
X153926074Y-99329203D01*
X153947309Y-99326053D01*
X153968750Y-99325000D01*
X154406250Y-99325000D01*
X154427691Y-99326053D01*
G37*
M02*
