G04 #@! TF.GenerationSoftware,KiCad,Pcbnew,5.1.5*
G04 #@! TF.CreationDate,2020-02-12T19:16:24+01:00*
G04 #@! TF.ProjectId,Filter_PCB_4_btob,46696c74-6572-45f5-9043-425f345f6274,rev?*
G04 #@! TF.SameCoordinates,Original*
G04 #@! TF.FileFunction,Copper,L4,Bot*
G04 #@! TF.FilePolarity,Positive*
%FSLAX46Y46*%
G04 Gerber Fmt 4.6, Leading zero omitted, Abs format (unit mm)*
G04 Created by KiCad (PCBNEW 5.1.5) date 2020-02-12 19:16:24*
%MOMM*%
%LPD*%
G04 APERTURE LIST*
%ADD10R,3.150000X1.000000*%
%ADD11C,0.100000*%
%ADD12R,1.400000X0.300000*%
%ADD13C,0.500000*%
%ADD14C,0.457200*%
%ADD15C,0.500000*%
%ADD16C,0.150000*%
%ADD17C,0.254000*%
%ADD18C,0.200000*%
G04 APERTURE END LIST*
D10*
X166575000Y-103540000D03*
X171625000Y-103540000D03*
X166575000Y-101000000D03*
X171625000Y-101000000D03*
X166575000Y-98460000D03*
X171625000Y-98460000D03*
G04 #@! TA.AperFunction,SMDPad,CuDef*
D11*
G36*
X160927691Y-98426053D02*
G01*
X160948926Y-98429203D01*
X160969750Y-98434419D01*
X160989962Y-98441651D01*
X161009368Y-98450830D01*
X161027781Y-98461866D01*
X161045024Y-98474654D01*
X161060930Y-98489070D01*
X161075346Y-98504976D01*
X161088134Y-98522219D01*
X161099170Y-98540632D01*
X161108349Y-98560038D01*
X161115581Y-98580250D01*
X161120797Y-98601074D01*
X161123947Y-98622309D01*
X161125000Y-98643750D01*
X161125000Y-99156250D01*
X161123947Y-99177691D01*
X161120797Y-99198926D01*
X161115581Y-99219750D01*
X161108349Y-99239962D01*
X161099170Y-99259368D01*
X161088134Y-99277781D01*
X161075346Y-99295024D01*
X161060930Y-99310930D01*
X161045024Y-99325346D01*
X161027781Y-99338134D01*
X161009368Y-99349170D01*
X160989962Y-99358349D01*
X160969750Y-99365581D01*
X160948926Y-99370797D01*
X160927691Y-99373947D01*
X160906250Y-99375000D01*
X160468750Y-99375000D01*
X160447309Y-99373947D01*
X160426074Y-99370797D01*
X160405250Y-99365581D01*
X160385038Y-99358349D01*
X160365632Y-99349170D01*
X160347219Y-99338134D01*
X160329976Y-99325346D01*
X160314070Y-99310930D01*
X160299654Y-99295024D01*
X160286866Y-99277781D01*
X160275830Y-99259368D01*
X160266651Y-99239962D01*
X160259419Y-99219750D01*
X160254203Y-99198926D01*
X160251053Y-99177691D01*
X160250000Y-99156250D01*
X160250000Y-98643750D01*
X160251053Y-98622309D01*
X160254203Y-98601074D01*
X160259419Y-98580250D01*
X160266651Y-98560038D01*
X160275830Y-98540632D01*
X160286866Y-98522219D01*
X160299654Y-98504976D01*
X160314070Y-98489070D01*
X160329976Y-98474654D01*
X160347219Y-98461866D01*
X160365632Y-98450830D01*
X160385038Y-98441651D01*
X160405250Y-98434419D01*
X160426074Y-98429203D01*
X160447309Y-98426053D01*
X160468750Y-98425000D01*
X160906250Y-98425000D01*
X160927691Y-98426053D01*
G37*
G04 #@! TD.AperFunction*
G04 #@! TA.AperFunction,SMDPad,CuDef*
G36*
X159352691Y-98426053D02*
G01*
X159373926Y-98429203D01*
X159394750Y-98434419D01*
X159414962Y-98441651D01*
X159434368Y-98450830D01*
X159452781Y-98461866D01*
X159470024Y-98474654D01*
X159485930Y-98489070D01*
X159500346Y-98504976D01*
X159513134Y-98522219D01*
X159524170Y-98540632D01*
X159533349Y-98560038D01*
X159540581Y-98580250D01*
X159545797Y-98601074D01*
X159548947Y-98622309D01*
X159550000Y-98643750D01*
X159550000Y-99156250D01*
X159548947Y-99177691D01*
X159545797Y-99198926D01*
X159540581Y-99219750D01*
X159533349Y-99239962D01*
X159524170Y-99259368D01*
X159513134Y-99277781D01*
X159500346Y-99295024D01*
X159485930Y-99310930D01*
X159470024Y-99325346D01*
X159452781Y-99338134D01*
X159434368Y-99349170D01*
X159414962Y-99358349D01*
X159394750Y-99365581D01*
X159373926Y-99370797D01*
X159352691Y-99373947D01*
X159331250Y-99375000D01*
X158893750Y-99375000D01*
X158872309Y-99373947D01*
X158851074Y-99370797D01*
X158830250Y-99365581D01*
X158810038Y-99358349D01*
X158790632Y-99349170D01*
X158772219Y-99338134D01*
X158754976Y-99325346D01*
X158739070Y-99310930D01*
X158724654Y-99295024D01*
X158711866Y-99277781D01*
X158700830Y-99259368D01*
X158691651Y-99239962D01*
X158684419Y-99219750D01*
X158679203Y-99198926D01*
X158676053Y-99177691D01*
X158675000Y-99156250D01*
X158675000Y-98643750D01*
X158676053Y-98622309D01*
X158679203Y-98601074D01*
X158684419Y-98580250D01*
X158691651Y-98560038D01*
X158700830Y-98540632D01*
X158711866Y-98522219D01*
X158724654Y-98504976D01*
X158739070Y-98489070D01*
X158754976Y-98474654D01*
X158772219Y-98461866D01*
X158790632Y-98450830D01*
X158810038Y-98441651D01*
X158830250Y-98434419D01*
X158851074Y-98429203D01*
X158872309Y-98426053D01*
X158893750Y-98425000D01*
X159331250Y-98425000D01*
X159352691Y-98426053D01*
G37*
G04 #@! TD.AperFunction*
G04 #@! TA.AperFunction,SMDPad,CuDef*
G36*
X162377691Y-99951053D02*
G01*
X162398926Y-99954203D01*
X162419750Y-99959419D01*
X162439962Y-99966651D01*
X162459368Y-99975830D01*
X162477781Y-99986866D01*
X162495024Y-99999654D01*
X162510930Y-100014070D01*
X162525346Y-100029976D01*
X162538134Y-100047219D01*
X162549170Y-100065632D01*
X162558349Y-100085038D01*
X162565581Y-100105250D01*
X162570797Y-100126074D01*
X162573947Y-100147309D01*
X162575000Y-100168750D01*
X162575000Y-100606250D01*
X162573947Y-100627691D01*
X162570797Y-100648926D01*
X162565581Y-100669750D01*
X162558349Y-100689962D01*
X162549170Y-100709368D01*
X162538134Y-100727781D01*
X162525346Y-100745024D01*
X162510930Y-100760930D01*
X162495024Y-100775346D01*
X162477781Y-100788134D01*
X162459368Y-100799170D01*
X162439962Y-100808349D01*
X162419750Y-100815581D01*
X162398926Y-100820797D01*
X162377691Y-100823947D01*
X162356250Y-100825000D01*
X161843750Y-100825000D01*
X161822309Y-100823947D01*
X161801074Y-100820797D01*
X161780250Y-100815581D01*
X161760038Y-100808349D01*
X161740632Y-100799170D01*
X161722219Y-100788134D01*
X161704976Y-100775346D01*
X161689070Y-100760930D01*
X161674654Y-100745024D01*
X161661866Y-100727781D01*
X161650830Y-100709368D01*
X161641651Y-100689962D01*
X161634419Y-100669750D01*
X161629203Y-100648926D01*
X161626053Y-100627691D01*
X161625000Y-100606250D01*
X161625000Y-100168750D01*
X161626053Y-100147309D01*
X161629203Y-100126074D01*
X161634419Y-100105250D01*
X161641651Y-100085038D01*
X161650830Y-100065632D01*
X161661866Y-100047219D01*
X161674654Y-100029976D01*
X161689070Y-100014070D01*
X161704976Y-99999654D01*
X161722219Y-99986866D01*
X161740632Y-99975830D01*
X161760038Y-99966651D01*
X161780250Y-99959419D01*
X161801074Y-99954203D01*
X161822309Y-99951053D01*
X161843750Y-99950000D01*
X162356250Y-99950000D01*
X162377691Y-99951053D01*
G37*
G04 #@! TD.AperFunction*
G04 #@! TA.AperFunction,SMDPad,CuDef*
G36*
X162377691Y-98376053D02*
G01*
X162398926Y-98379203D01*
X162419750Y-98384419D01*
X162439962Y-98391651D01*
X162459368Y-98400830D01*
X162477781Y-98411866D01*
X162495024Y-98424654D01*
X162510930Y-98439070D01*
X162525346Y-98454976D01*
X162538134Y-98472219D01*
X162549170Y-98490632D01*
X162558349Y-98510038D01*
X162565581Y-98530250D01*
X162570797Y-98551074D01*
X162573947Y-98572309D01*
X162575000Y-98593750D01*
X162575000Y-99031250D01*
X162573947Y-99052691D01*
X162570797Y-99073926D01*
X162565581Y-99094750D01*
X162558349Y-99114962D01*
X162549170Y-99134368D01*
X162538134Y-99152781D01*
X162525346Y-99170024D01*
X162510930Y-99185930D01*
X162495024Y-99200346D01*
X162477781Y-99213134D01*
X162459368Y-99224170D01*
X162439962Y-99233349D01*
X162419750Y-99240581D01*
X162398926Y-99245797D01*
X162377691Y-99248947D01*
X162356250Y-99250000D01*
X161843750Y-99250000D01*
X161822309Y-99248947D01*
X161801074Y-99245797D01*
X161780250Y-99240581D01*
X161760038Y-99233349D01*
X161740632Y-99224170D01*
X161722219Y-99213134D01*
X161704976Y-99200346D01*
X161689070Y-99185930D01*
X161674654Y-99170024D01*
X161661866Y-99152781D01*
X161650830Y-99134368D01*
X161641651Y-99114962D01*
X161634419Y-99094750D01*
X161629203Y-99073926D01*
X161626053Y-99052691D01*
X161625000Y-99031250D01*
X161625000Y-98593750D01*
X161626053Y-98572309D01*
X161629203Y-98551074D01*
X161634419Y-98530250D01*
X161641651Y-98510038D01*
X161650830Y-98490632D01*
X161661866Y-98472219D01*
X161674654Y-98454976D01*
X161689070Y-98439070D01*
X161704976Y-98424654D01*
X161722219Y-98411866D01*
X161740632Y-98400830D01*
X161760038Y-98391651D01*
X161780250Y-98384419D01*
X161801074Y-98379203D01*
X161822309Y-98376053D01*
X161843750Y-98375000D01*
X162356250Y-98375000D01*
X162377691Y-98376053D01*
G37*
G04 #@! TD.AperFunction*
G04 #@! TA.AperFunction,SMDPad,CuDef*
G36*
X149837252Y-103225602D02*
G01*
X149849386Y-103227402D01*
X149861286Y-103230382D01*
X149872835Y-103234515D01*
X149883925Y-103239760D01*
X149894446Y-103246066D01*
X149904299Y-103253374D01*
X149913388Y-103261612D01*
X149921626Y-103270701D01*
X149928934Y-103280554D01*
X149935240Y-103291075D01*
X149940485Y-103302165D01*
X149944618Y-103313714D01*
X149947598Y-103325614D01*
X149949398Y-103337748D01*
X149950000Y-103350000D01*
X149950000Y-104350000D01*
X149949398Y-104362252D01*
X149947598Y-104374386D01*
X149944618Y-104386286D01*
X149940485Y-104397835D01*
X149935240Y-104408925D01*
X149928934Y-104419446D01*
X149921626Y-104429299D01*
X149913388Y-104438388D01*
X149904299Y-104446626D01*
X149894446Y-104453934D01*
X149883925Y-104460240D01*
X149872835Y-104465485D01*
X149861286Y-104469618D01*
X149849386Y-104472598D01*
X149837252Y-104474398D01*
X149825000Y-104475000D01*
X145825000Y-104475000D01*
X145812748Y-104474398D01*
X145800614Y-104472598D01*
X145788714Y-104469618D01*
X145777165Y-104465485D01*
X145766075Y-104460240D01*
X145755554Y-104453934D01*
X145745701Y-104446626D01*
X145736612Y-104438388D01*
X145728374Y-104429299D01*
X145721066Y-104419446D01*
X145714760Y-104408925D01*
X145709515Y-104397835D01*
X145705382Y-104386286D01*
X145702402Y-104374386D01*
X145700602Y-104362252D01*
X145700000Y-104350000D01*
X145700000Y-103350000D01*
X145700602Y-103337748D01*
X145702402Y-103325614D01*
X145705382Y-103313714D01*
X145709515Y-103302165D01*
X145714760Y-103291075D01*
X145721066Y-103280554D01*
X145728374Y-103270701D01*
X145736612Y-103261612D01*
X145745701Y-103253374D01*
X145755554Y-103246066D01*
X145766075Y-103239760D01*
X145777165Y-103234515D01*
X145788714Y-103230382D01*
X145800614Y-103227402D01*
X145812748Y-103225602D01*
X145825000Y-103225000D01*
X149825000Y-103225000D01*
X149837252Y-103225602D01*
G37*
G04 #@! TD.AperFunction*
G04 #@! TA.AperFunction,SMDPad,CuDef*
G36*
X149837252Y-103225602D02*
G01*
X149849386Y-103227402D01*
X149861286Y-103230382D01*
X149872835Y-103234515D01*
X149883925Y-103239760D01*
X149894446Y-103246066D01*
X149904299Y-103253374D01*
X149913388Y-103261612D01*
X149921626Y-103270701D01*
X149928934Y-103280554D01*
X149935240Y-103291075D01*
X149940485Y-103302165D01*
X149944618Y-103313714D01*
X149947598Y-103325614D01*
X149949398Y-103337748D01*
X149950000Y-103350000D01*
X149950000Y-104350000D01*
X149949398Y-104362252D01*
X149947598Y-104374386D01*
X149944618Y-104386286D01*
X149940485Y-104397835D01*
X149935240Y-104408925D01*
X149928934Y-104419446D01*
X149921626Y-104429299D01*
X149913388Y-104438388D01*
X149904299Y-104446626D01*
X149894446Y-104453934D01*
X149883925Y-104460240D01*
X149872835Y-104465485D01*
X149861286Y-104469618D01*
X149849386Y-104472598D01*
X149837252Y-104474398D01*
X149825000Y-104475000D01*
X145825000Y-104475000D01*
X145812748Y-104474398D01*
X145800614Y-104472598D01*
X145788714Y-104469618D01*
X145777165Y-104465485D01*
X145766075Y-104460240D01*
X145755554Y-104453934D01*
X145745701Y-104446626D01*
X145736612Y-104438388D01*
X145728374Y-104429299D01*
X145721066Y-104419446D01*
X145714760Y-104408925D01*
X145709515Y-104397835D01*
X145705382Y-104386286D01*
X145702402Y-104374386D01*
X145700602Y-104362252D01*
X145700000Y-104350000D01*
X145700000Y-103350000D01*
X145700602Y-103337748D01*
X145702402Y-103325614D01*
X145705382Y-103313714D01*
X145709515Y-103302165D01*
X145714760Y-103291075D01*
X145721066Y-103280554D01*
X145728374Y-103270701D01*
X145736612Y-103261612D01*
X145745701Y-103253374D01*
X145755554Y-103246066D01*
X145766075Y-103239760D01*
X145777165Y-103234515D01*
X145788714Y-103230382D01*
X145800614Y-103227402D01*
X145812748Y-103225602D01*
X145825000Y-103225000D01*
X149825000Y-103225000D01*
X149837252Y-103225602D01*
G37*
G04 #@! TD.AperFunction*
G04 #@! TA.AperFunction,SMDPad,CuDef*
G36*
X149837252Y-98125602D02*
G01*
X149849386Y-98127402D01*
X149861286Y-98130382D01*
X149872835Y-98134515D01*
X149883925Y-98139760D01*
X149894446Y-98146066D01*
X149904299Y-98153374D01*
X149913388Y-98161612D01*
X149921626Y-98170701D01*
X149928934Y-98180554D01*
X149935240Y-98191075D01*
X149940485Y-98202165D01*
X149944618Y-98213714D01*
X149947598Y-98225614D01*
X149949398Y-98237748D01*
X149950000Y-98250000D01*
X149950000Y-99250000D01*
X149949398Y-99262252D01*
X149947598Y-99274386D01*
X149944618Y-99286286D01*
X149940485Y-99297835D01*
X149935240Y-99308925D01*
X149928934Y-99319446D01*
X149921626Y-99329299D01*
X149913388Y-99338388D01*
X149904299Y-99346626D01*
X149894446Y-99353934D01*
X149883925Y-99360240D01*
X149872835Y-99365485D01*
X149861286Y-99369618D01*
X149849386Y-99372598D01*
X149837252Y-99374398D01*
X149825000Y-99375000D01*
X145825000Y-99375000D01*
X145812748Y-99374398D01*
X145800614Y-99372598D01*
X145788714Y-99369618D01*
X145777165Y-99365485D01*
X145766075Y-99360240D01*
X145755554Y-99353934D01*
X145745701Y-99346626D01*
X145736612Y-99338388D01*
X145728374Y-99329299D01*
X145721066Y-99319446D01*
X145714760Y-99308925D01*
X145709515Y-99297835D01*
X145705382Y-99286286D01*
X145702402Y-99274386D01*
X145700602Y-99262252D01*
X145700000Y-99250000D01*
X145700000Y-98250000D01*
X145700602Y-98237748D01*
X145702402Y-98225614D01*
X145705382Y-98213714D01*
X145709515Y-98202165D01*
X145714760Y-98191075D01*
X145721066Y-98180554D01*
X145728374Y-98170701D01*
X145736612Y-98161612D01*
X145745701Y-98153374D01*
X145755554Y-98146066D01*
X145766075Y-98139760D01*
X145777165Y-98134515D01*
X145788714Y-98130382D01*
X145800614Y-98127402D01*
X145812748Y-98125602D01*
X145825000Y-98125000D01*
X149825000Y-98125000D01*
X149837252Y-98125602D01*
G37*
G04 #@! TD.AperFunction*
G04 #@! TA.AperFunction,SMDPad,CuDef*
G36*
X182187252Y-103225602D02*
G01*
X182199386Y-103227402D01*
X182211286Y-103230382D01*
X182222835Y-103234515D01*
X182233925Y-103239760D01*
X182244446Y-103246066D01*
X182254299Y-103253374D01*
X182263388Y-103261612D01*
X182271626Y-103270701D01*
X182278934Y-103280554D01*
X182285240Y-103291075D01*
X182290485Y-103302165D01*
X182294618Y-103313714D01*
X182297598Y-103325614D01*
X182299398Y-103337748D01*
X182300000Y-103350000D01*
X182300000Y-104350000D01*
X182299398Y-104362252D01*
X182297598Y-104374386D01*
X182294618Y-104386286D01*
X182290485Y-104397835D01*
X182285240Y-104408925D01*
X182278934Y-104419446D01*
X182271626Y-104429299D01*
X182263388Y-104438388D01*
X182254299Y-104446626D01*
X182244446Y-104453934D01*
X182233925Y-104460240D01*
X182222835Y-104465485D01*
X182211286Y-104469618D01*
X182199386Y-104472598D01*
X182187252Y-104474398D01*
X182175000Y-104475000D01*
X178175000Y-104475000D01*
X178162748Y-104474398D01*
X178150614Y-104472598D01*
X178138714Y-104469618D01*
X178127165Y-104465485D01*
X178116075Y-104460240D01*
X178105554Y-104453934D01*
X178095701Y-104446626D01*
X178086612Y-104438388D01*
X178078374Y-104429299D01*
X178071066Y-104419446D01*
X178064760Y-104408925D01*
X178059515Y-104397835D01*
X178055382Y-104386286D01*
X178052402Y-104374386D01*
X178050602Y-104362252D01*
X178050000Y-104350000D01*
X178050000Y-103350000D01*
X178050602Y-103337748D01*
X178052402Y-103325614D01*
X178055382Y-103313714D01*
X178059515Y-103302165D01*
X178064760Y-103291075D01*
X178071066Y-103280554D01*
X178078374Y-103270701D01*
X178086612Y-103261612D01*
X178095701Y-103253374D01*
X178105554Y-103246066D01*
X178116075Y-103239760D01*
X178127165Y-103234515D01*
X178138714Y-103230382D01*
X178150614Y-103227402D01*
X178162748Y-103225602D01*
X178175000Y-103225000D01*
X182175000Y-103225000D01*
X182187252Y-103225602D01*
G37*
G04 #@! TD.AperFunction*
G04 #@! TA.AperFunction,SMDPad,CuDef*
G36*
X182187252Y-98125602D02*
G01*
X182199386Y-98127402D01*
X182211286Y-98130382D01*
X182222835Y-98134515D01*
X182233925Y-98139760D01*
X182244446Y-98146066D01*
X182254299Y-98153374D01*
X182263388Y-98161612D01*
X182271626Y-98170701D01*
X182278934Y-98180554D01*
X182285240Y-98191075D01*
X182290485Y-98202165D01*
X182294618Y-98213714D01*
X182297598Y-98225614D01*
X182299398Y-98237748D01*
X182300000Y-98250000D01*
X182300000Y-99250000D01*
X182299398Y-99262252D01*
X182297598Y-99274386D01*
X182294618Y-99286286D01*
X182290485Y-99297835D01*
X182285240Y-99308925D01*
X182278934Y-99319446D01*
X182271626Y-99329299D01*
X182263388Y-99338388D01*
X182254299Y-99346626D01*
X182244446Y-99353934D01*
X182233925Y-99360240D01*
X182222835Y-99365485D01*
X182211286Y-99369618D01*
X182199386Y-99372598D01*
X182187252Y-99374398D01*
X182175000Y-99375000D01*
X178175000Y-99375000D01*
X178162748Y-99374398D01*
X178150614Y-99372598D01*
X178138714Y-99369618D01*
X178127165Y-99365485D01*
X178116075Y-99360240D01*
X178105554Y-99353934D01*
X178095701Y-99346626D01*
X178086612Y-99338388D01*
X178078374Y-99329299D01*
X178071066Y-99319446D01*
X178064760Y-99308925D01*
X178059515Y-99297835D01*
X178055382Y-99286286D01*
X178052402Y-99274386D01*
X178050602Y-99262252D01*
X178050000Y-99250000D01*
X178050000Y-98250000D01*
X178050602Y-98237748D01*
X178052402Y-98225614D01*
X178055382Y-98213714D01*
X178059515Y-98202165D01*
X178064760Y-98191075D01*
X178071066Y-98180554D01*
X178078374Y-98170701D01*
X178086612Y-98161612D01*
X178095701Y-98153374D01*
X178105554Y-98146066D01*
X178116075Y-98139760D01*
X178127165Y-98134515D01*
X178138714Y-98130382D01*
X178150614Y-98127402D01*
X178162748Y-98125602D01*
X178175000Y-98125000D01*
X182175000Y-98125000D01*
X182187252Y-98125602D01*
G37*
G04 #@! TD.AperFunction*
G04 #@! TA.AperFunction,SMDPad,CuDef*
G36*
X182187252Y-98125602D02*
G01*
X182199386Y-98127402D01*
X182211286Y-98130382D01*
X182222835Y-98134515D01*
X182233925Y-98139760D01*
X182244446Y-98146066D01*
X182254299Y-98153374D01*
X182263388Y-98161612D01*
X182271626Y-98170701D01*
X182278934Y-98180554D01*
X182285240Y-98191075D01*
X182290485Y-98202165D01*
X182294618Y-98213714D01*
X182297598Y-98225614D01*
X182299398Y-98237748D01*
X182300000Y-98250000D01*
X182300000Y-99250000D01*
X182299398Y-99262252D01*
X182297598Y-99274386D01*
X182294618Y-99286286D01*
X182290485Y-99297835D01*
X182285240Y-99308925D01*
X182278934Y-99319446D01*
X182271626Y-99329299D01*
X182263388Y-99338388D01*
X182254299Y-99346626D01*
X182244446Y-99353934D01*
X182233925Y-99360240D01*
X182222835Y-99365485D01*
X182211286Y-99369618D01*
X182199386Y-99372598D01*
X182187252Y-99374398D01*
X182175000Y-99375000D01*
X178175000Y-99375000D01*
X178162748Y-99374398D01*
X178150614Y-99372598D01*
X178138714Y-99369618D01*
X178127165Y-99365485D01*
X178116075Y-99360240D01*
X178105554Y-99353934D01*
X178095701Y-99346626D01*
X178086612Y-99338388D01*
X178078374Y-99329299D01*
X178071066Y-99319446D01*
X178064760Y-99308925D01*
X178059515Y-99297835D01*
X178055382Y-99286286D01*
X178052402Y-99274386D01*
X178050602Y-99262252D01*
X178050000Y-99250000D01*
X178050000Y-98250000D01*
X178050602Y-98237748D01*
X178052402Y-98225614D01*
X178055382Y-98213714D01*
X178059515Y-98202165D01*
X178064760Y-98191075D01*
X178071066Y-98180554D01*
X178078374Y-98170701D01*
X178086612Y-98161612D01*
X178095701Y-98153374D01*
X178105554Y-98146066D01*
X178116075Y-98139760D01*
X178127165Y-98134515D01*
X178138714Y-98130382D01*
X178150614Y-98127402D01*
X178162748Y-98125602D01*
X178175000Y-98125000D01*
X182175000Y-98125000D01*
X182187252Y-98125602D01*
G37*
G04 #@! TD.AperFunction*
G04 #@! TA.AperFunction,SMDPad,CuDef*
G36*
X159352691Y-99826053D02*
G01*
X159373926Y-99829203D01*
X159394750Y-99834419D01*
X159414962Y-99841651D01*
X159434368Y-99850830D01*
X159452781Y-99861866D01*
X159470024Y-99874654D01*
X159485930Y-99889070D01*
X159500346Y-99904976D01*
X159513134Y-99922219D01*
X159524170Y-99940632D01*
X159533349Y-99960038D01*
X159540581Y-99980250D01*
X159545797Y-100001074D01*
X159548947Y-100022309D01*
X159550000Y-100043750D01*
X159550000Y-100556250D01*
X159548947Y-100577691D01*
X159545797Y-100598926D01*
X159540581Y-100619750D01*
X159533349Y-100639962D01*
X159524170Y-100659368D01*
X159513134Y-100677781D01*
X159500346Y-100695024D01*
X159485930Y-100710930D01*
X159470024Y-100725346D01*
X159452781Y-100738134D01*
X159434368Y-100749170D01*
X159414962Y-100758349D01*
X159394750Y-100765581D01*
X159373926Y-100770797D01*
X159352691Y-100773947D01*
X159331250Y-100775000D01*
X158893750Y-100775000D01*
X158872309Y-100773947D01*
X158851074Y-100770797D01*
X158830250Y-100765581D01*
X158810038Y-100758349D01*
X158790632Y-100749170D01*
X158772219Y-100738134D01*
X158754976Y-100725346D01*
X158739070Y-100710930D01*
X158724654Y-100695024D01*
X158711866Y-100677781D01*
X158700830Y-100659368D01*
X158691651Y-100639962D01*
X158684419Y-100619750D01*
X158679203Y-100598926D01*
X158676053Y-100577691D01*
X158675000Y-100556250D01*
X158675000Y-100043750D01*
X158676053Y-100022309D01*
X158679203Y-100001074D01*
X158684419Y-99980250D01*
X158691651Y-99960038D01*
X158700830Y-99940632D01*
X158711866Y-99922219D01*
X158724654Y-99904976D01*
X158739070Y-99889070D01*
X158754976Y-99874654D01*
X158772219Y-99861866D01*
X158790632Y-99850830D01*
X158810038Y-99841651D01*
X158830250Y-99834419D01*
X158851074Y-99829203D01*
X158872309Y-99826053D01*
X158893750Y-99825000D01*
X159331250Y-99825000D01*
X159352691Y-99826053D01*
G37*
G04 #@! TD.AperFunction*
G04 #@! TA.AperFunction,SMDPad,CuDef*
G36*
X160927691Y-99826053D02*
G01*
X160948926Y-99829203D01*
X160969750Y-99834419D01*
X160989962Y-99841651D01*
X161009368Y-99850830D01*
X161027781Y-99861866D01*
X161045024Y-99874654D01*
X161060930Y-99889070D01*
X161075346Y-99904976D01*
X161088134Y-99922219D01*
X161099170Y-99940632D01*
X161108349Y-99960038D01*
X161115581Y-99980250D01*
X161120797Y-100001074D01*
X161123947Y-100022309D01*
X161125000Y-100043750D01*
X161125000Y-100556250D01*
X161123947Y-100577691D01*
X161120797Y-100598926D01*
X161115581Y-100619750D01*
X161108349Y-100639962D01*
X161099170Y-100659368D01*
X161088134Y-100677781D01*
X161075346Y-100695024D01*
X161060930Y-100710930D01*
X161045024Y-100725346D01*
X161027781Y-100738134D01*
X161009368Y-100749170D01*
X160989962Y-100758349D01*
X160969750Y-100765581D01*
X160948926Y-100770797D01*
X160927691Y-100773947D01*
X160906250Y-100775000D01*
X160468750Y-100775000D01*
X160447309Y-100773947D01*
X160426074Y-100770797D01*
X160405250Y-100765581D01*
X160385038Y-100758349D01*
X160365632Y-100749170D01*
X160347219Y-100738134D01*
X160329976Y-100725346D01*
X160314070Y-100710930D01*
X160299654Y-100695024D01*
X160286866Y-100677781D01*
X160275830Y-100659368D01*
X160266651Y-100639962D01*
X160259419Y-100619750D01*
X160254203Y-100598926D01*
X160251053Y-100577691D01*
X160250000Y-100556250D01*
X160250000Y-100043750D01*
X160251053Y-100022309D01*
X160254203Y-100001074D01*
X160259419Y-99980250D01*
X160266651Y-99960038D01*
X160275830Y-99940632D01*
X160286866Y-99922219D01*
X160299654Y-99904976D01*
X160314070Y-99889070D01*
X160329976Y-99874654D01*
X160347219Y-99861866D01*
X160365632Y-99850830D01*
X160385038Y-99841651D01*
X160405250Y-99834419D01*
X160426074Y-99829203D01*
X160447309Y-99826053D01*
X160468750Y-99825000D01*
X160906250Y-99825000D01*
X160927691Y-99826053D01*
G37*
G04 #@! TD.AperFunction*
D12*
X162100000Y-101900000D03*
X162100000Y-102400000D03*
X162100000Y-102900000D03*
X162100000Y-103400000D03*
X162100000Y-103900000D03*
X157700000Y-103900000D03*
X157700000Y-103400000D03*
X157700000Y-102900000D03*
X157700000Y-102400000D03*
X157700000Y-101900000D03*
D13*
X157900000Y-104500000D03*
X155800000Y-104500000D03*
X154900000Y-104500000D03*
X150300000Y-104500000D03*
X152600000Y-104500000D03*
X154000000Y-104500000D03*
X160200000Y-104500000D03*
X156900000Y-104500000D03*
X167800000Y-104500000D03*
X175400000Y-104500000D03*
X161600000Y-104500000D03*
X169200000Y-104500000D03*
X166400000Y-104500000D03*
X162500000Y-104500000D03*
X176800000Y-104500000D03*
X151400000Y-98100000D03*
X150900000Y-98600000D03*
X150400000Y-98100000D03*
X150400000Y-99100000D03*
X177600000Y-99100000D03*
X177600000Y-98100000D03*
X177100000Y-98600000D03*
X158800000Y-104500000D03*
X165500000Y-104500000D03*
X174000000Y-104500000D03*
X172100000Y-104500000D03*
X164500000Y-104500000D03*
X163400000Y-104500000D03*
X173100000Y-104500000D03*
X171000000Y-104500000D03*
X176600000Y-98100000D03*
X151200000Y-104500000D03*
X177700000Y-104500000D03*
X170100000Y-104500000D03*
D14*
X173700000Y-98400000D03*
X154300000Y-98400000D03*
X169600000Y-98700000D03*
X154900000Y-98100000D03*
X169500000Y-98100000D03*
X158000000Y-98600000D03*
X155400000Y-98600000D03*
X163100000Y-98100000D03*
D15*
X161300000Y-98900000D02*
X160700000Y-98900000D01*
X161400000Y-98800000D02*
X161300000Y-98900000D01*
X164300000Y-98800000D02*
X161400000Y-98800000D01*
X166575000Y-98460000D02*
X164640000Y-98460000D01*
X164640000Y-98460000D02*
X164300000Y-98800000D01*
D16*
X156900000Y-103900000D02*
X157700000Y-103900000D01*
X155800000Y-102800000D02*
X156900000Y-103900000D01*
X154300000Y-98400000D02*
X154300000Y-98700000D01*
X155800000Y-100200000D02*
X155800000Y-102800000D01*
X154300000Y-98700000D02*
X155800000Y-100200000D01*
X154900000Y-98800000D02*
X156100000Y-100000000D01*
X154900000Y-98100000D02*
X154900000Y-98800000D01*
X156100000Y-100000000D02*
X156100000Y-102600000D01*
X156100000Y-102600000D02*
X156900000Y-103400000D01*
X156900000Y-103400000D02*
X157700000Y-103400000D01*
X156400000Y-102400000D02*
X156900000Y-102900000D01*
X155400000Y-98600000D02*
X156400000Y-99600000D01*
X156900000Y-102900000D02*
X157700000Y-102900000D01*
X156400000Y-99600000D02*
X156400000Y-102400000D01*
X156900000Y-102400000D02*
X157700000Y-102400000D01*
X156700000Y-102200000D02*
X156900000Y-102400000D01*
X156700000Y-99200000D02*
X156700000Y-102200000D01*
X163100000Y-98100000D02*
X157800000Y-98100000D01*
X157800000Y-98100000D02*
X156700000Y-99200000D01*
D17*
X167175000Y-103540000D02*
X164760000Y-103540000D01*
X164400000Y-103900000D02*
X162100000Y-103900000D01*
X164760000Y-103540000D02*
X164400000Y-103900000D01*
X164000000Y-103400000D02*
X162100000Y-103400000D01*
X164800000Y-102600000D02*
X164000000Y-103400000D01*
X172225000Y-103540000D02*
X169840000Y-103540000D01*
X168900000Y-102600000D02*
X164800000Y-102600000D01*
X169840000Y-103540000D02*
X168900000Y-102600000D01*
X163200000Y-102400000D02*
X162100000Y-102400000D01*
X167175000Y-101000000D02*
X164600000Y-101000000D01*
X164600000Y-101000000D02*
X163200000Y-102400000D01*
X163600000Y-102900000D02*
X162100000Y-102900000D01*
X164500000Y-102000000D02*
X163600000Y-102900000D01*
X168900000Y-102000000D02*
X164500000Y-102000000D01*
X172225000Y-101000000D02*
X169900000Y-101000000D01*
X169900000Y-101000000D02*
X168900000Y-102000000D01*
D18*
G36*
X154496253Y-97884193D02*
G01*
X154461909Y-97967107D01*
X154460655Y-97973409D01*
X154432893Y-97961909D01*
X154344873Y-97944400D01*
X154255127Y-97944400D01*
X154167107Y-97961909D01*
X154084193Y-97996253D01*
X154009572Y-98046113D01*
X153946113Y-98109572D01*
X153896253Y-98184193D01*
X153861909Y-98267107D01*
X153844400Y-98355127D01*
X153844400Y-98444873D01*
X153861909Y-98532893D01*
X153896253Y-98615807D01*
X153946113Y-98690428D01*
X154001002Y-98745317D01*
X154002370Y-98759202D01*
X154019639Y-98816129D01*
X154047682Y-98868594D01*
X154085422Y-98914579D01*
X154096945Y-98924036D01*
X155498000Y-100325092D01*
X155498001Y-102785164D01*
X155496540Y-102800000D01*
X155502370Y-102859202D01*
X155519640Y-102916129D01*
X155547682Y-102968594D01*
X155585422Y-103014579D01*
X155596945Y-103024036D01*
X156675964Y-104103056D01*
X156685421Y-104114579D01*
X156731406Y-104152319D01*
X156783871Y-104180361D01*
X156823092Y-104192259D01*
X156838710Y-104211290D01*
X156873276Y-104239657D01*
X156912711Y-104260735D01*
X156955500Y-104273715D01*
X157000000Y-104278098D01*
X158400000Y-104278098D01*
X158444500Y-104273715D01*
X158487289Y-104260735D01*
X158526724Y-104239657D01*
X158561290Y-104211290D01*
X158589657Y-104176724D01*
X158610735Y-104137289D01*
X158623715Y-104094500D01*
X158628098Y-104050000D01*
X158628098Y-103750000D01*
X158623715Y-103705500D01*
X158610735Y-103662711D01*
X158603941Y-103650000D01*
X158610735Y-103637289D01*
X158623715Y-103594500D01*
X158628098Y-103550000D01*
X158628098Y-103250000D01*
X158623715Y-103205500D01*
X158610735Y-103162711D01*
X158603941Y-103150000D01*
X158610735Y-103137289D01*
X158623715Y-103094500D01*
X158628098Y-103050000D01*
X158628098Y-102750000D01*
X158623715Y-102705500D01*
X158610735Y-102662711D01*
X158603941Y-102650000D01*
X158610735Y-102637289D01*
X158623715Y-102594500D01*
X158628098Y-102550000D01*
X158628098Y-102250000D01*
X158623715Y-102205500D01*
X158610735Y-102162711D01*
X158589657Y-102123276D01*
X158561290Y-102088710D01*
X158526724Y-102060343D01*
X158487289Y-102039265D01*
X158444500Y-102026285D01*
X158400000Y-102021902D01*
X157002000Y-102021902D01*
X157002000Y-99325091D01*
X157571366Y-98755725D01*
X157596253Y-98815807D01*
X157646113Y-98890428D01*
X157709572Y-98953887D01*
X157784193Y-99003747D01*
X157867107Y-99038091D01*
X157955127Y-99055600D01*
X158044873Y-99055600D01*
X158132893Y-99038091D01*
X158215807Y-99003747D01*
X158290428Y-98953887D01*
X158353887Y-98890428D01*
X158403747Y-98815807D01*
X158438091Y-98732893D01*
X158455600Y-98644873D01*
X158455600Y-98555127D01*
X158438091Y-98467107D01*
X158411123Y-98402000D01*
X160093732Y-98402000D01*
X160055916Y-98472749D01*
X160030488Y-98556574D01*
X160021902Y-98643750D01*
X160021902Y-99156250D01*
X160030488Y-99243426D01*
X160055916Y-99327251D01*
X160097209Y-99404505D01*
X160152781Y-99472219D01*
X160153733Y-99473000D01*
X160104009Y-99473000D01*
X160059723Y-99477362D01*
X160017140Y-99490279D01*
X159977895Y-99511256D01*
X159943496Y-99539487D01*
X159915265Y-99573886D01*
X159894288Y-99613131D01*
X159881371Y-99655714D01*
X159877009Y-99700000D01*
X159877009Y-100900000D01*
X159881371Y-100944286D01*
X159894288Y-100986869D01*
X159915265Y-101026114D01*
X159943496Y-101060513D01*
X161143496Y-102260513D01*
X161171902Y-102283826D01*
X161171902Y-102550000D01*
X161176285Y-102594500D01*
X161189265Y-102637289D01*
X161196059Y-102650000D01*
X161189265Y-102662711D01*
X161176285Y-102705500D01*
X161171902Y-102750000D01*
X161171902Y-103050000D01*
X161176285Y-103094500D01*
X161189265Y-103137289D01*
X161196059Y-103150000D01*
X161189265Y-103162711D01*
X161176285Y-103205500D01*
X161171902Y-103250000D01*
X161171902Y-103550000D01*
X161176285Y-103594500D01*
X161189265Y-103637289D01*
X161196059Y-103650000D01*
X161189265Y-103662711D01*
X161176285Y-103705500D01*
X161171902Y-103750000D01*
X161171902Y-104050000D01*
X161176285Y-104094500D01*
X161189265Y-104137289D01*
X161210343Y-104176724D01*
X161238710Y-104211290D01*
X161273276Y-104239657D01*
X161312711Y-104260735D01*
X161355500Y-104273715D01*
X161400000Y-104278098D01*
X162800000Y-104278098D01*
X162844500Y-104273715D01*
X162887289Y-104260735D01*
X162899890Y-104254000D01*
X164382626Y-104254000D01*
X164400000Y-104255711D01*
X164417374Y-104254000D01*
X164417382Y-104254000D01*
X164469396Y-104248877D01*
X164536125Y-104228635D01*
X164597623Y-104195764D01*
X164651526Y-104151526D01*
X164662612Y-104138019D01*
X164771902Y-104028728D01*
X164771902Y-104040000D01*
X164776285Y-104084500D01*
X164789265Y-104127289D01*
X164810343Y-104166724D01*
X164838710Y-104201290D01*
X164873276Y-104229657D01*
X164912711Y-104250735D01*
X164955500Y-104263715D01*
X165000000Y-104268098D01*
X168150000Y-104268098D01*
X168194500Y-104263715D01*
X168237289Y-104250735D01*
X168276724Y-104229657D01*
X168311290Y-104201290D01*
X168339657Y-104166724D01*
X168360735Y-104127289D01*
X168373715Y-104084500D01*
X168378098Y-104040000D01*
X168378098Y-103040000D01*
X168373715Y-102995500D01*
X168361126Y-102954000D01*
X168753370Y-102954000D01*
X169577393Y-103778024D01*
X169588474Y-103791526D01*
X169642377Y-103835764D01*
X169703875Y-103868635D01*
X169770604Y-103888877D01*
X169821902Y-103893929D01*
X169821902Y-104040000D01*
X169826285Y-104084500D01*
X169839265Y-104127289D01*
X169860343Y-104166724D01*
X169888710Y-104201290D01*
X169923276Y-104229657D01*
X169962711Y-104250735D01*
X170005500Y-104263715D01*
X170050000Y-104268098D01*
X173200000Y-104268098D01*
X173244500Y-104263715D01*
X173287289Y-104250735D01*
X173326724Y-104229657D01*
X173361290Y-104201290D01*
X173389657Y-104166724D01*
X173410735Y-104127289D01*
X173423715Y-104084500D01*
X173428098Y-104040000D01*
X173428098Y-103040000D01*
X173423715Y-102995500D01*
X173410735Y-102952711D01*
X173389657Y-102913276D01*
X173361290Y-102878710D01*
X173326724Y-102850343D01*
X173287289Y-102829265D01*
X173244500Y-102816285D01*
X173200000Y-102811902D01*
X170050000Y-102811902D01*
X170005500Y-102816285D01*
X169962711Y-102829265D01*
X169923276Y-102850343D01*
X169888710Y-102878710D01*
X169860343Y-102913276D01*
X169839265Y-102952711D01*
X169826285Y-102995500D01*
X169823581Y-103022951D01*
X169162612Y-102361982D01*
X169151526Y-102348474D01*
X169097623Y-102304236D01*
X169089698Y-102300000D01*
X169097623Y-102295764D01*
X169151526Y-102251526D01*
X169162612Y-102238018D01*
X169833232Y-101567400D01*
X169839265Y-101587289D01*
X169860343Y-101626724D01*
X169888710Y-101661290D01*
X169923276Y-101689657D01*
X169962711Y-101710735D01*
X170005500Y-101723715D01*
X170050000Y-101728098D01*
X173200000Y-101728098D01*
X173244500Y-101723715D01*
X173287289Y-101710735D01*
X173326724Y-101689657D01*
X173361290Y-101661290D01*
X173389657Y-101626724D01*
X173410735Y-101587289D01*
X173423715Y-101544500D01*
X173428098Y-101500000D01*
X173428098Y-100500000D01*
X173423715Y-100455500D01*
X173410735Y-100412711D01*
X173389657Y-100373276D01*
X173361290Y-100338710D01*
X173326724Y-100310343D01*
X173287289Y-100289265D01*
X173244500Y-100276285D01*
X173200000Y-100271902D01*
X170050000Y-100271902D01*
X170005500Y-100276285D01*
X169962711Y-100289265D01*
X169923276Y-100310343D01*
X169888710Y-100338710D01*
X169860343Y-100373276D01*
X169839265Y-100412711D01*
X169826285Y-100455500D01*
X169821902Y-100500000D01*
X169821902Y-100653763D01*
X169763875Y-100671365D01*
X169702377Y-100704236D01*
X169679646Y-100722891D01*
X169661975Y-100737393D01*
X169661971Y-100737397D01*
X169648474Y-100748474D01*
X169637397Y-100761971D01*
X168753370Y-101646000D01*
X168323838Y-101646000D01*
X168339657Y-101626724D01*
X168360735Y-101587289D01*
X168373715Y-101544500D01*
X168378098Y-101500000D01*
X168378098Y-100500000D01*
X168373715Y-100455500D01*
X168360735Y-100412711D01*
X168339657Y-100373276D01*
X168311290Y-100338710D01*
X168276724Y-100310343D01*
X168237289Y-100289265D01*
X168194500Y-100276285D01*
X168150000Y-100271902D01*
X165000000Y-100271902D01*
X164955500Y-100276285D01*
X164912711Y-100289265D01*
X164873276Y-100310343D01*
X164838710Y-100338710D01*
X164810343Y-100373276D01*
X164789265Y-100412711D01*
X164776285Y-100455500D01*
X164771902Y-100500000D01*
X164771902Y-100646000D01*
X164617374Y-100646000D01*
X164600000Y-100644289D01*
X164582625Y-100646000D01*
X164582618Y-100646000D01*
X164536823Y-100650510D01*
X164530603Y-100651123D01*
X164510361Y-100657264D01*
X164463875Y-100671365D01*
X164402377Y-100704236D01*
X164348474Y-100748474D01*
X164337393Y-100761976D01*
X163131009Y-101968361D01*
X163131009Y-99700000D01*
X163126647Y-99655714D01*
X163113730Y-99613131D01*
X163092753Y-99573886D01*
X163064522Y-99539487D01*
X163030123Y-99511256D01*
X162990878Y-99490279D01*
X162948295Y-99477362D01*
X162904009Y-99473000D01*
X162408011Y-99473000D01*
X162443426Y-99469512D01*
X162527251Y-99444084D01*
X162604505Y-99402791D01*
X162672219Y-99347219D01*
X162727791Y-99279505D01*
X162729130Y-99277000D01*
X164276585Y-99277000D01*
X164300000Y-99279306D01*
X164323415Y-99277000D01*
X164323423Y-99277000D01*
X164393508Y-99270097D01*
X164483423Y-99242822D01*
X164566289Y-99198529D01*
X164638921Y-99138921D01*
X164653855Y-99120724D01*
X164775729Y-98998851D01*
X164776285Y-99004500D01*
X164789265Y-99047289D01*
X164810343Y-99086724D01*
X164838710Y-99121290D01*
X164873276Y-99149657D01*
X164912711Y-99170735D01*
X164955500Y-99183715D01*
X165000000Y-99188098D01*
X168150000Y-99188098D01*
X168194500Y-99183715D01*
X168237289Y-99170735D01*
X168276724Y-99149657D01*
X168311290Y-99121290D01*
X168339657Y-99086724D01*
X168360735Y-99047289D01*
X168373715Y-99004500D01*
X168378098Y-98960000D01*
X168378098Y-97960000D01*
X168373715Y-97915500D01*
X168360735Y-97872711D01*
X168339657Y-97833276D01*
X168332865Y-97825000D01*
X169135804Y-97825000D01*
X169096253Y-97884193D01*
X169061909Y-97967107D01*
X169044400Y-98055127D01*
X169044400Y-98144873D01*
X169061909Y-98232893D01*
X169096253Y-98315807D01*
X169146113Y-98390428D01*
X169209572Y-98453887D01*
X169214364Y-98457089D01*
X169196253Y-98484193D01*
X169161909Y-98567107D01*
X169144400Y-98655127D01*
X169144400Y-98744873D01*
X169161909Y-98832893D01*
X169196253Y-98915807D01*
X169246113Y-98990428D01*
X169309572Y-99053887D01*
X169384193Y-99103747D01*
X169467107Y-99138091D01*
X169555127Y-99155600D01*
X169644873Y-99155600D01*
X169732893Y-99138091D01*
X169815807Y-99103747D01*
X169890428Y-99053887D01*
X169953887Y-98990428D01*
X170003747Y-98915807D01*
X170038091Y-98832893D01*
X170055600Y-98744873D01*
X170055600Y-98655127D01*
X170038091Y-98567107D01*
X170003747Y-98484193D01*
X169953887Y-98409572D01*
X169899442Y-98355127D01*
X173244400Y-98355127D01*
X173244400Y-98444873D01*
X173261909Y-98532893D01*
X173296253Y-98615807D01*
X173346113Y-98690428D01*
X173409572Y-98753887D01*
X173484193Y-98803747D01*
X173567107Y-98838091D01*
X173655127Y-98855600D01*
X173744873Y-98855600D01*
X173832893Y-98838091D01*
X173915807Y-98803747D01*
X173990428Y-98753887D01*
X174053887Y-98690428D01*
X174103747Y-98615807D01*
X174138091Y-98532893D01*
X174155600Y-98444873D01*
X174155600Y-98355127D01*
X174138091Y-98267107D01*
X174103747Y-98184193D01*
X174053887Y-98109572D01*
X173990428Y-98046113D01*
X173915807Y-97996253D01*
X173832893Y-97961909D01*
X173744873Y-97944400D01*
X173655127Y-97944400D01*
X173567107Y-97961909D01*
X173484193Y-97996253D01*
X173409572Y-98046113D01*
X173346113Y-98109572D01*
X173296253Y-98184193D01*
X173261909Y-98267107D01*
X173244400Y-98355127D01*
X169899442Y-98355127D01*
X169890428Y-98346113D01*
X169885636Y-98342911D01*
X169903747Y-98315807D01*
X169938091Y-98232893D01*
X169955600Y-98144873D01*
X169955600Y-98055127D01*
X169938091Y-97967107D01*
X169903747Y-97884193D01*
X169864196Y-97825000D01*
X181788999Y-97825000D01*
X181853201Y-97831295D01*
X181904384Y-97846748D01*
X181951587Y-97871846D01*
X181993013Y-97905632D01*
X182027093Y-97946828D01*
X182052518Y-97993851D01*
X182068327Y-98044924D01*
X182075001Y-98108420D01*
X182075000Y-104488998D01*
X182068705Y-104553202D01*
X182053252Y-104604384D01*
X182028154Y-104651587D01*
X181994368Y-104693013D01*
X181953173Y-104727092D01*
X181906152Y-104752517D01*
X181855080Y-104768326D01*
X181791588Y-104775000D01*
X146211002Y-104775000D01*
X146146798Y-104768705D01*
X146095616Y-104753252D01*
X146048413Y-104728154D01*
X146006987Y-104694368D01*
X145972908Y-104653173D01*
X145947483Y-104606152D01*
X145931674Y-104555080D01*
X145925000Y-104491588D01*
X145925000Y-98111001D01*
X145931295Y-98046799D01*
X145946748Y-97995616D01*
X145971846Y-97948413D01*
X146005632Y-97906987D01*
X146046828Y-97872907D01*
X146093851Y-97847482D01*
X146144924Y-97831673D01*
X146208411Y-97825000D01*
X154535804Y-97825000D01*
X154496253Y-97884193D01*
G37*
X154496253Y-97884193D02*
X154461909Y-97967107D01*
X154460655Y-97973409D01*
X154432893Y-97961909D01*
X154344873Y-97944400D01*
X154255127Y-97944400D01*
X154167107Y-97961909D01*
X154084193Y-97996253D01*
X154009572Y-98046113D01*
X153946113Y-98109572D01*
X153896253Y-98184193D01*
X153861909Y-98267107D01*
X153844400Y-98355127D01*
X153844400Y-98444873D01*
X153861909Y-98532893D01*
X153896253Y-98615807D01*
X153946113Y-98690428D01*
X154001002Y-98745317D01*
X154002370Y-98759202D01*
X154019639Y-98816129D01*
X154047682Y-98868594D01*
X154085422Y-98914579D01*
X154096945Y-98924036D01*
X155498000Y-100325092D01*
X155498001Y-102785164D01*
X155496540Y-102800000D01*
X155502370Y-102859202D01*
X155519640Y-102916129D01*
X155547682Y-102968594D01*
X155585422Y-103014579D01*
X155596945Y-103024036D01*
X156675964Y-104103056D01*
X156685421Y-104114579D01*
X156731406Y-104152319D01*
X156783871Y-104180361D01*
X156823092Y-104192259D01*
X156838710Y-104211290D01*
X156873276Y-104239657D01*
X156912711Y-104260735D01*
X156955500Y-104273715D01*
X157000000Y-104278098D01*
X158400000Y-104278098D01*
X158444500Y-104273715D01*
X158487289Y-104260735D01*
X158526724Y-104239657D01*
X158561290Y-104211290D01*
X158589657Y-104176724D01*
X158610735Y-104137289D01*
X158623715Y-104094500D01*
X158628098Y-104050000D01*
X158628098Y-103750000D01*
X158623715Y-103705500D01*
X158610735Y-103662711D01*
X158603941Y-103650000D01*
X158610735Y-103637289D01*
X158623715Y-103594500D01*
X158628098Y-103550000D01*
X158628098Y-103250000D01*
X158623715Y-103205500D01*
X158610735Y-103162711D01*
X158603941Y-103150000D01*
X158610735Y-103137289D01*
X158623715Y-103094500D01*
X158628098Y-103050000D01*
X158628098Y-102750000D01*
X158623715Y-102705500D01*
X158610735Y-102662711D01*
X158603941Y-102650000D01*
X158610735Y-102637289D01*
X158623715Y-102594500D01*
X158628098Y-102550000D01*
X158628098Y-102250000D01*
X158623715Y-102205500D01*
X158610735Y-102162711D01*
X158589657Y-102123276D01*
X158561290Y-102088710D01*
X158526724Y-102060343D01*
X158487289Y-102039265D01*
X158444500Y-102026285D01*
X158400000Y-102021902D01*
X157002000Y-102021902D01*
X157002000Y-99325091D01*
X157571366Y-98755725D01*
X157596253Y-98815807D01*
X157646113Y-98890428D01*
X157709572Y-98953887D01*
X157784193Y-99003747D01*
X157867107Y-99038091D01*
X157955127Y-99055600D01*
X158044873Y-99055600D01*
X158132893Y-99038091D01*
X158215807Y-99003747D01*
X158290428Y-98953887D01*
X158353887Y-98890428D01*
X158403747Y-98815807D01*
X158438091Y-98732893D01*
X158455600Y-98644873D01*
X158455600Y-98555127D01*
X158438091Y-98467107D01*
X158411123Y-98402000D01*
X160093732Y-98402000D01*
X160055916Y-98472749D01*
X160030488Y-98556574D01*
X160021902Y-98643750D01*
X160021902Y-99156250D01*
X160030488Y-99243426D01*
X160055916Y-99327251D01*
X160097209Y-99404505D01*
X160152781Y-99472219D01*
X160153733Y-99473000D01*
X160104009Y-99473000D01*
X160059723Y-99477362D01*
X160017140Y-99490279D01*
X159977895Y-99511256D01*
X159943496Y-99539487D01*
X159915265Y-99573886D01*
X159894288Y-99613131D01*
X159881371Y-99655714D01*
X159877009Y-99700000D01*
X159877009Y-100900000D01*
X159881371Y-100944286D01*
X159894288Y-100986869D01*
X159915265Y-101026114D01*
X159943496Y-101060513D01*
X161143496Y-102260513D01*
X161171902Y-102283826D01*
X161171902Y-102550000D01*
X161176285Y-102594500D01*
X161189265Y-102637289D01*
X161196059Y-102650000D01*
X161189265Y-102662711D01*
X161176285Y-102705500D01*
X161171902Y-102750000D01*
X161171902Y-103050000D01*
X161176285Y-103094500D01*
X161189265Y-103137289D01*
X161196059Y-103150000D01*
X161189265Y-103162711D01*
X161176285Y-103205500D01*
X161171902Y-103250000D01*
X161171902Y-103550000D01*
X161176285Y-103594500D01*
X161189265Y-103637289D01*
X161196059Y-103650000D01*
X161189265Y-103662711D01*
X161176285Y-103705500D01*
X161171902Y-103750000D01*
X161171902Y-104050000D01*
X161176285Y-104094500D01*
X161189265Y-104137289D01*
X161210343Y-104176724D01*
X161238710Y-104211290D01*
X161273276Y-104239657D01*
X161312711Y-104260735D01*
X161355500Y-104273715D01*
X161400000Y-104278098D01*
X162800000Y-104278098D01*
X162844500Y-104273715D01*
X162887289Y-104260735D01*
X162899890Y-104254000D01*
X164382626Y-104254000D01*
X164400000Y-104255711D01*
X164417374Y-104254000D01*
X164417382Y-104254000D01*
X164469396Y-104248877D01*
X164536125Y-104228635D01*
X164597623Y-104195764D01*
X164651526Y-104151526D01*
X164662612Y-104138019D01*
X164771902Y-104028728D01*
X164771902Y-104040000D01*
X164776285Y-104084500D01*
X164789265Y-104127289D01*
X164810343Y-104166724D01*
X164838710Y-104201290D01*
X164873276Y-104229657D01*
X164912711Y-104250735D01*
X164955500Y-104263715D01*
X165000000Y-104268098D01*
X168150000Y-104268098D01*
X168194500Y-104263715D01*
X168237289Y-104250735D01*
X168276724Y-104229657D01*
X168311290Y-104201290D01*
X168339657Y-104166724D01*
X168360735Y-104127289D01*
X168373715Y-104084500D01*
X168378098Y-104040000D01*
X168378098Y-103040000D01*
X168373715Y-102995500D01*
X168361126Y-102954000D01*
X168753370Y-102954000D01*
X169577393Y-103778024D01*
X169588474Y-103791526D01*
X169642377Y-103835764D01*
X169703875Y-103868635D01*
X169770604Y-103888877D01*
X169821902Y-103893929D01*
X169821902Y-104040000D01*
X169826285Y-104084500D01*
X169839265Y-104127289D01*
X169860343Y-104166724D01*
X169888710Y-104201290D01*
X169923276Y-104229657D01*
X169962711Y-104250735D01*
X170005500Y-104263715D01*
X170050000Y-104268098D01*
X173200000Y-104268098D01*
X173244500Y-104263715D01*
X173287289Y-104250735D01*
X173326724Y-104229657D01*
X173361290Y-104201290D01*
X173389657Y-104166724D01*
X173410735Y-104127289D01*
X173423715Y-104084500D01*
X173428098Y-104040000D01*
X173428098Y-103040000D01*
X173423715Y-102995500D01*
X173410735Y-102952711D01*
X173389657Y-102913276D01*
X173361290Y-102878710D01*
X173326724Y-102850343D01*
X173287289Y-102829265D01*
X173244500Y-102816285D01*
X173200000Y-102811902D01*
X170050000Y-102811902D01*
X170005500Y-102816285D01*
X169962711Y-102829265D01*
X169923276Y-102850343D01*
X169888710Y-102878710D01*
X169860343Y-102913276D01*
X169839265Y-102952711D01*
X169826285Y-102995500D01*
X169823581Y-103022951D01*
X169162612Y-102361982D01*
X169151526Y-102348474D01*
X169097623Y-102304236D01*
X169089698Y-102300000D01*
X169097623Y-102295764D01*
X169151526Y-102251526D01*
X169162612Y-102238018D01*
X169833232Y-101567400D01*
X169839265Y-101587289D01*
X169860343Y-101626724D01*
X169888710Y-101661290D01*
X169923276Y-101689657D01*
X169962711Y-101710735D01*
X170005500Y-101723715D01*
X170050000Y-101728098D01*
X173200000Y-101728098D01*
X173244500Y-101723715D01*
X173287289Y-101710735D01*
X173326724Y-101689657D01*
X173361290Y-101661290D01*
X173389657Y-101626724D01*
X173410735Y-101587289D01*
X173423715Y-101544500D01*
X173428098Y-101500000D01*
X173428098Y-100500000D01*
X173423715Y-100455500D01*
X173410735Y-100412711D01*
X173389657Y-100373276D01*
X173361290Y-100338710D01*
X173326724Y-100310343D01*
X173287289Y-100289265D01*
X173244500Y-100276285D01*
X173200000Y-100271902D01*
X170050000Y-100271902D01*
X170005500Y-100276285D01*
X169962711Y-100289265D01*
X169923276Y-100310343D01*
X169888710Y-100338710D01*
X169860343Y-100373276D01*
X169839265Y-100412711D01*
X169826285Y-100455500D01*
X169821902Y-100500000D01*
X169821902Y-100653763D01*
X169763875Y-100671365D01*
X169702377Y-100704236D01*
X169679646Y-100722891D01*
X169661975Y-100737393D01*
X169661971Y-100737397D01*
X169648474Y-100748474D01*
X169637397Y-100761971D01*
X168753370Y-101646000D01*
X168323838Y-101646000D01*
X168339657Y-101626724D01*
X168360735Y-101587289D01*
X168373715Y-101544500D01*
X168378098Y-101500000D01*
X168378098Y-100500000D01*
X168373715Y-100455500D01*
X168360735Y-100412711D01*
X168339657Y-100373276D01*
X168311290Y-100338710D01*
X168276724Y-100310343D01*
X168237289Y-100289265D01*
X168194500Y-100276285D01*
X168150000Y-100271902D01*
X165000000Y-100271902D01*
X164955500Y-100276285D01*
X164912711Y-100289265D01*
X164873276Y-100310343D01*
X164838710Y-100338710D01*
X164810343Y-100373276D01*
X164789265Y-100412711D01*
X164776285Y-100455500D01*
X164771902Y-100500000D01*
X164771902Y-100646000D01*
X164617374Y-100646000D01*
X164600000Y-100644289D01*
X164582625Y-100646000D01*
X164582618Y-100646000D01*
X164536823Y-100650510D01*
X164530603Y-100651123D01*
X164510361Y-100657264D01*
X164463875Y-100671365D01*
X164402377Y-100704236D01*
X164348474Y-100748474D01*
X164337393Y-100761976D01*
X163131009Y-101968361D01*
X163131009Y-99700000D01*
X163126647Y-99655714D01*
X163113730Y-99613131D01*
X163092753Y-99573886D01*
X163064522Y-99539487D01*
X163030123Y-99511256D01*
X162990878Y-99490279D01*
X162948295Y-99477362D01*
X162904009Y-99473000D01*
X162408011Y-99473000D01*
X162443426Y-99469512D01*
X162527251Y-99444084D01*
X162604505Y-99402791D01*
X162672219Y-99347219D01*
X162727791Y-99279505D01*
X162729130Y-99277000D01*
X164276585Y-99277000D01*
X164300000Y-99279306D01*
X164323415Y-99277000D01*
X164323423Y-99277000D01*
X164393508Y-99270097D01*
X164483423Y-99242822D01*
X164566289Y-99198529D01*
X164638921Y-99138921D01*
X164653855Y-99120724D01*
X164775729Y-98998851D01*
X164776285Y-99004500D01*
X164789265Y-99047289D01*
X164810343Y-99086724D01*
X164838710Y-99121290D01*
X164873276Y-99149657D01*
X164912711Y-99170735D01*
X164955500Y-99183715D01*
X165000000Y-99188098D01*
X168150000Y-99188098D01*
X168194500Y-99183715D01*
X168237289Y-99170735D01*
X168276724Y-99149657D01*
X168311290Y-99121290D01*
X168339657Y-99086724D01*
X168360735Y-99047289D01*
X168373715Y-99004500D01*
X168378098Y-98960000D01*
X168378098Y-97960000D01*
X168373715Y-97915500D01*
X168360735Y-97872711D01*
X168339657Y-97833276D01*
X168332865Y-97825000D01*
X169135804Y-97825000D01*
X169096253Y-97884193D01*
X169061909Y-97967107D01*
X169044400Y-98055127D01*
X169044400Y-98144873D01*
X169061909Y-98232893D01*
X169096253Y-98315807D01*
X169146113Y-98390428D01*
X169209572Y-98453887D01*
X169214364Y-98457089D01*
X169196253Y-98484193D01*
X169161909Y-98567107D01*
X169144400Y-98655127D01*
X169144400Y-98744873D01*
X169161909Y-98832893D01*
X169196253Y-98915807D01*
X169246113Y-98990428D01*
X169309572Y-99053887D01*
X169384193Y-99103747D01*
X169467107Y-99138091D01*
X169555127Y-99155600D01*
X169644873Y-99155600D01*
X169732893Y-99138091D01*
X169815807Y-99103747D01*
X169890428Y-99053887D01*
X169953887Y-98990428D01*
X170003747Y-98915807D01*
X170038091Y-98832893D01*
X170055600Y-98744873D01*
X170055600Y-98655127D01*
X170038091Y-98567107D01*
X170003747Y-98484193D01*
X169953887Y-98409572D01*
X169899442Y-98355127D01*
X173244400Y-98355127D01*
X173244400Y-98444873D01*
X173261909Y-98532893D01*
X173296253Y-98615807D01*
X173346113Y-98690428D01*
X173409572Y-98753887D01*
X173484193Y-98803747D01*
X173567107Y-98838091D01*
X173655127Y-98855600D01*
X173744873Y-98855600D01*
X173832893Y-98838091D01*
X173915807Y-98803747D01*
X173990428Y-98753887D01*
X174053887Y-98690428D01*
X174103747Y-98615807D01*
X174138091Y-98532893D01*
X174155600Y-98444873D01*
X174155600Y-98355127D01*
X174138091Y-98267107D01*
X174103747Y-98184193D01*
X174053887Y-98109572D01*
X173990428Y-98046113D01*
X173915807Y-97996253D01*
X173832893Y-97961909D01*
X173744873Y-97944400D01*
X173655127Y-97944400D01*
X173567107Y-97961909D01*
X173484193Y-97996253D01*
X173409572Y-98046113D01*
X173346113Y-98109572D01*
X173296253Y-98184193D01*
X173261909Y-98267107D01*
X173244400Y-98355127D01*
X169899442Y-98355127D01*
X169890428Y-98346113D01*
X169885636Y-98342911D01*
X169903747Y-98315807D01*
X169938091Y-98232893D01*
X169955600Y-98144873D01*
X169955600Y-98055127D01*
X169938091Y-97967107D01*
X169903747Y-97884193D01*
X169864196Y-97825000D01*
X181788999Y-97825000D01*
X181853201Y-97831295D01*
X181904384Y-97846748D01*
X181951587Y-97871846D01*
X181993013Y-97905632D01*
X182027093Y-97946828D01*
X182052518Y-97993851D01*
X182068327Y-98044924D01*
X182075001Y-98108420D01*
X182075000Y-104488998D01*
X182068705Y-104553202D01*
X182053252Y-104604384D01*
X182028154Y-104651587D01*
X181994368Y-104693013D01*
X181953173Y-104727092D01*
X181906152Y-104752517D01*
X181855080Y-104768326D01*
X181791588Y-104775000D01*
X146211002Y-104775000D01*
X146146798Y-104768705D01*
X146095616Y-104753252D01*
X146048413Y-104728154D01*
X146006987Y-104694368D01*
X145972908Y-104653173D01*
X145947483Y-104606152D01*
X145931674Y-104555080D01*
X145925000Y-104491588D01*
X145925000Y-98111001D01*
X145931295Y-98046799D01*
X145946748Y-97995616D01*
X145971846Y-97948413D01*
X146005632Y-97906987D01*
X146046828Y-97872907D01*
X146093851Y-97847482D01*
X146144924Y-97831673D01*
X146208411Y-97825000D01*
X154535804Y-97825000D01*
X154496253Y-97884193D01*
G36*
X162804009Y-102000000D02*
G01*
X161345431Y-102000000D01*
X160204009Y-100858578D01*
X160204009Y-99800000D01*
X162804009Y-99800000D01*
X162804009Y-102000000D01*
G37*
X162804009Y-102000000D02*
X161345431Y-102000000D01*
X160204009Y-100858578D01*
X160204009Y-99800000D01*
X162804009Y-99800000D01*
X162804009Y-102000000D01*
M02*
