G04 #@! TF.GenerationSoftware,KiCad,Pcbnew,5.1.5*
G04 #@! TF.CreationDate,2020-02-12T19:16:24+01:00*
G04 #@! TF.ProjectId,Filter_PCB_4_btob,46696c74-6572-45f5-9043-425f345f6274,rev?*
G04 #@! TF.SameCoordinates,Original*
G04 #@! TF.FileFunction,Paste,Bot*
G04 #@! TF.FilePolarity,Positive*
%FSLAX46Y46*%
G04 Gerber Fmt 4.6, Leading zero omitted, Abs format (unit mm)*
G04 Created by KiCad (PCBNEW 5.1.5) date 2020-02-12 19:16:24*
%MOMM*%
%LPD*%
G04 APERTURE LIST*
%ADD10R,3.150000X1.000000*%
%ADD11C,0.100000*%
%ADD12R,1.400000X0.300000*%
G04 APERTURE END LIST*
D10*
X166575000Y-103540000D03*
X171625000Y-103540000D03*
X166575000Y-101000000D03*
X171625000Y-101000000D03*
X166575000Y-98460000D03*
X171625000Y-98460000D03*
D11*
G36*
X160927691Y-98426053D02*
G01*
X160948926Y-98429203D01*
X160969750Y-98434419D01*
X160989962Y-98441651D01*
X161009368Y-98450830D01*
X161027781Y-98461866D01*
X161045024Y-98474654D01*
X161060930Y-98489070D01*
X161075346Y-98504976D01*
X161088134Y-98522219D01*
X161099170Y-98540632D01*
X161108349Y-98560038D01*
X161115581Y-98580250D01*
X161120797Y-98601074D01*
X161123947Y-98622309D01*
X161125000Y-98643750D01*
X161125000Y-99156250D01*
X161123947Y-99177691D01*
X161120797Y-99198926D01*
X161115581Y-99219750D01*
X161108349Y-99239962D01*
X161099170Y-99259368D01*
X161088134Y-99277781D01*
X161075346Y-99295024D01*
X161060930Y-99310930D01*
X161045024Y-99325346D01*
X161027781Y-99338134D01*
X161009368Y-99349170D01*
X160989962Y-99358349D01*
X160969750Y-99365581D01*
X160948926Y-99370797D01*
X160927691Y-99373947D01*
X160906250Y-99375000D01*
X160468750Y-99375000D01*
X160447309Y-99373947D01*
X160426074Y-99370797D01*
X160405250Y-99365581D01*
X160385038Y-99358349D01*
X160365632Y-99349170D01*
X160347219Y-99338134D01*
X160329976Y-99325346D01*
X160314070Y-99310930D01*
X160299654Y-99295024D01*
X160286866Y-99277781D01*
X160275830Y-99259368D01*
X160266651Y-99239962D01*
X160259419Y-99219750D01*
X160254203Y-99198926D01*
X160251053Y-99177691D01*
X160250000Y-99156250D01*
X160250000Y-98643750D01*
X160251053Y-98622309D01*
X160254203Y-98601074D01*
X160259419Y-98580250D01*
X160266651Y-98560038D01*
X160275830Y-98540632D01*
X160286866Y-98522219D01*
X160299654Y-98504976D01*
X160314070Y-98489070D01*
X160329976Y-98474654D01*
X160347219Y-98461866D01*
X160365632Y-98450830D01*
X160385038Y-98441651D01*
X160405250Y-98434419D01*
X160426074Y-98429203D01*
X160447309Y-98426053D01*
X160468750Y-98425000D01*
X160906250Y-98425000D01*
X160927691Y-98426053D01*
G37*
G36*
X159352691Y-98426053D02*
G01*
X159373926Y-98429203D01*
X159394750Y-98434419D01*
X159414962Y-98441651D01*
X159434368Y-98450830D01*
X159452781Y-98461866D01*
X159470024Y-98474654D01*
X159485930Y-98489070D01*
X159500346Y-98504976D01*
X159513134Y-98522219D01*
X159524170Y-98540632D01*
X159533349Y-98560038D01*
X159540581Y-98580250D01*
X159545797Y-98601074D01*
X159548947Y-98622309D01*
X159550000Y-98643750D01*
X159550000Y-99156250D01*
X159548947Y-99177691D01*
X159545797Y-99198926D01*
X159540581Y-99219750D01*
X159533349Y-99239962D01*
X159524170Y-99259368D01*
X159513134Y-99277781D01*
X159500346Y-99295024D01*
X159485930Y-99310930D01*
X159470024Y-99325346D01*
X159452781Y-99338134D01*
X159434368Y-99349170D01*
X159414962Y-99358349D01*
X159394750Y-99365581D01*
X159373926Y-99370797D01*
X159352691Y-99373947D01*
X159331250Y-99375000D01*
X158893750Y-99375000D01*
X158872309Y-99373947D01*
X158851074Y-99370797D01*
X158830250Y-99365581D01*
X158810038Y-99358349D01*
X158790632Y-99349170D01*
X158772219Y-99338134D01*
X158754976Y-99325346D01*
X158739070Y-99310930D01*
X158724654Y-99295024D01*
X158711866Y-99277781D01*
X158700830Y-99259368D01*
X158691651Y-99239962D01*
X158684419Y-99219750D01*
X158679203Y-99198926D01*
X158676053Y-99177691D01*
X158675000Y-99156250D01*
X158675000Y-98643750D01*
X158676053Y-98622309D01*
X158679203Y-98601074D01*
X158684419Y-98580250D01*
X158691651Y-98560038D01*
X158700830Y-98540632D01*
X158711866Y-98522219D01*
X158724654Y-98504976D01*
X158739070Y-98489070D01*
X158754976Y-98474654D01*
X158772219Y-98461866D01*
X158790632Y-98450830D01*
X158810038Y-98441651D01*
X158830250Y-98434419D01*
X158851074Y-98429203D01*
X158872309Y-98426053D01*
X158893750Y-98425000D01*
X159331250Y-98425000D01*
X159352691Y-98426053D01*
G37*
G36*
X162377691Y-99951053D02*
G01*
X162398926Y-99954203D01*
X162419750Y-99959419D01*
X162439962Y-99966651D01*
X162459368Y-99975830D01*
X162477781Y-99986866D01*
X162495024Y-99999654D01*
X162510930Y-100014070D01*
X162525346Y-100029976D01*
X162538134Y-100047219D01*
X162549170Y-100065632D01*
X162558349Y-100085038D01*
X162565581Y-100105250D01*
X162570797Y-100126074D01*
X162573947Y-100147309D01*
X162575000Y-100168750D01*
X162575000Y-100606250D01*
X162573947Y-100627691D01*
X162570797Y-100648926D01*
X162565581Y-100669750D01*
X162558349Y-100689962D01*
X162549170Y-100709368D01*
X162538134Y-100727781D01*
X162525346Y-100745024D01*
X162510930Y-100760930D01*
X162495024Y-100775346D01*
X162477781Y-100788134D01*
X162459368Y-100799170D01*
X162439962Y-100808349D01*
X162419750Y-100815581D01*
X162398926Y-100820797D01*
X162377691Y-100823947D01*
X162356250Y-100825000D01*
X161843750Y-100825000D01*
X161822309Y-100823947D01*
X161801074Y-100820797D01*
X161780250Y-100815581D01*
X161760038Y-100808349D01*
X161740632Y-100799170D01*
X161722219Y-100788134D01*
X161704976Y-100775346D01*
X161689070Y-100760930D01*
X161674654Y-100745024D01*
X161661866Y-100727781D01*
X161650830Y-100709368D01*
X161641651Y-100689962D01*
X161634419Y-100669750D01*
X161629203Y-100648926D01*
X161626053Y-100627691D01*
X161625000Y-100606250D01*
X161625000Y-100168750D01*
X161626053Y-100147309D01*
X161629203Y-100126074D01*
X161634419Y-100105250D01*
X161641651Y-100085038D01*
X161650830Y-100065632D01*
X161661866Y-100047219D01*
X161674654Y-100029976D01*
X161689070Y-100014070D01*
X161704976Y-99999654D01*
X161722219Y-99986866D01*
X161740632Y-99975830D01*
X161760038Y-99966651D01*
X161780250Y-99959419D01*
X161801074Y-99954203D01*
X161822309Y-99951053D01*
X161843750Y-99950000D01*
X162356250Y-99950000D01*
X162377691Y-99951053D01*
G37*
G36*
X162377691Y-98376053D02*
G01*
X162398926Y-98379203D01*
X162419750Y-98384419D01*
X162439962Y-98391651D01*
X162459368Y-98400830D01*
X162477781Y-98411866D01*
X162495024Y-98424654D01*
X162510930Y-98439070D01*
X162525346Y-98454976D01*
X162538134Y-98472219D01*
X162549170Y-98490632D01*
X162558349Y-98510038D01*
X162565581Y-98530250D01*
X162570797Y-98551074D01*
X162573947Y-98572309D01*
X162575000Y-98593750D01*
X162575000Y-99031250D01*
X162573947Y-99052691D01*
X162570797Y-99073926D01*
X162565581Y-99094750D01*
X162558349Y-99114962D01*
X162549170Y-99134368D01*
X162538134Y-99152781D01*
X162525346Y-99170024D01*
X162510930Y-99185930D01*
X162495024Y-99200346D01*
X162477781Y-99213134D01*
X162459368Y-99224170D01*
X162439962Y-99233349D01*
X162419750Y-99240581D01*
X162398926Y-99245797D01*
X162377691Y-99248947D01*
X162356250Y-99250000D01*
X161843750Y-99250000D01*
X161822309Y-99248947D01*
X161801074Y-99245797D01*
X161780250Y-99240581D01*
X161760038Y-99233349D01*
X161740632Y-99224170D01*
X161722219Y-99213134D01*
X161704976Y-99200346D01*
X161689070Y-99185930D01*
X161674654Y-99170024D01*
X161661866Y-99152781D01*
X161650830Y-99134368D01*
X161641651Y-99114962D01*
X161634419Y-99094750D01*
X161629203Y-99073926D01*
X161626053Y-99052691D01*
X161625000Y-99031250D01*
X161625000Y-98593750D01*
X161626053Y-98572309D01*
X161629203Y-98551074D01*
X161634419Y-98530250D01*
X161641651Y-98510038D01*
X161650830Y-98490632D01*
X161661866Y-98472219D01*
X161674654Y-98454976D01*
X161689070Y-98439070D01*
X161704976Y-98424654D01*
X161722219Y-98411866D01*
X161740632Y-98400830D01*
X161760038Y-98391651D01*
X161780250Y-98384419D01*
X161801074Y-98379203D01*
X161822309Y-98376053D01*
X161843750Y-98375000D01*
X162356250Y-98375000D01*
X162377691Y-98376053D01*
G37*
G36*
X149837252Y-103225602D02*
G01*
X149849386Y-103227402D01*
X149861286Y-103230382D01*
X149872835Y-103234515D01*
X149883925Y-103239760D01*
X149894446Y-103246066D01*
X149904299Y-103253374D01*
X149913388Y-103261612D01*
X149921626Y-103270701D01*
X149928934Y-103280554D01*
X149935240Y-103291075D01*
X149940485Y-103302165D01*
X149944618Y-103313714D01*
X149947598Y-103325614D01*
X149949398Y-103337748D01*
X149950000Y-103350000D01*
X149950000Y-104350000D01*
X149949398Y-104362252D01*
X149947598Y-104374386D01*
X149944618Y-104386286D01*
X149940485Y-104397835D01*
X149935240Y-104408925D01*
X149928934Y-104419446D01*
X149921626Y-104429299D01*
X149913388Y-104438388D01*
X149904299Y-104446626D01*
X149894446Y-104453934D01*
X149883925Y-104460240D01*
X149872835Y-104465485D01*
X149861286Y-104469618D01*
X149849386Y-104472598D01*
X149837252Y-104474398D01*
X149825000Y-104475000D01*
X145825000Y-104475000D01*
X145812748Y-104474398D01*
X145800614Y-104472598D01*
X145788714Y-104469618D01*
X145777165Y-104465485D01*
X145766075Y-104460240D01*
X145755554Y-104453934D01*
X145745701Y-104446626D01*
X145736612Y-104438388D01*
X145728374Y-104429299D01*
X145721066Y-104419446D01*
X145714760Y-104408925D01*
X145709515Y-104397835D01*
X145705382Y-104386286D01*
X145702402Y-104374386D01*
X145700602Y-104362252D01*
X145700000Y-104350000D01*
X145700000Y-103350000D01*
X145700602Y-103337748D01*
X145702402Y-103325614D01*
X145705382Y-103313714D01*
X145709515Y-103302165D01*
X145714760Y-103291075D01*
X145721066Y-103280554D01*
X145728374Y-103270701D01*
X145736612Y-103261612D01*
X145745701Y-103253374D01*
X145755554Y-103246066D01*
X145766075Y-103239760D01*
X145777165Y-103234515D01*
X145788714Y-103230382D01*
X145800614Y-103227402D01*
X145812748Y-103225602D01*
X145825000Y-103225000D01*
X149825000Y-103225000D01*
X149837252Y-103225602D01*
G37*
G36*
X149837252Y-103225602D02*
G01*
X149849386Y-103227402D01*
X149861286Y-103230382D01*
X149872835Y-103234515D01*
X149883925Y-103239760D01*
X149894446Y-103246066D01*
X149904299Y-103253374D01*
X149913388Y-103261612D01*
X149921626Y-103270701D01*
X149928934Y-103280554D01*
X149935240Y-103291075D01*
X149940485Y-103302165D01*
X149944618Y-103313714D01*
X149947598Y-103325614D01*
X149949398Y-103337748D01*
X149950000Y-103350000D01*
X149950000Y-104350000D01*
X149949398Y-104362252D01*
X149947598Y-104374386D01*
X149944618Y-104386286D01*
X149940485Y-104397835D01*
X149935240Y-104408925D01*
X149928934Y-104419446D01*
X149921626Y-104429299D01*
X149913388Y-104438388D01*
X149904299Y-104446626D01*
X149894446Y-104453934D01*
X149883925Y-104460240D01*
X149872835Y-104465485D01*
X149861286Y-104469618D01*
X149849386Y-104472598D01*
X149837252Y-104474398D01*
X149825000Y-104475000D01*
X145825000Y-104475000D01*
X145812748Y-104474398D01*
X145800614Y-104472598D01*
X145788714Y-104469618D01*
X145777165Y-104465485D01*
X145766075Y-104460240D01*
X145755554Y-104453934D01*
X145745701Y-104446626D01*
X145736612Y-104438388D01*
X145728374Y-104429299D01*
X145721066Y-104419446D01*
X145714760Y-104408925D01*
X145709515Y-104397835D01*
X145705382Y-104386286D01*
X145702402Y-104374386D01*
X145700602Y-104362252D01*
X145700000Y-104350000D01*
X145700000Y-103350000D01*
X145700602Y-103337748D01*
X145702402Y-103325614D01*
X145705382Y-103313714D01*
X145709515Y-103302165D01*
X145714760Y-103291075D01*
X145721066Y-103280554D01*
X145728374Y-103270701D01*
X145736612Y-103261612D01*
X145745701Y-103253374D01*
X145755554Y-103246066D01*
X145766075Y-103239760D01*
X145777165Y-103234515D01*
X145788714Y-103230382D01*
X145800614Y-103227402D01*
X145812748Y-103225602D01*
X145825000Y-103225000D01*
X149825000Y-103225000D01*
X149837252Y-103225602D01*
G37*
G36*
X149837252Y-98125602D02*
G01*
X149849386Y-98127402D01*
X149861286Y-98130382D01*
X149872835Y-98134515D01*
X149883925Y-98139760D01*
X149894446Y-98146066D01*
X149904299Y-98153374D01*
X149913388Y-98161612D01*
X149921626Y-98170701D01*
X149928934Y-98180554D01*
X149935240Y-98191075D01*
X149940485Y-98202165D01*
X149944618Y-98213714D01*
X149947598Y-98225614D01*
X149949398Y-98237748D01*
X149950000Y-98250000D01*
X149950000Y-99250000D01*
X149949398Y-99262252D01*
X149947598Y-99274386D01*
X149944618Y-99286286D01*
X149940485Y-99297835D01*
X149935240Y-99308925D01*
X149928934Y-99319446D01*
X149921626Y-99329299D01*
X149913388Y-99338388D01*
X149904299Y-99346626D01*
X149894446Y-99353934D01*
X149883925Y-99360240D01*
X149872835Y-99365485D01*
X149861286Y-99369618D01*
X149849386Y-99372598D01*
X149837252Y-99374398D01*
X149825000Y-99375000D01*
X145825000Y-99375000D01*
X145812748Y-99374398D01*
X145800614Y-99372598D01*
X145788714Y-99369618D01*
X145777165Y-99365485D01*
X145766075Y-99360240D01*
X145755554Y-99353934D01*
X145745701Y-99346626D01*
X145736612Y-99338388D01*
X145728374Y-99329299D01*
X145721066Y-99319446D01*
X145714760Y-99308925D01*
X145709515Y-99297835D01*
X145705382Y-99286286D01*
X145702402Y-99274386D01*
X145700602Y-99262252D01*
X145700000Y-99250000D01*
X145700000Y-98250000D01*
X145700602Y-98237748D01*
X145702402Y-98225614D01*
X145705382Y-98213714D01*
X145709515Y-98202165D01*
X145714760Y-98191075D01*
X145721066Y-98180554D01*
X145728374Y-98170701D01*
X145736612Y-98161612D01*
X145745701Y-98153374D01*
X145755554Y-98146066D01*
X145766075Y-98139760D01*
X145777165Y-98134515D01*
X145788714Y-98130382D01*
X145800614Y-98127402D01*
X145812748Y-98125602D01*
X145825000Y-98125000D01*
X149825000Y-98125000D01*
X149837252Y-98125602D01*
G37*
G36*
X182187252Y-103225602D02*
G01*
X182199386Y-103227402D01*
X182211286Y-103230382D01*
X182222835Y-103234515D01*
X182233925Y-103239760D01*
X182244446Y-103246066D01*
X182254299Y-103253374D01*
X182263388Y-103261612D01*
X182271626Y-103270701D01*
X182278934Y-103280554D01*
X182285240Y-103291075D01*
X182290485Y-103302165D01*
X182294618Y-103313714D01*
X182297598Y-103325614D01*
X182299398Y-103337748D01*
X182300000Y-103350000D01*
X182300000Y-104350000D01*
X182299398Y-104362252D01*
X182297598Y-104374386D01*
X182294618Y-104386286D01*
X182290485Y-104397835D01*
X182285240Y-104408925D01*
X182278934Y-104419446D01*
X182271626Y-104429299D01*
X182263388Y-104438388D01*
X182254299Y-104446626D01*
X182244446Y-104453934D01*
X182233925Y-104460240D01*
X182222835Y-104465485D01*
X182211286Y-104469618D01*
X182199386Y-104472598D01*
X182187252Y-104474398D01*
X182175000Y-104475000D01*
X178175000Y-104475000D01*
X178162748Y-104474398D01*
X178150614Y-104472598D01*
X178138714Y-104469618D01*
X178127165Y-104465485D01*
X178116075Y-104460240D01*
X178105554Y-104453934D01*
X178095701Y-104446626D01*
X178086612Y-104438388D01*
X178078374Y-104429299D01*
X178071066Y-104419446D01*
X178064760Y-104408925D01*
X178059515Y-104397835D01*
X178055382Y-104386286D01*
X178052402Y-104374386D01*
X178050602Y-104362252D01*
X178050000Y-104350000D01*
X178050000Y-103350000D01*
X178050602Y-103337748D01*
X178052402Y-103325614D01*
X178055382Y-103313714D01*
X178059515Y-103302165D01*
X178064760Y-103291075D01*
X178071066Y-103280554D01*
X178078374Y-103270701D01*
X178086612Y-103261612D01*
X178095701Y-103253374D01*
X178105554Y-103246066D01*
X178116075Y-103239760D01*
X178127165Y-103234515D01*
X178138714Y-103230382D01*
X178150614Y-103227402D01*
X178162748Y-103225602D01*
X178175000Y-103225000D01*
X182175000Y-103225000D01*
X182187252Y-103225602D01*
G37*
G36*
X182187252Y-98125602D02*
G01*
X182199386Y-98127402D01*
X182211286Y-98130382D01*
X182222835Y-98134515D01*
X182233925Y-98139760D01*
X182244446Y-98146066D01*
X182254299Y-98153374D01*
X182263388Y-98161612D01*
X182271626Y-98170701D01*
X182278934Y-98180554D01*
X182285240Y-98191075D01*
X182290485Y-98202165D01*
X182294618Y-98213714D01*
X182297598Y-98225614D01*
X182299398Y-98237748D01*
X182300000Y-98250000D01*
X182300000Y-99250000D01*
X182299398Y-99262252D01*
X182297598Y-99274386D01*
X182294618Y-99286286D01*
X182290485Y-99297835D01*
X182285240Y-99308925D01*
X182278934Y-99319446D01*
X182271626Y-99329299D01*
X182263388Y-99338388D01*
X182254299Y-99346626D01*
X182244446Y-99353934D01*
X182233925Y-99360240D01*
X182222835Y-99365485D01*
X182211286Y-99369618D01*
X182199386Y-99372598D01*
X182187252Y-99374398D01*
X182175000Y-99375000D01*
X178175000Y-99375000D01*
X178162748Y-99374398D01*
X178150614Y-99372598D01*
X178138714Y-99369618D01*
X178127165Y-99365485D01*
X178116075Y-99360240D01*
X178105554Y-99353934D01*
X178095701Y-99346626D01*
X178086612Y-99338388D01*
X178078374Y-99329299D01*
X178071066Y-99319446D01*
X178064760Y-99308925D01*
X178059515Y-99297835D01*
X178055382Y-99286286D01*
X178052402Y-99274386D01*
X178050602Y-99262252D01*
X178050000Y-99250000D01*
X178050000Y-98250000D01*
X178050602Y-98237748D01*
X178052402Y-98225614D01*
X178055382Y-98213714D01*
X178059515Y-98202165D01*
X178064760Y-98191075D01*
X178071066Y-98180554D01*
X178078374Y-98170701D01*
X178086612Y-98161612D01*
X178095701Y-98153374D01*
X178105554Y-98146066D01*
X178116075Y-98139760D01*
X178127165Y-98134515D01*
X178138714Y-98130382D01*
X178150614Y-98127402D01*
X178162748Y-98125602D01*
X178175000Y-98125000D01*
X182175000Y-98125000D01*
X182187252Y-98125602D01*
G37*
G36*
X182187252Y-98125602D02*
G01*
X182199386Y-98127402D01*
X182211286Y-98130382D01*
X182222835Y-98134515D01*
X182233925Y-98139760D01*
X182244446Y-98146066D01*
X182254299Y-98153374D01*
X182263388Y-98161612D01*
X182271626Y-98170701D01*
X182278934Y-98180554D01*
X182285240Y-98191075D01*
X182290485Y-98202165D01*
X182294618Y-98213714D01*
X182297598Y-98225614D01*
X182299398Y-98237748D01*
X182300000Y-98250000D01*
X182300000Y-99250000D01*
X182299398Y-99262252D01*
X182297598Y-99274386D01*
X182294618Y-99286286D01*
X182290485Y-99297835D01*
X182285240Y-99308925D01*
X182278934Y-99319446D01*
X182271626Y-99329299D01*
X182263388Y-99338388D01*
X182254299Y-99346626D01*
X182244446Y-99353934D01*
X182233925Y-99360240D01*
X182222835Y-99365485D01*
X182211286Y-99369618D01*
X182199386Y-99372598D01*
X182187252Y-99374398D01*
X182175000Y-99375000D01*
X178175000Y-99375000D01*
X178162748Y-99374398D01*
X178150614Y-99372598D01*
X178138714Y-99369618D01*
X178127165Y-99365485D01*
X178116075Y-99360240D01*
X178105554Y-99353934D01*
X178095701Y-99346626D01*
X178086612Y-99338388D01*
X178078374Y-99329299D01*
X178071066Y-99319446D01*
X178064760Y-99308925D01*
X178059515Y-99297835D01*
X178055382Y-99286286D01*
X178052402Y-99274386D01*
X178050602Y-99262252D01*
X178050000Y-99250000D01*
X178050000Y-98250000D01*
X178050602Y-98237748D01*
X178052402Y-98225614D01*
X178055382Y-98213714D01*
X178059515Y-98202165D01*
X178064760Y-98191075D01*
X178071066Y-98180554D01*
X178078374Y-98170701D01*
X178086612Y-98161612D01*
X178095701Y-98153374D01*
X178105554Y-98146066D01*
X178116075Y-98139760D01*
X178127165Y-98134515D01*
X178138714Y-98130382D01*
X178150614Y-98127402D01*
X178162748Y-98125602D01*
X178175000Y-98125000D01*
X182175000Y-98125000D01*
X182187252Y-98125602D01*
G37*
G36*
X159352691Y-99826053D02*
G01*
X159373926Y-99829203D01*
X159394750Y-99834419D01*
X159414962Y-99841651D01*
X159434368Y-99850830D01*
X159452781Y-99861866D01*
X159470024Y-99874654D01*
X159485930Y-99889070D01*
X159500346Y-99904976D01*
X159513134Y-99922219D01*
X159524170Y-99940632D01*
X159533349Y-99960038D01*
X159540581Y-99980250D01*
X159545797Y-100001074D01*
X159548947Y-100022309D01*
X159550000Y-100043750D01*
X159550000Y-100556250D01*
X159548947Y-100577691D01*
X159545797Y-100598926D01*
X159540581Y-100619750D01*
X159533349Y-100639962D01*
X159524170Y-100659368D01*
X159513134Y-100677781D01*
X159500346Y-100695024D01*
X159485930Y-100710930D01*
X159470024Y-100725346D01*
X159452781Y-100738134D01*
X159434368Y-100749170D01*
X159414962Y-100758349D01*
X159394750Y-100765581D01*
X159373926Y-100770797D01*
X159352691Y-100773947D01*
X159331250Y-100775000D01*
X158893750Y-100775000D01*
X158872309Y-100773947D01*
X158851074Y-100770797D01*
X158830250Y-100765581D01*
X158810038Y-100758349D01*
X158790632Y-100749170D01*
X158772219Y-100738134D01*
X158754976Y-100725346D01*
X158739070Y-100710930D01*
X158724654Y-100695024D01*
X158711866Y-100677781D01*
X158700830Y-100659368D01*
X158691651Y-100639962D01*
X158684419Y-100619750D01*
X158679203Y-100598926D01*
X158676053Y-100577691D01*
X158675000Y-100556250D01*
X158675000Y-100043750D01*
X158676053Y-100022309D01*
X158679203Y-100001074D01*
X158684419Y-99980250D01*
X158691651Y-99960038D01*
X158700830Y-99940632D01*
X158711866Y-99922219D01*
X158724654Y-99904976D01*
X158739070Y-99889070D01*
X158754976Y-99874654D01*
X158772219Y-99861866D01*
X158790632Y-99850830D01*
X158810038Y-99841651D01*
X158830250Y-99834419D01*
X158851074Y-99829203D01*
X158872309Y-99826053D01*
X158893750Y-99825000D01*
X159331250Y-99825000D01*
X159352691Y-99826053D01*
G37*
G36*
X160927691Y-99826053D02*
G01*
X160948926Y-99829203D01*
X160969750Y-99834419D01*
X160989962Y-99841651D01*
X161009368Y-99850830D01*
X161027781Y-99861866D01*
X161045024Y-99874654D01*
X161060930Y-99889070D01*
X161075346Y-99904976D01*
X161088134Y-99922219D01*
X161099170Y-99940632D01*
X161108349Y-99960038D01*
X161115581Y-99980250D01*
X161120797Y-100001074D01*
X161123947Y-100022309D01*
X161125000Y-100043750D01*
X161125000Y-100556250D01*
X161123947Y-100577691D01*
X161120797Y-100598926D01*
X161115581Y-100619750D01*
X161108349Y-100639962D01*
X161099170Y-100659368D01*
X161088134Y-100677781D01*
X161075346Y-100695024D01*
X161060930Y-100710930D01*
X161045024Y-100725346D01*
X161027781Y-100738134D01*
X161009368Y-100749170D01*
X160989962Y-100758349D01*
X160969750Y-100765581D01*
X160948926Y-100770797D01*
X160927691Y-100773947D01*
X160906250Y-100775000D01*
X160468750Y-100775000D01*
X160447309Y-100773947D01*
X160426074Y-100770797D01*
X160405250Y-100765581D01*
X160385038Y-100758349D01*
X160365632Y-100749170D01*
X160347219Y-100738134D01*
X160329976Y-100725346D01*
X160314070Y-100710930D01*
X160299654Y-100695024D01*
X160286866Y-100677781D01*
X160275830Y-100659368D01*
X160266651Y-100639962D01*
X160259419Y-100619750D01*
X160254203Y-100598926D01*
X160251053Y-100577691D01*
X160250000Y-100556250D01*
X160250000Y-100043750D01*
X160251053Y-100022309D01*
X160254203Y-100001074D01*
X160259419Y-99980250D01*
X160266651Y-99960038D01*
X160275830Y-99940632D01*
X160286866Y-99922219D01*
X160299654Y-99904976D01*
X160314070Y-99889070D01*
X160329976Y-99874654D01*
X160347219Y-99861866D01*
X160365632Y-99850830D01*
X160385038Y-99841651D01*
X160405250Y-99834419D01*
X160426074Y-99829203D01*
X160447309Y-99826053D01*
X160468750Y-99825000D01*
X160906250Y-99825000D01*
X160927691Y-99826053D01*
G37*
D12*
X162100000Y-101900000D03*
X162100000Y-102400000D03*
X162100000Y-102900000D03*
X162100000Y-103400000D03*
X162100000Y-103900000D03*
X157700000Y-103900000D03*
X157700000Y-103400000D03*
X157700000Y-102900000D03*
X157700000Y-102400000D03*
X157700000Y-101900000D03*
M02*
