G04 #@! TF.GenerationSoftware,KiCad,Pcbnew,5.1.5*
G04 #@! TF.CreationDate,2020-02-12T19:16:24+01:00*
G04 #@! TF.ProjectId,Filter_PCB_4_btob,46696c74-6572-45f5-9043-425f345f6274,rev?*
G04 #@! TF.SameCoordinates,Original*
G04 #@! TF.FileFunction,Copper,L3,Inr*
G04 #@! TF.FilePolarity,Positive*
%FSLAX46Y46*%
G04 Gerber Fmt 4.6, Leading zero omitted, Abs format (unit mm)*
G04 Created by KiCad (PCBNEW 5.1.5) date 2020-02-12 19:16:24*
%MOMM*%
%LPD*%
G04 APERTURE LIST*
%ADD10C,0.500000*%
%ADD11C,0.457200*%
%ADD12C,0.150000*%
%ADD13C,0.200000*%
G04 APERTURE END LIST*
D10*
X157900000Y-104500000D03*
X155800000Y-104500000D03*
X154900000Y-104500000D03*
X150300000Y-104500000D03*
X152600000Y-104500000D03*
X154000000Y-104500000D03*
X160200000Y-104500000D03*
X156900000Y-104500000D03*
X167800000Y-104500000D03*
X175400000Y-104500000D03*
X161600000Y-104500000D03*
X169200000Y-104500000D03*
X166400000Y-104500000D03*
X162500000Y-104500000D03*
X176800000Y-104500000D03*
X151400000Y-98100000D03*
X150900000Y-98600000D03*
X150400000Y-98100000D03*
X150400000Y-99100000D03*
X177600000Y-99100000D03*
X177600000Y-98100000D03*
X177100000Y-98600000D03*
X158800000Y-104500000D03*
X165500000Y-104500000D03*
X174000000Y-104500000D03*
X172100000Y-104500000D03*
X164500000Y-104500000D03*
X163400000Y-104500000D03*
X173100000Y-104500000D03*
X171000000Y-104500000D03*
X176600000Y-98100000D03*
X151200000Y-104500000D03*
X177700000Y-104500000D03*
X170100000Y-104500000D03*
D11*
X173700000Y-98400000D03*
X154300000Y-98400000D03*
X169600000Y-98700000D03*
X154900000Y-98100000D03*
X169500000Y-98100000D03*
X158000000Y-98600000D03*
X155400000Y-98600000D03*
X163100000Y-98100000D03*
D12*
X172700000Y-99400000D02*
X173700000Y-98400000D01*
X155000000Y-99400000D02*
X172700000Y-99400000D01*
X154300000Y-98400000D02*
X154300000Y-98700000D01*
X154300000Y-98700000D02*
X155000000Y-99400000D01*
X155200000Y-99100000D02*
X169200000Y-99100000D01*
X169200000Y-99100000D02*
X169600000Y-98700000D01*
X154900000Y-98100000D02*
X154900000Y-98800000D01*
X154900000Y-98800000D02*
X155200000Y-99100000D01*
X169000000Y-98600000D02*
X169500000Y-98100000D01*
X158000000Y-98600000D02*
X169000000Y-98600000D01*
X155400000Y-98600000D02*
X158000000Y-98600000D01*
D13*
G36*
X154496253Y-97884193D02*
G01*
X154461909Y-97967107D01*
X154460655Y-97973409D01*
X154432893Y-97961909D01*
X154344873Y-97944400D01*
X154255127Y-97944400D01*
X154167107Y-97961909D01*
X154084193Y-97996253D01*
X154009572Y-98046113D01*
X153946113Y-98109572D01*
X153896253Y-98184193D01*
X153861909Y-98267107D01*
X153844400Y-98355127D01*
X153844400Y-98444873D01*
X153861909Y-98532893D01*
X153896253Y-98615807D01*
X153946113Y-98690428D01*
X154001002Y-98745317D01*
X154002370Y-98759202D01*
X154019639Y-98816129D01*
X154047682Y-98868594D01*
X154085422Y-98914579D01*
X154096944Y-98924035D01*
X154775969Y-99603062D01*
X154785421Y-99614579D01*
X154796938Y-99624031D01*
X154796941Y-99624034D01*
X154807322Y-99632553D01*
X154831406Y-99652319D01*
X154883871Y-99680361D01*
X154923528Y-99692391D01*
X154940797Y-99697630D01*
X154947036Y-99698244D01*
X154985167Y-99702000D01*
X154985173Y-99702000D01*
X154999999Y-99703460D01*
X155014825Y-99702000D01*
X172685174Y-99702000D01*
X172700000Y-99703460D01*
X172714826Y-99702000D01*
X172714833Y-99702000D01*
X172759202Y-99697630D01*
X172816129Y-99680361D01*
X172868594Y-99652319D01*
X172914579Y-99614579D01*
X172924040Y-99603051D01*
X173671493Y-98855600D01*
X173744873Y-98855600D01*
X173832893Y-98838091D01*
X173915807Y-98803747D01*
X173990428Y-98753887D01*
X174053887Y-98690428D01*
X174103747Y-98615807D01*
X174138091Y-98532893D01*
X174155600Y-98444873D01*
X174155600Y-98355127D01*
X174138091Y-98267107D01*
X174103747Y-98184193D01*
X174053887Y-98109572D01*
X173990428Y-98046113D01*
X173915807Y-97996253D01*
X173832893Y-97961909D01*
X173744873Y-97944400D01*
X173655127Y-97944400D01*
X173567107Y-97961909D01*
X173484193Y-97996253D01*
X173409572Y-98046113D01*
X173346113Y-98109572D01*
X173296253Y-98184193D01*
X173261909Y-98267107D01*
X173244400Y-98355127D01*
X173244400Y-98428507D01*
X172574909Y-99098000D01*
X169824408Y-99098000D01*
X169890428Y-99053887D01*
X169953887Y-98990428D01*
X170003747Y-98915807D01*
X170038091Y-98832893D01*
X170055600Y-98744873D01*
X170055600Y-98655127D01*
X170038091Y-98567107D01*
X170003747Y-98484193D01*
X169953887Y-98409572D01*
X169890428Y-98346113D01*
X169885636Y-98342911D01*
X169903747Y-98315807D01*
X169938091Y-98232893D01*
X169955600Y-98144873D01*
X169955600Y-98055127D01*
X169938091Y-97967107D01*
X169903747Y-97884193D01*
X169864196Y-97825000D01*
X181788999Y-97825000D01*
X181853201Y-97831295D01*
X181904384Y-97846748D01*
X181951587Y-97871846D01*
X181993013Y-97905632D01*
X182027093Y-97946828D01*
X182052518Y-97993851D01*
X182068327Y-98044924D01*
X182075001Y-98108420D01*
X182075000Y-104488998D01*
X182068705Y-104553202D01*
X182053252Y-104604384D01*
X182028154Y-104651587D01*
X181994368Y-104693013D01*
X181953173Y-104727092D01*
X181906152Y-104752517D01*
X181855080Y-104768326D01*
X181791588Y-104775000D01*
X146211002Y-104775000D01*
X146146798Y-104768705D01*
X146095616Y-104753252D01*
X146048413Y-104728154D01*
X146006987Y-104694368D01*
X145972908Y-104653173D01*
X145947483Y-104606152D01*
X145931674Y-104555080D01*
X145925000Y-104491588D01*
X145925000Y-98111001D01*
X145931295Y-98046799D01*
X145946748Y-97995616D01*
X145971846Y-97948413D01*
X146005632Y-97906987D01*
X146046828Y-97872907D01*
X146093851Y-97847482D01*
X146144924Y-97831673D01*
X146208411Y-97825000D01*
X154535804Y-97825000D01*
X154496253Y-97884193D01*
G37*
X154496253Y-97884193D02*
X154461909Y-97967107D01*
X154460655Y-97973409D01*
X154432893Y-97961909D01*
X154344873Y-97944400D01*
X154255127Y-97944400D01*
X154167107Y-97961909D01*
X154084193Y-97996253D01*
X154009572Y-98046113D01*
X153946113Y-98109572D01*
X153896253Y-98184193D01*
X153861909Y-98267107D01*
X153844400Y-98355127D01*
X153844400Y-98444873D01*
X153861909Y-98532893D01*
X153896253Y-98615807D01*
X153946113Y-98690428D01*
X154001002Y-98745317D01*
X154002370Y-98759202D01*
X154019639Y-98816129D01*
X154047682Y-98868594D01*
X154085422Y-98914579D01*
X154096944Y-98924035D01*
X154775969Y-99603062D01*
X154785421Y-99614579D01*
X154796938Y-99624031D01*
X154796941Y-99624034D01*
X154807322Y-99632553D01*
X154831406Y-99652319D01*
X154883871Y-99680361D01*
X154923528Y-99692391D01*
X154940797Y-99697630D01*
X154947036Y-99698244D01*
X154985167Y-99702000D01*
X154985173Y-99702000D01*
X154999999Y-99703460D01*
X155014825Y-99702000D01*
X172685174Y-99702000D01*
X172700000Y-99703460D01*
X172714826Y-99702000D01*
X172714833Y-99702000D01*
X172759202Y-99697630D01*
X172816129Y-99680361D01*
X172868594Y-99652319D01*
X172914579Y-99614579D01*
X172924040Y-99603051D01*
X173671493Y-98855600D01*
X173744873Y-98855600D01*
X173832893Y-98838091D01*
X173915807Y-98803747D01*
X173990428Y-98753887D01*
X174053887Y-98690428D01*
X174103747Y-98615807D01*
X174138091Y-98532893D01*
X174155600Y-98444873D01*
X174155600Y-98355127D01*
X174138091Y-98267107D01*
X174103747Y-98184193D01*
X174053887Y-98109572D01*
X173990428Y-98046113D01*
X173915807Y-97996253D01*
X173832893Y-97961909D01*
X173744873Y-97944400D01*
X173655127Y-97944400D01*
X173567107Y-97961909D01*
X173484193Y-97996253D01*
X173409572Y-98046113D01*
X173346113Y-98109572D01*
X173296253Y-98184193D01*
X173261909Y-98267107D01*
X173244400Y-98355127D01*
X173244400Y-98428507D01*
X172574909Y-99098000D01*
X169824408Y-99098000D01*
X169890428Y-99053887D01*
X169953887Y-98990428D01*
X170003747Y-98915807D01*
X170038091Y-98832893D01*
X170055600Y-98744873D01*
X170055600Y-98655127D01*
X170038091Y-98567107D01*
X170003747Y-98484193D01*
X169953887Y-98409572D01*
X169890428Y-98346113D01*
X169885636Y-98342911D01*
X169903747Y-98315807D01*
X169938091Y-98232893D01*
X169955600Y-98144873D01*
X169955600Y-98055127D01*
X169938091Y-97967107D01*
X169903747Y-97884193D01*
X169864196Y-97825000D01*
X181788999Y-97825000D01*
X181853201Y-97831295D01*
X181904384Y-97846748D01*
X181951587Y-97871846D01*
X181993013Y-97905632D01*
X182027093Y-97946828D01*
X182052518Y-97993851D01*
X182068327Y-98044924D01*
X182075001Y-98108420D01*
X182075000Y-104488998D01*
X182068705Y-104553202D01*
X182053252Y-104604384D01*
X182028154Y-104651587D01*
X181994368Y-104693013D01*
X181953173Y-104727092D01*
X181906152Y-104752517D01*
X181855080Y-104768326D01*
X181791588Y-104775000D01*
X146211002Y-104775000D01*
X146146798Y-104768705D01*
X146095616Y-104753252D01*
X146048413Y-104728154D01*
X146006987Y-104694368D01*
X145972908Y-104653173D01*
X145947483Y-104606152D01*
X145931674Y-104555080D01*
X145925000Y-104491588D01*
X145925000Y-98111001D01*
X145931295Y-98046799D01*
X145946748Y-97995616D01*
X145971846Y-97948413D01*
X146005632Y-97906987D01*
X146046828Y-97872907D01*
X146093851Y-97847482D01*
X146144924Y-97831673D01*
X146208411Y-97825000D01*
X154535804Y-97825000D01*
X154496253Y-97884193D01*
M02*
