G04 This is an RS-274x file exported by *
G04 gerbv version 2.6.0 *
G04 More information is available about gerbv at *
G04 http://gerbv.gpleda.org/ *
G04 --End of header info--*
%MOIN*%
%FSLAX34Y34*%
%IPPOS*%
%MIA1B0*%
G04 --Define apertures--*
%ADD10R,0.1240X0.0394*%
%ADD11C,0.0039*%
%ADD12R,0.0551X0.0118*%
G04 --Start main section--*
G54D10*
G01X0195497Y-044528D03*
G01X0197485Y-044528D03*
G01X0195497Y-043528D03*
G01X0197485Y-043528D03*
G01X0195497Y-042528D03*
G01X0197485Y-042528D03*
G54D11*
G36*
G01X0193037Y-042435D02*
G01X0193046Y-042437D01*
G01X0193054Y-042439D01*
G01X0193062Y-042442D01*
G01X0193070Y-042445D01*
G01X0193077Y-042450D01*
G01X0193084Y-042455D01*
G01X0193090Y-042460D01*
G01X0193095Y-042467D01*
G01X0193101Y-042473D01*
G01X0193105Y-042481D01*
G01X0193108Y-042488D01*
G01X0193111Y-042496D01*
G01X0193113Y-042504D01*
G01X0193115Y-042513D01*
G01X0193115Y-042521D01*
G01X0193115Y-042723D01*
G01X0193115Y-042731D01*
G01X0193113Y-042740D01*
G01X0193111Y-042748D01*
G01X0193108Y-042756D01*
G01X0193105Y-042764D01*
G01X0193101Y-042771D01*
G01X0193095Y-042778D01*
G01X0193090Y-042784D01*
G01X0193084Y-042790D01*
G01X0193077Y-042795D01*
G01X0193070Y-042799D01*
G01X0193062Y-042802D01*
G01X0193054Y-042805D01*
G01X0193046Y-042807D01*
G01X0193037Y-042809D01*
G01X0193029Y-042809D01*
G01X0192857Y-042809D01*
G01X0192848Y-042809D01*
G01X0192840Y-042807D01*
G01X0192832Y-042805D01*
G01X0192824Y-042802D01*
G01X0192816Y-042799D01*
G01X0192809Y-042795D01*
G01X0192802Y-042790D01*
G01X0192796Y-042784D01*
G01X0192790Y-042778D01*
G01X0192785Y-042771D01*
G01X0192781Y-042764D01*
G01X0192777Y-042756D01*
G01X0192774Y-042748D01*
G01X0192772Y-042740D01*
G01X0192771Y-042731D01*
G01X0192771Y-042723D01*
G01X0192771Y-042521D01*
G01X0192771Y-042513D01*
G01X0192772Y-042504D01*
G01X0192774Y-042496D01*
G01X0192777Y-042488D01*
G01X0192781Y-042481D01*
G01X0192785Y-042473D01*
G01X0192790Y-042467D01*
G01X0192796Y-042460D01*
G01X0192802Y-042455D01*
G01X0192809Y-042450D01*
G01X0192816Y-042445D01*
G01X0192824Y-042442D01*
G01X0192832Y-042439D01*
G01X0192840Y-042437D01*
G01X0192848Y-042435D01*
G01X0192857Y-042435D01*
G01X0193029Y-042435D01*
G01X0193037Y-042435D01*
G37*
G36*
G01X0192417Y-042435D02*
G01X0192426Y-042437D01*
G01X0192434Y-042439D01*
G01X0192442Y-042442D01*
G01X0192449Y-042445D01*
G01X0192457Y-042450D01*
G01X0192463Y-042455D01*
G01X0192470Y-042460D01*
G01X0192475Y-042467D01*
G01X0192480Y-042473D01*
G01X0192485Y-042481D01*
G01X0192488Y-042488D01*
G01X0192491Y-042496D01*
G01X0192493Y-042504D01*
G01X0192495Y-042513D01*
G01X0192495Y-042521D01*
G01X0192495Y-042723D01*
G01X0192495Y-042731D01*
G01X0192493Y-042740D01*
G01X0192491Y-042748D01*
G01X0192488Y-042756D01*
G01X0192485Y-042764D01*
G01X0192480Y-042771D01*
G01X0192475Y-042778D01*
G01X0192470Y-042784D01*
G01X0192463Y-042790D01*
G01X0192457Y-042795D01*
G01X0192449Y-042799D01*
G01X0192442Y-042802D01*
G01X0192434Y-042805D01*
G01X0192426Y-042807D01*
G01X0192417Y-042809D01*
G01X0192409Y-042809D01*
G01X0192237Y-042809D01*
G01X0192228Y-042809D01*
G01X0192220Y-042807D01*
G01X0192212Y-042805D01*
G01X0192204Y-042802D01*
G01X0192196Y-042799D01*
G01X0192189Y-042795D01*
G01X0192182Y-042790D01*
G01X0192176Y-042784D01*
G01X0192170Y-042778D01*
G01X0192165Y-042771D01*
G01X0192161Y-042764D01*
G01X0192157Y-042756D01*
G01X0192154Y-042748D01*
G01X0192152Y-042740D01*
G01X0192151Y-042731D01*
G01X0192150Y-042723D01*
G01X0192150Y-042521D01*
G01X0192151Y-042513D01*
G01X0192152Y-042504D01*
G01X0192154Y-042496D01*
G01X0192157Y-042488D01*
G01X0192161Y-042481D01*
G01X0192165Y-042473D01*
G01X0192170Y-042467D01*
G01X0192176Y-042460D01*
G01X0192182Y-042455D01*
G01X0192189Y-042450D01*
G01X0192196Y-042445D01*
G01X0192204Y-042442D01*
G01X0192212Y-042439D01*
G01X0192220Y-042437D01*
G01X0192228Y-042435D01*
G01X0192237Y-042435D01*
G01X0192409Y-042435D01*
G01X0192417Y-042435D01*
G37*
G36*
G01X0193648Y-043075D02*
G01X0193656Y-043076D01*
G01X0193664Y-043079D01*
G01X0193672Y-043081D01*
G01X0193680Y-043085D01*
G01X0193687Y-043089D01*
G01X0193694Y-043094D01*
G01X0193700Y-043100D01*
G01X0193706Y-043106D01*
G01X0193711Y-043113D01*
G01X0193715Y-043120D01*
G01X0193719Y-043128D01*
G01X0193722Y-043136D01*
G01X0193724Y-043144D01*
G01X0193725Y-043152D01*
G01X0193725Y-043161D01*
G01X0193725Y-043333D01*
G01X0193725Y-043342D01*
G01X0193724Y-043350D01*
G01X0193722Y-043358D01*
G01X0193719Y-043366D01*
G01X0193715Y-043374D01*
G01X0193711Y-043381D01*
G01X0193706Y-043388D01*
G01X0193700Y-043394D01*
G01X0193694Y-043400D01*
G01X0193687Y-043405D01*
G01X0193680Y-043409D01*
G01X0193672Y-043413D01*
G01X0193664Y-043416D01*
G01X0193656Y-043418D01*
G01X0193648Y-043419D01*
G01X0193639Y-043419D01*
G01X0193437Y-043419D01*
G01X0193429Y-043419D01*
G01X0193421Y-043418D01*
G01X0193412Y-043416D01*
G01X0193404Y-043413D01*
G01X0193397Y-043409D01*
G01X0193390Y-043405D01*
G01X0193383Y-043400D01*
G01X0193376Y-043394D01*
G01X0193371Y-043388D01*
G01X0193366Y-043381D01*
G01X0193361Y-043374D01*
G01X0193358Y-043366D01*
G01X0193355Y-043358D01*
G01X0193353Y-043350D01*
G01X0193352Y-043342D01*
G01X0193351Y-043333D01*
G01X0193351Y-043161D01*
G01X0193352Y-043152D01*
G01X0193353Y-043144D01*
G01X0193355Y-043136D01*
G01X0193358Y-043128D01*
G01X0193361Y-043120D01*
G01X0193366Y-043113D01*
G01X0193371Y-043106D01*
G01X0193376Y-043100D01*
G01X0193383Y-043094D01*
G01X0193390Y-043089D01*
G01X0193397Y-043085D01*
G01X0193404Y-043081D01*
G01X0193412Y-043079D01*
G01X0193421Y-043076D01*
G01X0193429Y-043075D01*
G01X0193437Y-043075D01*
G01X0193639Y-043075D01*
G01X0193648Y-043075D01*
G37*
G36*
G01X0193648Y-042455D02*
G01X0193656Y-042456D01*
G01X0193664Y-042458D01*
G01X0193672Y-042461D01*
G01X0193680Y-042465D01*
G01X0193687Y-042469D01*
G01X0193694Y-042474D01*
G01X0193700Y-042480D01*
G01X0193706Y-042486D01*
G01X0193711Y-042493D01*
G01X0193715Y-042500D01*
G01X0193719Y-042508D01*
G01X0193722Y-042516D01*
G01X0193724Y-042524D01*
G01X0193725Y-042532D01*
G01X0193725Y-042541D01*
G01X0193725Y-042713D01*
G01X0193725Y-042722D01*
G01X0193724Y-042730D01*
G01X0193722Y-042738D01*
G01X0193719Y-042746D01*
G01X0193715Y-042754D01*
G01X0193711Y-042761D01*
G01X0193706Y-042768D01*
G01X0193700Y-042774D01*
G01X0193694Y-042780D01*
G01X0193687Y-042785D01*
G01X0193680Y-042789D01*
G01X0193672Y-042793D01*
G01X0193664Y-042796D01*
G01X0193656Y-042798D01*
G01X0193648Y-042799D01*
G01X0193639Y-042799D01*
G01X0193437Y-042799D01*
G01X0193429Y-042799D01*
G01X0193421Y-042798D01*
G01X0193412Y-042796D01*
G01X0193404Y-042793D01*
G01X0193397Y-042789D01*
G01X0193390Y-042785D01*
G01X0193383Y-042780D01*
G01X0193376Y-042774D01*
G01X0193371Y-042768D01*
G01X0193366Y-042761D01*
G01X0193361Y-042754D01*
G01X0193358Y-042746D01*
G01X0193355Y-042738D01*
G01X0193353Y-042730D01*
G01X0193352Y-042722D01*
G01X0193351Y-042713D01*
G01X0193351Y-042541D01*
G01X0193352Y-042532D01*
G01X0193353Y-042524D01*
G01X0193355Y-042516D01*
G01X0193358Y-042508D01*
G01X0193361Y-042500D01*
G01X0193366Y-042493D01*
G01X0193371Y-042486D01*
G01X0193376Y-042480D01*
G01X0193383Y-042474D01*
G01X0193390Y-042469D01*
G01X0193397Y-042465D01*
G01X0193404Y-042461D01*
G01X0193412Y-042458D01*
G01X0193421Y-042456D01*
G01X0193429Y-042455D01*
G01X0193437Y-042455D01*
G01X0193639Y-042455D01*
G01X0193648Y-042455D01*
G37*
G36*
G01X0189773Y-042632D02*
G01X0189778Y-042633D01*
G01X0189783Y-042634D01*
G01X0189787Y-042636D01*
G01X0189792Y-042638D01*
G01X0189796Y-042640D01*
G01X0189800Y-042643D01*
G01X0189803Y-042646D01*
G01X0189807Y-042650D01*
G01X0189810Y-042654D01*
G01X0189812Y-042658D01*
G01X0189814Y-042662D01*
G01X0189816Y-042667D01*
G01X0189817Y-042672D01*
G01X0189818Y-042676D01*
G01X0189818Y-042681D01*
G01X0189818Y-043075D01*
G01X0189818Y-043080D01*
G01X0189817Y-043084D01*
G01X0189816Y-043089D01*
G01X0189814Y-043094D01*
G01X0189812Y-043098D01*
G01X0189810Y-043102D01*
G01X0189807Y-043106D01*
G01X0189803Y-043110D01*
G01X0189800Y-043113D01*
G01X0189796Y-043116D01*
G01X0189792Y-043118D01*
G01X0189787Y-043120D01*
G01X0189783Y-043122D01*
G01X0189778Y-043123D01*
G01X0189773Y-043124D01*
G01X0189769Y-043124D01*
G01X0188194Y-043124D01*
G01X0188189Y-043124D01*
G01X0188184Y-043123D01*
G01X0188179Y-043122D01*
G01X0188175Y-043120D01*
G01X0188171Y-043118D01*
G01X0188166Y-043116D01*
G01X0188163Y-043113D01*
G01X0188159Y-043110D01*
G01X0188156Y-043106D01*
G01X0188153Y-043102D01*
G01X0188150Y-043098D01*
G01X0188148Y-043094D01*
G01X0188147Y-043089D01*
G01X0188146Y-043084D01*
G01X0188145Y-043080D01*
G01X0188145Y-043075D01*
G01X0188145Y-042681D01*
G01X0188145Y-042676D01*
G01X0188146Y-042672D01*
G01X0188147Y-042667D01*
G01X0188148Y-042662D01*
G01X0188150Y-042658D01*
G01X0188153Y-042654D01*
G01X0188156Y-042650D01*
G01X0188159Y-042646D01*
G01X0188163Y-042643D01*
G01X0188166Y-042640D01*
G01X0188171Y-042638D01*
G01X0188175Y-042636D01*
G01X0188179Y-042634D01*
G01X0188184Y-042633D01*
G01X0188189Y-042632D01*
G01X0188194Y-042632D01*
G01X0189769Y-042632D01*
G01X0189773Y-042632D01*
G37*
G36*
G01X0189773Y-044640D02*
G01X0189778Y-044641D01*
G01X0189783Y-044642D01*
G01X0189787Y-044644D01*
G01X0189792Y-044646D01*
G01X0189796Y-044648D01*
G01X0189800Y-044651D01*
G01X0189803Y-044654D01*
G01X0189807Y-044658D01*
G01X0189810Y-044662D01*
G01X0189812Y-044666D01*
G01X0189814Y-044670D01*
G01X0189816Y-044675D01*
G01X0189817Y-044679D01*
G01X0189818Y-044684D01*
G01X0189818Y-044689D01*
G01X0189818Y-045083D01*
G01X0189818Y-045088D01*
G01X0189817Y-045092D01*
G01X0189816Y-045097D01*
G01X0189814Y-045102D01*
G01X0189812Y-045106D01*
G01X0189810Y-045110D01*
G01X0189807Y-045114D01*
G01X0189803Y-045117D01*
G01X0189800Y-045121D01*
G01X0189796Y-045124D01*
G01X0189792Y-045126D01*
G01X0189787Y-045128D01*
G01X0189783Y-045130D01*
G01X0189778Y-045131D01*
G01X0189773Y-045132D01*
G01X0189769Y-045132D01*
G01X0188194Y-045132D01*
G01X0188189Y-045132D01*
G01X0188184Y-045131D01*
G01X0188179Y-045130D01*
G01X0188175Y-045128D01*
G01X0188171Y-045126D01*
G01X0188166Y-045124D01*
G01X0188163Y-045121D01*
G01X0188159Y-045117D01*
G01X0188156Y-045114D01*
G01X0188153Y-045110D01*
G01X0188150Y-045106D01*
G01X0188148Y-045102D01*
G01X0188147Y-045097D01*
G01X0188146Y-045092D01*
G01X0188145Y-045088D01*
G01X0188145Y-045083D01*
G01X0188145Y-044689D01*
G01X0188145Y-044684D01*
G01X0188146Y-044679D01*
G01X0188147Y-044675D01*
G01X0188148Y-044670D01*
G01X0188150Y-044666D01*
G01X0188153Y-044662D01*
G01X0188156Y-044658D01*
G01X0188159Y-044654D01*
G01X0188163Y-044651D01*
G01X0188166Y-044648D01*
G01X0188171Y-044646D01*
G01X0188175Y-044644D01*
G01X0188179Y-044642D01*
G01X0188184Y-044641D01*
G01X0188189Y-044640D01*
G01X0188194Y-044640D01*
G01X0189769Y-044640D01*
G01X0189773Y-044640D01*
G37*
G36*
G01X0189773Y-044640D02*
G01X0189778Y-044641D01*
G01X0189783Y-044642D01*
G01X0189787Y-044644D01*
G01X0189792Y-044646D01*
G01X0189796Y-044648D01*
G01X0189800Y-044651D01*
G01X0189803Y-044654D01*
G01X0189807Y-044658D01*
G01X0189810Y-044662D01*
G01X0189812Y-044666D01*
G01X0189814Y-044670D01*
G01X0189816Y-044675D01*
G01X0189817Y-044679D01*
G01X0189818Y-044684D01*
G01X0189818Y-044689D01*
G01X0189818Y-045083D01*
G01X0189818Y-045088D01*
G01X0189817Y-045092D01*
G01X0189816Y-045097D01*
G01X0189814Y-045102D01*
G01X0189812Y-045106D01*
G01X0189810Y-045110D01*
G01X0189807Y-045114D01*
G01X0189803Y-045117D01*
G01X0189800Y-045121D01*
G01X0189796Y-045124D01*
G01X0189792Y-045126D01*
G01X0189787Y-045128D01*
G01X0189783Y-045130D01*
G01X0189778Y-045131D01*
G01X0189773Y-045132D01*
G01X0189769Y-045132D01*
G01X0188194Y-045132D01*
G01X0188189Y-045132D01*
G01X0188184Y-045131D01*
G01X0188179Y-045130D01*
G01X0188175Y-045128D01*
G01X0188171Y-045126D01*
G01X0188166Y-045124D01*
G01X0188163Y-045121D01*
G01X0188159Y-045117D01*
G01X0188156Y-045114D01*
G01X0188153Y-045110D01*
G01X0188150Y-045106D01*
G01X0188148Y-045102D01*
G01X0188147Y-045097D01*
G01X0188146Y-045092D01*
G01X0188145Y-045088D01*
G01X0188145Y-045083D01*
G01X0188145Y-044689D01*
G01X0188145Y-044684D01*
G01X0188146Y-044679D01*
G01X0188147Y-044675D01*
G01X0188148Y-044670D01*
G01X0188150Y-044666D01*
G01X0188153Y-044662D01*
G01X0188156Y-044658D01*
G01X0188159Y-044654D01*
G01X0188163Y-044651D01*
G01X0188166Y-044648D01*
G01X0188171Y-044646D01*
G01X0188175Y-044644D01*
G01X0188179Y-044642D01*
G01X0188184Y-044641D01*
G01X0188189Y-044640D01*
G01X0188194Y-044640D01*
G01X0189769Y-044640D01*
G01X0189773Y-044640D01*
G37*
G36*
G01X0200856Y-042042D02*
G01X0200861Y-042042D01*
G01X0200866Y-042043D01*
G01X0200870Y-042045D01*
G01X0200874Y-042047D01*
G01X0200879Y-042050D01*
G01X0200882Y-042053D01*
G01X0200886Y-042056D01*
G01X0200889Y-042059D01*
G01X0200892Y-042063D01*
G01X0200895Y-042067D01*
G01X0200897Y-042072D01*
G01X0200898Y-042076D01*
G01X0200900Y-042081D01*
G01X0200900Y-042086D01*
G01X0200900Y-042091D01*
G01X0200900Y-042484D01*
G01X0200900Y-042489D01*
G01X0200900Y-042494D01*
G01X0200898Y-042499D01*
G01X0200897Y-042503D01*
G01X0200895Y-042507D01*
G01X0200892Y-042512D01*
G01X0200889Y-042515D01*
G01X0200886Y-042519D01*
G01X0200882Y-042522D01*
G01X0200879Y-042525D01*
G01X0200874Y-042528D01*
G01X0200870Y-042530D01*
G01X0200866Y-042531D01*
G01X0200861Y-042533D01*
G01X0200856Y-042533D01*
G01X0200851Y-042533D01*
G01X0199276Y-042533D01*
G01X0199272Y-042533D01*
G01X0199267Y-042533D01*
G01X0199262Y-042531D01*
G01X0199258Y-042530D01*
G01X0199253Y-042528D01*
G01X0199249Y-042525D01*
G01X0199245Y-042522D01*
G01X0199242Y-042519D01*
G01X0199238Y-042515D01*
G01X0199236Y-042512D01*
G01X0199233Y-042507D01*
G01X0199231Y-042503D01*
G01X0199229Y-042499D01*
G01X0199228Y-042494D01*
G01X0199227Y-042489D01*
G01X0199227Y-042484D01*
G01X0199227Y-042091D01*
G01X0199227Y-042086D01*
G01X0199228Y-042081D01*
G01X0199229Y-042076D01*
G01X0199231Y-042072D01*
G01X0199233Y-042067D01*
G01X0199236Y-042063D01*
G01X0199238Y-042059D01*
G01X0199242Y-042056D01*
G01X0199245Y-042053D01*
G01X0199249Y-042050D01*
G01X0199253Y-042047D01*
G01X0199258Y-042045D01*
G01X0199262Y-042043D01*
G01X0199267Y-042042D01*
G01X0199272Y-042042D01*
G01X0199276Y-042041D01*
G01X0200851Y-042041D01*
G01X0200856Y-042042D01*
G37*
G36*
G01X0200856Y-042042D02*
G01X0200861Y-042042D01*
G01X0200866Y-042043D01*
G01X0200870Y-042045D01*
G01X0200874Y-042047D01*
G01X0200879Y-042050D01*
G01X0200882Y-042053D01*
G01X0200886Y-042056D01*
G01X0200889Y-042059D01*
G01X0200892Y-042063D01*
G01X0200895Y-042067D01*
G01X0200897Y-042072D01*
G01X0200898Y-042076D01*
G01X0200900Y-042081D01*
G01X0200900Y-042086D01*
G01X0200900Y-042091D01*
G01X0200900Y-042484D01*
G01X0200900Y-042489D01*
G01X0200900Y-042494D01*
G01X0200898Y-042499D01*
G01X0200897Y-042503D01*
G01X0200895Y-042507D01*
G01X0200892Y-042512D01*
G01X0200889Y-042515D01*
G01X0200886Y-042519D01*
G01X0200882Y-042522D01*
G01X0200879Y-042525D01*
G01X0200874Y-042528D01*
G01X0200870Y-042530D01*
G01X0200866Y-042531D01*
G01X0200861Y-042533D01*
G01X0200856Y-042533D01*
G01X0200851Y-042533D01*
G01X0199276Y-042533D01*
G01X0199272Y-042533D01*
G01X0199267Y-042533D01*
G01X0199262Y-042531D01*
G01X0199258Y-042530D01*
G01X0199253Y-042528D01*
G01X0199249Y-042525D01*
G01X0199245Y-042522D01*
G01X0199242Y-042519D01*
G01X0199238Y-042515D01*
G01X0199236Y-042512D01*
G01X0199233Y-042507D01*
G01X0199231Y-042503D01*
G01X0199229Y-042499D01*
G01X0199228Y-042494D01*
G01X0199227Y-042489D01*
G01X0199227Y-042484D01*
G01X0199227Y-042091D01*
G01X0199227Y-042086D01*
G01X0199228Y-042081D01*
G01X0199229Y-042076D01*
G01X0199231Y-042072D01*
G01X0199233Y-042067D01*
G01X0199236Y-042063D01*
G01X0199238Y-042059D01*
G01X0199242Y-042056D01*
G01X0199245Y-042053D01*
G01X0199249Y-042050D01*
G01X0199253Y-042047D01*
G01X0199258Y-042045D01*
G01X0199262Y-042043D01*
G01X0199267Y-042042D01*
G01X0199272Y-042042D01*
G01X0199276Y-042041D01*
G01X0200851Y-042041D01*
G01X0200856Y-042042D01*
G37*
G36*
G01X0200856Y-044049D02*
G01X0200861Y-044050D01*
G01X0200866Y-044051D01*
G01X0200870Y-044053D01*
G01X0200874Y-044055D01*
G01X0200879Y-044058D01*
G01X0200882Y-044060D01*
G01X0200886Y-044064D01*
G01X0200889Y-044067D01*
G01X0200892Y-044071D01*
G01X0200895Y-044075D01*
G01X0200897Y-044080D01*
G01X0200898Y-044084D01*
G01X0200900Y-044089D01*
G01X0200900Y-044094D01*
G01X0200900Y-044098D01*
G01X0200900Y-044492D01*
G01X0200900Y-044497D01*
G01X0200900Y-044502D01*
G01X0200898Y-044506D01*
G01X0200897Y-044511D01*
G01X0200895Y-044515D01*
G01X0200892Y-044519D01*
G01X0200889Y-044523D01*
G01X0200886Y-044527D01*
G01X0200882Y-044530D01*
G01X0200879Y-044533D01*
G01X0200874Y-044536D01*
G01X0200870Y-044538D01*
G01X0200866Y-044539D01*
G01X0200861Y-044540D01*
G01X0200856Y-044541D01*
G01X0200851Y-044541D01*
G01X0199276Y-044541D01*
G01X0199272Y-044541D01*
G01X0199267Y-044540D01*
G01X0199262Y-044539D01*
G01X0199258Y-044538D01*
G01X0199253Y-044536D01*
G01X0199249Y-044533D01*
G01X0199245Y-044530D01*
G01X0199242Y-044527D01*
G01X0199238Y-044523D01*
G01X0199236Y-044519D01*
G01X0199233Y-044515D01*
G01X0199231Y-044511D01*
G01X0199229Y-044506D01*
G01X0199228Y-044502D01*
G01X0199227Y-044497D01*
G01X0199227Y-044492D01*
G01X0199227Y-044098D01*
G01X0199227Y-044094D01*
G01X0199228Y-044089D01*
G01X0199229Y-044084D01*
G01X0199231Y-044080D01*
G01X0199233Y-044075D01*
G01X0199236Y-044071D01*
G01X0199238Y-044067D01*
G01X0199242Y-044064D01*
G01X0199245Y-044060D01*
G01X0199249Y-044058D01*
G01X0199253Y-044055D01*
G01X0199258Y-044053D01*
G01X0199262Y-044051D01*
G01X0199267Y-044050D01*
G01X0199272Y-044049D01*
G01X0199276Y-044049D01*
G01X0200851Y-044049D01*
G01X0200856Y-044049D01*
G37*
G36*
G01X0192417Y-043065D02*
G01X0192426Y-043067D01*
G01X0192434Y-043069D01*
G01X0192442Y-043072D01*
G01X0192449Y-043075D01*
G01X0192457Y-043079D01*
G01X0192463Y-043085D01*
G01X0192470Y-043090D01*
G01X0192475Y-043096D01*
G01X0192480Y-043103D01*
G01X0192485Y-043110D01*
G01X0192488Y-043118D01*
G01X0192491Y-043126D01*
G01X0192493Y-043134D01*
G01X0192495Y-043143D01*
G01X0192495Y-043151D01*
G01X0192495Y-043353D01*
G01X0192495Y-043361D01*
G01X0192493Y-043370D01*
G01X0192491Y-043378D01*
G01X0192488Y-043386D01*
G01X0192485Y-043393D01*
G01X0192480Y-043401D01*
G01X0192475Y-043407D01*
G01X0192470Y-043414D01*
G01X0192463Y-043419D01*
G01X0192457Y-043424D01*
G01X0192449Y-043429D01*
G01X0192442Y-043432D01*
G01X0192434Y-043435D01*
G01X0192426Y-043437D01*
G01X0192417Y-043439D01*
G01X0192409Y-043439D01*
G01X0192237Y-043439D01*
G01X0192228Y-043439D01*
G01X0192220Y-043437D01*
G01X0192212Y-043435D01*
G01X0192204Y-043432D01*
G01X0192196Y-043429D01*
G01X0192189Y-043424D01*
G01X0192182Y-043419D01*
G01X0192176Y-043414D01*
G01X0192170Y-043407D01*
G01X0192165Y-043401D01*
G01X0192161Y-043393D01*
G01X0192157Y-043386D01*
G01X0192154Y-043378D01*
G01X0192152Y-043370D01*
G01X0192151Y-043361D01*
G01X0192150Y-043353D01*
G01X0192150Y-043151D01*
G01X0192151Y-043143D01*
G01X0192152Y-043134D01*
G01X0192154Y-043126D01*
G01X0192157Y-043118D01*
G01X0192161Y-043110D01*
G01X0192165Y-043103D01*
G01X0192170Y-043096D01*
G01X0192176Y-043090D01*
G01X0192182Y-043085D01*
G01X0192189Y-043079D01*
G01X0192196Y-043075D01*
G01X0192204Y-043072D01*
G01X0192212Y-043069D01*
G01X0192220Y-043067D01*
G01X0192228Y-043065D01*
G01X0192237Y-043065D01*
G01X0192409Y-043065D01*
G01X0192417Y-043065D01*
G37*
G36*
G01X0193037Y-043065D02*
G01X0193046Y-043067D01*
G01X0193054Y-043069D01*
G01X0193062Y-043072D01*
G01X0193070Y-043075D01*
G01X0193077Y-043079D01*
G01X0193084Y-043085D01*
G01X0193090Y-043090D01*
G01X0193095Y-043096D01*
G01X0193101Y-043103D01*
G01X0193105Y-043110D01*
G01X0193108Y-043118D01*
G01X0193111Y-043126D01*
G01X0193113Y-043134D01*
G01X0193115Y-043143D01*
G01X0193115Y-043151D01*
G01X0193115Y-043353D01*
G01X0193115Y-043361D01*
G01X0193113Y-043370D01*
G01X0193111Y-043378D01*
G01X0193108Y-043386D01*
G01X0193105Y-043393D01*
G01X0193101Y-043401D01*
G01X0193095Y-043407D01*
G01X0193090Y-043414D01*
G01X0193084Y-043419D01*
G01X0193077Y-043424D01*
G01X0193070Y-043429D01*
G01X0193062Y-043432D01*
G01X0193054Y-043435D01*
G01X0193046Y-043437D01*
G01X0193037Y-043439D01*
G01X0193029Y-043439D01*
G01X0192857Y-043439D01*
G01X0192848Y-043439D01*
G01X0192840Y-043437D01*
G01X0192832Y-043435D01*
G01X0192824Y-043432D01*
G01X0192816Y-043429D01*
G01X0192809Y-043424D01*
G01X0192802Y-043419D01*
G01X0192796Y-043414D01*
G01X0192790Y-043407D01*
G01X0192785Y-043401D01*
G01X0192781Y-043393D01*
G01X0192777Y-043386D01*
G01X0192774Y-043378D01*
G01X0192772Y-043370D01*
G01X0192771Y-043361D01*
G01X0192771Y-043353D01*
G01X0192771Y-043151D01*
G01X0192771Y-043143D01*
G01X0192772Y-043134D01*
G01X0192774Y-043126D01*
G01X0192777Y-043118D01*
G01X0192781Y-043110D01*
G01X0192785Y-043103D01*
G01X0192790Y-043096D01*
G01X0192796Y-043090D01*
G01X0192802Y-043085D01*
G01X0192809Y-043079D01*
G01X0192816Y-043075D01*
G01X0192824Y-043072D01*
G01X0192832Y-043069D01*
G01X0192840Y-043067D01*
G01X0192848Y-043065D01*
G01X0192857Y-043065D01*
G01X0193029Y-043065D01*
G01X0193037Y-043065D01*
G37*
G54D12*
G01X0191767Y-043882D03*
G01X0191767Y-044079D03*
G01X0191767Y-044276D03*
G01X0191767Y-044472D03*
G01X0191767Y-044669D03*
G01X0193499Y-044669D03*
G01X0193499Y-044472D03*
G01X0193499Y-044276D03*
G01X0193499Y-044079D03*
G01X0193499Y-043882D03*
M02*
