M48
; DRILL file {KiCad 5.1.5} date mer 12 feb 2020, 19:16:16
; FORMAT={-:-/ absolute / inch / decimal}
; #@! TF.CreationDate,2020-02-12T19:16:16+01:00
; #@! TF.GenerationSoftware,Kicad,Pcbnew,5.1.5
FMAT,2
INCH
T1C0.0100
T2C0.0118
%
G90
G05
T1
X6.0748Y-3.874
X6.0984Y-3.8622
X6.1181Y-3.8819
X6.2205Y-3.8819
X6.4213Y-3.8622
X6.6732Y-3.8622
X6.6772Y-3.8858
X6.8386Y-3.874
T2
X5.9173Y-4.1142
X5.9213Y-3.8622
X5.9213Y-3.9016
X5.9409Y-3.8819
X5.9528Y-4.1142
X5.9606Y-3.8622
X6.0079Y-4.1142
X6.063Y-4.1142
X6.0984Y-4.1142
X6.1339Y-4.1142
X6.1772Y-4.1142
X6.2165Y-4.1142
X6.252Y-4.1142
X6.3071Y-4.1142
X6.3622Y-4.1142
X6.3976Y-4.1142
X6.4331Y-4.1142
X6.4764Y-4.1142
X6.5157Y-4.1142
X6.5512Y-4.1142
X6.6063Y-4.1142
X6.6614Y-4.1142
X6.6969Y-4.1142
X6.7323Y-4.1142
X6.7756Y-4.1142
X6.815Y-4.1142
X6.8504Y-4.1142
X6.9055Y-4.1142
X6.9528Y-3.8622
X6.9606Y-4.1142
X6.9724Y-3.8819
X6.9921Y-3.8622
X6.9921Y-3.9016
X6.9961Y-4.1142
T0
M30
