G04 #@! TF.GenerationSoftware,KiCad,Pcbnew,5.1.5*
G04 #@! TF.CreationDate,2020-02-12T19:16:24+01:00*
G04 #@! TF.ProjectId,Filter_PCB_4_btob,46696c74-6572-45f5-9043-425f345f6274,rev?*
G04 #@! TF.SameCoordinates,Original*
G04 #@! TF.FileFunction,Soldermask,Top*
G04 #@! TF.FilePolarity,Negative*
%FSLAX46Y46*%
G04 Gerber Fmt 4.6, Leading zero omitted, Abs format (unit mm)*
G04 Created by KiCad (PCBNEW 5.1.5) date 2020-02-12 19:16:24*
%MOMM*%
%LPD*%
G04 APERTURE LIST*
%ADD10C,0.100000*%
G04 APERTURE END LIST*
D10*
G36*
X182274483Y-103176261D02*
G01*
X182292207Y-103181638D01*
X182308551Y-103190374D01*
X182322873Y-103202127D01*
X182334626Y-103216449D01*
X182343362Y-103232793D01*
X182348739Y-103250517D01*
X182350800Y-103271443D01*
X182350800Y-104428557D01*
X182348739Y-104449483D01*
X182343362Y-104467207D01*
X182334626Y-104483551D01*
X182322873Y-104497873D01*
X182308551Y-104509626D01*
X182292207Y-104518362D01*
X182274483Y-104523739D01*
X182253557Y-104525800D01*
X178096443Y-104525800D01*
X178075517Y-104523739D01*
X178057793Y-104518362D01*
X178041449Y-104509626D01*
X178027127Y-104497873D01*
X178015374Y-104483551D01*
X178006638Y-104467207D01*
X178001261Y-104449483D01*
X177999200Y-104428557D01*
X177999200Y-103271443D01*
X178001261Y-103250517D01*
X178006638Y-103232793D01*
X178015374Y-103216449D01*
X178027127Y-103202127D01*
X178041449Y-103190374D01*
X178057793Y-103181638D01*
X178075517Y-103176261D01*
X178096443Y-103174200D01*
X182253557Y-103174200D01*
X182274483Y-103176261D01*
G37*
G36*
X149924483Y-103176261D02*
G01*
X149942207Y-103181638D01*
X149958551Y-103190374D01*
X149972873Y-103202127D01*
X149984626Y-103216449D01*
X149993362Y-103232793D01*
X149998739Y-103250517D01*
X150000800Y-103271443D01*
X150000800Y-104428557D01*
X149998739Y-104449483D01*
X149993362Y-104467207D01*
X149984626Y-104483551D01*
X149972873Y-104497873D01*
X149958551Y-104509626D01*
X149942207Y-104518362D01*
X149924483Y-104523739D01*
X149903557Y-104525800D01*
X145746443Y-104525800D01*
X145725517Y-104523739D01*
X145707793Y-104518362D01*
X145691449Y-104509626D01*
X145677127Y-104497873D01*
X145665374Y-104483551D01*
X145656638Y-104467207D01*
X145651261Y-104449483D01*
X145649200Y-104428557D01*
X145649200Y-103271443D01*
X145651261Y-103250517D01*
X145656638Y-103232793D01*
X145665374Y-103216449D01*
X145677127Y-103202127D01*
X145691449Y-103190374D01*
X145707793Y-103181638D01*
X145725517Y-103176261D01*
X145746443Y-103174200D01*
X149903557Y-103174200D01*
X149924483Y-103176261D01*
G37*
G36*
X153579894Y-103652324D02*
G01*
X153608019Y-103660856D01*
X153633935Y-103674708D01*
X153656649Y-103693351D01*
X153675292Y-103716065D01*
X153689144Y-103741981D01*
X153697676Y-103770106D01*
X153700800Y-103801831D01*
X153700800Y-104198169D01*
X153697676Y-104229894D01*
X153689144Y-104258019D01*
X153675292Y-104283935D01*
X153656649Y-104306649D01*
X153633935Y-104325292D01*
X153608019Y-104339144D01*
X153579894Y-104347676D01*
X153548169Y-104350800D01*
X153051831Y-104350800D01*
X153020106Y-104347676D01*
X152991981Y-104339144D01*
X152966065Y-104325292D01*
X152943351Y-104306649D01*
X152924708Y-104283935D01*
X152910856Y-104258019D01*
X152902324Y-104229894D01*
X152899200Y-104198169D01*
X152899200Y-103801831D01*
X152902324Y-103770106D01*
X152910856Y-103741981D01*
X152924708Y-103716065D01*
X152943351Y-103693351D01*
X152966065Y-103674708D01*
X152991981Y-103660856D01*
X153020106Y-103652324D01*
X153051831Y-103649200D01*
X153548169Y-103649200D01*
X153579894Y-103652324D01*
G37*
G36*
X161179894Y-103652324D02*
G01*
X161208019Y-103660856D01*
X161233935Y-103674708D01*
X161256649Y-103693351D01*
X161275292Y-103716065D01*
X161289144Y-103741981D01*
X161297676Y-103770106D01*
X161300800Y-103801831D01*
X161300800Y-104198169D01*
X161297676Y-104229894D01*
X161289144Y-104258019D01*
X161275292Y-104283935D01*
X161256649Y-104306649D01*
X161233935Y-104325292D01*
X161208019Y-104339144D01*
X161179894Y-104347676D01*
X161148169Y-104350800D01*
X160651831Y-104350800D01*
X160620106Y-104347676D01*
X160591981Y-104339144D01*
X160566065Y-104325292D01*
X160543351Y-104306649D01*
X160524708Y-104283935D01*
X160510856Y-104258019D01*
X160502324Y-104229894D01*
X160499200Y-104198169D01*
X160499200Y-103801831D01*
X160502324Y-103770106D01*
X160510856Y-103741981D01*
X160524708Y-103716065D01*
X160543351Y-103693351D01*
X160566065Y-103674708D01*
X160591981Y-103660856D01*
X160620106Y-103652324D01*
X160651831Y-103649200D01*
X161148169Y-103649200D01*
X161179894Y-103652324D01*
G37*
G36*
X168779894Y-103652324D02*
G01*
X168808019Y-103660856D01*
X168833935Y-103674708D01*
X168856649Y-103693351D01*
X168875292Y-103716065D01*
X168889144Y-103741981D01*
X168897676Y-103770106D01*
X168900800Y-103801831D01*
X168900800Y-104198169D01*
X168897676Y-104229894D01*
X168889144Y-104258019D01*
X168875292Y-104283935D01*
X168856649Y-104306649D01*
X168833935Y-104325292D01*
X168808019Y-104339144D01*
X168779894Y-104347676D01*
X168748169Y-104350800D01*
X168251831Y-104350800D01*
X168220106Y-104347676D01*
X168191981Y-104339144D01*
X168166065Y-104325292D01*
X168143351Y-104306649D01*
X168124708Y-104283935D01*
X168110856Y-104258019D01*
X168102324Y-104229894D01*
X168099200Y-104198169D01*
X168099200Y-103801831D01*
X168102324Y-103770106D01*
X168110856Y-103741981D01*
X168124708Y-103716065D01*
X168143351Y-103693351D01*
X168166065Y-103674708D01*
X168191981Y-103660856D01*
X168220106Y-103652324D01*
X168251831Y-103649200D01*
X168748169Y-103649200D01*
X168779894Y-103652324D01*
G37*
G36*
X176379894Y-103652324D02*
G01*
X176408019Y-103660856D01*
X176433935Y-103674708D01*
X176456649Y-103693351D01*
X176475292Y-103716065D01*
X176489144Y-103741981D01*
X176497676Y-103770106D01*
X176500800Y-103801831D01*
X176500800Y-104198169D01*
X176497676Y-104229894D01*
X176489144Y-104258019D01*
X176475292Y-104283935D01*
X176456649Y-104306649D01*
X176433935Y-104325292D01*
X176408019Y-104339144D01*
X176379894Y-104347676D01*
X176348169Y-104350800D01*
X175851831Y-104350800D01*
X175820106Y-104347676D01*
X175791981Y-104339144D01*
X175766065Y-104325292D01*
X175743351Y-104306649D01*
X175724708Y-104283935D01*
X175710856Y-104258019D01*
X175702324Y-104229894D01*
X175699200Y-104198169D01*
X175699200Y-103801831D01*
X175702324Y-103770106D01*
X175710856Y-103741981D01*
X175724708Y-103716065D01*
X175743351Y-103693351D01*
X175766065Y-103674708D01*
X175791981Y-103660856D01*
X175820106Y-103652324D01*
X175851831Y-103649200D01*
X176348169Y-103649200D01*
X176379894Y-103652324D01*
G37*
G36*
X152179894Y-103652324D02*
G01*
X152208019Y-103660856D01*
X152233935Y-103674708D01*
X152256649Y-103693351D01*
X152275292Y-103716065D01*
X152289144Y-103741981D01*
X152297676Y-103770106D01*
X152300800Y-103801831D01*
X152300800Y-104198169D01*
X152297676Y-104229894D01*
X152289144Y-104258019D01*
X152275292Y-104283935D01*
X152256649Y-104306649D01*
X152233935Y-104325292D01*
X152208019Y-104339144D01*
X152179894Y-104347676D01*
X152148169Y-104350800D01*
X151651831Y-104350800D01*
X151620106Y-104347676D01*
X151591981Y-104339144D01*
X151566065Y-104325292D01*
X151543351Y-104306649D01*
X151524708Y-104283935D01*
X151510856Y-104258019D01*
X151502324Y-104229894D01*
X151499200Y-104198169D01*
X151499200Y-103801831D01*
X151502324Y-103770106D01*
X151510856Y-103741981D01*
X151524708Y-103716065D01*
X151543351Y-103693351D01*
X151566065Y-103674708D01*
X151591981Y-103660856D01*
X151620106Y-103652324D01*
X151651831Y-103649200D01*
X152148169Y-103649200D01*
X152179894Y-103652324D01*
G37*
G36*
X159779894Y-103652324D02*
G01*
X159808019Y-103660856D01*
X159833935Y-103674708D01*
X159856649Y-103693351D01*
X159875292Y-103716065D01*
X159889144Y-103741981D01*
X159897676Y-103770106D01*
X159900800Y-103801831D01*
X159900800Y-104198169D01*
X159897676Y-104229894D01*
X159889144Y-104258019D01*
X159875292Y-104283935D01*
X159856649Y-104306649D01*
X159833935Y-104325292D01*
X159808019Y-104339144D01*
X159779894Y-104347676D01*
X159748169Y-104350800D01*
X159251831Y-104350800D01*
X159220106Y-104347676D01*
X159191981Y-104339144D01*
X159166065Y-104325292D01*
X159143351Y-104306649D01*
X159124708Y-104283935D01*
X159110856Y-104258019D01*
X159102324Y-104229894D01*
X159099200Y-104198169D01*
X159099200Y-103801831D01*
X159102324Y-103770106D01*
X159110856Y-103741981D01*
X159124708Y-103716065D01*
X159143351Y-103693351D01*
X159166065Y-103674708D01*
X159191981Y-103660856D01*
X159220106Y-103652324D01*
X159251831Y-103649200D01*
X159748169Y-103649200D01*
X159779894Y-103652324D01*
G37*
G36*
X174979894Y-103652324D02*
G01*
X175008019Y-103660856D01*
X175033935Y-103674708D01*
X175056649Y-103693351D01*
X175075292Y-103716065D01*
X175089144Y-103741981D01*
X175097676Y-103770106D01*
X175100800Y-103801831D01*
X175100800Y-104198169D01*
X175097676Y-104229894D01*
X175089144Y-104258019D01*
X175075292Y-104283935D01*
X175056649Y-104306649D01*
X175033935Y-104325292D01*
X175008019Y-104339144D01*
X174979894Y-104347676D01*
X174948169Y-104350800D01*
X174451831Y-104350800D01*
X174420106Y-104347676D01*
X174391981Y-104339144D01*
X174366065Y-104325292D01*
X174343351Y-104306649D01*
X174324708Y-104283935D01*
X174310856Y-104258019D01*
X174302324Y-104229894D01*
X174299200Y-104198169D01*
X174299200Y-103801831D01*
X174302324Y-103770106D01*
X174310856Y-103741981D01*
X174324708Y-103716065D01*
X174343351Y-103693351D01*
X174366065Y-103674708D01*
X174391981Y-103660856D01*
X174420106Y-103652324D01*
X174451831Y-103649200D01*
X174948169Y-103649200D01*
X174979894Y-103652324D01*
G37*
G36*
X167379894Y-103652324D02*
G01*
X167408019Y-103660856D01*
X167433935Y-103674708D01*
X167456649Y-103693351D01*
X167475292Y-103716065D01*
X167489144Y-103741981D01*
X167497676Y-103770106D01*
X167500800Y-103801831D01*
X167500800Y-104198169D01*
X167497676Y-104229894D01*
X167489144Y-104258019D01*
X167475292Y-104283935D01*
X167456649Y-104306649D01*
X167433935Y-104325292D01*
X167408019Y-104339144D01*
X167379894Y-104347676D01*
X167348169Y-104350800D01*
X166851831Y-104350800D01*
X166820106Y-104347676D01*
X166791981Y-104339144D01*
X166766065Y-104325292D01*
X166743351Y-104306649D01*
X166724708Y-104283935D01*
X166710856Y-104258019D01*
X166702324Y-104229894D01*
X166699200Y-104198169D01*
X166699200Y-103801831D01*
X166702324Y-103770106D01*
X166710856Y-103741981D01*
X166724708Y-103716065D01*
X166743351Y-103693351D01*
X166766065Y-103674708D01*
X166791981Y-103660856D01*
X166820106Y-103652324D01*
X166851831Y-103649200D01*
X167348169Y-103649200D01*
X167379894Y-103652324D01*
G37*
G36*
X156051911Y-103442277D02*
G01*
X156079558Y-103450664D01*
X156105042Y-103464285D01*
X156127382Y-103482618D01*
X156145715Y-103504958D01*
X156159336Y-103530442D01*
X156167723Y-103558089D01*
X156170800Y-103589332D01*
X156170800Y-103980668D01*
X156167723Y-104011911D01*
X156159336Y-104039558D01*
X156145715Y-104065042D01*
X156127382Y-104087382D01*
X156105042Y-104105715D01*
X156079558Y-104119336D01*
X156051911Y-104127723D01*
X156020668Y-104130800D01*
X155579332Y-104130800D01*
X155548089Y-104127723D01*
X155520442Y-104119336D01*
X155494958Y-104105715D01*
X155472618Y-104087382D01*
X155454285Y-104065042D01*
X155440664Y-104039558D01*
X155432277Y-104011911D01*
X155429200Y-103980668D01*
X155429200Y-103589332D01*
X155432277Y-103558089D01*
X155440664Y-103530442D01*
X155454285Y-103504958D01*
X155472618Y-103482618D01*
X155494958Y-103464285D01*
X155520442Y-103450664D01*
X155548089Y-103442277D01*
X155579332Y-103439200D01*
X156020668Y-103439200D01*
X156051911Y-103442277D01*
G37*
G36*
X163651911Y-103442277D02*
G01*
X163679558Y-103450664D01*
X163705042Y-103464285D01*
X163727382Y-103482618D01*
X163745715Y-103504958D01*
X163759336Y-103530442D01*
X163767723Y-103558089D01*
X163770800Y-103589332D01*
X163770800Y-103980668D01*
X163767723Y-104011911D01*
X163759336Y-104039558D01*
X163745715Y-104065042D01*
X163727382Y-104087382D01*
X163705042Y-104105715D01*
X163679558Y-104119336D01*
X163651911Y-104127723D01*
X163620668Y-104130800D01*
X163179332Y-104130800D01*
X163148089Y-104127723D01*
X163120442Y-104119336D01*
X163094958Y-104105715D01*
X163072618Y-104087382D01*
X163054285Y-104065042D01*
X163040664Y-104039558D01*
X163032277Y-104011911D01*
X163029200Y-103980668D01*
X163029200Y-103589332D01*
X163032277Y-103558089D01*
X163040664Y-103530442D01*
X163054285Y-103504958D01*
X163072618Y-103482618D01*
X163094958Y-103464285D01*
X163120442Y-103450664D01*
X163148089Y-103442277D01*
X163179332Y-103439200D01*
X163620668Y-103439200D01*
X163651911Y-103442277D01*
G37*
G36*
X171251911Y-103442277D02*
G01*
X171279558Y-103450664D01*
X171305042Y-103464285D01*
X171327382Y-103482618D01*
X171345715Y-103504958D01*
X171359336Y-103530442D01*
X171367723Y-103558089D01*
X171370800Y-103589332D01*
X171370800Y-103980668D01*
X171367723Y-104011911D01*
X171359336Y-104039558D01*
X171345715Y-104065042D01*
X171327382Y-104087382D01*
X171305042Y-104105715D01*
X171279558Y-104119336D01*
X171251911Y-104127723D01*
X171220668Y-104130800D01*
X170779332Y-104130800D01*
X170748089Y-104127723D01*
X170720442Y-104119336D01*
X170694958Y-104105715D01*
X170672618Y-104087382D01*
X170654285Y-104065042D01*
X170640664Y-104039558D01*
X170632277Y-104011911D01*
X170629200Y-103980668D01*
X170629200Y-103589332D01*
X170632277Y-103558089D01*
X170640664Y-103530442D01*
X170654285Y-103504958D01*
X170672618Y-103482618D01*
X170694958Y-103464285D01*
X170720442Y-103450664D01*
X170748089Y-103442277D01*
X170779332Y-103439200D01*
X171220668Y-103439200D01*
X171251911Y-103442277D01*
G37*
G36*
X165751911Y-103442277D02*
G01*
X165779558Y-103450664D01*
X165805042Y-103464285D01*
X165827382Y-103482618D01*
X165845715Y-103504958D01*
X165859336Y-103530442D01*
X165867723Y-103558089D01*
X165870800Y-103589332D01*
X165870800Y-103980668D01*
X165867723Y-104011911D01*
X165859336Y-104039558D01*
X165845715Y-104065042D01*
X165827382Y-104087382D01*
X165805042Y-104105715D01*
X165779558Y-104119336D01*
X165751911Y-104127723D01*
X165720668Y-104130800D01*
X165279332Y-104130800D01*
X165248089Y-104127723D01*
X165220442Y-104119336D01*
X165194958Y-104105715D01*
X165172618Y-104087382D01*
X165154285Y-104065042D01*
X165140664Y-104039558D01*
X165132277Y-104011911D01*
X165129200Y-103980668D01*
X165129200Y-103589332D01*
X165132277Y-103558089D01*
X165140664Y-103530442D01*
X165154285Y-103504958D01*
X165172618Y-103482618D01*
X165194958Y-103464285D01*
X165220442Y-103450664D01*
X165248089Y-103442277D01*
X165279332Y-103439200D01*
X165720668Y-103439200D01*
X165751911Y-103442277D01*
G37*
G36*
X173351911Y-103442277D02*
G01*
X173379558Y-103450664D01*
X173405042Y-103464285D01*
X173427382Y-103482618D01*
X173445715Y-103504958D01*
X173459336Y-103530442D01*
X173467723Y-103558089D01*
X173470800Y-103589332D01*
X173470800Y-103980668D01*
X173467723Y-104011911D01*
X173459336Y-104039558D01*
X173445715Y-104065042D01*
X173427382Y-104087382D01*
X173405042Y-104105715D01*
X173379558Y-104119336D01*
X173351911Y-104127723D01*
X173320668Y-104130800D01*
X172879332Y-104130800D01*
X172848089Y-104127723D01*
X172820442Y-104119336D01*
X172794958Y-104105715D01*
X172772618Y-104087382D01*
X172754285Y-104065042D01*
X172740664Y-104039558D01*
X172732277Y-104011911D01*
X172729200Y-103980668D01*
X172729200Y-103589332D01*
X172732277Y-103558089D01*
X172740664Y-103530442D01*
X172754285Y-103504958D01*
X172772618Y-103482618D01*
X172794958Y-103464285D01*
X172820442Y-103450664D01*
X172848089Y-103442277D01*
X172879332Y-103439200D01*
X173320668Y-103439200D01*
X173351911Y-103442277D01*
G37*
G36*
X158151911Y-103442277D02*
G01*
X158179558Y-103450664D01*
X158205042Y-103464285D01*
X158227382Y-103482618D01*
X158245715Y-103504958D01*
X158259336Y-103530442D01*
X158267723Y-103558089D01*
X158270800Y-103589332D01*
X158270800Y-103980668D01*
X158267723Y-104011911D01*
X158259336Y-104039558D01*
X158245715Y-104065042D01*
X158227382Y-104087382D01*
X158205042Y-104105715D01*
X158179558Y-104119336D01*
X158151911Y-104127723D01*
X158120668Y-104130800D01*
X157679332Y-104130800D01*
X157648089Y-104127723D01*
X157620442Y-104119336D01*
X157594958Y-104105715D01*
X157572618Y-104087382D01*
X157554285Y-104065042D01*
X157540664Y-104039558D01*
X157532277Y-104011911D01*
X157529200Y-103980668D01*
X157529200Y-103589332D01*
X157532277Y-103558089D01*
X157540664Y-103530442D01*
X157554285Y-103504958D01*
X157572618Y-103482618D01*
X157594958Y-103464285D01*
X157620442Y-103450664D01*
X157648089Y-103442277D01*
X157679332Y-103439200D01*
X158120668Y-103439200D01*
X158151911Y-103442277D01*
G37*
G36*
X165751911Y-102472277D02*
G01*
X165779558Y-102480664D01*
X165805042Y-102494285D01*
X165827382Y-102512618D01*
X165845715Y-102534958D01*
X165859336Y-102560442D01*
X165867723Y-102588089D01*
X165870800Y-102619332D01*
X165870800Y-103010668D01*
X165867723Y-103041911D01*
X165859336Y-103069558D01*
X165845715Y-103095042D01*
X165827382Y-103117382D01*
X165805042Y-103135715D01*
X165779558Y-103149336D01*
X165751911Y-103157723D01*
X165720668Y-103160800D01*
X165279332Y-103160800D01*
X165248089Y-103157723D01*
X165220442Y-103149336D01*
X165194958Y-103135715D01*
X165172618Y-103117382D01*
X165154285Y-103095042D01*
X165140664Y-103069558D01*
X165132277Y-103041911D01*
X165129200Y-103010668D01*
X165129200Y-102619332D01*
X165132277Y-102588089D01*
X165140664Y-102560442D01*
X165154285Y-102534958D01*
X165172618Y-102512618D01*
X165194958Y-102494285D01*
X165220442Y-102480664D01*
X165248089Y-102472277D01*
X165279332Y-102469200D01*
X165720668Y-102469200D01*
X165751911Y-102472277D01*
G37*
G36*
X171251911Y-102472277D02*
G01*
X171279558Y-102480664D01*
X171305042Y-102494285D01*
X171327382Y-102512618D01*
X171345715Y-102534958D01*
X171359336Y-102560442D01*
X171367723Y-102588089D01*
X171370800Y-102619332D01*
X171370800Y-103010668D01*
X171367723Y-103041911D01*
X171359336Y-103069558D01*
X171345715Y-103095042D01*
X171327382Y-103117382D01*
X171305042Y-103135715D01*
X171279558Y-103149336D01*
X171251911Y-103157723D01*
X171220668Y-103160800D01*
X170779332Y-103160800D01*
X170748089Y-103157723D01*
X170720442Y-103149336D01*
X170694958Y-103135715D01*
X170672618Y-103117382D01*
X170654285Y-103095042D01*
X170640664Y-103069558D01*
X170632277Y-103041911D01*
X170629200Y-103010668D01*
X170629200Y-102619332D01*
X170632277Y-102588089D01*
X170640664Y-102560442D01*
X170654285Y-102534958D01*
X170672618Y-102512618D01*
X170694958Y-102494285D01*
X170720442Y-102480664D01*
X170748089Y-102472277D01*
X170779332Y-102469200D01*
X171220668Y-102469200D01*
X171251911Y-102472277D01*
G37*
G36*
X163651911Y-102472277D02*
G01*
X163679558Y-102480664D01*
X163705042Y-102494285D01*
X163727382Y-102512618D01*
X163745715Y-102534958D01*
X163759336Y-102560442D01*
X163767723Y-102588089D01*
X163770800Y-102619332D01*
X163770800Y-103010668D01*
X163767723Y-103041911D01*
X163759336Y-103069558D01*
X163745715Y-103095042D01*
X163727382Y-103117382D01*
X163705042Y-103135715D01*
X163679558Y-103149336D01*
X163651911Y-103157723D01*
X163620668Y-103160800D01*
X163179332Y-103160800D01*
X163148089Y-103157723D01*
X163120442Y-103149336D01*
X163094958Y-103135715D01*
X163072618Y-103117382D01*
X163054285Y-103095042D01*
X163040664Y-103069558D01*
X163032277Y-103041911D01*
X163029200Y-103010668D01*
X163029200Y-102619332D01*
X163032277Y-102588089D01*
X163040664Y-102560442D01*
X163054285Y-102534958D01*
X163072618Y-102512618D01*
X163094958Y-102494285D01*
X163120442Y-102480664D01*
X163148089Y-102472277D01*
X163179332Y-102469200D01*
X163620668Y-102469200D01*
X163651911Y-102472277D01*
G37*
G36*
X173351911Y-102472277D02*
G01*
X173379558Y-102480664D01*
X173405042Y-102494285D01*
X173427382Y-102512618D01*
X173445715Y-102534958D01*
X173459336Y-102560442D01*
X173467723Y-102588089D01*
X173470800Y-102619332D01*
X173470800Y-103010668D01*
X173467723Y-103041911D01*
X173459336Y-103069558D01*
X173445715Y-103095042D01*
X173427382Y-103117382D01*
X173405042Y-103135715D01*
X173379558Y-103149336D01*
X173351911Y-103157723D01*
X173320668Y-103160800D01*
X172879332Y-103160800D01*
X172848089Y-103157723D01*
X172820442Y-103149336D01*
X172794958Y-103135715D01*
X172772618Y-103117382D01*
X172754285Y-103095042D01*
X172740664Y-103069558D01*
X172732277Y-103041911D01*
X172729200Y-103010668D01*
X172729200Y-102619332D01*
X172732277Y-102588089D01*
X172740664Y-102560442D01*
X172754285Y-102534958D01*
X172772618Y-102512618D01*
X172794958Y-102494285D01*
X172820442Y-102480664D01*
X172848089Y-102472277D01*
X172879332Y-102469200D01*
X173320668Y-102469200D01*
X173351911Y-102472277D01*
G37*
G36*
X158151911Y-102472277D02*
G01*
X158179558Y-102480664D01*
X158205042Y-102494285D01*
X158227382Y-102512618D01*
X158245715Y-102534958D01*
X158259336Y-102560442D01*
X158267723Y-102588089D01*
X158270800Y-102619332D01*
X158270800Y-103010668D01*
X158267723Y-103041911D01*
X158259336Y-103069558D01*
X158245715Y-103095042D01*
X158227382Y-103117382D01*
X158205042Y-103135715D01*
X158179558Y-103149336D01*
X158151911Y-103157723D01*
X158120668Y-103160800D01*
X157679332Y-103160800D01*
X157648089Y-103157723D01*
X157620442Y-103149336D01*
X157594958Y-103135715D01*
X157572618Y-103117382D01*
X157554285Y-103095042D01*
X157540664Y-103069558D01*
X157532277Y-103041911D01*
X157529200Y-103010668D01*
X157529200Y-102619332D01*
X157532277Y-102588089D01*
X157540664Y-102560442D01*
X157554285Y-102534958D01*
X157572618Y-102512618D01*
X157594958Y-102494285D01*
X157620442Y-102480664D01*
X157648089Y-102472277D01*
X157679332Y-102469200D01*
X158120668Y-102469200D01*
X158151911Y-102472277D01*
G37*
G36*
X156051911Y-102472277D02*
G01*
X156079558Y-102480664D01*
X156105042Y-102494285D01*
X156127382Y-102512618D01*
X156145715Y-102534958D01*
X156159336Y-102560442D01*
X156167723Y-102588089D01*
X156170800Y-102619332D01*
X156170800Y-103010668D01*
X156167723Y-103041911D01*
X156159336Y-103069558D01*
X156145715Y-103095042D01*
X156127382Y-103117382D01*
X156105042Y-103135715D01*
X156079558Y-103149336D01*
X156051911Y-103157723D01*
X156020668Y-103160800D01*
X155579332Y-103160800D01*
X155548089Y-103157723D01*
X155520442Y-103149336D01*
X155494958Y-103135715D01*
X155472618Y-103117382D01*
X155454285Y-103095042D01*
X155440664Y-103069558D01*
X155432277Y-103041911D01*
X155429200Y-103010668D01*
X155429200Y-102619332D01*
X155432277Y-102588089D01*
X155440664Y-102560442D01*
X155454285Y-102534958D01*
X155472618Y-102512618D01*
X155494958Y-102494285D01*
X155520442Y-102480664D01*
X155548089Y-102472277D01*
X155579332Y-102469200D01*
X156020668Y-102469200D01*
X156051911Y-102472277D01*
G37*
G36*
X174979894Y-102252324D02*
G01*
X175008019Y-102260856D01*
X175033935Y-102274708D01*
X175056649Y-102293351D01*
X175075292Y-102316065D01*
X175089144Y-102341981D01*
X175097676Y-102370106D01*
X175100800Y-102401831D01*
X175100800Y-102798169D01*
X175097676Y-102829894D01*
X175089144Y-102858019D01*
X175075292Y-102883935D01*
X175056649Y-102906649D01*
X175033935Y-102925292D01*
X175008019Y-102939144D01*
X174979894Y-102947676D01*
X174948169Y-102950800D01*
X174451831Y-102950800D01*
X174420106Y-102947676D01*
X174391981Y-102939144D01*
X174366065Y-102925292D01*
X174343351Y-102906649D01*
X174324708Y-102883935D01*
X174310856Y-102858019D01*
X174302324Y-102829894D01*
X174299200Y-102798169D01*
X174299200Y-102401831D01*
X174302324Y-102370106D01*
X174310856Y-102341981D01*
X174324708Y-102316065D01*
X174343351Y-102293351D01*
X174366065Y-102274708D01*
X174391981Y-102260856D01*
X174420106Y-102252324D01*
X174451831Y-102249200D01*
X174948169Y-102249200D01*
X174979894Y-102252324D01*
G37*
G36*
X152179894Y-102252324D02*
G01*
X152208019Y-102260856D01*
X152233935Y-102274708D01*
X152256649Y-102293351D01*
X152275292Y-102316065D01*
X152289144Y-102341981D01*
X152297676Y-102370106D01*
X152300800Y-102401831D01*
X152300800Y-102798169D01*
X152297676Y-102829894D01*
X152289144Y-102858019D01*
X152275292Y-102883935D01*
X152256649Y-102906649D01*
X152233935Y-102925292D01*
X152208019Y-102939144D01*
X152179894Y-102947676D01*
X152148169Y-102950800D01*
X151651831Y-102950800D01*
X151620106Y-102947676D01*
X151591981Y-102939144D01*
X151566065Y-102925292D01*
X151543351Y-102906649D01*
X151524708Y-102883935D01*
X151510856Y-102858019D01*
X151502324Y-102829894D01*
X151499200Y-102798169D01*
X151499200Y-102401831D01*
X151502324Y-102370106D01*
X151510856Y-102341981D01*
X151524708Y-102316065D01*
X151543351Y-102293351D01*
X151566065Y-102274708D01*
X151591981Y-102260856D01*
X151620106Y-102252324D01*
X151651831Y-102249200D01*
X152148169Y-102249200D01*
X152179894Y-102252324D01*
G37*
G36*
X176379894Y-102252324D02*
G01*
X176408019Y-102260856D01*
X176433935Y-102274708D01*
X176456649Y-102293351D01*
X176475292Y-102316065D01*
X176489144Y-102341981D01*
X176497676Y-102370106D01*
X176500800Y-102401831D01*
X176500800Y-102798169D01*
X176497676Y-102829894D01*
X176489144Y-102858019D01*
X176475292Y-102883935D01*
X176456649Y-102906649D01*
X176433935Y-102925292D01*
X176408019Y-102939144D01*
X176379894Y-102947676D01*
X176348169Y-102950800D01*
X175851831Y-102950800D01*
X175820106Y-102947676D01*
X175791981Y-102939144D01*
X175766065Y-102925292D01*
X175743351Y-102906649D01*
X175724708Y-102883935D01*
X175710856Y-102858019D01*
X175702324Y-102829894D01*
X175699200Y-102798169D01*
X175699200Y-102401831D01*
X175702324Y-102370106D01*
X175710856Y-102341981D01*
X175724708Y-102316065D01*
X175743351Y-102293351D01*
X175766065Y-102274708D01*
X175791981Y-102260856D01*
X175820106Y-102252324D01*
X175851831Y-102249200D01*
X176348169Y-102249200D01*
X176379894Y-102252324D01*
G37*
G36*
X168779894Y-102252324D02*
G01*
X168808019Y-102260856D01*
X168833935Y-102274708D01*
X168856649Y-102293351D01*
X168875292Y-102316065D01*
X168889144Y-102341981D01*
X168897676Y-102370106D01*
X168900800Y-102401831D01*
X168900800Y-102798169D01*
X168897676Y-102829894D01*
X168889144Y-102858019D01*
X168875292Y-102883935D01*
X168856649Y-102906649D01*
X168833935Y-102925292D01*
X168808019Y-102939144D01*
X168779894Y-102947676D01*
X168748169Y-102950800D01*
X168251831Y-102950800D01*
X168220106Y-102947676D01*
X168191981Y-102939144D01*
X168166065Y-102925292D01*
X168143351Y-102906649D01*
X168124708Y-102883935D01*
X168110856Y-102858019D01*
X168102324Y-102829894D01*
X168099200Y-102798169D01*
X168099200Y-102401831D01*
X168102324Y-102370106D01*
X168110856Y-102341981D01*
X168124708Y-102316065D01*
X168143351Y-102293351D01*
X168166065Y-102274708D01*
X168191981Y-102260856D01*
X168220106Y-102252324D01*
X168251831Y-102249200D01*
X168748169Y-102249200D01*
X168779894Y-102252324D01*
G37*
G36*
X161179894Y-102252324D02*
G01*
X161208019Y-102260856D01*
X161233935Y-102274708D01*
X161256649Y-102293351D01*
X161275292Y-102316065D01*
X161289144Y-102341981D01*
X161297676Y-102370106D01*
X161300800Y-102401831D01*
X161300800Y-102798169D01*
X161297676Y-102829894D01*
X161289144Y-102858019D01*
X161275292Y-102883935D01*
X161256649Y-102906649D01*
X161233935Y-102925292D01*
X161208019Y-102939144D01*
X161179894Y-102947676D01*
X161148169Y-102950800D01*
X160651831Y-102950800D01*
X160620106Y-102947676D01*
X160591981Y-102939144D01*
X160566065Y-102925292D01*
X160543351Y-102906649D01*
X160524708Y-102883935D01*
X160510856Y-102858019D01*
X160502324Y-102829894D01*
X160499200Y-102798169D01*
X160499200Y-102401831D01*
X160502324Y-102370106D01*
X160510856Y-102341981D01*
X160524708Y-102316065D01*
X160543351Y-102293351D01*
X160566065Y-102274708D01*
X160591981Y-102260856D01*
X160620106Y-102252324D01*
X160651831Y-102249200D01*
X161148169Y-102249200D01*
X161179894Y-102252324D01*
G37*
G36*
X159779894Y-102252324D02*
G01*
X159808019Y-102260856D01*
X159833935Y-102274708D01*
X159856649Y-102293351D01*
X159875292Y-102316065D01*
X159889144Y-102341981D01*
X159897676Y-102370106D01*
X159900800Y-102401831D01*
X159900800Y-102798169D01*
X159897676Y-102829894D01*
X159889144Y-102858019D01*
X159875292Y-102883935D01*
X159856649Y-102906649D01*
X159833935Y-102925292D01*
X159808019Y-102939144D01*
X159779894Y-102947676D01*
X159748169Y-102950800D01*
X159251831Y-102950800D01*
X159220106Y-102947676D01*
X159191981Y-102939144D01*
X159166065Y-102925292D01*
X159143351Y-102906649D01*
X159124708Y-102883935D01*
X159110856Y-102858019D01*
X159102324Y-102829894D01*
X159099200Y-102798169D01*
X159099200Y-102401831D01*
X159102324Y-102370106D01*
X159110856Y-102341981D01*
X159124708Y-102316065D01*
X159143351Y-102293351D01*
X159166065Y-102274708D01*
X159191981Y-102260856D01*
X159220106Y-102252324D01*
X159251831Y-102249200D01*
X159748169Y-102249200D01*
X159779894Y-102252324D01*
G37*
G36*
X153579894Y-102252324D02*
G01*
X153608019Y-102260856D01*
X153633935Y-102274708D01*
X153656649Y-102293351D01*
X153675292Y-102316065D01*
X153689144Y-102341981D01*
X153697676Y-102370106D01*
X153700800Y-102401831D01*
X153700800Y-102798169D01*
X153697676Y-102829894D01*
X153689144Y-102858019D01*
X153675292Y-102883935D01*
X153656649Y-102906649D01*
X153633935Y-102925292D01*
X153608019Y-102939144D01*
X153579894Y-102947676D01*
X153548169Y-102950800D01*
X153051831Y-102950800D01*
X153020106Y-102947676D01*
X152991981Y-102939144D01*
X152966065Y-102925292D01*
X152943351Y-102906649D01*
X152924708Y-102883935D01*
X152910856Y-102858019D01*
X152902324Y-102829894D01*
X152899200Y-102798169D01*
X152899200Y-102401831D01*
X152902324Y-102370106D01*
X152910856Y-102341981D01*
X152924708Y-102316065D01*
X152943351Y-102293351D01*
X152966065Y-102274708D01*
X152991981Y-102260856D01*
X153020106Y-102252324D01*
X153051831Y-102249200D01*
X153548169Y-102249200D01*
X153579894Y-102252324D01*
G37*
G36*
X167379894Y-102252324D02*
G01*
X167408019Y-102260856D01*
X167433935Y-102274708D01*
X167456649Y-102293351D01*
X167475292Y-102316065D01*
X167489144Y-102341981D01*
X167497676Y-102370106D01*
X167500800Y-102401831D01*
X167500800Y-102798169D01*
X167497676Y-102829894D01*
X167489144Y-102858019D01*
X167475292Y-102883935D01*
X167456649Y-102906649D01*
X167433935Y-102925292D01*
X167408019Y-102939144D01*
X167379894Y-102947676D01*
X167348169Y-102950800D01*
X166851831Y-102950800D01*
X166820106Y-102947676D01*
X166791981Y-102939144D01*
X166766065Y-102925292D01*
X166743351Y-102906649D01*
X166724708Y-102883935D01*
X166710856Y-102858019D01*
X166702324Y-102829894D01*
X166699200Y-102798169D01*
X166699200Y-102401831D01*
X166702324Y-102370106D01*
X166710856Y-102341981D01*
X166724708Y-102316065D01*
X166743351Y-102293351D01*
X166766065Y-102274708D01*
X166791981Y-102260856D01*
X166820106Y-102252324D01*
X166851831Y-102249200D01*
X167348169Y-102249200D01*
X167379894Y-102252324D01*
G37*
G36*
X149944602Y-100750780D02*
G01*
X149957644Y-100754737D01*
X149969661Y-100761160D01*
X149980195Y-100769805D01*
X149988840Y-100780339D01*
X149995263Y-100792356D01*
X149999220Y-100805398D01*
X150000800Y-100821443D01*
X150000800Y-101778557D01*
X149999220Y-101794602D01*
X149995263Y-101807644D01*
X149988840Y-101819661D01*
X149980195Y-101830195D01*
X149969661Y-101838840D01*
X149957644Y-101845263D01*
X149944602Y-101849220D01*
X149928557Y-101850800D01*
X145721443Y-101850800D01*
X145705398Y-101849220D01*
X145692356Y-101845263D01*
X145680339Y-101838840D01*
X145669805Y-101830195D01*
X145661160Y-101819661D01*
X145654737Y-101807644D01*
X145650780Y-101794602D01*
X145649200Y-101778557D01*
X145649200Y-100821443D01*
X145650780Y-100805398D01*
X145654737Y-100792356D01*
X145661160Y-100780339D01*
X145669805Y-100769805D01*
X145680339Y-100761160D01*
X145692356Y-100754737D01*
X145705398Y-100750780D01*
X145721443Y-100749200D01*
X149928557Y-100749200D01*
X149944602Y-100750780D01*
G37*
G36*
X182294602Y-100750780D02*
G01*
X182307644Y-100754737D01*
X182319661Y-100761160D01*
X182330195Y-100769805D01*
X182338840Y-100780339D01*
X182345263Y-100792356D01*
X182349220Y-100805398D01*
X182350800Y-100821443D01*
X182350800Y-101778557D01*
X182349220Y-101794602D01*
X182345263Y-101807644D01*
X182338840Y-101819661D01*
X182330195Y-101830195D01*
X182319661Y-101838840D01*
X182307644Y-101845263D01*
X182294602Y-101849220D01*
X182278557Y-101850800D01*
X178071443Y-101850800D01*
X178055398Y-101849220D01*
X178042356Y-101845263D01*
X178030339Y-101838840D01*
X178019805Y-101830195D01*
X178011160Y-101819661D01*
X178004737Y-101807644D01*
X178000780Y-101794602D01*
X177999200Y-101778557D01*
X177999200Y-100821443D01*
X178000780Y-100805398D01*
X178004737Y-100792356D01*
X178011160Y-100780339D01*
X178019805Y-100769805D01*
X178030339Y-100761160D01*
X178042356Y-100754737D01*
X178055398Y-100750780D01*
X178071443Y-100749200D01*
X182278557Y-100749200D01*
X182294602Y-100750780D01*
G37*
G36*
X168099561Y-100778646D02*
G01*
X168140574Y-100791088D01*
X168178380Y-100811295D01*
X168211513Y-100838487D01*
X168238705Y-100871620D01*
X168258912Y-100909426D01*
X168271354Y-100950439D01*
X168275800Y-100995582D01*
X168275800Y-101604418D01*
X168271354Y-101649561D01*
X168258912Y-101690574D01*
X168238705Y-101728380D01*
X168211513Y-101761513D01*
X168178380Y-101788705D01*
X168140574Y-101808912D01*
X168099561Y-101821354D01*
X168054418Y-101825800D01*
X167520582Y-101825800D01*
X167475439Y-101821354D01*
X167434426Y-101808912D01*
X167396620Y-101788705D01*
X167363487Y-101761513D01*
X167336295Y-101728380D01*
X167316088Y-101690574D01*
X167303646Y-101649561D01*
X167299200Y-101604418D01*
X167299200Y-100995582D01*
X167303646Y-100950439D01*
X167316088Y-100909426D01*
X167336295Y-100871620D01*
X167363487Y-100838487D01*
X167396620Y-100811295D01*
X167434426Y-100791088D01*
X167475439Y-100778646D01*
X167520582Y-100774200D01*
X168054418Y-100774200D01*
X168099561Y-100778646D01*
G37*
G36*
X177299561Y-100778646D02*
G01*
X177340574Y-100791088D01*
X177378380Y-100811295D01*
X177411513Y-100838487D01*
X177438705Y-100871620D01*
X177458912Y-100909426D01*
X177471354Y-100950439D01*
X177475800Y-100995582D01*
X177475800Y-101604418D01*
X177471354Y-101649561D01*
X177458912Y-101690574D01*
X177438705Y-101728380D01*
X177411513Y-101761513D01*
X177378380Y-101788705D01*
X177340574Y-101808912D01*
X177299561Y-101821354D01*
X177254418Y-101825800D01*
X176720582Y-101825800D01*
X176675439Y-101821354D01*
X176634426Y-101808912D01*
X176596620Y-101788705D01*
X176563487Y-101761513D01*
X176536295Y-101728380D01*
X176516088Y-101690574D01*
X176503646Y-101649561D01*
X176499200Y-101604418D01*
X176499200Y-100995582D01*
X176503646Y-100950439D01*
X176516088Y-100909426D01*
X176536295Y-100871620D01*
X176563487Y-100838487D01*
X176596620Y-100811295D01*
X176634426Y-100791088D01*
X176675439Y-100778646D01*
X176720582Y-100774200D01*
X177254418Y-100774200D01*
X177299561Y-100778646D01*
G37*
G36*
X175724561Y-100778646D02*
G01*
X175765574Y-100791088D01*
X175803380Y-100811295D01*
X175836513Y-100838487D01*
X175863705Y-100871620D01*
X175883912Y-100909426D01*
X175896354Y-100950439D01*
X175900800Y-100995582D01*
X175900800Y-101604418D01*
X175896354Y-101649561D01*
X175883912Y-101690574D01*
X175863705Y-101728380D01*
X175836513Y-101761513D01*
X175803380Y-101788705D01*
X175765574Y-101808912D01*
X175724561Y-101821354D01*
X175679418Y-101825800D01*
X175145582Y-101825800D01*
X175100439Y-101821354D01*
X175059426Y-101808912D01*
X175021620Y-101788705D01*
X174988487Y-101761513D01*
X174961295Y-101728380D01*
X174941088Y-101690574D01*
X174928646Y-101649561D01*
X174924200Y-101604418D01*
X174924200Y-100995582D01*
X174928646Y-100950439D01*
X174941088Y-100909426D01*
X174961295Y-100871620D01*
X174988487Y-100838487D01*
X175021620Y-100811295D01*
X175059426Y-100791088D01*
X175100439Y-100778646D01*
X175145582Y-100774200D01*
X175679418Y-100774200D01*
X175724561Y-100778646D01*
G37*
G36*
X152899561Y-100778646D02*
G01*
X152940574Y-100791088D01*
X152978380Y-100811295D01*
X153011513Y-100838487D01*
X153038705Y-100871620D01*
X153058912Y-100909426D01*
X153071354Y-100950439D01*
X153075800Y-100995582D01*
X153075800Y-101604418D01*
X153071354Y-101649561D01*
X153058912Y-101690574D01*
X153038705Y-101728380D01*
X153011513Y-101761513D01*
X152978380Y-101788705D01*
X152940574Y-101808912D01*
X152899561Y-101821354D01*
X152854418Y-101825800D01*
X152320582Y-101825800D01*
X152275439Y-101821354D01*
X152234426Y-101808912D01*
X152196620Y-101788705D01*
X152163487Y-101761513D01*
X152136295Y-101728380D01*
X152116088Y-101690574D01*
X152103646Y-101649561D01*
X152099200Y-101604418D01*
X152099200Y-100995582D01*
X152103646Y-100950439D01*
X152116088Y-100909426D01*
X152136295Y-100871620D01*
X152163487Y-100838487D01*
X152196620Y-100811295D01*
X152234426Y-100791088D01*
X152275439Y-100778646D01*
X152320582Y-100774200D01*
X152854418Y-100774200D01*
X152899561Y-100778646D01*
G37*
G36*
X151324561Y-100778646D02*
G01*
X151365574Y-100791088D01*
X151403380Y-100811295D01*
X151436513Y-100838487D01*
X151463705Y-100871620D01*
X151483912Y-100909426D01*
X151496354Y-100950439D01*
X151500800Y-100995582D01*
X151500800Y-101604418D01*
X151496354Y-101649561D01*
X151483912Y-101690574D01*
X151463705Y-101728380D01*
X151436513Y-101761513D01*
X151403380Y-101788705D01*
X151365574Y-101808912D01*
X151324561Y-101821354D01*
X151279418Y-101825800D01*
X150745582Y-101825800D01*
X150700439Y-101821354D01*
X150659426Y-101808912D01*
X150621620Y-101788705D01*
X150588487Y-101761513D01*
X150561295Y-101728380D01*
X150541088Y-101690574D01*
X150528646Y-101649561D01*
X150524200Y-101604418D01*
X150524200Y-100995582D01*
X150528646Y-100950439D01*
X150541088Y-100909426D01*
X150561295Y-100871620D01*
X150588487Y-100838487D01*
X150621620Y-100811295D01*
X150659426Y-100791088D01*
X150700439Y-100778646D01*
X150745582Y-100774200D01*
X151279418Y-100774200D01*
X151324561Y-100778646D01*
G37*
G36*
X171299561Y-100778646D02*
G01*
X171340574Y-100791088D01*
X171378380Y-100811295D01*
X171411513Y-100838487D01*
X171438705Y-100871620D01*
X171458912Y-100909426D01*
X171471354Y-100950439D01*
X171475800Y-100995582D01*
X171475800Y-101604418D01*
X171471354Y-101649561D01*
X171458912Y-101690574D01*
X171438705Y-101728380D01*
X171411513Y-101761513D01*
X171378380Y-101788705D01*
X171340574Y-101808912D01*
X171299561Y-101821354D01*
X171254418Y-101825800D01*
X170720582Y-101825800D01*
X170675439Y-101821354D01*
X170634426Y-101808912D01*
X170596620Y-101788705D01*
X170563487Y-101761513D01*
X170536295Y-101728380D01*
X170516088Y-101690574D01*
X170503646Y-101649561D01*
X170499200Y-101604418D01*
X170499200Y-100995582D01*
X170503646Y-100950439D01*
X170516088Y-100909426D01*
X170536295Y-100871620D01*
X170563487Y-100838487D01*
X170596620Y-100811295D01*
X170634426Y-100791088D01*
X170675439Y-100778646D01*
X170720582Y-100774200D01*
X171254418Y-100774200D01*
X171299561Y-100778646D01*
G37*
G36*
X156099561Y-100778646D02*
G01*
X156140574Y-100791088D01*
X156178380Y-100811295D01*
X156211513Y-100838487D01*
X156238705Y-100871620D01*
X156258912Y-100909426D01*
X156271354Y-100950439D01*
X156275800Y-100995582D01*
X156275800Y-101604418D01*
X156271354Y-101649561D01*
X156258912Y-101690574D01*
X156238705Y-101728380D01*
X156211513Y-101761513D01*
X156178380Y-101788705D01*
X156140574Y-101808912D01*
X156099561Y-101821354D01*
X156054418Y-101825800D01*
X155520582Y-101825800D01*
X155475439Y-101821354D01*
X155434426Y-101808912D01*
X155396620Y-101788705D01*
X155363487Y-101761513D01*
X155336295Y-101728380D01*
X155316088Y-101690574D01*
X155303646Y-101649561D01*
X155299200Y-101604418D01*
X155299200Y-100995582D01*
X155303646Y-100950439D01*
X155316088Y-100909426D01*
X155336295Y-100871620D01*
X155363487Y-100838487D01*
X155396620Y-100811295D01*
X155434426Y-100791088D01*
X155475439Y-100778646D01*
X155520582Y-100774200D01*
X156054418Y-100774200D01*
X156099561Y-100778646D01*
G37*
G36*
X154524561Y-100778646D02*
G01*
X154565574Y-100791088D01*
X154603380Y-100811295D01*
X154636513Y-100838487D01*
X154663705Y-100871620D01*
X154683912Y-100909426D01*
X154696354Y-100950439D01*
X154700800Y-100995582D01*
X154700800Y-101604418D01*
X154696354Y-101649561D01*
X154683912Y-101690574D01*
X154663705Y-101728380D01*
X154636513Y-101761513D01*
X154603380Y-101788705D01*
X154565574Y-101808912D01*
X154524561Y-101821354D01*
X154479418Y-101825800D01*
X153945582Y-101825800D01*
X153900439Y-101821354D01*
X153859426Y-101808912D01*
X153821620Y-101788705D01*
X153788487Y-101761513D01*
X153761295Y-101728380D01*
X153741088Y-101690574D01*
X153728646Y-101649561D01*
X153724200Y-101604418D01*
X153724200Y-100995582D01*
X153728646Y-100950439D01*
X153741088Y-100909426D01*
X153761295Y-100871620D01*
X153788487Y-100838487D01*
X153821620Y-100811295D01*
X153859426Y-100791088D01*
X153900439Y-100778646D01*
X153945582Y-100774200D01*
X154479418Y-100774200D01*
X154524561Y-100778646D01*
G37*
G36*
X162099561Y-100778646D02*
G01*
X162140574Y-100791088D01*
X162178380Y-100811295D01*
X162211513Y-100838487D01*
X162238705Y-100871620D01*
X162258912Y-100909426D01*
X162271354Y-100950439D01*
X162275800Y-100995582D01*
X162275800Y-101604418D01*
X162271354Y-101649561D01*
X162258912Y-101690574D01*
X162238705Y-101728380D01*
X162211513Y-101761513D01*
X162178380Y-101788705D01*
X162140574Y-101808912D01*
X162099561Y-101821354D01*
X162054418Y-101825800D01*
X161520582Y-101825800D01*
X161475439Y-101821354D01*
X161434426Y-101808912D01*
X161396620Y-101788705D01*
X161363487Y-101761513D01*
X161336295Y-101728380D01*
X161316088Y-101690574D01*
X161303646Y-101649561D01*
X161299200Y-101604418D01*
X161299200Y-100995582D01*
X161303646Y-100950439D01*
X161316088Y-100909426D01*
X161336295Y-100871620D01*
X161363487Y-100838487D01*
X161396620Y-100811295D01*
X161434426Y-100791088D01*
X161475439Y-100778646D01*
X161520582Y-100774200D01*
X162054418Y-100774200D01*
X162099561Y-100778646D01*
G37*
G36*
X166524561Y-100778646D02*
G01*
X166565574Y-100791088D01*
X166603380Y-100811295D01*
X166636513Y-100838487D01*
X166663705Y-100871620D01*
X166683912Y-100909426D01*
X166696354Y-100950439D01*
X166700800Y-100995582D01*
X166700800Y-101604418D01*
X166696354Y-101649561D01*
X166683912Y-101690574D01*
X166663705Y-101728380D01*
X166636513Y-101761513D01*
X166603380Y-101788705D01*
X166565574Y-101808912D01*
X166524561Y-101821354D01*
X166479418Y-101825800D01*
X165945582Y-101825800D01*
X165900439Y-101821354D01*
X165859426Y-101808912D01*
X165821620Y-101788705D01*
X165788487Y-101761513D01*
X165761295Y-101728380D01*
X165741088Y-101690574D01*
X165728646Y-101649561D01*
X165724200Y-101604418D01*
X165724200Y-100995582D01*
X165728646Y-100950439D01*
X165741088Y-100909426D01*
X165761295Y-100871620D01*
X165788487Y-100838487D01*
X165821620Y-100811295D01*
X165859426Y-100791088D01*
X165900439Y-100778646D01*
X165945582Y-100774200D01*
X166479418Y-100774200D01*
X166524561Y-100778646D01*
G37*
G36*
X169724561Y-100778646D02*
G01*
X169765574Y-100791088D01*
X169803380Y-100811295D01*
X169836513Y-100838487D01*
X169863705Y-100871620D01*
X169883912Y-100909426D01*
X169896354Y-100950439D01*
X169900800Y-100995582D01*
X169900800Y-101604418D01*
X169896354Y-101649561D01*
X169883912Y-101690574D01*
X169863705Y-101728380D01*
X169836513Y-101761513D01*
X169803380Y-101788705D01*
X169765574Y-101808912D01*
X169724561Y-101821354D01*
X169679418Y-101825800D01*
X169145582Y-101825800D01*
X169100439Y-101821354D01*
X169059426Y-101808912D01*
X169021620Y-101788705D01*
X168988487Y-101761513D01*
X168961295Y-101728380D01*
X168941088Y-101690574D01*
X168928646Y-101649561D01*
X168924200Y-101604418D01*
X168924200Y-100995582D01*
X168928646Y-100950439D01*
X168941088Y-100909426D01*
X168961295Y-100871620D01*
X168988487Y-100838487D01*
X169021620Y-100811295D01*
X169059426Y-100791088D01*
X169100439Y-100778646D01*
X169145582Y-100774200D01*
X169679418Y-100774200D01*
X169724561Y-100778646D01*
G37*
G36*
X160524561Y-100778646D02*
G01*
X160565574Y-100791088D01*
X160603380Y-100811295D01*
X160636513Y-100838487D01*
X160663705Y-100871620D01*
X160683912Y-100909426D01*
X160696354Y-100950439D01*
X160700800Y-100995582D01*
X160700800Y-101604418D01*
X160696354Y-101649561D01*
X160683912Y-101690574D01*
X160663705Y-101728380D01*
X160636513Y-101761513D01*
X160603380Y-101788705D01*
X160565574Y-101808912D01*
X160524561Y-101821354D01*
X160479418Y-101825800D01*
X159945582Y-101825800D01*
X159900439Y-101821354D01*
X159859426Y-101808912D01*
X159821620Y-101788705D01*
X159788487Y-101761513D01*
X159761295Y-101728380D01*
X159741088Y-101690574D01*
X159728646Y-101649561D01*
X159724200Y-101604418D01*
X159724200Y-100995582D01*
X159728646Y-100950439D01*
X159741088Y-100909426D01*
X159761295Y-100871620D01*
X159788487Y-100838487D01*
X159821620Y-100811295D01*
X159859426Y-100791088D01*
X159900439Y-100778646D01*
X159945582Y-100774200D01*
X160479418Y-100774200D01*
X160524561Y-100778646D01*
G37*
G36*
X172629894Y-100902324D02*
G01*
X172658019Y-100910856D01*
X172683935Y-100924708D01*
X172706649Y-100943351D01*
X172725292Y-100966065D01*
X172739144Y-100991981D01*
X172747676Y-101020106D01*
X172750800Y-101051831D01*
X172750800Y-101548169D01*
X172747676Y-101579894D01*
X172739144Y-101608019D01*
X172725292Y-101633935D01*
X172706649Y-101656649D01*
X172683935Y-101675292D01*
X172658019Y-101689144D01*
X172629894Y-101697676D01*
X172598169Y-101700800D01*
X172201831Y-101700800D01*
X172170106Y-101697676D01*
X172141981Y-101689144D01*
X172116065Y-101675292D01*
X172093351Y-101656649D01*
X172074708Y-101633935D01*
X172060856Y-101608019D01*
X172052324Y-101579894D01*
X172049200Y-101548169D01*
X172049200Y-101051831D01*
X172052324Y-101020106D01*
X172060856Y-100991981D01*
X172074708Y-100966065D01*
X172093351Y-100943351D01*
X172116065Y-100924708D01*
X172141981Y-100910856D01*
X172170106Y-100902324D01*
X172201831Y-100899200D01*
X172598169Y-100899200D01*
X172629894Y-100902324D01*
G37*
G36*
X174029894Y-100902324D02*
G01*
X174058019Y-100910856D01*
X174083935Y-100924708D01*
X174106649Y-100943351D01*
X174125292Y-100966065D01*
X174139144Y-100991981D01*
X174147676Y-101020106D01*
X174150800Y-101051831D01*
X174150800Y-101548169D01*
X174147676Y-101579894D01*
X174139144Y-101608019D01*
X174125292Y-101633935D01*
X174106649Y-101656649D01*
X174083935Y-101675292D01*
X174058019Y-101689144D01*
X174029894Y-101697676D01*
X173998169Y-101700800D01*
X173601831Y-101700800D01*
X173570106Y-101697676D01*
X173541981Y-101689144D01*
X173516065Y-101675292D01*
X173493351Y-101656649D01*
X173474708Y-101633935D01*
X173460856Y-101608019D01*
X173452324Y-101579894D01*
X173449200Y-101548169D01*
X173449200Y-101051831D01*
X173452324Y-101020106D01*
X173460856Y-100991981D01*
X173474708Y-100966065D01*
X173493351Y-100943351D01*
X173516065Y-100924708D01*
X173541981Y-100910856D01*
X173570106Y-100902324D01*
X173601831Y-100899200D01*
X173998169Y-100899200D01*
X174029894Y-100902324D01*
G37*
G36*
X157429894Y-100902324D02*
G01*
X157458019Y-100910856D01*
X157483935Y-100924708D01*
X157506649Y-100943351D01*
X157525292Y-100966065D01*
X157539144Y-100991981D01*
X157547676Y-101020106D01*
X157550800Y-101051831D01*
X157550800Y-101548169D01*
X157547676Y-101579894D01*
X157539144Y-101608019D01*
X157525292Y-101633935D01*
X157506649Y-101656649D01*
X157483935Y-101675292D01*
X157458019Y-101689144D01*
X157429894Y-101697676D01*
X157398169Y-101700800D01*
X157001831Y-101700800D01*
X156970106Y-101697676D01*
X156941981Y-101689144D01*
X156916065Y-101675292D01*
X156893351Y-101656649D01*
X156874708Y-101633935D01*
X156860856Y-101608019D01*
X156852324Y-101579894D01*
X156849200Y-101548169D01*
X156849200Y-101051831D01*
X156852324Y-101020106D01*
X156860856Y-100991981D01*
X156874708Y-100966065D01*
X156893351Y-100943351D01*
X156916065Y-100924708D01*
X156941981Y-100910856D01*
X156970106Y-100902324D01*
X157001831Y-100899200D01*
X157398169Y-100899200D01*
X157429894Y-100902324D01*
G37*
G36*
X158829894Y-100902324D02*
G01*
X158858019Y-100910856D01*
X158883935Y-100924708D01*
X158906649Y-100943351D01*
X158925292Y-100966065D01*
X158939144Y-100991981D01*
X158947676Y-101020106D01*
X158950800Y-101051831D01*
X158950800Y-101548169D01*
X158947676Y-101579894D01*
X158939144Y-101608019D01*
X158925292Y-101633935D01*
X158906649Y-101656649D01*
X158883935Y-101675292D01*
X158858019Y-101689144D01*
X158829894Y-101697676D01*
X158798169Y-101700800D01*
X158401831Y-101700800D01*
X158370106Y-101697676D01*
X158341981Y-101689144D01*
X158316065Y-101675292D01*
X158293351Y-101656649D01*
X158274708Y-101633935D01*
X158260856Y-101608019D01*
X158252324Y-101579894D01*
X158249200Y-101548169D01*
X158249200Y-101051831D01*
X158252324Y-101020106D01*
X158260856Y-100991981D01*
X158274708Y-100966065D01*
X158293351Y-100943351D01*
X158316065Y-100924708D01*
X158341981Y-100910856D01*
X158370106Y-100902324D01*
X158401831Y-100899200D01*
X158798169Y-100899200D01*
X158829894Y-100902324D01*
G37*
G36*
X163629894Y-100902324D02*
G01*
X163658019Y-100910856D01*
X163683935Y-100924708D01*
X163706649Y-100943351D01*
X163725292Y-100966065D01*
X163739144Y-100991981D01*
X163747676Y-101020106D01*
X163750800Y-101051831D01*
X163750800Y-101548169D01*
X163747676Y-101579894D01*
X163739144Y-101608019D01*
X163725292Y-101633935D01*
X163706649Y-101656649D01*
X163683935Y-101675292D01*
X163658019Y-101689144D01*
X163629894Y-101697676D01*
X163598169Y-101700800D01*
X163201831Y-101700800D01*
X163170106Y-101697676D01*
X163141981Y-101689144D01*
X163116065Y-101675292D01*
X163093351Y-101656649D01*
X163074708Y-101633935D01*
X163060856Y-101608019D01*
X163052324Y-101579894D01*
X163049200Y-101548169D01*
X163049200Y-101051831D01*
X163052324Y-101020106D01*
X163060856Y-100991981D01*
X163074708Y-100966065D01*
X163093351Y-100943351D01*
X163116065Y-100924708D01*
X163141981Y-100910856D01*
X163170106Y-100902324D01*
X163201831Y-100899200D01*
X163598169Y-100899200D01*
X163629894Y-100902324D01*
G37*
G36*
X165029894Y-100902324D02*
G01*
X165058019Y-100910856D01*
X165083935Y-100924708D01*
X165106649Y-100943351D01*
X165125292Y-100966065D01*
X165139144Y-100991981D01*
X165147676Y-101020106D01*
X165150800Y-101051831D01*
X165150800Y-101548169D01*
X165147676Y-101579894D01*
X165139144Y-101608019D01*
X165125292Y-101633935D01*
X165106649Y-101656649D01*
X165083935Y-101675292D01*
X165058019Y-101689144D01*
X165029894Y-101697676D01*
X164998169Y-101700800D01*
X164601831Y-101700800D01*
X164570106Y-101697676D01*
X164541981Y-101689144D01*
X164516065Y-101675292D01*
X164493351Y-101656649D01*
X164474708Y-101633935D01*
X164460856Y-101608019D01*
X164452324Y-101579894D01*
X164449200Y-101548169D01*
X164449200Y-101051831D01*
X164452324Y-101020106D01*
X164460856Y-100991981D01*
X164474708Y-100966065D01*
X164493351Y-100943351D01*
X164516065Y-100924708D01*
X164541981Y-100910856D01*
X164570106Y-100902324D01*
X164601831Y-100899200D01*
X164998169Y-100899200D01*
X165029894Y-100902324D01*
G37*
G36*
X152924561Y-99278646D02*
G01*
X152965574Y-99291088D01*
X153003380Y-99311295D01*
X153036513Y-99338487D01*
X153063705Y-99371620D01*
X153083912Y-99409426D01*
X153096354Y-99450439D01*
X153100800Y-99495582D01*
X153100800Y-100104418D01*
X153096354Y-100149561D01*
X153083912Y-100190574D01*
X153063705Y-100228380D01*
X153036513Y-100261513D01*
X153003380Y-100288705D01*
X152965574Y-100308912D01*
X152924561Y-100321354D01*
X152879418Y-100325800D01*
X152345582Y-100325800D01*
X152300439Y-100321354D01*
X152259426Y-100308912D01*
X152221620Y-100288705D01*
X152188487Y-100261513D01*
X152161295Y-100228380D01*
X152141088Y-100190574D01*
X152128646Y-100149561D01*
X152124200Y-100104418D01*
X152124200Y-99495582D01*
X152128646Y-99450439D01*
X152141088Y-99409426D01*
X152161295Y-99371620D01*
X152188487Y-99338487D01*
X152221620Y-99311295D01*
X152259426Y-99291088D01*
X152300439Y-99278646D01*
X152345582Y-99274200D01*
X152879418Y-99274200D01*
X152924561Y-99278646D01*
G37*
G36*
X163699561Y-99278646D02*
G01*
X163740574Y-99291088D01*
X163778380Y-99311295D01*
X163811513Y-99338487D01*
X163838705Y-99371620D01*
X163858912Y-99409426D01*
X163871354Y-99450439D01*
X163875800Y-99495582D01*
X163875800Y-100104418D01*
X163871354Y-100149561D01*
X163858912Y-100190574D01*
X163838705Y-100228380D01*
X163811513Y-100261513D01*
X163778380Y-100288705D01*
X163740574Y-100308912D01*
X163699561Y-100321354D01*
X163654418Y-100325800D01*
X163120582Y-100325800D01*
X163075439Y-100321354D01*
X163034426Y-100308912D01*
X162996620Y-100288705D01*
X162963487Y-100261513D01*
X162936295Y-100228380D01*
X162916088Y-100190574D01*
X162903646Y-100149561D01*
X162899200Y-100104418D01*
X162899200Y-99495582D01*
X162903646Y-99450439D01*
X162916088Y-99409426D01*
X162936295Y-99371620D01*
X162963487Y-99338487D01*
X162996620Y-99311295D01*
X163034426Y-99291088D01*
X163075439Y-99278646D01*
X163120582Y-99274200D01*
X163654418Y-99274200D01*
X163699561Y-99278646D01*
G37*
G36*
X162124561Y-99278646D02*
G01*
X162165574Y-99291088D01*
X162203380Y-99311295D01*
X162236513Y-99338487D01*
X162263705Y-99371620D01*
X162283912Y-99409426D01*
X162296354Y-99450439D01*
X162300800Y-99495582D01*
X162300800Y-100104418D01*
X162296354Y-100149561D01*
X162283912Y-100190574D01*
X162263705Y-100228380D01*
X162236513Y-100261513D01*
X162203380Y-100288705D01*
X162165574Y-100308912D01*
X162124561Y-100321354D01*
X162079418Y-100325800D01*
X161545582Y-100325800D01*
X161500439Y-100321354D01*
X161459426Y-100308912D01*
X161421620Y-100288705D01*
X161388487Y-100261513D01*
X161361295Y-100228380D01*
X161341088Y-100190574D01*
X161328646Y-100149561D01*
X161324200Y-100104418D01*
X161324200Y-99495582D01*
X161328646Y-99450439D01*
X161341088Y-99409426D01*
X161361295Y-99371620D01*
X161388487Y-99338487D01*
X161421620Y-99311295D01*
X161459426Y-99291088D01*
X161500439Y-99278646D01*
X161545582Y-99274200D01*
X162079418Y-99274200D01*
X162124561Y-99278646D01*
G37*
G36*
X154499561Y-99278646D02*
G01*
X154540574Y-99291088D01*
X154578380Y-99311295D01*
X154611513Y-99338487D01*
X154638705Y-99371620D01*
X154658912Y-99409426D01*
X154671354Y-99450439D01*
X154675800Y-99495582D01*
X154675800Y-100104418D01*
X154671354Y-100149561D01*
X154658912Y-100190574D01*
X154638705Y-100228380D01*
X154611513Y-100261513D01*
X154578380Y-100288705D01*
X154540574Y-100308912D01*
X154499561Y-100321354D01*
X154454418Y-100325800D01*
X153920582Y-100325800D01*
X153875439Y-100321354D01*
X153834426Y-100308912D01*
X153796620Y-100288705D01*
X153763487Y-100261513D01*
X153736295Y-100228380D01*
X153716088Y-100190574D01*
X153703646Y-100149561D01*
X153699200Y-100104418D01*
X153699200Y-99495582D01*
X153703646Y-99450439D01*
X153716088Y-99409426D01*
X153736295Y-99371620D01*
X153763487Y-99338487D01*
X153796620Y-99311295D01*
X153834426Y-99291088D01*
X153875439Y-99278646D01*
X153920582Y-99274200D01*
X154454418Y-99274200D01*
X154499561Y-99278646D01*
G37*
G36*
X169699561Y-99278646D02*
G01*
X169740574Y-99291088D01*
X169778380Y-99311295D01*
X169811513Y-99338487D01*
X169838705Y-99371620D01*
X169858912Y-99409426D01*
X169871354Y-99450439D01*
X169875800Y-99495582D01*
X169875800Y-100104418D01*
X169871354Y-100149561D01*
X169858912Y-100190574D01*
X169838705Y-100228380D01*
X169811513Y-100261513D01*
X169778380Y-100288705D01*
X169740574Y-100308912D01*
X169699561Y-100321354D01*
X169654418Y-100325800D01*
X169120582Y-100325800D01*
X169075439Y-100321354D01*
X169034426Y-100308912D01*
X168996620Y-100288705D01*
X168963487Y-100261513D01*
X168936295Y-100228380D01*
X168916088Y-100190574D01*
X168903646Y-100149561D01*
X168899200Y-100104418D01*
X168899200Y-99495582D01*
X168903646Y-99450439D01*
X168916088Y-99409426D01*
X168936295Y-99371620D01*
X168963487Y-99338487D01*
X168996620Y-99311295D01*
X169034426Y-99291088D01*
X169075439Y-99278646D01*
X169120582Y-99274200D01*
X169654418Y-99274200D01*
X169699561Y-99278646D01*
G37*
G36*
X168124561Y-99278646D02*
G01*
X168165574Y-99291088D01*
X168203380Y-99311295D01*
X168236513Y-99338487D01*
X168263705Y-99371620D01*
X168283912Y-99409426D01*
X168296354Y-99450439D01*
X168300800Y-99495582D01*
X168300800Y-100104418D01*
X168296354Y-100149561D01*
X168283912Y-100190574D01*
X168263705Y-100228380D01*
X168236513Y-100261513D01*
X168203380Y-100288705D01*
X168165574Y-100308912D01*
X168124561Y-100321354D01*
X168079418Y-100325800D01*
X167545582Y-100325800D01*
X167500439Y-100321354D01*
X167459426Y-100308912D01*
X167421620Y-100288705D01*
X167388487Y-100261513D01*
X167361295Y-100228380D01*
X167341088Y-100190574D01*
X167328646Y-100149561D01*
X167324200Y-100104418D01*
X167324200Y-99495582D01*
X167328646Y-99450439D01*
X167341088Y-99409426D01*
X167361295Y-99371620D01*
X167388487Y-99338487D01*
X167421620Y-99311295D01*
X167459426Y-99291088D01*
X167500439Y-99278646D01*
X167545582Y-99274200D01*
X168079418Y-99274200D01*
X168124561Y-99278646D01*
G37*
G36*
X174124561Y-99278646D02*
G01*
X174165574Y-99291088D01*
X174203380Y-99311295D01*
X174236513Y-99338487D01*
X174263705Y-99371620D01*
X174283912Y-99409426D01*
X174296354Y-99450439D01*
X174300800Y-99495582D01*
X174300800Y-100104418D01*
X174296354Y-100149561D01*
X174283912Y-100190574D01*
X174263705Y-100228380D01*
X174236513Y-100261513D01*
X174203380Y-100288705D01*
X174165574Y-100308912D01*
X174124561Y-100321354D01*
X174079418Y-100325800D01*
X173545582Y-100325800D01*
X173500439Y-100321354D01*
X173459426Y-100308912D01*
X173421620Y-100288705D01*
X173388487Y-100261513D01*
X173361295Y-100228380D01*
X173341088Y-100190574D01*
X173328646Y-100149561D01*
X173324200Y-100104418D01*
X173324200Y-99495582D01*
X173328646Y-99450439D01*
X173341088Y-99409426D01*
X173361295Y-99371620D01*
X173388487Y-99338487D01*
X173421620Y-99311295D01*
X173459426Y-99291088D01*
X173500439Y-99278646D01*
X173545582Y-99274200D01*
X174079418Y-99274200D01*
X174124561Y-99278646D01*
G37*
G36*
X175699561Y-99278646D02*
G01*
X175740574Y-99291088D01*
X175778380Y-99311295D01*
X175811513Y-99338487D01*
X175838705Y-99371620D01*
X175858912Y-99409426D01*
X175871354Y-99450439D01*
X175875800Y-99495582D01*
X175875800Y-100104418D01*
X175871354Y-100149561D01*
X175858912Y-100190574D01*
X175838705Y-100228380D01*
X175811513Y-100261513D01*
X175778380Y-100288705D01*
X175740574Y-100308912D01*
X175699561Y-100321354D01*
X175654418Y-100325800D01*
X175120582Y-100325800D01*
X175075439Y-100321354D01*
X175034426Y-100308912D01*
X174996620Y-100288705D01*
X174963487Y-100261513D01*
X174936295Y-100228380D01*
X174916088Y-100190574D01*
X174903646Y-100149561D01*
X174899200Y-100104418D01*
X174899200Y-99495582D01*
X174903646Y-99450439D01*
X174916088Y-99409426D01*
X174936295Y-99371620D01*
X174963487Y-99338487D01*
X174996620Y-99311295D01*
X175034426Y-99291088D01*
X175075439Y-99278646D01*
X175120582Y-99274200D01*
X175654418Y-99274200D01*
X175699561Y-99278646D01*
G37*
G36*
X158924561Y-99278646D02*
G01*
X158965574Y-99291088D01*
X159003380Y-99311295D01*
X159036513Y-99338487D01*
X159063705Y-99371620D01*
X159083912Y-99409426D01*
X159096354Y-99450439D01*
X159100800Y-99495582D01*
X159100800Y-100104418D01*
X159096354Y-100149561D01*
X159083912Y-100190574D01*
X159063705Y-100228380D01*
X159036513Y-100261513D01*
X159003380Y-100288705D01*
X158965574Y-100308912D01*
X158924561Y-100321354D01*
X158879418Y-100325800D01*
X158345582Y-100325800D01*
X158300439Y-100321354D01*
X158259426Y-100308912D01*
X158221620Y-100288705D01*
X158188487Y-100261513D01*
X158161295Y-100228380D01*
X158141088Y-100190574D01*
X158128646Y-100149561D01*
X158124200Y-100104418D01*
X158124200Y-99495582D01*
X158128646Y-99450439D01*
X158141088Y-99409426D01*
X158161295Y-99371620D01*
X158188487Y-99338487D01*
X158221620Y-99311295D01*
X158259426Y-99291088D01*
X158300439Y-99278646D01*
X158345582Y-99274200D01*
X158879418Y-99274200D01*
X158924561Y-99278646D01*
G37*
G36*
X160499561Y-99278646D02*
G01*
X160540574Y-99291088D01*
X160578380Y-99311295D01*
X160611513Y-99338487D01*
X160638705Y-99371620D01*
X160658912Y-99409426D01*
X160671354Y-99450439D01*
X160675800Y-99495582D01*
X160675800Y-100104418D01*
X160671354Y-100149561D01*
X160658912Y-100190574D01*
X160638705Y-100228380D01*
X160611513Y-100261513D01*
X160578380Y-100288705D01*
X160540574Y-100308912D01*
X160499561Y-100321354D01*
X160454418Y-100325800D01*
X159920582Y-100325800D01*
X159875439Y-100321354D01*
X159834426Y-100308912D01*
X159796620Y-100288705D01*
X159763487Y-100261513D01*
X159736295Y-100228380D01*
X159716088Y-100190574D01*
X159703646Y-100149561D01*
X159699200Y-100104418D01*
X159699200Y-99495582D01*
X159703646Y-99450439D01*
X159716088Y-99409426D01*
X159736295Y-99371620D01*
X159763487Y-99338487D01*
X159796620Y-99311295D01*
X159834426Y-99291088D01*
X159875439Y-99278646D01*
X159920582Y-99274200D01*
X160454418Y-99274200D01*
X160499561Y-99278646D01*
G37*
G36*
X172629894Y-99402324D02*
G01*
X172658019Y-99410856D01*
X172683935Y-99424708D01*
X172706649Y-99443351D01*
X172725292Y-99466065D01*
X172739144Y-99491981D01*
X172747676Y-99520106D01*
X172750800Y-99551831D01*
X172750800Y-100048169D01*
X172747676Y-100079894D01*
X172739144Y-100108019D01*
X172725292Y-100133935D01*
X172706649Y-100156649D01*
X172683935Y-100175292D01*
X172658019Y-100189144D01*
X172629894Y-100197676D01*
X172598169Y-100200800D01*
X172201831Y-100200800D01*
X172170106Y-100197676D01*
X172141981Y-100189144D01*
X172116065Y-100175292D01*
X172093351Y-100156649D01*
X172074708Y-100133935D01*
X172060856Y-100108019D01*
X172052324Y-100079894D01*
X172049200Y-100048169D01*
X172049200Y-99551831D01*
X172052324Y-99520106D01*
X172060856Y-99491981D01*
X172074708Y-99466065D01*
X172093351Y-99443351D01*
X172116065Y-99424708D01*
X172141981Y-99410856D01*
X172170106Y-99402324D01*
X172201831Y-99399200D01*
X172598169Y-99399200D01*
X172629894Y-99402324D01*
G37*
G36*
X156029894Y-99402324D02*
G01*
X156058019Y-99410856D01*
X156083935Y-99424708D01*
X156106649Y-99443351D01*
X156125292Y-99466065D01*
X156139144Y-99491981D01*
X156147676Y-99520106D01*
X156150800Y-99551831D01*
X156150800Y-100048169D01*
X156147676Y-100079894D01*
X156139144Y-100108019D01*
X156125292Y-100133935D01*
X156106649Y-100156649D01*
X156083935Y-100175292D01*
X156058019Y-100189144D01*
X156029894Y-100197676D01*
X155998169Y-100200800D01*
X155601831Y-100200800D01*
X155570106Y-100197676D01*
X155541981Y-100189144D01*
X155516065Y-100175292D01*
X155493351Y-100156649D01*
X155474708Y-100133935D01*
X155460856Y-100108019D01*
X155452324Y-100079894D01*
X155449200Y-100048169D01*
X155449200Y-99551831D01*
X155452324Y-99520106D01*
X155460856Y-99491981D01*
X155474708Y-99466065D01*
X155493351Y-99443351D01*
X155516065Y-99424708D01*
X155541981Y-99410856D01*
X155570106Y-99402324D01*
X155601831Y-99399200D01*
X155998169Y-99399200D01*
X156029894Y-99402324D01*
G37*
G36*
X157429894Y-99402324D02*
G01*
X157458019Y-99410856D01*
X157483935Y-99424708D01*
X157506649Y-99443351D01*
X157525292Y-99466065D01*
X157539144Y-99491981D01*
X157547676Y-99520106D01*
X157550800Y-99551831D01*
X157550800Y-100048169D01*
X157547676Y-100079894D01*
X157539144Y-100108019D01*
X157525292Y-100133935D01*
X157506649Y-100156649D01*
X157483935Y-100175292D01*
X157458019Y-100189144D01*
X157429894Y-100197676D01*
X157398169Y-100200800D01*
X157001831Y-100200800D01*
X156970106Y-100197676D01*
X156941981Y-100189144D01*
X156916065Y-100175292D01*
X156893351Y-100156649D01*
X156874708Y-100133935D01*
X156860856Y-100108019D01*
X156852324Y-100079894D01*
X156849200Y-100048169D01*
X156849200Y-99551831D01*
X156852324Y-99520106D01*
X156860856Y-99491981D01*
X156874708Y-99466065D01*
X156893351Y-99443351D01*
X156916065Y-99424708D01*
X156941981Y-99410856D01*
X156970106Y-99402324D01*
X157001831Y-99399200D01*
X157398169Y-99399200D01*
X157429894Y-99402324D01*
G37*
G36*
X166429894Y-99402324D02*
G01*
X166458019Y-99410856D01*
X166483935Y-99424708D01*
X166506649Y-99443351D01*
X166525292Y-99466065D01*
X166539144Y-99491981D01*
X166547676Y-99520106D01*
X166550800Y-99551831D01*
X166550800Y-100048169D01*
X166547676Y-100079894D01*
X166539144Y-100108019D01*
X166525292Y-100133935D01*
X166506649Y-100156649D01*
X166483935Y-100175292D01*
X166458019Y-100189144D01*
X166429894Y-100197676D01*
X166398169Y-100200800D01*
X166001831Y-100200800D01*
X165970106Y-100197676D01*
X165941981Y-100189144D01*
X165916065Y-100175292D01*
X165893351Y-100156649D01*
X165874708Y-100133935D01*
X165860856Y-100108019D01*
X165852324Y-100079894D01*
X165849200Y-100048169D01*
X165849200Y-99551831D01*
X165852324Y-99520106D01*
X165860856Y-99491981D01*
X165874708Y-99466065D01*
X165893351Y-99443351D01*
X165916065Y-99424708D01*
X165941981Y-99410856D01*
X165970106Y-99402324D01*
X166001831Y-99399200D01*
X166398169Y-99399200D01*
X166429894Y-99402324D01*
G37*
G36*
X171229894Y-99402324D02*
G01*
X171258019Y-99410856D01*
X171283935Y-99424708D01*
X171306649Y-99443351D01*
X171325292Y-99466065D01*
X171339144Y-99491981D01*
X171347676Y-99520106D01*
X171350800Y-99551831D01*
X171350800Y-100048169D01*
X171347676Y-100079894D01*
X171339144Y-100108019D01*
X171325292Y-100133935D01*
X171306649Y-100156649D01*
X171283935Y-100175292D01*
X171258019Y-100189144D01*
X171229894Y-100197676D01*
X171198169Y-100200800D01*
X170801831Y-100200800D01*
X170770106Y-100197676D01*
X170741981Y-100189144D01*
X170716065Y-100175292D01*
X170693351Y-100156649D01*
X170674708Y-100133935D01*
X170660856Y-100108019D01*
X170652324Y-100079894D01*
X170649200Y-100048169D01*
X170649200Y-99551831D01*
X170652324Y-99520106D01*
X170660856Y-99491981D01*
X170674708Y-99466065D01*
X170693351Y-99443351D01*
X170716065Y-99424708D01*
X170741981Y-99410856D01*
X170770106Y-99402324D01*
X170801831Y-99399200D01*
X171198169Y-99399200D01*
X171229894Y-99402324D01*
G37*
G36*
X165029894Y-99402324D02*
G01*
X165058019Y-99410856D01*
X165083935Y-99424708D01*
X165106649Y-99443351D01*
X165125292Y-99466065D01*
X165139144Y-99491981D01*
X165147676Y-99520106D01*
X165150800Y-99551831D01*
X165150800Y-100048169D01*
X165147676Y-100079894D01*
X165139144Y-100108019D01*
X165125292Y-100133935D01*
X165106649Y-100156649D01*
X165083935Y-100175292D01*
X165058019Y-100189144D01*
X165029894Y-100197676D01*
X164998169Y-100200800D01*
X164601831Y-100200800D01*
X164570106Y-100197676D01*
X164541981Y-100189144D01*
X164516065Y-100175292D01*
X164493351Y-100156649D01*
X164474708Y-100133935D01*
X164460856Y-100108019D01*
X164452324Y-100079894D01*
X164449200Y-100048169D01*
X164449200Y-99551831D01*
X164452324Y-99520106D01*
X164460856Y-99491981D01*
X164474708Y-99466065D01*
X164493351Y-99443351D01*
X164516065Y-99424708D01*
X164541981Y-99410856D01*
X164570106Y-99402324D01*
X164601831Y-99399200D01*
X164998169Y-99399200D01*
X165029894Y-99402324D01*
G37*
G36*
X149924483Y-98076261D02*
G01*
X149942207Y-98081638D01*
X149958551Y-98090374D01*
X149972873Y-98102127D01*
X149984626Y-98116449D01*
X149993362Y-98132793D01*
X149998739Y-98150517D01*
X150000800Y-98171443D01*
X150000800Y-99328557D01*
X149998739Y-99349483D01*
X149993362Y-99367207D01*
X149984626Y-99383551D01*
X149972873Y-99397873D01*
X149958551Y-99409626D01*
X149942207Y-99418362D01*
X149924483Y-99423739D01*
X149903557Y-99425800D01*
X145746443Y-99425800D01*
X145725517Y-99423739D01*
X145707793Y-99418362D01*
X145691449Y-99409626D01*
X145677127Y-99397873D01*
X145665374Y-99383551D01*
X145656638Y-99367207D01*
X145651261Y-99349483D01*
X145649200Y-99328557D01*
X145649200Y-98171443D01*
X145651261Y-98150517D01*
X145656638Y-98132793D01*
X145665374Y-98116449D01*
X145677127Y-98102127D01*
X145691449Y-98090374D01*
X145707793Y-98081638D01*
X145725517Y-98076261D01*
X145746443Y-98074200D01*
X149903557Y-98074200D01*
X149924483Y-98076261D01*
G37*
G36*
X182274483Y-98076261D02*
G01*
X182292207Y-98081638D01*
X182308551Y-98090374D01*
X182322873Y-98102127D01*
X182334626Y-98116449D01*
X182343362Y-98132793D01*
X182348739Y-98150517D01*
X182350800Y-98171443D01*
X182350800Y-99328557D01*
X182348739Y-99349483D01*
X182343362Y-99367207D01*
X182334626Y-99383551D01*
X182322873Y-99397873D01*
X182308551Y-99409626D01*
X182292207Y-99418362D01*
X182274483Y-99423739D01*
X182253557Y-99425800D01*
X178096443Y-99425800D01*
X178075517Y-99423739D01*
X178057793Y-99418362D01*
X178041449Y-99409626D01*
X178027127Y-99397873D01*
X178015374Y-99383551D01*
X178006638Y-99367207D01*
X178001261Y-99349483D01*
X177999200Y-99328557D01*
X177999200Y-98171443D01*
X178001261Y-98150517D01*
X178006638Y-98132793D01*
X178015374Y-98116449D01*
X178027127Y-98102127D01*
X178041449Y-98090374D01*
X178057793Y-98081638D01*
X178075517Y-98076261D01*
X178096443Y-98074200D01*
X182253557Y-98074200D01*
X182274483Y-98076261D01*
G37*
G36*
X174641911Y-98032277D02*
G01*
X174669558Y-98040664D01*
X174695042Y-98054285D01*
X174717382Y-98072618D01*
X174735715Y-98094958D01*
X174749336Y-98120442D01*
X174757723Y-98148089D01*
X174760800Y-98179332D01*
X174760800Y-98620668D01*
X174757723Y-98651911D01*
X174749336Y-98679558D01*
X174735715Y-98705042D01*
X174717382Y-98727382D01*
X174695042Y-98745715D01*
X174669558Y-98759336D01*
X174641911Y-98767723D01*
X174610668Y-98770800D01*
X174219332Y-98770800D01*
X174188089Y-98767723D01*
X174160442Y-98759336D01*
X174134958Y-98745715D01*
X174112618Y-98727382D01*
X174094285Y-98705042D01*
X174080664Y-98679558D01*
X174072277Y-98651911D01*
X174069200Y-98620668D01*
X174069200Y-98179332D01*
X174072277Y-98148089D01*
X174080664Y-98120442D01*
X174094285Y-98094958D01*
X174112618Y-98072618D01*
X174134958Y-98054285D01*
X174160442Y-98040664D01*
X174188089Y-98032277D01*
X174219332Y-98029200D01*
X174610668Y-98029200D01*
X174641911Y-98032277D01*
G37*
G36*
X175611911Y-98032277D02*
G01*
X175639558Y-98040664D01*
X175665042Y-98054285D01*
X175687382Y-98072618D01*
X175705715Y-98094958D01*
X175719336Y-98120442D01*
X175727723Y-98148089D01*
X175730800Y-98179332D01*
X175730800Y-98620668D01*
X175727723Y-98651911D01*
X175719336Y-98679558D01*
X175705715Y-98705042D01*
X175687382Y-98727382D01*
X175665042Y-98745715D01*
X175639558Y-98759336D01*
X175611911Y-98767723D01*
X175580668Y-98770800D01*
X175189332Y-98770800D01*
X175158089Y-98767723D01*
X175130442Y-98759336D01*
X175104958Y-98745715D01*
X175082618Y-98727382D01*
X175064285Y-98705042D01*
X175050664Y-98679558D01*
X175042277Y-98651911D01*
X175039200Y-98620668D01*
X175039200Y-98179332D01*
X175042277Y-98148089D01*
X175050664Y-98120442D01*
X175064285Y-98094958D01*
X175082618Y-98072618D01*
X175104958Y-98054285D01*
X175130442Y-98040664D01*
X175158089Y-98032277D01*
X175189332Y-98029200D01*
X175580668Y-98029200D01*
X175611911Y-98032277D01*
G37*
G36*
X172611911Y-98032277D02*
G01*
X172639558Y-98040664D01*
X172665042Y-98054285D01*
X172687382Y-98072618D01*
X172705715Y-98094958D01*
X172719336Y-98120442D01*
X172727723Y-98148089D01*
X172730800Y-98179332D01*
X172730800Y-98620668D01*
X172727723Y-98651911D01*
X172719336Y-98679558D01*
X172705715Y-98705042D01*
X172687382Y-98727382D01*
X172665042Y-98745715D01*
X172639558Y-98759336D01*
X172611911Y-98767723D01*
X172580668Y-98770800D01*
X172189332Y-98770800D01*
X172158089Y-98767723D01*
X172130442Y-98759336D01*
X172104958Y-98745715D01*
X172082618Y-98727382D01*
X172064285Y-98705042D01*
X172050664Y-98679558D01*
X172042277Y-98651911D01*
X172039200Y-98620668D01*
X172039200Y-98179332D01*
X172042277Y-98148089D01*
X172050664Y-98120442D01*
X172064285Y-98094958D01*
X172082618Y-98072618D01*
X172104958Y-98054285D01*
X172130442Y-98040664D01*
X172158089Y-98032277D01*
X172189332Y-98029200D01*
X172580668Y-98029200D01*
X172611911Y-98032277D01*
G37*
G36*
X168041911Y-98032277D02*
G01*
X168069558Y-98040664D01*
X168095042Y-98054285D01*
X168117382Y-98072618D01*
X168135715Y-98094958D01*
X168149336Y-98120442D01*
X168157723Y-98148089D01*
X168160800Y-98179332D01*
X168160800Y-98620668D01*
X168157723Y-98651911D01*
X168149336Y-98679558D01*
X168135715Y-98705042D01*
X168117382Y-98727382D01*
X168095042Y-98745715D01*
X168069558Y-98759336D01*
X168041911Y-98767723D01*
X168010668Y-98770800D01*
X167619332Y-98770800D01*
X167588089Y-98767723D01*
X167560442Y-98759336D01*
X167534958Y-98745715D01*
X167512618Y-98727382D01*
X167494285Y-98705042D01*
X167480664Y-98679558D01*
X167472277Y-98651911D01*
X167469200Y-98620668D01*
X167469200Y-98179332D01*
X167472277Y-98148089D01*
X167480664Y-98120442D01*
X167494285Y-98094958D01*
X167512618Y-98072618D01*
X167534958Y-98054285D01*
X167560442Y-98040664D01*
X167588089Y-98032277D01*
X167619332Y-98029200D01*
X168010668Y-98029200D01*
X168041911Y-98032277D01*
G37*
G36*
X169011911Y-98032277D02*
G01*
X169039558Y-98040664D01*
X169065042Y-98054285D01*
X169087382Y-98072618D01*
X169105715Y-98094958D01*
X169119336Y-98120442D01*
X169127723Y-98148089D01*
X169130800Y-98179332D01*
X169130800Y-98620668D01*
X169127723Y-98651911D01*
X169119336Y-98679558D01*
X169105715Y-98705042D01*
X169087382Y-98727382D01*
X169065042Y-98745715D01*
X169039558Y-98759336D01*
X169011911Y-98767723D01*
X168980668Y-98770800D01*
X168589332Y-98770800D01*
X168558089Y-98767723D01*
X168530442Y-98759336D01*
X168504958Y-98745715D01*
X168482618Y-98727382D01*
X168464285Y-98705042D01*
X168450664Y-98679558D01*
X168442277Y-98651911D01*
X168439200Y-98620668D01*
X168439200Y-98179332D01*
X168442277Y-98148089D01*
X168450664Y-98120442D01*
X168464285Y-98094958D01*
X168482618Y-98072618D01*
X168504958Y-98054285D01*
X168530442Y-98040664D01*
X168558089Y-98032277D01*
X168589332Y-98029200D01*
X168980668Y-98029200D01*
X169011911Y-98032277D01*
G37*
G36*
X165011911Y-98032277D02*
G01*
X165039558Y-98040664D01*
X165065042Y-98054285D01*
X165087382Y-98072618D01*
X165105715Y-98094958D01*
X165119336Y-98120442D01*
X165127723Y-98148089D01*
X165130800Y-98179332D01*
X165130800Y-98620668D01*
X165127723Y-98651911D01*
X165119336Y-98679558D01*
X165105715Y-98705042D01*
X165087382Y-98727382D01*
X165065042Y-98745715D01*
X165039558Y-98759336D01*
X165011911Y-98767723D01*
X164980668Y-98770800D01*
X164589332Y-98770800D01*
X164558089Y-98767723D01*
X164530442Y-98759336D01*
X164504958Y-98745715D01*
X164482618Y-98727382D01*
X164464285Y-98705042D01*
X164450664Y-98679558D01*
X164442277Y-98651911D01*
X164439200Y-98620668D01*
X164439200Y-98179332D01*
X164442277Y-98148089D01*
X164450664Y-98120442D01*
X164464285Y-98094958D01*
X164482618Y-98072618D01*
X164504958Y-98054285D01*
X164530442Y-98040664D01*
X164558089Y-98032277D01*
X164589332Y-98029200D01*
X164980668Y-98029200D01*
X165011911Y-98032277D01*
G37*
G36*
X164041911Y-98032277D02*
G01*
X164069558Y-98040664D01*
X164095042Y-98054285D01*
X164117382Y-98072618D01*
X164135715Y-98094958D01*
X164149336Y-98120442D01*
X164157723Y-98148089D01*
X164160800Y-98179332D01*
X164160800Y-98620668D01*
X164157723Y-98651911D01*
X164149336Y-98679558D01*
X164135715Y-98705042D01*
X164117382Y-98727382D01*
X164095042Y-98745715D01*
X164069558Y-98759336D01*
X164041911Y-98767723D01*
X164010668Y-98770800D01*
X163619332Y-98770800D01*
X163588089Y-98767723D01*
X163560442Y-98759336D01*
X163534958Y-98745715D01*
X163512618Y-98727382D01*
X163494285Y-98705042D01*
X163480664Y-98679558D01*
X163472277Y-98651911D01*
X163469200Y-98620668D01*
X163469200Y-98179332D01*
X163472277Y-98148089D01*
X163480664Y-98120442D01*
X163494285Y-98094958D01*
X163512618Y-98072618D01*
X163534958Y-98054285D01*
X163560442Y-98040664D01*
X163588089Y-98032277D01*
X163619332Y-98029200D01*
X164010668Y-98029200D01*
X164041911Y-98032277D01*
G37*
G36*
X160411911Y-98032277D02*
G01*
X160439558Y-98040664D01*
X160465042Y-98054285D01*
X160487382Y-98072618D01*
X160505715Y-98094958D01*
X160519336Y-98120442D01*
X160527723Y-98148089D01*
X160530800Y-98179332D01*
X160530800Y-98620668D01*
X160527723Y-98651911D01*
X160519336Y-98679558D01*
X160505715Y-98705042D01*
X160487382Y-98727382D01*
X160465042Y-98745715D01*
X160439558Y-98759336D01*
X160411911Y-98767723D01*
X160380668Y-98770800D01*
X159989332Y-98770800D01*
X159958089Y-98767723D01*
X159930442Y-98759336D01*
X159904958Y-98745715D01*
X159882618Y-98727382D01*
X159864285Y-98705042D01*
X159850664Y-98679558D01*
X159842277Y-98651911D01*
X159839200Y-98620668D01*
X159839200Y-98179332D01*
X159842277Y-98148089D01*
X159850664Y-98120442D01*
X159864285Y-98094958D01*
X159882618Y-98072618D01*
X159904958Y-98054285D01*
X159930442Y-98040664D01*
X159958089Y-98032277D01*
X159989332Y-98029200D01*
X160380668Y-98029200D01*
X160411911Y-98032277D01*
G37*
G36*
X159441911Y-98032277D02*
G01*
X159469558Y-98040664D01*
X159495042Y-98054285D01*
X159517382Y-98072618D01*
X159535715Y-98094958D01*
X159549336Y-98120442D01*
X159557723Y-98148089D01*
X159560800Y-98179332D01*
X159560800Y-98620668D01*
X159557723Y-98651911D01*
X159549336Y-98679558D01*
X159535715Y-98705042D01*
X159517382Y-98727382D01*
X159495042Y-98745715D01*
X159469558Y-98759336D01*
X159441911Y-98767723D01*
X159410668Y-98770800D01*
X159019332Y-98770800D01*
X158988089Y-98767723D01*
X158960442Y-98759336D01*
X158934958Y-98745715D01*
X158912618Y-98727382D01*
X158894285Y-98705042D01*
X158880664Y-98679558D01*
X158872277Y-98651911D01*
X158869200Y-98620668D01*
X158869200Y-98179332D01*
X158872277Y-98148089D01*
X158880664Y-98120442D01*
X158894285Y-98094958D01*
X158912618Y-98072618D01*
X158934958Y-98054285D01*
X158960442Y-98040664D01*
X158988089Y-98032277D01*
X159019332Y-98029200D01*
X159410668Y-98029200D01*
X159441911Y-98032277D01*
G37*
G36*
X157411911Y-98032277D02*
G01*
X157439558Y-98040664D01*
X157465042Y-98054285D01*
X157487382Y-98072618D01*
X157505715Y-98094958D01*
X157519336Y-98120442D01*
X157527723Y-98148089D01*
X157530800Y-98179332D01*
X157530800Y-98620668D01*
X157527723Y-98651911D01*
X157519336Y-98679558D01*
X157505715Y-98705042D01*
X157487382Y-98727382D01*
X157465042Y-98745715D01*
X157439558Y-98759336D01*
X157411911Y-98767723D01*
X157380668Y-98770800D01*
X156989332Y-98770800D01*
X156958089Y-98767723D01*
X156930442Y-98759336D01*
X156904958Y-98745715D01*
X156882618Y-98727382D01*
X156864285Y-98705042D01*
X156850664Y-98679558D01*
X156842277Y-98651911D01*
X156839200Y-98620668D01*
X156839200Y-98179332D01*
X156842277Y-98148089D01*
X156850664Y-98120442D01*
X156864285Y-98094958D01*
X156882618Y-98072618D01*
X156904958Y-98054285D01*
X156930442Y-98040664D01*
X156958089Y-98032277D01*
X156989332Y-98029200D01*
X157380668Y-98029200D01*
X157411911Y-98032277D01*
G37*
G36*
X156441911Y-98032277D02*
G01*
X156469558Y-98040664D01*
X156495042Y-98054285D01*
X156517382Y-98072618D01*
X156535715Y-98094958D01*
X156549336Y-98120442D01*
X156557723Y-98148089D01*
X156560800Y-98179332D01*
X156560800Y-98620668D01*
X156557723Y-98651911D01*
X156549336Y-98679558D01*
X156535715Y-98705042D01*
X156517382Y-98727382D01*
X156495042Y-98745715D01*
X156469558Y-98759336D01*
X156441911Y-98767723D01*
X156410668Y-98770800D01*
X156019332Y-98770800D01*
X155988089Y-98767723D01*
X155960442Y-98759336D01*
X155934958Y-98745715D01*
X155912618Y-98727382D01*
X155894285Y-98705042D01*
X155880664Y-98679558D01*
X155872277Y-98651911D01*
X155869200Y-98620668D01*
X155869200Y-98179332D01*
X155872277Y-98148089D01*
X155880664Y-98120442D01*
X155894285Y-98094958D01*
X155912618Y-98072618D01*
X155934958Y-98054285D01*
X155960442Y-98040664D01*
X155988089Y-98032277D01*
X156019332Y-98029200D01*
X156410668Y-98029200D01*
X156441911Y-98032277D01*
G37*
G36*
X152841911Y-98032277D02*
G01*
X152869558Y-98040664D01*
X152895042Y-98054285D01*
X152917382Y-98072618D01*
X152935715Y-98094958D01*
X152949336Y-98120442D01*
X152957723Y-98148089D01*
X152960800Y-98179332D01*
X152960800Y-98620668D01*
X152957723Y-98651911D01*
X152949336Y-98679558D01*
X152935715Y-98705042D01*
X152917382Y-98727382D01*
X152895042Y-98745715D01*
X152869558Y-98759336D01*
X152841911Y-98767723D01*
X152810668Y-98770800D01*
X152419332Y-98770800D01*
X152388089Y-98767723D01*
X152360442Y-98759336D01*
X152334958Y-98745715D01*
X152312618Y-98727382D01*
X152294285Y-98705042D01*
X152280664Y-98679558D01*
X152272277Y-98651911D01*
X152269200Y-98620668D01*
X152269200Y-98179332D01*
X152272277Y-98148089D01*
X152280664Y-98120442D01*
X152294285Y-98094958D01*
X152312618Y-98072618D01*
X152334958Y-98054285D01*
X152360442Y-98040664D01*
X152388089Y-98032277D01*
X152419332Y-98029200D01*
X152810668Y-98029200D01*
X152841911Y-98032277D01*
G37*
G36*
X153811911Y-98032277D02*
G01*
X153839558Y-98040664D01*
X153865042Y-98054285D01*
X153887382Y-98072618D01*
X153905715Y-98094958D01*
X153919336Y-98120442D01*
X153927723Y-98148089D01*
X153930800Y-98179332D01*
X153930800Y-98620668D01*
X153927723Y-98651911D01*
X153919336Y-98679558D01*
X153905715Y-98705042D01*
X153887382Y-98727382D01*
X153865042Y-98745715D01*
X153839558Y-98759336D01*
X153811911Y-98767723D01*
X153780668Y-98770800D01*
X153389332Y-98770800D01*
X153358089Y-98767723D01*
X153330442Y-98759336D01*
X153304958Y-98745715D01*
X153282618Y-98727382D01*
X153264285Y-98705042D01*
X153250664Y-98679558D01*
X153242277Y-98651911D01*
X153239200Y-98620668D01*
X153239200Y-98179332D01*
X153242277Y-98148089D01*
X153250664Y-98120442D01*
X153264285Y-98094958D01*
X153282618Y-98072618D01*
X153304958Y-98054285D01*
X153330442Y-98040664D01*
X153358089Y-98032277D01*
X153389332Y-98029200D01*
X153780668Y-98029200D01*
X153811911Y-98032277D01*
G37*
G36*
X171641911Y-98032277D02*
G01*
X171669558Y-98040664D01*
X171695042Y-98054285D01*
X171717382Y-98072618D01*
X171735715Y-98094958D01*
X171749336Y-98120442D01*
X171757723Y-98148089D01*
X171760800Y-98179332D01*
X171760800Y-98620668D01*
X171757723Y-98651911D01*
X171749336Y-98679558D01*
X171735715Y-98705042D01*
X171717382Y-98727382D01*
X171695042Y-98745715D01*
X171669558Y-98759336D01*
X171641911Y-98767723D01*
X171610668Y-98770800D01*
X171219332Y-98770800D01*
X171188089Y-98767723D01*
X171160442Y-98759336D01*
X171134958Y-98745715D01*
X171112618Y-98727382D01*
X171094285Y-98705042D01*
X171080664Y-98679558D01*
X171072277Y-98651911D01*
X171069200Y-98620668D01*
X171069200Y-98179332D01*
X171072277Y-98148089D01*
X171080664Y-98120442D01*
X171094285Y-98094958D01*
X171112618Y-98072618D01*
X171134958Y-98054285D01*
X171160442Y-98040664D01*
X171188089Y-98032277D01*
X171219332Y-98029200D01*
X171610668Y-98029200D01*
X171641911Y-98032277D01*
G37*
M02*
