G04 #@! TF.GenerationSoftware,KiCad,Pcbnew,5.1.5*
G04 #@! TF.CreationDate,2020-02-12T19:16:24+01:00*
G04 #@! TF.ProjectId,Filter_PCB_4_btob,46696c74-6572-45f5-9043-425f345f6274,rev?*
G04 #@! TF.SameCoordinates,Original*
G04 #@! TF.FileFunction,Soldermask,Bot*
G04 #@! TF.FilePolarity,Negative*
%FSLAX46Y46*%
G04 Gerber Fmt 4.6, Leading zero omitted, Abs format (unit mm)*
G04 Created by KiCad (PCBNEW 5.1.5) date 2020-02-12 19:16:24*
%MOMM*%
%LPD*%
G04 APERTURE LIST*
%ADD10C,0.100000*%
G04 APERTURE END LIST*
D10*
G36*
X182274483Y-103176261D02*
G01*
X182292207Y-103181638D01*
X182308551Y-103190374D01*
X182322873Y-103202127D01*
X182334626Y-103216449D01*
X182343362Y-103232793D01*
X182348739Y-103250517D01*
X182350800Y-103271443D01*
X182350800Y-104428557D01*
X182348739Y-104449483D01*
X182343362Y-104467207D01*
X182334626Y-104483551D01*
X182322873Y-104497873D01*
X182308551Y-104509626D01*
X182292207Y-104518362D01*
X182274483Y-104523739D01*
X182253557Y-104525800D01*
X178096443Y-104525800D01*
X178075517Y-104523739D01*
X178057793Y-104518362D01*
X178041449Y-104509626D01*
X178027127Y-104497873D01*
X178015374Y-104483551D01*
X178006638Y-104467207D01*
X178001261Y-104449483D01*
X177999200Y-104428557D01*
X177999200Y-103271443D01*
X178001261Y-103250517D01*
X178006638Y-103232793D01*
X178015374Y-103216449D01*
X178027127Y-103202127D01*
X178041449Y-103190374D01*
X178057793Y-103181638D01*
X178075517Y-103176261D01*
X178096443Y-103174200D01*
X182253557Y-103174200D01*
X182274483Y-103176261D01*
G37*
G36*
X149924483Y-103176261D02*
G01*
X149942207Y-103181638D01*
X149958551Y-103190374D01*
X149972873Y-103202127D01*
X149984626Y-103216449D01*
X149993362Y-103232793D01*
X149998739Y-103250517D01*
X150000800Y-103271443D01*
X150000800Y-104428557D01*
X149998739Y-104449483D01*
X149993362Y-104467207D01*
X149984626Y-104483551D01*
X149972873Y-104497873D01*
X149958551Y-104509626D01*
X149942207Y-104518362D01*
X149924483Y-104523739D01*
X149903557Y-104525800D01*
X145746443Y-104525800D01*
X145725517Y-104523739D01*
X145707793Y-104518362D01*
X145691449Y-104509626D01*
X145677127Y-104497873D01*
X145665374Y-104483551D01*
X145656638Y-104467207D01*
X145651261Y-104449483D01*
X145649200Y-104428557D01*
X145649200Y-103271443D01*
X145651261Y-103250517D01*
X145656638Y-103232793D01*
X145665374Y-103216449D01*
X145677127Y-103202127D01*
X145691449Y-103190374D01*
X145707793Y-103181638D01*
X145725517Y-103176261D01*
X145746443Y-103174200D01*
X149903557Y-103174200D01*
X149924483Y-103176261D01*
G37*
G36*
X158450800Y-104100800D02*
G01*
X156949200Y-104100800D01*
X156949200Y-101699200D01*
X158450800Y-101699200D01*
X158450800Y-104100800D01*
G37*
G36*
X162850800Y-104100800D02*
G01*
X161349200Y-104100800D01*
X161349200Y-101699200D01*
X162850800Y-101699200D01*
X162850800Y-104100800D01*
G37*
G36*
X168200800Y-104090800D02*
G01*
X164949200Y-104090800D01*
X164949200Y-102989200D01*
X168200800Y-102989200D01*
X168200800Y-104090800D01*
G37*
G36*
X173250800Y-104090800D02*
G01*
X169999200Y-104090800D01*
X169999200Y-102989200D01*
X173250800Y-102989200D01*
X173250800Y-104090800D01*
G37*
G36*
X173250800Y-101550800D02*
G01*
X169999200Y-101550800D01*
X169999200Y-100449200D01*
X173250800Y-100449200D01*
X173250800Y-101550800D01*
G37*
G36*
X168200800Y-101550800D02*
G01*
X164949200Y-101550800D01*
X164949200Y-100449200D01*
X168200800Y-100449200D01*
X168200800Y-101550800D01*
G37*
G36*
X162449561Y-99903646D02*
G01*
X162490574Y-99916088D01*
X162528380Y-99936295D01*
X162561513Y-99963487D01*
X162588705Y-99996620D01*
X162608912Y-100034426D01*
X162621354Y-100075439D01*
X162625800Y-100120582D01*
X162625800Y-100654418D01*
X162621354Y-100699561D01*
X162608912Y-100740574D01*
X162588705Y-100778380D01*
X162561513Y-100811513D01*
X162528380Y-100838705D01*
X162490574Y-100858912D01*
X162449561Y-100871354D01*
X162404418Y-100875800D01*
X161795582Y-100875800D01*
X161750439Y-100871354D01*
X161709426Y-100858912D01*
X161671620Y-100838705D01*
X161638487Y-100811513D01*
X161611295Y-100778380D01*
X161591088Y-100740574D01*
X161578646Y-100699561D01*
X161574200Y-100654418D01*
X161574200Y-100120582D01*
X161578646Y-100075439D01*
X161591088Y-100034426D01*
X161611295Y-99996620D01*
X161638487Y-99963487D01*
X161671620Y-99936295D01*
X161709426Y-99916088D01*
X161750439Y-99903646D01*
X161795582Y-99899200D01*
X162404418Y-99899200D01*
X162449561Y-99903646D01*
G37*
G36*
X160999561Y-99778646D02*
G01*
X161040574Y-99791088D01*
X161078380Y-99811295D01*
X161111513Y-99838487D01*
X161138705Y-99871620D01*
X161158912Y-99909426D01*
X161171354Y-99950439D01*
X161175800Y-99995582D01*
X161175800Y-100604418D01*
X161171354Y-100649561D01*
X161158912Y-100690574D01*
X161138705Y-100728380D01*
X161111513Y-100761513D01*
X161078380Y-100788705D01*
X161040574Y-100808912D01*
X160999561Y-100821354D01*
X160954418Y-100825800D01*
X160420582Y-100825800D01*
X160375439Y-100821354D01*
X160334426Y-100808912D01*
X160296620Y-100788705D01*
X160263487Y-100761513D01*
X160236295Y-100728380D01*
X160216088Y-100690574D01*
X160203646Y-100649561D01*
X160199200Y-100604418D01*
X160199200Y-99995582D01*
X160203646Y-99950439D01*
X160216088Y-99909426D01*
X160236295Y-99871620D01*
X160263487Y-99838487D01*
X160296620Y-99811295D01*
X160334426Y-99791088D01*
X160375439Y-99778646D01*
X160420582Y-99774200D01*
X160954418Y-99774200D01*
X160999561Y-99778646D01*
G37*
G36*
X159424561Y-99778646D02*
G01*
X159465574Y-99791088D01*
X159503380Y-99811295D01*
X159536513Y-99838487D01*
X159563705Y-99871620D01*
X159583912Y-99909426D01*
X159596354Y-99950439D01*
X159600800Y-99995582D01*
X159600800Y-100604418D01*
X159596354Y-100649561D01*
X159583912Y-100690574D01*
X159563705Y-100728380D01*
X159536513Y-100761513D01*
X159503380Y-100788705D01*
X159465574Y-100808912D01*
X159424561Y-100821354D01*
X159379418Y-100825800D01*
X158845582Y-100825800D01*
X158800439Y-100821354D01*
X158759426Y-100808912D01*
X158721620Y-100788705D01*
X158688487Y-100761513D01*
X158661295Y-100728380D01*
X158641088Y-100690574D01*
X158628646Y-100649561D01*
X158624200Y-100604418D01*
X158624200Y-99995582D01*
X158628646Y-99950439D01*
X158641088Y-99909426D01*
X158661295Y-99871620D01*
X158688487Y-99838487D01*
X158721620Y-99811295D01*
X158759426Y-99791088D01*
X158800439Y-99778646D01*
X158845582Y-99774200D01*
X159379418Y-99774200D01*
X159424561Y-99778646D01*
G37*
G36*
X182274483Y-98076261D02*
G01*
X182292207Y-98081638D01*
X182308551Y-98090374D01*
X182322873Y-98102127D01*
X182334626Y-98116449D01*
X182343362Y-98132793D01*
X182348739Y-98150517D01*
X182350800Y-98171443D01*
X182350800Y-99328557D01*
X182348739Y-99349483D01*
X182343362Y-99367207D01*
X182334626Y-99383551D01*
X182322873Y-99397873D01*
X182308551Y-99409626D01*
X182292207Y-99418362D01*
X182274483Y-99423739D01*
X182253557Y-99425800D01*
X178096443Y-99425800D01*
X178075517Y-99423739D01*
X178057793Y-99418362D01*
X178041449Y-99409626D01*
X178027127Y-99397873D01*
X178015374Y-99383551D01*
X178006638Y-99367207D01*
X178001261Y-99349483D01*
X177999200Y-99328557D01*
X177999200Y-98171443D01*
X178001261Y-98150517D01*
X178006638Y-98132793D01*
X178015374Y-98116449D01*
X178027127Y-98102127D01*
X178041449Y-98090374D01*
X178057793Y-98081638D01*
X178075517Y-98076261D01*
X178096443Y-98074200D01*
X182253557Y-98074200D01*
X182274483Y-98076261D01*
G37*
G36*
X160999561Y-98378646D02*
G01*
X161040574Y-98391088D01*
X161078380Y-98411295D01*
X161111513Y-98438487D01*
X161138705Y-98471620D01*
X161158912Y-98509426D01*
X161171354Y-98550439D01*
X161175800Y-98595582D01*
X161175800Y-99204418D01*
X161171354Y-99249561D01*
X161158912Y-99290574D01*
X161138705Y-99328380D01*
X161111513Y-99361513D01*
X161078380Y-99388705D01*
X161040574Y-99408912D01*
X160999561Y-99421354D01*
X160954418Y-99425800D01*
X160420582Y-99425800D01*
X160375439Y-99421354D01*
X160334426Y-99408912D01*
X160296620Y-99388705D01*
X160263487Y-99361513D01*
X160236295Y-99328380D01*
X160216088Y-99290574D01*
X160203646Y-99249561D01*
X160199200Y-99204418D01*
X160199200Y-98595582D01*
X160203646Y-98550439D01*
X160216088Y-98509426D01*
X160236295Y-98471620D01*
X160263487Y-98438487D01*
X160296620Y-98411295D01*
X160334426Y-98391088D01*
X160375439Y-98378646D01*
X160420582Y-98374200D01*
X160954418Y-98374200D01*
X160999561Y-98378646D01*
G37*
G36*
X159424561Y-98378646D02*
G01*
X159465574Y-98391088D01*
X159503380Y-98411295D01*
X159536513Y-98438487D01*
X159563705Y-98471620D01*
X159583912Y-98509426D01*
X159596354Y-98550439D01*
X159600800Y-98595582D01*
X159600800Y-99204418D01*
X159596354Y-99249561D01*
X159583912Y-99290574D01*
X159563705Y-99328380D01*
X159536513Y-99361513D01*
X159503380Y-99388705D01*
X159465574Y-99408912D01*
X159424561Y-99421354D01*
X159379418Y-99425800D01*
X158845582Y-99425800D01*
X158800439Y-99421354D01*
X158759426Y-99408912D01*
X158721620Y-99388705D01*
X158688487Y-99361513D01*
X158661295Y-99328380D01*
X158641088Y-99290574D01*
X158628646Y-99249561D01*
X158624200Y-99204418D01*
X158624200Y-98595582D01*
X158628646Y-98550439D01*
X158641088Y-98509426D01*
X158661295Y-98471620D01*
X158688487Y-98438487D01*
X158721620Y-98411295D01*
X158759426Y-98391088D01*
X158800439Y-98378646D01*
X158845582Y-98374200D01*
X159379418Y-98374200D01*
X159424561Y-98378646D01*
G37*
G36*
X149924483Y-98076261D02*
G01*
X149942207Y-98081638D01*
X149958551Y-98090374D01*
X149972873Y-98102127D01*
X149984626Y-98116449D01*
X149993362Y-98132793D01*
X149998739Y-98150517D01*
X150000800Y-98171443D01*
X150000800Y-99328557D01*
X149998739Y-99349483D01*
X149993362Y-99367207D01*
X149984626Y-99383551D01*
X149972873Y-99397873D01*
X149958551Y-99409626D01*
X149942207Y-99418362D01*
X149924483Y-99423739D01*
X149903557Y-99425800D01*
X145746443Y-99425800D01*
X145725517Y-99423739D01*
X145707793Y-99418362D01*
X145691449Y-99409626D01*
X145677127Y-99397873D01*
X145665374Y-99383551D01*
X145656638Y-99367207D01*
X145651261Y-99349483D01*
X145649200Y-99328557D01*
X145649200Y-98171443D01*
X145651261Y-98150517D01*
X145656638Y-98132793D01*
X145665374Y-98116449D01*
X145677127Y-98102127D01*
X145691449Y-98090374D01*
X145707793Y-98081638D01*
X145725517Y-98076261D01*
X145746443Y-98074200D01*
X149903557Y-98074200D01*
X149924483Y-98076261D01*
G37*
G36*
X162449561Y-98328646D02*
G01*
X162490574Y-98341088D01*
X162528380Y-98361295D01*
X162561513Y-98388487D01*
X162588705Y-98421620D01*
X162608912Y-98459426D01*
X162621354Y-98500439D01*
X162625800Y-98545582D01*
X162625800Y-99079418D01*
X162621354Y-99124561D01*
X162608912Y-99165574D01*
X162588705Y-99203380D01*
X162561513Y-99236513D01*
X162528380Y-99263705D01*
X162490574Y-99283912D01*
X162449561Y-99296354D01*
X162404418Y-99300800D01*
X161795582Y-99300800D01*
X161750439Y-99296354D01*
X161709426Y-99283912D01*
X161671620Y-99263705D01*
X161638487Y-99236513D01*
X161611295Y-99203380D01*
X161591088Y-99165574D01*
X161578646Y-99124561D01*
X161574200Y-99079418D01*
X161574200Y-98545582D01*
X161578646Y-98500439D01*
X161591088Y-98459426D01*
X161611295Y-98421620D01*
X161638487Y-98388487D01*
X161671620Y-98361295D01*
X161709426Y-98341088D01*
X161750439Y-98328646D01*
X161795582Y-98324200D01*
X162404418Y-98324200D01*
X162449561Y-98328646D01*
G37*
G36*
X173250800Y-99010800D02*
G01*
X169999200Y-99010800D01*
X169999200Y-97909200D01*
X173250800Y-97909200D01*
X173250800Y-99010800D01*
G37*
G36*
X168200800Y-99010800D02*
G01*
X164949200Y-99010800D01*
X164949200Y-97909200D01*
X168200800Y-97909200D01*
X168200800Y-99010800D01*
G37*
M02*
