G04 #@! TF.GenerationSoftware,KiCad,Pcbnew,5.1.5-52549c5~84~ubuntu16.04.1*
G04 #@! TF.CreationDate,2020-01-09T22:10:55+01:00*
G04 #@! TF.ProjectId,Filter_PCB_4,46696c74-6572-45f5-9043-425f342e6b69,rev?*
G04 #@! TF.SameCoordinates,Original*
G04 #@! TF.FileFunction,Soldermask,Bot*
G04 #@! TF.FilePolarity,Negative*
%FSLAX46Y46*%
G04 Gerber Fmt 4.6, Leading zero omitted, Abs format (unit mm)*
G04 Created by KiCad (PCBNEW 5.1.5-52549c5~84~ubuntu16.04.1) date 2020-01-09 22:10:55*
%MOMM*%
%LPD*%
G04 APERTURE LIST*
%ADD10C,0.100000*%
G04 APERTURE END LIST*
D10*
G36*
X66772549Y-50875269D02*
G01*
X66779039Y-50877238D01*
X66785021Y-50880435D01*
X66790263Y-50884737D01*
X66794565Y-50889979D01*
X66797762Y-50895961D01*
X66799731Y-50902451D01*
X66801000Y-50915338D01*
X66801000Y-52184662D01*
X66799731Y-52197549D01*
X66797762Y-52204039D01*
X66794565Y-52210021D01*
X66790263Y-52215263D01*
X66785021Y-52219565D01*
X66779039Y-52222762D01*
X66772549Y-52224731D01*
X66759662Y-52226000D01*
X62490338Y-52226000D01*
X62477451Y-52224731D01*
X62470961Y-52222762D01*
X62464979Y-52219565D01*
X62459737Y-52215263D01*
X62455435Y-52210021D01*
X62452238Y-52204039D01*
X62450269Y-52197549D01*
X62449000Y-52184662D01*
X62449000Y-50915338D01*
X62450269Y-50902451D01*
X62452238Y-50895961D01*
X62455435Y-50889979D01*
X62459737Y-50884737D01*
X62464979Y-50880435D01*
X62470961Y-50877238D01*
X62477451Y-50875269D01*
X62490338Y-50874000D01*
X66759662Y-50874000D01*
X66772549Y-50875269D01*
G37*
G36*
X76851000Y-51201000D02*
G01*
X75349000Y-51201000D01*
X75349000Y-48799000D01*
X76851000Y-48799000D01*
X76851000Y-51201000D01*
G37*
G36*
X72451000Y-51201000D02*
G01*
X70949000Y-51201000D01*
X70949000Y-48799000D01*
X72451000Y-48799000D01*
X72451000Y-51201000D01*
G37*
G36*
X82801000Y-51191000D02*
G01*
X79549000Y-51191000D01*
X79549000Y-50089000D01*
X82801000Y-50089000D01*
X82801000Y-51191000D01*
G37*
G36*
X87851000Y-51191000D02*
G01*
X84599000Y-51191000D01*
X84599000Y-50089000D01*
X87851000Y-50089000D01*
X87851000Y-51191000D01*
G37*
G36*
X94922549Y-49375269D02*
G01*
X94929039Y-49377238D01*
X94935021Y-49380435D01*
X94940263Y-49384737D01*
X94944565Y-49389979D01*
X94947762Y-49395961D01*
X94949731Y-49402451D01*
X94951000Y-49415338D01*
X94951000Y-50684662D01*
X94949731Y-50697549D01*
X94947762Y-50704039D01*
X94944565Y-50710021D01*
X94940263Y-50715263D01*
X94935021Y-50719565D01*
X94929039Y-50722762D01*
X94922549Y-50724731D01*
X94909662Y-50726000D01*
X90640338Y-50726000D01*
X90627451Y-50724731D01*
X90620961Y-50722762D01*
X90614979Y-50719565D01*
X90609737Y-50715263D01*
X90605435Y-50710021D01*
X90602238Y-50704039D01*
X90600269Y-50697549D01*
X90599000Y-50684662D01*
X90599000Y-49415338D01*
X90600269Y-49402451D01*
X90602238Y-49395961D01*
X90605435Y-49389979D01*
X90609737Y-49384737D01*
X90614979Y-49380435D01*
X90620961Y-49377238D01*
X90627451Y-49375269D01*
X90640338Y-49374000D01*
X94909662Y-49374000D01*
X94922549Y-49375269D01*
G37*
G36*
X87851000Y-48651000D02*
G01*
X84599000Y-48651000D01*
X84599000Y-47549000D01*
X87851000Y-47549000D01*
X87851000Y-48651000D01*
G37*
G36*
X82801000Y-48651000D02*
G01*
X79549000Y-48651000D01*
X79549000Y-47549000D01*
X82801000Y-47549000D01*
X82801000Y-48651000D01*
G37*
G36*
X73454591Y-46878085D02*
G01*
X73488569Y-46888393D01*
X73519890Y-46905134D01*
X73547339Y-46927661D01*
X73569866Y-46955110D01*
X73586607Y-46986431D01*
X73596915Y-47020409D01*
X73601000Y-47061890D01*
X73601000Y-47738110D01*
X73596915Y-47779591D01*
X73586607Y-47813569D01*
X73569866Y-47844890D01*
X73547339Y-47872339D01*
X73519890Y-47894866D01*
X73488569Y-47911607D01*
X73454591Y-47921915D01*
X73413110Y-47926000D01*
X72811890Y-47926000D01*
X72770409Y-47921915D01*
X72736431Y-47911607D01*
X72705110Y-47894866D01*
X72677661Y-47872339D01*
X72655134Y-47844890D01*
X72638393Y-47813569D01*
X72628085Y-47779591D01*
X72624000Y-47738110D01*
X72624000Y-47061890D01*
X72628085Y-47020409D01*
X72638393Y-46986431D01*
X72655134Y-46955110D01*
X72677661Y-46927661D01*
X72705110Y-46905134D01*
X72736431Y-46888393D01*
X72770409Y-46878085D01*
X72811890Y-46874000D01*
X73413110Y-46874000D01*
X73454591Y-46878085D01*
G37*
G36*
X75029591Y-46878085D02*
G01*
X75063569Y-46888393D01*
X75094890Y-46905134D01*
X75122339Y-46927661D01*
X75144866Y-46955110D01*
X75161607Y-46986431D01*
X75171915Y-47020409D01*
X75176000Y-47061890D01*
X75176000Y-47738110D01*
X75171915Y-47779591D01*
X75161607Y-47813569D01*
X75144866Y-47844890D01*
X75122339Y-47872339D01*
X75094890Y-47894866D01*
X75063569Y-47911607D01*
X75029591Y-47921915D01*
X74988110Y-47926000D01*
X74386890Y-47926000D01*
X74345409Y-47921915D01*
X74311431Y-47911607D01*
X74280110Y-47894866D01*
X74252661Y-47872339D01*
X74230134Y-47844890D01*
X74213393Y-47813569D01*
X74203085Y-47779591D01*
X74199000Y-47738110D01*
X74199000Y-47061890D01*
X74203085Y-47020409D01*
X74213393Y-46986431D01*
X74230134Y-46955110D01*
X74252661Y-46927661D01*
X74280110Y-46905134D01*
X74311431Y-46888393D01*
X74345409Y-46878085D01*
X74386890Y-46874000D01*
X74988110Y-46874000D01*
X75029591Y-46878085D01*
G37*
G36*
X76579591Y-46903085D02*
G01*
X76613569Y-46913393D01*
X76644890Y-46930134D01*
X76672339Y-46952661D01*
X76694866Y-46980110D01*
X76711607Y-47011431D01*
X76721915Y-47045409D01*
X76726000Y-47086890D01*
X76726000Y-47688110D01*
X76721915Y-47729591D01*
X76711607Y-47763569D01*
X76694866Y-47794890D01*
X76672339Y-47822339D01*
X76644890Y-47844866D01*
X76613569Y-47861607D01*
X76579591Y-47871915D01*
X76538110Y-47876000D01*
X75861890Y-47876000D01*
X75820409Y-47871915D01*
X75786431Y-47861607D01*
X75755110Y-47844866D01*
X75727661Y-47822339D01*
X75705134Y-47794890D01*
X75688393Y-47763569D01*
X75678085Y-47729591D01*
X75674000Y-47688110D01*
X75674000Y-47086890D01*
X75678085Y-47045409D01*
X75688393Y-47011431D01*
X75705134Y-46980110D01*
X75727661Y-46952661D01*
X75755110Y-46930134D01*
X75786431Y-46913393D01*
X75820409Y-46903085D01*
X75861890Y-46899000D01*
X76538110Y-46899000D01*
X76579591Y-46903085D01*
G37*
G36*
X66772549Y-45775269D02*
G01*
X66779039Y-45777238D01*
X66785021Y-45780435D01*
X66790263Y-45784737D01*
X66794565Y-45789979D01*
X66797762Y-45795961D01*
X66799731Y-45802451D01*
X66801000Y-45815338D01*
X66801000Y-47084662D01*
X66799731Y-47097549D01*
X66797762Y-47104039D01*
X66794565Y-47110021D01*
X66790263Y-47115263D01*
X66785021Y-47119565D01*
X66779039Y-47122762D01*
X66772549Y-47124731D01*
X66759662Y-47126000D01*
X62490338Y-47126000D01*
X62477451Y-47124731D01*
X62470961Y-47122762D01*
X62464979Y-47119565D01*
X62459737Y-47115263D01*
X62455435Y-47110021D01*
X62452238Y-47104039D01*
X62450269Y-47097549D01*
X62449000Y-47084662D01*
X62449000Y-45815338D01*
X62450269Y-45802451D01*
X62452238Y-45795961D01*
X62455435Y-45789979D01*
X62459737Y-45784737D01*
X62464979Y-45780435D01*
X62470961Y-45777238D01*
X62477451Y-45775269D01*
X62490338Y-45774000D01*
X66759662Y-45774000D01*
X66772549Y-45775269D01*
G37*
G36*
X73454591Y-45278085D02*
G01*
X73488569Y-45288393D01*
X73519890Y-45305134D01*
X73547339Y-45327661D01*
X73569866Y-45355110D01*
X73586607Y-45386431D01*
X73596915Y-45420409D01*
X73601000Y-45461890D01*
X73601000Y-46138110D01*
X73596915Y-46179591D01*
X73586607Y-46213569D01*
X73569866Y-46244890D01*
X73547339Y-46272339D01*
X73519890Y-46294866D01*
X73488569Y-46311607D01*
X73454591Y-46321915D01*
X73413110Y-46326000D01*
X72811890Y-46326000D01*
X72770409Y-46321915D01*
X72736431Y-46311607D01*
X72705110Y-46294866D01*
X72677661Y-46272339D01*
X72655134Y-46244890D01*
X72638393Y-46213569D01*
X72628085Y-46179591D01*
X72624000Y-46138110D01*
X72624000Y-45461890D01*
X72628085Y-45420409D01*
X72638393Y-45386431D01*
X72655134Y-45355110D01*
X72677661Y-45327661D01*
X72705110Y-45305134D01*
X72736431Y-45288393D01*
X72770409Y-45278085D01*
X72811890Y-45274000D01*
X73413110Y-45274000D01*
X73454591Y-45278085D01*
G37*
G36*
X75029591Y-45278085D02*
G01*
X75063569Y-45288393D01*
X75094890Y-45305134D01*
X75122339Y-45327661D01*
X75144866Y-45355110D01*
X75161607Y-45386431D01*
X75171915Y-45420409D01*
X75176000Y-45461890D01*
X75176000Y-46138110D01*
X75171915Y-46179591D01*
X75161607Y-46213569D01*
X75144866Y-46244890D01*
X75122339Y-46272339D01*
X75094890Y-46294866D01*
X75063569Y-46311607D01*
X75029591Y-46321915D01*
X74988110Y-46326000D01*
X74386890Y-46326000D01*
X74345409Y-46321915D01*
X74311431Y-46311607D01*
X74280110Y-46294866D01*
X74252661Y-46272339D01*
X74230134Y-46244890D01*
X74213393Y-46213569D01*
X74203085Y-46179591D01*
X74199000Y-46138110D01*
X74199000Y-45461890D01*
X74203085Y-45420409D01*
X74213393Y-45386431D01*
X74230134Y-45355110D01*
X74252661Y-45327661D01*
X74280110Y-45305134D01*
X74311431Y-45288393D01*
X74345409Y-45278085D01*
X74386890Y-45274000D01*
X74988110Y-45274000D01*
X75029591Y-45278085D01*
G37*
G36*
X76579591Y-45328085D02*
G01*
X76613569Y-45338393D01*
X76644890Y-45355134D01*
X76672339Y-45377661D01*
X76694866Y-45405110D01*
X76711607Y-45436431D01*
X76721915Y-45470409D01*
X76726000Y-45511890D01*
X76726000Y-46113110D01*
X76721915Y-46154591D01*
X76711607Y-46188569D01*
X76694866Y-46219890D01*
X76672339Y-46247339D01*
X76644890Y-46269866D01*
X76613569Y-46286607D01*
X76579591Y-46296915D01*
X76538110Y-46301000D01*
X75861890Y-46301000D01*
X75820409Y-46296915D01*
X75786431Y-46286607D01*
X75755110Y-46269866D01*
X75727661Y-46247339D01*
X75705134Y-46219890D01*
X75688393Y-46188569D01*
X75678085Y-46154591D01*
X75674000Y-46113110D01*
X75674000Y-45511890D01*
X75678085Y-45470409D01*
X75688393Y-45436431D01*
X75705134Y-45405110D01*
X75727661Y-45377661D01*
X75755110Y-45355134D01*
X75786431Y-45338393D01*
X75820409Y-45328085D01*
X75861890Y-45324000D01*
X76538110Y-45324000D01*
X76579591Y-45328085D01*
G37*
G36*
X82801000Y-46111000D02*
G01*
X79549000Y-46111000D01*
X79549000Y-45009000D01*
X82801000Y-45009000D01*
X82801000Y-46111000D01*
G37*
G36*
X87851000Y-46111000D02*
G01*
X84599000Y-46111000D01*
X84599000Y-45009000D01*
X87851000Y-45009000D01*
X87851000Y-46111000D01*
G37*
G36*
X94922549Y-44275269D02*
G01*
X94929039Y-44277238D01*
X94935021Y-44280435D01*
X94940263Y-44284737D01*
X94944565Y-44289979D01*
X94947762Y-44295961D01*
X94949731Y-44302451D01*
X94951000Y-44315338D01*
X94951000Y-45584662D01*
X94949731Y-45597549D01*
X94947762Y-45604039D01*
X94944565Y-45610021D01*
X94940263Y-45615263D01*
X94935021Y-45619565D01*
X94929039Y-45622762D01*
X94922549Y-45624731D01*
X94909662Y-45626000D01*
X90640338Y-45626000D01*
X90627451Y-45624731D01*
X90620961Y-45622762D01*
X90614979Y-45619565D01*
X90609737Y-45615263D01*
X90605435Y-45610021D01*
X90602238Y-45604039D01*
X90600269Y-45597549D01*
X90599000Y-45584662D01*
X90599000Y-44315338D01*
X90600269Y-44302451D01*
X90602238Y-44295961D01*
X90605435Y-44289979D01*
X90609737Y-44284737D01*
X90614979Y-44280435D01*
X90620961Y-44277238D01*
X90627451Y-44275269D01*
X90640338Y-44274000D01*
X94909662Y-44274000D01*
X94922549Y-44275269D01*
G37*
M02*
