G04 #@! TF.GenerationSoftware,KiCad,Pcbnew,5.1.5-52549c5~84~ubuntu16.04.1*
G04 #@! TF.CreationDate,2020-01-09T22:10:55+01:00*
G04 #@! TF.ProjectId,Filter_PCB_4,46696c74-6572-45f5-9043-425f342e6b69,rev?*
G04 #@! TF.SameCoordinates,Original*
G04 #@! TF.FileFunction,Legend,Top*
G04 #@! TF.FilePolarity,Positive*
%FSLAX46Y46*%
G04 Gerber Fmt 4.6, Leading zero omitted, Abs format (unit mm)*
G04 Created by KiCad (PCBNEW 5.1.5-52549c5~84~ubuntu16.04.1) date 2020-01-09 22:10:55*
%MOMM*%
%LPD*%
G04 APERTURE LIST*
%ADD10C,0.120000*%
%ADD11C,0.100000*%
G04 APERTURE END LIST*
D10*
X87037221Y-44390000D02*
X87362779Y-44390000D01*
X87037221Y-45410000D02*
X87362779Y-45410000D01*
X85062779Y-52110000D02*
X84737221Y-52110000D01*
X85062779Y-51090000D02*
X84737221Y-51090000D01*
X83937221Y-44390000D02*
X84262779Y-44390000D01*
X83937221Y-45410000D02*
X84262779Y-45410000D01*
X80837221Y-44390000D02*
X81162779Y-44390000D01*
X80837221Y-45410000D02*
X81162779Y-45410000D01*
X78862779Y-51090000D02*
X78537221Y-51090000D01*
X78862779Y-52110000D02*
X78537221Y-52110000D01*
X77737221Y-45410000D02*
X78062779Y-45410000D01*
X77737221Y-44390000D02*
X78062779Y-44390000D01*
X74637221Y-45410000D02*
X74962779Y-45410000D01*
X74637221Y-44390000D02*
X74962779Y-44390000D01*
X72662779Y-51090000D02*
X72337221Y-51090000D01*
X72662779Y-52110000D02*
X72337221Y-52110000D01*
X71537221Y-45410000D02*
X71862779Y-45410000D01*
X71537221Y-44390000D02*
X71862779Y-44390000D01*
X68437221Y-45410000D02*
X68762779Y-45410000D01*
X68437221Y-44390000D02*
X68762779Y-44390000D01*
X84037221Y-49510000D02*
X84362779Y-49510000D01*
X84037221Y-48490000D02*
X84362779Y-48490000D01*
X77837221Y-48490000D02*
X78162779Y-48490000D01*
X77837221Y-49510000D02*
X78162779Y-49510000D01*
X71637221Y-48490000D02*
X71962779Y-48490000D01*
X71637221Y-49510000D02*
X71962779Y-49510000D01*
X88600000Y-49850000D02*
X87400000Y-49850000D01*
X88600000Y-51700000D02*
X88600000Y-49850000D01*
X87400000Y-51700000D02*
X87400000Y-49850000D01*
X84550000Y-46900000D02*
X84550000Y-48100000D01*
X86400000Y-46900000D02*
X84550000Y-46900000D01*
X86400000Y-48100000D02*
X84550000Y-48100000D01*
X82400000Y-49850000D02*
X81200000Y-49850000D01*
X82400000Y-51700000D02*
X82400000Y-49850000D01*
X81200000Y-51700000D02*
X81200000Y-49850000D01*
X78350000Y-46900000D02*
X78350000Y-48100000D01*
X80200000Y-46900000D02*
X78350000Y-46900000D01*
X80200000Y-48100000D02*
X78350000Y-48100000D01*
X75000000Y-51700000D02*
X75000000Y-49850000D01*
X76200000Y-51700000D02*
X76200000Y-49850000D01*
X76200000Y-49850000D02*
X75000000Y-49850000D01*
X72150000Y-46900000D02*
X72150000Y-48100000D01*
X74000000Y-46900000D02*
X72150000Y-46900000D01*
X74000000Y-48100000D02*
X72150000Y-48100000D01*
X68800000Y-51700000D02*
X68800000Y-49850000D01*
X70000000Y-51700000D02*
X70000000Y-49850000D01*
X70000000Y-49850000D02*
X68800000Y-49850000D01*
X88637221Y-46990000D02*
X88962779Y-46990000D01*
X88637221Y-48010000D02*
X88962779Y-48010000D01*
X87037221Y-48490000D02*
X87362779Y-48490000D01*
X87037221Y-49510000D02*
X87362779Y-49510000D01*
X82437221Y-48010000D02*
X82762779Y-48010000D01*
X82437221Y-46990000D02*
X82762779Y-46990000D01*
X80837221Y-49510000D02*
X81162779Y-49510000D01*
X80837221Y-48490000D02*
X81162779Y-48490000D01*
X76237221Y-48010000D02*
X76562779Y-48010000D01*
X76237221Y-46990000D02*
X76562779Y-46990000D01*
X74637221Y-49510000D02*
X74962779Y-49510000D01*
X74637221Y-48490000D02*
X74962779Y-48490000D01*
X68437221Y-49510000D02*
X68762779Y-49510000D01*
X68437221Y-48490000D02*
X68762779Y-48490000D01*
X70037221Y-48010000D02*
X70362779Y-48010000D01*
X70037221Y-46990000D02*
X70362779Y-46990000D01*
D11*
X86814285Y-46271428D02*
X86614285Y-45985714D01*
X86471428Y-46271428D02*
X86471428Y-45671428D01*
X86700000Y-45671428D01*
X86757142Y-45700000D01*
X86785714Y-45728571D01*
X86814285Y-45785714D01*
X86814285Y-45871428D01*
X86785714Y-45928571D01*
X86757142Y-45957142D01*
X86700000Y-45985714D01*
X86471428Y-45985714D01*
X87385714Y-46271428D02*
X87042857Y-46271428D01*
X87214285Y-46271428D02*
X87214285Y-45671428D01*
X87157142Y-45757142D01*
X87100000Y-45814285D01*
X87042857Y-45842857D01*
X87757142Y-45671428D02*
X87814285Y-45671428D01*
X87871428Y-45700000D01*
X87900000Y-45728571D01*
X87928571Y-45785714D01*
X87957142Y-45900000D01*
X87957142Y-46042857D01*
X87928571Y-46157142D01*
X87900000Y-46214285D01*
X87871428Y-46242857D01*
X87814285Y-46271428D01*
X87757142Y-46271428D01*
X87700000Y-46242857D01*
X87671428Y-46214285D01*
X87642857Y-46157142D01*
X87614285Y-46042857D01*
X87614285Y-45900000D01*
X87642857Y-45785714D01*
X87671428Y-45728571D01*
X87700000Y-45700000D01*
X87757142Y-45671428D01*
X85771428Y-50400000D02*
X85485714Y-50600000D01*
X85771428Y-50742857D02*
X85171428Y-50742857D01*
X85171428Y-50514285D01*
X85200000Y-50457142D01*
X85228571Y-50428571D01*
X85285714Y-50400000D01*
X85371428Y-50400000D01*
X85428571Y-50428571D01*
X85457142Y-50457142D01*
X85485714Y-50514285D01*
X85485714Y-50742857D01*
X85771428Y-50114285D02*
X85771428Y-50000000D01*
X85742857Y-49942857D01*
X85714285Y-49914285D01*
X85628571Y-49857142D01*
X85514285Y-49828571D01*
X85285714Y-49828571D01*
X85228571Y-49857142D01*
X85200000Y-49885714D01*
X85171428Y-49942857D01*
X85171428Y-50057142D01*
X85200000Y-50114285D01*
X85228571Y-50142857D01*
X85285714Y-50171428D01*
X85428571Y-50171428D01*
X85485714Y-50142857D01*
X85514285Y-50114285D01*
X85542857Y-50057142D01*
X85542857Y-49942857D01*
X85514285Y-49885714D01*
X85485714Y-49857142D01*
X85428571Y-49828571D01*
X84000000Y-46271428D02*
X83800000Y-45985714D01*
X83657142Y-46271428D02*
X83657142Y-45671428D01*
X83885714Y-45671428D01*
X83942857Y-45700000D01*
X83971428Y-45728571D01*
X84000000Y-45785714D01*
X84000000Y-45871428D01*
X83971428Y-45928571D01*
X83942857Y-45957142D01*
X83885714Y-45985714D01*
X83657142Y-45985714D01*
X84342857Y-45928571D02*
X84285714Y-45900000D01*
X84257142Y-45871428D01*
X84228571Y-45814285D01*
X84228571Y-45785714D01*
X84257142Y-45728571D01*
X84285714Y-45700000D01*
X84342857Y-45671428D01*
X84457142Y-45671428D01*
X84514285Y-45700000D01*
X84542857Y-45728571D01*
X84571428Y-45785714D01*
X84571428Y-45814285D01*
X84542857Y-45871428D01*
X84514285Y-45900000D01*
X84457142Y-45928571D01*
X84342857Y-45928571D01*
X84285714Y-45957142D01*
X84257142Y-45985714D01*
X84228571Y-46042857D01*
X84228571Y-46157142D01*
X84257142Y-46214285D01*
X84285714Y-46242857D01*
X84342857Y-46271428D01*
X84457142Y-46271428D01*
X84514285Y-46242857D01*
X84542857Y-46214285D01*
X84571428Y-46157142D01*
X84571428Y-46042857D01*
X84542857Y-45985714D01*
X84514285Y-45957142D01*
X84457142Y-45928571D01*
X80900000Y-46271428D02*
X80700000Y-45985714D01*
X80557142Y-46271428D02*
X80557142Y-45671428D01*
X80785714Y-45671428D01*
X80842857Y-45700000D01*
X80871428Y-45728571D01*
X80900000Y-45785714D01*
X80900000Y-45871428D01*
X80871428Y-45928571D01*
X80842857Y-45957142D01*
X80785714Y-45985714D01*
X80557142Y-45985714D01*
X81100000Y-45671428D02*
X81500000Y-45671428D01*
X81242857Y-46271428D01*
X79571428Y-50400000D02*
X79285714Y-50600000D01*
X79571428Y-50742857D02*
X78971428Y-50742857D01*
X78971428Y-50514285D01*
X79000000Y-50457142D01*
X79028571Y-50428571D01*
X79085714Y-50400000D01*
X79171428Y-50400000D01*
X79228571Y-50428571D01*
X79257142Y-50457142D01*
X79285714Y-50514285D01*
X79285714Y-50742857D01*
X78971428Y-49885714D02*
X78971428Y-50000000D01*
X79000000Y-50057142D01*
X79028571Y-50085714D01*
X79114285Y-50142857D01*
X79228571Y-50171428D01*
X79457142Y-50171428D01*
X79514285Y-50142857D01*
X79542857Y-50114285D01*
X79571428Y-50057142D01*
X79571428Y-49942857D01*
X79542857Y-49885714D01*
X79514285Y-49857142D01*
X79457142Y-49828571D01*
X79314285Y-49828571D01*
X79257142Y-49857142D01*
X79228571Y-49885714D01*
X79200000Y-49942857D01*
X79200000Y-50057142D01*
X79228571Y-50114285D01*
X79257142Y-50142857D01*
X79314285Y-50171428D01*
X77800000Y-46271428D02*
X77600000Y-45985714D01*
X77457142Y-46271428D02*
X77457142Y-45671428D01*
X77685714Y-45671428D01*
X77742857Y-45700000D01*
X77771428Y-45728571D01*
X77800000Y-45785714D01*
X77800000Y-45871428D01*
X77771428Y-45928571D01*
X77742857Y-45957142D01*
X77685714Y-45985714D01*
X77457142Y-45985714D01*
X78342857Y-45671428D02*
X78057142Y-45671428D01*
X78028571Y-45957142D01*
X78057142Y-45928571D01*
X78114285Y-45900000D01*
X78257142Y-45900000D01*
X78314285Y-45928571D01*
X78342857Y-45957142D01*
X78371428Y-46014285D01*
X78371428Y-46157142D01*
X78342857Y-46214285D01*
X78314285Y-46242857D01*
X78257142Y-46271428D01*
X78114285Y-46271428D01*
X78057142Y-46242857D01*
X78028571Y-46214285D01*
X74700000Y-46271428D02*
X74500000Y-45985714D01*
X74357142Y-46271428D02*
X74357142Y-45671428D01*
X74585714Y-45671428D01*
X74642857Y-45700000D01*
X74671428Y-45728571D01*
X74700000Y-45785714D01*
X74700000Y-45871428D01*
X74671428Y-45928571D01*
X74642857Y-45957142D01*
X74585714Y-45985714D01*
X74357142Y-45985714D01*
X75214285Y-45871428D02*
X75214285Y-46271428D01*
X75071428Y-45642857D02*
X74928571Y-46071428D01*
X75300000Y-46071428D01*
X73171428Y-50400000D02*
X72885714Y-50600000D01*
X73171428Y-50742857D02*
X72571428Y-50742857D01*
X72571428Y-50514285D01*
X72600000Y-50457142D01*
X72628571Y-50428571D01*
X72685714Y-50400000D01*
X72771428Y-50400000D01*
X72828571Y-50428571D01*
X72857142Y-50457142D01*
X72885714Y-50514285D01*
X72885714Y-50742857D01*
X72571428Y-50200000D02*
X72571428Y-49828571D01*
X72800000Y-50028571D01*
X72800000Y-49942857D01*
X72828571Y-49885714D01*
X72857142Y-49857142D01*
X72914285Y-49828571D01*
X73057142Y-49828571D01*
X73114285Y-49857142D01*
X73142857Y-49885714D01*
X73171428Y-49942857D01*
X73171428Y-50114285D01*
X73142857Y-50171428D01*
X73114285Y-50200000D01*
X71600000Y-46271428D02*
X71400000Y-45985714D01*
X71257142Y-46271428D02*
X71257142Y-45671428D01*
X71485714Y-45671428D01*
X71542857Y-45700000D01*
X71571428Y-45728571D01*
X71600000Y-45785714D01*
X71600000Y-45871428D01*
X71571428Y-45928571D01*
X71542857Y-45957142D01*
X71485714Y-45985714D01*
X71257142Y-45985714D01*
X71828571Y-45728571D02*
X71857142Y-45700000D01*
X71914285Y-45671428D01*
X72057142Y-45671428D01*
X72114285Y-45700000D01*
X72142857Y-45728571D01*
X72171428Y-45785714D01*
X72171428Y-45842857D01*
X72142857Y-45928571D01*
X71800000Y-46271428D01*
X72171428Y-46271428D01*
X68500000Y-46271428D02*
X68300000Y-45985714D01*
X68157142Y-46271428D02*
X68157142Y-45671428D01*
X68385714Y-45671428D01*
X68442857Y-45700000D01*
X68471428Y-45728571D01*
X68500000Y-45785714D01*
X68500000Y-45871428D01*
X68471428Y-45928571D01*
X68442857Y-45957142D01*
X68385714Y-45985714D01*
X68157142Y-45985714D01*
X69071428Y-46271428D02*
X68728571Y-46271428D01*
X68900000Y-46271428D02*
X68900000Y-45671428D01*
X68842857Y-45757142D01*
X68785714Y-45814285D01*
X68728571Y-45842857D01*
X84471428Y-50400000D02*
X84471428Y-50685714D01*
X83871428Y-50685714D01*
X83871428Y-50257142D02*
X83871428Y-49885714D01*
X84100000Y-50085714D01*
X84100000Y-50000000D01*
X84128571Y-49942857D01*
X84157142Y-49914285D01*
X84214285Y-49885714D01*
X84357142Y-49885714D01*
X84414285Y-49914285D01*
X84442857Y-49942857D01*
X84471428Y-50000000D01*
X84471428Y-50171428D01*
X84442857Y-50228571D01*
X84414285Y-50257142D01*
X78271428Y-50400000D02*
X78271428Y-50685714D01*
X77671428Y-50685714D01*
X77728571Y-50228571D02*
X77700000Y-50200000D01*
X77671428Y-50142857D01*
X77671428Y-50000000D01*
X77700000Y-49942857D01*
X77728571Y-49914285D01*
X77785714Y-49885714D01*
X77842857Y-49885714D01*
X77928571Y-49914285D01*
X78271428Y-50257142D01*
X78271428Y-49885714D01*
X72071428Y-50400000D02*
X72071428Y-50685714D01*
X71471428Y-50685714D01*
X72071428Y-49885714D02*
X72071428Y-50228571D01*
X72071428Y-50057142D02*
X71471428Y-50057142D01*
X71557142Y-50114285D01*
X71614285Y-50171428D01*
X71642857Y-50228571D01*
X89471428Y-51042857D02*
X88871428Y-51042857D01*
X88871428Y-50900000D01*
X88900000Y-50814285D01*
X88957142Y-50757142D01*
X89014285Y-50728571D01*
X89128571Y-50700000D01*
X89214285Y-50700000D01*
X89328571Y-50728571D01*
X89385714Y-50757142D01*
X89442857Y-50814285D01*
X89471428Y-50900000D01*
X89471428Y-51042857D01*
X88871428Y-50500000D02*
X88871428Y-50100000D01*
X89471428Y-50357142D01*
X85257142Y-46671428D02*
X85257142Y-46071428D01*
X85400000Y-46071428D01*
X85485714Y-46100000D01*
X85542857Y-46157142D01*
X85571428Y-46214285D01*
X85600000Y-46328571D01*
X85600000Y-46414285D01*
X85571428Y-46528571D01*
X85542857Y-46585714D01*
X85485714Y-46642857D01*
X85400000Y-46671428D01*
X85257142Y-46671428D01*
X86114285Y-46071428D02*
X86000000Y-46071428D01*
X85942857Y-46100000D01*
X85914285Y-46128571D01*
X85857142Y-46214285D01*
X85828571Y-46328571D01*
X85828571Y-46557142D01*
X85857142Y-46614285D01*
X85885714Y-46642857D01*
X85942857Y-46671428D01*
X86057142Y-46671428D01*
X86114285Y-46642857D01*
X86142857Y-46614285D01*
X86171428Y-46557142D01*
X86171428Y-46414285D01*
X86142857Y-46357142D01*
X86114285Y-46328571D01*
X86057142Y-46300000D01*
X85942857Y-46300000D01*
X85885714Y-46328571D01*
X85857142Y-46357142D01*
X85828571Y-46414285D01*
X83271428Y-51042857D02*
X82671428Y-51042857D01*
X82671428Y-50900000D01*
X82700000Y-50814285D01*
X82757142Y-50757142D01*
X82814285Y-50728571D01*
X82928571Y-50700000D01*
X83014285Y-50700000D01*
X83128571Y-50728571D01*
X83185714Y-50757142D01*
X83242857Y-50814285D01*
X83271428Y-50900000D01*
X83271428Y-51042857D01*
X82671428Y-50157142D02*
X82671428Y-50442857D01*
X82957142Y-50471428D01*
X82928571Y-50442857D01*
X82900000Y-50385714D01*
X82900000Y-50242857D01*
X82928571Y-50185714D01*
X82957142Y-50157142D01*
X83014285Y-50128571D01*
X83157142Y-50128571D01*
X83214285Y-50157142D01*
X83242857Y-50185714D01*
X83271428Y-50242857D01*
X83271428Y-50385714D01*
X83242857Y-50442857D01*
X83214285Y-50471428D01*
X79057142Y-46671428D02*
X79057142Y-46071428D01*
X79200000Y-46071428D01*
X79285714Y-46100000D01*
X79342857Y-46157142D01*
X79371428Y-46214285D01*
X79400000Y-46328571D01*
X79400000Y-46414285D01*
X79371428Y-46528571D01*
X79342857Y-46585714D01*
X79285714Y-46642857D01*
X79200000Y-46671428D01*
X79057142Y-46671428D01*
X79914285Y-46271428D02*
X79914285Y-46671428D01*
X79771428Y-46042857D02*
X79628571Y-46471428D01*
X80000000Y-46471428D01*
X77071428Y-51042857D02*
X76471428Y-51042857D01*
X76471428Y-50900000D01*
X76500000Y-50814285D01*
X76557142Y-50757142D01*
X76614285Y-50728571D01*
X76728571Y-50700000D01*
X76814285Y-50700000D01*
X76928571Y-50728571D01*
X76985714Y-50757142D01*
X77042857Y-50814285D01*
X77071428Y-50900000D01*
X77071428Y-51042857D01*
X76471428Y-50500000D02*
X76471428Y-50128571D01*
X76700000Y-50328571D01*
X76700000Y-50242857D01*
X76728571Y-50185714D01*
X76757142Y-50157142D01*
X76814285Y-50128571D01*
X76957142Y-50128571D01*
X77014285Y-50157142D01*
X77042857Y-50185714D01*
X77071428Y-50242857D01*
X77071428Y-50414285D01*
X77042857Y-50471428D01*
X77014285Y-50500000D01*
X72857142Y-46671428D02*
X72857142Y-46071428D01*
X73000000Y-46071428D01*
X73085714Y-46100000D01*
X73142857Y-46157142D01*
X73171428Y-46214285D01*
X73200000Y-46328571D01*
X73200000Y-46414285D01*
X73171428Y-46528571D01*
X73142857Y-46585714D01*
X73085714Y-46642857D01*
X73000000Y-46671428D01*
X72857142Y-46671428D01*
X73428571Y-46128571D02*
X73457142Y-46100000D01*
X73514285Y-46071428D01*
X73657142Y-46071428D01*
X73714285Y-46100000D01*
X73742857Y-46128571D01*
X73771428Y-46185714D01*
X73771428Y-46242857D01*
X73742857Y-46328571D01*
X73400000Y-46671428D01*
X73771428Y-46671428D01*
X70871428Y-51042857D02*
X70271428Y-51042857D01*
X70271428Y-50900000D01*
X70300000Y-50814285D01*
X70357142Y-50757142D01*
X70414285Y-50728571D01*
X70528571Y-50700000D01*
X70614285Y-50700000D01*
X70728571Y-50728571D01*
X70785714Y-50757142D01*
X70842857Y-50814285D01*
X70871428Y-50900000D01*
X70871428Y-51042857D01*
X70871428Y-50128571D02*
X70871428Y-50471428D01*
X70871428Y-50300000D02*
X70271428Y-50300000D01*
X70357142Y-50357142D01*
X70414285Y-50414285D01*
X70442857Y-50471428D01*
X88700000Y-46614285D02*
X88671428Y-46642857D01*
X88585714Y-46671428D01*
X88528571Y-46671428D01*
X88442857Y-46642857D01*
X88385714Y-46585714D01*
X88357142Y-46528571D01*
X88328571Y-46414285D01*
X88328571Y-46328571D01*
X88357142Y-46214285D01*
X88385714Y-46157142D01*
X88442857Y-46100000D01*
X88528571Y-46071428D01*
X88585714Y-46071428D01*
X88671428Y-46100000D01*
X88700000Y-46128571D01*
X89042857Y-46328571D02*
X88985714Y-46300000D01*
X88957142Y-46271428D01*
X88928571Y-46214285D01*
X88928571Y-46185714D01*
X88957142Y-46128571D01*
X88985714Y-46100000D01*
X89042857Y-46071428D01*
X89157142Y-46071428D01*
X89214285Y-46100000D01*
X89242857Y-46128571D01*
X89271428Y-46185714D01*
X89271428Y-46214285D01*
X89242857Y-46271428D01*
X89214285Y-46300000D01*
X89157142Y-46328571D01*
X89042857Y-46328571D01*
X88985714Y-46357142D01*
X88957142Y-46385714D01*
X88928571Y-46442857D01*
X88928571Y-46557142D01*
X88957142Y-46614285D01*
X88985714Y-46642857D01*
X89042857Y-46671428D01*
X89157142Y-46671428D01*
X89214285Y-46642857D01*
X89242857Y-46614285D01*
X89271428Y-46557142D01*
X89271428Y-46442857D01*
X89242857Y-46385714D01*
X89214285Y-46357142D01*
X89157142Y-46328571D01*
X86914285Y-50400000D02*
X86942857Y-50428571D01*
X86971428Y-50514285D01*
X86971428Y-50571428D01*
X86942857Y-50657142D01*
X86885714Y-50714285D01*
X86828571Y-50742857D01*
X86714285Y-50771428D01*
X86628571Y-50771428D01*
X86514285Y-50742857D01*
X86457142Y-50714285D01*
X86400000Y-50657142D01*
X86371428Y-50571428D01*
X86371428Y-50514285D01*
X86400000Y-50428571D01*
X86428571Y-50400000D01*
X86371428Y-50200000D02*
X86371428Y-49800000D01*
X86971428Y-50057142D01*
X82500000Y-46614285D02*
X82471428Y-46642857D01*
X82385714Y-46671428D01*
X82328571Y-46671428D01*
X82242857Y-46642857D01*
X82185714Y-46585714D01*
X82157142Y-46528571D01*
X82128571Y-46414285D01*
X82128571Y-46328571D01*
X82157142Y-46214285D01*
X82185714Y-46157142D01*
X82242857Y-46100000D01*
X82328571Y-46071428D01*
X82385714Y-46071428D01*
X82471428Y-46100000D01*
X82500000Y-46128571D01*
X83014285Y-46071428D02*
X82900000Y-46071428D01*
X82842857Y-46100000D01*
X82814285Y-46128571D01*
X82757142Y-46214285D01*
X82728571Y-46328571D01*
X82728571Y-46557142D01*
X82757142Y-46614285D01*
X82785714Y-46642857D01*
X82842857Y-46671428D01*
X82957142Y-46671428D01*
X83014285Y-46642857D01*
X83042857Y-46614285D01*
X83071428Y-46557142D01*
X83071428Y-46414285D01*
X83042857Y-46357142D01*
X83014285Y-46328571D01*
X82957142Y-46300000D01*
X82842857Y-46300000D01*
X82785714Y-46328571D01*
X82757142Y-46357142D01*
X82728571Y-46414285D01*
X80714285Y-50400000D02*
X80742857Y-50428571D01*
X80771428Y-50514285D01*
X80771428Y-50571428D01*
X80742857Y-50657142D01*
X80685714Y-50714285D01*
X80628571Y-50742857D01*
X80514285Y-50771428D01*
X80428571Y-50771428D01*
X80314285Y-50742857D01*
X80257142Y-50714285D01*
X80200000Y-50657142D01*
X80171428Y-50571428D01*
X80171428Y-50514285D01*
X80200000Y-50428571D01*
X80228571Y-50400000D01*
X80171428Y-49857142D02*
X80171428Y-50142857D01*
X80457142Y-50171428D01*
X80428571Y-50142857D01*
X80400000Y-50085714D01*
X80400000Y-49942857D01*
X80428571Y-49885714D01*
X80457142Y-49857142D01*
X80514285Y-49828571D01*
X80657142Y-49828571D01*
X80714285Y-49857142D01*
X80742857Y-49885714D01*
X80771428Y-49942857D01*
X80771428Y-50085714D01*
X80742857Y-50142857D01*
X80714285Y-50171428D01*
X76300000Y-46614285D02*
X76271428Y-46642857D01*
X76185714Y-46671428D01*
X76128571Y-46671428D01*
X76042857Y-46642857D01*
X75985714Y-46585714D01*
X75957142Y-46528571D01*
X75928571Y-46414285D01*
X75928571Y-46328571D01*
X75957142Y-46214285D01*
X75985714Y-46157142D01*
X76042857Y-46100000D01*
X76128571Y-46071428D01*
X76185714Y-46071428D01*
X76271428Y-46100000D01*
X76300000Y-46128571D01*
X76814285Y-46271428D02*
X76814285Y-46671428D01*
X76671428Y-46042857D02*
X76528571Y-46471428D01*
X76900000Y-46471428D01*
X74214285Y-50400000D02*
X74242857Y-50428571D01*
X74271428Y-50514285D01*
X74271428Y-50571428D01*
X74242857Y-50657142D01*
X74185714Y-50714285D01*
X74128571Y-50742857D01*
X74014285Y-50771428D01*
X73928571Y-50771428D01*
X73814285Y-50742857D01*
X73757142Y-50714285D01*
X73700000Y-50657142D01*
X73671428Y-50571428D01*
X73671428Y-50514285D01*
X73700000Y-50428571D01*
X73728571Y-50400000D01*
X73671428Y-50200000D02*
X73671428Y-49828571D01*
X73900000Y-50028571D01*
X73900000Y-49942857D01*
X73928571Y-49885714D01*
X73957142Y-49857142D01*
X74014285Y-49828571D01*
X74157142Y-49828571D01*
X74214285Y-49857142D01*
X74242857Y-49885714D01*
X74271428Y-49942857D01*
X74271428Y-50114285D01*
X74242857Y-50171428D01*
X74214285Y-50200000D01*
X68014285Y-50400000D02*
X68042857Y-50428571D01*
X68071428Y-50514285D01*
X68071428Y-50571428D01*
X68042857Y-50657142D01*
X67985714Y-50714285D01*
X67928571Y-50742857D01*
X67814285Y-50771428D01*
X67728571Y-50771428D01*
X67614285Y-50742857D01*
X67557142Y-50714285D01*
X67500000Y-50657142D01*
X67471428Y-50571428D01*
X67471428Y-50514285D01*
X67500000Y-50428571D01*
X67528571Y-50400000D01*
X68071428Y-49828571D02*
X68071428Y-50171428D01*
X68071428Y-50000000D02*
X67471428Y-50000000D01*
X67557142Y-50057142D01*
X67614285Y-50114285D01*
X67642857Y-50171428D01*
X70100000Y-46614285D02*
X70071428Y-46642857D01*
X69985714Y-46671428D01*
X69928571Y-46671428D01*
X69842857Y-46642857D01*
X69785714Y-46585714D01*
X69757142Y-46528571D01*
X69728571Y-46414285D01*
X69728571Y-46328571D01*
X69757142Y-46214285D01*
X69785714Y-46157142D01*
X69842857Y-46100000D01*
X69928571Y-46071428D01*
X69985714Y-46071428D01*
X70071428Y-46100000D01*
X70100000Y-46128571D01*
X70328571Y-46128571D02*
X70357142Y-46100000D01*
X70414285Y-46071428D01*
X70557142Y-46071428D01*
X70614285Y-46100000D01*
X70642857Y-46128571D01*
X70671428Y-46185714D01*
X70671428Y-46242857D01*
X70642857Y-46328571D01*
X70300000Y-46671428D01*
X70671428Y-46671428D01*
M02*
