M48
; DRILL file {KiCad 5.1.5-52549c5~84~ubuntu16.04.1} date gio 09 gen 2020 22:10:58 CET
; FORMAT={-:-/ absolute / inch / decimal}
; #@! TF.CreationDate,2020-01-09T22:10:58+01:00
; #@! TF.GenerationSoftware,Kicad,Pcbnew,5.1.5-52549c5~84~ubuntu16.04.1
FMAT,2
INCH
T1C0.0118
%
G90
G05
T1
X2.4803Y-1.7441
X2.4803Y-1.7913
X2.4961Y-1.7677
X2.5118Y-1.7441
X2.5118Y-1.7913
X2.5276Y-1.7677
X2.5433Y-1.7441
X2.5433Y-1.7913
X2.5591Y-1.7677
X2.5748Y-1.7441
X2.5748Y-1.7913
X2.5906Y-1.7677
X2.6063Y-1.7441
X2.6063Y-1.7913
X2.6417Y-2.0551
X2.6575Y-2.0315
X2.6732Y-2.0551
X2.689Y-2.0315
X2.7008Y-1.748
X2.7047Y-2.0551
X2.7598Y-2.0551
X2.7756Y-2.0315
X2.7913Y-2.0551
X2.8228Y-1.748
X2.8543Y-2.0551
X2.9173Y-2.0551
X2.9331Y-2.0315
X2.9449Y-1.748
X2.9488Y-2.0551
X3.0039Y-2.0551
X3.0197Y-2.0315
X3.0354Y-2.0551
X3.0669Y-1.748
X3.0984Y-2.0551
X3.1614Y-2.0551
X3.1772Y-2.0315
X3.189Y-1.748
X3.1929Y-2.0551
X3.248Y-2.0551
X3.2638Y-2.0315
X3.2795Y-2.0551
X3.311Y-1.748
X3.3425Y-2.0551
X3.4055Y-2.0551
X3.4213Y-2.0315
X3.4331Y-1.748
X3.437Y-2.0551
X3.4921Y-2.0551
X3.5079Y-1.748
X3.5079Y-1.7795
X3.5079Y-2.0315
X3.5236Y-2.0079
X3.5236Y-2.0551
X3.5315Y-1.7638
X3.5394Y-1.9843
X3.5394Y-2.0315
X3.5551Y-1.748
X3.5551Y-1.7795
X3.5551Y-2.0079
X3.5551Y-2.0551
X3.5709Y-2.0315
X3.5866Y-2.0079
X3.5866Y-2.0551
X3.6024Y-2.0315
X3.6181Y-2.0079
X3.6181Y-2.0551
X3.6339Y-2.0315
X3.6496Y-2.0079
X3.6496Y-2.0551
X3.6654Y-2.0315
X3.6811Y-2.0079
X3.6811Y-2.0551
X3.6969Y-2.0315
X3.7126Y-2.0079
X3.7126Y-2.0551
T0
M30
