G04 #@! TF.GenerationSoftware,KiCad,Pcbnew,5.1.5-52549c5~84~ubuntu16.04.1*
G04 #@! TF.CreationDate,2020-01-09T22:10:55+01:00*
G04 #@! TF.ProjectId,Filter_PCB_4,46696c74-6572-45f5-9043-425f342e6b69,rev?*
G04 #@! TF.SameCoordinates,Original*
G04 #@! TF.FileFunction,Copper,L3,Inr*
G04 #@! TF.FilePolarity,Positive*
%FSLAX46Y46*%
G04 Gerber Fmt 4.6, Leading zero omitted, Abs format (unit mm)*
G04 Created by KiCad (PCBNEW 5.1.5-52549c5~84~ubuntu16.04.1) date 2020-01-09 22:10:55*
%MOMM*%
%LPD*%
G04 APERTURE LIST*
%ADD10C,0.500000*%
%ADD11C,0.200000*%
G04 APERTURE END LIST*
D10*
X72500000Y-52200000D03*
X68700000Y-52200000D03*
X70100000Y-52200000D03*
X67900000Y-52200000D03*
X67100000Y-52200000D03*
X67500000Y-51600000D03*
X68300000Y-51600000D03*
X70500000Y-51600000D03*
X70900000Y-52200000D03*
X74900000Y-52200000D03*
X76300000Y-52200000D03*
X81100000Y-52200000D03*
X87300000Y-52200000D03*
X88700000Y-52200000D03*
X77100000Y-52200000D03*
X83300000Y-52200000D03*
X82900000Y-51600000D03*
X76700000Y-51600000D03*
X89500000Y-52200000D03*
X90300000Y-52200000D03*
X91100000Y-52200000D03*
X91900000Y-52200000D03*
X92700000Y-52200000D03*
X93500000Y-52200000D03*
X94300000Y-52200000D03*
X89100000Y-51600000D03*
X89900000Y-51600000D03*
X90700000Y-51600000D03*
X91500000Y-51600000D03*
X92300000Y-51600000D03*
X93100000Y-51600000D03*
X93500000Y-51000000D03*
X92700000Y-51000000D03*
X91900000Y-51000000D03*
X91100000Y-51000000D03*
X90300000Y-51000000D03*
X63000000Y-44300000D03*
X63800000Y-44300000D03*
X64600000Y-44300000D03*
X65400000Y-44300000D03*
X66200000Y-44300000D03*
X63400000Y-44900000D03*
X64200000Y-44900000D03*
X65000000Y-44900000D03*
X65800000Y-44900000D03*
X63800000Y-45500000D03*
X63000000Y-45500000D03*
X64600000Y-45500000D03*
X65400000Y-45500000D03*
X66200000Y-45500000D03*
X90300000Y-45200000D03*
X90300000Y-44400000D03*
X89700000Y-44800000D03*
X89100000Y-44400000D03*
X89500000Y-51000000D03*
X89900000Y-50400000D03*
X74100000Y-52200000D03*
X74500000Y-51600000D03*
X80700000Y-51600000D03*
X86500000Y-52200000D03*
X86900000Y-51600000D03*
X80300000Y-52200000D03*
X78700000Y-52200000D03*
X93900000Y-51600000D03*
X94300000Y-51000000D03*
X89100000Y-45200000D03*
X84900000Y-52200000D03*
X82500000Y-52200000D03*
X87200000Y-44400000D03*
X68600000Y-44400000D03*
X84100000Y-44400000D03*
X71700000Y-44400000D03*
X74800000Y-44400000D03*
X81000000Y-44400000D03*
X77900000Y-44400000D03*
D11*
X69900000Y-45700000D02*
X85900000Y-45700000D01*
X85900000Y-45700000D02*
X87200000Y-44400000D01*
X68600000Y-44400000D02*
X69900000Y-45700000D01*
X83200000Y-45300000D02*
X84100000Y-44400000D01*
X72600000Y-45300000D02*
X83200000Y-45300000D01*
X71700000Y-44400000D02*
X72600000Y-45300000D01*
X80500000Y-44900000D02*
X81000000Y-44400000D01*
X75300000Y-44900000D02*
X80500000Y-44900000D01*
X74800000Y-44400000D02*
X75300000Y-44900000D01*
G36*
X68211625Y-44081269D02*
G01*
X68156906Y-44163161D01*
X68119215Y-44254155D01*
X68100000Y-44350754D01*
X68100000Y-44449246D01*
X68119215Y-44545845D01*
X68156906Y-44636839D01*
X68211625Y-44718731D01*
X68281269Y-44788375D01*
X68363161Y-44843094D01*
X68454155Y-44880785D01*
X68550754Y-44900000D01*
X68605027Y-44900000D01*
X69640355Y-45935330D01*
X69651315Y-45948685D01*
X69704609Y-45992421D01*
X69704610Y-45992422D01*
X69765413Y-46024922D01*
X69831388Y-46044935D01*
X69900000Y-46051693D01*
X69917189Y-46050000D01*
X85882812Y-46050000D01*
X85900000Y-46051693D01*
X85917188Y-46050000D01*
X85917189Y-46050000D01*
X85968612Y-46044935D01*
X86034587Y-46024922D01*
X86095390Y-45992422D01*
X86148685Y-45948685D01*
X86159653Y-45935320D01*
X87194975Y-44900000D01*
X87249246Y-44900000D01*
X87345845Y-44880785D01*
X87436839Y-44843094D01*
X87518731Y-44788375D01*
X87588375Y-44718731D01*
X87643094Y-44636839D01*
X87680785Y-44545845D01*
X87700000Y-44449246D01*
X87700000Y-44350754D01*
X87680785Y-44254155D01*
X87643094Y-44163161D01*
X87588375Y-44081269D01*
X87532106Y-44025000D01*
X94388999Y-44025000D01*
X94453201Y-44031295D01*
X94504384Y-44046748D01*
X94551587Y-44071846D01*
X94593013Y-44105632D01*
X94627093Y-44146828D01*
X94652518Y-44193851D01*
X94668327Y-44244924D01*
X94675001Y-44308420D01*
X94675000Y-52188998D01*
X94668705Y-52253202D01*
X94653252Y-52304384D01*
X94628154Y-52351587D01*
X94594368Y-52393013D01*
X94553173Y-52427092D01*
X94506152Y-52452517D01*
X94455080Y-52468326D01*
X94391588Y-52475000D01*
X63011002Y-52475000D01*
X62946798Y-52468705D01*
X62895616Y-52453252D01*
X62848413Y-52428154D01*
X62806987Y-52394368D01*
X62772908Y-52353173D01*
X62747483Y-52306152D01*
X62731674Y-52255080D01*
X62725000Y-52191588D01*
X62725000Y-44311001D01*
X62731295Y-44246799D01*
X62746748Y-44195616D01*
X62771846Y-44148413D01*
X62805632Y-44106987D01*
X62846828Y-44072907D01*
X62893851Y-44047482D01*
X62944924Y-44031673D01*
X63008411Y-44025000D01*
X68267894Y-44025000D01*
X68211625Y-44081269D01*
G37*
X68211625Y-44081269D02*
X68156906Y-44163161D01*
X68119215Y-44254155D01*
X68100000Y-44350754D01*
X68100000Y-44449246D01*
X68119215Y-44545845D01*
X68156906Y-44636839D01*
X68211625Y-44718731D01*
X68281269Y-44788375D01*
X68363161Y-44843094D01*
X68454155Y-44880785D01*
X68550754Y-44900000D01*
X68605027Y-44900000D01*
X69640355Y-45935330D01*
X69651315Y-45948685D01*
X69704609Y-45992421D01*
X69704610Y-45992422D01*
X69765413Y-46024922D01*
X69831388Y-46044935D01*
X69900000Y-46051693D01*
X69917189Y-46050000D01*
X85882812Y-46050000D01*
X85900000Y-46051693D01*
X85917188Y-46050000D01*
X85917189Y-46050000D01*
X85968612Y-46044935D01*
X86034587Y-46024922D01*
X86095390Y-45992422D01*
X86148685Y-45948685D01*
X86159653Y-45935320D01*
X87194975Y-44900000D01*
X87249246Y-44900000D01*
X87345845Y-44880785D01*
X87436839Y-44843094D01*
X87518731Y-44788375D01*
X87588375Y-44718731D01*
X87643094Y-44636839D01*
X87680785Y-44545845D01*
X87700000Y-44449246D01*
X87700000Y-44350754D01*
X87680785Y-44254155D01*
X87643094Y-44163161D01*
X87588375Y-44081269D01*
X87532106Y-44025000D01*
X94388999Y-44025000D01*
X94453201Y-44031295D01*
X94504384Y-44046748D01*
X94551587Y-44071846D01*
X94593013Y-44105632D01*
X94627093Y-44146828D01*
X94652518Y-44193851D01*
X94668327Y-44244924D01*
X94675001Y-44308420D01*
X94675000Y-52188998D01*
X94668705Y-52253202D01*
X94653252Y-52304384D01*
X94628154Y-52351587D01*
X94594368Y-52393013D01*
X94553173Y-52427092D01*
X94506152Y-52452517D01*
X94455080Y-52468326D01*
X94391588Y-52475000D01*
X63011002Y-52475000D01*
X62946798Y-52468705D01*
X62895616Y-52453252D01*
X62848413Y-52428154D01*
X62806987Y-52394368D01*
X62772908Y-52353173D01*
X62747483Y-52306152D01*
X62731674Y-52255080D01*
X62725000Y-52191588D01*
X62725000Y-44311001D01*
X62731295Y-44246799D01*
X62746748Y-44195616D01*
X62771846Y-44148413D01*
X62805632Y-44106987D01*
X62846828Y-44072907D01*
X62893851Y-44047482D01*
X62944924Y-44031673D01*
X63008411Y-44025000D01*
X68267894Y-44025000D01*
X68211625Y-44081269D01*
M02*
