G04 #@! TF.GenerationSoftware,KiCad,Pcbnew,5.1.5-52549c5~84~ubuntu16.04.1*
G04 #@! TF.CreationDate,2020-01-10T16:28:10+01:00*
G04 #@! TF.ProjectId,Filter_PCB_4,46696c74-6572-45f5-9043-425f342e6b69,rev?*
G04 #@! TF.SameCoordinates,Original*
G04 #@! TF.FileFunction,Paste,Top*
G04 #@! TF.FilePolarity,Positive*
%FSLAX46Y46*%
G04 Gerber Fmt 4.6, Leading zero omitted, Abs format (unit mm)*
G04 Created by KiCad (PCBNEW 5.1.5-52549c5~84~ubuntu16.04.1) date 2020-01-10 16:28:10*
%MOMM*%
%LPD*%
G04 APERTURE LIST*
%ADD10C,0.100000*%
%ADD11R,3.150000X1.000000*%
%ADD12R,1.400000X0.300000*%
G04 APERTURE END LIST*
D10*
G36*
X180787252Y-110025602D02*
G01*
X180799386Y-110027402D01*
X180811286Y-110030382D01*
X180822835Y-110034515D01*
X180833925Y-110039760D01*
X180844446Y-110046066D01*
X180854299Y-110053374D01*
X180863388Y-110061612D01*
X180871626Y-110070701D01*
X180878934Y-110080554D01*
X180885240Y-110091075D01*
X180890485Y-110102165D01*
X180894618Y-110113714D01*
X180897598Y-110125614D01*
X180899398Y-110137748D01*
X180900000Y-110150000D01*
X180900000Y-111150000D01*
X180899398Y-111162252D01*
X180897598Y-111174386D01*
X180894618Y-111186286D01*
X180890485Y-111197835D01*
X180885240Y-111208925D01*
X180878934Y-111219446D01*
X180871626Y-111229299D01*
X180863388Y-111238388D01*
X180854299Y-111246626D01*
X180844446Y-111253934D01*
X180833925Y-111260240D01*
X180822835Y-111265485D01*
X180811286Y-111269618D01*
X180799386Y-111272598D01*
X180787252Y-111274398D01*
X180775000Y-111275000D01*
X176775000Y-111275000D01*
X176762748Y-111274398D01*
X176750614Y-111272598D01*
X176738714Y-111269618D01*
X176727165Y-111265485D01*
X176716075Y-111260240D01*
X176705554Y-111253934D01*
X176695701Y-111246626D01*
X176686612Y-111238388D01*
X176678374Y-111229299D01*
X176671066Y-111219446D01*
X176664760Y-111208925D01*
X176659515Y-111197835D01*
X176655382Y-111186286D01*
X176652402Y-111174386D01*
X176650602Y-111162252D01*
X176650000Y-111150000D01*
X176650000Y-110150000D01*
X176650602Y-110137748D01*
X176652402Y-110125614D01*
X176655382Y-110113714D01*
X176659515Y-110102165D01*
X176664760Y-110091075D01*
X176671066Y-110080554D01*
X176678374Y-110070701D01*
X176686612Y-110061612D01*
X176695701Y-110053374D01*
X176705554Y-110046066D01*
X176716075Y-110039760D01*
X176727165Y-110034515D01*
X176738714Y-110030382D01*
X176750614Y-110027402D01*
X176762748Y-110025602D01*
X176775000Y-110025000D01*
X180775000Y-110025000D01*
X180787252Y-110025602D01*
G37*
G36*
X180787252Y-115125602D02*
G01*
X180799386Y-115127402D01*
X180811286Y-115130382D01*
X180822835Y-115134515D01*
X180833925Y-115139760D01*
X180844446Y-115146066D01*
X180854299Y-115153374D01*
X180863388Y-115161612D01*
X180871626Y-115170701D01*
X180878934Y-115180554D01*
X180885240Y-115191075D01*
X180890485Y-115202165D01*
X180894618Y-115213714D01*
X180897598Y-115225614D01*
X180899398Y-115237748D01*
X180900000Y-115250000D01*
X180900000Y-116250000D01*
X180899398Y-116262252D01*
X180897598Y-116274386D01*
X180894618Y-116286286D01*
X180890485Y-116297835D01*
X180885240Y-116308925D01*
X180878934Y-116319446D01*
X180871626Y-116329299D01*
X180863388Y-116338388D01*
X180854299Y-116346626D01*
X180844446Y-116353934D01*
X180833925Y-116360240D01*
X180822835Y-116365485D01*
X180811286Y-116369618D01*
X180799386Y-116372598D01*
X180787252Y-116374398D01*
X180775000Y-116375000D01*
X176775000Y-116375000D01*
X176762748Y-116374398D01*
X176750614Y-116372598D01*
X176738714Y-116369618D01*
X176727165Y-116365485D01*
X176716075Y-116360240D01*
X176705554Y-116353934D01*
X176695701Y-116346626D01*
X176686612Y-116338388D01*
X176678374Y-116329299D01*
X176671066Y-116319446D01*
X176664760Y-116308925D01*
X176659515Y-116297835D01*
X176655382Y-116286286D01*
X176652402Y-116274386D01*
X176650602Y-116262252D01*
X176650000Y-116250000D01*
X176650000Y-115250000D01*
X176650602Y-115237748D01*
X176652402Y-115225614D01*
X176655382Y-115213714D01*
X176659515Y-115202165D01*
X176664760Y-115191075D01*
X176671066Y-115180554D01*
X176678374Y-115170701D01*
X176686612Y-115161612D01*
X176695701Y-115153374D01*
X176705554Y-115146066D01*
X176716075Y-115139760D01*
X176727165Y-115134515D01*
X176738714Y-115130382D01*
X176750614Y-115127402D01*
X176762748Y-115125602D01*
X176775000Y-115125000D01*
X180775000Y-115125000D01*
X180787252Y-115125602D01*
G37*
G36*
X180787252Y-115125602D02*
G01*
X180799386Y-115127402D01*
X180811286Y-115130382D01*
X180822835Y-115134515D01*
X180833925Y-115139760D01*
X180844446Y-115146066D01*
X180854299Y-115153374D01*
X180863388Y-115161612D01*
X180871626Y-115170701D01*
X180878934Y-115180554D01*
X180885240Y-115191075D01*
X180890485Y-115202165D01*
X180894618Y-115213714D01*
X180897598Y-115225614D01*
X180899398Y-115237748D01*
X180900000Y-115250000D01*
X180900000Y-116250000D01*
X180899398Y-116262252D01*
X180897598Y-116274386D01*
X180894618Y-116286286D01*
X180890485Y-116297835D01*
X180885240Y-116308925D01*
X180878934Y-116319446D01*
X180871626Y-116329299D01*
X180863388Y-116338388D01*
X180854299Y-116346626D01*
X180844446Y-116353934D01*
X180833925Y-116360240D01*
X180822835Y-116365485D01*
X180811286Y-116369618D01*
X180799386Y-116372598D01*
X180787252Y-116374398D01*
X180775000Y-116375000D01*
X176775000Y-116375000D01*
X176762748Y-116374398D01*
X176750614Y-116372598D01*
X176738714Y-116369618D01*
X176727165Y-116365485D01*
X176716075Y-116360240D01*
X176705554Y-116353934D01*
X176695701Y-116346626D01*
X176686612Y-116338388D01*
X176678374Y-116329299D01*
X176671066Y-116319446D01*
X176664760Y-116308925D01*
X176659515Y-116297835D01*
X176655382Y-116286286D01*
X176652402Y-116274386D01*
X176650602Y-116262252D01*
X176650000Y-116250000D01*
X176650000Y-115250000D01*
X176650602Y-115237748D01*
X176652402Y-115225614D01*
X176655382Y-115213714D01*
X176659515Y-115202165D01*
X176664760Y-115191075D01*
X176671066Y-115180554D01*
X176678374Y-115170701D01*
X176686612Y-115161612D01*
X176695701Y-115153374D01*
X176705554Y-115146066D01*
X176716075Y-115139760D01*
X176727165Y-115134515D01*
X176738714Y-115130382D01*
X176750614Y-115127402D01*
X176762748Y-115125602D01*
X176775000Y-115125000D01*
X180775000Y-115125000D01*
X180787252Y-115125602D01*
G37*
G36*
X152637252Y-108525602D02*
G01*
X152649386Y-108527402D01*
X152661286Y-108530382D01*
X152672835Y-108534515D01*
X152683925Y-108539760D01*
X152694446Y-108546066D01*
X152704299Y-108553374D01*
X152713388Y-108561612D01*
X152721626Y-108570701D01*
X152728934Y-108580554D01*
X152735240Y-108591075D01*
X152740485Y-108602165D01*
X152744618Y-108613714D01*
X152747598Y-108625614D01*
X152749398Y-108637748D01*
X152750000Y-108650000D01*
X152750000Y-109650000D01*
X152749398Y-109662252D01*
X152747598Y-109674386D01*
X152744618Y-109686286D01*
X152740485Y-109697835D01*
X152735240Y-109708925D01*
X152728934Y-109719446D01*
X152721626Y-109729299D01*
X152713388Y-109738388D01*
X152704299Y-109746626D01*
X152694446Y-109753934D01*
X152683925Y-109760240D01*
X152672835Y-109765485D01*
X152661286Y-109769618D01*
X152649386Y-109772598D01*
X152637252Y-109774398D01*
X152625000Y-109775000D01*
X148625000Y-109775000D01*
X148612748Y-109774398D01*
X148600614Y-109772598D01*
X148588714Y-109769618D01*
X148577165Y-109765485D01*
X148566075Y-109760240D01*
X148555554Y-109753934D01*
X148545701Y-109746626D01*
X148536612Y-109738388D01*
X148528374Y-109729299D01*
X148521066Y-109719446D01*
X148514760Y-109708925D01*
X148509515Y-109697835D01*
X148505382Y-109686286D01*
X148502402Y-109674386D01*
X148500602Y-109662252D01*
X148500000Y-109650000D01*
X148500000Y-108650000D01*
X148500602Y-108637748D01*
X148502402Y-108625614D01*
X148505382Y-108613714D01*
X148509515Y-108602165D01*
X148514760Y-108591075D01*
X148521066Y-108580554D01*
X148528374Y-108570701D01*
X148536612Y-108561612D01*
X148545701Y-108553374D01*
X148555554Y-108546066D01*
X148566075Y-108539760D01*
X148577165Y-108534515D01*
X148588714Y-108530382D01*
X148600614Y-108527402D01*
X148612748Y-108525602D01*
X148625000Y-108525000D01*
X152625000Y-108525000D01*
X152637252Y-108525602D01*
G37*
G36*
X152637252Y-108525602D02*
G01*
X152649386Y-108527402D01*
X152661286Y-108530382D01*
X152672835Y-108534515D01*
X152683925Y-108539760D01*
X152694446Y-108546066D01*
X152704299Y-108553374D01*
X152713388Y-108561612D01*
X152721626Y-108570701D01*
X152728934Y-108580554D01*
X152735240Y-108591075D01*
X152740485Y-108602165D01*
X152744618Y-108613714D01*
X152747598Y-108625614D01*
X152749398Y-108637748D01*
X152750000Y-108650000D01*
X152750000Y-109650000D01*
X152749398Y-109662252D01*
X152747598Y-109674386D01*
X152744618Y-109686286D01*
X152740485Y-109697835D01*
X152735240Y-109708925D01*
X152728934Y-109719446D01*
X152721626Y-109729299D01*
X152713388Y-109738388D01*
X152704299Y-109746626D01*
X152694446Y-109753934D01*
X152683925Y-109760240D01*
X152672835Y-109765485D01*
X152661286Y-109769618D01*
X152649386Y-109772598D01*
X152637252Y-109774398D01*
X152625000Y-109775000D01*
X148625000Y-109775000D01*
X148612748Y-109774398D01*
X148600614Y-109772598D01*
X148588714Y-109769618D01*
X148577165Y-109765485D01*
X148566075Y-109760240D01*
X148555554Y-109753934D01*
X148545701Y-109746626D01*
X148536612Y-109738388D01*
X148528374Y-109729299D01*
X148521066Y-109719446D01*
X148514760Y-109708925D01*
X148509515Y-109697835D01*
X148505382Y-109686286D01*
X148502402Y-109674386D01*
X148500602Y-109662252D01*
X148500000Y-109650000D01*
X148500000Y-108650000D01*
X148500602Y-108637748D01*
X148502402Y-108625614D01*
X148505382Y-108613714D01*
X148509515Y-108602165D01*
X148514760Y-108591075D01*
X148521066Y-108580554D01*
X148528374Y-108570701D01*
X148536612Y-108561612D01*
X148545701Y-108553374D01*
X148555554Y-108546066D01*
X148566075Y-108539760D01*
X148577165Y-108534515D01*
X148588714Y-108530382D01*
X148600614Y-108527402D01*
X148612748Y-108525602D01*
X148625000Y-108525000D01*
X152625000Y-108525000D01*
X152637252Y-108525602D01*
G37*
G36*
X152637252Y-113625602D02*
G01*
X152649386Y-113627402D01*
X152661286Y-113630382D01*
X152672835Y-113634515D01*
X152683925Y-113639760D01*
X152694446Y-113646066D01*
X152704299Y-113653374D01*
X152713388Y-113661612D01*
X152721626Y-113670701D01*
X152728934Y-113680554D01*
X152735240Y-113691075D01*
X152740485Y-113702165D01*
X152744618Y-113713714D01*
X152747598Y-113725614D01*
X152749398Y-113737748D01*
X152750000Y-113750000D01*
X152750000Y-114750000D01*
X152749398Y-114762252D01*
X152747598Y-114774386D01*
X152744618Y-114786286D01*
X152740485Y-114797835D01*
X152735240Y-114808925D01*
X152728934Y-114819446D01*
X152721626Y-114829299D01*
X152713388Y-114838388D01*
X152704299Y-114846626D01*
X152694446Y-114853934D01*
X152683925Y-114860240D01*
X152672835Y-114865485D01*
X152661286Y-114869618D01*
X152649386Y-114872598D01*
X152637252Y-114874398D01*
X152625000Y-114875000D01*
X148625000Y-114875000D01*
X148612748Y-114874398D01*
X148600614Y-114872598D01*
X148588714Y-114869618D01*
X148577165Y-114865485D01*
X148566075Y-114860240D01*
X148555554Y-114853934D01*
X148545701Y-114846626D01*
X148536612Y-114838388D01*
X148528374Y-114829299D01*
X148521066Y-114819446D01*
X148514760Y-114808925D01*
X148509515Y-114797835D01*
X148505382Y-114786286D01*
X148502402Y-114774386D01*
X148500602Y-114762252D01*
X148500000Y-114750000D01*
X148500000Y-113750000D01*
X148500602Y-113737748D01*
X148502402Y-113725614D01*
X148505382Y-113713714D01*
X148509515Y-113702165D01*
X148514760Y-113691075D01*
X148521066Y-113680554D01*
X148528374Y-113670701D01*
X148536612Y-113661612D01*
X148545701Y-113653374D01*
X148555554Y-113646066D01*
X148566075Y-113639760D01*
X148577165Y-113634515D01*
X148588714Y-113630382D01*
X148600614Y-113627402D01*
X148612748Y-113625602D01*
X148625000Y-113625000D01*
X152625000Y-113625000D01*
X152637252Y-113625602D01*
G37*
G36*
X160927691Y-112826053D02*
G01*
X160948926Y-112829203D01*
X160969750Y-112834419D01*
X160989962Y-112841651D01*
X161009368Y-112850830D01*
X161027781Y-112861866D01*
X161045024Y-112874654D01*
X161060930Y-112889070D01*
X161075346Y-112904976D01*
X161088134Y-112922219D01*
X161099170Y-112940632D01*
X161108349Y-112960038D01*
X161115581Y-112980250D01*
X161120797Y-113001074D01*
X161123947Y-113022309D01*
X161125000Y-113043750D01*
X161125000Y-113556250D01*
X161123947Y-113577691D01*
X161120797Y-113598926D01*
X161115581Y-113619750D01*
X161108349Y-113639962D01*
X161099170Y-113659368D01*
X161088134Y-113677781D01*
X161075346Y-113695024D01*
X161060930Y-113710930D01*
X161045024Y-113725346D01*
X161027781Y-113738134D01*
X161009368Y-113749170D01*
X160989962Y-113758349D01*
X160969750Y-113765581D01*
X160948926Y-113770797D01*
X160927691Y-113773947D01*
X160906250Y-113775000D01*
X160468750Y-113775000D01*
X160447309Y-113773947D01*
X160426074Y-113770797D01*
X160405250Y-113765581D01*
X160385038Y-113758349D01*
X160365632Y-113749170D01*
X160347219Y-113738134D01*
X160329976Y-113725346D01*
X160314070Y-113710930D01*
X160299654Y-113695024D01*
X160286866Y-113677781D01*
X160275830Y-113659368D01*
X160266651Y-113639962D01*
X160259419Y-113619750D01*
X160254203Y-113598926D01*
X160251053Y-113577691D01*
X160250000Y-113556250D01*
X160250000Y-113043750D01*
X160251053Y-113022309D01*
X160254203Y-113001074D01*
X160259419Y-112980250D01*
X160266651Y-112960038D01*
X160275830Y-112940632D01*
X160286866Y-112922219D01*
X160299654Y-112904976D01*
X160314070Y-112889070D01*
X160329976Y-112874654D01*
X160347219Y-112861866D01*
X160365632Y-112850830D01*
X160385038Y-112841651D01*
X160405250Y-112834419D01*
X160426074Y-112829203D01*
X160447309Y-112826053D01*
X160468750Y-112825000D01*
X160906250Y-112825000D01*
X160927691Y-112826053D01*
G37*
G36*
X159352691Y-112826053D02*
G01*
X159373926Y-112829203D01*
X159394750Y-112834419D01*
X159414962Y-112841651D01*
X159434368Y-112850830D01*
X159452781Y-112861866D01*
X159470024Y-112874654D01*
X159485930Y-112889070D01*
X159500346Y-112904976D01*
X159513134Y-112922219D01*
X159524170Y-112940632D01*
X159533349Y-112960038D01*
X159540581Y-112980250D01*
X159545797Y-113001074D01*
X159548947Y-113022309D01*
X159550000Y-113043750D01*
X159550000Y-113556250D01*
X159548947Y-113577691D01*
X159545797Y-113598926D01*
X159540581Y-113619750D01*
X159533349Y-113639962D01*
X159524170Y-113659368D01*
X159513134Y-113677781D01*
X159500346Y-113695024D01*
X159485930Y-113710930D01*
X159470024Y-113725346D01*
X159452781Y-113738134D01*
X159434368Y-113749170D01*
X159414962Y-113758349D01*
X159394750Y-113765581D01*
X159373926Y-113770797D01*
X159352691Y-113773947D01*
X159331250Y-113775000D01*
X158893750Y-113775000D01*
X158872309Y-113773947D01*
X158851074Y-113770797D01*
X158830250Y-113765581D01*
X158810038Y-113758349D01*
X158790632Y-113749170D01*
X158772219Y-113738134D01*
X158754976Y-113725346D01*
X158739070Y-113710930D01*
X158724654Y-113695024D01*
X158711866Y-113677781D01*
X158700830Y-113659368D01*
X158691651Y-113639962D01*
X158684419Y-113619750D01*
X158679203Y-113598926D01*
X158676053Y-113577691D01*
X158675000Y-113556250D01*
X158675000Y-113043750D01*
X158676053Y-113022309D01*
X158679203Y-113001074D01*
X158684419Y-112980250D01*
X158691651Y-112960038D01*
X158700830Y-112940632D01*
X158711866Y-112922219D01*
X158724654Y-112904976D01*
X158739070Y-112889070D01*
X158754976Y-112874654D01*
X158772219Y-112861866D01*
X158790632Y-112850830D01*
X158810038Y-112841651D01*
X158830250Y-112834419D01*
X158851074Y-112829203D01*
X158872309Y-112826053D01*
X158893750Y-112825000D01*
X159331250Y-112825000D01*
X159352691Y-112826053D01*
G37*
G36*
X162477691Y-114451053D02*
G01*
X162498926Y-114454203D01*
X162519750Y-114459419D01*
X162539962Y-114466651D01*
X162559368Y-114475830D01*
X162577781Y-114486866D01*
X162595024Y-114499654D01*
X162610930Y-114514070D01*
X162625346Y-114529976D01*
X162638134Y-114547219D01*
X162649170Y-114565632D01*
X162658349Y-114585038D01*
X162665581Y-114605250D01*
X162670797Y-114626074D01*
X162673947Y-114647309D01*
X162675000Y-114668750D01*
X162675000Y-115106250D01*
X162673947Y-115127691D01*
X162670797Y-115148926D01*
X162665581Y-115169750D01*
X162658349Y-115189962D01*
X162649170Y-115209368D01*
X162638134Y-115227781D01*
X162625346Y-115245024D01*
X162610930Y-115260930D01*
X162595024Y-115275346D01*
X162577781Y-115288134D01*
X162559368Y-115299170D01*
X162539962Y-115308349D01*
X162519750Y-115315581D01*
X162498926Y-115320797D01*
X162477691Y-115323947D01*
X162456250Y-115325000D01*
X161943750Y-115325000D01*
X161922309Y-115323947D01*
X161901074Y-115320797D01*
X161880250Y-115315581D01*
X161860038Y-115308349D01*
X161840632Y-115299170D01*
X161822219Y-115288134D01*
X161804976Y-115275346D01*
X161789070Y-115260930D01*
X161774654Y-115245024D01*
X161761866Y-115227781D01*
X161750830Y-115209368D01*
X161741651Y-115189962D01*
X161734419Y-115169750D01*
X161729203Y-115148926D01*
X161726053Y-115127691D01*
X161725000Y-115106250D01*
X161725000Y-114668750D01*
X161726053Y-114647309D01*
X161729203Y-114626074D01*
X161734419Y-114605250D01*
X161741651Y-114585038D01*
X161750830Y-114565632D01*
X161761866Y-114547219D01*
X161774654Y-114529976D01*
X161789070Y-114514070D01*
X161804976Y-114499654D01*
X161822219Y-114486866D01*
X161840632Y-114475830D01*
X161860038Y-114466651D01*
X161880250Y-114459419D01*
X161901074Y-114454203D01*
X161922309Y-114451053D01*
X161943750Y-114450000D01*
X162456250Y-114450000D01*
X162477691Y-114451053D01*
G37*
G36*
X162477691Y-112876053D02*
G01*
X162498926Y-112879203D01*
X162519750Y-112884419D01*
X162539962Y-112891651D01*
X162559368Y-112900830D01*
X162577781Y-112911866D01*
X162595024Y-112924654D01*
X162610930Y-112939070D01*
X162625346Y-112954976D01*
X162638134Y-112972219D01*
X162649170Y-112990632D01*
X162658349Y-113010038D01*
X162665581Y-113030250D01*
X162670797Y-113051074D01*
X162673947Y-113072309D01*
X162675000Y-113093750D01*
X162675000Y-113531250D01*
X162673947Y-113552691D01*
X162670797Y-113573926D01*
X162665581Y-113594750D01*
X162658349Y-113614962D01*
X162649170Y-113634368D01*
X162638134Y-113652781D01*
X162625346Y-113670024D01*
X162610930Y-113685930D01*
X162595024Y-113700346D01*
X162577781Y-113713134D01*
X162559368Y-113724170D01*
X162539962Y-113733349D01*
X162519750Y-113740581D01*
X162498926Y-113745797D01*
X162477691Y-113748947D01*
X162456250Y-113750000D01*
X161943750Y-113750000D01*
X161922309Y-113748947D01*
X161901074Y-113745797D01*
X161880250Y-113740581D01*
X161860038Y-113733349D01*
X161840632Y-113724170D01*
X161822219Y-113713134D01*
X161804976Y-113700346D01*
X161789070Y-113685930D01*
X161774654Y-113670024D01*
X161761866Y-113652781D01*
X161750830Y-113634368D01*
X161741651Y-113614962D01*
X161734419Y-113594750D01*
X161729203Y-113573926D01*
X161726053Y-113552691D01*
X161725000Y-113531250D01*
X161725000Y-113093750D01*
X161726053Y-113072309D01*
X161729203Y-113051074D01*
X161734419Y-113030250D01*
X161741651Y-113010038D01*
X161750830Y-112990632D01*
X161761866Y-112972219D01*
X161774654Y-112954976D01*
X161789070Y-112939070D01*
X161804976Y-112924654D01*
X161822219Y-112911866D01*
X161840632Y-112900830D01*
X161860038Y-112891651D01*
X161880250Y-112884419D01*
X161901074Y-112879203D01*
X161922309Y-112876053D01*
X161943750Y-112875000D01*
X162456250Y-112875000D01*
X162477691Y-112876053D01*
G37*
D11*
X172225000Y-115140000D03*
X167175000Y-115140000D03*
X172225000Y-112600000D03*
X167175000Y-112600000D03*
X172225000Y-110060000D03*
X167175000Y-110060000D03*
D10*
G36*
X159352691Y-114426053D02*
G01*
X159373926Y-114429203D01*
X159394750Y-114434419D01*
X159414962Y-114441651D01*
X159434368Y-114450830D01*
X159452781Y-114461866D01*
X159470024Y-114474654D01*
X159485930Y-114489070D01*
X159500346Y-114504976D01*
X159513134Y-114522219D01*
X159524170Y-114540632D01*
X159533349Y-114560038D01*
X159540581Y-114580250D01*
X159545797Y-114601074D01*
X159548947Y-114622309D01*
X159550000Y-114643750D01*
X159550000Y-115156250D01*
X159548947Y-115177691D01*
X159545797Y-115198926D01*
X159540581Y-115219750D01*
X159533349Y-115239962D01*
X159524170Y-115259368D01*
X159513134Y-115277781D01*
X159500346Y-115295024D01*
X159485930Y-115310930D01*
X159470024Y-115325346D01*
X159452781Y-115338134D01*
X159434368Y-115349170D01*
X159414962Y-115358349D01*
X159394750Y-115365581D01*
X159373926Y-115370797D01*
X159352691Y-115373947D01*
X159331250Y-115375000D01*
X158893750Y-115375000D01*
X158872309Y-115373947D01*
X158851074Y-115370797D01*
X158830250Y-115365581D01*
X158810038Y-115358349D01*
X158790632Y-115349170D01*
X158772219Y-115338134D01*
X158754976Y-115325346D01*
X158739070Y-115310930D01*
X158724654Y-115295024D01*
X158711866Y-115277781D01*
X158700830Y-115259368D01*
X158691651Y-115239962D01*
X158684419Y-115219750D01*
X158679203Y-115198926D01*
X158676053Y-115177691D01*
X158675000Y-115156250D01*
X158675000Y-114643750D01*
X158676053Y-114622309D01*
X158679203Y-114601074D01*
X158684419Y-114580250D01*
X158691651Y-114560038D01*
X158700830Y-114540632D01*
X158711866Y-114522219D01*
X158724654Y-114504976D01*
X158739070Y-114489070D01*
X158754976Y-114474654D01*
X158772219Y-114461866D01*
X158790632Y-114450830D01*
X158810038Y-114441651D01*
X158830250Y-114434419D01*
X158851074Y-114429203D01*
X158872309Y-114426053D01*
X158893750Y-114425000D01*
X159331250Y-114425000D01*
X159352691Y-114426053D01*
G37*
G36*
X160927691Y-114426053D02*
G01*
X160948926Y-114429203D01*
X160969750Y-114434419D01*
X160989962Y-114441651D01*
X161009368Y-114450830D01*
X161027781Y-114461866D01*
X161045024Y-114474654D01*
X161060930Y-114489070D01*
X161075346Y-114504976D01*
X161088134Y-114522219D01*
X161099170Y-114540632D01*
X161108349Y-114560038D01*
X161115581Y-114580250D01*
X161120797Y-114601074D01*
X161123947Y-114622309D01*
X161125000Y-114643750D01*
X161125000Y-115156250D01*
X161123947Y-115177691D01*
X161120797Y-115198926D01*
X161115581Y-115219750D01*
X161108349Y-115239962D01*
X161099170Y-115259368D01*
X161088134Y-115277781D01*
X161075346Y-115295024D01*
X161060930Y-115310930D01*
X161045024Y-115325346D01*
X161027781Y-115338134D01*
X161009368Y-115349170D01*
X160989962Y-115358349D01*
X160969750Y-115365581D01*
X160948926Y-115370797D01*
X160927691Y-115373947D01*
X160906250Y-115375000D01*
X160468750Y-115375000D01*
X160447309Y-115373947D01*
X160426074Y-115370797D01*
X160405250Y-115365581D01*
X160385038Y-115358349D01*
X160365632Y-115349170D01*
X160347219Y-115338134D01*
X160329976Y-115325346D01*
X160314070Y-115310930D01*
X160299654Y-115295024D01*
X160286866Y-115277781D01*
X160275830Y-115259368D01*
X160266651Y-115239962D01*
X160259419Y-115219750D01*
X160254203Y-115198926D01*
X160251053Y-115177691D01*
X160250000Y-115156250D01*
X160250000Y-114643750D01*
X160251053Y-114622309D01*
X160254203Y-114601074D01*
X160259419Y-114580250D01*
X160266651Y-114560038D01*
X160275830Y-114540632D01*
X160286866Y-114522219D01*
X160299654Y-114504976D01*
X160314070Y-114489070D01*
X160329976Y-114474654D01*
X160347219Y-114461866D01*
X160365632Y-114450830D01*
X160385038Y-114441651D01*
X160405250Y-114434419D01*
X160426074Y-114429203D01*
X160447309Y-114426053D01*
X160468750Y-114425000D01*
X160906250Y-114425000D01*
X160927691Y-114426053D01*
G37*
D12*
X162100000Y-111700000D03*
X162100000Y-111200000D03*
X162100000Y-110700000D03*
X162100000Y-110200000D03*
X162100000Y-109700000D03*
X157700000Y-109700000D03*
X157700000Y-110200000D03*
X157700000Y-110700000D03*
X157700000Y-111200000D03*
X157700000Y-111700000D03*
D10*
G36*
X173514703Y-102300722D02*
G01*
X173529264Y-102302882D01*
X173543543Y-102306459D01*
X173557403Y-102311418D01*
X173570710Y-102317712D01*
X173583336Y-102325280D01*
X173595159Y-102334048D01*
X173606066Y-102343934D01*
X173615952Y-102354841D01*
X173624720Y-102366664D01*
X173632288Y-102379290D01*
X173638582Y-102392597D01*
X173643541Y-102406457D01*
X173647118Y-102420736D01*
X173649278Y-102435297D01*
X173650000Y-102450000D01*
X173650000Y-102750000D01*
X173649278Y-102764703D01*
X173647118Y-102779264D01*
X173643541Y-102793543D01*
X173638582Y-102807403D01*
X173632288Y-102820710D01*
X173624720Y-102833336D01*
X173615952Y-102845159D01*
X173606066Y-102856066D01*
X173595159Y-102865952D01*
X173583336Y-102874720D01*
X173570710Y-102882288D01*
X173557403Y-102888582D01*
X173543543Y-102893541D01*
X173529264Y-102897118D01*
X173514703Y-102899278D01*
X173500000Y-102900000D01*
X173100000Y-102900000D01*
X173085297Y-102899278D01*
X173070736Y-102897118D01*
X173056457Y-102893541D01*
X173042597Y-102888582D01*
X173029290Y-102882288D01*
X173016664Y-102874720D01*
X173004841Y-102865952D01*
X172993934Y-102856066D01*
X172984048Y-102845159D01*
X172975280Y-102833336D01*
X172967712Y-102820710D01*
X172961418Y-102807403D01*
X172956459Y-102793543D01*
X172952882Y-102779264D01*
X172950722Y-102764703D01*
X172950000Y-102750000D01*
X172950000Y-102450000D01*
X172950722Y-102435297D01*
X172952882Y-102420736D01*
X172956459Y-102406457D01*
X172961418Y-102392597D01*
X172967712Y-102379290D01*
X172975280Y-102366664D01*
X172984048Y-102354841D01*
X172993934Y-102343934D01*
X173004841Y-102334048D01*
X173016664Y-102325280D01*
X173029290Y-102317712D01*
X173042597Y-102311418D01*
X173056457Y-102306459D01*
X173070736Y-102302882D01*
X173085297Y-102300722D01*
X173100000Y-102300000D01*
X173500000Y-102300000D01*
X173514703Y-102300722D01*
G37*
G36*
X173514703Y-103700722D02*
G01*
X173529264Y-103702882D01*
X173543543Y-103706459D01*
X173557403Y-103711418D01*
X173570710Y-103717712D01*
X173583336Y-103725280D01*
X173595159Y-103734048D01*
X173606066Y-103743934D01*
X173615952Y-103754841D01*
X173624720Y-103766664D01*
X173632288Y-103779290D01*
X173638582Y-103792597D01*
X173643541Y-103806457D01*
X173647118Y-103820736D01*
X173649278Y-103835297D01*
X173650000Y-103850000D01*
X173650000Y-104150000D01*
X173649278Y-104164703D01*
X173647118Y-104179264D01*
X173643541Y-104193543D01*
X173638582Y-104207403D01*
X173632288Y-104220710D01*
X173624720Y-104233336D01*
X173615952Y-104245159D01*
X173606066Y-104256066D01*
X173595159Y-104265952D01*
X173583336Y-104274720D01*
X173570710Y-104282288D01*
X173557403Y-104288582D01*
X173543543Y-104293541D01*
X173529264Y-104297118D01*
X173514703Y-104299278D01*
X173500000Y-104300000D01*
X173100000Y-104300000D01*
X173085297Y-104299278D01*
X173070736Y-104297118D01*
X173056457Y-104293541D01*
X173042597Y-104288582D01*
X173029290Y-104282288D01*
X173016664Y-104274720D01*
X173004841Y-104265952D01*
X172993934Y-104256066D01*
X172984048Y-104245159D01*
X172975280Y-104233336D01*
X172967712Y-104220710D01*
X172961418Y-104207403D01*
X172956459Y-104193543D01*
X172952882Y-104179264D01*
X172950722Y-104164703D01*
X172950000Y-104150000D01*
X172950000Y-103850000D01*
X172950722Y-103835297D01*
X172952882Y-103820736D01*
X172956459Y-103806457D01*
X172961418Y-103792597D01*
X172967712Y-103779290D01*
X172975280Y-103766664D01*
X172984048Y-103754841D01*
X172993934Y-103743934D01*
X173004841Y-103734048D01*
X173016664Y-103725280D01*
X173029290Y-103717712D01*
X173042597Y-103711418D01*
X173056457Y-103706459D01*
X173070736Y-103702882D01*
X173085297Y-103700722D01*
X173100000Y-103700000D01*
X173500000Y-103700000D01*
X173514703Y-103700722D01*
G37*
G36*
X167314703Y-102300722D02*
G01*
X167329264Y-102302882D01*
X167343543Y-102306459D01*
X167357403Y-102311418D01*
X167370710Y-102317712D01*
X167383336Y-102325280D01*
X167395159Y-102334048D01*
X167406066Y-102343934D01*
X167415952Y-102354841D01*
X167424720Y-102366664D01*
X167432288Y-102379290D01*
X167438582Y-102392597D01*
X167443541Y-102406457D01*
X167447118Y-102420736D01*
X167449278Y-102435297D01*
X167450000Y-102450000D01*
X167450000Y-102750000D01*
X167449278Y-102764703D01*
X167447118Y-102779264D01*
X167443541Y-102793543D01*
X167438582Y-102807403D01*
X167432288Y-102820710D01*
X167424720Y-102833336D01*
X167415952Y-102845159D01*
X167406066Y-102856066D01*
X167395159Y-102865952D01*
X167383336Y-102874720D01*
X167370710Y-102882288D01*
X167357403Y-102888582D01*
X167343543Y-102893541D01*
X167329264Y-102897118D01*
X167314703Y-102899278D01*
X167300000Y-102900000D01*
X166900000Y-102900000D01*
X166885297Y-102899278D01*
X166870736Y-102897118D01*
X166856457Y-102893541D01*
X166842597Y-102888582D01*
X166829290Y-102882288D01*
X166816664Y-102874720D01*
X166804841Y-102865952D01*
X166793934Y-102856066D01*
X166784048Y-102845159D01*
X166775280Y-102833336D01*
X166767712Y-102820710D01*
X166761418Y-102807403D01*
X166756459Y-102793543D01*
X166752882Y-102779264D01*
X166750722Y-102764703D01*
X166750000Y-102750000D01*
X166750000Y-102450000D01*
X166750722Y-102435297D01*
X166752882Y-102420736D01*
X166756459Y-102406457D01*
X166761418Y-102392597D01*
X166767712Y-102379290D01*
X166775280Y-102366664D01*
X166784048Y-102354841D01*
X166793934Y-102343934D01*
X166804841Y-102334048D01*
X166816664Y-102325280D01*
X166829290Y-102317712D01*
X166842597Y-102311418D01*
X166856457Y-102306459D01*
X166870736Y-102302882D01*
X166885297Y-102300722D01*
X166900000Y-102300000D01*
X167300000Y-102300000D01*
X167314703Y-102300722D01*
G37*
G36*
X167314703Y-103700722D02*
G01*
X167329264Y-103702882D01*
X167343543Y-103706459D01*
X167357403Y-103711418D01*
X167370710Y-103717712D01*
X167383336Y-103725280D01*
X167395159Y-103734048D01*
X167406066Y-103743934D01*
X167415952Y-103754841D01*
X167424720Y-103766664D01*
X167432288Y-103779290D01*
X167438582Y-103792597D01*
X167443541Y-103806457D01*
X167447118Y-103820736D01*
X167449278Y-103835297D01*
X167450000Y-103850000D01*
X167450000Y-104150000D01*
X167449278Y-104164703D01*
X167447118Y-104179264D01*
X167443541Y-104193543D01*
X167438582Y-104207403D01*
X167432288Y-104220710D01*
X167424720Y-104233336D01*
X167415952Y-104245159D01*
X167406066Y-104256066D01*
X167395159Y-104265952D01*
X167383336Y-104274720D01*
X167370710Y-104282288D01*
X167357403Y-104288582D01*
X167343543Y-104293541D01*
X167329264Y-104297118D01*
X167314703Y-104299278D01*
X167300000Y-104300000D01*
X166900000Y-104300000D01*
X166885297Y-104299278D01*
X166870736Y-104297118D01*
X166856457Y-104293541D01*
X166842597Y-104288582D01*
X166829290Y-104282288D01*
X166816664Y-104274720D01*
X166804841Y-104265952D01*
X166793934Y-104256066D01*
X166784048Y-104245159D01*
X166775280Y-104233336D01*
X166767712Y-104220710D01*
X166761418Y-104207403D01*
X166756459Y-104193543D01*
X166752882Y-104179264D01*
X166750722Y-104164703D01*
X166750000Y-104150000D01*
X166750000Y-103850000D01*
X166750722Y-103835297D01*
X166752882Y-103820736D01*
X166756459Y-103806457D01*
X166761418Y-103792597D01*
X166767712Y-103779290D01*
X166775280Y-103766664D01*
X166784048Y-103754841D01*
X166793934Y-103743934D01*
X166804841Y-103734048D01*
X166816664Y-103725280D01*
X166829290Y-103717712D01*
X166842597Y-103711418D01*
X166856457Y-103706459D01*
X166870736Y-103702882D01*
X166885297Y-103700722D01*
X166900000Y-103700000D01*
X167300000Y-103700000D01*
X167314703Y-103700722D01*
G37*
G36*
X161114703Y-102300722D02*
G01*
X161129264Y-102302882D01*
X161143543Y-102306459D01*
X161157403Y-102311418D01*
X161170710Y-102317712D01*
X161183336Y-102325280D01*
X161195159Y-102334048D01*
X161206066Y-102343934D01*
X161215952Y-102354841D01*
X161224720Y-102366664D01*
X161232288Y-102379290D01*
X161238582Y-102392597D01*
X161243541Y-102406457D01*
X161247118Y-102420736D01*
X161249278Y-102435297D01*
X161250000Y-102450000D01*
X161250000Y-102750000D01*
X161249278Y-102764703D01*
X161247118Y-102779264D01*
X161243541Y-102793543D01*
X161238582Y-102807403D01*
X161232288Y-102820710D01*
X161224720Y-102833336D01*
X161215952Y-102845159D01*
X161206066Y-102856066D01*
X161195159Y-102865952D01*
X161183336Y-102874720D01*
X161170710Y-102882288D01*
X161157403Y-102888582D01*
X161143543Y-102893541D01*
X161129264Y-102897118D01*
X161114703Y-102899278D01*
X161100000Y-102900000D01*
X160700000Y-102900000D01*
X160685297Y-102899278D01*
X160670736Y-102897118D01*
X160656457Y-102893541D01*
X160642597Y-102888582D01*
X160629290Y-102882288D01*
X160616664Y-102874720D01*
X160604841Y-102865952D01*
X160593934Y-102856066D01*
X160584048Y-102845159D01*
X160575280Y-102833336D01*
X160567712Y-102820710D01*
X160561418Y-102807403D01*
X160556459Y-102793543D01*
X160552882Y-102779264D01*
X160550722Y-102764703D01*
X160550000Y-102750000D01*
X160550000Y-102450000D01*
X160550722Y-102435297D01*
X160552882Y-102420736D01*
X160556459Y-102406457D01*
X160561418Y-102392597D01*
X160567712Y-102379290D01*
X160575280Y-102366664D01*
X160584048Y-102354841D01*
X160593934Y-102343934D01*
X160604841Y-102334048D01*
X160616664Y-102325280D01*
X160629290Y-102317712D01*
X160642597Y-102311418D01*
X160656457Y-102306459D01*
X160670736Y-102302882D01*
X160685297Y-102300722D01*
X160700000Y-102300000D01*
X161100000Y-102300000D01*
X161114703Y-102300722D01*
G37*
G36*
X161114703Y-103700722D02*
G01*
X161129264Y-103702882D01*
X161143543Y-103706459D01*
X161157403Y-103711418D01*
X161170710Y-103717712D01*
X161183336Y-103725280D01*
X161195159Y-103734048D01*
X161206066Y-103743934D01*
X161215952Y-103754841D01*
X161224720Y-103766664D01*
X161232288Y-103779290D01*
X161238582Y-103792597D01*
X161243541Y-103806457D01*
X161247118Y-103820736D01*
X161249278Y-103835297D01*
X161250000Y-103850000D01*
X161250000Y-104150000D01*
X161249278Y-104164703D01*
X161247118Y-104179264D01*
X161243541Y-104193543D01*
X161238582Y-104207403D01*
X161232288Y-104220710D01*
X161224720Y-104233336D01*
X161215952Y-104245159D01*
X161206066Y-104256066D01*
X161195159Y-104265952D01*
X161183336Y-104274720D01*
X161170710Y-104282288D01*
X161157403Y-104288582D01*
X161143543Y-104293541D01*
X161129264Y-104297118D01*
X161114703Y-104299278D01*
X161100000Y-104300000D01*
X160700000Y-104300000D01*
X160685297Y-104299278D01*
X160670736Y-104297118D01*
X160656457Y-104293541D01*
X160642597Y-104288582D01*
X160629290Y-104282288D01*
X160616664Y-104274720D01*
X160604841Y-104265952D01*
X160593934Y-104256066D01*
X160584048Y-104245159D01*
X160575280Y-104233336D01*
X160567712Y-104220710D01*
X160561418Y-104207403D01*
X160556459Y-104193543D01*
X160552882Y-104179264D01*
X160550722Y-104164703D01*
X160550000Y-104150000D01*
X160550000Y-103850000D01*
X160550722Y-103835297D01*
X160552882Y-103820736D01*
X160556459Y-103806457D01*
X160561418Y-103792597D01*
X160567712Y-103779290D01*
X160575280Y-103766664D01*
X160584048Y-103754841D01*
X160593934Y-103743934D01*
X160604841Y-103734048D01*
X160616664Y-103725280D01*
X160629290Y-103717712D01*
X160642597Y-103711418D01*
X160656457Y-103706459D01*
X160670736Y-103702882D01*
X160685297Y-103700722D01*
X160700000Y-103700000D01*
X161100000Y-103700000D01*
X161114703Y-103700722D01*
G37*
G36*
X154914703Y-102300722D02*
G01*
X154929264Y-102302882D01*
X154943543Y-102306459D01*
X154957403Y-102311418D01*
X154970710Y-102317712D01*
X154983336Y-102325280D01*
X154995159Y-102334048D01*
X155006066Y-102343934D01*
X155015952Y-102354841D01*
X155024720Y-102366664D01*
X155032288Y-102379290D01*
X155038582Y-102392597D01*
X155043541Y-102406457D01*
X155047118Y-102420736D01*
X155049278Y-102435297D01*
X155050000Y-102450000D01*
X155050000Y-102750000D01*
X155049278Y-102764703D01*
X155047118Y-102779264D01*
X155043541Y-102793543D01*
X155038582Y-102807403D01*
X155032288Y-102820710D01*
X155024720Y-102833336D01*
X155015952Y-102845159D01*
X155006066Y-102856066D01*
X154995159Y-102865952D01*
X154983336Y-102874720D01*
X154970710Y-102882288D01*
X154957403Y-102888582D01*
X154943543Y-102893541D01*
X154929264Y-102897118D01*
X154914703Y-102899278D01*
X154900000Y-102900000D01*
X154500000Y-102900000D01*
X154485297Y-102899278D01*
X154470736Y-102897118D01*
X154456457Y-102893541D01*
X154442597Y-102888582D01*
X154429290Y-102882288D01*
X154416664Y-102874720D01*
X154404841Y-102865952D01*
X154393934Y-102856066D01*
X154384048Y-102845159D01*
X154375280Y-102833336D01*
X154367712Y-102820710D01*
X154361418Y-102807403D01*
X154356459Y-102793543D01*
X154352882Y-102779264D01*
X154350722Y-102764703D01*
X154350000Y-102750000D01*
X154350000Y-102450000D01*
X154350722Y-102435297D01*
X154352882Y-102420736D01*
X154356459Y-102406457D01*
X154361418Y-102392597D01*
X154367712Y-102379290D01*
X154375280Y-102366664D01*
X154384048Y-102354841D01*
X154393934Y-102343934D01*
X154404841Y-102334048D01*
X154416664Y-102325280D01*
X154429290Y-102317712D01*
X154442597Y-102311418D01*
X154456457Y-102306459D01*
X154470736Y-102302882D01*
X154485297Y-102300722D01*
X154500000Y-102300000D01*
X154900000Y-102300000D01*
X154914703Y-102300722D01*
G37*
G36*
X154914703Y-103700722D02*
G01*
X154929264Y-103702882D01*
X154943543Y-103706459D01*
X154957403Y-103711418D01*
X154970710Y-103717712D01*
X154983336Y-103725280D01*
X154995159Y-103734048D01*
X155006066Y-103743934D01*
X155015952Y-103754841D01*
X155024720Y-103766664D01*
X155032288Y-103779290D01*
X155038582Y-103792597D01*
X155043541Y-103806457D01*
X155047118Y-103820736D01*
X155049278Y-103835297D01*
X155050000Y-103850000D01*
X155050000Y-104150000D01*
X155049278Y-104164703D01*
X155047118Y-104179264D01*
X155043541Y-104193543D01*
X155038582Y-104207403D01*
X155032288Y-104220710D01*
X155024720Y-104233336D01*
X155015952Y-104245159D01*
X155006066Y-104256066D01*
X154995159Y-104265952D01*
X154983336Y-104274720D01*
X154970710Y-104282288D01*
X154957403Y-104288582D01*
X154943543Y-104293541D01*
X154929264Y-104297118D01*
X154914703Y-104299278D01*
X154900000Y-104300000D01*
X154500000Y-104300000D01*
X154485297Y-104299278D01*
X154470736Y-104297118D01*
X154456457Y-104293541D01*
X154442597Y-104288582D01*
X154429290Y-104282288D01*
X154416664Y-104274720D01*
X154404841Y-104265952D01*
X154393934Y-104256066D01*
X154384048Y-104245159D01*
X154375280Y-104233336D01*
X154367712Y-104220710D01*
X154361418Y-104207403D01*
X154356459Y-104193543D01*
X154352882Y-104179264D01*
X154350722Y-104164703D01*
X154350000Y-104150000D01*
X154350000Y-103850000D01*
X154350722Y-103835297D01*
X154352882Y-103820736D01*
X154356459Y-103806457D01*
X154361418Y-103792597D01*
X154367712Y-103779290D01*
X154375280Y-103766664D01*
X154384048Y-103754841D01*
X154393934Y-103743934D01*
X154404841Y-103734048D01*
X154416664Y-103725280D01*
X154429290Y-103717712D01*
X154442597Y-103711418D01*
X154456457Y-103706459D01*
X154470736Y-103702882D01*
X154485297Y-103700722D01*
X154500000Y-103700000D01*
X154900000Y-103700000D01*
X154914703Y-103700722D01*
G37*
G36*
X152637252Y-103225602D02*
G01*
X152649386Y-103227402D01*
X152661286Y-103230382D01*
X152672835Y-103234515D01*
X152683925Y-103239760D01*
X152694446Y-103246066D01*
X152704299Y-103253374D01*
X152713388Y-103261612D01*
X152721626Y-103270701D01*
X152728934Y-103280554D01*
X152735240Y-103291075D01*
X152740485Y-103302165D01*
X152744618Y-103313714D01*
X152747598Y-103325614D01*
X152749398Y-103337748D01*
X152750000Y-103350000D01*
X152750000Y-104350000D01*
X152749398Y-104362252D01*
X152747598Y-104374386D01*
X152744618Y-104386286D01*
X152740485Y-104397835D01*
X152735240Y-104408925D01*
X152728934Y-104419446D01*
X152721626Y-104429299D01*
X152713388Y-104438388D01*
X152704299Y-104446626D01*
X152694446Y-104453934D01*
X152683925Y-104460240D01*
X152672835Y-104465485D01*
X152661286Y-104469618D01*
X152649386Y-104472598D01*
X152637252Y-104474398D01*
X152625000Y-104475000D01*
X148625000Y-104475000D01*
X148612748Y-104474398D01*
X148600614Y-104472598D01*
X148588714Y-104469618D01*
X148577165Y-104465485D01*
X148566075Y-104460240D01*
X148555554Y-104453934D01*
X148545701Y-104446626D01*
X148536612Y-104438388D01*
X148528374Y-104429299D01*
X148521066Y-104419446D01*
X148514760Y-104408925D01*
X148509515Y-104397835D01*
X148505382Y-104386286D01*
X148502402Y-104374386D01*
X148500602Y-104362252D01*
X148500000Y-104350000D01*
X148500000Y-103350000D01*
X148500602Y-103337748D01*
X148502402Y-103325614D01*
X148505382Y-103313714D01*
X148509515Y-103302165D01*
X148514760Y-103291075D01*
X148521066Y-103280554D01*
X148528374Y-103270701D01*
X148536612Y-103261612D01*
X148545701Y-103253374D01*
X148555554Y-103246066D01*
X148566075Y-103239760D01*
X148577165Y-103234515D01*
X148588714Y-103230382D01*
X148600614Y-103227402D01*
X148612748Y-103225602D01*
X148625000Y-103225000D01*
X152625000Y-103225000D01*
X152637252Y-103225602D01*
G37*
G36*
X152659802Y-100800482D02*
G01*
X152669509Y-100801921D01*
X152679028Y-100804306D01*
X152688268Y-100807612D01*
X152697140Y-100811808D01*
X152705557Y-100816853D01*
X152713439Y-100822699D01*
X152720711Y-100829289D01*
X152727301Y-100836561D01*
X152733147Y-100844443D01*
X152738192Y-100852860D01*
X152742388Y-100861732D01*
X152745694Y-100870972D01*
X152748079Y-100880491D01*
X152749518Y-100890198D01*
X152750000Y-100900000D01*
X152750000Y-101700000D01*
X152749518Y-101709802D01*
X152748079Y-101719509D01*
X152745694Y-101729028D01*
X152742388Y-101738268D01*
X152738192Y-101747140D01*
X152733147Y-101755557D01*
X152727301Y-101763439D01*
X152720711Y-101770711D01*
X152713439Y-101777301D01*
X152705557Y-101783147D01*
X152697140Y-101788192D01*
X152688268Y-101792388D01*
X152679028Y-101795694D01*
X152669509Y-101798079D01*
X152659802Y-101799518D01*
X152650000Y-101800000D01*
X148600000Y-101800000D01*
X148590198Y-101799518D01*
X148580491Y-101798079D01*
X148570972Y-101795694D01*
X148561732Y-101792388D01*
X148552860Y-101788192D01*
X148544443Y-101783147D01*
X148536561Y-101777301D01*
X148529289Y-101770711D01*
X148522699Y-101763439D01*
X148516853Y-101755557D01*
X148511808Y-101747140D01*
X148507612Y-101738268D01*
X148504306Y-101729028D01*
X148501921Y-101719509D01*
X148500482Y-101709802D01*
X148500000Y-101700000D01*
X148500000Y-100900000D01*
X148500482Y-100890198D01*
X148501921Y-100880491D01*
X148504306Y-100870972D01*
X148507612Y-100861732D01*
X148511808Y-100852860D01*
X148516853Y-100844443D01*
X148522699Y-100836561D01*
X148529289Y-100829289D01*
X148536561Y-100822699D01*
X148544443Y-100816853D01*
X148552860Y-100811808D01*
X148561732Y-100807612D01*
X148570972Y-100804306D01*
X148580491Y-100801921D01*
X148590198Y-100800482D01*
X148600000Y-100800000D01*
X152650000Y-100800000D01*
X152659802Y-100800482D01*
G37*
G36*
X152637252Y-98125602D02*
G01*
X152649386Y-98127402D01*
X152661286Y-98130382D01*
X152672835Y-98134515D01*
X152683925Y-98139760D01*
X152694446Y-98146066D01*
X152704299Y-98153374D01*
X152713388Y-98161612D01*
X152721626Y-98170701D01*
X152728934Y-98180554D01*
X152735240Y-98191075D01*
X152740485Y-98202165D01*
X152744618Y-98213714D01*
X152747598Y-98225614D01*
X152749398Y-98237748D01*
X152750000Y-98250000D01*
X152750000Y-99250000D01*
X152749398Y-99262252D01*
X152747598Y-99274386D01*
X152744618Y-99286286D01*
X152740485Y-99297835D01*
X152735240Y-99308925D01*
X152728934Y-99319446D01*
X152721626Y-99329299D01*
X152713388Y-99338388D01*
X152704299Y-99346626D01*
X152694446Y-99353934D01*
X152683925Y-99360240D01*
X152672835Y-99365485D01*
X152661286Y-99369618D01*
X152649386Y-99372598D01*
X152637252Y-99374398D01*
X152625000Y-99375000D01*
X148625000Y-99375000D01*
X148612748Y-99374398D01*
X148600614Y-99372598D01*
X148588714Y-99369618D01*
X148577165Y-99365485D01*
X148566075Y-99360240D01*
X148555554Y-99353934D01*
X148545701Y-99346626D01*
X148536612Y-99338388D01*
X148528374Y-99329299D01*
X148521066Y-99319446D01*
X148514760Y-99308925D01*
X148509515Y-99297835D01*
X148505382Y-99286286D01*
X148502402Y-99274386D01*
X148500602Y-99262252D01*
X148500000Y-99250000D01*
X148500000Y-98250000D01*
X148500602Y-98237748D01*
X148502402Y-98225614D01*
X148505382Y-98213714D01*
X148509515Y-98202165D01*
X148514760Y-98191075D01*
X148521066Y-98180554D01*
X148528374Y-98170701D01*
X148536612Y-98161612D01*
X148545701Y-98153374D01*
X148555554Y-98146066D01*
X148566075Y-98139760D01*
X148577165Y-98134515D01*
X148588714Y-98130382D01*
X148600614Y-98127402D01*
X148612748Y-98125602D01*
X148625000Y-98125000D01*
X152625000Y-98125000D01*
X152637252Y-98125602D01*
G37*
G36*
X172652691Y-96726053D02*
G01*
X172673926Y-96729203D01*
X172694750Y-96734419D01*
X172714962Y-96741651D01*
X172734368Y-96750830D01*
X172752781Y-96761866D01*
X172770024Y-96774654D01*
X172785930Y-96789070D01*
X172800346Y-96804976D01*
X172813134Y-96822219D01*
X172824170Y-96840632D01*
X172833349Y-96860038D01*
X172840581Y-96880250D01*
X172845797Y-96901074D01*
X172848947Y-96922309D01*
X172850000Y-96943750D01*
X172850000Y-97456250D01*
X172848947Y-97477691D01*
X172845797Y-97498926D01*
X172840581Y-97519750D01*
X172833349Y-97539962D01*
X172824170Y-97559368D01*
X172813134Y-97577781D01*
X172800346Y-97595024D01*
X172785930Y-97610930D01*
X172770024Y-97625346D01*
X172752781Y-97638134D01*
X172734368Y-97649170D01*
X172714962Y-97658349D01*
X172694750Y-97665581D01*
X172673926Y-97670797D01*
X172652691Y-97673947D01*
X172631250Y-97675000D01*
X172193750Y-97675000D01*
X172172309Y-97673947D01*
X172151074Y-97670797D01*
X172130250Y-97665581D01*
X172110038Y-97658349D01*
X172090632Y-97649170D01*
X172072219Y-97638134D01*
X172054976Y-97625346D01*
X172039070Y-97610930D01*
X172024654Y-97595024D01*
X172011866Y-97577781D01*
X172000830Y-97559368D01*
X171991651Y-97539962D01*
X171984419Y-97519750D01*
X171979203Y-97498926D01*
X171976053Y-97477691D01*
X171975000Y-97456250D01*
X171975000Y-96943750D01*
X171976053Y-96922309D01*
X171979203Y-96901074D01*
X171984419Y-96880250D01*
X171991651Y-96860038D01*
X172000830Y-96840632D01*
X172011866Y-96822219D01*
X172024654Y-96804976D01*
X172039070Y-96789070D01*
X172054976Y-96774654D01*
X172072219Y-96761866D01*
X172090632Y-96750830D01*
X172110038Y-96741651D01*
X172130250Y-96734419D01*
X172151074Y-96729203D01*
X172172309Y-96726053D01*
X172193750Y-96725000D01*
X172631250Y-96725000D01*
X172652691Y-96726053D01*
G37*
G36*
X174227691Y-96726053D02*
G01*
X174248926Y-96729203D01*
X174269750Y-96734419D01*
X174289962Y-96741651D01*
X174309368Y-96750830D01*
X174327781Y-96761866D01*
X174345024Y-96774654D01*
X174360930Y-96789070D01*
X174375346Y-96804976D01*
X174388134Y-96822219D01*
X174399170Y-96840632D01*
X174408349Y-96860038D01*
X174415581Y-96880250D01*
X174420797Y-96901074D01*
X174423947Y-96922309D01*
X174425000Y-96943750D01*
X174425000Y-97456250D01*
X174423947Y-97477691D01*
X174420797Y-97498926D01*
X174415581Y-97519750D01*
X174408349Y-97539962D01*
X174399170Y-97559368D01*
X174388134Y-97577781D01*
X174375346Y-97595024D01*
X174360930Y-97610930D01*
X174345024Y-97625346D01*
X174327781Y-97638134D01*
X174309368Y-97649170D01*
X174289962Y-97658349D01*
X174269750Y-97665581D01*
X174248926Y-97670797D01*
X174227691Y-97673947D01*
X174206250Y-97675000D01*
X173768750Y-97675000D01*
X173747309Y-97673947D01*
X173726074Y-97670797D01*
X173705250Y-97665581D01*
X173685038Y-97658349D01*
X173665632Y-97649170D01*
X173647219Y-97638134D01*
X173629976Y-97625346D01*
X173614070Y-97610930D01*
X173599654Y-97595024D01*
X173586866Y-97577781D01*
X173575830Y-97559368D01*
X173566651Y-97539962D01*
X173559419Y-97519750D01*
X173554203Y-97498926D01*
X173551053Y-97477691D01*
X173550000Y-97456250D01*
X173550000Y-96943750D01*
X173551053Y-96922309D01*
X173554203Y-96901074D01*
X173559419Y-96880250D01*
X173566651Y-96860038D01*
X173575830Y-96840632D01*
X173586866Y-96822219D01*
X173599654Y-96804976D01*
X173614070Y-96789070D01*
X173629976Y-96774654D01*
X173647219Y-96761866D01*
X173665632Y-96750830D01*
X173685038Y-96741651D01*
X173705250Y-96734419D01*
X173726074Y-96729203D01*
X173747309Y-96726053D01*
X173768750Y-96725000D01*
X174206250Y-96725000D01*
X174227691Y-96726053D01*
G37*
G36*
X171927691Y-103426053D02*
G01*
X171948926Y-103429203D01*
X171969750Y-103434419D01*
X171989962Y-103441651D01*
X172009368Y-103450830D01*
X172027781Y-103461866D01*
X172045024Y-103474654D01*
X172060930Y-103489070D01*
X172075346Y-103504976D01*
X172088134Y-103522219D01*
X172099170Y-103540632D01*
X172108349Y-103560038D01*
X172115581Y-103580250D01*
X172120797Y-103601074D01*
X172123947Y-103622309D01*
X172125000Y-103643750D01*
X172125000Y-104156250D01*
X172123947Y-104177691D01*
X172120797Y-104198926D01*
X172115581Y-104219750D01*
X172108349Y-104239962D01*
X172099170Y-104259368D01*
X172088134Y-104277781D01*
X172075346Y-104295024D01*
X172060930Y-104310930D01*
X172045024Y-104325346D01*
X172027781Y-104338134D01*
X172009368Y-104349170D01*
X171989962Y-104358349D01*
X171969750Y-104365581D01*
X171948926Y-104370797D01*
X171927691Y-104373947D01*
X171906250Y-104375000D01*
X171468750Y-104375000D01*
X171447309Y-104373947D01*
X171426074Y-104370797D01*
X171405250Y-104365581D01*
X171385038Y-104358349D01*
X171365632Y-104349170D01*
X171347219Y-104338134D01*
X171329976Y-104325346D01*
X171314070Y-104310930D01*
X171299654Y-104295024D01*
X171286866Y-104277781D01*
X171275830Y-104259368D01*
X171266651Y-104239962D01*
X171259419Y-104219750D01*
X171254203Y-104198926D01*
X171251053Y-104177691D01*
X171250000Y-104156250D01*
X171250000Y-103643750D01*
X171251053Y-103622309D01*
X171254203Y-103601074D01*
X171259419Y-103580250D01*
X171266651Y-103560038D01*
X171275830Y-103540632D01*
X171286866Y-103522219D01*
X171299654Y-103504976D01*
X171314070Y-103489070D01*
X171329976Y-103474654D01*
X171347219Y-103461866D01*
X171365632Y-103450830D01*
X171385038Y-103441651D01*
X171405250Y-103434419D01*
X171426074Y-103429203D01*
X171447309Y-103426053D01*
X171468750Y-103425000D01*
X171906250Y-103425000D01*
X171927691Y-103426053D01*
G37*
G36*
X170352691Y-103426053D02*
G01*
X170373926Y-103429203D01*
X170394750Y-103434419D01*
X170414962Y-103441651D01*
X170434368Y-103450830D01*
X170452781Y-103461866D01*
X170470024Y-103474654D01*
X170485930Y-103489070D01*
X170500346Y-103504976D01*
X170513134Y-103522219D01*
X170524170Y-103540632D01*
X170533349Y-103560038D01*
X170540581Y-103580250D01*
X170545797Y-103601074D01*
X170548947Y-103622309D01*
X170550000Y-103643750D01*
X170550000Y-104156250D01*
X170548947Y-104177691D01*
X170545797Y-104198926D01*
X170540581Y-104219750D01*
X170533349Y-104239962D01*
X170524170Y-104259368D01*
X170513134Y-104277781D01*
X170500346Y-104295024D01*
X170485930Y-104310930D01*
X170470024Y-104325346D01*
X170452781Y-104338134D01*
X170434368Y-104349170D01*
X170414962Y-104358349D01*
X170394750Y-104365581D01*
X170373926Y-104370797D01*
X170352691Y-104373947D01*
X170331250Y-104375000D01*
X169893750Y-104375000D01*
X169872309Y-104373947D01*
X169851074Y-104370797D01*
X169830250Y-104365581D01*
X169810038Y-104358349D01*
X169790632Y-104349170D01*
X169772219Y-104338134D01*
X169754976Y-104325346D01*
X169739070Y-104310930D01*
X169724654Y-104295024D01*
X169711866Y-104277781D01*
X169700830Y-104259368D01*
X169691651Y-104239962D01*
X169684419Y-104219750D01*
X169679203Y-104198926D01*
X169676053Y-104177691D01*
X169675000Y-104156250D01*
X169675000Y-103643750D01*
X169676053Y-103622309D01*
X169679203Y-103601074D01*
X169684419Y-103580250D01*
X169691651Y-103560038D01*
X169700830Y-103540632D01*
X169711866Y-103522219D01*
X169724654Y-103504976D01*
X169739070Y-103489070D01*
X169754976Y-103474654D01*
X169772219Y-103461866D01*
X169790632Y-103450830D01*
X169810038Y-103441651D01*
X169830250Y-103434419D01*
X169851074Y-103429203D01*
X169872309Y-103426053D01*
X169893750Y-103425000D01*
X170331250Y-103425000D01*
X170352691Y-103426053D01*
G37*
G36*
X169552691Y-96726053D02*
G01*
X169573926Y-96729203D01*
X169594750Y-96734419D01*
X169614962Y-96741651D01*
X169634368Y-96750830D01*
X169652781Y-96761866D01*
X169670024Y-96774654D01*
X169685930Y-96789070D01*
X169700346Y-96804976D01*
X169713134Y-96822219D01*
X169724170Y-96840632D01*
X169733349Y-96860038D01*
X169740581Y-96880250D01*
X169745797Y-96901074D01*
X169748947Y-96922309D01*
X169750000Y-96943750D01*
X169750000Y-97456250D01*
X169748947Y-97477691D01*
X169745797Y-97498926D01*
X169740581Y-97519750D01*
X169733349Y-97539962D01*
X169724170Y-97559368D01*
X169713134Y-97577781D01*
X169700346Y-97595024D01*
X169685930Y-97610930D01*
X169670024Y-97625346D01*
X169652781Y-97638134D01*
X169634368Y-97649170D01*
X169614962Y-97658349D01*
X169594750Y-97665581D01*
X169573926Y-97670797D01*
X169552691Y-97673947D01*
X169531250Y-97675000D01*
X169093750Y-97675000D01*
X169072309Y-97673947D01*
X169051074Y-97670797D01*
X169030250Y-97665581D01*
X169010038Y-97658349D01*
X168990632Y-97649170D01*
X168972219Y-97638134D01*
X168954976Y-97625346D01*
X168939070Y-97610930D01*
X168924654Y-97595024D01*
X168911866Y-97577781D01*
X168900830Y-97559368D01*
X168891651Y-97539962D01*
X168884419Y-97519750D01*
X168879203Y-97498926D01*
X168876053Y-97477691D01*
X168875000Y-97456250D01*
X168875000Y-96943750D01*
X168876053Y-96922309D01*
X168879203Y-96901074D01*
X168884419Y-96880250D01*
X168891651Y-96860038D01*
X168900830Y-96840632D01*
X168911866Y-96822219D01*
X168924654Y-96804976D01*
X168939070Y-96789070D01*
X168954976Y-96774654D01*
X168972219Y-96761866D01*
X168990632Y-96750830D01*
X169010038Y-96741651D01*
X169030250Y-96734419D01*
X169051074Y-96729203D01*
X169072309Y-96726053D01*
X169093750Y-96725000D01*
X169531250Y-96725000D01*
X169552691Y-96726053D01*
G37*
G36*
X171127691Y-96726053D02*
G01*
X171148926Y-96729203D01*
X171169750Y-96734419D01*
X171189962Y-96741651D01*
X171209368Y-96750830D01*
X171227781Y-96761866D01*
X171245024Y-96774654D01*
X171260930Y-96789070D01*
X171275346Y-96804976D01*
X171288134Y-96822219D01*
X171299170Y-96840632D01*
X171308349Y-96860038D01*
X171315581Y-96880250D01*
X171320797Y-96901074D01*
X171323947Y-96922309D01*
X171325000Y-96943750D01*
X171325000Y-97456250D01*
X171323947Y-97477691D01*
X171320797Y-97498926D01*
X171315581Y-97519750D01*
X171308349Y-97539962D01*
X171299170Y-97559368D01*
X171288134Y-97577781D01*
X171275346Y-97595024D01*
X171260930Y-97610930D01*
X171245024Y-97625346D01*
X171227781Y-97638134D01*
X171209368Y-97649170D01*
X171189962Y-97658349D01*
X171169750Y-97665581D01*
X171148926Y-97670797D01*
X171127691Y-97673947D01*
X171106250Y-97675000D01*
X170668750Y-97675000D01*
X170647309Y-97673947D01*
X170626074Y-97670797D01*
X170605250Y-97665581D01*
X170585038Y-97658349D01*
X170565632Y-97649170D01*
X170547219Y-97638134D01*
X170529976Y-97625346D01*
X170514070Y-97610930D01*
X170499654Y-97595024D01*
X170486866Y-97577781D01*
X170475830Y-97559368D01*
X170466651Y-97539962D01*
X170459419Y-97519750D01*
X170454203Y-97498926D01*
X170451053Y-97477691D01*
X170450000Y-97456250D01*
X170450000Y-96943750D01*
X170451053Y-96922309D01*
X170454203Y-96901074D01*
X170459419Y-96880250D01*
X170466651Y-96860038D01*
X170475830Y-96840632D01*
X170486866Y-96822219D01*
X170499654Y-96804976D01*
X170514070Y-96789070D01*
X170529976Y-96774654D01*
X170547219Y-96761866D01*
X170565632Y-96750830D01*
X170585038Y-96741651D01*
X170605250Y-96734419D01*
X170626074Y-96729203D01*
X170647309Y-96726053D01*
X170668750Y-96725000D01*
X171106250Y-96725000D01*
X171127691Y-96726053D01*
G37*
G36*
X166452691Y-96726053D02*
G01*
X166473926Y-96729203D01*
X166494750Y-96734419D01*
X166514962Y-96741651D01*
X166534368Y-96750830D01*
X166552781Y-96761866D01*
X166570024Y-96774654D01*
X166585930Y-96789070D01*
X166600346Y-96804976D01*
X166613134Y-96822219D01*
X166624170Y-96840632D01*
X166633349Y-96860038D01*
X166640581Y-96880250D01*
X166645797Y-96901074D01*
X166648947Y-96922309D01*
X166650000Y-96943750D01*
X166650000Y-97456250D01*
X166648947Y-97477691D01*
X166645797Y-97498926D01*
X166640581Y-97519750D01*
X166633349Y-97539962D01*
X166624170Y-97559368D01*
X166613134Y-97577781D01*
X166600346Y-97595024D01*
X166585930Y-97610930D01*
X166570024Y-97625346D01*
X166552781Y-97638134D01*
X166534368Y-97649170D01*
X166514962Y-97658349D01*
X166494750Y-97665581D01*
X166473926Y-97670797D01*
X166452691Y-97673947D01*
X166431250Y-97675000D01*
X165993750Y-97675000D01*
X165972309Y-97673947D01*
X165951074Y-97670797D01*
X165930250Y-97665581D01*
X165910038Y-97658349D01*
X165890632Y-97649170D01*
X165872219Y-97638134D01*
X165854976Y-97625346D01*
X165839070Y-97610930D01*
X165824654Y-97595024D01*
X165811866Y-97577781D01*
X165800830Y-97559368D01*
X165791651Y-97539962D01*
X165784419Y-97519750D01*
X165779203Y-97498926D01*
X165776053Y-97477691D01*
X165775000Y-97456250D01*
X165775000Y-96943750D01*
X165776053Y-96922309D01*
X165779203Y-96901074D01*
X165784419Y-96880250D01*
X165791651Y-96860038D01*
X165800830Y-96840632D01*
X165811866Y-96822219D01*
X165824654Y-96804976D01*
X165839070Y-96789070D01*
X165854976Y-96774654D01*
X165872219Y-96761866D01*
X165890632Y-96750830D01*
X165910038Y-96741651D01*
X165930250Y-96734419D01*
X165951074Y-96729203D01*
X165972309Y-96726053D01*
X165993750Y-96725000D01*
X166431250Y-96725000D01*
X166452691Y-96726053D01*
G37*
G36*
X168027691Y-96726053D02*
G01*
X168048926Y-96729203D01*
X168069750Y-96734419D01*
X168089962Y-96741651D01*
X168109368Y-96750830D01*
X168127781Y-96761866D01*
X168145024Y-96774654D01*
X168160930Y-96789070D01*
X168175346Y-96804976D01*
X168188134Y-96822219D01*
X168199170Y-96840632D01*
X168208349Y-96860038D01*
X168215581Y-96880250D01*
X168220797Y-96901074D01*
X168223947Y-96922309D01*
X168225000Y-96943750D01*
X168225000Y-97456250D01*
X168223947Y-97477691D01*
X168220797Y-97498926D01*
X168215581Y-97519750D01*
X168208349Y-97539962D01*
X168199170Y-97559368D01*
X168188134Y-97577781D01*
X168175346Y-97595024D01*
X168160930Y-97610930D01*
X168145024Y-97625346D01*
X168127781Y-97638134D01*
X168109368Y-97649170D01*
X168089962Y-97658349D01*
X168069750Y-97665581D01*
X168048926Y-97670797D01*
X168027691Y-97673947D01*
X168006250Y-97675000D01*
X167568750Y-97675000D01*
X167547309Y-97673947D01*
X167526074Y-97670797D01*
X167505250Y-97665581D01*
X167485038Y-97658349D01*
X167465632Y-97649170D01*
X167447219Y-97638134D01*
X167429976Y-97625346D01*
X167414070Y-97610930D01*
X167399654Y-97595024D01*
X167386866Y-97577781D01*
X167375830Y-97559368D01*
X167366651Y-97539962D01*
X167359419Y-97519750D01*
X167354203Y-97498926D01*
X167351053Y-97477691D01*
X167350000Y-97456250D01*
X167350000Y-96943750D01*
X167351053Y-96922309D01*
X167354203Y-96901074D01*
X167359419Y-96880250D01*
X167366651Y-96860038D01*
X167375830Y-96840632D01*
X167386866Y-96822219D01*
X167399654Y-96804976D01*
X167414070Y-96789070D01*
X167429976Y-96774654D01*
X167447219Y-96761866D01*
X167465632Y-96750830D01*
X167485038Y-96741651D01*
X167505250Y-96734419D01*
X167526074Y-96729203D01*
X167547309Y-96726053D01*
X167568750Y-96725000D01*
X168006250Y-96725000D01*
X168027691Y-96726053D01*
G37*
G36*
X164152691Y-103426053D02*
G01*
X164173926Y-103429203D01*
X164194750Y-103434419D01*
X164214962Y-103441651D01*
X164234368Y-103450830D01*
X164252781Y-103461866D01*
X164270024Y-103474654D01*
X164285930Y-103489070D01*
X164300346Y-103504976D01*
X164313134Y-103522219D01*
X164324170Y-103540632D01*
X164333349Y-103560038D01*
X164340581Y-103580250D01*
X164345797Y-103601074D01*
X164348947Y-103622309D01*
X164350000Y-103643750D01*
X164350000Y-104156250D01*
X164348947Y-104177691D01*
X164345797Y-104198926D01*
X164340581Y-104219750D01*
X164333349Y-104239962D01*
X164324170Y-104259368D01*
X164313134Y-104277781D01*
X164300346Y-104295024D01*
X164285930Y-104310930D01*
X164270024Y-104325346D01*
X164252781Y-104338134D01*
X164234368Y-104349170D01*
X164214962Y-104358349D01*
X164194750Y-104365581D01*
X164173926Y-104370797D01*
X164152691Y-104373947D01*
X164131250Y-104375000D01*
X163693750Y-104375000D01*
X163672309Y-104373947D01*
X163651074Y-104370797D01*
X163630250Y-104365581D01*
X163610038Y-104358349D01*
X163590632Y-104349170D01*
X163572219Y-104338134D01*
X163554976Y-104325346D01*
X163539070Y-104310930D01*
X163524654Y-104295024D01*
X163511866Y-104277781D01*
X163500830Y-104259368D01*
X163491651Y-104239962D01*
X163484419Y-104219750D01*
X163479203Y-104198926D01*
X163476053Y-104177691D01*
X163475000Y-104156250D01*
X163475000Y-103643750D01*
X163476053Y-103622309D01*
X163479203Y-103601074D01*
X163484419Y-103580250D01*
X163491651Y-103560038D01*
X163500830Y-103540632D01*
X163511866Y-103522219D01*
X163524654Y-103504976D01*
X163539070Y-103489070D01*
X163554976Y-103474654D01*
X163572219Y-103461866D01*
X163590632Y-103450830D01*
X163610038Y-103441651D01*
X163630250Y-103434419D01*
X163651074Y-103429203D01*
X163672309Y-103426053D01*
X163693750Y-103425000D01*
X164131250Y-103425000D01*
X164152691Y-103426053D01*
G37*
G36*
X165727691Y-103426053D02*
G01*
X165748926Y-103429203D01*
X165769750Y-103434419D01*
X165789962Y-103441651D01*
X165809368Y-103450830D01*
X165827781Y-103461866D01*
X165845024Y-103474654D01*
X165860930Y-103489070D01*
X165875346Y-103504976D01*
X165888134Y-103522219D01*
X165899170Y-103540632D01*
X165908349Y-103560038D01*
X165915581Y-103580250D01*
X165920797Y-103601074D01*
X165923947Y-103622309D01*
X165925000Y-103643750D01*
X165925000Y-104156250D01*
X165923947Y-104177691D01*
X165920797Y-104198926D01*
X165915581Y-104219750D01*
X165908349Y-104239962D01*
X165899170Y-104259368D01*
X165888134Y-104277781D01*
X165875346Y-104295024D01*
X165860930Y-104310930D01*
X165845024Y-104325346D01*
X165827781Y-104338134D01*
X165809368Y-104349170D01*
X165789962Y-104358349D01*
X165769750Y-104365581D01*
X165748926Y-104370797D01*
X165727691Y-104373947D01*
X165706250Y-104375000D01*
X165268750Y-104375000D01*
X165247309Y-104373947D01*
X165226074Y-104370797D01*
X165205250Y-104365581D01*
X165185038Y-104358349D01*
X165165632Y-104349170D01*
X165147219Y-104338134D01*
X165129976Y-104325346D01*
X165114070Y-104310930D01*
X165099654Y-104295024D01*
X165086866Y-104277781D01*
X165075830Y-104259368D01*
X165066651Y-104239962D01*
X165059419Y-104219750D01*
X165054203Y-104198926D01*
X165051053Y-104177691D01*
X165050000Y-104156250D01*
X165050000Y-103643750D01*
X165051053Y-103622309D01*
X165054203Y-103601074D01*
X165059419Y-103580250D01*
X165066651Y-103560038D01*
X165075830Y-103540632D01*
X165086866Y-103522219D01*
X165099654Y-103504976D01*
X165114070Y-103489070D01*
X165129976Y-103474654D01*
X165147219Y-103461866D01*
X165165632Y-103450830D01*
X165185038Y-103441651D01*
X165205250Y-103434419D01*
X165226074Y-103429203D01*
X165247309Y-103426053D01*
X165268750Y-103425000D01*
X165706250Y-103425000D01*
X165727691Y-103426053D01*
G37*
G36*
X164927691Y-96726053D02*
G01*
X164948926Y-96729203D01*
X164969750Y-96734419D01*
X164989962Y-96741651D01*
X165009368Y-96750830D01*
X165027781Y-96761866D01*
X165045024Y-96774654D01*
X165060930Y-96789070D01*
X165075346Y-96804976D01*
X165088134Y-96822219D01*
X165099170Y-96840632D01*
X165108349Y-96860038D01*
X165115581Y-96880250D01*
X165120797Y-96901074D01*
X165123947Y-96922309D01*
X165125000Y-96943750D01*
X165125000Y-97456250D01*
X165123947Y-97477691D01*
X165120797Y-97498926D01*
X165115581Y-97519750D01*
X165108349Y-97539962D01*
X165099170Y-97559368D01*
X165088134Y-97577781D01*
X165075346Y-97595024D01*
X165060930Y-97610930D01*
X165045024Y-97625346D01*
X165027781Y-97638134D01*
X165009368Y-97649170D01*
X164989962Y-97658349D01*
X164969750Y-97665581D01*
X164948926Y-97670797D01*
X164927691Y-97673947D01*
X164906250Y-97675000D01*
X164468750Y-97675000D01*
X164447309Y-97673947D01*
X164426074Y-97670797D01*
X164405250Y-97665581D01*
X164385038Y-97658349D01*
X164365632Y-97649170D01*
X164347219Y-97638134D01*
X164329976Y-97625346D01*
X164314070Y-97610930D01*
X164299654Y-97595024D01*
X164286866Y-97577781D01*
X164275830Y-97559368D01*
X164266651Y-97539962D01*
X164259419Y-97519750D01*
X164254203Y-97498926D01*
X164251053Y-97477691D01*
X164250000Y-97456250D01*
X164250000Y-96943750D01*
X164251053Y-96922309D01*
X164254203Y-96901074D01*
X164259419Y-96880250D01*
X164266651Y-96860038D01*
X164275830Y-96840632D01*
X164286866Y-96822219D01*
X164299654Y-96804976D01*
X164314070Y-96789070D01*
X164329976Y-96774654D01*
X164347219Y-96761866D01*
X164365632Y-96750830D01*
X164385038Y-96741651D01*
X164405250Y-96734419D01*
X164426074Y-96729203D01*
X164447309Y-96726053D01*
X164468750Y-96725000D01*
X164906250Y-96725000D01*
X164927691Y-96726053D01*
G37*
G36*
X163352691Y-96726053D02*
G01*
X163373926Y-96729203D01*
X163394750Y-96734419D01*
X163414962Y-96741651D01*
X163434368Y-96750830D01*
X163452781Y-96761866D01*
X163470024Y-96774654D01*
X163485930Y-96789070D01*
X163500346Y-96804976D01*
X163513134Y-96822219D01*
X163524170Y-96840632D01*
X163533349Y-96860038D01*
X163540581Y-96880250D01*
X163545797Y-96901074D01*
X163548947Y-96922309D01*
X163550000Y-96943750D01*
X163550000Y-97456250D01*
X163548947Y-97477691D01*
X163545797Y-97498926D01*
X163540581Y-97519750D01*
X163533349Y-97539962D01*
X163524170Y-97559368D01*
X163513134Y-97577781D01*
X163500346Y-97595024D01*
X163485930Y-97610930D01*
X163470024Y-97625346D01*
X163452781Y-97638134D01*
X163434368Y-97649170D01*
X163414962Y-97658349D01*
X163394750Y-97665581D01*
X163373926Y-97670797D01*
X163352691Y-97673947D01*
X163331250Y-97675000D01*
X162893750Y-97675000D01*
X162872309Y-97673947D01*
X162851074Y-97670797D01*
X162830250Y-97665581D01*
X162810038Y-97658349D01*
X162790632Y-97649170D01*
X162772219Y-97638134D01*
X162754976Y-97625346D01*
X162739070Y-97610930D01*
X162724654Y-97595024D01*
X162711866Y-97577781D01*
X162700830Y-97559368D01*
X162691651Y-97539962D01*
X162684419Y-97519750D01*
X162679203Y-97498926D01*
X162676053Y-97477691D01*
X162675000Y-97456250D01*
X162675000Y-96943750D01*
X162676053Y-96922309D01*
X162679203Y-96901074D01*
X162684419Y-96880250D01*
X162691651Y-96860038D01*
X162700830Y-96840632D01*
X162711866Y-96822219D01*
X162724654Y-96804976D01*
X162739070Y-96789070D01*
X162754976Y-96774654D01*
X162772219Y-96761866D01*
X162790632Y-96750830D01*
X162810038Y-96741651D01*
X162830250Y-96734419D01*
X162851074Y-96729203D01*
X162872309Y-96726053D01*
X162893750Y-96725000D01*
X163331250Y-96725000D01*
X163352691Y-96726053D01*
G37*
G36*
X161827691Y-96726053D02*
G01*
X161848926Y-96729203D01*
X161869750Y-96734419D01*
X161889962Y-96741651D01*
X161909368Y-96750830D01*
X161927781Y-96761866D01*
X161945024Y-96774654D01*
X161960930Y-96789070D01*
X161975346Y-96804976D01*
X161988134Y-96822219D01*
X161999170Y-96840632D01*
X162008349Y-96860038D01*
X162015581Y-96880250D01*
X162020797Y-96901074D01*
X162023947Y-96922309D01*
X162025000Y-96943750D01*
X162025000Y-97456250D01*
X162023947Y-97477691D01*
X162020797Y-97498926D01*
X162015581Y-97519750D01*
X162008349Y-97539962D01*
X161999170Y-97559368D01*
X161988134Y-97577781D01*
X161975346Y-97595024D01*
X161960930Y-97610930D01*
X161945024Y-97625346D01*
X161927781Y-97638134D01*
X161909368Y-97649170D01*
X161889962Y-97658349D01*
X161869750Y-97665581D01*
X161848926Y-97670797D01*
X161827691Y-97673947D01*
X161806250Y-97675000D01*
X161368750Y-97675000D01*
X161347309Y-97673947D01*
X161326074Y-97670797D01*
X161305250Y-97665581D01*
X161285038Y-97658349D01*
X161265632Y-97649170D01*
X161247219Y-97638134D01*
X161229976Y-97625346D01*
X161214070Y-97610930D01*
X161199654Y-97595024D01*
X161186866Y-97577781D01*
X161175830Y-97559368D01*
X161166651Y-97539962D01*
X161159419Y-97519750D01*
X161154203Y-97498926D01*
X161151053Y-97477691D01*
X161150000Y-97456250D01*
X161150000Y-96943750D01*
X161151053Y-96922309D01*
X161154203Y-96901074D01*
X161159419Y-96880250D01*
X161166651Y-96860038D01*
X161175830Y-96840632D01*
X161186866Y-96822219D01*
X161199654Y-96804976D01*
X161214070Y-96789070D01*
X161229976Y-96774654D01*
X161247219Y-96761866D01*
X161265632Y-96750830D01*
X161285038Y-96741651D01*
X161305250Y-96734419D01*
X161326074Y-96729203D01*
X161347309Y-96726053D01*
X161368750Y-96725000D01*
X161806250Y-96725000D01*
X161827691Y-96726053D01*
G37*
G36*
X160252691Y-96726053D02*
G01*
X160273926Y-96729203D01*
X160294750Y-96734419D01*
X160314962Y-96741651D01*
X160334368Y-96750830D01*
X160352781Y-96761866D01*
X160370024Y-96774654D01*
X160385930Y-96789070D01*
X160400346Y-96804976D01*
X160413134Y-96822219D01*
X160424170Y-96840632D01*
X160433349Y-96860038D01*
X160440581Y-96880250D01*
X160445797Y-96901074D01*
X160448947Y-96922309D01*
X160450000Y-96943750D01*
X160450000Y-97456250D01*
X160448947Y-97477691D01*
X160445797Y-97498926D01*
X160440581Y-97519750D01*
X160433349Y-97539962D01*
X160424170Y-97559368D01*
X160413134Y-97577781D01*
X160400346Y-97595024D01*
X160385930Y-97610930D01*
X160370024Y-97625346D01*
X160352781Y-97638134D01*
X160334368Y-97649170D01*
X160314962Y-97658349D01*
X160294750Y-97665581D01*
X160273926Y-97670797D01*
X160252691Y-97673947D01*
X160231250Y-97675000D01*
X159793750Y-97675000D01*
X159772309Y-97673947D01*
X159751074Y-97670797D01*
X159730250Y-97665581D01*
X159710038Y-97658349D01*
X159690632Y-97649170D01*
X159672219Y-97638134D01*
X159654976Y-97625346D01*
X159639070Y-97610930D01*
X159624654Y-97595024D01*
X159611866Y-97577781D01*
X159600830Y-97559368D01*
X159591651Y-97539962D01*
X159584419Y-97519750D01*
X159579203Y-97498926D01*
X159576053Y-97477691D01*
X159575000Y-97456250D01*
X159575000Y-96943750D01*
X159576053Y-96922309D01*
X159579203Y-96901074D01*
X159584419Y-96880250D01*
X159591651Y-96860038D01*
X159600830Y-96840632D01*
X159611866Y-96822219D01*
X159624654Y-96804976D01*
X159639070Y-96789070D01*
X159654976Y-96774654D01*
X159672219Y-96761866D01*
X159690632Y-96750830D01*
X159710038Y-96741651D01*
X159730250Y-96734419D01*
X159751074Y-96729203D01*
X159772309Y-96726053D01*
X159793750Y-96725000D01*
X160231250Y-96725000D01*
X160252691Y-96726053D01*
G37*
G36*
X157952691Y-103426053D02*
G01*
X157973926Y-103429203D01*
X157994750Y-103434419D01*
X158014962Y-103441651D01*
X158034368Y-103450830D01*
X158052781Y-103461866D01*
X158070024Y-103474654D01*
X158085930Y-103489070D01*
X158100346Y-103504976D01*
X158113134Y-103522219D01*
X158124170Y-103540632D01*
X158133349Y-103560038D01*
X158140581Y-103580250D01*
X158145797Y-103601074D01*
X158148947Y-103622309D01*
X158150000Y-103643750D01*
X158150000Y-104156250D01*
X158148947Y-104177691D01*
X158145797Y-104198926D01*
X158140581Y-104219750D01*
X158133349Y-104239962D01*
X158124170Y-104259368D01*
X158113134Y-104277781D01*
X158100346Y-104295024D01*
X158085930Y-104310930D01*
X158070024Y-104325346D01*
X158052781Y-104338134D01*
X158034368Y-104349170D01*
X158014962Y-104358349D01*
X157994750Y-104365581D01*
X157973926Y-104370797D01*
X157952691Y-104373947D01*
X157931250Y-104375000D01*
X157493750Y-104375000D01*
X157472309Y-104373947D01*
X157451074Y-104370797D01*
X157430250Y-104365581D01*
X157410038Y-104358349D01*
X157390632Y-104349170D01*
X157372219Y-104338134D01*
X157354976Y-104325346D01*
X157339070Y-104310930D01*
X157324654Y-104295024D01*
X157311866Y-104277781D01*
X157300830Y-104259368D01*
X157291651Y-104239962D01*
X157284419Y-104219750D01*
X157279203Y-104198926D01*
X157276053Y-104177691D01*
X157275000Y-104156250D01*
X157275000Y-103643750D01*
X157276053Y-103622309D01*
X157279203Y-103601074D01*
X157284419Y-103580250D01*
X157291651Y-103560038D01*
X157300830Y-103540632D01*
X157311866Y-103522219D01*
X157324654Y-103504976D01*
X157339070Y-103489070D01*
X157354976Y-103474654D01*
X157372219Y-103461866D01*
X157390632Y-103450830D01*
X157410038Y-103441651D01*
X157430250Y-103434419D01*
X157451074Y-103429203D01*
X157472309Y-103426053D01*
X157493750Y-103425000D01*
X157931250Y-103425000D01*
X157952691Y-103426053D01*
G37*
G36*
X159527691Y-103426053D02*
G01*
X159548926Y-103429203D01*
X159569750Y-103434419D01*
X159589962Y-103441651D01*
X159609368Y-103450830D01*
X159627781Y-103461866D01*
X159645024Y-103474654D01*
X159660930Y-103489070D01*
X159675346Y-103504976D01*
X159688134Y-103522219D01*
X159699170Y-103540632D01*
X159708349Y-103560038D01*
X159715581Y-103580250D01*
X159720797Y-103601074D01*
X159723947Y-103622309D01*
X159725000Y-103643750D01*
X159725000Y-104156250D01*
X159723947Y-104177691D01*
X159720797Y-104198926D01*
X159715581Y-104219750D01*
X159708349Y-104239962D01*
X159699170Y-104259368D01*
X159688134Y-104277781D01*
X159675346Y-104295024D01*
X159660930Y-104310930D01*
X159645024Y-104325346D01*
X159627781Y-104338134D01*
X159609368Y-104349170D01*
X159589962Y-104358349D01*
X159569750Y-104365581D01*
X159548926Y-104370797D01*
X159527691Y-104373947D01*
X159506250Y-104375000D01*
X159068750Y-104375000D01*
X159047309Y-104373947D01*
X159026074Y-104370797D01*
X159005250Y-104365581D01*
X158985038Y-104358349D01*
X158965632Y-104349170D01*
X158947219Y-104338134D01*
X158929976Y-104325346D01*
X158914070Y-104310930D01*
X158899654Y-104295024D01*
X158886866Y-104277781D01*
X158875830Y-104259368D01*
X158866651Y-104239962D01*
X158859419Y-104219750D01*
X158854203Y-104198926D01*
X158851053Y-104177691D01*
X158850000Y-104156250D01*
X158850000Y-103643750D01*
X158851053Y-103622309D01*
X158854203Y-103601074D01*
X158859419Y-103580250D01*
X158866651Y-103560038D01*
X158875830Y-103540632D01*
X158886866Y-103522219D01*
X158899654Y-103504976D01*
X158914070Y-103489070D01*
X158929976Y-103474654D01*
X158947219Y-103461866D01*
X158965632Y-103450830D01*
X158985038Y-103441651D01*
X159005250Y-103434419D01*
X159026074Y-103429203D01*
X159047309Y-103426053D01*
X159068750Y-103425000D01*
X159506250Y-103425000D01*
X159527691Y-103426053D01*
G37*
G36*
X158727691Y-96726053D02*
G01*
X158748926Y-96729203D01*
X158769750Y-96734419D01*
X158789962Y-96741651D01*
X158809368Y-96750830D01*
X158827781Y-96761866D01*
X158845024Y-96774654D01*
X158860930Y-96789070D01*
X158875346Y-96804976D01*
X158888134Y-96822219D01*
X158899170Y-96840632D01*
X158908349Y-96860038D01*
X158915581Y-96880250D01*
X158920797Y-96901074D01*
X158923947Y-96922309D01*
X158925000Y-96943750D01*
X158925000Y-97456250D01*
X158923947Y-97477691D01*
X158920797Y-97498926D01*
X158915581Y-97519750D01*
X158908349Y-97539962D01*
X158899170Y-97559368D01*
X158888134Y-97577781D01*
X158875346Y-97595024D01*
X158860930Y-97610930D01*
X158845024Y-97625346D01*
X158827781Y-97638134D01*
X158809368Y-97649170D01*
X158789962Y-97658349D01*
X158769750Y-97665581D01*
X158748926Y-97670797D01*
X158727691Y-97673947D01*
X158706250Y-97675000D01*
X158268750Y-97675000D01*
X158247309Y-97673947D01*
X158226074Y-97670797D01*
X158205250Y-97665581D01*
X158185038Y-97658349D01*
X158165632Y-97649170D01*
X158147219Y-97638134D01*
X158129976Y-97625346D01*
X158114070Y-97610930D01*
X158099654Y-97595024D01*
X158086866Y-97577781D01*
X158075830Y-97559368D01*
X158066651Y-97539962D01*
X158059419Y-97519750D01*
X158054203Y-97498926D01*
X158051053Y-97477691D01*
X158050000Y-97456250D01*
X158050000Y-96943750D01*
X158051053Y-96922309D01*
X158054203Y-96901074D01*
X158059419Y-96880250D01*
X158066651Y-96860038D01*
X158075830Y-96840632D01*
X158086866Y-96822219D01*
X158099654Y-96804976D01*
X158114070Y-96789070D01*
X158129976Y-96774654D01*
X158147219Y-96761866D01*
X158165632Y-96750830D01*
X158185038Y-96741651D01*
X158205250Y-96734419D01*
X158226074Y-96729203D01*
X158247309Y-96726053D01*
X158268750Y-96725000D01*
X158706250Y-96725000D01*
X158727691Y-96726053D01*
G37*
G36*
X157152691Y-96726053D02*
G01*
X157173926Y-96729203D01*
X157194750Y-96734419D01*
X157214962Y-96741651D01*
X157234368Y-96750830D01*
X157252781Y-96761866D01*
X157270024Y-96774654D01*
X157285930Y-96789070D01*
X157300346Y-96804976D01*
X157313134Y-96822219D01*
X157324170Y-96840632D01*
X157333349Y-96860038D01*
X157340581Y-96880250D01*
X157345797Y-96901074D01*
X157348947Y-96922309D01*
X157350000Y-96943750D01*
X157350000Y-97456250D01*
X157348947Y-97477691D01*
X157345797Y-97498926D01*
X157340581Y-97519750D01*
X157333349Y-97539962D01*
X157324170Y-97559368D01*
X157313134Y-97577781D01*
X157300346Y-97595024D01*
X157285930Y-97610930D01*
X157270024Y-97625346D01*
X157252781Y-97638134D01*
X157234368Y-97649170D01*
X157214962Y-97658349D01*
X157194750Y-97665581D01*
X157173926Y-97670797D01*
X157152691Y-97673947D01*
X157131250Y-97675000D01*
X156693750Y-97675000D01*
X156672309Y-97673947D01*
X156651074Y-97670797D01*
X156630250Y-97665581D01*
X156610038Y-97658349D01*
X156590632Y-97649170D01*
X156572219Y-97638134D01*
X156554976Y-97625346D01*
X156539070Y-97610930D01*
X156524654Y-97595024D01*
X156511866Y-97577781D01*
X156500830Y-97559368D01*
X156491651Y-97539962D01*
X156484419Y-97519750D01*
X156479203Y-97498926D01*
X156476053Y-97477691D01*
X156475000Y-97456250D01*
X156475000Y-96943750D01*
X156476053Y-96922309D01*
X156479203Y-96901074D01*
X156484419Y-96880250D01*
X156491651Y-96860038D01*
X156500830Y-96840632D01*
X156511866Y-96822219D01*
X156524654Y-96804976D01*
X156539070Y-96789070D01*
X156554976Y-96774654D01*
X156572219Y-96761866D01*
X156590632Y-96750830D01*
X156610038Y-96741651D01*
X156630250Y-96734419D01*
X156651074Y-96729203D01*
X156672309Y-96726053D01*
X156693750Y-96725000D01*
X157131250Y-96725000D01*
X157152691Y-96726053D01*
G37*
G36*
X155627691Y-96726053D02*
G01*
X155648926Y-96729203D01*
X155669750Y-96734419D01*
X155689962Y-96741651D01*
X155709368Y-96750830D01*
X155727781Y-96761866D01*
X155745024Y-96774654D01*
X155760930Y-96789070D01*
X155775346Y-96804976D01*
X155788134Y-96822219D01*
X155799170Y-96840632D01*
X155808349Y-96860038D01*
X155815581Y-96880250D01*
X155820797Y-96901074D01*
X155823947Y-96922309D01*
X155825000Y-96943750D01*
X155825000Y-97456250D01*
X155823947Y-97477691D01*
X155820797Y-97498926D01*
X155815581Y-97519750D01*
X155808349Y-97539962D01*
X155799170Y-97559368D01*
X155788134Y-97577781D01*
X155775346Y-97595024D01*
X155760930Y-97610930D01*
X155745024Y-97625346D01*
X155727781Y-97638134D01*
X155709368Y-97649170D01*
X155689962Y-97658349D01*
X155669750Y-97665581D01*
X155648926Y-97670797D01*
X155627691Y-97673947D01*
X155606250Y-97675000D01*
X155168750Y-97675000D01*
X155147309Y-97673947D01*
X155126074Y-97670797D01*
X155105250Y-97665581D01*
X155085038Y-97658349D01*
X155065632Y-97649170D01*
X155047219Y-97638134D01*
X155029976Y-97625346D01*
X155014070Y-97610930D01*
X154999654Y-97595024D01*
X154986866Y-97577781D01*
X154975830Y-97559368D01*
X154966651Y-97539962D01*
X154959419Y-97519750D01*
X154954203Y-97498926D01*
X154951053Y-97477691D01*
X154950000Y-97456250D01*
X154950000Y-96943750D01*
X154951053Y-96922309D01*
X154954203Y-96901074D01*
X154959419Y-96880250D01*
X154966651Y-96860038D01*
X154975830Y-96840632D01*
X154986866Y-96822219D01*
X154999654Y-96804976D01*
X155014070Y-96789070D01*
X155029976Y-96774654D01*
X155047219Y-96761866D01*
X155065632Y-96750830D01*
X155085038Y-96741651D01*
X155105250Y-96734419D01*
X155126074Y-96729203D01*
X155147309Y-96726053D01*
X155168750Y-96725000D01*
X155606250Y-96725000D01*
X155627691Y-96726053D01*
G37*
G36*
X154052691Y-96726053D02*
G01*
X154073926Y-96729203D01*
X154094750Y-96734419D01*
X154114962Y-96741651D01*
X154134368Y-96750830D01*
X154152781Y-96761866D01*
X154170024Y-96774654D01*
X154185930Y-96789070D01*
X154200346Y-96804976D01*
X154213134Y-96822219D01*
X154224170Y-96840632D01*
X154233349Y-96860038D01*
X154240581Y-96880250D01*
X154245797Y-96901074D01*
X154248947Y-96922309D01*
X154250000Y-96943750D01*
X154250000Y-97456250D01*
X154248947Y-97477691D01*
X154245797Y-97498926D01*
X154240581Y-97519750D01*
X154233349Y-97539962D01*
X154224170Y-97559368D01*
X154213134Y-97577781D01*
X154200346Y-97595024D01*
X154185930Y-97610930D01*
X154170024Y-97625346D01*
X154152781Y-97638134D01*
X154134368Y-97649170D01*
X154114962Y-97658349D01*
X154094750Y-97665581D01*
X154073926Y-97670797D01*
X154052691Y-97673947D01*
X154031250Y-97675000D01*
X153593750Y-97675000D01*
X153572309Y-97673947D01*
X153551074Y-97670797D01*
X153530250Y-97665581D01*
X153510038Y-97658349D01*
X153490632Y-97649170D01*
X153472219Y-97638134D01*
X153454976Y-97625346D01*
X153439070Y-97610930D01*
X153424654Y-97595024D01*
X153411866Y-97577781D01*
X153400830Y-97559368D01*
X153391651Y-97539962D01*
X153384419Y-97519750D01*
X153379203Y-97498926D01*
X153376053Y-97477691D01*
X153375000Y-97456250D01*
X153375000Y-96943750D01*
X153376053Y-96922309D01*
X153379203Y-96901074D01*
X153384419Y-96880250D01*
X153391651Y-96860038D01*
X153400830Y-96840632D01*
X153411866Y-96822219D01*
X153424654Y-96804976D01*
X153439070Y-96789070D01*
X153454976Y-96774654D01*
X153472219Y-96761866D01*
X153490632Y-96750830D01*
X153510038Y-96741651D01*
X153530250Y-96734419D01*
X153551074Y-96729203D01*
X153572309Y-96726053D01*
X153593750Y-96725000D01*
X154031250Y-96725000D01*
X154052691Y-96726053D01*
G37*
G36*
X171227691Y-100826053D02*
G01*
X171248926Y-100829203D01*
X171269750Y-100834419D01*
X171289962Y-100841651D01*
X171309368Y-100850830D01*
X171327781Y-100861866D01*
X171345024Y-100874654D01*
X171360930Y-100889070D01*
X171375346Y-100904976D01*
X171388134Y-100922219D01*
X171399170Y-100940632D01*
X171408349Y-100960038D01*
X171415581Y-100980250D01*
X171420797Y-101001074D01*
X171423947Y-101022309D01*
X171425000Y-101043750D01*
X171425000Y-101556250D01*
X171423947Y-101577691D01*
X171420797Y-101598926D01*
X171415581Y-101619750D01*
X171408349Y-101639962D01*
X171399170Y-101659368D01*
X171388134Y-101677781D01*
X171375346Y-101695024D01*
X171360930Y-101710930D01*
X171345024Y-101725346D01*
X171327781Y-101738134D01*
X171309368Y-101749170D01*
X171289962Y-101758349D01*
X171269750Y-101765581D01*
X171248926Y-101770797D01*
X171227691Y-101773947D01*
X171206250Y-101775000D01*
X170768750Y-101775000D01*
X170747309Y-101773947D01*
X170726074Y-101770797D01*
X170705250Y-101765581D01*
X170685038Y-101758349D01*
X170665632Y-101749170D01*
X170647219Y-101738134D01*
X170629976Y-101725346D01*
X170614070Y-101710930D01*
X170599654Y-101695024D01*
X170586866Y-101677781D01*
X170575830Y-101659368D01*
X170566651Y-101639962D01*
X170559419Y-101619750D01*
X170554203Y-101598926D01*
X170551053Y-101577691D01*
X170550000Y-101556250D01*
X170550000Y-101043750D01*
X170551053Y-101022309D01*
X170554203Y-101001074D01*
X170559419Y-100980250D01*
X170566651Y-100960038D01*
X170575830Y-100940632D01*
X170586866Y-100922219D01*
X170599654Y-100904976D01*
X170614070Y-100889070D01*
X170629976Y-100874654D01*
X170647219Y-100861866D01*
X170665632Y-100850830D01*
X170685038Y-100841651D01*
X170705250Y-100834419D01*
X170726074Y-100829203D01*
X170747309Y-100826053D01*
X170768750Y-100825000D01*
X171206250Y-100825000D01*
X171227691Y-100826053D01*
G37*
G36*
X169652691Y-100826053D02*
G01*
X169673926Y-100829203D01*
X169694750Y-100834419D01*
X169714962Y-100841651D01*
X169734368Y-100850830D01*
X169752781Y-100861866D01*
X169770024Y-100874654D01*
X169785930Y-100889070D01*
X169800346Y-100904976D01*
X169813134Y-100922219D01*
X169824170Y-100940632D01*
X169833349Y-100960038D01*
X169840581Y-100980250D01*
X169845797Y-101001074D01*
X169848947Y-101022309D01*
X169850000Y-101043750D01*
X169850000Y-101556250D01*
X169848947Y-101577691D01*
X169845797Y-101598926D01*
X169840581Y-101619750D01*
X169833349Y-101639962D01*
X169824170Y-101659368D01*
X169813134Y-101677781D01*
X169800346Y-101695024D01*
X169785930Y-101710930D01*
X169770024Y-101725346D01*
X169752781Y-101738134D01*
X169734368Y-101749170D01*
X169714962Y-101758349D01*
X169694750Y-101765581D01*
X169673926Y-101770797D01*
X169652691Y-101773947D01*
X169631250Y-101775000D01*
X169193750Y-101775000D01*
X169172309Y-101773947D01*
X169151074Y-101770797D01*
X169130250Y-101765581D01*
X169110038Y-101758349D01*
X169090632Y-101749170D01*
X169072219Y-101738134D01*
X169054976Y-101725346D01*
X169039070Y-101710930D01*
X169024654Y-101695024D01*
X169011866Y-101677781D01*
X169000830Y-101659368D01*
X168991651Y-101639962D01*
X168984419Y-101619750D01*
X168979203Y-101598926D01*
X168976053Y-101577691D01*
X168975000Y-101556250D01*
X168975000Y-101043750D01*
X168976053Y-101022309D01*
X168979203Y-101001074D01*
X168984419Y-100980250D01*
X168991651Y-100960038D01*
X169000830Y-100940632D01*
X169011866Y-100922219D01*
X169024654Y-100904976D01*
X169039070Y-100889070D01*
X169054976Y-100874654D01*
X169072219Y-100861866D01*
X169090632Y-100850830D01*
X169110038Y-100841651D01*
X169130250Y-100834419D01*
X169151074Y-100829203D01*
X169172309Y-100826053D01*
X169193750Y-100825000D01*
X169631250Y-100825000D01*
X169652691Y-100826053D01*
G37*
G36*
X163452691Y-100826053D02*
G01*
X163473926Y-100829203D01*
X163494750Y-100834419D01*
X163514962Y-100841651D01*
X163534368Y-100850830D01*
X163552781Y-100861866D01*
X163570024Y-100874654D01*
X163585930Y-100889070D01*
X163600346Y-100904976D01*
X163613134Y-100922219D01*
X163624170Y-100940632D01*
X163633349Y-100960038D01*
X163640581Y-100980250D01*
X163645797Y-101001074D01*
X163648947Y-101022309D01*
X163650000Y-101043750D01*
X163650000Y-101556250D01*
X163648947Y-101577691D01*
X163645797Y-101598926D01*
X163640581Y-101619750D01*
X163633349Y-101639962D01*
X163624170Y-101659368D01*
X163613134Y-101677781D01*
X163600346Y-101695024D01*
X163585930Y-101710930D01*
X163570024Y-101725346D01*
X163552781Y-101738134D01*
X163534368Y-101749170D01*
X163514962Y-101758349D01*
X163494750Y-101765581D01*
X163473926Y-101770797D01*
X163452691Y-101773947D01*
X163431250Y-101775000D01*
X162993750Y-101775000D01*
X162972309Y-101773947D01*
X162951074Y-101770797D01*
X162930250Y-101765581D01*
X162910038Y-101758349D01*
X162890632Y-101749170D01*
X162872219Y-101738134D01*
X162854976Y-101725346D01*
X162839070Y-101710930D01*
X162824654Y-101695024D01*
X162811866Y-101677781D01*
X162800830Y-101659368D01*
X162791651Y-101639962D01*
X162784419Y-101619750D01*
X162779203Y-101598926D01*
X162776053Y-101577691D01*
X162775000Y-101556250D01*
X162775000Y-101043750D01*
X162776053Y-101022309D01*
X162779203Y-101001074D01*
X162784419Y-100980250D01*
X162791651Y-100960038D01*
X162800830Y-100940632D01*
X162811866Y-100922219D01*
X162824654Y-100904976D01*
X162839070Y-100889070D01*
X162854976Y-100874654D01*
X162872219Y-100861866D01*
X162890632Y-100850830D01*
X162910038Y-100841651D01*
X162930250Y-100834419D01*
X162951074Y-100829203D01*
X162972309Y-100826053D01*
X162993750Y-100825000D01*
X163431250Y-100825000D01*
X163452691Y-100826053D01*
G37*
G36*
X165027691Y-100826053D02*
G01*
X165048926Y-100829203D01*
X165069750Y-100834419D01*
X165089962Y-100841651D01*
X165109368Y-100850830D01*
X165127781Y-100861866D01*
X165145024Y-100874654D01*
X165160930Y-100889070D01*
X165175346Y-100904976D01*
X165188134Y-100922219D01*
X165199170Y-100940632D01*
X165208349Y-100960038D01*
X165215581Y-100980250D01*
X165220797Y-101001074D01*
X165223947Y-101022309D01*
X165225000Y-101043750D01*
X165225000Y-101556250D01*
X165223947Y-101577691D01*
X165220797Y-101598926D01*
X165215581Y-101619750D01*
X165208349Y-101639962D01*
X165199170Y-101659368D01*
X165188134Y-101677781D01*
X165175346Y-101695024D01*
X165160930Y-101710930D01*
X165145024Y-101725346D01*
X165127781Y-101738134D01*
X165109368Y-101749170D01*
X165089962Y-101758349D01*
X165069750Y-101765581D01*
X165048926Y-101770797D01*
X165027691Y-101773947D01*
X165006250Y-101775000D01*
X164568750Y-101775000D01*
X164547309Y-101773947D01*
X164526074Y-101770797D01*
X164505250Y-101765581D01*
X164485038Y-101758349D01*
X164465632Y-101749170D01*
X164447219Y-101738134D01*
X164429976Y-101725346D01*
X164414070Y-101710930D01*
X164399654Y-101695024D01*
X164386866Y-101677781D01*
X164375830Y-101659368D01*
X164366651Y-101639962D01*
X164359419Y-101619750D01*
X164354203Y-101598926D01*
X164351053Y-101577691D01*
X164350000Y-101556250D01*
X164350000Y-101043750D01*
X164351053Y-101022309D01*
X164354203Y-101001074D01*
X164359419Y-100980250D01*
X164366651Y-100960038D01*
X164375830Y-100940632D01*
X164386866Y-100922219D01*
X164399654Y-100904976D01*
X164414070Y-100889070D01*
X164429976Y-100874654D01*
X164447219Y-100861866D01*
X164465632Y-100850830D01*
X164485038Y-100841651D01*
X164505250Y-100834419D01*
X164526074Y-100829203D01*
X164547309Y-100826053D01*
X164568750Y-100825000D01*
X165006250Y-100825000D01*
X165027691Y-100826053D01*
G37*
G36*
X157252691Y-100826053D02*
G01*
X157273926Y-100829203D01*
X157294750Y-100834419D01*
X157314962Y-100841651D01*
X157334368Y-100850830D01*
X157352781Y-100861866D01*
X157370024Y-100874654D01*
X157385930Y-100889070D01*
X157400346Y-100904976D01*
X157413134Y-100922219D01*
X157424170Y-100940632D01*
X157433349Y-100960038D01*
X157440581Y-100980250D01*
X157445797Y-101001074D01*
X157448947Y-101022309D01*
X157450000Y-101043750D01*
X157450000Y-101556250D01*
X157448947Y-101577691D01*
X157445797Y-101598926D01*
X157440581Y-101619750D01*
X157433349Y-101639962D01*
X157424170Y-101659368D01*
X157413134Y-101677781D01*
X157400346Y-101695024D01*
X157385930Y-101710930D01*
X157370024Y-101725346D01*
X157352781Y-101738134D01*
X157334368Y-101749170D01*
X157314962Y-101758349D01*
X157294750Y-101765581D01*
X157273926Y-101770797D01*
X157252691Y-101773947D01*
X157231250Y-101775000D01*
X156793750Y-101775000D01*
X156772309Y-101773947D01*
X156751074Y-101770797D01*
X156730250Y-101765581D01*
X156710038Y-101758349D01*
X156690632Y-101749170D01*
X156672219Y-101738134D01*
X156654976Y-101725346D01*
X156639070Y-101710930D01*
X156624654Y-101695024D01*
X156611866Y-101677781D01*
X156600830Y-101659368D01*
X156591651Y-101639962D01*
X156584419Y-101619750D01*
X156579203Y-101598926D01*
X156576053Y-101577691D01*
X156575000Y-101556250D01*
X156575000Y-101043750D01*
X156576053Y-101022309D01*
X156579203Y-101001074D01*
X156584419Y-100980250D01*
X156591651Y-100960038D01*
X156600830Y-100940632D01*
X156611866Y-100922219D01*
X156624654Y-100904976D01*
X156639070Y-100889070D01*
X156654976Y-100874654D01*
X156672219Y-100861866D01*
X156690632Y-100850830D01*
X156710038Y-100841651D01*
X156730250Y-100834419D01*
X156751074Y-100829203D01*
X156772309Y-100826053D01*
X156793750Y-100825000D01*
X157231250Y-100825000D01*
X157252691Y-100826053D01*
G37*
G36*
X158827691Y-100826053D02*
G01*
X158848926Y-100829203D01*
X158869750Y-100834419D01*
X158889962Y-100841651D01*
X158909368Y-100850830D01*
X158927781Y-100861866D01*
X158945024Y-100874654D01*
X158960930Y-100889070D01*
X158975346Y-100904976D01*
X158988134Y-100922219D01*
X158999170Y-100940632D01*
X159008349Y-100960038D01*
X159015581Y-100980250D01*
X159020797Y-101001074D01*
X159023947Y-101022309D01*
X159025000Y-101043750D01*
X159025000Y-101556250D01*
X159023947Y-101577691D01*
X159020797Y-101598926D01*
X159015581Y-101619750D01*
X159008349Y-101639962D01*
X158999170Y-101659368D01*
X158988134Y-101677781D01*
X158975346Y-101695024D01*
X158960930Y-101710930D01*
X158945024Y-101725346D01*
X158927781Y-101738134D01*
X158909368Y-101749170D01*
X158889962Y-101758349D01*
X158869750Y-101765581D01*
X158848926Y-101770797D01*
X158827691Y-101773947D01*
X158806250Y-101775000D01*
X158368750Y-101775000D01*
X158347309Y-101773947D01*
X158326074Y-101770797D01*
X158305250Y-101765581D01*
X158285038Y-101758349D01*
X158265632Y-101749170D01*
X158247219Y-101738134D01*
X158229976Y-101725346D01*
X158214070Y-101710930D01*
X158199654Y-101695024D01*
X158186866Y-101677781D01*
X158175830Y-101659368D01*
X158166651Y-101639962D01*
X158159419Y-101619750D01*
X158154203Y-101598926D01*
X158151053Y-101577691D01*
X158150000Y-101556250D01*
X158150000Y-101043750D01*
X158151053Y-101022309D01*
X158154203Y-101001074D01*
X158159419Y-100980250D01*
X158166651Y-100960038D01*
X158175830Y-100940632D01*
X158186866Y-100922219D01*
X158199654Y-100904976D01*
X158214070Y-100889070D01*
X158229976Y-100874654D01*
X158247219Y-100861866D01*
X158265632Y-100850830D01*
X158285038Y-100841651D01*
X158305250Y-100834419D01*
X158326074Y-100829203D01*
X158347309Y-100826053D01*
X158368750Y-100825000D01*
X158806250Y-100825000D01*
X158827691Y-100826053D01*
G37*
G36*
X180787252Y-101725602D02*
G01*
X180799386Y-101727402D01*
X180811286Y-101730382D01*
X180822835Y-101734515D01*
X180833925Y-101739760D01*
X180844446Y-101746066D01*
X180854299Y-101753374D01*
X180863388Y-101761612D01*
X180871626Y-101770701D01*
X180878934Y-101780554D01*
X180885240Y-101791075D01*
X180890485Y-101802165D01*
X180894618Y-101813714D01*
X180897598Y-101825614D01*
X180899398Y-101837748D01*
X180900000Y-101850000D01*
X180900000Y-102850000D01*
X180899398Y-102862252D01*
X180897598Y-102874386D01*
X180894618Y-102886286D01*
X180890485Y-102897835D01*
X180885240Y-102908925D01*
X180878934Y-102919446D01*
X180871626Y-102929299D01*
X180863388Y-102938388D01*
X180854299Y-102946626D01*
X180844446Y-102953934D01*
X180833925Y-102960240D01*
X180822835Y-102965485D01*
X180811286Y-102969618D01*
X180799386Y-102972598D01*
X180787252Y-102974398D01*
X180775000Y-102975000D01*
X176775000Y-102975000D01*
X176762748Y-102974398D01*
X176750614Y-102972598D01*
X176738714Y-102969618D01*
X176727165Y-102965485D01*
X176716075Y-102960240D01*
X176705554Y-102953934D01*
X176695701Y-102946626D01*
X176686612Y-102938388D01*
X176678374Y-102929299D01*
X176671066Y-102919446D01*
X176664760Y-102908925D01*
X176659515Y-102897835D01*
X176655382Y-102886286D01*
X176652402Y-102874386D01*
X176650602Y-102862252D01*
X176650000Y-102850000D01*
X176650000Y-101850000D01*
X176650602Y-101837748D01*
X176652402Y-101825614D01*
X176655382Y-101813714D01*
X176659515Y-101802165D01*
X176664760Y-101791075D01*
X176671066Y-101780554D01*
X176678374Y-101770701D01*
X176686612Y-101761612D01*
X176695701Y-101753374D01*
X176705554Y-101746066D01*
X176716075Y-101739760D01*
X176727165Y-101734515D01*
X176738714Y-101730382D01*
X176750614Y-101727402D01*
X176762748Y-101725602D01*
X176775000Y-101725000D01*
X180775000Y-101725000D01*
X180787252Y-101725602D01*
G37*
G36*
X180809802Y-99300482D02*
G01*
X180819509Y-99301921D01*
X180829028Y-99304306D01*
X180838268Y-99307612D01*
X180847140Y-99311808D01*
X180855557Y-99316853D01*
X180863439Y-99322699D01*
X180870711Y-99329289D01*
X180877301Y-99336561D01*
X180883147Y-99344443D01*
X180888192Y-99352860D01*
X180892388Y-99361732D01*
X180895694Y-99370972D01*
X180898079Y-99380491D01*
X180899518Y-99390198D01*
X180900000Y-99400000D01*
X180900000Y-100200000D01*
X180899518Y-100209802D01*
X180898079Y-100219509D01*
X180895694Y-100229028D01*
X180892388Y-100238268D01*
X180888192Y-100247140D01*
X180883147Y-100255557D01*
X180877301Y-100263439D01*
X180870711Y-100270711D01*
X180863439Y-100277301D01*
X180855557Y-100283147D01*
X180847140Y-100288192D01*
X180838268Y-100292388D01*
X180829028Y-100295694D01*
X180819509Y-100298079D01*
X180809802Y-100299518D01*
X180800000Y-100300000D01*
X176750000Y-100300000D01*
X176740198Y-100299518D01*
X176730491Y-100298079D01*
X176720972Y-100295694D01*
X176711732Y-100292388D01*
X176702860Y-100288192D01*
X176694443Y-100283147D01*
X176686561Y-100277301D01*
X176679289Y-100270711D01*
X176672699Y-100263439D01*
X176666853Y-100255557D01*
X176661808Y-100247140D01*
X176657612Y-100238268D01*
X176654306Y-100229028D01*
X176651921Y-100219509D01*
X176650482Y-100209802D01*
X176650000Y-100200000D01*
X176650000Y-99400000D01*
X176650482Y-99390198D01*
X176651921Y-99380491D01*
X176654306Y-99370972D01*
X176657612Y-99361732D01*
X176661808Y-99352860D01*
X176666853Y-99344443D01*
X176672699Y-99336561D01*
X176679289Y-99329289D01*
X176686561Y-99322699D01*
X176694443Y-99316853D01*
X176702860Y-99311808D01*
X176711732Y-99307612D01*
X176720972Y-99304306D01*
X176730491Y-99301921D01*
X176740198Y-99300482D01*
X176750000Y-99300000D01*
X180800000Y-99300000D01*
X180809802Y-99300482D01*
G37*
G36*
X180787252Y-96625602D02*
G01*
X180799386Y-96627402D01*
X180811286Y-96630382D01*
X180822835Y-96634515D01*
X180833925Y-96639760D01*
X180844446Y-96646066D01*
X180854299Y-96653374D01*
X180863388Y-96661612D01*
X180871626Y-96670701D01*
X180878934Y-96680554D01*
X180885240Y-96691075D01*
X180890485Y-96702165D01*
X180894618Y-96713714D01*
X180897598Y-96725614D01*
X180899398Y-96737748D01*
X180900000Y-96750000D01*
X180900000Y-97750000D01*
X180899398Y-97762252D01*
X180897598Y-97774386D01*
X180894618Y-97786286D01*
X180890485Y-97797835D01*
X180885240Y-97808925D01*
X180878934Y-97819446D01*
X180871626Y-97829299D01*
X180863388Y-97838388D01*
X180854299Y-97846626D01*
X180844446Y-97853934D01*
X180833925Y-97860240D01*
X180822835Y-97865485D01*
X180811286Y-97869618D01*
X180799386Y-97872598D01*
X180787252Y-97874398D01*
X180775000Y-97875000D01*
X176775000Y-97875000D01*
X176762748Y-97874398D01*
X176750614Y-97872598D01*
X176738714Y-97869618D01*
X176727165Y-97865485D01*
X176716075Y-97860240D01*
X176705554Y-97853934D01*
X176695701Y-97846626D01*
X176686612Y-97838388D01*
X176678374Y-97829299D01*
X176671066Y-97819446D01*
X176664760Y-97808925D01*
X176659515Y-97797835D01*
X176655382Y-97786286D01*
X176652402Y-97774386D01*
X176650602Y-97762252D01*
X176650000Y-97750000D01*
X176650000Y-96750000D01*
X176650602Y-96737748D01*
X176652402Y-96725614D01*
X176655382Y-96713714D01*
X176659515Y-96702165D01*
X176664760Y-96691075D01*
X176671066Y-96680554D01*
X176678374Y-96670701D01*
X176686612Y-96661612D01*
X176695701Y-96653374D01*
X176705554Y-96646066D01*
X176716075Y-96639760D01*
X176727165Y-96634515D01*
X176738714Y-96630382D01*
X176750614Y-96627402D01*
X176762748Y-96625602D01*
X176775000Y-96625000D01*
X180775000Y-96625000D01*
X180787252Y-96625602D01*
G37*
G36*
X174914703Y-103700722D02*
G01*
X174929264Y-103702882D01*
X174943543Y-103706459D01*
X174957403Y-103711418D01*
X174970710Y-103717712D01*
X174983336Y-103725280D01*
X174995159Y-103734048D01*
X175006066Y-103743934D01*
X175015952Y-103754841D01*
X175024720Y-103766664D01*
X175032288Y-103779290D01*
X175038582Y-103792597D01*
X175043541Y-103806457D01*
X175047118Y-103820736D01*
X175049278Y-103835297D01*
X175050000Y-103850000D01*
X175050000Y-104150000D01*
X175049278Y-104164703D01*
X175047118Y-104179264D01*
X175043541Y-104193543D01*
X175038582Y-104207403D01*
X175032288Y-104220710D01*
X175024720Y-104233336D01*
X175015952Y-104245159D01*
X175006066Y-104256066D01*
X174995159Y-104265952D01*
X174983336Y-104274720D01*
X174970710Y-104282288D01*
X174957403Y-104288582D01*
X174943543Y-104293541D01*
X174929264Y-104297118D01*
X174914703Y-104299278D01*
X174900000Y-104300000D01*
X174500000Y-104300000D01*
X174485297Y-104299278D01*
X174470736Y-104297118D01*
X174456457Y-104293541D01*
X174442597Y-104288582D01*
X174429290Y-104282288D01*
X174416664Y-104274720D01*
X174404841Y-104265952D01*
X174393934Y-104256066D01*
X174384048Y-104245159D01*
X174375280Y-104233336D01*
X174367712Y-104220710D01*
X174361418Y-104207403D01*
X174356459Y-104193543D01*
X174352882Y-104179264D01*
X174350722Y-104164703D01*
X174350000Y-104150000D01*
X174350000Y-103850000D01*
X174350722Y-103835297D01*
X174352882Y-103820736D01*
X174356459Y-103806457D01*
X174361418Y-103792597D01*
X174367712Y-103779290D01*
X174375280Y-103766664D01*
X174384048Y-103754841D01*
X174393934Y-103743934D01*
X174404841Y-103734048D01*
X174416664Y-103725280D01*
X174429290Y-103717712D01*
X174442597Y-103711418D01*
X174456457Y-103706459D01*
X174470736Y-103702882D01*
X174485297Y-103700722D01*
X174500000Y-103700000D01*
X174900000Y-103700000D01*
X174914703Y-103700722D01*
G37*
G36*
X174914703Y-102300722D02*
G01*
X174929264Y-102302882D01*
X174943543Y-102306459D01*
X174957403Y-102311418D01*
X174970710Y-102317712D01*
X174983336Y-102325280D01*
X174995159Y-102334048D01*
X175006066Y-102343934D01*
X175015952Y-102354841D01*
X175024720Y-102366664D01*
X175032288Y-102379290D01*
X175038582Y-102392597D01*
X175043541Y-102406457D01*
X175047118Y-102420736D01*
X175049278Y-102435297D01*
X175050000Y-102450000D01*
X175050000Y-102750000D01*
X175049278Y-102764703D01*
X175047118Y-102779264D01*
X175043541Y-102793543D01*
X175038582Y-102807403D01*
X175032288Y-102820710D01*
X175024720Y-102833336D01*
X175015952Y-102845159D01*
X175006066Y-102856066D01*
X174995159Y-102865952D01*
X174983336Y-102874720D01*
X174970710Y-102882288D01*
X174957403Y-102888582D01*
X174943543Y-102893541D01*
X174929264Y-102897118D01*
X174914703Y-102899278D01*
X174900000Y-102900000D01*
X174500000Y-102900000D01*
X174485297Y-102899278D01*
X174470736Y-102897118D01*
X174456457Y-102893541D01*
X174442597Y-102888582D01*
X174429290Y-102882288D01*
X174416664Y-102874720D01*
X174404841Y-102865952D01*
X174393934Y-102856066D01*
X174384048Y-102845159D01*
X174375280Y-102833336D01*
X174367712Y-102820710D01*
X174361418Y-102807403D01*
X174356459Y-102793543D01*
X174352882Y-102779264D01*
X174350722Y-102764703D01*
X174350000Y-102750000D01*
X174350000Y-102450000D01*
X174350722Y-102435297D01*
X174352882Y-102420736D01*
X174356459Y-102406457D01*
X174361418Y-102392597D01*
X174367712Y-102379290D01*
X174375280Y-102366664D01*
X174384048Y-102354841D01*
X174393934Y-102343934D01*
X174404841Y-102334048D01*
X174416664Y-102325280D01*
X174429290Y-102317712D01*
X174442597Y-102311418D01*
X174456457Y-102306459D01*
X174470736Y-102302882D01*
X174485297Y-102300722D01*
X174500000Y-102300000D01*
X174900000Y-102300000D01*
X174914703Y-102300722D01*
G37*
G36*
X172564703Y-99450722D02*
G01*
X172579264Y-99452882D01*
X172593543Y-99456459D01*
X172607403Y-99461418D01*
X172620710Y-99467712D01*
X172633336Y-99475280D01*
X172645159Y-99484048D01*
X172656066Y-99493934D01*
X172665952Y-99504841D01*
X172674720Y-99516664D01*
X172682288Y-99529290D01*
X172688582Y-99542597D01*
X172693541Y-99556457D01*
X172697118Y-99570736D01*
X172699278Y-99585297D01*
X172700000Y-99600000D01*
X172700000Y-100000000D01*
X172699278Y-100014703D01*
X172697118Y-100029264D01*
X172693541Y-100043543D01*
X172688582Y-100057403D01*
X172682288Y-100070710D01*
X172674720Y-100083336D01*
X172665952Y-100095159D01*
X172656066Y-100106066D01*
X172645159Y-100115952D01*
X172633336Y-100124720D01*
X172620710Y-100132288D01*
X172607403Y-100138582D01*
X172593543Y-100143541D01*
X172579264Y-100147118D01*
X172564703Y-100149278D01*
X172550000Y-100150000D01*
X172250000Y-100150000D01*
X172235297Y-100149278D01*
X172220736Y-100147118D01*
X172206457Y-100143541D01*
X172192597Y-100138582D01*
X172179290Y-100132288D01*
X172166664Y-100124720D01*
X172154841Y-100115952D01*
X172143934Y-100106066D01*
X172134048Y-100095159D01*
X172125280Y-100083336D01*
X172117712Y-100070710D01*
X172111418Y-100057403D01*
X172106459Y-100043543D01*
X172102882Y-100029264D01*
X172100722Y-100014703D01*
X172100000Y-100000000D01*
X172100000Y-99600000D01*
X172100722Y-99585297D01*
X172102882Y-99570736D01*
X172106459Y-99556457D01*
X172111418Y-99542597D01*
X172117712Y-99529290D01*
X172125280Y-99516664D01*
X172134048Y-99504841D01*
X172143934Y-99493934D01*
X172154841Y-99484048D01*
X172166664Y-99475280D01*
X172179290Y-99467712D01*
X172192597Y-99461418D01*
X172206457Y-99456459D01*
X172220736Y-99452882D01*
X172235297Y-99450722D01*
X172250000Y-99450000D01*
X172550000Y-99450000D01*
X172564703Y-99450722D01*
G37*
G36*
X171164703Y-99450722D02*
G01*
X171179264Y-99452882D01*
X171193543Y-99456459D01*
X171207403Y-99461418D01*
X171220710Y-99467712D01*
X171233336Y-99475280D01*
X171245159Y-99484048D01*
X171256066Y-99493934D01*
X171265952Y-99504841D01*
X171274720Y-99516664D01*
X171282288Y-99529290D01*
X171288582Y-99542597D01*
X171293541Y-99556457D01*
X171297118Y-99570736D01*
X171299278Y-99585297D01*
X171300000Y-99600000D01*
X171300000Y-100000000D01*
X171299278Y-100014703D01*
X171297118Y-100029264D01*
X171293541Y-100043543D01*
X171288582Y-100057403D01*
X171282288Y-100070710D01*
X171274720Y-100083336D01*
X171265952Y-100095159D01*
X171256066Y-100106066D01*
X171245159Y-100115952D01*
X171233336Y-100124720D01*
X171220710Y-100132288D01*
X171207403Y-100138582D01*
X171193543Y-100143541D01*
X171179264Y-100147118D01*
X171164703Y-100149278D01*
X171150000Y-100150000D01*
X170850000Y-100150000D01*
X170835297Y-100149278D01*
X170820736Y-100147118D01*
X170806457Y-100143541D01*
X170792597Y-100138582D01*
X170779290Y-100132288D01*
X170766664Y-100124720D01*
X170754841Y-100115952D01*
X170743934Y-100106066D01*
X170734048Y-100095159D01*
X170725280Y-100083336D01*
X170717712Y-100070710D01*
X170711418Y-100057403D01*
X170706459Y-100043543D01*
X170702882Y-100029264D01*
X170700722Y-100014703D01*
X170700000Y-100000000D01*
X170700000Y-99600000D01*
X170700722Y-99585297D01*
X170702882Y-99570736D01*
X170706459Y-99556457D01*
X170711418Y-99542597D01*
X170717712Y-99529290D01*
X170725280Y-99516664D01*
X170734048Y-99504841D01*
X170743934Y-99493934D01*
X170754841Y-99484048D01*
X170766664Y-99475280D01*
X170779290Y-99467712D01*
X170792597Y-99461418D01*
X170806457Y-99456459D01*
X170820736Y-99452882D01*
X170835297Y-99450722D01*
X170850000Y-99450000D01*
X171150000Y-99450000D01*
X171164703Y-99450722D01*
G37*
G36*
X168714703Y-103700722D02*
G01*
X168729264Y-103702882D01*
X168743543Y-103706459D01*
X168757403Y-103711418D01*
X168770710Y-103717712D01*
X168783336Y-103725280D01*
X168795159Y-103734048D01*
X168806066Y-103743934D01*
X168815952Y-103754841D01*
X168824720Y-103766664D01*
X168832288Y-103779290D01*
X168838582Y-103792597D01*
X168843541Y-103806457D01*
X168847118Y-103820736D01*
X168849278Y-103835297D01*
X168850000Y-103850000D01*
X168850000Y-104150000D01*
X168849278Y-104164703D01*
X168847118Y-104179264D01*
X168843541Y-104193543D01*
X168838582Y-104207403D01*
X168832288Y-104220710D01*
X168824720Y-104233336D01*
X168815952Y-104245159D01*
X168806066Y-104256066D01*
X168795159Y-104265952D01*
X168783336Y-104274720D01*
X168770710Y-104282288D01*
X168757403Y-104288582D01*
X168743543Y-104293541D01*
X168729264Y-104297118D01*
X168714703Y-104299278D01*
X168700000Y-104300000D01*
X168300000Y-104300000D01*
X168285297Y-104299278D01*
X168270736Y-104297118D01*
X168256457Y-104293541D01*
X168242597Y-104288582D01*
X168229290Y-104282288D01*
X168216664Y-104274720D01*
X168204841Y-104265952D01*
X168193934Y-104256066D01*
X168184048Y-104245159D01*
X168175280Y-104233336D01*
X168167712Y-104220710D01*
X168161418Y-104207403D01*
X168156459Y-104193543D01*
X168152882Y-104179264D01*
X168150722Y-104164703D01*
X168150000Y-104150000D01*
X168150000Y-103850000D01*
X168150722Y-103835297D01*
X168152882Y-103820736D01*
X168156459Y-103806457D01*
X168161418Y-103792597D01*
X168167712Y-103779290D01*
X168175280Y-103766664D01*
X168184048Y-103754841D01*
X168193934Y-103743934D01*
X168204841Y-103734048D01*
X168216664Y-103725280D01*
X168229290Y-103717712D01*
X168242597Y-103711418D01*
X168256457Y-103706459D01*
X168270736Y-103702882D01*
X168285297Y-103700722D01*
X168300000Y-103700000D01*
X168700000Y-103700000D01*
X168714703Y-103700722D01*
G37*
G36*
X168714703Y-102300722D02*
G01*
X168729264Y-102302882D01*
X168743543Y-102306459D01*
X168757403Y-102311418D01*
X168770710Y-102317712D01*
X168783336Y-102325280D01*
X168795159Y-102334048D01*
X168806066Y-102343934D01*
X168815952Y-102354841D01*
X168824720Y-102366664D01*
X168832288Y-102379290D01*
X168838582Y-102392597D01*
X168843541Y-102406457D01*
X168847118Y-102420736D01*
X168849278Y-102435297D01*
X168850000Y-102450000D01*
X168850000Y-102750000D01*
X168849278Y-102764703D01*
X168847118Y-102779264D01*
X168843541Y-102793543D01*
X168838582Y-102807403D01*
X168832288Y-102820710D01*
X168824720Y-102833336D01*
X168815952Y-102845159D01*
X168806066Y-102856066D01*
X168795159Y-102865952D01*
X168783336Y-102874720D01*
X168770710Y-102882288D01*
X168757403Y-102888582D01*
X168743543Y-102893541D01*
X168729264Y-102897118D01*
X168714703Y-102899278D01*
X168700000Y-102900000D01*
X168300000Y-102900000D01*
X168285297Y-102899278D01*
X168270736Y-102897118D01*
X168256457Y-102893541D01*
X168242597Y-102888582D01*
X168229290Y-102882288D01*
X168216664Y-102874720D01*
X168204841Y-102865952D01*
X168193934Y-102856066D01*
X168184048Y-102845159D01*
X168175280Y-102833336D01*
X168167712Y-102820710D01*
X168161418Y-102807403D01*
X168156459Y-102793543D01*
X168152882Y-102779264D01*
X168150722Y-102764703D01*
X168150000Y-102750000D01*
X168150000Y-102450000D01*
X168150722Y-102435297D01*
X168152882Y-102420736D01*
X168156459Y-102406457D01*
X168161418Y-102392597D01*
X168167712Y-102379290D01*
X168175280Y-102366664D01*
X168184048Y-102354841D01*
X168193934Y-102343934D01*
X168204841Y-102334048D01*
X168216664Y-102325280D01*
X168229290Y-102317712D01*
X168242597Y-102311418D01*
X168256457Y-102306459D01*
X168270736Y-102302882D01*
X168285297Y-102300722D01*
X168300000Y-102300000D01*
X168700000Y-102300000D01*
X168714703Y-102300722D01*
G37*
G36*
X166364703Y-99450722D02*
G01*
X166379264Y-99452882D01*
X166393543Y-99456459D01*
X166407403Y-99461418D01*
X166420710Y-99467712D01*
X166433336Y-99475280D01*
X166445159Y-99484048D01*
X166456066Y-99493934D01*
X166465952Y-99504841D01*
X166474720Y-99516664D01*
X166482288Y-99529290D01*
X166488582Y-99542597D01*
X166493541Y-99556457D01*
X166497118Y-99570736D01*
X166499278Y-99585297D01*
X166500000Y-99600000D01*
X166500000Y-100000000D01*
X166499278Y-100014703D01*
X166497118Y-100029264D01*
X166493541Y-100043543D01*
X166488582Y-100057403D01*
X166482288Y-100070710D01*
X166474720Y-100083336D01*
X166465952Y-100095159D01*
X166456066Y-100106066D01*
X166445159Y-100115952D01*
X166433336Y-100124720D01*
X166420710Y-100132288D01*
X166407403Y-100138582D01*
X166393543Y-100143541D01*
X166379264Y-100147118D01*
X166364703Y-100149278D01*
X166350000Y-100150000D01*
X166050000Y-100150000D01*
X166035297Y-100149278D01*
X166020736Y-100147118D01*
X166006457Y-100143541D01*
X165992597Y-100138582D01*
X165979290Y-100132288D01*
X165966664Y-100124720D01*
X165954841Y-100115952D01*
X165943934Y-100106066D01*
X165934048Y-100095159D01*
X165925280Y-100083336D01*
X165917712Y-100070710D01*
X165911418Y-100057403D01*
X165906459Y-100043543D01*
X165902882Y-100029264D01*
X165900722Y-100014703D01*
X165900000Y-100000000D01*
X165900000Y-99600000D01*
X165900722Y-99585297D01*
X165902882Y-99570736D01*
X165906459Y-99556457D01*
X165911418Y-99542597D01*
X165917712Y-99529290D01*
X165925280Y-99516664D01*
X165934048Y-99504841D01*
X165943934Y-99493934D01*
X165954841Y-99484048D01*
X165966664Y-99475280D01*
X165979290Y-99467712D01*
X165992597Y-99461418D01*
X166006457Y-99456459D01*
X166020736Y-99452882D01*
X166035297Y-99450722D01*
X166050000Y-99450000D01*
X166350000Y-99450000D01*
X166364703Y-99450722D01*
G37*
G36*
X164964703Y-99450722D02*
G01*
X164979264Y-99452882D01*
X164993543Y-99456459D01*
X165007403Y-99461418D01*
X165020710Y-99467712D01*
X165033336Y-99475280D01*
X165045159Y-99484048D01*
X165056066Y-99493934D01*
X165065952Y-99504841D01*
X165074720Y-99516664D01*
X165082288Y-99529290D01*
X165088582Y-99542597D01*
X165093541Y-99556457D01*
X165097118Y-99570736D01*
X165099278Y-99585297D01*
X165100000Y-99600000D01*
X165100000Y-100000000D01*
X165099278Y-100014703D01*
X165097118Y-100029264D01*
X165093541Y-100043543D01*
X165088582Y-100057403D01*
X165082288Y-100070710D01*
X165074720Y-100083336D01*
X165065952Y-100095159D01*
X165056066Y-100106066D01*
X165045159Y-100115952D01*
X165033336Y-100124720D01*
X165020710Y-100132288D01*
X165007403Y-100138582D01*
X164993543Y-100143541D01*
X164979264Y-100147118D01*
X164964703Y-100149278D01*
X164950000Y-100150000D01*
X164650000Y-100150000D01*
X164635297Y-100149278D01*
X164620736Y-100147118D01*
X164606457Y-100143541D01*
X164592597Y-100138582D01*
X164579290Y-100132288D01*
X164566664Y-100124720D01*
X164554841Y-100115952D01*
X164543934Y-100106066D01*
X164534048Y-100095159D01*
X164525280Y-100083336D01*
X164517712Y-100070710D01*
X164511418Y-100057403D01*
X164506459Y-100043543D01*
X164502882Y-100029264D01*
X164500722Y-100014703D01*
X164500000Y-100000000D01*
X164500000Y-99600000D01*
X164500722Y-99585297D01*
X164502882Y-99570736D01*
X164506459Y-99556457D01*
X164511418Y-99542597D01*
X164517712Y-99529290D01*
X164525280Y-99516664D01*
X164534048Y-99504841D01*
X164543934Y-99493934D01*
X164554841Y-99484048D01*
X164566664Y-99475280D01*
X164579290Y-99467712D01*
X164592597Y-99461418D01*
X164606457Y-99456459D01*
X164620736Y-99452882D01*
X164635297Y-99450722D01*
X164650000Y-99450000D01*
X164950000Y-99450000D01*
X164964703Y-99450722D01*
G37*
G36*
X162514703Y-102300722D02*
G01*
X162529264Y-102302882D01*
X162543543Y-102306459D01*
X162557403Y-102311418D01*
X162570710Y-102317712D01*
X162583336Y-102325280D01*
X162595159Y-102334048D01*
X162606066Y-102343934D01*
X162615952Y-102354841D01*
X162624720Y-102366664D01*
X162632288Y-102379290D01*
X162638582Y-102392597D01*
X162643541Y-102406457D01*
X162647118Y-102420736D01*
X162649278Y-102435297D01*
X162650000Y-102450000D01*
X162650000Y-102750000D01*
X162649278Y-102764703D01*
X162647118Y-102779264D01*
X162643541Y-102793543D01*
X162638582Y-102807403D01*
X162632288Y-102820710D01*
X162624720Y-102833336D01*
X162615952Y-102845159D01*
X162606066Y-102856066D01*
X162595159Y-102865952D01*
X162583336Y-102874720D01*
X162570710Y-102882288D01*
X162557403Y-102888582D01*
X162543543Y-102893541D01*
X162529264Y-102897118D01*
X162514703Y-102899278D01*
X162500000Y-102900000D01*
X162100000Y-102900000D01*
X162085297Y-102899278D01*
X162070736Y-102897118D01*
X162056457Y-102893541D01*
X162042597Y-102888582D01*
X162029290Y-102882288D01*
X162016664Y-102874720D01*
X162004841Y-102865952D01*
X161993934Y-102856066D01*
X161984048Y-102845159D01*
X161975280Y-102833336D01*
X161967712Y-102820710D01*
X161961418Y-102807403D01*
X161956459Y-102793543D01*
X161952882Y-102779264D01*
X161950722Y-102764703D01*
X161950000Y-102750000D01*
X161950000Y-102450000D01*
X161950722Y-102435297D01*
X161952882Y-102420736D01*
X161956459Y-102406457D01*
X161961418Y-102392597D01*
X161967712Y-102379290D01*
X161975280Y-102366664D01*
X161984048Y-102354841D01*
X161993934Y-102343934D01*
X162004841Y-102334048D01*
X162016664Y-102325280D01*
X162029290Y-102317712D01*
X162042597Y-102311418D01*
X162056457Y-102306459D01*
X162070736Y-102302882D01*
X162085297Y-102300722D01*
X162100000Y-102300000D01*
X162500000Y-102300000D01*
X162514703Y-102300722D01*
G37*
G36*
X162514703Y-103700722D02*
G01*
X162529264Y-103702882D01*
X162543543Y-103706459D01*
X162557403Y-103711418D01*
X162570710Y-103717712D01*
X162583336Y-103725280D01*
X162595159Y-103734048D01*
X162606066Y-103743934D01*
X162615952Y-103754841D01*
X162624720Y-103766664D01*
X162632288Y-103779290D01*
X162638582Y-103792597D01*
X162643541Y-103806457D01*
X162647118Y-103820736D01*
X162649278Y-103835297D01*
X162650000Y-103850000D01*
X162650000Y-104150000D01*
X162649278Y-104164703D01*
X162647118Y-104179264D01*
X162643541Y-104193543D01*
X162638582Y-104207403D01*
X162632288Y-104220710D01*
X162624720Y-104233336D01*
X162615952Y-104245159D01*
X162606066Y-104256066D01*
X162595159Y-104265952D01*
X162583336Y-104274720D01*
X162570710Y-104282288D01*
X162557403Y-104288582D01*
X162543543Y-104293541D01*
X162529264Y-104297118D01*
X162514703Y-104299278D01*
X162500000Y-104300000D01*
X162100000Y-104300000D01*
X162085297Y-104299278D01*
X162070736Y-104297118D01*
X162056457Y-104293541D01*
X162042597Y-104288582D01*
X162029290Y-104282288D01*
X162016664Y-104274720D01*
X162004841Y-104265952D01*
X161993934Y-104256066D01*
X161984048Y-104245159D01*
X161975280Y-104233336D01*
X161967712Y-104220710D01*
X161961418Y-104207403D01*
X161956459Y-104193543D01*
X161952882Y-104179264D01*
X161950722Y-104164703D01*
X161950000Y-104150000D01*
X161950000Y-103850000D01*
X161950722Y-103835297D01*
X161952882Y-103820736D01*
X161956459Y-103806457D01*
X161961418Y-103792597D01*
X161967712Y-103779290D01*
X161975280Y-103766664D01*
X161984048Y-103754841D01*
X161993934Y-103743934D01*
X162004841Y-103734048D01*
X162016664Y-103725280D01*
X162029290Y-103717712D01*
X162042597Y-103711418D01*
X162056457Y-103706459D01*
X162070736Y-103702882D01*
X162085297Y-103700722D01*
X162100000Y-103700000D01*
X162500000Y-103700000D01*
X162514703Y-103700722D01*
G37*
G36*
X160164703Y-99450722D02*
G01*
X160179264Y-99452882D01*
X160193543Y-99456459D01*
X160207403Y-99461418D01*
X160220710Y-99467712D01*
X160233336Y-99475280D01*
X160245159Y-99484048D01*
X160256066Y-99493934D01*
X160265952Y-99504841D01*
X160274720Y-99516664D01*
X160282288Y-99529290D01*
X160288582Y-99542597D01*
X160293541Y-99556457D01*
X160297118Y-99570736D01*
X160299278Y-99585297D01*
X160300000Y-99600000D01*
X160300000Y-100000000D01*
X160299278Y-100014703D01*
X160297118Y-100029264D01*
X160293541Y-100043543D01*
X160288582Y-100057403D01*
X160282288Y-100070710D01*
X160274720Y-100083336D01*
X160265952Y-100095159D01*
X160256066Y-100106066D01*
X160245159Y-100115952D01*
X160233336Y-100124720D01*
X160220710Y-100132288D01*
X160207403Y-100138582D01*
X160193543Y-100143541D01*
X160179264Y-100147118D01*
X160164703Y-100149278D01*
X160150000Y-100150000D01*
X159850000Y-100150000D01*
X159835297Y-100149278D01*
X159820736Y-100147118D01*
X159806457Y-100143541D01*
X159792597Y-100138582D01*
X159779290Y-100132288D01*
X159766664Y-100124720D01*
X159754841Y-100115952D01*
X159743934Y-100106066D01*
X159734048Y-100095159D01*
X159725280Y-100083336D01*
X159717712Y-100070710D01*
X159711418Y-100057403D01*
X159706459Y-100043543D01*
X159702882Y-100029264D01*
X159700722Y-100014703D01*
X159700000Y-100000000D01*
X159700000Y-99600000D01*
X159700722Y-99585297D01*
X159702882Y-99570736D01*
X159706459Y-99556457D01*
X159711418Y-99542597D01*
X159717712Y-99529290D01*
X159725280Y-99516664D01*
X159734048Y-99504841D01*
X159743934Y-99493934D01*
X159754841Y-99484048D01*
X159766664Y-99475280D01*
X159779290Y-99467712D01*
X159792597Y-99461418D01*
X159806457Y-99456459D01*
X159820736Y-99452882D01*
X159835297Y-99450722D01*
X159850000Y-99450000D01*
X160150000Y-99450000D01*
X160164703Y-99450722D01*
G37*
G36*
X158764703Y-99450722D02*
G01*
X158779264Y-99452882D01*
X158793543Y-99456459D01*
X158807403Y-99461418D01*
X158820710Y-99467712D01*
X158833336Y-99475280D01*
X158845159Y-99484048D01*
X158856066Y-99493934D01*
X158865952Y-99504841D01*
X158874720Y-99516664D01*
X158882288Y-99529290D01*
X158888582Y-99542597D01*
X158893541Y-99556457D01*
X158897118Y-99570736D01*
X158899278Y-99585297D01*
X158900000Y-99600000D01*
X158900000Y-100000000D01*
X158899278Y-100014703D01*
X158897118Y-100029264D01*
X158893541Y-100043543D01*
X158888582Y-100057403D01*
X158882288Y-100070710D01*
X158874720Y-100083336D01*
X158865952Y-100095159D01*
X158856066Y-100106066D01*
X158845159Y-100115952D01*
X158833336Y-100124720D01*
X158820710Y-100132288D01*
X158807403Y-100138582D01*
X158793543Y-100143541D01*
X158779264Y-100147118D01*
X158764703Y-100149278D01*
X158750000Y-100150000D01*
X158450000Y-100150000D01*
X158435297Y-100149278D01*
X158420736Y-100147118D01*
X158406457Y-100143541D01*
X158392597Y-100138582D01*
X158379290Y-100132288D01*
X158366664Y-100124720D01*
X158354841Y-100115952D01*
X158343934Y-100106066D01*
X158334048Y-100095159D01*
X158325280Y-100083336D01*
X158317712Y-100070710D01*
X158311418Y-100057403D01*
X158306459Y-100043543D01*
X158302882Y-100029264D01*
X158300722Y-100014703D01*
X158300000Y-100000000D01*
X158300000Y-99600000D01*
X158300722Y-99585297D01*
X158302882Y-99570736D01*
X158306459Y-99556457D01*
X158311418Y-99542597D01*
X158317712Y-99529290D01*
X158325280Y-99516664D01*
X158334048Y-99504841D01*
X158343934Y-99493934D01*
X158354841Y-99484048D01*
X158366664Y-99475280D01*
X158379290Y-99467712D01*
X158392597Y-99461418D01*
X158406457Y-99456459D01*
X158420736Y-99452882D01*
X158435297Y-99450722D01*
X158450000Y-99450000D01*
X158750000Y-99450000D01*
X158764703Y-99450722D01*
G37*
G36*
X156314703Y-102300722D02*
G01*
X156329264Y-102302882D01*
X156343543Y-102306459D01*
X156357403Y-102311418D01*
X156370710Y-102317712D01*
X156383336Y-102325280D01*
X156395159Y-102334048D01*
X156406066Y-102343934D01*
X156415952Y-102354841D01*
X156424720Y-102366664D01*
X156432288Y-102379290D01*
X156438582Y-102392597D01*
X156443541Y-102406457D01*
X156447118Y-102420736D01*
X156449278Y-102435297D01*
X156450000Y-102450000D01*
X156450000Y-102750000D01*
X156449278Y-102764703D01*
X156447118Y-102779264D01*
X156443541Y-102793543D01*
X156438582Y-102807403D01*
X156432288Y-102820710D01*
X156424720Y-102833336D01*
X156415952Y-102845159D01*
X156406066Y-102856066D01*
X156395159Y-102865952D01*
X156383336Y-102874720D01*
X156370710Y-102882288D01*
X156357403Y-102888582D01*
X156343543Y-102893541D01*
X156329264Y-102897118D01*
X156314703Y-102899278D01*
X156300000Y-102900000D01*
X155900000Y-102900000D01*
X155885297Y-102899278D01*
X155870736Y-102897118D01*
X155856457Y-102893541D01*
X155842597Y-102888582D01*
X155829290Y-102882288D01*
X155816664Y-102874720D01*
X155804841Y-102865952D01*
X155793934Y-102856066D01*
X155784048Y-102845159D01*
X155775280Y-102833336D01*
X155767712Y-102820710D01*
X155761418Y-102807403D01*
X155756459Y-102793543D01*
X155752882Y-102779264D01*
X155750722Y-102764703D01*
X155750000Y-102750000D01*
X155750000Y-102450000D01*
X155750722Y-102435297D01*
X155752882Y-102420736D01*
X155756459Y-102406457D01*
X155761418Y-102392597D01*
X155767712Y-102379290D01*
X155775280Y-102366664D01*
X155784048Y-102354841D01*
X155793934Y-102343934D01*
X155804841Y-102334048D01*
X155816664Y-102325280D01*
X155829290Y-102317712D01*
X155842597Y-102311418D01*
X155856457Y-102306459D01*
X155870736Y-102302882D01*
X155885297Y-102300722D01*
X155900000Y-102300000D01*
X156300000Y-102300000D01*
X156314703Y-102300722D01*
G37*
G36*
X156314703Y-103700722D02*
G01*
X156329264Y-103702882D01*
X156343543Y-103706459D01*
X156357403Y-103711418D01*
X156370710Y-103717712D01*
X156383336Y-103725280D01*
X156395159Y-103734048D01*
X156406066Y-103743934D01*
X156415952Y-103754841D01*
X156424720Y-103766664D01*
X156432288Y-103779290D01*
X156438582Y-103792597D01*
X156443541Y-103806457D01*
X156447118Y-103820736D01*
X156449278Y-103835297D01*
X156450000Y-103850000D01*
X156450000Y-104150000D01*
X156449278Y-104164703D01*
X156447118Y-104179264D01*
X156443541Y-104193543D01*
X156438582Y-104207403D01*
X156432288Y-104220710D01*
X156424720Y-104233336D01*
X156415952Y-104245159D01*
X156406066Y-104256066D01*
X156395159Y-104265952D01*
X156383336Y-104274720D01*
X156370710Y-104282288D01*
X156357403Y-104288582D01*
X156343543Y-104293541D01*
X156329264Y-104297118D01*
X156314703Y-104299278D01*
X156300000Y-104300000D01*
X155900000Y-104300000D01*
X155885297Y-104299278D01*
X155870736Y-104297118D01*
X155856457Y-104293541D01*
X155842597Y-104288582D01*
X155829290Y-104282288D01*
X155816664Y-104274720D01*
X155804841Y-104265952D01*
X155793934Y-104256066D01*
X155784048Y-104245159D01*
X155775280Y-104233336D01*
X155767712Y-104220710D01*
X155761418Y-104207403D01*
X155756459Y-104193543D01*
X155752882Y-104179264D01*
X155750722Y-104164703D01*
X155750000Y-104150000D01*
X155750000Y-103850000D01*
X155750722Y-103835297D01*
X155752882Y-103820736D01*
X155756459Y-103806457D01*
X155761418Y-103792597D01*
X155767712Y-103779290D01*
X155775280Y-103766664D01*
X155784048Y-103754841D01*
X155793934Y-103743934D01*
X155804841Y-103734048D01*
X155816664Y-103725280D01*
X155829290Y-103717712D01*
X155842597Y-103711418D01*
X155856457Y-103706459D01*
X155870736Y-103702882D01*
X155885297Y-103700722D01*
X155900000Y-103700000D01*
X156300000Y-103700000D01*
X156314703Y-103700722D01*
G37*
G36*
X174252691Y-99326053D02*
G01*
X174273926Y-99329203D01*
X174294750Y-99334419D01*
X174314962Y-99341651D01*
X174334368Y-99350830D01*
X174352781Y-99361866D01*
X174370024Y-99374654D01*
X174385930Y-99389070D01*
X174400346Y-99404976D01*
X174413134Y-99422219D01*
X174424170Y-99440632D01*
X174433349Y-99460038D01*
X174440581Y-99480250D01*
X174445797Y-99501074D01*
X174448947Y-99522309D01*
X174450000Y-99543750D01*
X174450000Y-100056250D01*
X174448947Y-100077691D01*
X174445797Y-100098926D01*
X174440581Y-100119750D01*
X174433349Y-100139962D01*
X174424170Y-100159368D01*
X174413134Y-100177781D01*
X174400346Y-100195024D01*
X174385930Y-100210930D01*
X174370024Y-100225346D01*
X174352781Y-100238134D01*
X174334368Y-100249170D01*
X174314962Y-100258349D01*
X174294750Y-100265581D01*
X174273926Y-100270797D01*
X174252691Y-100273947D01*
X174231250Y-100275000D01*
X173793750Y-100275000D01*
X173772309Y-100273947D01*
X173751074Y-100270797D01*
X173730250Y-100265581D01*
X173710038Y-100258349D01*
X173690632Y-100249170D01*
X173672219Y-100238134D01*
X173654976Y-100225346D01*
X173639070Y-100210930D01*
X173624654Y-100195024D01*
X173611866Y-100177781D01*
X173600830Y-100159368D01*
X173591651Y-100139962D01*
X173584419Y-100119750D01*
X173579203Y-100098926D01*
X173576053Y-100077691D01*
X173575000Y-100056250D01*
X173575000Y-99543750D01*
X173576053Y-99522309D01*
X173579203Y-99501074D01*
X173584419Y-99480250D01*
X173591651Y-99460038D01*
X173600830Y-99440632D01*
X173611866Y-99422219D01*
X173624654Y-99404976D01*
X173639070Y-99389070D01*
X173654976Y-99374654D01*
X173672219Y-99361866D01*
X173690632Y-99350830D01*
X173710038Y-99341651D01*
X173730250Y-99334419D01*
X173751074Y-99329203D01*
X173772309Y-99326053D01*
X173793750Y-99325000D01*
X174231250Y-99325000D01*
X174252691Y-99326053D01*
G37*
G36*
X175827691Y-99326053D02*
G01*
X175848926Y-99329203D01*
X175869750Y-99334419D01*
X175889962Y-99341651D01*
X175909368Y-99350830D01*
X175927781Y-99361866D01*
X175945024Y-99374654D01*
X175960930Y-99389070D01*
X175975346Y-99404976D01*
X175988134Y-99422219D01*
X175999170Y-99440632D01*
X176008349Y-99460038D01*
X176015581Y-99480250D01*
X176020797Y-99501074D01*
X176023947Y-99522309D01*
X176025000Y-99543750D01*
X176025000Y-100056250D01*
X176023947Y-100077691D01*
X176020797Y-100098926D01*
X176015581Y-100119750D01*
X176008349Y-100139962D01*
X175999170Y-100159368D01*
X175988134Y-100177781D01*
X175975346Y-100195024D01*
X175960930Y-100210930D01*
X175945024Y-100225346D01*
X175927781Y-100238134D01*
X175909368Y-100249170D01*
X175889962Y-100258349D01*
X175869750Y-100265581D01*
X175848926Y-100270797D01*
X175827691Y-100273947D01*
X175806250Y-100275000D01*
X175368750Y-100275000D01*
X175347309Y-100273947D01*
X175326074Y-100270797D01*
X175305250Y-100265581D01*
X175285038Y-100258349D01*
X175265632Y-100249170D01*
X175247219Y-100238134D01*
X175229976Y-100225346D01*
X175214070Y-100210930D01*
X175199654Y-100195024D01*
X175186866Y-100177781D01*
X175175830Y-100159368D01*
X175166651Y-100139962D01*
X175159419Y-100119750D01*
X175154203Y-100098926D01*
X175151053Y-100077691D01*
X175150000Y-100056250D01*
X175150000Y-99543750D01*
X175151053Y-99522309D01*
X175154203Y-99501074D01*
X175159419Y-99480250D01*
X175166651Y-99460038D01*
X175175830Y-99440632D01*
X175186866Y-99422219D01*
X175199654Y-99404976D01*
X175214070Y-99389070D01*
X175229976Y-99374654D01*
X175247219Y-99361866D01*
X175265632Y-99350830D01*
X175285038Y-99341651D01*
X175305250Y-99334419D01*
X175326074Y-99329203D01*
X175347309Y-99326053D01*
X175368750Y-99325000D01*
X175806250Y-99325000D01*
X175827691Y-99326053D01*
G37*
G36*
X172652691Y-100826053D02*
G01*
X172673926Y-100829203D01*
X172694750Y-100834419D01*
X172714962Y-100841651D01*
X172734368Y-100850830D01*
X172752781Y-100861866D01*
X172770024Y-100874654D01*
X172785930Y-100889070D01*
X172800346Y-100904976D01*
X172813134Y-100922219D01*
X172824170Y-100940632D01*
X172833349Y-100960038D01*
X172840581Y-100980250D01*
X172845797Y-101001074D01*
X172848947Y-101022309D01*
X172850000Y-101043750D01*
X172850000Y-101556250D01*
X172848947Y-101577691D01*
X172845797Y-101598926D01*
X172840581Y-101619750D01*
X172833349Y-101639962D01*
X172824170Y-101659368D01*
X172813134Y-101677781D01*
X172800346Y-101695024D01*
X172785930Y-101710930D01*
X172770024Y-101725346D01*
X172752781Y-101738134D01*
X172734368Y-101749170D01*
X172714962Y-101758349D01*
X172694750Y-101765581D01*
X172673926Y-101770797D01*
X172652691Y-101773947D01*
X172631250Y-101775000D01*
X172193750Y-101775000D01*
X172172309Y-101773947D01*
X172151074Y-101770797D01*
X172130250Y-101765581D01*
X172110038Y-101758349D01*
X172090632Y-101749170D01*
X172072219Y-101738134D01*
X172054976Y-101725346D01*
X172039070Y-101710930D01*
X172024654Y-101695024D01*
X172011866Y-101677781D01*
X172000830Y-101659368D01*
X171991651Y-101639962D01*
X171984419Y-101619750D01*
X171979203Y-101598926D01*
X171976053Y-101577691D01*
X171975000Y-101556250D01*
X171975000Y-101043750D01*
X171976053Y-101022309D01*
X171979203Y-101001074D01*
X171984419Y-100980250D01*
X171991651Y-100960038D01*
X172000830Y-100940632D01*
X172011866Y-100922219D01*
X172024654Y-100904976D01*
X172039070Y-100889070D01*
X172054976Y-100874654D01*
X172072219Y-100861866D01*
X172090632Y-100850830D01*
X172110038Y-100841651D01*
X172130250Y-100834419D01*
X172151074Y-100829203D01*
X172172309Y-100826053D01*
X172193750Y-100825000D01*
X172631250Y-100825000D01*
X172652691Y-100826053D01*
G37*
G36*
X174227691Y-100826053D02*
G01*
X174248926Y-100829203D01*
X174269750Y-100834419D01*
X174289962Y-100841651D01*
X174309368Y-100850830D01*
X174327781Y-100861866D01*
X174345024Y-100874654D01*
X174360930Y-100889070D01*
X174375346Y-100904976D01*
X174388134Y-100922219D01*
X174399170Y-100940632D01*
X174408349Y-100960038D01*
X174415581Y-100980250D01*
X174420797Y-101001074D01*
X174423947Y-101022309D01*
X174425000Y-101043750D01*
X174425000Y-101556250D01*
X174423947Y-101577691D01*
X174420797Y-101598926D01*
X174415581Y-101619750D01*
X174408349Y-101639962D01*
X174399170Y-101659368D01*
X174388134Y-101677781D01*
X174375346Y-101695024D01*
X174360930Y-101710930D01*
X174345024Y-101725346D01*
X174327781Y-101738134D01*
X174309368Y-101749170D01*
X174289962Y-101758349D01*
X174269750Y-101765581D01*
X174248926Y-101770797D01*
X174227691Y-101773947D01*
X174206250Y-101775000D01*
X173768750Y-101775000D01*
X173747309Y-101773947D01*
X173726074Y-101770797D01*
X173705250Y-101765581D01*
X173685038Y-101758349D01*
X173665632Y-101749170D01*
X173647219Y-101738134D01*
X173629976Y-101725346D01*
X173614070Y-101710930D01*
X173599654Y-101695024D01*
X173586866Y-101677781D01*
X173575830Y-101659368D01*
X173566651Y-101639962D01*
X173559419Y-101619750D01*
X173554203Y-101598926D01*
X173551053Y-101577691D01*
X173550000Y-101556250D01*
X173550000Y-101043750D01*
X173551053Y-101022309D01*
X173554203Y-101001074D01*
X173559419Y-100980250D01*
X173566651Y-100960038D01*
X173575830Y-100940632D01*
X173586866Y-100922219D01*
X173599654Y-100904976D01*
X173614070Y-100889070D01*
X173629976Y-100874654D01*
X173647219Y-100861866D01*
X173665632Y-100850830D01*
X173685038Y-100841651D01*
X173705250Y-100834419D01*
X173726074Y-100829203D01*
X173747309Y-100826053D01*
X173768750Y-100825000D01*
X174206250Y-100825000D01*
X174227691Y-100826053D01*
G37*
G36*
X169627691Y-99326053D02*
G01*
X169648926Y-99329203D01*
X169669750Y-99334419D01*
X169689962Y-99341651D01*
X169709368Y-99350830D01*
X169727781Y-99361866D01*
X169745024Y-99374654D01*
X169760930Y-99389070D01*
X169775346Y-99404976D01*
X169788134Y-99422219D01*
X169799170Y-99440632D01*
X169808349Y-99460038D01*
X169815581Y-99480250D01*
X169820797Y-99501074D01*
X169823947Y-99522309D01*
X169825000Y-99543750D01*
X169825000Y-100056250D01*
X169823947Y-100077691D01*
X169820797Y-100098926D01*
X169815581Y-100119750D01*
X169808349Y-100139962D01*
X169799170Y-100159368D01*
X169788134Y-100177781D01*
X169775346Y-100195024D01*
X169760930Y-100210930D01*
X169745024Y-100225346D01*
X169727781Y-100238134D01*
X169709368Y-100249170D01*
X169689962Y-100258349D01*
X169669750Y-100265581D01*
X169648926Y-100270797D01*
X169627691Y-100273947D01*
X169606250Y-100275000D01*
X169168750Y-100275000D01*
X169147309Y-100273947D01*
X169126074Y-100270797D01*
X169105250Y-100265581D01*
X169085038Y-100258349D01*
X169065632Y-100249170D01*
X169047219Y-100238134D01*
X169029976Y-100225346D01*
X169014070Y-100210930D01*
X168999654Y-100195024D01*
X168986866Y-100177781D01*
X168975830Y-100159368D01*
X168966651Y-100139962D01*
X168959419Y-100119750D01*
X168954203Y-100098926D01*
X168951053Y-100077691D01*
X168950000Y-100056250D01*
X168950000Y-99543750D01*
X168951053Y-99522309D01*
X168954203Y-99501074D01*
X168959419Y-99480250D01*
X168966651Y-99460038D01*
X168975830Y-99440632D01*
X168986866Y-99422219D01*
X168999654Y-99404976D01*
X169014070Y-99389070D01*
X169029976Y-99374654D01*
X169047219Y-99361866D01*
X169065632Y-99350830D01*
X169085038Y-99341651D01*
X169105250Y-99334419D01*
X169126074Y-99329203D01*
X169147309Y-99326053D01*
X169168750Y-99325000D01*
X169606250Y-99325000D01*
X169627691Y-99326053D01*
G37*
G36*
X168052691Y-99326053D02*
G01*
X168073926Y-99329203D01*
X168094750Y-99334419D01*
X168114962Y-99341651D01*
X168134368Y-99350830D01*
X168152781Y-99361866D01*
X168170024Y-99374654D01*
X168185930Y-99389070D01*
X168200346Y-99404976D01*
X168213134Y-99422219D01*
X168224170Y-99440632D01*
X168233349Y-99460038D01*
X168240581Y-99480250D01*
X168245797Y-99501074D01*
X168248947Y-99522309D01*
X168250000Y-99543750D01*
X168250000Y-100056250D01*
X168248947Y-100077691D01*
X168245797Y-100098926D01*
X168240581Y-100119750D01*
X168233349Y-100139962D01*
X168224170Y-100159368D01*
X168213134Y-100177781D01*
X168200346Y-100195024D01*
X168185930Y-100210930D01*
X168170024Y-100225346D01*
X168152781Y-100238134D01*
X168134368Y-100249170D01*
X168114962Y-100258349D01*
X168094750Y-100265581D01*
X168073926Y-100270797D01*
X168052691Y-100273947D01*
X168031250Y-100275000D01*
X167593750Y-100275000D01*
X167572309Y-100273947D01*
X167551074Y-100270797D01*
X167530250Y-100265581D01*
X167510038Y-100258349D01*
X167490632Y-100249170D01*
X167472219Y-100238134D01*
X167454976Y-100225346D01*
X167439070Y-100210930D01*
X167424654Y-100195024D01*
X167411866Y-100177781D01*
X167400830Y-100159368D01*
X167391651Y-100139962D01*
X167384419Y-100119750D01*
X167379203Y-100098926D01*
X167376053Y-100077691D01*
X167375000Y-100056250D01*
X167375000Y-99543750D01*
X167376053Y-99522309D01*
X167379203Y-99501074D01*
X167384419Y-99480250D01*
X167391651Y-99460038D01*
X167400830Y-99440632D01*
X167411866Y-99422219D01*
X167424654Y-99404976D01*
X167439070Y-99389070D01*
X167454976Y-99374654D01*
X167472219Y-99361866D01*
X167490632Y-99350830D01*
X167510038Y-99341651D01*
X167530250Y-99334419D01*
X167551074Y-99329203D01*
X167572309Y-99326053D01*
X167593750Y-99325000D01*
X168031250Y-99325000D01*
X168052691Y-99326053D01*
G37*
G36*
X168027691Y-100826053D02*
G01*
X168048926Y-100829203D01*
X168069750Y-100834419D01*
X168089962Y-100841651D01*
X168109368Y-100850830D01*
X168127781Y-100861866D01*
X168145024Y-100874654D01*
X168160930Y-100889070D01*
X168175346Y-100904976D01*
X168188134Y-100922219D01*
X168199170Y-100940632D01*
X168208349Y-100960038D01*
X168215581Y-100980250D01*
X168220797Y-101001074D01*
X168223947Y-101022309D01*
X168225000Y-101043750D01*
X168225000Y-101556250D01*
X168223947Y-101577691D01*
X168220797Y-101598926D01*
X168215581Y-101619750D01*
X168208349Y-101639962D01*
X168199170Y-101659368D01*
X168188134Y-101677781D01*
X168175346Y-101695024D01*
X168160930Y-101710930D01*
X168145024Y-101725346D01*
X168127781Y-101738134D01*
X168109368Y-101749170D01*
X168089962Y-101758349D01*
X168069750Y-101765581D01*
X168048926Y-101770797D01*
X168027691Y-101773947D01*
X168006250Y-101775000D01*
X167568750Y-101775000D01*
X167547309Y-101773947D01*
X167526074Y-101770797D01*
X167505250Y-101765581D01*
X167485038Y-101758349D01*
X167465632Y-101749170D01*
X167447219Y-101738134D01*
X167429976Y-101725346D01*
X167414070Y-101710930D01*
X167399654Y-101695024D01*
X167386866Y-101677781D01*
X167375830Y-101659368D01*
X167366651Y-101639962D01*
X167359419Y-101619750D01*
X167354203Y-101598926D01*
X167351053Y-101577691D01*
X167350000Y-101556250D01*
X167350000Y-101043750D01*
X167351053Y-101022309D01*
X167354203Y-101001074D01*
X167359419Y-100980250D01*
X167366651Y-100960038D01*
X167375830Y-100940632D01*
X167386866Y-100922219D01*
X167399654Y-100904976D01*
X167414070Y-100889070D01*
X167429976Y-100874654D01*
X167447219Y-100861866D01*
X167465632Y-100850830D01*
X167485038Y-100841651D01*
X167505250Y-100834419D01*
X167526074Y-100829203D01*
X167547309Y-100826053D01*
X167568750Y-100825000D01*
X168006250Y-100825000D01*
X168027691Y-100826053D01*
G37*
G36*
X166452691Y-100826053D02*
G01*
X166473926Y-100829203D01*
X166494750Y-100834419D01*
X166514962Y-100841651D01*
X166534368Y-100850830D01*
X166552781Y-100861866D01*
X166570024Y-100874654D01*
X166585930Y-100889070D01*
X166600346Y-100904976D01*
X166613134Y-100922219D01*
X166624170Y-100940632D01*
X166633349Y-100960038D01*
X166640581Y-100980250D01*
X166645797Y-101001074D01*
X166648947Y-101022309D01*
X166650000Y-101043750D01*
X166650000Y-101556250D01*
X166648947Y-101577691D01*
X166645797Y-101598926D01*
X166640581Y-101619750D01*
X166633349Y-101639962D01*
X166624170Y-101659368D01*
X166613134Y-101677781D01*
X166600346Y-101695024D01*
X166585930Y-101710930D01*
X166570024Y-101725346D01*
X166552781Y-101738134D01*
X166534368Y-101749170D01*
X166514962Y-101758349D01*
X166494750Y-101765581D01*
X166473926Y-101770797D01*
X166452691Y-101773947D01*
X166431250Y-101775000D01*
X165993750Y-101775000D01*
X165972309Y-101773947D01*
X165951074Y-101770797D01*
X165930250Y-101765581D01*
X165910038Y-101758349D01*
X165890632Y-101749170D01*
X165872219Y-101738134D01*
X165854976Y-101725346D01*
X165839070Y-101710930D01*
X165824654Y-101695024D01*
X165811866Y-101677781D01*
X165800830Y-101659368D01*
X165791651Y-101639962D01*
X165784419Y-101619750D01*
X165779203Y-101598926D01*
X165776053Y-101577691D01*
X165775000Y-101556250D01*
X165775000Y-101043750D01*
X165776053Y-101022309D01*
X165779203Y-101001074D01*
X165784419Y-100980250D01*
X165791651Y-100960038D01*
X165800830Y-100940632D01*
X165811866Y-100922219D01*
X165824654Y-100904976D01*
X165839070Y-100889070D01*
X165854976Y-100874654D01*
X165872219Y-100861866D01*
X165890632Y-100850830D01*
X165910038Y-100841651D01*
X165930250Y-100834419D01*
X165951074Y-100829203D01*
X165972309Y-100826053D01*
X165993750Y-100825000D01*
X166431250Y-100825000D01*
X166452691Y-100826053D01*
G37*
G36*
X163427691Y-99326053D02*
G01*
X163448926Y-99329203D01*
X163469750Y-99334419D01*
X163489962Y-99341651D01*
X163509368Y-99350830D01*
X163527781Y-99361866D01*
X163545024Y-99374654D01*
X163560930Y-99389070D01*
X163575346Y-99404976D01*
X163588134Y-99422219D01*
X163599170Y-99440632D01*
X163608349Y-99460038D01*
X163615581Y-99480250D01*
X163620797Y-99501074D01*
X163623947Y-99522309D01*
X163625000Y-99543750D01*
X163625000Y-100056250D01*
X163623947Y-100077691D01*
X163620797Y-100098926D01*
X163615581Y-100119750D01*
X163608349Y-100139962D01*
X163599170Y-100159368D01*
X163588134Y-100177781D01*
X163575346Y-100195024D01*
X163560930Y-100210930D01*
X163545024Y-100225346D01*
X163527781Y-100238134D01*
X163509368Y-100249170D01*
X163489962Y-100258349D01*
X163469750Y-100265581D01*
X163448926Y-100270797D01*
X163427691Y-100273947D01*
X163406250Y-100275000D01*
X162968750Y-100275000D01*
X162947309Y-100273947D01*
X162926074Y-100270797D01*
X162905250Y-100265581D01*
X162885038Y-100258349D01*
X162865632Y-100249170D01*
X162847219Y-100238134D01*
X162829976Y-100225346D01*
X162814070Y-100210930D01*
X162799654Y-100195024D01*
X162786866Y-100177781D01*
X162775830Y-100159368D01*
X162766651Y-100139962D01*
X162759419Y-100119750D01*
X162754203Y-100098926D01*
X162751053Y-100077691D01*
X162750000Y-100056250D01*
X162750000Y-99543750D01*
X162751053Y-99522309D01*
X162754203Y-99501074D01*
X162759419Y-99480250D01*
X162766651Y-99460038D01*
X162775830Y-99440632D01*
X162786866Y-99422219D01*
X162799654Y-99404976D01*
X162814070Y-99389070D01*
X162829976Y-99374654D01*
X162847219Y-99361866D01*
X162865632Y-99350830D01*
X162885038Y-99341651D01*
X162905250Y-99334419D01*
X162926074Y-99329203D01*
X162947309Y-99326053D01*
X162968750Y-99325000D01*
X163406250Y-99325000D01*
X163427691Y-99326053D01*
G37*
G36*
X161852691Y-99326053D02*
G01*
X161873926Y-99329203D01*
X161894750Y-99334419D01*
X161914962Y-99341651D01*
X161934368Y-99350830D01*
X161952781Y-99361866D01*
X161970024Y-99374654D01*
X161985930Y-99389070D01*
X162000346Y-99404976D01*
X162013134Y-99422219D01*
X162024170Y-99440632D01*
X162033349Y-99460038D01*
X162040581Y-99480250D01*
X162045797Y-99501074D01*
X162048947Y-99522309D01*
X162050000Y-99543750D01*
X162050000Y-100056250D01*
X162048947Y-100077691D01*
X162045797Y-100098926D01*
X162040581Y-100119750D01*
X162033349Y-100139962D01*
X162024170Y-100159368D01*
X162013134Y-100177781D01*
X162000346Y-100195024D01*
X161985930Y-100210930D01*
X161970024Y-100225346D01*
X161952781Y-100238134D01*
X161934368Y-100249170D01*
X161914962Y-100258349D01*
X161894750Y-100265581D01*
X161873926Y-100270797D01*
X161852691Y-100273947D01*
X161831250Y-100275000D01*
X161393750Y-100275000D01*
X161372309Y-100273947D01*
X161351074Y-100270797D01*
X161330250Y-100265581D01*
X161310038Y-100258349D01*
X161290632Y-100249170D01*
X161272219Y-100238134D01*
X161254976Y-100225346D01*
X161239070Y-100210930D01*
X161224654Y-100195024D01*
X161211866Y-100177781D01*
X161200830Y-100159368D01*
X161191651Y-100139962D01*
X161184419Y-100119750D01*
X161179203Y-100098926D01*
X161176053Y-100077691D01*
X161175000Y-100056250D01*
X161175000Y-99543750D01*
X161176053Y-99522309D01*
X161179203Y-99501074D01*
X161184419Y-99480250D01*
X161191651Y-99460038D01*
X161200830Y-99440632D01*
X161211866Y-99422219D01*
X161224654Y-99404976D01*
X161239070Y-99389070D01*
X161254976Y-99374654D01*
X161272219Y-99361866D01*
X161290632Y-99350830D01*
X161310038Y-99341651D01*
X161330250Y-99334419D01*
X161351074Y-99329203D01*
X161372309Y-99326053D01*
X161393750Y-99325000D01*
X161831250Y-99325000D01*
X161852691Y-99326053D01*
G37*
G36*
X161827691Y-100826053D02*
G01*
X161848926Y-100829203D01*
X161869750Y-100834419D01*
X161889962Y-100841651D01*
X161909368Y-100850830D01*
X161927781Y-100861866D01*
X161945024Y-100874654D01*
X161960930Y-100889070D01*
X161975346Y-100904976D01*
X161988134Y-100922219D01*
X161999170Y-100940632D01*
X162008349Y-100960038D01*
X162015581Y-100980250D01*
X162020797Y-101001074D01*
X162023947Y-101022309D01*
X162025000Y-101043750D01*
X162025000Y-101556250D01*
X162023947Y-101577691D01*
X162020797Y-101598926D01*
X162015581Y-101619750D01*
X162008349Y-101639962D01*
X161999170Y-101659368D01*
X161988134Y-101677781D01*
X161975346Y-101695024D01*
X161960930Y-101710930D01*
X161945024Y-101725346D01*
X161927781Y-101738134D01*
X161909368Y-101749170D01*
X161889962Y-101758349D01*
X161869750Y-101765581D01*
X161848926Y-101770797D01*
X161827691Y-101773947D01*
X161806250Y-101775000D01*
X161368750Y-101775000D01*
X161347309Y-101773947D01*
X161326074Y-101770797D01*
X161305250Y-101765581D01*
X161285038Y-101758349D01*
X161265632Y-101749170D01*
X161247219Y-101738134D01*
X161229976Y-101725346D01*
X161214070Y-101710930D01*
X161199654Y-101695024D01*
X161186866Y-101677781D01*
X161175830Y-101659368D01*
X161166651Y-101639962D01*
X161159419Y-101619750D01*
X161154203Y-101598926D01*
X161151053Y-101577691D01*
X161150000Y-101556250D01*
X161150000Y-101043750D01*
X161151053Y-101022309D01*
X161154203Y-101001074D01*
X161159419Y-100980250D01*
X161166651Y-100960038D01*
X161175830Y-100940632D01*
X161186866Y-100922219D01*
X161199654Y-100904976D01*
X161214070Y-100889070D01*
X161229976Y-100874654D01*
X161247219Y-100861866D01*
X161265632Y-100850830D01*
X161285038Y-100841651D01*
X161305250Y-100834419D01*
X161326074Y-100829203D01*
X161347309Y-100826053D01*
X161368750Y-100825000D01*
X161806250Y-100825000D01*
X161827691Y-100826053D01*
G37*
G36*
X160252691Y-100826053D02*
G01*
X160273926Y-100829203D01*
X160294750Y-100834419D01*
X160314962Y-100841651D01*
X160334368Y-100850830D01*
X160352781Y-100861866D01*
X160370024Y-100874654D01*
X160385930Y-100889070D01*
X160400346Y-100904976D01*
X160413134Y-100922219D01*
X160424170Y-100940632D01*
X160433349Y-100960038D01*
X160440581Y-100980250D01*
X160445797Y-101001074D01*
X160448947Y-101022309D01*
X160450000Y-101043750D01*
X160450000Y-101556250D01*
X160448947Y-101577691D01*
X160445797Y-101598926D01*
X160440581Y-101619750D01*
X160433349Y-101639962D01*
X160424170Y-101659368D01*
X160413134Y-101677781D01*
X160400346Y-101695024D01*
X160385930Y-101710930D01*
X160370024Y-101725346D01*
X160352781Y-101738134D01*
X160334368Y-101749170D01*
X160314962Y-101758349D01*
X160294750Y-101765581D01*
X160273926Y-101770797D01*
X160252691Y-101773947D01*
X160231250Y-101775000D01*
X159793750Y-101775000D01*
X159772309Y-101773947D01*
X159751074Y-101770797D01*
X159730250Y-101765581D01*
X159710038Y-101758349D01*
X159690632Y-101749170D01*
X159672219Y-101738134D01*
X159654976Y-101725346D01*
X159639070Y-101710930D01*
X159624654Y-101695024D01*
X159611866Y-101677781D01*
X159600830Y-101659368D01*
X159591651Y-101639962D01*
X159584419Y-101619750D01*
X159579203Y-101598926D01*
X159576053Y-101577691D01*
X159575000Y-101556250D01*
X159575000Y-101043750D01*
X159576053Y-101022309D01*
X159579203Y-101001074D01*
X159584419Y-100980250D01*
X159591651Y-100960038D01*
X159600830Y-100940632D01*
X159611866Y-100922219D01*
X159624654Y-100904976D01*
X159639070Y-100889070D01*
X159654976Y-100874654D01*
X159672219Y-100861866D01*
X159690632Y-100850830D01*
X159710038Y-100841651D01*
X159730250Y-100834419D01*
X159751074Y-100829203D01*
X159772309Y-100826053D01*
X159793750Y-100825000D01*
X160231250Y-100825000D01*
X160252691Y-100826053D01*
G37*
G36*
X155627691Y-100826053D02*
G01*
X155648926Y-100829203D01*
X155669750Y-100834419D01*
X155689962Y-100841651D01*
X155709368Y-100850830D01*
X155727781Y-100861866D01*
X155745024Y-100874654D01*
X155760930Y-100889070D01*
X155775346Y-100904976D01*
X155788134Y-100922219D01*
X155799170Y-100940632D01*
X155808349Y-100960038D01*
X155815581Y-100980250D01*
X155820797Y-101001074D01*
X155823947Y-101022309D01*
X155825000Y-101043750D01*
X155825000Y-101556250D01*
X155823947Y-101577691D01*
X155820797Y-101598926D01*
X155815581Y-101619750D01*
X155808349Y-101639962D01*
X155799170Y-101659368D01*
X155788134Y-101677781D01*
X155775346Y-101695024D01*
X155760930Y-101710930D01*
X155745024Y-101725346D01*
X155727781Y-101738134D01*
X155709368Y-101749170D01*
X155689962Y-101758349D01*
X155669750Y-101765581D01*
X155648926Y-101770797D01*
X155627691Y-101773947D01*
X155606250Y-101775000D01*
X155168750Y-101775000D01*
X155147309Y-101773947D01*
X155126074Y-101770797D01*
X155105250Y-101765581D01*
X155085038Y-101758349D01*
X155065632Y-101749170D01*
X155047219Y-101738134D01*
X155029976Y-101725346D01*
X155014070Y-101710930D01*
X154999654Y-101695024D01*
X154986866Y-101677781D01*
X154975830Y-101659368D01*
X154966651Y-101639962D01*
X154959419Y-101619750D01*
X154954203Y-101598926D01*
X154951053Y-101577691D01*
X154950000Y-101556250D01*
X154950000Y-101043750D01*
X154951053Y-101022309D01*
X154954203Y-101001074D01*
X154959419Y-100980250D01*
X154966651Y-100960038D01*
X154975830Y-100940632D01*
X154986866Y-100922219D01*
X154999654Y-100904976D01*
X155014070Y-100889070D01*
X155029976Y-100874654D01*
X155047219Y-100861866D01*
X155065632Y-100850830D01*
X155085038Y-100841651D01*
X155105250Y-100834419D01*
X155126074Y-100829203D01*
X155147309Y-100826053D01*
X155168750Y-100825000D01*
X155606250Y-100825000D01*
X155627691Y-100826053D01*
G37*
G36*
X154052691Y-100826053D02*
G01*
X154073926Y-100829203D01*
X154094750Y-100834419D01*
X154114962Y-100841651D01*
X154134368Y-100850830D01*
X154152781Y-100861866D01*
X154170024Y-100874654D01*
X154185930Y-100889070D01*
X154200346Y-100904976D01*
X154213134Y-100922219D01*
X154224170Y-100940632D01*
X154233349Y-100960038D01*
X154240581Y-100980250D01*
X154245797Y-101001074D01*
X154248947Y-101022309D01*
X154250000Y-101043750D01*
X154250000Y-101556250D01*
X154248947Y-101577691D01*
X154245797Y-101598926D01*
X154240581Y-101619750D01*
X154233349Y-101639962D01*
X154224170Y-101659368D01*
X154213134Y-101677781D01*
X154200346Y-101695024D01*
X154185930Y-101710930D01*
X154170024Y-101725346D01*
X154152781Y-101738134D01*
X154134368Y-101749170D01*
X154114962Y-101758349D01*
X154094750Y-101765581D01*
X154073926Y-101770797D01*
X154052691Y-101773947D01*
X154031250Y-101775000D01*
X153593750Y-101775000D01*
X153572309Y-101773947D01*
X153551074Y-101770797D01*
X153530250Y-101765581D01*
X153510038Y-101758349D01*
X153490632Y-101749170D01*
X153472219Y-101738134D01*
X153454976Y-101725346D01*
X153439070Y-101710930D01*
X153424654Y-101695024D01*
X153411866Y-101677781D01*
X153400830Y-101659368D01*
X153391651Y-101639962D01*
X153384419Y-101619750D01*
X153379203Y-101598926D01*
X153376053Y-101577691D01*
X153375000Y-101556250D01*
X153375000Y-101043750D01*
X153376053Y-101022309D01*
X153379203Y-101001074D01*
X153384419Y-100980250D01*
X153391651Y-100960038D01*
X153400830Y-100940632D01*
X153411866Y-100922219D01*
X153424654Y-100904976D01*
X153439070Y-100889070D01*
X153454976Y-100874654D01*
X153472219Y-100861866D01*
X153490632Y-100850830D01*
X153510038Y-100841651D01*
X153530250Y-100834419D01*
X153551074Y-100829203D01*
X153572309Y-100826053D01*
X153593750Y-100825000D01*
X154031250Y-100825000D01*
X154052691Y-100826053D01*
G37*
G36*
X157227691Y-99326053D02*
G01*
X157248926Y-99329203D01*
X157269750Y-99334419D01*
X157289962Y-99341651D01*
X157309368Y-99350830D01*
X157327781Y-99361866D01*
X157345024Y-99374654D01*
X157360930Y-99389070D01*
X157375346Y-99404976D01*
X157388134Y-99422219D01*
X157399170Y-99440632D01*
X157408349Y-99460038D01*
X157415581Y-99480250D01*
X157420797Y-99501074D01*
X157423947Y-99522309D01*
X157425000Y-99543750D01*
X157425000Y-100056250D01*
X157423947Y-100077691D01*
X157420797Y-100098926D01*
X157415581Y-100119750D01*
X157408349Y-100139962D01*
X157399170Y-100159368D01*
X157388134Y-100177781D01*
X157375346Y-100195024D01*
X157360930Y-100210930D01*
X157345024Y-100225346D01*
X157327781Y-100238134D01*
X157309368Y-100249170D01*
X157289962Y-100258349D01*
X157269750Y-100265581D01*
X157248926Y-100270797D01*
X157227691Y-100273947D01*
X157206250Y-100275000D01*
X156768750Y-100275000D01*
X156747309Y-100273947D01*
X156726074Y-100270797D01*
X156705250Y-100265581D01*
X156685038Y-100258349D01*
X156665632Y-100249170D01*
X156647219Y-100238134D01*
X156629976Y-100225346D01*
X156614070Y-100210930D01*
X156599654Y-100195024D01*
X156586866Y-100177781D01*
X156575830Y-100159368D01*
X156566651Y-100139962D01*
X156559419Y-100119750D01*
X156554203Y-100098926D01*
X156551053Y-100077691D01*
X156550000Y-100056250D01*
X156550000Y-99543750D01*
X156551053Y-99522309D01*
X156554203Y-99501074D01*
X156559419Y-99480250D01*
X156566651Y-99460038D01*
X156575830Y-99440632D01*
X156586866Y-99422219D01*
X156599654Y-99404976D01*
X156614070Y-99389070D01*
X156629976Y-99374654D01*
X156647219Y-99361866D01*
X156665632Y-99350830D01*
X156685038Y-99341651D01*
X156705250Y-99334419D01*
X156726074Y-99329203D01*
X156747309Y-99326053D01*
X156768750Y-99325000D01*
X157206250Y-99325000D01*
X157227691Y-99326053D01*
G37*
G36*
X155652691Y-99326053D02*
G01*
X155673926Y-99329203D01*
X155694750Y-99334419D01*
X155714962Y-99341651D01*
X155734368Y-99350830D01*
X155752781Y-99361866D01*
X155770024Y-99374654D01*
X155785930Y-99389070D01*
X155800346Y-99404976D01*
X155813134Y-99422219D01*
X155824170Y-99440632D01*
X155833349Y-99460038D01*
X155840581Y-99480250D01*
X155845797Y-99501074D01*
X155848947Y-99522309D01*
X155850000Y-99543750D01*
X155850000Y-100056250D01*
X155848947Y-100077691D01*
X155845797Y-100098926D01*
X155840581Y-100119750D01*
X155833349Y-100139962D01*
X155824170Y-100159368D01*
X155813134Y-100177781D01*
X155800346Y-100195024D01*
X155785930Y-100210930D01*
X155770024Y-100225346D01*
X155752781Y-100238134D01*
X155734368Y-100249170D01*
X155714962Y-100258349D01*
X155694750Y-100265581D01*
X155673926Y-100270797D01*
X155652691Y-100273947D01*
X155631250Y-100275000D01*
X155193750Y-100275000D01*
X155172309Y-100273947D01*
X155151074Y-100270797D01*
X155130250Y-100265581D01*
X155110038Y-100258349D01*
X155090632Y-100249170D01*
X155072219Y-100238134D01*
X155054976Y-100225346D01*
X155039070Y-100210930D01*
X155024654Y-100195024D01*
X155011866Y-100177781D01*
X155000830Y-100159368D01*
X154991651Y-100139962D01*
X154984419Y-100119750D01*
X154979203Y-100098926D01*
X154976053Y-100077691D01*
X154975000Y-100056250D01*
X154975000Y-99543750D01*
X154976053Y-99522309D01*
X154979203Y-99501074D01*
X154984419Y-99480250D01*
X154991651Y-99460038D01*
X155000830Y-99440632D01*
X155011866Y-99422219D01*
X155024654Y-99404976D01*
X155039070Y-99389070D01*
X155054976Y-99374654D01*
X155072219Y-99361866D01*
X155090632Y-99350830D01*
X155110038Y-99341651D01*
X155130250Y-99334419D01*
X155151074Y-99329203D01*
X155172309Y-99326053D01*
X155193750Y-99325000D01*
X155631250Y-99325000D01*
X155652691Y-99326053D01*
G37*
M02*
