G04 #@! TF.GenerationSoftware,KiCad,Pcbnew,5.1.5-52549c5~84~ubuntu16.04.1*
G04 #@! TF.CreationDate,2020-01-09T22:10:55+01:00*
G04 #@! TF.ProjectId,Filter_PCB_4,46696c74-6572-45f5-9043-425f342e6b69,rev?*
G04 #@! TF.SameCoordinates,Original*
G04 #@! TF.FileFunction,Paste,Bot*
G04 #@! TF.FilePolarity,Positive*
%FSLAX46Y46*%
G04 Gerber Fmt 4.6, Leading zero omitted, Abs format (unit mm)*
G04 Created by KiCad (PCBNEW 5.1.5-52549c5~84~ubuntu16.04.1) date 2020-01-09 22:10:55*
%MOMM*%
%LPD*%
G04 APERTURE LIST*
%ADD10R,3.150000X1.000000*%
%ADD11C,0.100000*%
%ADD12R,1.400000X0.300000*%
G04 APERTURE END LIST*
D10*
X81175000Y-50640000D03*
X86225000Y-50640000D03*
X81175000Y-48100000D03*
X86225000Y-48100000D03*
X81175000Y-45560000D03*
X86225000Y-45560000D03*
D11*
G36*
X74927691Y-45326053D02*
G01*
X74948926Y-45329203D01*
X74969750Y-45334419D01*
X74989962Y-45341651D01*
X75009368Y-45350830D01*
X75027781Y-45361866D01*
X75045024Y-45374654D01*
X75060930Y-45389070D01*
X75075346Y-45404976D01*
X75088134Y-45422219D01*
X75099170Y-45440632D01*
X75108349Y-45460038D01*
X75115581Y-45480250D01*
X75120797Y-45501074D01*
X75123947Y-45522309D01*
X75125000Y-45543750D01*
X75125000Y-46056250D01*
X75123947Y-46077691D01*
X75120797Y-46098926D01*
X75115581Y-46119750D01*
X75108349Y-46139962D01*
X75099170Y-46159368D01*
X75088134Y-46177781D01*
X75075346Y-46195024D01*
X75060930Y-46210930D01*
X75045024Y-46225346D01*
X75027781Y-46238134D01*
X75009368Y-46249170D01*
X74989962Y-46258349D01*
X74969750Y-46265581D01*
X74948926Y-46270797D01*
X74927691Y-46273947D01*
X74906250Y-46275000D01*
X74468750Y-46275000D01*
X74447309Y-46273947D01*
X74426074Y-46270797D01*
X74405250Y-46265581D01*
X74385038Y-46258349D01*
X74365632Y-46249170D01*
X74347219Y-46238134D01*
X74329976Y-46225346D01*
X74314070Y-46210930D01*
X74299654Y-46195024D01*
X74286866Y-46177781D01*
X74275830Y-46159368D01*
X74266651Y-46139962D01*
X74259419Y-46119750D01*
X74254203Y-46098926D01*
X74251053Y-46077691D01*
X74250000Y-46056250D01*
X74250000Y-45543750D01*
X74251053Y-45522309D01*
X74254203Y-45501074D01*
X74259419Y-45480250D01*
X74266651Y-45460038D01*
X74275830Y-45440632D01*
X74286866Y-45422219D01*
X74299654Y-45404976D01*
X74314070Y-45389070D01*
X74329976Y-45374654D01*
X74347219Y-45361866D01*
X74365632Y-45350830D01*
X74385038Y-45341651D01*
X74405250Y-45334419D01*
X74426074Y-45329203D01*
X74447309Y-45326053D01*
X74468750Y-45325000D01*
X74906250Y-45325000D01*
X74927691Y-45326053D01*
G37*
G36*
X73352691Y-45326053D02*
G01*
X73373926Y-45329203D01*
X73394750Y-45334419D01*
X73414962Y-45341651D01*
X73434368Y-45350830D01*
X73452781Y-45361866D01*
X73470024Y-45374654D01*
X73485930Y-45389070D01*
X73500346Y-45404976D01*
X73513134Y-45422219D01*
X73524170Y-45440632D01*
X73533349Y-45460038D01*
X73540581Y-45480250D01*
X73545797Y-45501074D01*
X73548947Y-45522309D01*
X73550000Y-45543750D01*
X73550000Y-46056250D01*
X73548947Y-46077691D01*
X73545797Y-46098926D01*
X73540581Y-46119750D01*
X73533349Y-46139962D01*
X73524170Y-46159368D01*
X73513134Y-46177781D01*
X73500346Y-46195024D01*
X73485930Y-46210930D01*
X73470024Y-46225346D01*
X73452781Y-46238134D01*
X73434368Y-46249170D01*
X73414962Y-46258349D01*
X73394750Y-46265581D01*
X73373926Y-46270797D01*
X73352691Y-46273947D01*
X73331250Y-46275000D01*
X72893750Y-46275000D01*
X72872309Y-46273947D01*
X72851074Y-46270797D01*
X72830250Y-46265581D01*
X72810038Y-46258349D01*
X72790632Y-46249170D01*
X72772219Y-46238134D01*
X72754976Y-46225346D01*
X72739070Y-46210930D01*
X72724654Y-46195024D01*
X72711866Y-46177781D01*
X72700830Y-46159368D01*
X72691651Y-46139962D01*
X72684419Y-46119750D01*
X72679203Y-46098926D01*
X72676053Y-46077691D01*
X72675000Y-46056250D01*
X72675000Y-45543750D01*
X72676053Y-45522309D01*
X72679203Y-45501074D01*
X72684419Y-45480250D01*
X72691651Y-45460038D01*
X72700830Y-45440632D01*
X72711866Y-45422219D01*
X72724654Y-45404976D01*
X72739070Y-45389070D01*
X72754976Y-45374654D01*
X72772219Y-45361866D01*
X72790632Y-45350830D01*
X72810038Y-45341651D01*
X72830250Y-45334419D01*
X72851074Y-45329203D01*
X72872309Y-45326053D01*
X72893750Y-45325000D01*
X73331250Y-45325000D01*
X73352691Y-45326053D01*
G37*
G36*
X76477691Y-46951053D02*
G01*
X76498926Y-46954203D01*
X76519750Y-46959419D01*
X76539962Y-46966651D01*
X76559368Y-46975830D01*
X76577781Y-46986866D01*
X76595024Y-46999654D01*
X76610930Y-47014070D01*
X76625346Y-47029976D01*
X76638134Y-47047219D01*
X76649170Y-47065632D01*
X76658349Y-47085038D01*
X76665581Y-47105250D01*
X76670797Y-47126074D01*
X76673947Y-47147309D01*
X76675000Y-47168750D01*
X76675000Y-47606250D01*
X76673947Y-47627691D01*
X76670797Y-47648926D01*
X76665581Y-47669750D01*
X76658349Y-47689962D01*
X76649170Y-47709368D01*
X76638134Y-47727781D01*
X76625346Y-47745024D01*
X76610930Y-47760930D01*
X76595024Y-47775346D01*
X76577781Y-47788134D01*
X76559368Y-47799170D01*
X76539962Y-47808349D01*
X76519750Y-47815581D01*
X76498926Y-47820797D01*
X76477691Y-47823947D01*
X76456250Y-47825000D01*
X75943750Y-47825000D01*
X75922309Y-47823947D01*
X75901074Y-47820797D01*
X75880250Y-47815581D01*
X75860038Y-47808349D01*
X75840632Y-47799170D01*
X75822219Y-47788134D01*
X75804976Y-47775346D01*
X75789070Y-47760930D01*
X75774654Y-47745024D01*
X75761866Y-47727781D01*
X75750830Y-47709368D01*
X75741651Y-47689962D01*
X75734419Y-47669750D01*
X75729203Y-47648926D01*
X75726053Y-47627691D01*
X75725000Y-47606250D01*
X75725000Y-47168750D01*
X75726053Y-47147309D01*
X75729203Y-47126074D01*
X75734419Y-47105250D01*
X75741651Y-47085038D01*
X75750830Y-47065632D01*
X75761866Y-47047219D01*
X75774654Y-47029976D01*
X75789070Y-47014070D01*
X75804976Y-46999654D01*
X75822219Y-46986866D01*
X75840632Y-46975830D01*
X75860038Y-46966651D01*
X75880250Y-46959419D01*
X75901074Y-46954203D01*
X75922309Y-46951053D01*
X75943750Y-46950000D01*
X76456250Y-46950000D01*
X76477691Y-46951053D01*
G37*
G36*
X76477691Y-45376053D02*
G01*
X76498926Y-45379203D01*
X76519750Y-45384419D01*
X76539962Y-45391651D01*
X76559368Y-45400830D01*
X76577781Y-45411866D01*
X76595024Y-45424654D01*
X76610930Y-45439070D01*
X76625346Y-45454976D01*
X76638134Y-45472219D01*
X76649170Y-45490632D01*
X76658349Y-45510038D01*
X76665581Y-45530250D01*
X76670797Y-45551074D01*
X76673947Y-45572309D01*
X76675000Y-45593750D01*
X76675000Y-46031250D01*
X76673947Y-46052691D01*
X76670797Y-46073926D01*
X76665581Y-46094750D01*
X76658349Y-46114962D01*
X76649170Y-46134368D01*
X76638134Y-46152781D01*
X76625346Y-46170024D01*
X76610930Y-46185930D01*
X76595024Y-46200346D01*
X76577781Y-46213134D01*
X76559368Y-46224170D01*
X76539962Y-46233349D01*
X76519750Y-46240581D01*
X76498926Y-46245797D01*
X76477691Y-46248947D01*
X76456250Y-46250000D01*
X75943750Y-46250000D01*
X75922309Y-46248947D01*
X75901074Y-46245797D01*
X75880250Y-46240581D01*
X75860038Y-46233349D01*
X75840632Y-46224170D01*
X75822219Y-46213134D01*
X75804976Y-46200346D01*
X75789070Y-46185930D01*
X75774654Y-46170024D01*
X75761866Y-46152781D01*
X75750830Y-46134368D01*
X75741651Y-46114962D01*
X75734419Y-46094750D01*
X75729203Y-46073926D01*
X75726053Y-46052691D01*
X75725000Y-46031250D01*
X75725000Y-45593750D01*
X75726053Y-45572309D01*
X75729203Y-45551074D01*
X75734419Y-45530250D01*
X75741651Y-45510038D01*
X75750830Y-45490632D01*
X75761866Y-45472219D01*
X75774654Y-45454976D01*
X75789070Y-45439070D01*
X75804976Y-45424654D01*
X75822219Y-45411866D01*
X75840632Y-45400830D01*
X75860038Y-45391651D01*
X75880250Y-45384419D01*
X75901074Y-45379203D01*
X75922309Y-45376053D01*
X75943750Y-45375000D01*
X76456250Y-45375000D01*
X76477691Y-45376053D01*
G37*
G36*
X66637252Y-45825602D02*
G01*
X66649386Y-45827402D01*
X66661286Y-45830382D01*
X66672835Y-45834515D01*
X66683925Y-45839760D01*
X66694446Y-45846066D01*
X66704299Y-45853374D01*
X66713388Y-45861612D01*
X66721626Y-45870701D01*
X66728934Y-45880554D01*
X66735240Y-45891075D01*
X66740485Y-45902165D01*
X66744618Y-45913714D01*
X66747598Y-45925614D01*
X66749398Y-45937748D01*
X66750000Y-45950000D01*
X66750000Y-46950000D01*
X66749398Y-46962252D01*
X66747598Y-46974386D01*
X66744618Y-46986286D01*
X66740485Y-46997835D01*
X66735240Y-47008925D01*
X66728934Y-47019446D01*
X66721626Y-47029299D01*
X66713388Y-47038388D01*
X66704299Y-47046626D01*
X66694446Y-47053934D01*
X66683925Y-47060240D01*
X66672835Y-47065485D01*
X66661286Y-47069618D01*
X66649386Y-47072598D01*
X66637252Y-47074398D01*
X66625000Y-47075000D01*
X62625000Y-47075000D01*
X62612748Y-47074398D01*
X62600614Y-47072598D01*
X62588714Y-47069618D01*
X62577165Y-47065485D01*
X62566075Y-47060240D01*
X62555554Y-47053934D01*
X62545701Y-47046626D01*
X62536612Y-47038388D01*
X62528374Y-47029299D01*
X62521066Y-47019446D01*
X62514760Y-47008925D01*
X62509515Y-46997835D01*
X62505382Y-46986286D01*
X62502402Y-46974386D01*
X62500602Y-46962252D01*
X62500000Y-46950000D01*
X62500000Y-45950000D01*
X62500602Y-45937748D01*
X62502402Y-45925614D01*
X62505382Y-45913714D01*
X62509515Y-45902165D01*
X62514760Y-45891075D01*
X62521066Y-45880554D01*
X62528374Y-45870701D01*
X62536612Y-45861612D01*
X62545701Y-45853374D01*
X62555554Y-45846066D01*
X62566075Y-45839760D01*
X62577165Y-45834515D01*
X62588714Y-45830382D01*
X62600614Y-45827402D01*
X62612748Y-45825602D01*
X62625000Y-45825000D01*
X66625000Y-45825000D01*
X66637252Y-45825602D01*
G37*
G36*
X66637252Y-50925602D02*
G01*
X66649386Y-50927402D01*
X66661286Y-50930382D01*
X66672835Y-50934515D01*
X66683925Y-50939760D01*
X66694446Y-50946066D01*
X66704299Y-50953374D01*
X66713388Y-50961612D01*
X66721626Y-50970701D01*
X66728934Y-50980554D01*
X66735240Y-50991075D01*
X66740485Y-51002165D01*
X66744618Y-51013714D01*
X66747598Y-51025614D01*
X66749398Y-51037748D01*
X66750000Y-51050000D01*
X66750000Y-52050000D01*
X66749398Y-52062252D01*
X66747598Y-52074386D01*
X66744618Y-52086286D01*
X66740485Y-52097835D01*
X66735240Y-52108925D01*
X66728934Y-52119446D01*
X66721626Y-52129299D01*
X66713388Y-52138388D01*
X66704299Y-52146626D01*
X66694446Y-52153934D01*
X66683925Y-52160240D01*
X66672835Y-52165485D01*
X66661286Y-52169618D01*
X66649386Y-52172598D01*
X66637252Y-52174398D01*
X66625000Y-52175000D01*
X62625000Y-52175000D01*
X62612748Y-52174398D01*
X62600614Y-52172598D01*
X62588714Y-52169618D01*
X62577165Y-52165485D01*
X62566075Y-52160240D01*
X62555554Y-52153934D01*
X62545701Y-52146626D01*
X62536612Y-52138388D01*
X62528374Y-52129299D01*
X62521066Y-52119446D01*
X62514760Y-52108925D01*
X62509515Y-52097835D01*
X62505382Y-52086286D01*
X62502402Y-52074386D01*
X62500602Y-52062252D01*
X62500000Y-52050000D01*
X62500000Y-51050000D01*
X62500602Y-51037748D01*
X62502402Y-51025614D01*
X62505382Y-51013714D01*
X62509515Y-51002165D01*
X62514760Y-50991075D01*
X62521066Y-50980554D01*
X62528374Y-50970701D01*
X62536612Y-50961612D01*
X62545701Y-50953374D01*
X62555554Y-50946066D01*
X62566075Y-50939760D01*
X62577165Y-50934515D01*
X62588714Y-50930382D01*
X62600614Y-50927402D01*
X62612748Y-50925602D01*
X62625000Y-50925000D01*
X66625000Y-50925000D01*
X66637252Y-50925602D01*
G37*
G36*
X66637252Y-50925602D02*
G01*
X66649386Y-50927402D01*
X66661286Y-50930382D01*
X66672835Y-50934515D01*
X66683925Y-50939760D01*
X66694446Y-50946066D01*
X66704299Y-50953374D01*
X66713388Y-50961612D01*
X66721626Y-50970701D01*
X66728934Y-50980554D01*
X66735240Y-50991075D01*
X66740485Y-51002165D01*
X66744618Y-51013714D01*
X66747598Y-51025614D01*
X66749398Y-51037748D01*
X66750000Y-51050000D01*
X66750000Y-52050000D01*
X66749398Y-52062252D01*
X66747598Y-52074386D01*
X66744618Y-52086286D01*
X66740485Y-52097835D01*
X66735240Y-52108925D01*
X66728934Y-52119446D01*
X66721626Y-52129299D01*
X66713388Y-52138388D01*
X66704299Y-52146626D01*
X66694446Y-52153934D01*
X66683925Y-52160240D01*
X66672835Y-52165485D01*
X66661286Y-52169618D01*
X66649386Y-52172598D01*
X66637252Y-52174398D01*
X66625000Y-52175000D01*
X62625000Y-52175000D01*
X62612748Y-52174398D01*
X62600614Y-52172598D01*
X62588714Y-52169618D01*
X62577165Y-52165485D01*
X62566075Y-52160240D01*
X62555554Y-52153934D01*
X62545701Y-52146626D01*
X62536612Y-52138388D01*
X62528374Y-52129299D01*
X62521066Y-52119446D01*
X62514760Y-52108925D01*
X62509515Y-52097835D01*
X62505382Y-52086286D01*
X62502402Y-52074386D01*
X62500602Y-52062252D01*
X62500000Y-52050000D01*
X62500000Y-51050000D01*
X62500602Y-51037748D01*
X62502402Y-51025614D01*
X62505382Y-51013714D01*
X62509515Y-51002165D01*
X62514760Y-50991075D01*
X62521066Y-50980554D01*
X62528374Y-50970701D01*
X62536612Y-50961612D01*
X62545701Y-50953374D01*
X62555554Y-50946066D01*
X62566075Y-50939760D01*
X62577165Y-50934515D01*
X62588714Y-50930382D01*
X62600614Y-50927402D01*
X62612748Y-50925602D01*
X62625000Y-50925000D01*
X66625000Y-50925000D01*
X66637252Y-50925602D01*
G37*
G36*
X94787252Y-44325602D02*
G01*
X94799386Y-44327402D01*
X94811286Y-44330382D01*
X94822835Y-44334515D01*
X94833925Y-44339760D01*
X94844446Y-44346066D01*
X94854299Y-44353374D01*
X94863388Y-44361612D01*
X94871626Y-44370701D01*
X94878934Y-44380554D01*
X94885240Y-44391075D01*
X94890485Y-44402165D01*
X94894618Y-44413714D01*
X94897598Y-44425614D01*
X94899398Y-44437748D01*
X94900000Y-44450000D01*
X94900000Y-45450000D01*
X94899398Y-45462252D01*
X94897598Y-45474386D01*
X94894618Y-45486286D01*
X94890485Y-45497835D01*
X94885240Y-45508925D01*
X94878934Y-45519446D01*
X94871626Y-45529299D01*
X94863388Y-45538388D01*
X94854299Y-45546626D01*
X94844446Y-45553934D01*
X94833925Y-45560240D01*
X94822835Y-45565485D01*
X94811286Y-45569618D01*
X94799386Y-45572598D01*
X94787252Y-45574398D01*
X94775000Y-45575000D01*
X90775000Y-45575000D01*
X90762748Y-45574398D01*
X90750614Y-45572598D01*
X90738714Y-45569618D01*
X90727165Y-45565485D01*
X90716075Y-45560240D01*
X90705554Y-45553934D01*
X90695701Y-45546626D01*
X90686612Y-45538388D01*
X90678374Y-45529299D01*
X90671066Y-45519446D01*
X90664760Y-45508925D01*
X90659515Y-45497835D01*
X90655382Y-45486286D01*
X90652402Y-45474386D01*
X90650602Y-45462252D01*
X90650000Y-45450000D01*
X90650000Y-44450000D01*
X90650602Y-44437748D01*
X90652402Y-44425614D01*
X90655382Y-44413714D01*
X90659515Y-44402165D01*
X90664760Y-44391075D01*
X90671066Y-44380554D01*
X90678374Y-44370701D01*
X90686612Y-44361612D01*
X90695701Y-44353374D01*
X90705554Y-44346066D01*
X90716075Y-44339760D01*
X90727165Y-44334515D01*
X90738714Y-44330382D01*
X90750614Y-44327402D01*
X90762748Y-44325602D01*
X90775000Y-44325000D01*
X94775000Y-44325000D01*
X94787252Y-44325602D01*
G37*
G36*
X94787252Y-44325602D02*
G01*
X94799386Y-44327402D01*
X94811286Y-44330382D01*
X94822835Y-44334515D01*
X94833925Y-44339760D01*
X94844446Y-44346066D01*
X94854299Y-44353374D01*
X94863388Y-44361612D01*
X94871626Y-44370701D01*
X94878934Y-44380554D01*
X94885240Y-44391075D01*
X94890485Y-44402165D01*
X94894618Y-44413714D01*
X94897598Y-44425614D01*
X94899398Y-44437748D01*
X94900000Y-44450000D01*
X94900000Y-45450000D01*
X94899398Y-45462252D01*
X94897598Y-45474386D01*
X94894618Y-45486286D01*
X94890485Y-45497835D01*
X94885240Y-45508925D01*
X94878934Y-45519446D01*
X94871626Y-45529299D01*
X94863388Y-45538388D01*
X94854299Y-45546626D01*
X94844446Y-45553934D01*
X94833925Y-45560240D01*
X94822835Y-45565485D01*
X94811286Y-45569618D01*
X94799386Y-45572598D01*
X94787252Y-45574398D01*
X94775000Y-45575000D01*
X90775000Y-45575000D01*
X90762748Y-45574398D01*
X90750614Y-45572598D01*
X90738714Y-45569618D01*
X90727165Y-45565485D01*
X90716075Y-45560240D01*
X90705554Y-45553934D01*
X90695701Y-45546626D01*
X90686612Y-45538388D01*
X90678374Y-45529299D01*
X90671066Y-45519446D01*
X90664760Y-45508925D01*
X90659515Y-45497835D01*
X90655382Y-45486286D01*
X90652402Y-45474386D01*
X90650602Y-45462252D01*
X90650000Y-45450000D01*
X90650000Y-44450000D01*
X90650602Y-44437748D01*
X90652402Y-44425614D01*
X90655382Y-44413714D01*
X90659515Y-44402165D01*
X90664760Y-44391075D01*
X90671066Y-44380554D01*
X90678374Y-44370701D01*
X90686612Y-44361612D01*
X90695701Y-44353374D01*
X90705554Y-44346066D01*
X90716075Y-44339760D01*
X90727165Y-44334515D01*
X90738714Y-44330382D01*
X90750614Y-44327402D01*
X90762748Y-44325602D01*
X90775000Y-44325000D01*
X94775000Y-44325000D01*
X94787252Y-44325602D01*
G37*
G36*
X94787252Y-49425602D02*
G01*
X94799386Y-49427402D01*
X94811286Y-49430382D01*
X94822835Y-49434515D01*
X94833925Y-49439760D01*
X94844446Y-49446066D01*
X94854299Y-49453374D01*
X94863388Y-49461612D01*
X94871626Y-49470701D01*
X94878934Y-49480554D01*
X94885240Y-49491075D01*
X94890485Y-49502165D01*
X94894618Y-49513714D01*
X94897598Y-49525614D01*
X94899398Y-49537748D01*
X94900000Y-49550000D01*
X94900000Y-50550000D01*
X94899398Y-50562252D01*
X94897598Y-50574386D01*
X94894618Y-50586286D01*
X94890485Y-50597835D01*
X94885240Y-50608925D01*
X94878934Y-50619446D01*
X94871626Y-50629299D01*
X94863388Y-50638388D01*
X94854299Y-50646626D01*
X94844446Y-50653934D01*
X94833925Y-50660240D01*
X94822835Y-50665485D01*
X94811286Y-50669618D01*
X94799386Y-50672598D01*
X94787252Y-50674398D01*
X94775000Y-50675000D01*
X90775000Y-50675000D01*
X90762748Y-50674398D01*
X90750614Y-50672598D01*
X90738714Y-50669618D01*
X90727165Y-50665485D01*
X90716075Y-50660240D01*
X90705554Y-50653934D01*
X90695701Y-50646626D01*
X90686612Y-50638388D01*
X90678374Y-50629299D01*
X90671066Y-50619446D01*
X90664760Y-50608925D01*
X90659515Y-50597835D01*
X90655382Y-50586286D01*
X90652402Y-50574386D01*
X90650602Y-50562252D01*
X90650000Y-50550000D01*
X90650000Y-49550000D01*
X90650602Y-49537748D01*
X90652402Y-49525614D01*
X90655382Y-49513714D01*
X90659515Y-49502165D01*
X90664760Y-49491075D01*
X90671066Y-49480554D01*
X90678374Y-49470701D01*
X90686612Y-49461612D01*
X90695701Y-49453374D01*
X90705554Y-49446066D01*
X90716075Y-49439760D01*
X90727165Y-49434515D01*
X90738714Y-49430382D01*
X90750614Y-49427402D01*
X90762748Y-49425602D01*
X90775000Y-49425000D01*
X94775000Y-49425000D01*
X94787252Y-49425602D01*
G37*
G36*
X73352691Y-46926053D02*
G01*
X73373926Y-46929203D01*
X73394750Y-46934419D01*
X73414962Y-46941651D01*
X73434368Y-46950830D01*
X73452781Y-46961866D01*
X73470024Y-46974654D01*
X73485930Y-46989070D01*
X73500346Y-47004976D01*
X73513134Y-47022219D01*
X73524170Y-47040632D01*
X73533349Y-47060038D01*
X73540581Y-47080250D01*
X73545797Y-47101074D01*
X73548947Y-47122309D01*
X73550000Y-47143750D01*
X73550000Y-47656250D01*
X73548947Y-47677691D01*
X73545797Y-47698926D01*
X73540581Y-47719750D01*
X73533349Y-47739962D01*
X73524170Y-47759368D01*
X73513134Y-47777781D01*
X73500346Y-47795024D01*
X73485930Y-47810930D01*
X73470024Y-47825346D01*
X73452781Y-47838134D01*
X73434368Y-47849170D01*
X73414962Y-47858349D01*
X73394750Y-47865581D01*
X73373926Y-47870797D01*
X73352691Y-47873947D01*
X73331250Y-47875000D01*
X72893750Y-47875000D01*
X72872309Y-47873947D01*
X72851074Y-47870797D01*
X72830250Y-47865581D01*
X72810038Y-47858349D01*
X72790632Y-47849170D01*
X72772219Y-47838134D01*
X72754976Y-47825346D01*
X72739070Y-47810930D01*
X72724654Y-47795024D01*
X72711866Y-47777781D01*
X72700830Y-47759368D01*
X72691651Y-47739962D01*
X72684419Y-47719750D01*
X72679203Y-47698926D01*
X72676053Y-47677691D01*
X72675000Y-47656250D01*
X72675000Y-47143750D01*
X72676053Y-47122309D01*
X72679203Y-47101074D01*
X72684419Y-47080250D01*
X72691651Y-47060038D01*
X72700830Y-47040632D01*
X72711866Y-47022219D01*
X72724654Y-47004976D01*
X72739070Y-46989070D01*
X72754976Y-46974654D01*
X72772219Y-46961866D01*
X72790632Y-46950830D01*
X72810038Y-46941651D01*
X72830250Y-46934419D01*
X72851074Y-46929203D01*
X72872309Y-46926053D01*
X72893750Y-46925000D01*
X73331250Y-46925000D01*
X73352691Y-46926053D01*
G37*
G36*
X74927691Y-46926053D02*
G01*
X74948926Y-46929203D01*
X74969750Y-46934419D01*
X74989962Y-46941651D01*
X75009368Y-46950830D01*
X75027781Y-46961866D01*
X75045024Y-46974654D01*
X75060930Y-46989070D01*
X75075346Y-47004976D01*
X75088134Y-47022219D01*
X75099170Y-47040632D01*
X75108349Y-47060038D01*
X75115581Y-47080250D01*
X75120797Y-47101074D01*
X75123947Y-47122309D01*
X75125000Y-47143750D01*
X75125000Y-47656250D01*
X75123947Y-47677691D01*
X75120797Y-47698926D01*
X75115581Y-47719750D01*
X75108349Y-47739962D01*
X75099170Y-47759368D01*
X75088134Y-47777781D01*
X75075346Y-47795024D01*
X75060930Y-47810930D01*
X75045024Y-47825346D01*
X75027781Y-47838134D01*
X75009368Y-47849170D01*
X74989962Y-47858349D01*
X74969750Y-47865581D01*
X74948926Y-47870797D01*
X74927691Y-47873947D01*
X74906250Y-47875000D01*
X74468750Y-47875000D01*
X74447309Y-47873947D01*
X74426074Y-47870797D01*
X74405250Y-47865581D01*
X74385038Y-47858349D01*
X74365632Y-47849170D01*
X74347219Y-47838134D01*
X74329976Y-47825346D01*
X74314070Y-47810930D01*
X74299654Y-47795024D01*
X74286866Y-47777781D01*
X74275830Y-47759368D01*
X74266651Y-47739962D01*
X74259419Y-47719750D01*
X74254203Y-47698926D01*
X74251053Y-47677691D01*
X74250000Y-47656250D01*
X74250000Y-47143750D01*
X74251053Y-47122309D01*
X74254203Y-47101074D01*
X74259419Y-47080250D01*
X74266651Y-47060038D01*
X74275830Y-47040632D01*
X74286866Y-47022219D01*
X74299654Y-47004976D01*
X74314070Y-46989070D01*
X74329976Y-46974654D01*
X74347219Y-46961866D01*
X74365632Y-46950830D01*
X74385038Y-46941651D01*
X74405250Y-46934419D01*
X74426074Y-46929203D01*
X74447309Y-46926053D01*
X74468750Y-46925000D01*
X74906250Y-46925000D01*
X74927691Y-46926053D01*
G37*
D12*
X71700000Y-49000000D03*
X71700000Y-49500000D03*
X71700000Y-50000000D03*
X71700000Y-50500000D03*
X71700000Y-51000000D03*
X76100000Y-51000000D03*
X76100000Y-50500000D03*
X76100000Y-50000000D03*
X76100000Y-49500000D03*
X76100000Y-49000000D03*
M02*
