G04 #@! TF.GenerationSoftware,KiCad,Pcbnew,5.1.5-52549c5~84~ubuntu16.04.1*
G04 #@! TF.CreationDate,2020-01-09T22:10:55+01:00*
G04 #@! TF.ProjectId,Filter_PCB_4,46696c74-6572-45f5-9043-425f342e6b69,rev?*
G04 #@! TF.SameCoordinates,Original*
G04 #@! TF.FileFunction,Soldermask,Top*
G04 #@! TF.FilePolarity,Negative*
%FSLAX46Y46*%
G04 Gerber Fmt 4.6, Leading zero omitted, Abs format (unit mm)*
G04 Created by KiCad (PCBNEW 5.1.5-52549c5~84~ubuntu16.04.1) date 2020-01-09 22:10:55*
%MOMM*%
%LPD*%
G04 APERTURE LIST*
%ADD10C,0.100000*%
G04 APERTURE END LIST*
D10*
G36*
X66772549Y-50875269D02*
G01*
X66779039Y-50877238D01*
X66785021Y-50880435D01*
X66790263Y-50884737D01*
X66794565Y-50889979D01*
X66797762Y-50895961D01*
X66799731Y-50902451D01*
X66801000Y-50915338D01*
X66801000Y-52184662D01*
X66799731Y-52197549D01*
X66797762Y-52204039D01*
X66794565Y-52210021D01*
X66790263Y-52215263D01*
X66785021Y-52219565D01*
X66779039Y-52222762D01*
X66772549Y-52224731D01*
X66759662Y-52226000D01*
X62490338Y-52226000D01*
X62477451Y-52224731D01*
X62470961Y-52222762D01*
X62464979Y-52219565D01*
X62459737Y-52215263D01*
X62455435Y-52210021D01*
X62452238Y-52204039D01*
X62450269Y-52197549D01*
X62449000Y-52184662D01*
X62449000Y-50915338D01*
X62450269Y-50902451D01*
X62452238Y-50895961D01*
X62455435Y-50889979D01*
X62459737Y-50884737D01*
X62464979Y-50880435D01*
X62470961Y-50877238D01*
X62477451Y-50875269D01*
X62490338Y-50874000D01*
X66759662Y-50874000D01*
X66772549Y-50875269D01*
G37*
G36*
X86029591Y-51078085D02*
G01*
X86063569Y-51088393D01*
X86094890Y-51105134D01*
X86122339Y-51127661D01*
X86144866Y-51155110D01*
X86161607Y-51186431D01*
X86171915Y-51220409D01*
X86176000Y-51261890D01*
X86176000Y-51938110D01*
X86171915Y-51979591D01*
X86161607Y-52013569D01*
X86144866Y-52044890D01*
X86122339Y-52072339D01*
X86094890Y-52094866D01*
X86063569Y-52111607D01*
X86029591Y-52121915D01*
X85988110Y-52126000D01*
X85386890Y-52126000D01*
X85345409Y-52121915D01*
X85311431Y-52111607D01*
X85280110Y-52094866D01*
X85252661Y-52072339D01*
X85230134Y-52044890D01*
X85213393Y-52013569D01*
X85203085Y-51979591D01*
X85199000Y-51938110D01*
X85199000Y-51261890D01*
X85203085Y-51220409D01*
X85213393Y-51186431D01*
X85230134Y-51155110D01*
X85252661Y-51127661D01*
X85280110Y-51105134D01*
X85311431Y-51088393D01*
X85345409Y-51078085D01*
X85386890Y-51074000D01*
X85988110Y-51074000D01*
X86029591Y-51078085D01*
G37*
G36*
X84454591Y-51078085D02*
G01*
X84488569Y-51088393D01*
X84519890Y-51105134D01*
X84547339Y-51127661D01*
X84569866Y-51155110D01*
X84586607Y-51186431D01*
X84596915Y-51220409D01*
X84601000Y-51261890D01*
X84601000Y-51938110D01*
X84596915Y-51979591D01*
X84586607Y-52013569D01*
X84569866Y-52044890D01*
X84547339Y-52072339D01*
X84519890Y-52094866D01*
X84488569Y-52111607D01*
X84454591Y-52121915D01*
X84413110Y-52126000D01*
X83811890Y-52126000D01*
X83770409Y-52121915D01*
X83736431Y-52111607D01*
X83705110Y-52094866D01*
X83677661Y-52072339D01*
X83655134Y-52044890D01*
X83638393Y-52013569D01*
X83628085Y-51979591D01*
X83624000Y-51938110D01*
X83624000Y-51261890D01*
X83628085Y-51220409D01*
X83638393Y-51186431D01*
X83655134Y-51155110D01*
X83677661Y-51127661D01*
X83705110Y-51105134D01*
X83736431Y-51088393D01*
X83770409Y-51078085D01*
X83811890Y-51074000D01*
X84413110Y-51074000D01*
X84454591Y-51078085D01*
G37*
G36*
X78254591Y-51078085D02*
G01*
X78288569Y-51088393D01*
X78319890Y-51105134D01*
X78347339Y-51127661D01*
X78369866Y-51155110D01*
X78386607Y-51186431D01*
X78396915Y-51220409D01*
X78401000Y-51261890D01*
X78401000Y-51938110D01*
X78396915Y-51979591D01*
X78386607Y-52013569D01*
X78369866Y-52044890D01*
X78347339Y-52072339D01*
X78319890Y-52094866D01*
X78288569Y-52111607D01*
X78254591Y-52121915D01*
X78213110Y-52126000D01*
X77611890Y-52126000D01*
X77570409Y-52121915D01*
X77536431Y-52111607D01*
X77505110Y-52094866D01*
X77477661Y-52072339D01*
X77455134Y-52044890D01*
X77438393Y-52013569D01*
X77428085Y-51979591D01*
X77424000Y-51938110D01*
X77424000Y-51261890D01*
X77428085Y-51220409D01*
X77438393Y-51186431D01*
X77455134Y-51155110D01*
X77477661Y-51127661D01*
X77505110Y-51105134D01*
X77536431Y-51088393D01*
X77570409Y-51078085D01*
X77611890Y-51074000D01*
X78213110Y-51074000D01*
X78254591Y-51078085D01*
G37*
G36*
X72054591Y-51078085D02*
G01*
X72088569Y-51088393D01*
X72119890Y-51105134D01*
X72147339Y-51127661D01*
X72169866Y-51155110D01*
X72186607Y-51186431D01*
X72196915Y-51220409D01*
X72201000Y-51261890D01*
X72201000Y-51938110D01*
X72196915Y-51979591D01*
X72186607Y-52013569D01*
X72169866Y-52044890D01*
X72147339Y-52072339D01*
X72119890Y-52094866D01*
X72088569Y-52111607D01*
X72054591Y-52121915D01*
X72013110Y-52126000D01*
X71411890Y-52126000D01*
X71370409Y-52121915D01*
X71336431Y-52111607D01*
X71305110Y-52094866D01*
X71277661Y-52072339D01*
X71255134Y-52044890D01*
X71238393Y-52013569D01*
X71228085Y-51979591D01*
X71224000Y-51938110D01*
X71224000Y-51261890D01*
X71228085Y-51220409D01*
X71238393Y-51186431D01*
X71255134Y-51155110D01*
X71277661Y-51127661D01*
X71305110Y-51105134D01*
X71336431Y-51088393D01*
X71370409Y-51078085D01*
X71411890Y-51074000D01*
X72013110Y-51074000D01*
X72054591Y-51078085D01*
G37*
G36*
X73629591Y-51078085D02*
G01*
X73663569Y-51088393D01*
X73694890Y-51105134D01*
X73722339Y-51127661D01*
X73744866Y-51155110D01*
X73761607Y-51186431D01*
X73771915Y-51220409D01*
X73776000Y-51261890D01*
X73776000Y-51938110D01*
X73771915Y-51979591D01*
X73761607Y-52013569D01*
X73744866Y-52044890D01*
X73722339Y-52072339D01*
X73694890Y-52094866D01*
X73663569Y-52111607D01*
X73629591Y-52121915D01*
X73588110Y-52126000D01*
X72986890Y-52126000D01*
X72945409Y-52121915D01*
X72911431Y-52111607D01*
X72880110Y-52094866D01*
X72852661Y-52072339D01*
X72830134Y-52044890D01*
X72813393Y-52013569D01*
X72803085Y-51979591D01*
X72799000Y-51938110D01*
X72799000Y-51261890D01*
X72803085Y-51220409D01*
X72813393Y-51186431D01*
X72830134Y-51155110D01*
X72852661Y-51127661D01*
X72880110Y-51105134D01*
X72911431Y-51088393D01*
X72945409Y-51078085D01*
X72986890Y-51074000D01*
X73588110Y-51074000D01*
X73629591Y-51078085D01*
G37*
G36*
X79829591Y-51078085D02*
G01*
X79863569Y-51088393D01*
X79894890Y-51105134D01*
X79922339Y-51127661D01*
X79944866Y-51155110D01*
X79961607Y-51186431D01*
X79971915Y-51220409D01*
X79976000Y-51261890D01*
X79976000Y-51938110D01*
X79971915Y-51979591D01*
X79961607Y-52013569D01*
X79944866Y-52044890D01*
X79922339Y-52072339D01*
X79894890Y-52094866D01*
X79863569Y-52111607D01*
X79829591Y-52121915D01*
X79788110Y-52126000D01*
X79186890Y-52126000D01*
X79145409Y-52121915D01*
X79111431Y-52111607D01*
X79080110Y-52094866D01*
X79052661Y-52072339D01*
X79030134Y-52044890D01*
X79013393Y-52013569D01*
X79003085Y-51979591D01*
X78999000Y-51938110D01*
X78999000Y-51261890D01*
X79003085Y-51220409D01*
X79013393Y-51186431D01*
X79030134Y-51155110D01*
X79052661Y-51127661D01*
X79080110Y-51105134D01*
X79111431Y-51088393D01*
X79145409Y-51078085D01*
X79186890Y-51074000D01*
X79788110Y-51074000D01*
X79829591Y-51078085D01*
G37*
G36*
X69709928Y-51351764D02*
G01*
X69731009Y-51358160D01*
X69750445Y-51368548D01*
X69767476Y-51382524D01*
X69781452Y-51399555D01*
X69791840Y-51418991D01*
X69798236Y-51440072D01*
X69801000Y-51468140D01*
X69801000Y-51931860D01*
X69798236Y-51959928D01*
X69791840Y-51981009D01*
X69781452Y-52000445D01*
X69767476Y-52017476D01*
X69750445Y-52031452D01*
X69731009Y-52041840D01*
X69709928Y-52048236D01*
X69681860Y-52051000D01*
X69118140Y-52051000D01*
X69090072Y-52048236D01*
X69068991Y-52041840D01*
X69049555Y-52031452D01*
X69032524Y-52017476D01*
X69018548Y-52000445D01*
X69008160Y-51981009D01*
X69001764Y-51959928D01*
X68999000Y-51931860D01*
X68999000Y-51468140D01*
X69001764Y-51440072D01*
X69008160Y-51418991D01*
X69018548Y-51399555D01*
X69032524Y-51382524D01*
X69049555Y-51368548D01*
X69068991Y-51358160D01*
X69090072Y-51351764D01*
X69118140Y-51349000D01*
X69681860Y-51349000D01*
X69709928Y-51351764D01*
G37*
G36*
X88309928Y-51351764D02*
G01*
X88331009Y-51358160D01*
X88350445Y-51368548D01*
X88367476Y-51382524D01*
X88381452Y-51399555D01*
X88391840Y-51418991D01*
X88398236Y-51440072D01*
X88401000Y-51468140D01*
X88401000Y-51931860D01*
X88398236Y-51959928D01*
X88391840Y-51981009D01*
X88381452Y-52000445D01*
X88367476Y-52017476D01*
X88350445Y-52031452D01*
X88331009Y-52041840D01*
X88309928Y-52048236D01*
X88281860Y-52051000D01*
X87718140Y-52051000D01*
X87690072Y-52048236D01*
X87668991Y-52041840D01*
X87649555Y-52031452D01*
X87632524Y-52017476D01*
X87618548Y-52000445D01*
X87608160Y-51981009D01*
X87601764Y-51959928D01*
X87599000Y-51931860D01*
X87599000Y-51468140D01*
X87601764Y-51440072D01*
X87608160Y-51418991D01*
X87618548Y-51399555D01*
X87632524Y-51382524D01*
X87649555Y-51368548D01*
X87668991Y-51358160D01*
X87690072Y-51351764D01*
X87718140Y-51349000D01*
X88281860Y-51349000D01*
X88309928Y-51351764D01*
G37*
G36*
X82109928Y-51351764D02*
G01*
X82131009Y-51358160D01*
X82150445Y-51368548D01*
X82167476Y-51382524D01*
X82181452Y-51399555D01*
X82191840Y-51418991D01*
X82198236Y-51440072D01*
X82201000Y-51468140D01*
X82201000Y-51931860D01*
X82198236Y-51959928D01*
X82191840Y-51981009D01*
X82181452Y-52000445D01*
X82167476Y-52017476D01*
X82150445Y-52031452D01*
X82131009Y-52041840D01*
X82109928Y-52048236D01*
X82081860Y-52051000D01*
X81518140Y-52051000D01*
X81490072Y-52048236D01*
X81468991Y-52041840D01*
X81449555Y-52031452D01*
X81432524Y-52017476D01*
X81418548Y-52000445D01*
X81408160Y-51981009D01*
X81401764Y-51959928D01*
X81399000Y-51931860D01*
X81399000Y-51468140D01*
X81401764Y-51440072D01*
X81408160Y-51418991D01*
X81418548Y-51399555D01*
X81432524Y-51382524D01*
X81449555Y-51368548D01*
X81468991Y-51358160D01*
X81490072Y-51351764D01*
X81518140Y-51349000D01*
X82081860Y-51349000D01*
X82109928Y-51351764D01*
G37*
G36*
X75909928Y-51351764D02*
G01*
X75931009Y-51358160D01*
X75950445Y-51368548D01*
X75967476Y-51382524D01*
X75981452Y-51399555D01*
X75991840Y-51418991D01*
X75998236Y-51440072D01*
X76001000Y-51468140D01*
X76001000Y-51931860D01*
X75998236Y-51959928D01*
X75991840Y-51981009D01*
X75981452Y-52000445D01*
X75967476Y-52017476D01*
X75950445Y-52031452D01*
X75931009Y-52041840D01*
X75909928Y-52048236D01*
X75881860Y-52051000D01*
X75318140Y-52051000D01*
X75290072Y-52048236D01*
X75268991Y-52041840D01*
X75249555Y-52031452D01*
X75232524Y-52017476D01*
X75218548Y-52000445D01*
X75208160Y-51981009D01*
X75201764Y-51959928D01*
X75199000Y-51931860D01*
X75199000Y-51468140D01*
X75201764Y-51440072D01*
X75208160Y-51418991D01*
X75218548Y-51399555D01*
X75232524Y-51382524D01*
X75249555Y-51368548D01*
X75268991Y-51358160D01*
X75290072Y-51351764D01*
X75318140Y-51349000D01*
X75881860Y-51349000D01*
X75909928Y-51351764D01*
G37*
G36*
X94922549Y-49375269D02*
G01*
X94929039Y-49377238D01*
X94935021Y-49380435D01*
X94940263Y-49384737D01*
X94944565Y-49389979D01*
X94947762Y-49395961D01*
X94949731Y-49402451D01*
X94951000Y-49415338D01*
X94951000Y-50684662D01*
X94949731Y-50697549D01*
X94947762Y-50704039D01*
X94944565Y-50710021D01*
X94940263Y-50715263D01*
X94935021Y-50719565D01*
X94929039Y-50722762D01*
X94922549Y-50724731D01*
X94909662Y-50726000D01*
X90640338Y-50726000D01*
X90627451Y-50724731D01*
X90620961Y-50722762D01*
X90614979Y-50719565D01*
X90609737Y-50715263D01*
X90605435Y-50710021D01*
X90602238Y-50704039D01*
X90600269Y-50697549D01*
X90599000Y-50684662D01*
X90599000Y-49415338D01*
X90600269Y-49402451D01*
X90602238Y-49395961D01*
X90605435Y-49389979D01*
X90609737Y-49384737D01*
X90614979Y-49380435D01*
X90620961Y-49377238D01*
X90627451Y-49375269D01*
X90640338Y-49374000D01*
X94909662Y-49374000D01*
X94922549Y-49375269D01*
G37*
G36*
X69709928Y-49951764D02*
G01*
X69731009Y-49958160D01*
X69750445Y-49968548D01*
X69767476Y-49982524D01*
X69781452Y-49999555D01*
X69791840Y-50018991D01*
X69798236Y-50040072D01*
X69801000Y-50068140D01*
X69801000Y-50531860D01*
X69798236Y-50559928D01*
X69791840Y-50581009D01*
X69781452Y-50600445D01*
X69767476Y-50617476D01*
X69750445Y-50631452D01*
X69731009Y-50641840D01*
X69709928Y-50648236D01*
X69681860Y-50651000D01*
X69118140Y-50651000D01*
X69090072Y-50648236D01*
X69068991Y-50641840D01*
X69049555Y-50631452D01*
X69032524Y-50617476D01*
X69018548Y-50600445D01*
X69008160Y-50581009D01*
X69001764Y-50559928D01*
X68999000Y-50531860D01*
X68999000Y-50068140D01*
X69001764Y-50040072D01*
X69008160Y-50018991D01*
X69018548Y-49999555D01*
X69032524Y-49982524D01*
X69049555Y-49968548D01*
X69068991Y-49958160D01*
X69090072Y-49951764D01*
X69118140Y-49949000D01*
X69681860Y-49949000D01*
X69709928Y-49951764D01*
G37*
G36*
X88309928Y-49951764D02*
G01*
X88331009Y-49958160D01*
X88350445Y-49968548D01*
X88367476Y-49982524D01*
X88381452Y-49999555D01*
X88391840Y-50018991D01*
X88398236Y-50040072D01*
X88401000Y-50068140D01*
X88401000Y-50531860D01*
X88398236Y-50559928D01*
X88391840Y-50581009D01*
X88381452Y-50600445D01*
X88367476Y-50617476D01*
X88350445Y-50631452D01*
X88331009Y-50641840D01*
X88309928Y-50648236D01*
X88281860Y-50651000D01*
X87718140Y-50651000D01*
X87690072Y-50648236D01*
X87668991Y-50641840D01*
X87649555Y-50631452D01*
X87632524Y-50617476D01*
X87618548Y-50600445D01*
X87608160Y-50581009D01*
X87601764Y-50559928D01*
X87599000Y-50531860D01*
X87599000Y-50068140D01*
X87601764Y-50040072D01*
X87608160Y-50018991D01*
X87618548Y-49999555D01*
X87632524Y-49982524D01*
X87649555Y-49968548D01*
X87668991Y-49958160D01*
X87690072Y-49951764D01*
X87718140Y-49949000D01*
X88281860Y-49949000D01*
X88309928Y-49951764D01*
G37*
G36*
X82109928Y-49951764D02*
G01*
X82131009Y-49958160D01*
X82150445Y-49968548D01*
X82167476Y-49982524D01*
X82181452Y-49999555D01*
X82191840Y-50018991D01*
X82198236Y-50040072D01*
X82201000Y-50068140D01*
X82201000Y-50531860D01*
X82198236Y-50559928D01*
X82191840Y-50581009D01*
X82181452Y-50600445D01*
X82167476Y-50617476D01*
X82150445Y-50631452D01*
X82131009Y-50641840D01*
X82109928Y-50648236D01*
X82081860Y-50651000D01*
X81518140Y-50651000D01*
X81490072Y-50648236D01*
X81468991Y-50641840D01*
X81449555Y-50631452D01*
X81432524Y-50617476D01*
X81418548Y-50600445D01*
X81408160Y-50581009D01*
X81401764Y-50559928D01*
X81399000Y-50531860D01*
X81399000Y-50068140D01*
X81401764Y-50040072D01*
X81408160Y-50018991D01*
X81418548Y-49999555D01*
X81432524Y-49982524D01*
X81449555Y-49968548D01*
X81468991Y-49958160D01*
X81490072Y-49951764D01*
X81518140Y-49949000D01*
X82081860Y-49949000D01*
X82109928Y-49951764D01*
G37*
G36*
X75909928Y-49951764D02*
G01*
X75931009Y-49958160D01*
X75950445Y-49968548D01*
X75967476Y-49982524D01*
X75981452Y-49999555D01*
X75991840Y-50018991D01*
X75998236Y-50040072D01*
X76001000Y-50068140D01*
X76001000Y-50531860D01*
X75998236Y-50559928D01*
X75991840Y-50581009D01*
X75981452Y-50600445D01*
X75967476Y-50617476D01*
X75950445Y-50631452D01*
X75931009Y-50641840D01*
X75909928Y-50648236D01*
X75881860Y-50651000D01*
X75318140Y-50651000D01*
X75290072Y-50648236D01*
X75268991Y-50641840D01*
X75249555Y-50631452D01*
X75232524Y-50617476D01*
X75218548Y-50600445D01*
X75208160Y-50581009D01*
X75201764Y-50559928D01*
X75199000Y-50531860D01*
X75199000Y-50068140D01*
X75201764Y-50040072D01*
X75208160Y-50018991D01*
X75218548Y-49999555D01*
X75232524Y-49982524D01*
X75249555Y-49968548D01*
X75268991Y-49958160D01*
X75290072Y-49951764D01*
X75318140Y-49949000D01*
X75881860Y-49949000D01*
X75909928Y-49951764D01*
G37*
G36*
X66792674Y-48449789D02*
G01*
X66794471Y-48450335D01*
X66796129Y-48451221D01*
X66797585Y-48452415D01*
X66798779Y-48453871D01*
X66799665Y-48455529D01*
X66800211Y-48457326D01*
X66801000Y-48465341D01*
X66801000Y-49534659D01*
X66800211Y-49542674D01*
X66799665Y-49544471D01*
X66798779Y-49546129D01*
X66797585Y-49547585D01*
X66796129Y-49548779D01*
X66794471Y-49549665D01*
X66792674Y-49550211D01*
X66784659Y-49551000D01*
X62465341Y-49551000D01*
X62457326Y-49550211D01*
X62455529Y-49549665D01*
X62453871Y-49548779D01*
X62452415Y-49547585D01*
X62451221Y-49546129D01*
X62450335Y-49544471D01*
X62449789Y-49542674D01*
X62449000Y-49534659D01*
X62449000Y-48465341D01*
X62449789Y-48457326D01*
X62450335Y-48455529D01*
X62451221Y-48453871D01*
X62452415Y-48452415D01*
X62453871Y-48451221D01*
X62455529Y-48450335D01*
X62457326Y-48449789D01*
X62465341Y-48449000D01*
X66784659Y-48449000D01*
X66792674Y-48449789D01*
G37*
G36*
X88329591Y-48478085D02*
G01*
X88363569Y-48488393D01*
X88394890Y-48505134D01*
X88422339Y-48527661D01*
X88444866Y-48555110D01*
X88461607Y-48586431D01*
X88471915Y-48620409D01*
X88476000Y-48661890D01*
X88476000Y-49338110D01*
X88471915Y-49379591D01*
X88461607Y-49413569D01*
X88444866Y-49444890D01*
X88422339Y-49472339D01*
X88394890Y-49494866D01*
X88363569Y-49511607D01*
X88329591Y-49521915D01*
X88288110Y-49526000D01*
X87686890Y-49526000D01*
X87645409Y-49521915D01*
X87611431Y-49511607D01*
X87580110Y-49494866D01*
X87552661Y-49472339D01*
X87530134Y-49444890D01*
X87513393Y-49413569D01*
X87503085Y-49379591D01*
X87499000Y-49338110D01*
X87499000Y-48661890D01*
X87503085Y-48620409D01*
X87513393Y-48586431D01*
X87530134Y-48555110D01*
X87552661Y-48527661D01*
X87580110Y-48505134D01*
X87611431Y-48488393D01*
X87645409Y-48478085D01*
X87686890Y-48474000D01*
X88288110Y-48474000D01*
X88329591Y-48478085D01*
G37*
G36*
X80554591Y-48478085D02*
G01*
X80588569Y-48488393D01*
X80619890Y-48505134D01*
X80647339Y-48527661D01*
X80669866Y-48555110D01*
X80686607Y-48586431D01*
X80696915Y-48620409D01*
X80701000Y-48661890D01*
X80701000Y-49338110D01*
X80696915Y-49379591D01*
X80686607Y-49413569D01*
X80669866Y-49444890D01*
X80647339Y-49472339D01*
X80619890Y-49494866D01*
X80588569Y-49511607D01*
X80554591Y-49521915D01*
X80513110Y-49526000D01*
X79911890Y-49526000D01*
X79870409Y-49521915D01*
X79836431Y-49511607D01*
X79805110Y-49494866D01*
X79777661Y-49472339D01*
X79755134Y-49444890D01*
X79738393Y-49413569D01*
X79728085Y-49379591D01*
X79724000Y-49338110D01*
X79724000Y-48661890D01*
X79728085Y-48620409D01*
X79738393Y-48586431D01*
X79755134Y-48555110D01*
X79777661Y-48527661D01*
X79805110Y-48505134D01*
X79836431Y-48488393D01*
X79870409Y-48478085D01*
X79911890Y-48474000D01*
X80513110Y-48474000D01*
X80554591Y-48478085D01*
G37*
G36*
X68154591Y-48478085D02*
G01*
X68188569Y-48488393D01*
X68219890Y-48505134D01*
X68247339Y-48527661D01*
X68269866Y-48555110D01*
X68286607Y-48586431D01*
X68296915Y-48620409D01*
X68301000Y-48661890D01*
X68301000Y-49338110D01*
X68296915Y-49379591D01*
X68286607Y-49413569D01*
X68269866Y-49444890D01*
X68247339Y-49472339D01*
X68219890Y-49494866D01*
X68188569Y-49511607D01*
X68154591Y-49521915D01*
X68113110Y-49526000D01*
X67511890Y-49526000D01*
X67470409Y-49521915D01*
X67436431Y-49511607D01*
X67405110Y-49494866D01*
X67377661Y-49472339D01*
X67355134Y-49444890D01*
X67338393Y-49413569D01*
X67328085Y-49379591D01*
X67324000Y-49338110D01*
X67324000Y-48661890D01*
X67328085Y-48620409D01*
X67338393Y-48586431D01*
X67355134Y-48555110D01*
X67377661Y-48527661D01*
X67405110Y-48505134D01*
X67436431Y-48488393D01*
X67470409Y-48478085D01*
X67511890Y-48474000D01*
X68113110Y-48474000D01*
X68154591Y-48478085D01*
G37*
G36*
X69729591Y-48478085D02*
G01*
X69763569Y-48488393D01*
X69794890Y-48505134D01*
X69822339Y-48527661D01*
X69844866Y-48555110D01*
X69861607Y-48586431D01*
X69871915Y-48620409D01*
X69876000Y-48661890D01*
X69876000Y-49338110D01*
X69871915Y-49379591D01*
X69861607Y-49413569D01*
X69844866Y-49444890D01*
X69822339Y-49472339D01*
X69794890Y-49494866D01*
X69763569Y-49511607D01*
X69729591Y-49521915D01*
X69688110Y-49526000D01*
X69086890Y-49526000D01*
X69045409Y-49521915D01*
X69011431Y-49511607D01*
X68980110Y-49494866D01*
X68952661Y-49472339D01*
X68930134Y-49444890D01*
X68913393Y-49413569D01*
X68903085Y-49379591D01*
X68899000Y-49338110D01*
X68899000Y-48661890D01*
X68903085Y-48620409D01*
X68913393Y-48586431D01*
X68930134Y-48555110D01*
X68952661Y-48527661D01*
X68980110Y-48505134D01*
X69011431Y-48488393D01*
X69045409Y-48478085D01*
X69086890Y-48474000D01*
X69688110Y-48474000D01*
X69729591Y-48478085D01*
G37*
G36*
X74354591Y-48478085D02*
G01*
X74388569Y-48488393D01*
X74419890Y-48505134D01*
X74447339Y-48527661D01*
X74469866Y-48555110D01*
X74486607Y-48586431D01*
X74496915Y-48620409D01*
X74501000Y-48661890D01*
X74501000Y-49338110D01*
X74496915Y-49379591D01*
X74486607Y-49413569D01*
X74469866Y-49444890D01*
X74447339Y-49472339D01*
X74419890Y-49494866D01*
X74388569Y-49511607D01*
X74354591Y-49521915D01*
X74313110Y-49526000D01*
X73711890Y-49526000D01*
X73670409Y-49521915D01*
X73636431Y-49511607D01*
X73605110Y-49494866D01*
X73577661Y-49472339D01*
X73555134Y-49444890D01*
X73538393Y-49413569D01*
X73528085Y-49379591D01*
X73524000Y-49338110D01*
X73524000Y-48661890D01*
X73528085Y-48620409D01*
X73538393Y-48586431D01*
X73555134Y-48555110D01*
X73577661Y-48527661D01*
X73605110Y-48505134D01*
X73636431Y-48488393D01*
X73670409Y-48478085D01*
X73711890Y-48474000D01*
X74313110Y-48474000D01*
X74354591Y-48478085D01*
G37*
G36*
X75929591Y-48478085D02*
G01*
X75963569Y-48488393D01*
X75994890Y-48505134D01*
X76022339Y-48527661D01*
X76044866Y-48555110D01*
X76061607Y-48586431D01*
X76071915Y-48620409D01*
X76076000Y-48661890D01*
X76076000Y-49338110D01*
X76071915Y-49379591D01*
X76061607Y-49413569D01*
X76044866Y-49444890D01*
X76022339Y-49472339D01*
X75994890Y-49494866D01*
X75963569Y-49511607D01*
X75929591Y-49521915D01*
X75888110Y-49526000D01*
X75286890Y-49526000D01*
X75245409Y-49521915D01*
X75211431Y-49511607D01*
X75180110Y-49494866D01*
X75152661Y-49472339D01*
X75130134Y-49444890D01*
X75113393Y-49413569D01*
X75103085Y-49379591D01*
X75099000Y-49338110D01*
X75099000Y-48661890D01*
X75103085Y-48620409D01*
X75113393Y-48586431D01*
X75130134Y-48555110D01*
X75152661Y-48527661D01*
X75180110Y-48505134D01*
X75211431Y-48488393D01*
X75245409Y-48478085D01*
X75286890Y-48474000D01*
X75888110Y-48474000D01*
X75929591Y-48478085D01*
G37*
G36*
X82129591Y-48478085D02*
G01*
X82163569Y-48488393D01*
X82194890Y-48505134D01*
X82222339Y-48527661D01*
X82244866Y-48555110D01*
X82261607Y-48586431D01*
X82271915Y-48620409D01*
X82276000Y-48661890D01*
X82276000Y-49338110D01*
X82271915Y-49379591D01*
X82261607Y-49413569D01*
X82244866Y-49444890D01*
X82222339Y-49472339D01*
X82194890Y-49494866D01*
X82163569Y-49511607D01*
X82129591Y-49521915D01*
X82088110Y-49526000D01*
X81486890Y-49526000D01*
X81445409Y-49521915D01*
X81411431Y-49511607D01*
X81380110Y-49494866D01*
X81352661Y-49472339D01*
X81330134Y-49444890D01*
X81313393Y-49413569D01*
X81303085Y-49379591D01*
X81299000Y-49338110D01*
X81299000Y-48661890D01*
X81303085Y-48620409D01*
X81313393Y-48586431D01*
X81330134Y-48555110D01*
X81352661Y-48527661D01*
X81380110Y-48505134D01*
X81411431Y-48488393D01*
X81445409Y-48478085D01*
X81486890Y-48474000D01*
X82088110Y-48474000D01*
X82129591Y-48478085D01*
G37*
G36*
X77554591Y-48478085D02*
G01*
X77588569Y-48488393D01*
X77619890Y-48505134D01*
X77647339Y-48527661D01*
X77669866Y-48555110D01*
X77686607Y-48586431D01*
X77696915Y-48620409D01*
X77701000Y-48661890D01*
X77701000Y-49338110D01*
X77696915Y-49379591D01*
X77686607Y-49413569D01*
X77669866Y-49444890D01*
X77647339Y-49472339D01*
X77619890Y-49494866D01*
X77588569Y-49511607D01*
X77554591Y-49521915D01*
X77513110Y-49526000D01*
X76911890Y-49526000D01*
X76870409Y-49521915D01*
X76836431Y-49511607D01*
X76805110Y-49494866D01*
X76777661Y-49472339D01*
X76755134Y-49444890D01*
X76738393Y-49413569D01*
X76728085Y-49379591D01*
X76724000Y-49338110D01*
X76724000Y-48661890D01*
X76728085Y-48620409D01*
X76738393Y-48586431D01*
X76755134Y-48555110D01*
X76777661Y-48527661D01*
X76805110Y-48505134D01*
X76836431Y-48488393D01*
X76870409Y-48478085D01*
X76911890Y-48474000D01*
X77513110Y-48474000D01*
X77554591Y-48478085D01*
G37*
G36*
X79129591Y-48478085D02*
G01*
X79163569Y-48488393D01*
X79194890Y-48505134D01*
X79222339Y-48527661D01*
X79244866Y-48555110D01*
X79261607Y-48586431D01*
X79271915Y-48620409D01*
X79276000Y-48661890D01*
X79276000Y-49338110D01*
X79271915Y-49379591D01*
X79261607Y-49413569D01*
X79244866Y-49444890D01*
X79222339Y-49472339D01*
X79194890Y-49494866D01*
X79163569Y-49511607D01*
X79129591Y-49521915D01*
X79088110Y-49526000D01*
X78486890Y-49526000D01*
X78445409Y-49521915D01*
X78411431Y-49511607D01*
X78380110Y-49494866D01*
X78352661Y-49472339D01*
X78330134Y-49444890D01*
X78313393Y-49413569D01*
X78303085Y-49379591D01*
X78299000Y-49338110D01*
X78299000Y-48661890D01*
X78303085Y-48620409D01*
X78313393Y-48586431D01*
X78330134Y-48555110D01*
X78352661Y-48527661D01*
X78380110Y-48505134D01*
X78411431Y-48488393D01*
X78445409Y-48478085D01*
X78486890Y-48474000D01*
X79088110Y-48474000D01*
X79129591Y-48478085D01*
G37*
G36*
X71354591Y-48478085D02*
G01*
X71388569Y-48488393D01*
X71419890Y-48505134D01*
X71447339Y-48527661D01*
X71469866Y-48555110D01*
X71486607Y-48586431D01*
X71496915Y-48620409D01*
X71501000Y-48661890D01*
X71501000Y-49338110D01*
X71496915Y-49379591D01*
X71486607Y-49413569D01*
X71469866Y-49444890D01*
X71447339Y-49472339D01*
X71419890Y-49494866D01*
X71388569Y-49511607D01*
X71354591Y-49521915D01*
X71313110Y-49526000D01*
X70711890Y-49526000D01*
X70670409Y-49521915D01*
X70636431Y-49511607D01*
X70605110Y-49494866D01*
X70577661Y-49472339D01*
X70555134Y-49444890D01*
X70538393Y-49413569D01*
X70528085Y-49379591D01*
X70524000Y-49338110D01*
X70524000Y-48661890D01*
X70528085Y-48620409D01*
X70538393Y-48586431D01*
X70555134Y-48555110D01*
X70577661Y-48527661D01*
X70605110Y-48505134D01*
X70636431Y-48488393D01*
X70670409Y-48478085D01*
X70711890Y-48474000D01*
X71313110Y-48474000D01*
X71354591Y-48478085D01*
G37*
G36*
X83754591Y-48478085D02*
G01*
X83788569Y-48488393D01*
X83819890Y-48505134D01*
X83847339Y-48527661D01*
X83869866Y-48555110D01*
X83886607Y-48586431D01*
X83896915Y-48620409D01*
X83901000Y-48661890D01*
X83901000Y-49338110D01*
X83896915Y-49379591D01*
X83886607Y-49413569D01*
X83869866Y-49444890D01*
X83847339Y-49472339D01*
X83819890Y-49494866D01*
X83788569Y-49511607D01*
X83754591Y-49521915D01*
X83713110Y-49526000D01*
X83111890Y-49526000D01*
X83070409Y-49521915D01*
X83036431Y-49511607D01*
X83005110Y-49494866D01*
X82977661Y-49472339D01*
X82955134Y-49444890D01*
X82938393Y-49413569D01*
X82928085Y-49379591D01*
X82924000Y-49338110D01*
X82924000Y-48661890D01*
X82928085Y-48620409D01*
X82938393Y-48586431D01*
X82955134Y-48555110D01*
X82977661Y-48527661D01*
X83005110Y-48505134D01*
X83036431Y-48488393D01*
X83070409Y-48478085D01*
X83111890Y-48474000D01*
X83713110Y-48474000D01*
X83754591Y-48478085D01*
G37*
G36*
X72929591Y-48478085D02*
G01*
X72963569Y-48488393D01*
X72994890Y-48505134D01*
X73022339Y-48527661D01*
X73044866Y-48555110D01*
X73061607Y-48586431D01*
X73071915Y-48620409D01*
X73076000Y-48661890D01*
X73076000Y-49338110D01*
X73071915Y-49379591D01*
X73061607Y-49413569D01*
X73044866Y-49444890D01*
X73022339Y-49472339D01*
X72994890Y-49494866D01*
X72963569Y-49511607D01*
X72929591Y-49521915D01*
X72888110Y-49526000D01*
X72286890Y-49526000D01*
X72245409Y-49521915D01*
X72211431Y-49511607D01*
X72180110Y-49494866D01*
X72152661Y-49472339D01*
X72130134Y-49444890D01*
X72113393Y-49413569D01*
X72103085Y-49379591D01*
X72099000Y-49338110D01*
X72099000Y-48661890D01*
X72103085Y-48620409D01*
X72113393Y-48586431D01*
X72130134Y-48555110D01*
X72152661Y-48527661D01*
X72180110Y-48505134D01*
X72211431Y-48488393D01*
X72245409Y-48478085D01*
X72286890Y-48474000D01*
X72888110Y-48474000D01*
X72929591Y-48478085D01*
G37*
G36*
X85329591Y-48478085D02*
G01*
X85363569Y-48488393D01*
X85394890Y-48505134D01*
X85422339Y-48527661D01*
X85444866Y-48555110D01*
X85461607Y-48586431D01*
X85471915Y-48620409D01*
X85476000Y-48661890D01*
X85476000Y-49338110D01*
X85471915Y-49379591D01*
X85461607Y-49413569D01*
X85444866Y-49444890D01*
X85422339Y-49472339D01*
X85394890Y-49494866D01*
X85363569Y-49511607D01*
X85329591Y-49521915D01*
X85288110Y-49526000D01*
X84686890Y-49526000D01*
X84645409Y-49521915D01*
X84611431Y-49511607D01*
X84580110Y-49494866D01*
X84552661Y-49472339D01*
X84530134Y-49444890D01*
X84513393Y-49413569D01*
X84503085Y-49379591D01*
X84499000Y-49338110D01*
X84499000Y-48661890D01*
X84503085Y-48620409D01*
X84513393Y-48586431D01*
X84530134Y-48555110D01*
X84552661Y-48527661D01*
X84580110Y-48505134D01*
X84611431Y-48488393D01*
X84645409Y-48478085D01*
X84686890Y-48474000D01*
X85288110Y-48474000D01*
X85329591Y-48478085D01*
G37*
G36*
X86754591Y-48478085D02*
G01*
X86788569Y-48488393D01*
X86819890Y-48505134D01*
X86847339Y-48527661D01*
X86869866Y-48555110D01*
X86886607Y-48586431D01*
X86896915Y-48620409D01*
X86901000Y-48661890D01*
X86901000Y-49338110D01*
X86896915Y-49379591D01*
X86886607Y-49413569D01*
X86869866Y-49444890D01*
X86847339Y-49472339D01*
X86819890Y-49494866D01*
X86788569Y-49511607D01*
X86754591Y-49521915D01*
X86713110Y-49526000D01*
X86111890Y-49526000D01*
X86070409Y-49521915D01*
X86036431Y-49511607D01*
X86005110Y-49494866D01*
X85977661Y-49472339D01*
X85955134Y-49444890D01*
X85938393Y-49413569D01*
X85928085Y-49379591D01*
X85924000Y-49338110D01*
X85924000Y-48661890D01*
X85928085Y-48620409D01*
X85938393Y-48586431D01*
X85955134Y-48555110D01*
X85977661Y-48527661D01*
X86005110Y-48505134D01*
X86036431Y-48488393D01*
X86070409Y-48478085D01*
X86111890Y-48474000D01*
X86713110Y-48474000D01*
X86754591Y-48478085D01*
G37*
G36*
X94942674Y-46949789D02*
G01*
X94944471Y-46950335D01*
X94946129Y-46951221D01*
X94947585Y-46952415D01*
X94948779Y-46953871D01*
X94949665Y-46955529D01*
X94950211Y-46957326D01*
X94951000Y-46965341D01*
X94951000Y-48034659D01*
X94950211Y-48042674D01*
X94949665Y-48044471D01*
X94948779Y-48046129D01*
X94947585Y-48047585D01*
X94946129Y-48048779D01*
X94944471Y-48049665D01*
X94942674Y-48050211D01*
X94934659Y-48051000D01*
X90615341Y-48051000D01*
X90607326Y-48050211D01*
X90605529Y-48049665D01*
X90603871Y-48048779D01*
X90602415Y-48047585D01*
X90601221Y-48046129D01*
X90600335Y-48044471D01*
X90599789Y-48042674D01*
X90599000Y-48034659D01*
X90599000Y-46965341D01*
X90599789Y-46957326D01*
X90600335Y-46955529D01*
X90601221Y-46953871D01*
X90602415Y-46952415D01*
X90603871Y-46951221D01*
X90605529Y-46950335D01*
X90607326Y-46949789D01*
X90615341Y-46949000D01*
X94934659Y-46949000D01*
X94942674Y-46949789D01*
G37*
G36*
X88354591Y-46978085D02*
G01*
X88388569Y-46988393D01*
X88419890Y-47005134D01*
X88447339Y-47027661D01*
X88469866Y-47055110D01*
X88486607Y-47086431D01*
X88496915Y-47120409D01*
X88501000Y-47161890D01*
X88501000Y-47838110D01*
X88496915Y-47879591D01*
X88486607Y-47913569D01*
X88469866Y-47944890D01*
X88447339Y-47972339D01*
X88419890Y-47994866D01*
X88388569Y-48011607D01*
X88354591Y-48021915D01*
X88313110Y-48026000D01*
X87711890Y-48026000D01*
X87670409Y-48021915D01*
X87636431Y-48011607D01*
X87605110Y-47994866D01*
X87577661Y-47972339D01*
X87555134Y-47944890D01*
X87538393Y-47913569D01*
X87528085Y-47879591D01*
X87524000Y-47838110D01*
X87524000Y-47161890D01*
X87528085Y-47120409D01*
X87538393Y-47086431D01*
X87555134Y-47055110D01*
X87577661Y-47027661D01*
X87605110Y-47005134D01*
X87636431Y-46988393D01*
X87670409Y-46978085D01*
X87711890Y-46974000D01*
X88313110Y-46974000D01*
X88354591Y-46978085D01*
G37*
G36*
X89929591Y-46978085D02*
G01*
X89963569Y-46988393D01*
X89994890Y-47005134D01*
X90022339Y-47027661D01*
X90044866Y-47055110D01*
X90061607Y-47086431D01*
X90071915Y-47120409D01*
X90076000Y-47161890D01*
X90076000Y-47838110D01*
X90071915Y-47879591D01*
X90061607Y-47913569D01*
X90044866Y-47944890D01*
X90022339Y-47972339D01*
X89994890Y-47994866D01*
X89963569Y-48011607D01*
X89929591Y-48021915D01*
X89888110Y-48026000D01*
X89286890Y-48026000D01*
X89245409Y-48021915D01*
X89211431Y-48011607D01*
X89180110Y-47994866D01*
X89152661Y-47972339D01*
X89130134Y-47944890D01*
X89113393Y-47913569D01*
X89103085Y-47879591D01*
X89099000Y-47838110D01*
X89099000Y-47161890D01*
X89103085Y-47120409D01*
X89113393Y-47086431D01*
X89130134Y-47055110D01*
X89152661Y-47027661D01*
X89180110Y-47005134D01*
X89211431Y-46988393D01*
X89245409Y-46978085D01*
X89286890Y-46974000D01*
X89888110Y-46974000D01*
X89929591Y-46978085D01*
G37*
G36*
X83729591Y-46978085D02*
G01*
X83763569Y-46988393D01*
X83794890Y-47005134D01*
X83822339Y-47027661D01*
X83844866Y-47055110D01*
X83861607Y-47086431D01*
X83871915Y-47120409D01*
X83876000Y-47161890D01*
X83876000Y-47838110D01*
X83871915Y-47879591D01*
X83861607Y-47913569D01*
X83844866Y-47944890D01*
X83822339Y-47972339D01*
X83794890Y-47994866D01*
X83763569Y-48011607D01*
X83729591Y-48021915D01*
X83688110Y-48026000D01*
X83086890Y-48026000D01*
X83045409Y-48021915D01*
X83011431Y-48011607D01*
X82980110Y-47994866D01*
X82952661Y-47972339D01*
X82930134Y-47944890D01*
X82913393Y-47913569D01*
X82903085Y-47879591D01*
X82899000Y-47838110D01*
X82899000Y-47161890D01*
X82903085Y-47120409D01*
X82913393Y-47086431D01*
X82930134Y-47055110D01*
X82952661Y-47027661D01*
X82980110Y-47005134D01*
X83011431Y-46988393D01*
X83045409Y-46978085D01*
X83086890Y-46974000D01*
X83688110Y-46974000D01*
X83729591Y-46978085D01*
G37*
G36*
X82154591Y-46978085D02*
G01*
X82188569Y-46988393D01*
X82219890Y-47005134D01*
X82247339Y-47027661D01*
X82269866Y-47055110D01*
X82286607Y-47086431D01*
X82296915Y-47120409D01*
X82301000Y-47161890D01*
X82301000Y-47838110D01*
X82296915Y-47879591D01*
X82286607Y-47913569D01*
X82269866Y-47944890D01*
X82247339Y-47972339D01*
X82219890Y-47994866D01*
X82188569Y-48011607D01*
X82154591Y-48021915D01*
X82113110Y-48026000D01*
X81511890Y-48026000D01*
X81470409Y-48021915D01*
X81436431Y-48011607D01*
X81405110Y-47994866D01*
X81377661Y-47972339D01*
X81355134Y-47944890D01*
X81338393Y-47913569D01*
X81328085Y-47879591D01*
X81324000Y-47838110D01*
X81324000Y-47161890D01*
X81328085Y-47120409D01*
X81338393Y-47086431D01*
X81355134Y-47055110D01*
X81377661Y-47027661D01*
X81405110Y-47005134D01*
X81436431Y-46988393D01*
X81470409Y-46978085D01*
X81511890Y-46974000D01*
X82113110Y-46974000D01*
X82154591Y-46978085D01*
G37*
G36*
X77529591Y-46978085D02*
G01*
X77563569Y-46988393D01*
X77594890Y-47005134D01*
X77622339Y-47027661D01*
X77644866Y-47055110D01*
X77661607Y-47086431D01*
X77671915Y-47120409D01*
X77676000Y-47161890D01*
X77676000Y-47838110D01*
X77671915Y-47879591D01*
X77661607Y-47913569D01*
X77644866Y-47944890D01*
X77622339Y-47972339D01*
X77594890Y-47994866D01*
X77563569Y-48011607D01*
X77529591Y-48021915D01*
X77488110Y-48026000D01*
X76886890Y-48026000D01*
X76845409Y-48021915D01*
X76811431Y-48011607D01*
X76780110Y-47994866D01*
X76752661Y-47972339D01*
X76730134Y-47944890D01*
X76713393Y-47913569D01*
X76703085Y-47879591D01*
X76699000Y-47838110D01*
X76699000Y-47161890D01*
X76703085Y-47120409D01*
X76713393Y-47086431D01*
X76730134Y-47055110D01*
X76752661Y-47027661D01*
X76780110Y-47005134D01*
X76811431Y-46988393D01*
X76845409Y-46978085D01*
X76886890Y-46974000D01*
X77488110Y-46974000D01*
X77529591Y-46978085D01*
G37*
G36*
X75954591Y-46978085D02*
G01*
X75988569Y-46988393D01*
X76019890Y-47005134D01*
X76047339Y-47027661D01*
X76069866Y-47055110D01*
X76086607Y-47086431D01*
X76096915Y-47120409D01*
X76101000Y-47161890D01*
X76101000Y-47838110D01*
X76096915Y-47879591D01*
X76086607Y-47913569D01*
X76069866Y-47944890D01*
X76047339Y-47972339D01*
X76019890Y-47994866D01*
X75988569Y-48011607D01*
X75954591Y-48021915D01*
X75913110Y-48026000D01*
X75311890Y-48026000D01*
X75270409Y-48021915D01*
X75236431Y-48011607D01*
X75205110Y-47994866D01*
X75177661Y-47972339D01*
X75155134Y-47944890D01*
X75138393Y-47913569D01*
X75128085Y-47879591D01*
X75124000Y-47838110D01*
X75124000Y-47161890D01*
X75128085Y-47120409D01*
X75138393Y-47086431D01*
X75155134Y-47055110D01*
X75177661Y-47027661D01*
X75205110Y-47005134D01*
X75236431Y-46988393D01*
X75270409Y-46978085D01*
X75311890Y-46974000D01*
X75913110Y-46974000D01*
X75954591Y-46978085D01*
G37*
G36*
X71329591Y-46978085D02*
G01*
X71363569Y-46988393D01*
X71394890Y-47005134D01*
X71422339Y-47027661D01*
X71444866Y-47055110D01*
X71461607Y-47086431D01*
X71471915Y-47120409D01*
X71476000Y-47161890D01*
X71476000Y-47838110D01*
X71471915Y-47879591D01*
X71461607Y-47913569D01*
X71444866Y-47944890D01*
X71422339Y-47972339D01*
X71394890Y-47994866D01*
X71363569Y-48011607D01*
X71329591Y-48021915D01*
X71288110Y-48026000D01*
X70686890Y-48026000D01*
X70645409Y-48021915D01*
X70611431Y-48011607D01*
X70580110Y-47994866D01*
X70552661Y-47972339D01*
X70530134Y-47944890D01*
X70513393Y-47913569D01*
X70503085Y-47879591D01*
X70499000Y-47838110D01*
X70499000Y-47161890D01*
X70503085Y-47120409D01*
X70513393Y-47086431D01*
X70530134Y-47055110D01*
X70552661Y-47027661D01*
X70580110Y-47005134D01*
X70611431Y-46988393D01*
X70645409Y-46978085D01*
X70686890Y-46974000D01*
X71288110Y-46974000D01*
X71329591Y-46978085D01*
G37*
G36*
X69754591Y-46978085D02*
G01*
X69788569Y-46988393D01*
X69819890Y-47005134D01*
X69847339Y-47027661D01*
X69869866Y-47055110D01*
X69886607Y-47086431D01*
X69896915Y-47120409D01*
X69901000Y-47161890D01*
X69901000Y-47838110D01*
X69896915Y-47879591D01*
X69886607Y-47913569D01*
X69869866Y-47944890D01*
X69847339Y-47972339D01*
X69819890Y-47994866D01*
X69788569Y-48011607D01*
X69754591Y-48021915D01*
X69713110Y-48026000D01*
X69111890Y-48026000D01*
X69070409Y-48021915D01*
X69036431Y-48011607D01*
X69005110Y-47994866D01*
X68977661Y-47972339D01*
X68955134Y-47944890D01*
X68938393Y-47913569D01*
X68928085Y-47879591D01*
X68924000Y-47838110D01*
X68924000Y-47161890D01*
X68928085Y-47120409D01*
X68938393Y-47086431D01*
X68955134Y-47055110D01*
X68977661Y-47027661D01*
X69005110Y-47005134D01*
X69036431Y-46988393D01*
X69070409Y-46978085D01*
X69111890Y-46974000D01*
X69713110Y-46974000D01*
X69754591Y-46978085D01*
G37*
G36*
X80459928Y-47101764D02*
G01*
X80481009Y-47108160D01*
X80500445Y-47118548D01*
X80517476Y-47132524D01*
X80531452Y-47149555D01*
X80541840Y-47168991D01*
X80548236Y-47190072D01*
X80551000Y-47218140D01*
X80551000Y-47781860D01*
X80548236Y-47809928D01*
X80541840Y-47831009D01*
X80531452Y-47850445D01*
X80517476Y-47867476D01*
X80500445Y-47881452D01*
X80481009Y-47891840D01*
X80459928Y-47898236D01*
X80431860Y-47901000D01*
X79968140Y-47901000D01*
X79940072Y-47898236D01*
X79918991Y-47891840D01*
X79899555Y-47881452D01*
X79882524Y-47867476D01*
X79868548Y-47850445D01*
X79858160Y-47831009D01*
X79851764Y-47809928D01*
X79849000Y-47781860D01*
X79849000Y-47218140D01*
X79851764Y-47190072D01*
X79858160Y-47168991D01*
X79868548Y-47149555D01*
X79882524Y-47132524D01*
X79899555Y-47118548D01*
X79918991Y-47108160D01*
X79940072Y-47101764D01*
X79968140Y-47099000D01*
X80431860Y-47099000D01*
X80459928Y-47101764D01*
G37*
G36*
X79059928Y-47101764D02*
G01*
X79081009Y-47108160D01*
X79100445Y-47118548D01*
X79117476Y-47132524D01*
X79131452Y-47149555D01*
X79141840Y-47168991D01*
X79148236Y-47190072D01*
X79151000Y-47218140D01*
X79151000Y-47781860D01*
X79148236Y-47809928D01*
X79141840Y-47831009D01*
X79131452Y-47850445D01*
X79117476Y-47867476D01*
X79100445Y-47881452D01*
X79081009Y-47891840D01*
X79059928Y-47898236D01*
X79031860Y-47901000D01*
X78568140Y-47901000D01*
X78540072Y-47898236D01*
X78518991Y-47891840D01*
X78499555Y-47881452D01*
X78482524Y-47867476D01*
X78468548Y-47850445D01*
X78458160Y-47831009D01*
X78451764Y-47809928D01*
X78449000Y-47781860D01*
X78449000Y-47218140D01*
X78451764Y-47190072D01*
X78458160Y-47168991D01*
X78468548Y-47149555D01*
X78482524Y-47132524D01*
X78499555Y-47118548D01*
X78518991Y-47108160D01*
X78540072Y-47101764D01*
X78568140Y-47099000D01*
X79031860Y-47099000D01*
X79059928Y-47101764D01*
G37*
G36*
X85259928Y-47101764D02*
G01*
X85281009Y-47108160D01*
X85300445Y-47118548D01*
X85317476Y-47132524D01*
X85331452Y-47149555D01*
X85341840Y-47168991D01*
X85348236Y-47190072D01*
X85351000Y-47218140D01*
X85351000Y-47781860D01*
X85348236Y-47809928D01*
X85341840Y-47831009D01*
X85331452Y-47850445D01*
X85317476Y-47867476D01*
X85300445Y-47881452D01*
X85281009Y-47891840D01*
X85259928Y-47898236D01*
X85231860Y-47901000D01*
X84768140Y-47901000D01*
X84740072Y-47898236D01*
X84718991Y-47891840D01*
X84699555Y-47881452D01*
X84682524Y-47867476D01*
X84668548Y-47850445D01*
X84658160Y-47831009D01*
X84651764Y-47809928D01*
X84649000Y-47781860D01*
X84649000Y-47218140D01*
X84651764Y-47190072D01*
X84658160Y-47168991D01*
X84668548Y-47149555D01*
X84682524Y-47132524D01*
X84699555Y-47118548D01*
X84718991Y-47108160D01*
X84740072Y-47101764D01*
X84768140Y-47099000D01*
X85231860Y-47099000D01*
X85259928Y-47101764D01*
G37*
G36*
X86659928Y-47101764D02*
G01*
X86681009Y-47108160D01*
X86700445Y-47118548D01*
X86717476Y-47132524D01*
X86731452Y-47149555D01*
X86741840Y-47168991D01*
X86748236Y-47190072D01*
X86751000Y-47218140D01*
X86751000Y-47781860D01*
X86748236Y-47809928D01*
X86741840Y-47831009D01*
X86731452Y-47850445D01*
X86717476Y-47867476D01*
X86700445Y-47881452D01*
X86681009Y-47891840D01*
X86659928Y-47898236D01*
X86631860Y-47901000D01*
X86168140Y-47901000D01*
X86140072Y-47898236D01*
X86118991Y-47891840D01*
X86099555Y-47881452D01*
X86082524Y-47867476D01*
X86068548Y-47850445D01*
X86058160Y-47831009D01*
X86051764Y-47809928D01*
X86049000Y-47781860D01*
X86049000Y-47218140D01*
X86051764Y-47190072D01*
X86058160Y-47168991D01*
X86068548Y-47149555D01*
X86082524Y-47132524D01*
X86099555Y-47118548D01*
X86118991Y-47108160D01*
X86140072Y-47101764D01*
X86168140Y-47099000D01*
X86631860Y-47099000D01*
X86659928Y-47101764D01*
G37*
G36*
X74259928Y-47101764D02*
G01*
X74281009Y-47108160D01*
X74300445Y-47118548D01*
X74317476Y-47132524D01*
X74331452Y-47149555D01*
X74341840Y-47168991D01*
X74348236Y-47190072D01*
X74351000Y-47218140D01*
X74351000Y-47781860D01*
X74348236Y-47809928D01*
X74341840Y-47831009D01*
X74331452Y-47850445D01*
X74317476Y-47867476D01*
X74300445Y-47881452D01*
X74281009Y-47891840D01*
X74259928Y-47898236D01*
X74231860Y-47901000D01*
X73768140Y-47901000D01*
X73740072Y-47898236D01*
X73718991Y-47891840D01*
X73699555Y-47881452D01*
X73682524Y-47867476D01*
X73668548Y-47850445D01*
X73658160Y-47831009D01*
X73651764Y-47809928D01*
X73649000Y-47781860D01*
X73649000Y-47218140D01*
X73651764Y-47190072D01*
X73658160Y-47168991D01*
X73668548Y-47149555D01*
X73682524Y-47132524D01*
X73699555Y-47118548D01*
X73718991Y-47108160D01*
X73740072Y-47101764D01*
X73768140Y-47099000D01*
X74231860Y-47099000D01*
X74259928Y-47101764D01*
G37*
G36*
X72859928Y-47101764D02*
G01*
X72881009Y-47108160D01*
X72900445Y-47118548D01*
X72917476Y-47132524D01*
X72931452Y-47149555D01*
X72941840Y-47168991D01*
X72948236Y-47190072D01*
X72951000Y-47218140D01*
X72951000Y-47781860D01*
X72948236Y-47809928D01*
X72941840Y-47831009D01*
X72931452Y-47850445D01*
X72917476Y-47867476D01*
X72900445Y-47881452D01*
X72881009Y-47891840D01*
X72859928Y-47898236D01*
X72831860Y-47901000D01*
X72368140Y-47901000D01*
X72340072Y-47898236D01*
X72318991Y-47891840D01*
X72299555Y-47881452D01*
X72282524Y-47867476D01*
X72268548Y-47850445D01*
X72258160Y-47831009D01*
X72251764Y-47809928D01*
X72249000Y-47781860D01*
X72249000Y-47218140D01*
X72251764Y-47190072D01*
X72258160Y-47168991D01*
X72268548Y-47149555D01*
X72282524Y-47132524D01*
X72299555Y-47118548D01*
X72318991Y-47108160D01*
X72340072Y-47101764D01*
X72368140Y-47099000D01*
X72831860Y-47099000D01*
X72859928Y-47101764D01*
G37*
G36*
X66772549Y-45775269D02*
G01*
X66779039Y-45777238D01*
X66785021Y-45780435D01*
X66790263Y-45784737D01*
X66794565Y-45789979D01*
X66797762Y-45795961D01*
X66799731Y-45802451D01*
X66801000Y-45815338D01*
X66801000Y-47084662D01*
X66799731Y-47097549D01*
X66797762Y-47104039D01*
X66794565Y-47110021D01*
X66790263Y-47115263D01*
X66785021Y-47119565D01*
X66779039Y-47122762D01*
X66772549Y-47124731D01*
X66759662Y-47126000D01*
X62490338Y-47126000D01*
X62477451Y-47124731D01*
X62470961Y-47122762D01*
X62464979Y-47119565D01*
X62459737Y-47115263D01*
X62455435Y-47110021D01*
X62452238Y-47104039D01*
X62450269Y-47097549D01*
X62449000Y-47084662D01*
X62449000Y-45815338D01*
X62450269Y-45802451D01*
X62452238Y-45795961D01*
X62455435Y-45789979D01*
X62459737Y-45784737D01*
X62464979Y-45780435D01*
X62470961Y-45777238D01*
X62477451Y-45775269D01*
X62490338Y-45774000D01*
X66759662Y-45774000D01*
X66772549Y-45775269D01*
G37*
G36*
X94922549Y-44275269D02*
G01*
X94929039Y-44277238D01*
X94935021Y-44280435D01*
X94940263Y-44284737D01*
X94944565Y-44289979D01*
X94947762Y-44295961D01*
X94949731Y-44302451D01*
X94951000Y-44315338D01*
X94951000Y-45584662D01*
X94949731Y-45597549D01*
X94947762Y-45604039D01*
X94944565Y-45610021D01*
X94940263Y-45615263D01*
X94935021Y-45619565D01*
X94929039Y-45622762D01*
X94922549Y-45624731D01*
X94909662Y-45626000D01*
X90640338Y-45626000D01*
X90627451Y-45624731D01*
X90620961Y-45622762D01*
X90614979Y-45619565D01*
X90609737Y-45615263D01*
X90605435Y-45610021D01*
X90602238Y-45604039D01*
X90600269Y-45597549D01*
X90599000Y-45584662D01*
X90599000Y-44315338D01*
X90600269Y-44302451D01*
X90602238Y-44295961D01*
X90605435Y-44289979D01*
X90609737Y-44284737D01*
X90614979Y-44280435D01*
X90620961Y-44277238D01*
X90627451Y-44275269D01*
X90640338Y-44274000D01*
X94909662Y-44274000D01*
X94922549Y-44275269D01*
G37*
G36*
X88329591Y-44378085D02*
G01*
X88363569Y-44388393D01*
X88394890Y-44405134D01*
X88422339Y-44427661D01*
X88444866Y-44455110D01*
X88461607Y-44486431D01*
X88471915Y-44520409D01*
X88476000Y-44561890D01*
X88476000Y-45238110D01*
X88471915Y-45279591D01*
X88461607Y-45313569D01*
X88444866Y-45344890D01*
X88422339Y-45372339D01*
X88394890Y-45394866D01*
X88363569Y-45411607D01*
X88329591Y-45421915D01*
X88288110Y-45426000D01*
X87686890Y-45426000D01*
X87645409Y-45421915D01*
X87611431Y-45411607D01*
X87580110Y-45394866D01*
X87552661Y-45372339D01*
X87530134Y-45344890D01*
X87513393Y-45313569D01*
X87503085Y-45279591D01*
X87499000Y-45238110D01*
X87499000Y-44561890D01*
X87503085Y-44520409D01*
X87513393Y-44486431D01*
X87530134Y-44455110D01*
X87552661Y-44427661D01*
X87580110Y-44405134D01*
X87611431Y-44388393D01*
X87645409Y-44378085D01*
X87686890Y-44374000D01*
X88288110Y-44374000D01*
X88329591Y-44378085D01*
G37*
G36*
X86754591Y-44378085D02*
G01*
X86788569Y-44388393D01*
X86819890Y-44405134D01*
X86847339Y-44427661D01*
X86869866Y-44455110D01*
X86886607Y-44486431D01*
X86896915Y-44520409D01*
X86901000Y-44561890D01*
X86901000Y-45238110D01*
X86896915Y-45279591D01*
X86886607Y-45313569D01*
X86869866Y-45344890D01*
X86847339Y-45372339D01*
X86819890Y-45394866D01*
X86788569Y-45411607D01*
X86754591Y-45421915D01*
X86713110Y-45426000D01*
X86111890Y-45426000D01*
X86070409Y-45421915D01*
X86036431Y-45411607D01*
X86005110Y-45394866D01*
X85977661Y-45372339D01*
X85955134Y-45344890D01*
X85938393Y-45313569D01*
X85928085Y-45279591D01*
X85924000Y-45238110D01*
X85924000Y-44561890D01*
X85928085Y-44520409D01*
X85938393Y-44486431D01*
X85955134Y-44455110D01*
X85977661Y-44427661D01*
X86005110Y-44405134D01*
X86036431Y-44388393D01*
X86070409Y-44378085D01*
X86111890Y-44374000D01*
X86713110Y-44374000D01*
X86754591Y-44378085D01*
G37*
G36*
X85229591Y-44378085D02*
G01*
X85263569Y-44388393D01*
X85294890Y-44405134D01*
X85322339Y-44427661D01*
X85344866Y-44455110D01*
X85361607Y-44486431D01*
X85371915Y-44520409D01*
X85376000Y-44561890D01*
X85376000Y-45238110D01*
X85371915Y-45279591D01*
X85361607Y-45313569D01*
X85344866Y-45344890D01*
X85322339Y-45372339D01*
X85294890Y-45394866D01*
X85263569Y-45411607D01*
X85229591Y-45421915D01*
X85188110Y-45426000D01*
X84586890Y-45426000D01*
X84545409Y-45421915D01*
X84511431Y-45411607D01*
X84480110Y-45394866D01*
X84452661Y-45372339D01*
X84430134Y-45344890D01*
X84413393Y-45313569D01*
X84403085Y-45279591D01*
X84399000Y-45238110D01*
X84399000Y-44561890D01*
X84403085Y-44520409D01*
X84413393Y-44486431D01*
X84430134Y-44455110D01*
X84452661Y-44427661D01*
X84480110Y-44405134D01*
X84511431Y-44388393D01*
X84545409Y-44378085D01*
X84586890Y-44374000D01*
X85188110Y-44374000D01*
X85229591Y-44378085D01*
G37*
G36*
X83654591Y-44378085D02*
G01*
X83688569Y-44388393D01*
X83719890Y-44405134D01*
X83747339Y-44427661D01*
X83769866Y-44455110D01*
X83786607Y-44486431D01*
X83796915Y-44520409D01*
X83801000Y-44561890D01*
X83801000Y-45238110D01*
X83796915Y-45279591D01*
X83786607Y-45313569D01*
X83769866Y-45344890D01*
X83747339Y-45372339D01*
X83719890Y-45394866D01*
X83688569Y-45411607D01*
X83654591Y-45421915D01*
X83613110Y-45426000D01*
X83011890Y-45426000D01*
X82970409Y-45421915D01*
X82936431Y-45411607D01*
X82905110Y-45394866D01*
X82877661Y-45372339D01*
X82855134Y-45344890D01*
X82838393Y-45313569D01*
X82828085Y-45279591D01*
X82824000Y-45238110D01*
X82824000Y-44561890D01*
X82828085Y-44520409D01*
X82838393Y-44486431D01*
X82855134Y-44455110D01*
X82877661Y-44427661D01*
X82905110Y-44405134D01*
X82936431Y-44388393D01*
X82970409Y-44378085D01*
X83011890Y-44374000D01*
X83613110Y-44374000D01*
X83654591Y-44378085D01*
G37*
G36*
X80554591Y-44378085D02*
G01*
X80588569Y-44388393D01*
X80619890Y-44405134D01*
X80647339Y-44427661D01*
X80669866Y-44455110D01*
X80686607Y-44486431D01*
X80696915Y-44520409D01*
X80701000Y-44561890D01*
X80701000Y-45238110D01*
X80696915Y-45279591D01*
X80686607Y-45313569D01*
X80669866Y-45344890D01*
X80647339Y-45372339D01*
X80619890Y-45394866D01*
X80588569Y-45411607D01*
X80554591Y-45421915D01*
X80513110Y-45426000D01*
X79911890Y-45426000D01*
X79870409Y-45421915D01*
X79836431Y-45411607D01*
X79805110Y-45394866D01*
X79777661Y-45372339D01*
X79755134Y-45344890D01*
X79738393Y-45313569D01*
X79728085Y-45279591D01*
X79724000Y-45238110D01*
X79724000Y-44561890D01*
X79728085Y-44520409D01*
X79738393Y-44486431D01*
X79755134Y-44455110D01*
X79777661Y-44427661D01*
X79805110Y-44405134D01*
X79836431Y-44388393D01*
X79870409Y-44378085D01*
X79911890Y-44374000D01*
X80513110Y-44374000D01*
X80554591Y-44378085D01*
G37*
G36*
X68154591Y-44378085D02*
G01*
X68188569Y-44388393D01*
X68219890Y-44405134D01*
X68247339Y-44427661D01*
X68269866Y-44455110D01*
X68286607Y-44486431D01*
X68296915Y-44520409D01*
X68301000Y-44561890D01*
X68301000Y-45238110D01*
X68296915Y-45279591D01*
X68286607Y-45313569D01*
X68269866Y-45344890D01*
X68247339Y-45372339D01*
X68219890Y-45394866D01*
X68188569Y-45411607D01*
X68154591Y-45421915D01*
X68113110Y-45426000D01*
X67511890Y-45426000D01*
X67470409Y-45421915D01*
X67436431Y-45411607D01*
X67405110Y-45394866D01*
X67377661Y-45372339D01*
X67355134Y-45344890D01*
X67338393Y-45313569D01*
X67328085Y-45279591D01*
X67324000Y-45238110D01*
X67324000Y-44561890D01*
X67328085Y-44520409D01*
X67338393Y-44486431D01*
X67355134Y-44455110D01*
X67377661Y-44427661D01*
X67405110Y-44405134D01*
X67436431Y-44388393D01*
X67470409Y-44378085D01*
X67511890Y-44374000D01*
X68113110Y-44374000D01*
X68154591Y-44378085D01*
G37*
G36*
X79029591Y-44378085D02*
G01*
X79063569Y-44388393D01*
X79094890Y-44405134D01*
X79122339Y-44427661D01*
X79144866Y-44455110D01*
X79161607Y-44486431D01*
X79171915Y-44520409D01*
X79176000Y-44561890D01*
X79176000Y-45238110D01*
X79171915Y-45279591D01*
X79161607Y-45313569D01*
X79144866Y-45344890D01*
X79122339Y-45372339D01*
X79094890Y-45394866D01*
X79063569Y-45411607D01*
X79029591Y-45421915D01*
X78988110Y-45426000D01*
X78386890Y-45426000D01*
X78345409Y-45421915D01*
X78311431Y-45411607D01*
X78280110Y-45394866D01*
X78252661Y-45372339D01*
X78230134Y-45344890D01*
X78213393Y-45313569D01*
X78203085Y-45279591D01*
X78199000Y-45238110D01*
X78199000Y-44561890D01*
X78203085Y-44520409D01*
X78213393Y-44486431D01*
X78230134Y-44455110D01*
X78252661Y-44427661D01*
X78280110Y-44405134D01*
X78311431Y-44388393D01*
X78345409Y-44378085D01*
X78386890Y-44374000D01*
X78988110Y-44374000D01*
X79029591Y-44378085D01*
G37*
G36*
X77454591Y-44378085D02*
G01*
X77488569Y-44388393D01*
X77519890Y-44405134D01*
X77547339Y-44427661D01*
X77569866Y-44455110D01*
X77586607Y-44486431D01*
X77596915Y-44520409D01*
X77601000Y-44561890D01*
X77601000Y-45238110D01*
X77596915Y-45279591D01*
X77586607Y-45313569D01*
X77569866Y-45344890D01*
X77547339Y-45372339D01*
X77519890Y-45394866D01*
X77488569Y-45411607D01*
X77454591Y-45421915D01*
X77413110Y-45426000D01*
X76811890Y-45426000D01*
X76770409Y-45421915D01*
X76736431Y-45411607D01*
X76705110Y-45394866D01*
X76677661Y-45372339D01*
X76655134Y-45344890D01*
X76638393Y-45313569D01*
X76628085Y-45279591D01*
X76624000Y-45238110D01*
X76624000Y-44561890D01*
X76628085Y-44520409D01*
X76638393Y-44486431D01*
X76655134Y-44455110D01*
X76677661Y-44427661D01*
X76705110Y-44405134D01*
X76736431Y-44388393D01*
X76770409Y-44378085D01*
X76811890Y-44374000D01*
X77413110Y-44374000D01*
X77454591Y-44378085D01*
G37*
G36*
X75929591Y-44378085D02*
G01*
X75963569Y-44388393D01*
X75994890Y-44405134D01*
X76022339Y-44427661D01*
X76044866Y-44455110D01*
X76061607Y-44486431D01*
X76071915Y-44520409D01*
X76076000Y-44561890D01*
X76076000Y-45238110D01*
X76071915Y-45279591D01*
X76061607Y-45313569D01*
X76044866Y-45344890D01*
X76022339Y-45372339D01*
X75994890Y-45394866D01*
X75963569Y-45411607D01*
X75929591Y-45421915D01*
X75888110Y-45426000D01*
X75286890Y-45426000D01*
X75245409Y-45421915D01*
X75211431Y-45411607D01*
X75180110Y-45394866D01*
X75152661Y-45372339D01*
X75130134Y-45344890D01*
X75113393Y-45313569D01*
X75103085Y-45279591D01*
X75099000Y-45238110D01*
X75099000Y-44561890D01*
X75103085Y-44520409D01*
X75113393Y-44486431D01*
X75130134Y-44455110D01*
X75152661Y-44427661D01*
X75180110Y-44405134D01*
X75211431Y-44388393D01*
X75245409Y-44378085D01*
X75286890Y-44374000D01*
X75888110Y-44374000D01*
X75929591Y-44378085D01*
G37*
G36*
X74354591Y-44378085D02*
G01*
X74388569Y-44388393D01*
X74419890Y-44405134D01*
X74447339Y-44427661D01*
X74469866Y-44455110D01*
X74486607Y-44486431D01*
X74496915Y-44520409D01*
X74501000Y-44561890D01*
X74501000Y-45238110D01*
X74496915Y-45279591D01*
X74486607Y-45313569D01*
X74469866Y-45344890D01*
X74447339Y-45372339D01*
X74419890Y-45394866D01*
X74388569Y-45411607D01*
X74354591Y-45421915D01*
X74313110Y-45426000D01*
X73711890Y-45426000D01*
X73670409Y-45421915D01*
X73636431Y-45411607D01*
X73605110Y-45394866D01*
X73577661Y-45372339D01*
X73555134Y-45344890D01*
X73538393Y-45313569D01*
X73528085Y-45279591D01*
X73524000Y-45238110D01*
X73524000Y-44561890D01*
X73528085Y-44520409D01*
X73538393Y-44486431D01*
X73555134Y-44455110D01*
X73577661Y-44427661D01*
X73605110Y-44405134D01*
X73636431Y-44388393D01*
X73670409Y-44378085D01*
X73711890Y-44374000D01*
X74313110Y-44374000D01*
X74354591Y-44378085D01*
G37*
G36*
X72829591Y-44378085D02*
G01*
X72863569Y-44388393D01*
X72894890Y-44405134D01*
X72922339Y-44427661D01*
X72944866Y-44455110D01*
X72961607Y-44486431D01*
X72971915Y-44520409D01*
X72976000Y-44561890D01*
X72976000Y-45238110D01*
X72971915Y-45279591D01*
X72961607Y-45313569D01*
X72944866Y-45344890D01*
X72922339Y-45372339D01*
X72894890Y-45394866D01*
X72863569Y-45411607D01*
X72829591Y-45421915D01*
X72788110Y-45426000D01*
X72186890Y-45426000D01*
X72145409Y-45421915D01*
X72111431Y-45411607D01*
X72080110Y-45394866D01*
X72052661Y-45372339D01*
X72030134Y-45344890D01*
X72013393Y-45313569D01*
X72003085Y-45279591D01*
X71999000Y-45238110D01*
X71999000Y-44561890D01*
X72003085Y-44520409D01*
X72013393Y-44486431D01*
X72030134Y-44455110D01*
X72052661Y-44427661D01*
X72080110Y-44405134D01*
X72111431Y-44388393D01*
X72145409Y-44378085D01*
X72186890Y-44374000D01*
X72788110Y-44374000D01*
X72829591Y-44378085D01*
G37*
G36*
X71254591Y-44378085D02*
G01*
X71288569Y-44388393D01*
X71319890Y-44405134D01*
X71347339Y-44427661D01*
X71369866Y-44455110D01*
X71386607Y-44486431D01*
X71396915Y-44520409D01*
X71401000Y-44561890D01*
X71401000Y-45238110D01*
X71396915Y-45279591D01*
X71386607Y-45313569D01*
X71369866Y-45344890D01*
X71347339Y-45372339D01*
X71319890Y-45394866D01*
X71288569Y-45411607D01*
X71254591Y-45421915D01*
X71213110Y-45426000D01*
X70611890Y-45426000D01*
X70570409Y-45421915D01*
X70536431Y-45411607D01*
X70505110Y-45394866D01*
X70477661Y-45372339D01*
X70455134Y-45344890D01*
X70438393Y-45313569D01*
X70428085Y-45279591D01*
X70424000Y-45238110D01*
X70424000Y-44561890D01*
X70428085Y-44520409D01*
X70438393Y-44486431D01*
X70455134Y-44455110D01*
X70477661Y-44427661D01*
X70505110Y-44405134D01*
X70536431Y-44388393D01*
X70570409Y-44378085D01*
X70611890Y-44374000D01*
X71213110Y-44374000D01*
X71254591Y-44378085D01*
G37*
G36*
X69729591Y-44378085D02*
G01*
X69763569Y-44388393D01*
X69794890Y-44405134D01*
X69822339Y-44427661D01*
X69844866Y-44455110D01*
X69861607Y-44486431D01*
X69871915Y-44520409D01*
X69876000Y-44561890D01*
X69876000Y-45238110D01*
X69871915Y-45279591D01*
X69861607Y-45313569D01*
X69844866Y-45344890D01*
X69822339Y-45372339D01*
X69794890Y-45394866D01*
X69763569Y-45411607D01*
X69729591Y-45421915D01*
X69688110Y-45426000D01*
X69086890Y-45426000D01*
X69045409Y-45421915D01*
X69011431Y-45411607D01*
X68980110Y-45394866D01*
X68952661Y-45372339D01*
X68930134Y-45344890D01*
X68913393Y-45313569D01*
X68903085Y-45279591D01*
X68899000Y-45238110D01*
X68899000Y-44561890D01*
X68903085Y-44520409D01*
X68913393Y-44486431D01*
X68930134Y-44455110D01*
X68952661Y-44427661D01*
X68980110Y-44405134D01*
X69011431Y-44388393D01*
X69045409Y-44378085D01*
X69086890Y-44374000D01*
X69688110Y-44374000D01*
X69729591Y-44378085D01*
G37*
G36*
X82129591Y-44378085D02*
G01*
X82163569Y-44388393D01*
X82194890Y-44405134D01*
X82222339Y-44427661D01*
X82244866Y-44455110D01*
X82261607Y-44486431D01*
X82271915Y-44520409D01*
X82276000Y-44561890D01*
X82276000Y-45238110D01*
X82271915Y-45279591D01*
X82261607Y-45313569D01*
X82244866Y-45344890D01*
X82222339Y-45372339D01*
X82194890Y-45394866D01*
X82163569Y-45411607D01*
X82129591Y-45421915D01*
X82088110Y-45426000D01*
X81486890Y-45426000D01*
X81445409Y-45421915D01*
X81411431Y-45411607D01*
X81380110Y-45394866D01*
X81352661Y-45372339D01*
X81330134Y-45344890D01*
X81313393Y-45313569D01*
X81303085Y-45279591D01*
X81299000Y-45238110D01*
X81299000Y-44561890D01*
X81303085Y-44520409D01*
X81313393Y-44486431D01*
X81330134Y-44455110D01*
X81352661Y-44427661D01*
X81380110Y-44405134D01*
X81411431Y-44388393D01*
X81445409Y-44378085D01*
X81486890Y-44374000D01*
X82088110Y-44374000D01*
X82129591Y-44378085D01*
G37*
M02*
