G04 #@! TF.GenerationSoftware,KiCad,Pcbnew,5.1.5-52549c5~84~ubuntu16.04.1*
G04 #@! TF.CreationDate,2019-12-28T13:20:19+01:00*
G04 #@! TF.ProjectId,Jig_Varactor,4a69675f-5661-4726-9163-746f722e6b69,rev?*
G04 #@! TF.SameCoordinates,Original*
G04 #@! TF.FileFunction,Soldermask,Top*
G04 #@! TF.FilePolarity,Negative*
%FSLAX46Y46*%
G04 Gerber Fmt 4.6, Leading zero omitted, Abs format (unit mm)*
G04 Created by KiCad (PCBNEW 5.1.5-52549c5~84~ubuntu16.04.1) date 2019-12-28 13:20:19*
%MOMM*%
%LPD*%
G04 APERTURE LIST*
%ADD10C,0.100000*%
G04 APERTURE END LIST*
D10*
G36*
X110298591Y-71106085D02*
G01*
X110332569Y-71116393D01*
X110363890Y-71133134D01*
X110391339Y-71155661D01*
X110413866Y-71183110D01*
X110430607Y-71214431D01*
X110440915Y-71248409D01*
X110445000Y-71289890D01*
X110445000Y-71966110D01*
X110440915Y-72007591D01*
X110430607Y-72041569D01*
X110413866Y-72072890D01*
X110391339Y-72100339D01*
X110363890Y-72122866D01*
X110332569Y-72139607D01*
X110298591Y-72149915D01*
X110257110Y-72154000D01*
X109655890Y-72154000D01*
X109614409Y-72149915D01*
X109580431Y-72139607D01*
X109549110Y-72122866D01*
X109521661Y-72100339D01*
X109499134Y-72072890D01*
X109482393Y-72041569D01*
X109472085Y-72007591D01*
X109468000Y-71966110D01*
X109468000Y-71289890D01*
X109472085Y-71248409D01*
X109482393Y-71214431D01*
X109499134Y-71183110D01*
X109521661Y-71155661D01*
X109549110Y-71133134D01*
X109580431Y-71116393D01*
X109614409Y-71106085D01*
X109655890Y-71102000D01*
X110257110Y-71102000D01*
X110298591Y-71106085D01*
G37*
G36*
X111873591Y-71106085D02*
G01*
X111907569Y-71116393D01*
X111938890Y-71133134D01*
X111966339Y-71155661D01*
X111988866Y-71183110D01*
X112005607Y-71214431D01*
X112015915Y-71248409D01*
X112020000Y-71289890D01*
X112020000Y-71966110D01*
X112015915Y-72007591D01*
X112005607Y-72041569D01*
X111988866Y-72072890D01*
X111966339Y-72100339D01*
X111938890Y-72122866D01*
X111907569Y-72139607D01*
X111873591Y-72149915D01*
X111832110Y-72154000D01*
X111230890Y-72154000D01*
X111189409Y-72149915D01*
X111155431Y-72139607D01*
X111124110Y-72122866D01*
X111096661Y-72100339D01*
X111074134Y-72072890D01*
X111057393Y-72041569D01*
X111047085Y-72007591D01*
X111043000Y-71966110D01*
X111043000Y-71289890D01*
X111047085Y-71248409D01*
X111057393Y-71214431D01*
X111074134Y-71183110D01*
X111096661Y-71155661D01*
X111124110Y-71133134D01*
X111155431Y-71116393D01*
X111189409Y-71106085D01*
X111230890Y-71102000D01*
X111832110Y-71102000D01*
X111873591Y-71106085D01*
G37*
G36*
X102824549Y-70455269D02*
G01*
X102831039Y-70457238D01*
X102837021Y-70460435D01*
X102842263Y-70464737D01*
X102846565Y-70469979D01*
X102849762Y-70475961D01*
X102851731Y-70482451D01*
X102853000Y-70495338D01*
X102853000Y-71764662D01*
X102851731Y-71777549D01*
X102849762Y-71784039D01*
X102846565Y-71790021D01*
X102842263Y-71795263D01*
X102837021Y-71799565D01*
X102831039Y-71802762D01*
X102824549Y-71804731D01*
X102811662Y-71806000D01*
X98542338Y-71806000D01*
X98529451Y-71804731D01*
X98522961Y-71802762D01*
X98516979Y-71799565D01*
X98511737Y-71795263D01*
X98507435Y-71790021D01*
X98504238Y-71784039D01*
X98502269Y-71777549D01*
X98501000Y-71764662D01*
X98501000Y-70495338D01*
X98502269Y-70482451D01*
X98504238Y-70475961D01*
X98507435Y-70469979D01*
X98511737Y-70464737D01*
X98516979Y-70460435D01*
X98522961Y-70457238D01*
X98529451Y-70455269D01*
X98542338Y-70454000D01*
X102811662Y-70454000D01*
X102824549Y-70455269D01*
G37*
G36*
X110844923Y-68951423D02*
G01*
X111006812Y-68983624D01*
X111170784Y-69051544D01*
X111318354Y-69150147D01*
X111443853Y-69275646D01*
X111542456Y-69423216D01*
X111610376Y-69587188D01*
X111645000Y-69761259D01*
X111645000Y-69938741D01*
X111610376Y-70112812D01*
X111542456Y-70276784D01*
X111443853Y-70424354D01*
X111318354Y-70549853D01*
X111170784Y-70648456D01*
X111006812Y-70716376D01*
X110857512Y-70746073D01*
X110832742Y-70751000D01*
X110655258Y-70751000D01*
X110630488Y-70746073D01*
X110481188Y-70716376D01*
X110317216Y-70648456D01*
X110169646Y-70549853D01*
X110044147Y-70424354D01*
X109945544Y-70276784D01*
X109877624Y-70112812D01*
X109843000Y-69938741D01*
X109843000Y-69761259D01*
X109877624Y-69587188D01*
X109945544Y-69423216D01*
X110044147Y-69275646D01*
X110169646Y-69150147D01*
X110317216Y-69051544D01*
X110481188Y-68983624D01*
X110643077Y-68951423D01*
X110655258Y-68949000D01*
X110832742Y-68949000D01*
X110844923Y-68951423D01*
G37*
G36*
X102844674Y-68029789D02*
G01*
X102846471Y-68030335D01*
X102848129Y-68031221D01*
X102849585Y-68032415D01*
X102850779Y-68033871D01*
X102851665Y-68035529D01*
X102852211Y-68037326D01*
X102853000Y-68045341D01*
X102853000Y-69114659D01*
X102852211Y-69122674D01*
X102851665Y-69124471D01*
X102850779Y-69126129D01*
X102849585Y-69127585D01*
X102848129Y-69128779D01*
X102846471Y-69129665D01*
X102844674Y-69130211D01*
X102836659Y-69131000D01*
X98517341Y-69131000D01*
X98509326Y-69130211D01*
X98507529Y-69129665D01*
X98505871Y-69128779D01*
X98504415Y-69127585D01*
X98503221Y-69126129D01*
X98502335Y-69124471D01*
X98501789Y-69122674D01*
X98501000Y-69114659D01*
X98501000Y-68045341D01*
X98501789Y-68037326D01*
X98502335Y-68035529D01*
X98503221Y-68033871D01*
X98504415Y-68032415D01*
X98505871Y-68031221D01*
X98507529Y-68030335D01*
X98509326Y-68029789D01*
X98517341Y-68029000D01*
X102836659Y-68029000D01*
X102844674Y-68029789D01*
G37*
G36*
X105777591Y-68058085D02*
G01*
X105811569Y-68068393D01*
X105842890Y-68085134D01*
X105870339Y-68107661D01*
X105892866Y-68135110D01*
X105909607Y-68166431D01*
X105919915Y-68200409D01*
X105924000Y-68241890D01*
X105924000Y-68918110D01*
X105919915Y-68959591D01*
X105909607Y-68993569D01*
X105892866Y-69024890D01*
X105870339Y-69052339D01*
X105842890Y-69074866D01*
X105811569Y-69091607D01*
X105777591Y-69101915D01*
X105736110Y-69106000D01*
X105134890Y-69106000D01*
X105093409Y-69101915D01*
X105059431Y-69091607D01*
X105028110Y-69074866D01*
X105000661Y-69052339D01*
X104978134Y-69024890D01*
X104961393Y-68993569D01*
X104951085Y-68959591D01*
X104947000Y-68918110D01*
X104947000Y-68241890D01*
X104951085Y-68200409D01*
X104961393Y-68166431D01*
X104978134Y-68135110D01*
X105000661Y-68107661D01*
X105028110Y-68085134D01*
X105059431Y-68068393D01*
X105093409Y-68058085D01*
X105134890Y-68054000D01*
X105736110Y-68054000D01*
X105777591Y-68058085D01*
G37*
G36*
X104202591Y-68058085D02*
G01*
X104236569Y-68068393D01*
X104267890Y-68085134D01*
X104295339Y-68107661D01*
X104317866Y-68135110D01*
X104334607Y-68166431D01*
X104344915Y-68200409D01*
X104349000Y-68241890D01*
X104349000Y-68918110D01*
X104344915Y-68959591D01*
X104334607Y-68993569D01*
X104317866Y-69024890D01*
X104295339Y-69052339D01*
X104267890Y-69074866D01*
X104236569Y-69091607D01*
X104202591Y-69101915D01*
X104161110Y-69106000D01*
X103559890Y-69106000D01*
X103518409Y-69101915D01*
X103484431Y-69091607D01*
X103453110Y-69074866D01*
X103425661Y-69052339D01*
X103403134Y-69024890D01*
X103386393Y-68993569D01*
X103376085Y-68959591D01*
X103372000Y-68918110D01*
X103372000Y-68241890D01*
X103376085Y-68200409D01*
X103386393Y-68166431D01*
X103403134Y-68135110D01*
X103425661Y-68107661D01*
X103453110Y-68085134D01*
X103484431Y-68068393D01*
X103518409Y-68058085D01*
X103559890Y-68054000D01*
X104161110Y-68054000D01*
X104202591Y-68058085D01*
G37*
G36*
X107001928Y-68181764D02*
G01*
X107023009Y-68188160D01*
X107042445Y-68198548D01*
X107059476Y-68212524D01*
X107073452Y-68229555D01*
X107083840Y-68248991D01*
X107090236Y-68270072D01*
X107093000Y-68298140D01*
X107093000Y-68861860D01*
X107090236Y-68889928D01*
X107083840Y-68911009D01*
X107073452Y-68930445D01*
X107059476Y-68947476D01*
X107042445Y-68961452D01*
X107023009Y-68971840D01*
X107001928Y-68978236D01*
X106973860Y-68981000D01*
X106510140Y-68981000D01*
X106482072Y-68978236D01*
X106460991Y-68971840D01*
X106441555Y-68961452D01*
X106424524Y-68947476D01*
X106410548Y-68930445D01*
X106400160Y-68911009D01*
X106393764Y-68889928D01*
X106391000Y-68861860D01*
X106391000Y-68298140D01*
X106393764Y-68270072D01*
X106400160Y-68248991D01*
X106410548Y-68229555D01*
X106424524Y-68212524D01*
X106441555Y-68198548D01*
X106460991Y-68188160D01*
X106482072Y-68181764D01*
X106510140Y-68179000D01*
X106973860Y-68179000D01*
X107001928Y-68181764D01*
G37*
G36*
X108401928Y-68181764D02*
G01*
X108423009Y-68188160D01*
X108442445Y-68198548D01*
X108459476Y-68212524D01*
X108473452Y-68229555D01*
X108483840Y-68248991D01*
X108490236Y-68270072D01*
X108493000Y-68298140D01*
X108493000Y-68861860D01*
X108490236Y-68889928D01*
X108483840Y-68911009D01*
X108473452Y-68930445D01*
X108459476Y-68947476D01*
X108442445Y-68961452D01*
X108423009Y-68971840D01*
X108401928Y-68978236D01*
X108373860Y-68981000D01*
X107910140Y-68981000D01*
X107882072Y-68978236D01*
X107860991Y-68971840D01*
X107841555Y-68961452D01*
X107824524Y-68947476D01*
X107810548Y-68930445D01*
X107800160Y-68911009D01*
X107793764Y-68889928D01*
X107791000Y-68861860D01*
X107791000Y-68298140D01*
X107793764Y-68270072D01*
X107800160Y-68248991D01*
X107810548Y-68229555D01*
X107824524Y-68212524D01*
X107841555Y-68198548D01*
X107860991Y-68188160D01*
X107882072Y-68181764D01*
X107910140Y-68179000D01*
X108373860Y-68179000D01*
X108401928Y-68181764D01*
G37*
G36*
X111645000Y-68211000D02*
G01*
X109843000Y-68211000D01*
X109843000Y-66409000D01*
X111645000Y-66409000D01*
X111645000Y-68211000D01*
G37*
G36*
X102824549Y-65355269D02*
G01*
X102831039Y-65357238D01*
X102837021Y-65360435D01*
X102842263Y-65364737D01*
X102846565Y-65369979D01*
X102849762Y-65375961D01*
X102851731Y-65382451D01*
X102853000Y-65395338D01*
X102853000Y-66664662D01*
X102851731Y-66677549D01*
X102849762Y-66684039D01*
X102846565Y-66690021D01*
X102842263Y-66695263D01*
X102837021Y-66699565D01*
X102831039Y-66702762D01*
X102824549Y-66704731D01*
X102811662Y-66706000D01*
X98542338Y-66706000D01*
X98529451Y-66704731D01*
X98522961Y-66702762D01*
X98516979Y-66699565D01*
X98511737Y-66695263D01*
X98507435Y-66690021D01*
X98504238Y-66684039D01*
X98502269Y-66677549D01*
X98501000Y-66664662D01*
X98501000Y-65395338D01*
X98502269Y-65382451D01*
X98504238Y-65375961D01*
X98507435Y-65369979D01*
X98511737Y-65364737D01*
X98516979Y-65360435D01*
X98522961Y-65357238D01*
X98529451Y-65355269D01*
X98542338Y-65354000D01*
X102811662Y-65354000D01*
X102824549Y-65355269D01*
G37*
G36*
X110298591Y-65010085D02*
G01*
X110332569Y-65020393D01*
X110363890Y-65037134D01*
X110391339Y-65059661D01*
X110413866Y-65087110D01*
X110430607Y-65118431D01*
X110440915Y-65152409D01*
X110445000Y-65193890D01*
X110445000Y-65870110D01*
X110440915Y-65911591D01*
X110430607Y-65945569D01*
X110413866Y-65976890D01*
X110391339Y-66004339D01*
X110363890Y-66026866D01*
X110332569Y-66043607D01*
X110298591Y-66053915D01*
X110257110Y-66058000D01*
X109655890Y-66058000D01*
X109614409Y-66053915D01*
X109580431Y-66043607D01*
X109549110Y-66026866D01*
X109521661Y-66004339D01*
X109499134Y-65976890D01*
X109482393Y-65945569D01*
X109472085Y-65911591D01*
X109468000Y-65870110D01*
X109468000Y-65193890D01*
X109472085Y-65152409D01*
X109482393Y-65118431D01*
X109499134Y-65087110D01*
X109521661Y-65059661D01*
X109549110Y-65037134D01*
X109580431Y-65020393D01*
X109614409Y-65010085D01*
X109655890Y-65006000D01*
X110257110Y-65006000D01*
X110298591Y-65010085D01*
G37*
G36*
X111873591Y-65010085D02*
G01*
X111907569Y-65020393D01*
X111938890Y-65037134D01*
X111966339Y-65059661D01*
X111988866Y-65087110D01*
X112005607Y-65118431D01*
X112015915Y-65152409D01*
X112020000Y-65193890D01*
X112020000Y-65870110D01*
X112015915Y-65911591D01*
X112005607Y-65945569D01*
X111988866Y-65976890D01*
X111966339Y-66004339D01*
X111938890Y-66026866D01*
X111907569Y-66043607D01*
X111873591Y-66053915D01*
X111832110Y-66058000D01*
X111230890Y-66058000D01*
X111189409Y-66053915D01*
X111155431Y-66043607D01*
X111124110Y-66026866D01*
X111096661Y-66004339D01*
X111074134Y-65976890D01*
X111057393Y-65945569D01*
X111047085Y-65911591D01*
X111043000Y-65870110D01*
X111043000Y-65193890D01*
X111047085Y-65152409D01*
X111057393Y-65118431D01*
X111074134Y-65087110D01*
X111096661Y-65059661D01*
X111124110Y-65037134D01*
X111155431Y-65020393D01*
X111189409Y-65010085D01*
X111230890Y-65006000D01*
X111832110Y-65006000D01*
X111873591Y-65010085D01*
G37*
M02*
