M48
; DRILL file {KiCad 5.1.5-52549c5~84~ubuntu16.04.1} date sab 28 dic 2019 13:18:06 CET
; FORMAT={-:-/ absolute / inch / decimal}
; #@! TF.CreationDate,2019-12-28T13:18:06+01:00
; #@! TF.GenerationSoftware,Kicad,Pcbnew,5.1.5-52549c5~84~ubuntu16.04.1
FMAT,2
INCH
T1C0.0118
T2C0.0394
%
G90
G05
T1
X4.06Y-2.79
X4.08Y-2.61
X4.09Y-2.79
X4.11Y-2.61
X4.12Y-2.79
X4.14Y-2.61
X4.17Y-2.61
X4.18Y-2.79
X4.2Y-2.61
X4.22Y-2.79
X4.23Y-2.61
X4.26Y-2.61
X4.26Y-2.64
X4.26Y-2.67
X4.26Y-2.73
X4.26Y-2.76
X4.26Y-2.79
X4.29Y-2.61
X4.29Y-2.64
X4.29Y-2.67
X4.29Y-2.7
X4.29Y-2.73
X4.29Y-2.76
X4.29Y-2.79
T2
X4.36Y-2.65
X4.36Y-2.75
T0
M30
