G04 #@! TF.GenerationSoftware,KiCad,Pcbnew,5.1.5-52549c5~84~ubuntu16.04.1*
G04 #@! TF.CreationDate,2019-12-28T13:20:19+01:00*
G04 #@! TF.ProjectId,Jig_Varactor,4a69675f-5661-4726-9163-746f722e6b69,rev?*
G04 #@! TF.SameCoordinates,Original*
G04 #@! TF.FileFunction,Paste,Top*
G04 #@! TF.FilePolarity,Positive*
%FSLAX46Y46*%
G04 Gerber Fmt 4.6, Leading zero omitted, Abs format (unit mm)*
G04 Created by KiCad (PCBNEW 5.1.5-52549c5~84~ubuntu16.04.1) date 2019-12-28 13:20:19*
%MOMM*%
%LPD*%
G04 APERTURE LIST*
%ADD10C,0.100000*%
G04 APERTURE END LIST*
D10*
G36*
X106906703Y-68230722D02*
G01*
X106921264Y-68232882D01*
X106935543Y-68236459D01*
X106949403Y-68241418D01*
X106962710Y-68247712D01*
X106975336Y-68255280D01*
X106987159Y-68264048D01*
X106998066Y-68273934D01*
X107007952Y-68284841D01*
X107016720Y-68296664D01*
X107024288Y-68309290D01*
X107030582Y-68322597D01*
X107035541Y-68336457D01*
X107039118Y-68350736D01*
X107041278Y-68365297D01*
X107042000Y-68380000D01*
X107042000Y-68780000D01*
X107041278Y-68794703D01*
X107039118Y-68809264D01*
X107035541Y-68823543D01*
X107030582Y-68837403D01*
X107024288Y-68850710D01*
X107016720Y-68863336D01*
X107007952Y-68875159D01*
X106998066Y-68886066D01*
X106987159Y-68895952D01*
X106975336Y-68904720D01*
X106962710Y-68912288D01*
X106949403Y-68918582D01*
X106935543Y-68923541D01*
X106921264Y-68927118D01*
X106906703Y-68929278D01*
X106892000Y-68930000D01*
X106592000Y-68930000D01*
X106577297Y-68929278D01*
X106562736Y-68927118D01*
X106548457Y-68923541D01*
X106534597Y-68918582D01*
X106521290Y-68912288D01*
X106508664Y-68904720D01*
X106496841Y-68895952D01*
X106485934Y-68886066D01*
X106476048Y-68875159D01*
X106467280Y-68863336D01*
X106459712Y-68850710D01*
X106453418Y-68837403D01*
X106448459Y-68823543D01*
X106444882Y-68809264D01*
X106442722Y-68794703D01*
X106442000Y-68780000D01*
X106442000Y-68380000D01*
X106442722Y-68365297D01*
X106444882Y-68350736D01*
X106448459Y-68336457D01*
X106453418Y-68322597D01*
X106459712Y-68309290D01*
X106467280Y-68296664D01*
X106476048Y-68284841D01*
X106485934Y-68273934D01*
X106496841Y-68264048D01*
X106508664Y-68255280D01*
X106521290Y-68247712D01*
X106534597Y-68241418D01*
X106548457Y-68236459D01*
X106562736Y-68232882D01*
X106577297Y-68230722D01*
X106592000Y-68230000D01*
X106892000Y-68230000D01*
X106906703Y-68230722D01*
G37*
G36*
X108306703Y-68230722D02*
G01*
X108321264Y-68232882D01*
X108335543Y-68236459D01*
X108349403Y-68241418D01*
X108362710Y-68247712D01*
X108375336Y-68255280D01*
X108387159Y-68264048D01*
X108398066Y-68273934D01*
X108407952Y-68284841D01*
X108416720Y-68296664D01*
X108424288Y-68309290D01*
X108430582Y-68322597D01*
X108435541Y-68336457D01*
X108439118Y-68350736D01*
X108441278Y-68365297D01*
X108442000Y-68380000D01*
X108442000Y-68780000D01*
X108441278Y-68794703D01*
X108439118Y-68809264D01*
X108435541Y-68823543D01*
X108430582Y-68837403D01*
X108424288Y-68850710D01*
X108416720Y-68863336D01*
X108407952Y-68875159D01*
X108398066Y-68886066D01*
X108387159Y-68895952D01*
X108375336Y-68904720D01*
X108362710Y-68912288D01*
X108349403Y-68918582D01*
X108335543Y-68923541D01*
X108321264Y-68927118D01*
X108306703Y-68929278D01*
X108292000Y-68930000D01*
X107992000Y-68930000D01*
X107977297Y-68929278D01*
X107962736Y-68927118D01*
X107948457Y-68923541D01*
X107934597Y-68918582D01*
X107921290Y-68912288D01*
X107908664Y-68904720D01*
X107896841Y-68895952D01*
X107885934Y-68886066D01*
X107876048Y-68875159D01*
X107867280Y-68863336D01*
X107859712Y-68850710D01*
X107853418Y-68837403D01*
X107848459Y-68823543D01*
X107844882Y-68809264D01*
X107842722Y-68794703D01*
X107842000Y-68780000D01*
X107842000Y-68380000D01*
X107842722Y-68365297D01*
X107844882Y-68350736D01*
X107848459Y-68336457D01*
X107853418Y-68322597D01*
X107859712Y-68309290D01*
X107867280Y-68296664D01*
X107876048Y-68284841D01*
X107885934Y-68273934D01*
X107896841Y-68264048D01*
X107908664Y-68255280D01*
X107921290Y-68247712D01*
X107934597Y-68241418D01*
X107948457Y-68236459D01*
X107962736Y-68232882D01*
X107977297Y-68230722D01*
X107992000Y-68230000D01*
X108292000Y-68230000D01*
X108306703Y-68230722D01*
G37*
G36*
X102689252Y-70505602D02*
G01*
X102701386Y-70507402D01*
X102713286Y-70510382D01*
X102724835Y-70514515D01*
X102735925Y-70519760D01*
X102746446Y-70526066D01*
X102756299Y-70533374D01*
X102765388Y-70541612D01*
X102773626Y-70550701D01*
X102780934Y-70560554D01*
X102787240Y-70571075D01*
X102792485Y-70582165D01*
X102796618Y-70593714D01*
X102799598Y-70605614D01*
X102801398Y-70617748D01*
X102802000Y-70630000D01*
X102802000Y-71630000D01*
X102801398Y-71642252D01*
X102799598Y-71654386D01*
X102796618Y-71666286D01*
X102792485Y-71677835D01*
X102787240Y-71688925D01*
X102780934Y-71699446D01*
X102773626Y-71709299D01*
X102765388Y-71718388D01*
X102756299Y-71726626D01*
X102746446Y-71733934D01*
X102735925Y-71740240D01*
X102724835Y-71745485D01*
X102713286Y-71749618D01*
X102701386Y-71752598D01*
X102689252Y-71754398D01*
X102677000Y-71755000D01*
X98677000Y-71755000D01*
X98664748Y-71754398D01*
X98652614Y-71752598D01*
X98640714Y-71749618D01*
X98629165Y-71745485D01*
X98618075Y-71740240D01*
X98607554Y-71733934D01*
X98597701Y-71726626D01*
X98588612Y-71718388D01*
X98580374Y-71709299D01*
X98573066Y-71699446D01*
X98566760Y-71688925D01*
X98561515Y-71677835D01*
X98557382Y-71666286D01*
X98554402Y-71654386D01*
X98552602Y-71642252D01*
X98552000Y-71630000D01*
X98552000Y-70630000D01*
X98552602Y-70617748D01*
X98554402Y-70605614D01*
X98557382Y-70593714D01*
X98561515Y-70582165D01*
X98566760Y-70571075D01*
X98573066Y-70560554D01*
X98580374Y-70550701D01*
X98588612Y-70541612D01*
X98597701Y-70533374D01*
X98607554Y-70526066D01*
X98618075Y-70519760D01*
X98629165Y-70514515D01*
X98640714Y-70510382D01*
X98652614Y-70507402D01*
X98664748Y-70505602D01*
X98677000Y-70505000D01*
X102677000Y-70505000D01*
X102689252Y-70505602D01*
G37*
G36*
X102711802Y-68080482D02*
G01*
X102721509Y-68081921D01*
X102731028Y-68084306D01*
X102740268Y-68087612D01*
X102749140Y-68091808D01*
X102757557Y-68096853D01*
X102765439Y-68102699D01*
X102772711Y-68109289D01*
X102779301Y-68116561D01*
X102785147Y-68124443D01*
X102790192Y-68132860D01*
X102794388Y-68141732D01*
X102797694Y-68150972D01*
X102800079Y-68160491D01*
X102801518Y-68170198D01*
X102802000Y-68180000D01*
X102802000Y-68980000D01*
X102801518Y-68989802D01*
X102800079Y-68999509D01*
X102797694Y-69009028D01*
X102794388Y-69018268D01*
X102790192Y-69027140D01*
X102785147Y-69035557D01*
X102779301Y-69043439D01*
X102772711Y-69050711D01*
X102765439Y-69057301D01*
X102757557Y-69063147D01*
X102749140Y-69068192D01*
X102740268Y-69072388D01*
X102731028Y-69075694D01*
X102721509Y-69078079D01*
X102711802Y-69079518D01*
X102702000Y-69080000D01*
X98652000Y-69080000D01*
X98642198Y-69079518D01*
X98632491Y-69078079D01*
X98622972Y-69075694D01*
X98613732Y-69072388D01*
X98604860Y-69068192D01*
X98596443Y-69063147D01*
X98588561Y-69057301D01*
X98581289Y-69050711D01*
X98574699Y-69043439D01*
X98568853Y-69035557D01*
X98563808Y-69027140D01*
X98559612Y-69018268D01*
X98556306Y-69009028D01*
X98553921Y-68999509D01*
X98552482Y-68989802D01*
X98552000Y-68980000D01*
X98552000Y-68180000D01*
X98552482Y-68170198D01*
X98553921Y-68160491D01*
X98556306Y-68150972D01*
X98559612Y-68141732D01*
X98563808Y-68132860D01*
X98568853Y-68124443D01*
X98574699Y-68116561D01*
X98581289Y-68109289D01*
X98588561Y-68102699D01*
X98596443Y-68096853D01*
X98604860Y-68091808D01*
X98613732Y-68087612D01*
X98622972Y-68084306D01*
X98632491Y-68081921D01*
X98642198Y-68080482D01*
X98652000Y-68080000D01*
X102702000Y-68080000D01*
X102711802Y-68080482D01*
G37*
G36*
X102689252Y-65405602D02*
G01*
X102701386Y-65407402D01*
X102713286Y-65410382D01*
X102724835Y-65414515D01*
X102735925Y-65419760D01*
X102746446Y-65426066D01*
X102756299Y-65433374D01*
X102765388Y-65441612D01*
X102773626Y-65450701D01*
X102780934Y-65460554D01*
X102787240Y-65471075D01*
X102792485Y-65482165D01*
X102796618Y-65493714D01*
X102799598Y-65505614D01*
X102801398Y-65517748D01*
X102802000Y-65530000D01*
X102802000Y-66530000D01*
X102801398Y-66542252D01*
X102799598Y-66554386D01*
X102796618Y-66566286D01*
X102792485Y-66577835D01*
X102787240Y-66588925D01*
X102780934Y-66599446D01*
X102773626Y-66609299D01*
X102765388Y-66618388D01*
X102756299Y-66626626D01*
X102746446Y-66633934D01*
X102735925Y-66640240D01*
X102724835Y-66645485D01*
X102713286Y-66649618D01*
X102701386Y-66652598D01*
X102689252Y-66654398D01*
X102677000Y-66655000D01*
X98677000Y-66655000D01*
X98664748Y-66654398D01*
X98652614Y-66652598D01*
X98640714Y-66649618D01*
X98629165Y-66645485D01*
X98618075Y-66640240D01*
X98607554Y-66633934D01*
X98597701Y-66626626D01*
X98588612Y-66618388D01*
X98580374Y-66609299D01*
X98573066Y-66599446D01*
X98566760Y-66588925D01*
X98561515Y-66577835D01*
X98557382Y-66566286D01*
X98554402Y-66554386D01*
X98552602Y-66542252D01*
X98552000Y-66530000D01*
X98552000Y-65530000D01*
X98552602Y-65517748D01*
X98554402Y-65505614D01*
X98557382Y-65493714D01*
X98561515Y-65482165D01*
X98566760Y-65471075D01*
X98573066Y-65460554D01*
X98580374Y-65450701D01*
X98588612Y-65441612D01*
X98597701Y-65433374D01*
X98607554Y-65426066D01*
X98618075Y-65419760D01*
X98629165Y-65414515D01*
X98640714Y-65410382D01*
X98652614Y-65407402D01*
X98664748Y-65405602D01*
X98677000Y-65405000D01*
X102677000Y-65405000D01*
X102689252Y-65405602D01*
G37*
G36*
X110196691Y-71154053D02*
G01*
X110217926Y-71157203D01*
X110238750Y-71162419D01*
X110258962Y-71169651D01*
X110278368Y-71178830D01*
X110296781Y-71189866D01*
X110314024Y-71202654D01*
X110329930Y-71217070D01*
X110344346Y-71232976D01*
X110357134Y-71250219D01*
X110368170Y-71268632D01*
X110377349Y-71288038D01*
X110384581Y-71308250D01*
X110389797Y-71329074D01*
X110392947Y-71350309D01*
X110394000Y-71371750D01*
X110394000Y-71884250D01*
X110392947Y-71905691D01*
X110389797Y-71926926D01*
X110384581Y-71947750D01*
X110377349Y-71967962D01*
X110368170Y-71987368D01*
X110357134Y-72005781D01*
X110344346Y-72023024D01*
X110329930Y-72038930D01*
X110314024Y-72053346D01*
X110296781Y-72066134D01*
X110278368Y-72077170D01*
X110258962Y-72086349D01*
X110238750Y-72093581D01*
X110217926Y-72098797D01*
X110196691Y-72101947D01*
X110175250Y-72103000D01*
X109737750Y-72103000D01*
X109716309Y-72101947D01*
X109695074Y-72098797D01*
X109674250Y-72093581D01*
X109654038Y-72086349D01*
X109634632Y-72077170D01*
X109616219Y-72066134D01*
X109598976Y-72053346D01*
X109583070Y-72038930D01*
X109568654Y-72023024D01*
X109555866Y-72005781D01*
X109544830Y-71987368D01*
X109535651Y-71967962D01*
X109528419Y-71947750D01*
X109523203Y-71926926D01*
X109520053Y-71905691D01*
X109519000Y-71884250D01*
X109519000Y-71371750D01*
X109520053Y-71350309D01*
X109523203Y-71329074D01*
X109528419Y-71308250D01*
X109535651Y-71288038D01*
X109544830Y-71268632D01*
X109555866Y-71250219D01*
X109568654Y-71232976D01*
X109583070Y-71217070D01*
X109598976Y-71202654D01*
X109616219Y-71189866D01*
X109634632Y-71178830D01*
X109654038Y-71169651D01*
X109674250Y-71162419D01*
X109695074Y-71157203D01*
X109716309Y-71154053D01*
X109737750Y-71153000D01*
X110175250Y-71153000D01*
X110196691Y-71154053D01*
G37*
G36*
X111771691Y-71154053D02*
G01*
X111792926Y-71157203D01*
X111813750Y-71162419D01*
X111833962Y-71169651D01*
X111853368Y-71178830D01*
X111871781Y-71189866D01*
X111889024Y-71202654D01*
X111904930Y-71217070D01*
X111919346Y-71232976D01*
X111932134Y-71250219D01*
X111943170Y-71268632D01*
X111952349Y-71288038D01*
X111959581Y-71308250D01*
X111964797Y-71329074D01*
X111967947Y-71350309D01*
X111969000Y-71371750D01*
X111969000Y-71884250D01*
X111967947Y-71905691D01*
X111964797Y-71926926D01*
X111959581Y-71947750D01*
X111952349Y-71967962D01*
X111943170Y-71987368D01*
X111932134Y-72005781D01*
X111919346Y-72023024D01*
X111904930Y-72038930D01*
X111889024Y-72053346D01*
X111871781Y-72066134D01*
X111853368Y-72077170D01*
X111833962Y-72086349D01*
X111813750Y-72093581D01*
X111792926Y-72098797D01*
X111771691Y-72101947D01*
X111750250Y-72103000D01*
X111312750Y-72103000D01*
X111291309Y-72101947D01*
X111270074Y-72098797D01*
X111249250Y-72093581D01*
X111229038Y-72086349D01*
X111209632Y-72077170D01*
X111191219Y-72066134D01*
X111173976Y-72053346D01*
X111158070Y-72038930D01*
X111143654Y-72023024D01*
X111130866Y-72005781D01*
X111119830Y-71987368D01*
X111110651Y-71967962D01*
X111103419Y-71947750D01*
X111098203Y-71926926D01*
X111095053Y-71905691D01*
X111094000Y-71884250D01*
X111094000Y-71371750D01*
X111095053Y-71350309D01*
X111098203Y-71329074D01*
X111103419Y-71308250D01*
X111110651Y-71288038D01*
X111119830Y-71268632D01*
X111130866Y-71250219D01*
X111143654Y-71232976D01*
X111158070Y-71217070D01*
X111173976Y-71202654D01*
X111191219Y-71189866D01*
X111209632Y-71178830D01*
X111229038Y-71169651D01*
X111249250Y-71162419D01*
X111270074Y-71157203D01*
X111291309Y-71154053D01*
X111312750Y-71153000D01*
X111750250Y-71153000D01*
X111771691Y-71154053D01*
G37*
G36*
X105675691Y-68106053D02*
G01*
X105696926Y-68109203D01*
X105717750Y-68114419D01*
X105737962Y-68121651D01*
X105757368Y-68130830D01*
X105775781Y-68141866D01*
X105793024Y-68154654D01*
X105808930Y-68169070D01*
X105823346Y-68184976D01*
X105836134Y-68202219D01*
X105847170Y-68220632D01*
X105856349Y-68240038D01*
X105863581Y-68260250D01*
X105868797Y-68281074D01*
X105871947Y-68302309D01*
X105873000Y-68323750D01*
X105873000Y-68836250D01*
X105871947Y-68857691D01*
X105868797Y-68878926D01*
X105863581Y-68899750D01*
X105856349Y-68919962D01*
X105847170Y-68939368D01*
X105836134Y-68957781D01*
X105823346Y-68975024D01*
X105808930Y-68990930D01*
X105793024Y-69005346D01*
X105775781Y-69018134D01*
X105757368Y-69029170D01*
X105737962Y-69038349D01*
X105717750Y-69045581D01*
X105696926Y-69050797D01*
X105675691Y-69053947D01*
X105654250Y-69055000D01*
X105216750Y-69055000D01*
X105195309Y-69053947D01*
X105174074Y-69050797D01*
X105153250Y-69045581D01*
X105133038Y-69038349D01*
X105113632Y-69029170D01*
X105095219Y-69018134D01*
X105077976Y-69005346D01*
X105062070Y-68990930D01*
X105047654Y-68975024D01*
X105034866Y-68957781D01*
X105023830Y-68939368D01*
X105014651Y-68919962D01*
X105007419Y-68899750D01*
X105002203Y-68878926D01*
X104999053Y-68857691D01*
X104998000Y-68836250D01*
X104998000Y-68323750D01*
X104999053Y-68302309D01*
X105002203Y-68281074D01*
X105007419Y-68260250D01*
X105014651Y-68240038D01*
X105023830Y-68220632D01*
X105034866Y-68202219D01*
X105047654Y-68184976D01*
X105062070Y-68169070D01*
X105077976Y-68154654D01*
X105095219Y-68141866D01*
X105113632Y-68130830D01*
X105133038Y-68121651D01*
X105153250Y-68114419D01*
X105174074Y-68109203D01*
X105195309Y-68106053D01*
X105216750Y-68105000D01*
X105654250Y-68105000D01*
X105675691Y-68106053D01*
G37*
G36*
X104100691Y-68106053D02*
G01*
X104121926Y-68109203D01*
X104142750Y-68114419D01*
X104162962Y-68121651D01*
X104182368Y-68130830D01*
X104200781Y-68141866D01*
X104218024Y-68154654D01*
X104233930Y-68169070D01*
X104248346Y-68184976D01*
X104261134Y-68202219D01*
X104272170Y-68220632D01*
X104281349Y-68240038D01*
X104288581Y-68260250D01*
X104293797Y-68281074D01*
X104296947Y-68302309D01*
X104298000Y-68323750D01*
X104298000Y-68836250D01*
X104296947Y-68857691D01*
X104293797Y-68878926D01*
X104288581Y-68899750D01*
X104281349Y-68919962D01*
X104272170Y-68939368D01*
X104261134Y-68957781D01*
X104248346Y-68975024D01*
X104233930Y-68990930D01*
X104218024Y-69005346D01*
X104200781Y-69018134D01*
X104182368Y-69029170D01*
X104162962Y-69038349D01*
X104142750Y-69045581D01*
X104121926Y-69050797D01*
X104100691Y-69053947D01*
X104079250Y-69055000D01*
X103641750Y-69055000D01*
X103620309Y-69053947D01*
X103599074Y-69050797D01*
X103578250Y-69045581D01*
X103558038Y-69038349D01*
X103538632Y-69029170D01*
X103520219Y-69018134D01*
X103502976Y-69005346D01*
X103487070Y-68990930D01*
X103472654Y-68975024D01*
X103459866Y-68957781D01*
X103448830Y-68939368D01*
X103439651Y-68919962D01*
X103432419Y-68899750D01*
X103427203Y-68878926D01*
X103424053Y-68857691D01*
X103423000Y-68836250D01*
X103423000Y-68323750D01*
X103424053Y-68302309D01*
X103427203Y-68281074D01*
X103432419Y-68260250D01*
X103439651Y-68240038D01*
X103448830Y-68220632D01*
X103459866Y-68202219D01*
X103472654Y-68184976D01*
X103487070Y-68169070D01*
X103502976Y-68154654D01*
X103520219Y-68141866D01*
X103538632Y-68130830D01*
X103558038Y-68121651D01*
X103578250Y-68114419D01*
X103599074Y-68109203D01*
X103620309Y-68106053D01*
X103641750Y-68105000D01*
X104079250Y-68105000D01*
X104100691Y-68106053D01*
G37*
G36*
X110196691Y-65058053D02*
G01*
X110217926Y-65061203D01*
X110238750Y-65066419D01*
X110258962Y-65073651D01*
X110278368Y-65082830D01*
X110296781Y-65093866D01*
X110314024Y-65106654D01*
X110329930Y-65121070D01*
X110344346Y-65136976D01*
X110357134Y-65154219D01*
X110368170Y-65172632D01*
X110377349Y-65192038D01*
X110384581Y-65212250D01*
X110389797Y-65233074D01*
X110392947Y-65254309D01*
X110394000Y-65275750D01*
X110394000Y-65788250D01*
X110392947Y-65809691D01*
X110389797Y-65830926D01*
X110384581Y-65851750D01*
X110377349Y-65871962D01*
X110368170Y-65891368D01*
X110357134Y-65909781D01*
X110344346Y-65927024D01*
X110329930Y-65942930D01*
X110314024Y-65957346D01*
X110296781Y-65970134D01*
X110278368Y-65981170D01*
X110258962Y-65990349D01*
X110238750Y-65997581D01*
X110217926Y-66002797D01*
X110196691Y-66005947D01*
X110175250Y-66007000D01*
X109737750Y-66007000D01*
X109716309Y-66005947D01*
X109695074Y-66002797D01*
X109674250Y-65997581D01*
X109654038Y-65990349D01*
X109634632Y-65981170D01*
X109616219Y-65970134D01*
X109598976Y-65957346D01*
X109583070Y-65942930D01*
X109568654Y-65927024D01*
X109555866Y-65909781D01*
X109544830Y-65891368D01*
X109535651Y-65871962D01*
X109528419Y-65851750D01*
X109523203Y-65830926D01*
X109520053Y-65809691D01*
X109519000Y-65788250D01*
X109519000Y-65275750D01*
X109520053Y-65254309D01*
X109523203Y-65233074D01*
X109528419Y-65212250D01*
X109535651Y-65192038D01*
X109544830Y-65172632D01*
X109555866Y-65154219D01*
X109568654Y-65136976D01*
X109583070Y-65121070D01*
X109598976Y-65106654D01*
X109616219Y-65093866D01*
X109634632Y-65082830D01*
X109654038Y-65073651D01*
X109674250Y-65066419D01*
X109695074Y-65061203D01*
X109716309Y-65058053D01*
X109737750Y-65057000D01*
X110175250Y-65057000D01*
X110196691Y-65058053D01*
G37*
G36*
X111771691Y-65058053D02*
G01*
X111792926Y-65061203D01*
X111813750Y-65066419D01*
X111833962Y-65073651D01*
X111853368Y-65082830D01*
X111871781Y-65093866D01*
X111889024Y-65106654D01*
X111904930Y-65121070D01*
X111919346Y-65136976D01*
X111932134Y-65154219D01*
X111943170Y-65172632D01*
X111952349Y-65192038D01*
X111959581Y-65212250D01*
X111964797Y-65233074D01*
X111967947Y-65254309D01*
X111969000Y-65275750D01*
X111969000Y-65788250D01*
X111967947Y-65809691D01*
X111964797Y-65830926D01*
X111959581Y-65851750D01*
X111952349Y-65871962D01*
X111943170Y-65891368D01*
X111932134Y-65909781D01*
X111919346Y-65927024D01*
X111904930Y-65942930D01*
X111889024Y-65957346D01*
X111871781Y-65970134D01*
X111853368Y-65981170D01*
X111833962Y-65990349D01*
X111813750Y-65997581D01*
X111792926Y-66002797D01*
X111771691Y-66005947D01*
X111750250Y-66007000D01*
X111312750Y-66007000D01*
X111291309Y-66005947D01*
X111270074Y-66002797D01*
X111249250Y-65997581D01*
X111229038Y-65990349D01*
X111209632Y-65981170D01*
X111191219Y-65970134D01*
X111173976Y-65957346D01*
X111158070Y-65942930D01*
X111143654Y-65927024D01*
X111130866Y-65909781D01*
X111119830Y-65891368D01*
X111110651Y-65871962D01*
X111103419Y-65851750D01*
X111098203Y-65830926D01*
X111095053Y-65809691D01*
X111094000Y-65788250D01*
X111094000Y-65275750D01*
X111095053Y-65254309D01*
X111098203Y-65233074D01*
X111103419Y-65212250D01*
X111110651Y-65192038D01*
X111119830Y-65172632D01*
X111130866Y-65154219D01*
X111143654Y-65136976D01*
X111158070Y-65121070D01*
X111173976Y-65106654D01*
X111191219Y-65093866D01*
X111209632Y-65082830D01*
X111229038Y-65073651D01*
X111249250Y-65066419D01*
X111270074Y-65061203D01*
X111291309Y-65058053D01*
X111312750Y-65057000D01*
X111750250Y-65057000D01*
X111771691Y-65058053D01*
G37*
M02*
