G04 #@! TF.GenerationSoftware,KiCad,Pcbnew,5.1.5-52549c5~84~ubuntu16.04.1*
G04 #@! TF.CreationDate,2019-12-28T13:20:19+01:00*
G04 #@! TF.ProjectId,Jig_Varactor,4a69675f-5661-4726-9163-746f722e6b69,rev?*
G04 #@! TF.SameCoordinates,Original*
G04 #@! TF.FileFunction,Copper,L1,Top*
G04 #@! TF.FilePolarity,Positive*
%FSLAX46Y46*%
G04 Gerber Fmt 4.6, Leading zero omitted, Abs format (unit mm)*
G04 Created by KiCad (PCBNEW 5.1.5-52549c5~84~ubuntu16.04.1) date 2019-12-28 13:20:19*
%MOMM*%
%LPD*%
G04 APERTURE LIST*
%ADD10C,0.100000*%
%ADD11O,1.700000X1.700000*%
%ADD12R,1.700000X1.700000*%
%ADD13C,0.500000*%
%ADD14C,0.508000*%
%ADD15C,0.152400*%
G04 APERTURE END LIST*
G04 #@! TA.AperFunction,SMDPad,CuDef*
D10*
G36*
X106906703Y-68230722D02*
G01*
X106921264Y-68232882D01*
X106935543Y-68236459D01*
X106949403Y-68241418D01*
X106962710Y-68247712D01*
X106975336Y-68255280D01*
X106987159Y-68264048D01*
X106998066Y-68273934D01*
X107007952Y-68284841D01*
X107016720Y-68296664D01*
X107024288Y-68309290D01*
X107030582Y-68322597D01*
X107035541Y-68336457D01*
X107039118Y-68350736D01*
X107041278Y-68365297D01*
X107042000Y-68380000D01*
X107042000Y-68780000D01*
X107041278Y-68794703D01*
X107039118Y-68809264D01*
X107035541Y-68823543D01*
X107030582Y-68837403D01*
X107024288Y-68850710D01*
X107016720Y-68863336D01*
X107007952Y-68875159D01*
X106998066Y-68886066D01*
X106987159Y-68895952D01*
X106975336Y-68904720D01*
X106962710Y-68912288D01*
X106949403Y-68918582D01*
X106935543Y-68923541D01*
X106921264Y-68927118D01*
X106906703Y-68929278D01*
X106892000Y-68930000D01*
X106592000Y-68930000D01*
X106577297Y-68929278D01*
X106562736Y-68927118D01*
X106548457Y-68923541D01*
X106534597Y-68918582D01*
X106521290Y-68912288D01*
X106508664Y-68904720D01*
X106496841Y-68895952D01*
X106485934Y-68886066D01*
X106476048Y-68875159D01*
X106467280Y-68863336D01*
X106459712Y-68850710D01*
X106453418Y-68837403D01*
X106448459Y-68823543D01*
X106444882Y-68809264D01*
X106442722Y-68794703D01*
X106442000Y-68780000D01*
X106442000Y-68380000D01*
X106442722Y-68365297D01*
X106444882Y-68350736D01*
X106448459Y-68336457D01*
X106453418Y-68322597D01*
X106459712Y-68309290D01*
X106467280Y-68296664D01*
X106476048Y-68284841D01*
X106485934Y-68273934D01*
X106496841Y-68264048D01*
X106508664Y-68255280D01*
X106521290Y-68247712D01*
X106534597Y-68241418D01*
X106548457Y-68236459D01*
X106562736Y-68232882D01*
X106577297Y-68230722D01*
X106592000Y-68230000D01*
X106892000Y-68230000D01*
X106906703Y-68230722D01*
G37*
G04 #@! TD.AperFunction*
G04 #@! TA.AperFunction,SMDPad,CuDef*
G36*
X108306703Y-68230722D02*
G01*
X108321264Y-68232882D01*
X108335543Y-68236459D01*
X108349403Y-68241418D01*
X108362710Y-68247712D01*
X108375336Y-68255280D01*
X108387159Y-68264048D01*
X108398066Y-68273934D01*
X108407952Y-68284841D01*
X108416720Y-68296664D01*
X108424288Y-68309290D01*
X108430582Y-68322597D01*
X108435541Y-68336457D01*
X108439118Y-68350736D01*
X108441278Y-68365297D01*
X108442000Y-68380000D01*
X108442000Y-68780000D01*
X108441278Y-68794703D01*
X108439118Y-68809264D01*
X108435541Y-68823543D01*
X108430582Y-68837403D01*
X108424288Y-68850710D01*
X108416720Y-68863336D01*
X108407952Y-68875159D01*
X108398066Y-68886066D01*
X108387159Y-68895952D01*
X108375336Y-68904720D01*
X108362710Y-68912288D01*
X108349403Y-68918582D01*
X108335543Y-68923541D01*
X108321264Y-68927118D01*
X108306703Y-68929278D01*
X108292000Y-68930000D01*
X107992000Y-68930000D01*
X107977297Y-68929278D01*
X107962736Y-68927118D01*
X107948457Y-68923541D01*
X107934597Y-68918582D01*
X107921290Y-68912288D01*
X107908664Y-68904720D01*
X107896841Y-68895952D01*
X107885934Y-68886066D01*
X107876048Y-68875159D01*
X107867280Y-68863336D01*
X107859712Y-68850710D01*
X107853418Y-68837403D01*
X107848459Y-68823543D01*
X107844882Y-68809264D01*
X107842722Y-68794703D01*
X107842000Y-68780000D01*
X107842000Y-68380000D01*
X107842722Y-68365297D01*
X107844882Y-68350736D01*
X107848459Y-68336457D01*
X107853418Y-68322597D01*
X107859712Y-68309290D01*
X107867280Y-68296664D01*
X107876048Y-68284841D01*
X107885934Y-68273934D01*
X107896841Y-68264048D01*
X107908664Y-68255280D01*
X107921290Y-68247712D01*
X107934597Y-68241418D01*
X107948457Y-68236459D01*
X107962736Y-68232882D01*
X107977297Y-68230722D01*
X107992000Y-68230000D01*
X108292000Y-68230000D01*
X108306703Y-68230722D01*
G37*
G04 #@! TD.AperFunction*
G04 #@! TA.AperFunction,SMDPad,CuDef*
G36*
X102689252Y-70505602D02*
G01*
X102701386Y-70507402D01*
X102713286Y-70510382D01*
X102724835Y-70514515D01*
X102735925Y-70519760D01*
X102746446Y-70526066D01*
X102756299Y-70533374D01*
X102765388Y-70541612D01*
X102773626Y-70550701D01*
X102780934Y-70560554D01*
X102787240Y-70571075D01*
X102792485Y-70582165D01*
X102796618Y-70593714D01*
X102799598Y-70605614D01*
X102801398Y-70617748D01*
X102802000Y-70630000D01*
X102802000Y-71630000D01*
X102801398Y-71642252D01*
X102799598Y-71654386D01*
X102796618Y-71666286D01*
X102792485Y-71677835D01*
X102787240Y-71688925D01*
X102780934Y-71699446D01*
X102773626Y-71709299D01*
X102765388Y-71718388D01*
X102756299Y-71726626D01*
X102746446Y-71733934D01*
X102735925Y-71740240D01*
X102724835Y-71745485D01*
X102713286Y-71749618D01*
X102701386Y-71752598D01*
X102689252Y-71754398D01*
X102677000Y-71755000D01*
X98677000Y-71755000D01*
X98664748Y-71754398D01*
X98652614Y-71752598D01*
X98640714Y-71749618D01*
X98629165Y-71745485D01*
X98618075Y-71740240D01*
X98607554Y-71733934D01*
X98597701Y-71726626D01*
X98588612Y-71718388D01*
X98580374Y-71709299D01*
X98573066Y-71699446D01*
X98566760Y-71688925D01*
X98561515Y-71677835D01*
X98557382Y-71666286D01*
X98554402Y-71654386D01*
X98552602Y-71642252D01*
X98552000Y-71630000D01*
X98552000Y-70630000D01*
X98552602Y-70617748D01*
X98554402Y-70605614D01*
X98557382Y-70593714D01*
X98561515Y-70582165D01*
X98566760Y-70571075D01*
X98573066Y-70560554D01*
X98580374Y-70550701D01*
X98588612Y-70541612D01*
X98597701Y-70533374D01*
X98607554Y-70526066D01*
X98618075Y-70519760D01*
X98629165Y-70514515D01*
X98640714Y-70510382D01*
X98652614Y-70507402D01*
X98664748Y-70505602D01*
X98677000Y-70505000D01*
X102677000Y-70505000D01*
X102689252Y-70505602D01*
G37*
G04 #@! TD.AperFunction*
G04 #@! TA.AperFunction,SMDPad,CuDef*
G36*
X102711802Y-68080482D02*
G01*
X102721509Y-68081921D01*
X102731028Y-68084306D01*
X102740268Y-68087612D01*
X102749140Y-68091808D01*
X102757557Y-68096853D01*
X102765439Y-68102699D01*
X102772711Y-68109289D01*
X102779301Y-68116561D01*
X102785147Y-68124443D01*
X102790192Y-68132860D01*
X102794388Y-68141732D01*
X102797694Y-68150972D01*
X102800079Y-68160491D01*
X102801518Y-68170198D01*
X102802000Y-68180000D01*
X102802000Y-68980000D01*
X102801518Y-68989802D01*
X102800079Y-68999509D01*
X102797694Y-69009028D01*
X102794388Y-69018268D01*
X102790192Y-69027140D01*
X102785147Y-69035557D01*
X102779301Y-69043439D01*
X102772711Y-69050711D01*
X102765439Y-69057301D01*
X102757557Y-69063147D01*
X102749140Y-69068192D01*
X102740268Y-69072388D01*
X102731028Y-69075694D01*
X102721509Y-69078079D01*
X102711802Y-69079518D01*
X102702000Y-69080000D01*
X98652000Y-69080000D01*
X98642198Y-69079518D01*
X98632491Y-69078079D01*
X98622972Y-69075694D01*
X98613732Y-69072388D01*
X98604860Y-69068192D01*
X98596443Y-69063147D01*
X98588561Y-69057301D01*
X98581289Y-69050711D01*
X98574699Y-69043439D01*
X98568853Y-69035557D01*
X98563808Y-69027140D01*
X98559612Y-69018268D01*
X98556306Y-69009028D01*
X98553921Y-68999509D01*
X98552482Y-68989802D01*
X98552000Y-68980000D01*
X98552000Y-68180000D01*
X98552482Y-68170198D01*
X98553921Y-68160491D01*
X98556306Y-68150972D01*
X98559612Y-68141732D01*
X98563808Y-68132860D01*
X98568853Y-68124443D01*
X98574699Y-68116561D01*
X98581289Y-68109289D01*
X98588561Y-68102699D01*
X98596443Y-68096853D01*
X98604860Y-68091808D01*
X98613732Y-68087612D01*
X98622972Y-68084306D01*
X98632491Y-68081921D01*
X98642198Y-68080482D01*
X98652000Y-68080000D01*
X102702000Y-68080000D01*
X102711802Y-68080482D01*
G37*
G04 #@! TD.AperFunction*
G04 #@! TA.AperFunction,SMDPad,CuDef*
G36*
X102689252Y-65405602D02*
G01*
X102701386Y-65407402D01*
X102713286Y-65410382D01*
X102724835Y-65414515D01*
X102735925Y-65419760D01*
X102746446Y-65426066D01*
X102756299Y-65433374D01*
X102765388Y-65441612D01*
X102773626Y-65450701D01*
X102780934Y-65460554D01*
X102787240Y-65471075D01*
X102792485Y-65482165D01*
X102796618Y-65493714D01*
X102799598Y-65505614D01*
X102801398Y-65517748D01*
X102802000Y-65530000D01*
X102802000Y-66530000D01*
X102801398Y-66542252D01*
X102799598Y-66554386D01*
X102796618Y-66566286D01*
X102792485Y-66577835D01*
X102787240Y-66588925D01*
X102780934Y-66599446D01*
X102773626Y-66609299D01*
X102765388Y-66618388D01*
X102756299Y-66626626D01*
X102746446Y-66633934D01*
X102735925Y-66640240D01*
X102724835Y-66645485D01*
X102713286Y-66649618D01*
X102701386Y-66652598D01*
X102689252Y-66654398D01*
X102677000Y-66655000D01*
X98677000Y-66655000D01*
X98664748Y-66654398D01*
X98652614Y-66652598D01*
X98640714Y-66649618D01*
X98629165Y-66645485D01*
X98618075Y-66640240D01*
X98607554Y-66633934D01*
X98597701Y-66626626D01*
X98588612Y-66618388D01*
X98580374Y-66609299D01*
X98573066Y-66599446D01*
X98566760Y-66588925D01*
X98561515Y-66577835D01*
X98557382Y-66566286D01*
X98554402Y-66554386D01*
X98552602Y-66542252D01*
X98552000Y-66530000D01*
X98552000Y-65530000D01*
X98552602Y-65517748D01*
X98554402Y-65505614D01*
X98557382Y-65493714D01*
X98561515Y-65482165D01*
X98566760Y-65471075D01*
X98573066Y-65460554D01*
X98580374Y-65450701D01*
X98588612Y-65441612D01*
X98597701Y-65433374D01*
X98607554Y-65426066D01*
X98618075Y-65419760D01*
X98629165Y-65414515D01*
X98640714Y-65410382D01*
X98652614Y-65407402D01*
X98664748Y-65405602D01*
X98677000Y-65405000D01*
X102677000Y-65405000D01*
X102689252Y-65405602D01*
G37*
G04 #@! TD.AperFunction*
G04 #@! TA.AperFunction,SMDPad,CuDef*
G36*
X110196691Y-71154053D02*
G01*
X110217926Y-71157203D01*
X110238750Y-71162419D01*
X110258962Y-71169651D01*
X110278368Y-71178830D01*
X110296781Y-71189866D01*
X110314024Y-71202654D01*
X110329930Y-71217070D01*
X110344346Y-71232976D01*
X110357134Y-71250219D01*
X110368170Y-71268632D01*
X110377349Y-71288038D01*
X110384581Y-71308250D01*
X110389797Y-71329074D01*
X110392947Y-71350309D01*
X110394000Y-71371750D01*
X110394000Y-71884250D01*
X110392947Y-71905691D01*
X110389797Y-71926926D01*
X110384581Y-71947750D01*
X110377349Y-71967962D01*
X110368170Y-71987368D01*
X110357134Y-72005781D01*
X110344346Y-72023024D01*
X110329930Y-72038930D01*
X110314024Y-72053346D01*
X110296781Y-72066134D01*
X110278368Y-72077170D01*
X110258962Y-72086349D01*
X110238750Y-72093581D01*
X110217926Y-72098797D01*
X110196691Y-72101947D01*
X110175250Y-72103000D01*
X109737750Y-72103000D01*
X109716309Y-72101947D01*
X109695074Y-72098797D01*
X109674250Y-72093581D01*
X109654038Y-72086349D01*
X109634632Y-72077170D01*
X109616219Y-72066134D01*
X109598976Y-72053346D01*
X109583070Y-72038930D01*
X109568654Y-72023024D01*
X109555866Y-72005781D01*
X109544830Y-71987368D01*
X109535651Y-71967962D01*
X109528419Y-71947750D01*
X109523203Y-71926926D01*
X109520053Y-71905691D01*
X109519000Y-71884250D01*
X109519000Y-71371750D01*
X109520053Y-71350309D01*
X109523203Y-71329074D01*
X109528419Y-71308250D01*
X109535651Y-71288038D01*
X109544830Y-71268632D01*
X109555866Y-71250219D01*
X109568654Y-71232976D01*
X109583070Y-71217070D01*
X109598976Y-71202654D01*
X109616219Y-71189866D01*
X109634632Y-71178830D01*
X109654038Y-71169651D01*
X109674250Y-71162419D01*
X109695074Y-71157203D01*
X109716309Y-71154053D01*
X109737750Y-71153000D01*
X110175250Y-71153000D01*
X110196691Y-71154053D01*
G37*
G04 #@! TD.AperFunction*
G04 #@! TA.AperFunction,SMDPad,CuDef*
G36*
X111771691Y-71154053D02*
G01*
X111792926Y-71157203D01*
X111813750Y-71162419D01*
X111833962Y-71169651D01*
X111853368Y-71178830D01*
X111871781Y-71189866D01*
X111889024Y-71202654D01*
X111904930Y-71217070D01*
X111919346Y-71232976D01*
X111932134Y-71250219D01*
X111943170Y-71268632D01*
X111952349Y-71288038D01*
X111959581Y-71308250D01*
X111964797Y-71329074D01*
X111967947Y-71350309D01*
X111969000Y-71371750D01*
X111969000Y-71884250D01*
X111967947Y-71905691D01*
X111964797Y-71926926D01*
X111959581Y-71947750D01*
X111952349Y-71967962D01*
X111943170Y-71987368D01*
X111932134Y-72005781D01*
X111919346Y-72023024D01*
X111904930Y-72038930D01*
X111889024Y-72053346D01*
X111871781Y-72066134D01*
X111853368Y-72077170D01*
X111833962Y-72086349D01*
X111813750Y-72093581D01*
X111792926Y-72098797D01*
X111771691Y-72101947D01*
X111750250Y-72103000D01*
X111312750Y-72103000D01*
X111291309Y-72101947D01*
X111270074Y-72098797D01*
X111249250Y-72093581D01*
X111229038Y-72086349D01*
X111209632Y-72077170D01*
X111191219Y-72066134D01*
X111173976Y-72053346D01*
X111158070Y-72038930D01*
X111143654Y-72023024D01*
X111130866Y-72005781D01*
X111119830Y-71987368D01*
X111110651Y-71967962D01*
X111103419Y-71947750D01*
X111098203Y-71926926D01*
X111095053Y-71905691D01*
X111094000Y-71884250D01*
X111094000Y-71371750D01*
X111095053Y-71350309D01*
X111098203Y-71329074D01*
X111103419Y-71308250D01*
X111110651Y-71288038D01*
X111119830Y-71268632D01*
X111130866Y-71250219D01*
X111143654Y-71232976D01*
X111158070Y-71217070D01*
X111173976Y-71202654D01*
X111191219Y-71189866D01*
X111209632Y-71178830D01*
X111229038Y-71169651D01*
X111249250Y-71162419D01*
X111270074Y-71157203D01*
X111291309Y-71154053D01*
X111312750Y-71153000D01*
X111750250Y-71153000D01*
X111771691Y-71154053D01*
G37*
G04 #@! TD.AperFunction*
G04 #@! TA.AperFunction,SMDPad,CuDef*
G36*
X105675691Y-68106053D02*
G01*
X105696926Y-68109203D01*
X105717750Y-68114419D01*
X105737962Y-68121651D01*
X105757368Y-68130830D01*
X105775781Y-68141866D01*
X105793024Y-68154654D01*
X105808930Y-68169070D01*
X105823346Y-68184976D01*
X105836134Y-68202219D01*
X105847170Y-68220632D01*
X105856349Y-68240038D01*
X105863581Y-68260250D01*
X105868797Y-68281074D01*
X105871947Y-68302309D01*
X105873000Y-68323750D01*
X105873000Y-68836250D01*
X105871947Y-68857691D01*
X105868797Y-68878926D01*
X105863581Y-68899750D01*
X105856349Y-68919962D01*
X105847170Y-68939368D01*
X105836134Y-68957781D01*
X105823346Y-68975024D01*
X105808930Y-68990930D01*
X105793024Y-69005346D01*
X105775781Y-69018134D01*
X105757368Y-69029170D01*
X105737962Y-69038349D01*
X105717750Y-69045581D01*
X105696926Y-69050797D01*
X105675691Y-69053947D01*
X105654250Y-69055000D01*
X105216750Y-69055000D01*
X105195309Y-69053947D01*
X105174074Y-69050797D01*
X105153250Y-69045581D01*
X105133038Y-69038349D01*
X105113632Y-69029170D01*
X105095219Y-69018134D01*
X105077976Y-69005346D01*
X105062070Y-68990930D01*
X105047654Y-68975024D01*
X105034866Y-68957781D01*
X105023830Y-68939368D01*
X105014651Y-68919962D01*
X105007419Y-68899750D01*
X105002203Y-68878926D01*
X104999053Y-68857691D01*
X104998000Y-68836250D01*
X104998000Y-68323750D01*
X104999053Y-68302309D01*
X105002203Y-68281074D01*
X105007419Y-68260250D01*
X105014651Y-68240038D01*
X105023830Y-68220632D01*
X105034866Y-68202219D01*
X105047654Y-68184976D01*
X105062070Y-68169070D01*
X105077976Y-68154654D01*
X105095219Y-68141866D01*
X105113632Y-68130830D01*
X105133038Y-68121651D01*
X105153250Y-68114419D01*
X105174074Y-68109203D01*
X105195309Y-68106053D01*
X105216750Y-68105000D01*
X105654250Y-68105000D01*
X105675691Y-68106053D01*
G37*
G04 #@! TD.AperFunction*
G04 #@! TA.AperFunction,SMDPad,CuDef*
G36*
X104100691Y-68106053D02*
G01*
X104121926Y-68109203D01*
X104142750Y-68114419D01*
X104162962Y-68121651D01*
X104182368Y-68130830D01*
X104200781Y-68141866D01*
X104218024Y-68154654D01*
X104233930Y-68169070D01*
X104248346Y-68184976D01*
X104261134Y-68202219D01*
X104272170Y-68220632D01*
X104281349Y-68240038D01*
X104288581Y-68260250D01*
X104293797Y-68281074D01*
X104296947Y-68302309D01*
X104298000Y-68323750D01*
X104298000Y-68836250D01*
X104296947Y-68857691D01*
X104293797Y-68878926D01*
X104288581Y-68899750D01*
X104281349Y-68919962D01*
X104272170Y-68939368D01*
X104261134Y-68957781D01*
X104248346Y-68975024D01*
X104233930Y-68990930D01*
X104218024Y-69005346D01*
X104200781Y-69018134D01*
X104182368Y-69029170D01*
X104162962Y-69038349D01*
X104142750Y-69045581D01*
X104121926Y-69050797D01*
X104100691Y-69053947D01*
X104079250Y-69055000D01*
X103641750Y-69055000D01*
X103620309Y-69053947D01*
X103599074Y-69050797D01*
X103578250Y-69045581D01*
X103558038Y-69038349D01*
X103538632Y-69029170D01*
X103520219Y-69018134D01*
X103502976Y-69005346D01*
X103487070Y-68990930D01*
X103472654Y-68975024D01*
X103459866Y-68957781D01*
X103448830Y-68939368D01*
X103439651Y-68919962D01*
X103432419Y-68899750D01*
X103427203Y-68878926D01*
X103424053Y-68857691D01*
X103423000Y-68836250D01*
X103423000Y-68323750D01*
X103424053Y-68302309D01*
X103427203Y-68281074D01*
X103432419Y-68260250D01*
X103439651Y-68240038D01*
X103448830Y-68220632D01*
X103459866Y-68202219D01*
X103472654Y-68184976D01*
X103487070Y-68169070D01*
X103502976Y-68154654D01*
X103520219Y-68141866D01*
X103538632Y-68130830D01*
X103558038Y-68121651D01*
X103578250Y-68114419D01*
X103599074Y-68109203D01*
X103620309Y-68106053D01*
X103641750Y-68105000D01*
X104079250Y-68105000D01*
X104100691Y-68106053D01*
G37*
G04 #@! TD.AperFunction*
D11*
X110744000Y-69850000D03*
D12*
X110744000Y-67310000D03*
G04 #@! TA.AperFunction,SMDPad,CuDef*
D10*
G36*
X110196691Y-65058053D02*
G01*
X110217926Y-65061203D01*
X110238750Y-65066419D01*
X110258962Y-65073651D01*
X110278368Y-65082830D01*
X110296781Y-65093866D01*
X110314024Y-65106654D01*
X110329930Y-65121070D01*
X110344346Y-65136976D01*
X110357134Y-65154219D01*
X110368170Y-65172632D01*
X110377349Y-65192038D01*
X110384581Y-65212250D01*
X110389797Y-65233074D01*
X110392947Y-65254309D01*
X110394000Y-65275750D01*
X110394000Y-65788250D01*
X110392947Y-65809691D01*
X110389797Y-65830926D01*
X110384581Y-65851750D01*
X110377349Y-65871962D01*
X110368170Y-65891368D01*
X110357134Y-65909781D01*
X110344346Y-65927024D01*
X110329930Y-65942930D01*
X110314024Y-65957346D01*
X110296781Y-65970134D01*
X110278368Y-65981170D01*
X110258962Y-65990349D01*
X110238750Y-65997581D01*
X110217926Y-66002797D01*
X110196691Y-66005947D01*
X110175250Y-66007000D01*
X109737750Y-66007000D01*
X109716309Y-66005947D01*
X109695074Y-66002797D01*
X109674250Y-65997581D01*
X109654038Y-65990349D01*
X109634632Y-65981170D01*
X109616219Y-65970134D01*
X109598976Y-65957346D01*
X109583070Y-65942930D01*
X109568654Y-65927024D01*
X109555866Y-65909781D01*
X109544830Y-65891368D01*
X109535651Y-65871962D01*
X109528419Y-65851750D01*
X109523203Y-65830926D01*
X109520053Y-65809691D01*
X109519000Y-65788250D01*
X109519000Y-65275750D01*
X109520053Y-65254309D01*
X109523203Y-65233074D01*
X109528419Y-65212250D01*
X109535651Y-65192038D01*
X109544830Y-65172632D01*
X109555866Y-65154219D01*
X109568654Y-65136976D01*
X109583070Y-65121070D01*
X109598976Y-65106654D01*
X109616219Y-65093866D01*
X109634632Y-65082830D01*
X109654038Y-65073651D01*
X109674250Y-65066419D01*
X109695074Y-65061203D01*
X109716309Y-65058053D01*
X109737750Y-65057000D01*
X110175250Y-65057000D01*
X110196691Y-65058053D01*
G37*
G04 #@! TD.AperFunction*
G04 #@! TA.AperFunction,SMDPad,CuDef*
G36*
X111771691Y-65058053D02*
G01*
X111792926Y-65061203D01*
X111813750Y-65066419D01*
X111833962Y-65073651D01*
X111853368Y-65082830D01*
X111871781Y-65093866D01*
X111889024Y-65106654D01*
X111904930Y-65121070D01*
X111919346Y-65136976D01*
X111932134Y-65154219D01*
X111943170Y-65172632D01*
X111952349Y-65192038D01*
X111959581Y-65212250D01*
X111964797Y-65233074D01*
X111967947Y-65254309D01*
X111969000Y-65275750D01*
X111969000Y-65788250D01*
X111967947Y-65809691D01*
X111964797Y-65830926D01*
X111959581Y-65851750D01*
X111952349Y-65871962D01*
X111943170Y-65891368D01*
X111932134Y-65909781D01*
X111919346Y-65927024D01*
X111904930Y-65942930D01*
X111889024Y-65957346D01*
X111871781Y-65970134D01*
X111853368Y-65981170D01*
X111833962Y-65990349D01*
X111813750Y-65997581D01*
X111792926Y-66002797D01*
X111771691Y-66005947D01*
X111750250Y-66007000D01*
X111312750Y-66007000D01*
X111291309Y-66005947D01*
X111270074Y-66002797D01*
X111249250Y-65997581D01*
X111229038Y-65990349D01*
X111209632Y-65981170D01*
X111191219Y-65970134D01*
X111173976Y-65957346D01*
X111158070Y-65942930D01*
X111143654Y-65927024D01*
X111130866Y-65909781D01*
X111119830Y-65891368D01*
X111110651Y-65871962D01*
X111103419Y-65851750D01*
X111098203Y-65830926D01*
X111095053Y-65809691D01*
X111094000Y-65788250D01*
X111094000Y-65275750D01*
X111095053Y-65254309D01*
X111098203Y-65233074D01*
X111103419Y-65212250D01*
X111110651Y-65192038D01*
X111119830Y-65172632D01*
X111130866Y-65154219D01*
X111143654Y-65136976D01*
X111158070Y-65121070D01*
X111173976Y-65106654D01*
X111191219Y-65093866D01*
X111209632Y-65082830D01*
X111229038Y-65073651D01*
X111249250Y-65066419D01*
X111270074Y-65061203D01*
X111291309Y-65058053D01*
X111312750Y-65057000D01*
X111750250Y-65057000D01*
X111771691Y-65058053D01*
G37*
G04 #@! TD.AperFunction*
D13*
X108966000Y-69342000D03*
X108966000Y-70104000D03*
X108204000Y-67818000D03*
X108204000Y-67056000D03*
X108204000Y-69342000D03*
X108204000Y-70104000D03*
X108966000Y-68580000D03*
X108204000Y-70866000D03*
X108204000Y-66294000D03*
X107442000Y-66294000D03*
X106680000Y-66294000D03*
X105918000Y-66294000D03*
X105156000Y-66294000D03*
X104394000Y-66294000D03*
X103632000Y-66294000D03*
X103124000Y-70866000D03*
X103886000Y-70866000D03*
X104648000Y-70866000D03*
X107188000Y-70866000D03*
X106172000Y-70866000D03*
X108966000Y-67818000D03*
X108966000Y-67056000D03*
X108966000Y-66294000D03*
X108966000Y-70866000D03*
D14*
X103860500Y-68580000D02*
X100677000Y-68580000D01*
X106742000Y-68580000D02*
X105435500Y-68580000D01*
D15*
X105435500Y-71145500D02*
X105435500Y-68580000D01*
X105918000Y-71628000D02*
X105435500Y-71145500D01*
X109956500Y-71628000D02*
X105918000Y-71628000D01*
X110744000Y-67310000D02*
X110744000Y-65659000D01*
X110871000Y-65532000D02*
X111531500Y-65532000D01*
X110744000Y-65659000D02*
X110871000Y-65532000D01*
X111531500Y-70637500D02*
X110744000Y-69850000D01*
X111531500Y-71628000D02*
X111531500Y-70637500D01*
G36*
X105083100Y-71128196D02*
G01*
X105081396Y-71145500D01*
X105083100Y-71162804D01*
X105083100Y-71162810D01*
X105088199Y-71214581D01*
X105108350Y-71281009D01*
X105141072Y-71342229D01*
X105185110Y-71395889D01*
X105198557Y-71406925D01*
X105656575Y-71864944D01*
X105667610Y-71878390D01*
X105721270Y-71922428D01*
X105782490Y-71955150D01*
X105829940Y-71969544D01*
X105848917Y-71975301D01*
X105855823Y-71975981D01*
X105900689Y-71980400D01*
X105900695Y-71980400D01*
X105917999Y-71982104D01*
X105935303Y-71980400D01*
X109250934Y-71980400D01*
X109251000Y-71981071D01*
X109279242Y-72074170D01*
X109312504Y-72136400D01*
X99072407Y-72136400D01*
X99010821Y-72130361D01*
X98963519Y-72116080D01*
X98919891Y-72092883D01*
X98881597Y-72061651D01*
X98850101Y-72023579D01*
X98826598Y-71980111D01*
X98811988Y-71932913D01*
X98805600Y-71872137D01*
X98805600Y-70434200D01*
X105083100Y-70434200D01*
X105083100Y-71128196D01*
G37*
X105083100Y-71128196D02*
X105081396Y-71145500D01*
X105083100Y-71162804D01*
X105083100Y-71162810D01*
X105088199Y-71214581D01*
X105108350Y-71281009D01*
X105141072Y-71342229D01*
X105185110Y-71395889D01*
X105198557Y-71406925D01*
X105656575Y-71864944D01*
X105667610Y-71878390D01*
X105721270Y-71922428D01*
X105782490Y-71955150D01*
X105829940Y-71969544D01*
X105848917Y-71975301D01*
X105855823Y-71975981D01*
X105900689Y-71980400D01*
X105900695Y-71980400D01*
X105917999Y-71982104D01*
X105935303Y-71980400D01*
X109250934Y-71980400D01*
X109251000Y-71981071D01*
X109279242Y-72074170D01*
X109312504Y-72136400D01*
X99072407Y-72136400D01*
X99010821Y-72130361D01*
X98963519Y-72116080D01*
X98919891Y-72092883D01*
X98881597Y-72061651D01*
X98850101Y-72023579D01*
X98826598Y-71980111D01*
X98811988Y-71932913D01*
X98805600Y-71872137D01*
X98805600Y-70434200D01*
X105083100Y-70434200D01*
X105083100Y-71128196D01*
G36*
X110854242Y-65085830D02*
G01*
X110826000Y-65178929D01*
X110825662Y-65182360D01*
X110814473Y-65183462D01*
X110801916Y-65184699D01*
X110776930Y-65192279D01*
X110735490Y-65204850D01*
X110674270Y-65237572D01*
X110620610Y-65281610D01*
X110609571Y-65295061D01*
X110507057Y-65397575D01*
X110493611Y-65408610D01*
X110482576Y-65422056D01*
X110482575Y-65422057D01*
X110449573Y-65462270D01*
X110416850Y-65523491D01*
X110396699Y-65589918D01*
X110389896Y-65659000D01*
X110391601Y-65676313D01*
X110391601Y-66182464D01*
X109894000Y-66182464D01*
X109839855Y-66187797D01*
X109787792Y-66203590D01*
X109739809Y-66229237D01*
X109697752Y-66263752D01*
X109663237Y-66305809D01*
X109637590Y-66353792D01*
X109621797Y-66405855D01*
X109616464Y-66460000D01*
X109616464Y-68160000D01*
X109621797Y-68214145D01*
X109637590Y-68266208D01*
X109663237Y-68314191D01*
X109697752Y-68356248D01*
X109739809Y-68390763D01*
X109787792Y-68416410D01*
X109839855Y-68432203D01*
X109894000Y-68437536D01*
X111594000Y-68437536D01*
X111648145Y-68432203D01*
X111700208Y-68416410D01*
X111748191Y-68390763D01*
X111790248Y-68356248D01*
X111824763Y-68314191D01*
X111850410Y-68266208D01*
X111866203Y-68214145D01*
X111871536Y-68160000D01*
X111871536Y-66460000D01*
X111866203Y-66405855D01*
X111850410Y-66353792D01*
X111824763Y-66305809D01*
X111803038Y-66279337D01*
X111847071Y-66275000D01*
X111940170Y-66246758D01*
X112025972Y-66200897D01*
X112101177Y-66139177D01*
X112162897Y-66063972D01*
X112208758Y-65978170D01*
X112237000Y-65885071D01*
X112246536Y-65788250D01*
X112246536Y-65275750D01*
X112237000Y-65178929D01*
X112224369Y-65137291D01*
X112247402Y-65179889D01*
X112262012Y-65227087D01*
X112268401Y-65287873D01*
X112268400Y-71869593D01*
X112262361Y-71931179D01*
X112248080Y-71978481D01*
X112224883Y-72022109D01*
X112224355Y-72022756D01*
X112237000Y-71981071D01*
X112246536Y-71884250D01*
X112246536Y-71371750D01*
X112237000Y-71274929D01*
X112208758Y-71181830D01*
X112162897Y-71096028D01*
X112101177Y-71020823D01*
X112025972Y-70959103D01*
X111940170Y-70913242D01*
X111883900Y-70896172D01*
X111883900Y-70654803D01*
X111885604Y-70637499D01*
X111883900Y-70620195D01*
X111883900Y-70620189D01*
X111878801Y-70568418D01*
X111878801Y-70568416D01*
X111869420Y-70537495D01*
X111858650Y-70501990D01*
X111825928Y-70440770D01*
X111781890Y-70387110D01*
X111768444Y-70376075D01*
X111751925Y-70359556D01*
X111826921Y-70178500D01*
X111870200Y-69960921D01*
X111870200Y-69739079D01*
X111826921Y-69521500D01*
X111742025Y-69316544D01*
X111618777Y-69132089D01*
X111461911Y-68975223D01*
X111277456Y-68851975D01*
X111072500Y-68767079D01*
X110854921Y-68723800D01*
X110633079Y-68723800D01*
X110415500Y-68767079D01*
X110210544Y-68851975D01*
X110026089Y-68975223D01*
X109869223Y-69132089D01*
X109745975Y-69316544D01*
X109661079Y-69521500D01*
X109617800Y-69739079D01*
X109617800Y-69960921D01*
X109661079Y-70178500D01*
X109745975Y-70383456D01*
X109869223Y-70567911D01*
X110026089Y-70724777D01*
X110210544Y-70848025D01*
X110415500Y-70932921D01*
X110633079Y-70976200D01*
X110854921Y-70976200D01*
X111072500Y-70932921D01*
X111179101Y-70888765D01*
X111179101Y-70896172D01*
X111122830Y-70913242D01*
X111037028Y-70959103D01*
X110961823Y-71020823D01*
X110900103Y-71096028D01*
X110854242Y-71181830D01*
X110826000Y-71274929D01*
X110816464Y-71371750D01*
X110816464Y-71884250D01*
X110826000Y-71981071D01*
X110854242Y-72074170D01*
X110887504Y-72136400D01*
X110600496Y-72136400D01*
X110633758Y-72074170D01*
X110662000Y-71981071D01*
X110671536Y-71884250D01*
X110671536Y-71371750D01*
X110662000Y-71274929D01*
X110633758Y-71181830D01*
X110587897Y-71096028D01*
X110526177Y-71020823D01*
X110450972Y-70959103D01*
X110365170Y-70913242D01*
X110272071Y-70885000D01*
X110175250Y-70875464D01*
X109737750Y-70875464D01*
X109640929Y-70885000D01*
X109547830Y-70913242D01*
X109462028Y-70959103D01*
X109386823Y-71020823D01*
X109325103Y-71096028D01*
X109279242Y-71181830D01*
X109251000Y-71274929D01*
X109250934Y-71275600D01*
X106063969Y-71275600D01*
X105787900Y-70999532D01*
X105787900Y-70434200D01*
X107442000Y-70434200D01*
X107456866Y-70432736D01*
X107471160Y-70428400D01*
X107484334Y-70421358D01*
X107495882Y-70411882D01*
X107749882Y-70157882D01*
X107759358Y-70146334D01*
X107766400Y-70133160D01*
X107770736Y-70118866D01*
X107772200Y-70104000D01*
X107772200Y-67056000D01*
X107770736Y-67041134D01*
X107766400Y-67026840D01*
X107759358Y-67013666D01*
X107749882Y-67002118D01*
X107495882Y-66748118D01*
X107484334Y-66738642D01*
X107471160Y-66731600D01*
X107456866Y-66727264D01*
X107442000Y-66725800D01*
X98805600Y-66725800D01*
X98805600Y-65290408D01*
X98811639Y-65228821D01*
X98825920Y-65181520D01*
X98849117Y-65137891D01*
X98880349Y-65099597D01*
X98918421Y-65068101D01*
X98961889Y-65044598D01*
X99009087Y-65029988D01*
X99069863Y-65023600D01*
X110887504Y-65023600D01*
X110854242Y-65085830D01*
G37*
X110854242Y-65085830D02*
X110826000Y-65178929D01*
X110825662Y-65182360D01*
X110814473Y-65183462D01*
X110801916Y-65184699D01*
X110776930Y-65192279D01*
X110735490Y-65204850D01*
X110674270Y-65237572D01*
X110620610Y-65281610D01*
X110609571Y-65295061D01*
X110507057Y-65397575D01*
X110493611Y-65408610D01*
X110482576Y-65422056D01*
X110482575Y-65422057D01*
X110449573Y-65462270D01*
X110416850Y-65523491D01*
X110396699Y-65589918D01*
X110389896Y-65659000D01*
X110391601Y-65676313D01*
X110391601Y-66182464D01*
X109894000Y-66182464D01*
X109839855Y-66187797D01*
X109787792Y-66203590D01*
X109739809Y-66229237D01*
X109697752Y-66263752D01*
X109663237Y-66305809D01*
X109637590Y-66353792D01*
X109621797Y-66405855D01*
X109616464Y-66460000D01*
X109616464Y-68160000D01*
X109621797Y-68214145D01*
X109637590Y-68266208D01*
X109663237Y-68314191D01*
X109697752Y-68356248D01*
X109739809Y-68390763D01*
X109787792Y-68416410D01*
X109839855Y-68432203D01*
X109894000Y-68437536D01*
X111594000Y-68437536D01*
X111648145Y-68432203D01*
X111700208Y-68416410D01*
X111748191Y-68390763D01*
X111790248Y-68356248D01*
X111824763Y-68314191D01*
X111850410Y-68266208D01*
X111866203Y-68214145D01*
X111871536Y-68160000D01*
X111871536Y-66460000D01*
X111866203Y-66405855D01*
X111850410Y-66353792D01*
X111824763Y-66305809D01*
X111803038Y-66279337D01*
X111847071Y-66275000D01*
X111940170Y-66246758D01*
X112025972Y-66200897D01*
X112101177Y-66139177D01*
X112162897Y-66063972D01*
X112208758Y-65978170D01*
X112237000Y-65885071D01*
X112246536Y-65788250D01*
X112246536Y-65275750D01*
X112237000Y-65178929D01*
X112224369Y-65137291D01*
X112247402Y-65179889D01*
X112262012Y-65227087D01*
X112268401Y-65287873D01*
X112268400Y-71869593D01*
X112262361Y-71931179D01*
X112248080Y-71978481D01*
X112224883Y-72022109D01*
X112224355Y-72022756D01*
X112237000Y-71981071D01*
X112246536Y-71884250D01*
X112246536Y-71371750D01*
X112237000Y-71274929D01*
X112208758Y-71181830D01*
X112162897Y-71096028D01*
X112101177Y-71020823D01*
X112025972Y-70959103D01*
X111940170Y-70913242D01*
X111883900Y-70896172D01*
X111883900Y-70654803D01*
X111885604Y-70637499D01*
X111883900Y-70620195D01*
X111883900Y-70620189D01*
X111878801Y-70568418D01*
X111878801Y-70568416D01*
X111869420Y-70537495D01*
X111858650Y-70501990D01*
X111825928Y-70440770D01*
X111781890Y-70387110D01*
X111768444Y-70376075D01*
X111751925Y-70359556D01*
X111826921Y-70178500D01*
X111870200Y-69960921D01*
X111870200Y-69739079D01*
X111826921Y-69521500D01*
X111742025Y-69316544D01*
X111618777Y-69132089D01*
X111461911Y-68975223D01*
X111277456Y-68851975D01*
X111072500Y-68767079D01*
X110854921Y-68723800D01*
X110633079Y-68723800D01*
X110415500Y-68767079D01*
X110210544Y-68851975D01*
X110026089Y-68975223D01*
X109869223Y-69132089D01*
X109745975Y-69316544D01*
X109661079Y-69521500D01*
X109617800Y-69739079D01*
X109617800Y-69960921D01*
X109661079Y-70178500D01*
X109745975Y-70383456D01*
X109869223Y-70567911D01*
X110026089Y-70724777D01*
X110210544Y-70848025D01*
X110415500Y-70932921D01*
X110633079Y-70976200D01*
X110854921Y-70976200D01*
X111072500Y-70932921D01*
X111179101Y-70888765D01*
X111179101Y-70896172D01*
X111122830Y-70913242D01*
X111037028Y-70959103D01*
X110961823Y-71020823D01*
X110900103Y-71096028D01*
X110854242Y-71181830D01*
X110826000Y-71274929D01*
X110816464Y-71371750D01*
X110816464Y-71884250D01*
X110826000Y-71981071D01*
X110854242Y-72074170D01*
X110887504Y-72136400D01*
X110600496Y-72136400D01*
X110633758Y-72074170D01*
X110662000Y-71981071D01*
X110671536Y-71884250D01*
X110671536Y-71371750D01*
X110662000Y-71274929D01*
X110633758Y-71181830D01*
X110587897Y-71096028D01*
X110526177Y-71020823D01*
X110450972Y-70959103D01*
X110365170Y-70913242D01*
X110272071Y-70885000D01*
X110175250Y-70875464D01*
X109737750Y-70875464D01*
X109640929Y-70885000D01*
X109547830Y-70913242D01*
X109462028Y-70959103D01*
X109386823Y-71020823D01*
X109325103Y-71096028D01*
X109279242Y-71181830D01*
X109251000Y-71274929D01*
X109250934Y-71275600D01*
X106063969Y-71275600D01*
X105787900Y-70999532D01*
X105787900Y-70434200D01*
X107442000Y-70434200D01*
X107456866Y-70432736D01*
X107471160Y-70428400D01*
X107484334Y-70421358D01*
X107495882Y-70411882D01*
X107749882Y-70157882D01*
X107759358Y-70146334D01*
X107766400Y-70133160D01*
X107770736Y-70118866D01*
X107772200Y-70104000D01*
X107772200Y-67056000D01*
X107770736Y-67041134D01*
X107766400Y-67026840D01*
X107759358Y-67013666D01*
X107749882Y-67002118D01*
X107495882Y-66748118D01*
X107484334Y-66738642D01*
X107471160Y-66731600D01*
X107456866Y-66727264D01*
X107442000Y-66725800D01*
X98805600Y-66725800D01*
X98805600Y-65290408D01*
X98811639Y-65228821D01*
X98825920Y-65181520D01*
X98849117Y-65137891D01*
X98880349Y-65099597D01*
X98918421Y-65068101D01*
X98961889Y-65044598D01*
X99009087Y-65029988D01*
X99069863Y-65023600D01*
X110887504Y-65023600D01*
X110854242Y-65085830D01*
M02*
